<svg xmlns="http://www.w3.org/2000/svg" viewBox="0 0 188.98 248.03"><defs><style>.cls-1{fill:#97191d;}.cls-2{fill:#e30613;}</style></defs><g id="Capa_2" data-name="Capa 2"><g id="Capa_1-2" data-name="Capa 1"><path class="cls-1" d="M94.49,200.79C42.3,200.79,0,169.06,0,129.92v47.25C0,216.3,42.3,248,94.49,248S189,216.3,189,177.17V129.92C189,169.06,146.67,200.79,94.49,200.79Z"/><ellipse class="cls-2" cx="94.49" cy="129.92" rx="94.49" ry="70.87"/><path class="cls-1" d="M18.9,129.92S37.22,86.81,94.49,86.81s75.59,43.11,75.59,43.11-2.86-56.69-75.59-56.69S18.9,129.92,18.9,129.92Z"/><path class="cls-1" d="M94.49,141.73C42.3,141.73,0,110,0,70.87v47.24C0,157.25,42.3,189,94.49,189S189,157.25,189,118.11V70.87C189,110,146.67,141.73,94.49,141.73Z"/><ellipse class="cls-2" cx="94.49" cy="70.87" rx="94.49" ry="70.87"/><path class="cls-1" d="M18.9,70.87S37.22,27.76,94.49,27.76s75.59,43.11,75.59,43.11-2.86-56.7-75.59-56.7S18.9,70.87,18.9,70.87Z"/></g></g></svg>