{
    "header": {
    "PPQ": 480,
    "timeSignature": [
        4,
        4
    ],
    "bpm": 166.7398469328205,
    "name": "Mondscheinsonate; der Gräfin Giulietta Guiccardi gewidmet"
    },
    "startTime": 0,
    "duration": 382.42208549999543,
    "tracks": [
    {
        "startTime": 0,
        "duration": 0,
        "length": 0,
        "notes": [],
        "controlChanges": {},
        "id": 0,
        "name": "Mondscheinsonate; der Gräfin Giulietta Guiccardi gewidmet"
    },
    {
        "startTime": 0.0899605,
        "duration": 382.42208549999543,
        "length": 3466,
        "notes": [
        {
            "name": "G#2",
            "midi": 44,
            "time": 0.0899605,
            "velocity": 0.36220472440944884,
            "duration": 0.08621214583333334
        },
        {
            "name": "C#3",
            "midi": 49,
            "time": 0.179921,
            "velocity": 0.3779527559055118,
            "duration": 0.10495391666666665
        },
        {
            "name": "E3",
            "midi": 52,
            "time": 0.2698815,
            "velocity": 0.3937007874015748,
            "duration": 0.10495391666666665
        },
        {
            "name": "G#3",
            "midi": 56,
            "time": 0.359842,
            "velocity": 0.4015748031496063,
            "duration": 0.10495391666666665
        },
        {
            "name": "C#3",
            "midi": 49,
            "time": 0.4498025,
            "velocity": 0.36220472440944884,
            "duration": 0.10495391666666665
        },
        {
            "name": "E3",
            "midi": 52,
            "time": 0.539763,
            "velocity": 0.3700787401574803,
            "duration": 0.10495391666666665
        },
        {
            "name": "G#3",
            "midi": 56,
            "time": 0.6297235,
            "velocity": 0.3858267716535433,
            "duration": 0.10495391666666665
        },
        {
            "name": "C#4",
            "midi": 61,
            "time": 0.719684,
            "velocity": 0.4015748031496063,
            "duration": 0.10495391666666665
        },
        {
            "name": "E3",
            "midi": 52,
            "time": 0.8096445,
            "velocity": 0.36220472440944884,
            "duration": 0.10495391666666665
        },
        {
            "name": "G#3",
            "midi": 56,
            "time": 0.899605,
            "velocity": 0.3700787401574803,
            "duration": 0.10495391666666665
        },
        {
            "name": "C#4",
            "midi": 61,
            "time": 0.9895655,
            "velocity": 0.3858267716535433,
            "duration": 0.10495391666666676
        },
        {
            "name": "E4",
            "midi": 64,
            "time": 1.079526,
            "velocity": 0.4015748031496063,
            "duration": 0.10495391666666687
        },
        {
            "name": "G#3",
            "midi": 56,
            "time": 1.1694865,
            "velocity": 0.3700787401574803,
            "duration": 0.10495391666666687
        },
        {
            "name": "C#4",
            "midi": 61,
            "time": 1.2594470000000002,
            "velocity": 0.3779527559055118,
            "duration": 0.10495391666666687
        },
        {
            "name": "E4",
            "midi": 64,
            "time": 1.3494075000000003,
            "velocity": 0.3858267716535433,
            "duration": 0.10495391666666687
        },
        {
            "name": "G#4",
            "midi": 68,
            "time": 1.4393680000000004,
            "velocity": 0.3937007874015748,
            "duration": 0.10495391666666687
        },
        {
            "name": "C#4",
            "midi": 61,
            "time": 1.5293285000000005,
            "velocity": 0.3700787401574803,
            "duration": 0.10495391666666687
        },
        {
            "name": "E4",
            "midi": 64,
            "time": 1.6192890000000006,
            "velocity": 0.3700787401574803,
            "duration": 0.10495391666666687
        },
        {
            "name": "G#4",
            "midi": 68,
            "time": 1.7092495000000008,
            "velocity": 0.3858267716535433,
            "duration": 0.10495391666666687
        },
        {
            "name": "C#5",
            "midi": 73,
            "time": 1.7992100000000009,
            "velocity": 0.3937007874015748,
            "duration": 0.10495391666666687
        },
        {
            "name": "E4",
            "midi": 64,
            "time": 1.889170500000001,
            "velocity": 0.4015748031496063,
            "duration": 0.10495391666666687
        },
        {
            "name": "G#4",
            "midi": 68,
            "time": 1.979131000000001,
            "velocity": 0.3700787401574803,
            "duration": 0.10495391666666665
        },
        {
            "name": "C#5",
            "midi": 73,
            "time": 2.069091500000001,
            "velocity": 0.4015748031496063,
            "duration": 0.1049539166666662
        },
        {
            "name": "E5",
            "midi": 76,
            "time": 2.159052000000001,
            "velocity": 0.4094488188976378,
            "duration": 0.1049539166666662
        },
        {
            "name": "G#4",
            "midi": 68,
            "time": 2.2490125000000005,
            "velocity": 0.3937007874015748,
            "duration": 0.1049539166666662
        },
        {
            "name": "C#5",
            "midi": 73,
            "time": 2.338973,
            "velocity": 0.4015748031496063,
            "duration": 0.1049539166666662
        },
        {
            "name": "E5",
            "midi": 76,
            "time": 2.4289335,
            "velocity": 0.4251968503937008,
            "duration": 0.08996049999999967
        },
        {
            "name": "G#4",
            "midi": 68,
            "time": 2.5188939999999995,
            "velocity": 0.6220472440944882,
            "duration": 0.08996050000000011
        },
        {
            "name": "E5",
            "midi": 76,
            "time": 2.5188939999999995,
            "velocity": 0.7401574803149606,
            "duration": 0.08996050000000011
        },
        {
            "name": "G#5",
            "midi": 80,
            "time": 2.5188939999999995,
            "velocity": 0.7401574803149606,
            "duration": 0.08996050000000011
        },
        {
            "name": "C#5",
            "midi": 73,
            "time": 2.5188939999999995,
            "velocity": 0.6220472440944882,
            "duration": 0.08996050000000011
        },
        {
            "name": "G#4",
            "midi": 68,
            "time": 2.6988149999999997,
            "velocity": 0.5275590551181102,
            "duration": 0.08996050000000011
        },
        {
            "name": "C#5",
            "midi": 73,
            "time": 2.6988149999999997,
            "velocity": 0.5275590551181102,
            "duration": 0.08996050000000011
        },
        {
            "name": "G#5",
            "midi": 80,
            "time": 2.6988149999999997,
            "velocity": 0.6220472440944882,
            "duration": 0.08996050000000011
        },
        {
            "name": "E5",
            "midi": 76,
            "time": 2.6988149999999997,
            "velocity": 0.6220472440944882,
            "duration": 0.08996050000000011
        },
        {
            "name": "G#2",
            "midi": 44,
            "time": 2.9686965,
            "velocity": 0.3700787401574803,
            "duration": 0.08621214583333314
        },
        {
            "name": "C3",
            "midi": 48,
            "time": 3.0586569999999997,
            "velocity": 0.3779527559055118,
            "duration": 0.10495391666666665
        },
        {
            "name": "D#3",
            "midi": 51,
            "time": 3.1486175,
            "velocity": 0.3937007874015748,
            "duration": 0.1049539166666662
        },
        {
            "name": "G#3",
            "midi": 56,
            "time": 3.2385779999999995,
            "velocity": 0.4015748031496063,
            "duration": 0.1049539166666662
        },
        {
            "name": "C3",
            "midi": 48,
            "time": 3.328538499999999,
            "velocity": 0.3700787401574803,
            "duration": 0.1049539166666662
        },
        {
            "name": "D#3",
            "midi": 51,
            "time": 3.418498999999999,
            "velocity": 0.3779527559055118,
            "duration": 0.1049539166666662
        },
        {
            "name": "G#3",
            "midi": 56,
            "time": 3.5084594999999985,
            "velocity": 0.4015748031496063,
            "duration": 0.1049539166666662
        },
        {
            "name": "C4",
            "midi": 60,
            "time": 3.598419999999998,
            "velocity": 0.4094488188976378,
            "duration": 0.1049539166666662
        },
        {
            "name": "D#3",
            "midi": 51,
            "time": 3.688380499999998,
            "velocity": 0.3700787401574803,
            "duration": 0.1049539166666662
        },
        {
            "name": "G#3",
            "midi": 56,
            "time": 3.7783409999999975,
            "velocity": 0.3779527559055118,
            "duration": 0.1049539166666662
        },
        {
            "name": "C4",
            "midi": 60,
            "time": 3.868301499999997,
            "velocity": 0.3937007874015748,
            "duration": 0.1049539166666662
        },
        {
            "name": "D#4",
            "midi": 63,
            "time": 3.958261999999997,
            "velocity": 0.4015748031496063,
            "duration": 0.10495391666666709
        },
        {
            "name": "G#3",
            "midi": 56,
            "time": 4.048222499999997,
            "velocity": 0.36220472440944884,
            "duration": 0.10495391666666709
        },
        {
            "name": "C4",
            "midi": 60,
            "time": 4.138182999999997,
            "velocity": 0.3700787401574803,
            "duration": 0.10495391666666709
        },
        {
            "name": "D#4",
            "midi": 63,
            "time": 4.228143499999997,
            "velocity": 0.3858267716535433,
            "duration": 0.10495391666666709
        },
        {
            "name": "G#4",
            "midi": 68,
            "time": 4.318103999999997,
            "velocity": 0.4015748031496063,
            "duration": 0.10495391666666709
        },
        {
            "name": "C4",
            "midi": 60,
            "time": 4.408064499999997,
            "velocity": 0.3700787401574803,
            "duration": 0.10495391666666709
        },
        {
            "name": "D#4",
            "midi": 63,
            "time": 4.4980249999999975,
            "velocity": 0.3779527559055118,
            "duration": 0.10495391666666709
        },
        {
            "name": "G#4",
            "midi": 68,
            "time": 4.587985499999998,
            "velocity": 0.3937007874015748,
            "duration": 0.10495391666666709
        },
        {
            "name": "C5",
            "midi": 72,
            "time": 4.677945999999998,
            "velocity": 0.4015748031496063,
            "duration": 0.10495391666666709
        },
        {
            "name": "D#4",
            "midi": 63,
            "time": 4.767906499999998,
            "velocity": 0.3700787401574803,
            "duration": 0.10495391666666709
        },
        {
            "name": "G#4",
            "midi": 68,
            "time": 4.857866999999998,
            "velocity": 0.3779527559055118,
            "duration": 0.10495391666666709
        },
        {
            "name": "C5",
            "midi": 72,
            "time": 4.947827499999998,
            "velocity": 0.4015748031496063,
            "duration": 0.10495391666666709
        },
        {
            "name": "D#5",
            "midi": 75,
            "time": 5.037787999999998,
            "velocity": 0.4094488188976378,
            "duration": 0.10495391666666709
        },
        {
            "name": "G#4",
            "midi": 68,
            "time": 5.127748499999998,
            "velocity": 0.4015748031496063,
            "duration": 0.10495391666666709
        },
        {
            "name": "C5",
            "midi": 72,
            "time": 5.217708999999998,
            "velocity": 0.4015748031496063,
            "duration": 0.10495391666666709
        },
        {
            "name": "D#5",
            "midi": 75,
            "time": 5.3076694999999985,
            "velocity": 0.4094488188976378,
            "duration": 0.08996050000000011
        },
        {
            "name": "G#4",
            "midi": 68,
            "time": 5.397629999999999,
            "velocity": 0.6220472440944882,
            "duration": 0.08996050000000011
        },
        {
            "name": "C5",
            "midi": 72,
            "time": 5.397629999999999,
            "velocity": 0.6220472440944882,
            "duration": 0.08996050000000011
        },
        {
            "name": "D#5",
            "midi": 75,
            "time": 5.397629999999999,
            "velocity": 0.7401574803149606,
            "duration": 0.08996050000000011
        },
        {
            "name": "G#5",
            "midi": 80,
            "time": 5.397629999999999,
            "velocity": 0.7401574803149606,
            "duration": 0.08996050000000011
        },
        {
            "name": "C5",
            "midi": 72,
            "time": 5.577550999999999,
            "velocity": 0.5196850393700787,
            "duration": 0.08996050000000011
        },
        {
            "name": "G#5",
            "midi": 80,
            "time": 5.577550999999999,
            "velocity": 0.6141732283464567,
            "duration": 0.08996050000000011
        },
        {
            "name": "G#4",
            "midi": 68,
            "time": 5.577550999999999,
            "velocity": 0.5196850393700787,
            "duration": 0.08996050000000011
        },
        {
            "name": "D#5",
            "midi": 75,
            "time": 5.577550999999999,
            "velocity": 0.6141732283464567,
            "duration": 0.08996050000000011
        },
        {
            "name": "C#3",
            "midi": 49,
            "time": 5.847432499999999,
            "velocity": 0.5196850393700787,
            "duration": 0.10495391666666709
        },
        {
            "name": "F3",
            "midi": 53,
            "time": 5.937392999999999,
            "velocity": 0.4881889763779528,
            "duration": 0.10495391666666709
        },
        {
            "name": "G#3",
            "midi": 56,
            "time": 6.027353499999999,
            "velocity": 0.5196850393700787,
            "duration": 0.10495391666666709
        },
        {
            "name": "C#4",
            "midi": 61,
            "time": 6.1173139999999995,
            "velocity": 0.5354330708661418,
            "duration": 0.10495391666666709
        },
        {
            "name": "F3",
            "midi": 53,
            "time": 6.2072745,
            "velocity": 0.4881889763779528,
            "duration": 0.10495391666666709
        },
        {
            "name": "G#3",
            "midi": 56,
            "time": 6.297235,
            "velocity": 0.4881889763779528,
            "duration": 0.10495391666666709
        },
        {
            "name": "C#4",
            "midi": 61,
            "time": 6.3871955,
            "velocity": 0.5118110236220472,
            "duration": 0.10495391666666709
        },
        {
            "name": "F4",
            "midi": 65,
            "time": 6.477156,
            "velocity": 0.5354330708661418,
            "duration": 0.10495391666666709
        },
        {
            "name": "G#3",
            "midi": 56,
            "time": 6.5671165,
            "velocity": 0.4881889763779528,
            "duration": 0.10495391666666709
        },
        {
            "name": "C#4",
            "midi": 61,
            "time": 6.657077,
            "velocity": 0.5118110236220472,
            "duration": 0.10495391666666709
        },
        {
            "name": "F4",
            "midi": 65,
            "time": 6.7470375,
            "velocity": 0.5275590551181102,
            "duration": 0.10495391666666709
        },
        {
            "name": "G#4",
            "midi": 68,
            "time": 6.836998,
            "velocity": 0.5354330708661418,
            "duration": 0.10495391666666709
        },
        {
            "name": "C#4",
            "midi": 61,
            "time": 6.9269585000000005,
            "velocity": 0.4881889763779528,
            "duration": 0.10495391666666709
        },
        {
            "name": "F4",
            "midi": 65,
            "time": 7.016919000000001,
            "velocity": 0.49606299212598426,
            "duration": 0.10495391666666709
        },
        {
            "name": "G#4",
            "midi": 68,
            "time": 7.106879500000001,
            "velocity": 0.5196850393700787,
            "duration": 0.10495391666666709
        },
        {
            "name": "C#5",
            "midi": 73,
            "time": 7.196840000000001,
            "velocity": 0.5275590551181102,
            "duration": 0.10495391666666709
        },
        {
            "name": "F4",
            "midi": 65,
            "time": 7.286800500000001,
            "velocity": 0.4881889763779528,
            "duration": 0.10495391666666709
        },
        {
            "name": "G#4",
            "midi": 68,
            "time": 7.376761000000001,
            "velocity": 0.4881889763779528,
            "duration": 0.10495391666666709
        },
        {
            "name": "C#5",
            "midi": 73,
            "time": 7.466721500000001,
            "velocity": 0.5196850393700787,
            "duration": 0.10495391666666709
        },
        {
            "name": "F5",
            "midi": 77,
            "time": 7.556682000000001,
            "velocity": 0.5354330708661418,
            "duration": 0.10495391666666709
        },
        {
            "name": "G#4",
            "midi": 68,
            "time": 7.646642500000001,
            "velocity": 0.4881889763779528,
            "duration": 0.10495391666666709
        },
        {
            "name": "C#5",
            "midi": 73,
            "time": 7.7366030000000015,
            "velocity": 0.5196850393700787,
            "duration": 0.10495391666666709
        },
        {
            "name": "F5",
            "midi": 77,
            "time": 7.826563500000002,
            "velocity": 0.5354330708661418,
            "duration": 0.10495391666666709
        },
        {
            "name": "G#5",
            "midi": 80,
            "time": 7.916524000000002,
            "velocity": 0.5196850393700787,
            "duration": 0.10495391666666709
        },
        {
            "name": "C#5",
            "midi": 73,
            "time": 8.006484500000003,
            "velocity": 0.5354330708661418,
            "duration": 0.1049539166666662
        },
        {
            "name": "F5",
            "midi": 77,
            "time": 8.096445000000003,
            "velocity": 0.5433070866141733,
            "duration": 0.1049539166666662
        },
        {
            "name": "G#5",
            "midi": 80,
            "time": 8.186405500000003,
            "velocity": 0.5590551181102362,
            "duration": 0.08996050000000011
        },
        {
            "name": "F5",
            "midi": 77,
            "time": 8.276366000000003,
            "velocity": 0.6850393700787402,
            "duration": 0.08996050000000011
        },
        {
            "name": "C#6",
            "midi": 85,
            "time": 8.276366000000003,
            "velocity": 0.8110236220472441,
            "duration": 0.08996050000000011
        },
        {
            "name": "G#5",
            "midi": 80,
            "time": 8.276366000000003,
            "velocity": 0.8110236220472441,
            "duration": 0.08996050000000011
        },
        {
            "name": "C#5",
            "midi": 73,
            "time": 8.276366000000003,
            "velocity": 0.6850393700787402,
            "duration": 0.08996050000000011
        },
        {
            "name": "G#5",
            "midi": 80,
            "time": 8.456287000000003,
            "velocity": 0.7086614173228346,
            "duration": 0.08996050000000011
        },
        {
            "name": "C#6",
            "midi": 85,
            "time": 8.456287000000003,
            "velocity": 0.7086614173228346,
            "duration": 0.08996050000000011
        },
        {
            "name": "C#5",
            "midi": 73,
            "time": 8.456287000000003,
            "velocity": 0.6062992125984252,
            "duration": 0.08996050000000011
        },
        {
            "name": "F5",
            "midi": 77,
            "time": 8.456287000000003,
            "velocity": 0.6062992125984252,
            "duration": 0.08996050000000011
        },
        {
            "name": "C#3",
            "midi": 49,
            "time": 8.726168500000004,
            "velocity": 0.48031496062992124,
            "duration": 0.1049539166666662
        },
        {
            "name": "F#3",
            "midi": 54,
            "time": 8.816129000000004,
            "velocity": 0.49606299212598426,
            "duration": 0.1049539166666662
        },
        {
            "name": "A3",
            "midi": 57,
            "time": 8.906089500000004,
            "velocity": 0.4881889763779528,
            "duration": 0.1049539166666662
        },
        {
            "name": "C#4",
            "midi": 61,
            "time": 8.996050000000004,
            "velocity": 0.5433070866141733,
            "duration": 0.044980250000000055
        },
        {
            "name": "C#4",
            "midi": 61,
            "time": 9.086010500000004,
            "velocity": 0.5669291338582677,
            "duration": 0.1049539166666662
        },
        {
            "name": "F#4",
            "midi": 66,
            "time": 9.175971000000004,
            "velocity": 0.5984251968503937,
            "duration": 0.1049539166666662
        },
        {
            "name": "A4",
            "midi": 69,
            "time": 9.265931500000004,
            "velocity": 0.5748031496062992,
            "duration": 0.1049539166666662
        },
        {
            "name": "C#5",
            "midi": 73,
            "time": 9.355892000000004,
            "velocity": 0.6220472440944882,
            "duration": 0.044980250000000055
        },
        {
            "name": "C#5",
            "midi": 73,
            "time": 9.445852500000004,
            "velocity": 0.6062992125984252,
            "duration": 0.1049539166666662
        },
        {
            "name": "F#5",
            "midi": 78,
            "time": 9.535813000000005,
            "velocity": 0.6377952755905512,
            "duration": 0.1049539166666662
        },
        {
            "name": "A5",
            "midi": 81,
            "time": 9.625773500000005,
            "velocity": 0.5984251968503937,
            "duration": 0.08996050000000011
        },
        {
            "name": "C#5",
            "midi": 73,
            "time": 9.715734000000005,
            "velocity": 0.7086614173228346,
            "duration": 0.08996050000000011
        },
        {
            "name": "C#6",
            "midi": 85,
            "time": 9.715734000000005,
            "velocity": 0.8503937007874016,
            "duration": 0.08996050000000011
        },
        {
            "name": "F#5",
            "midi": 78,
            "time": 9.715734000000005,
            "velocity": 0.7086614173228346,
            "duration": 0.08996050000000011
        },
        {
            "name": "C#5",
            "midi": 73,
            "time": 9.895655000000005,
            "velocity": 0.6929133858267716,
            "duration": 0.08996050000000011
        },
        {
            "name": "F#5",
            "midi": 78,
            "time": 9.895655000000005,
            "velocity": 0.6929133858267716,
            "duration": 0.08996050000000011
        },
        {
            "name": "C#6",
            "midi": 85,
            "time": 9.895655000000005,
            "velocity": 0.8188976377952756,
            "duration": 0.08996050000000011
        },
        {
            "name": "C#3",
            "midi": 49,
            "time": 10.165536500000005,
            "velocity": 0.5905511811023622,
            "duration": 0.1049539166666662
        },
        {
            "name": "E3",
            "midi": 52,
            "time": 10.255497000000005,
            "velocity": 0.6062992125984252,
            "duration": 0.1049539166666662
        },
        {
            "name": "G3",
            "midi": 55,
            "time": 10.345457500000006,
            "velocity": 0.6220472440944882,
            "duration": 0.1049539166666662
        },
        {
            "name": "C#4",
            "midi": 61,
            "time": 10.435418000000006,
            "velocity": 0.5984251968503937,
            "duration": 0.044980250000000055
        },
        {
            "name": "C#4",
            "midi": 61,
            "time": 10.525378500000006,
            "velocity": 0.6062992125984252,
            "duration": 0.1049539166666662
        },
        {
            "name": "E4",
            "midi": 64,
            "time": 10.615339000000006,
            "velocity": 0.6220472440944882,
            "duration": 0.1049539166666662
        },
        {
            "name": "G4",
            "midi": 67,
            "time": 10.705299500000006,
            "velocity": 0.6220472440944882,
            "duration": 0.1049539166666662
        },
        {
            "name": "C#5",
            "midi": 73,
            "time": 10.795260000000006,
            "velocity": 0.6299212598425197,
            "duration": 0.044980250000000055
        },
        {
            "name": "C#5",
            "midi": 73,
            "time": 10.885220500000006,
            "velocity": 0.6062992125984252,
            "duration": 0.1049539166666662
        },
        {
            "name": "E5",
            "midi": 76,
            "time": 10.975181000000006,
            "velocity": 0.6220472440944882,
            "duration": 0.1049539166666662
        },
        {
            "name": "G5",
            "midi": 79,
            "time": 11.065141500000006,
            "velocity": 0.6299212598425197,
            "duration": 0.08996050000000011
        },
        {
            "name": "C#6",
            "midi": 85,
            "time": 11.155102000000007,
            "velocity": 0.8267716535433071,
            "duration": 0.08996050000000011
        },
        {
            "name": "C#5",
            "midi": 73,
            "time": 11.155102000000007,
            "velocity": 0.7007874015748031,
            "duration": 0.08996050000000011
        },
        {
            "name": "G5",
            "midi": 79,
            "time": 11.155102000000007,
            "velocity": 0.8267716535433071,
            "duration": 0.08996050000000011
        },
        {
            "name": "C#5",
            "midi": 73,
            "time": 11.335023000000007,
            "velocity": 0.7007874015748031,
            "duration": 0.08996050000000011
        },
        {
            "name": "G5",
            "midi": 79,
            "time": 11.335023000000007,
            "velocity": 0.8267716535433071,
            "duration": 0.08996050000000011
        },
        {
            "name": "C#6",
            "midi": 85,
            "time": 11.335023000000007,
            "velocity": 0.8267716535433071,
            "duration": 0.08996050000000011
        },
        {
            "name": "C5",
            "midi": 72,
            "time": 11.514944000000007,
            "velocity": 0.6929133858267716,
            "duration": 0.17992100000000022
        },
        {
            "name": "C6",
            "midi": 84,
            "time": 11.514944000000007,
            "velocity": 0.8188976377952756,
            "duration": 0.17992100000000022
        },
        {
            "name": "G#5",
            "midi": 80,
            "time": 11.514944000000007,
            "velocity": 0.8188976377952756,
            "duration": 0.17992100000000022
        },
        {
            "name": "G#4",
            "midi": 68,
            "time": 11.694865000000007,
            "velocity": 0.5826771653543307,
            "duration": 0.08996050000000011
        },
        {
            "name": "G#5",
            "midi": 80,
            "time": 11.784825500000007,
            "velocity": 0.4566929133858268,
            "duration": 0.08996050000000011
        },
        {
            "name": "G#4",
            "midi": 68,
            "time": 11.874786000000007,
            "velocity": 0.5905511811023622,
            "duration": 0.08996050000000011
        },
        {
            "name": "G#5",
            "midi": 80,
            "time": 11.964746500000008,
            "velocity": 0.47244094488188976,
            "duration": 0.08996050000000011
        },
        {
            "name": "A#4",
            "midi": 70,
            "time": 12.054707000000008,
            "velocity": 0.5984251968503937,
            "duration": 0.08996050000000011
        },
        {
            "name": "G#5",
            "midi": 80,
            "time": 12.144667500000008,
            "velocity": 0.47244094488188976,
            "duration": 0.08996050000000011
        },
        {
            "name": "C5",
            "midi": 72,
            "time": 12.234628000000008,
            "velocity": 0.5984251968503937,
            "duration": 0.08996050000000011
        },
        {
            "name": "G#5",
            "midi": 80,
            "time": 12.324588500000008,
            "velocity": 0.48031496062992124,
            "duration": 0.08996050000000011
        },
        {
            "name": "C#5",
            "midi": 73,
            "time": 12.414549000000008,
            "velocity": 0.6141732283464567,
            "duration": 0.08996050000000011
        },
        {
            "name": "G#5",
            "midi": 80,
            "time": 12.504509500000008,
            "velocity": 0.4881889763779528,
            "duration": 0.08996050000000011
        },
        {
            "name": "D#5",
            "midi": 75,
            "time": 12.594470000000008,
            "velocity": 0.6220472440944882,
            "duration": 0.08996050000000011
        },
        {
            "name": "G#5",
            "midi": 80,
            "time": 12.684430500000008,
            "velocity": 0.4881889763779528,
            "duration": 0.08996050000000011
        },
        {
            "name": "C5",
            "midi": 72,
            "time": 12.774391000000008,
            "velocity": 0.6220472440944882,
            "duration": 0.08996050000000011
        },
        {
            "name": "G#5",
            "midi": 80,
            "time": 12.864351500000009,
            "velocity": 0.4881889763779528,
            "duration": 0.08996050000000011
        },
        {
            "name": "D#5",
            "midi": 75,
            "time": 12.954312000000009,
            "velocity": 0.6299212598425197,
            "duration": 0.08996050000000011
        },
        {
            "name": "G#5",
            "midi": 80,
            "time": 13.044272500000009,
            "velocity": 0.4881889763779528,
            "duration": 0.08996050000000011
        },
        {
            "name": "C#5",
            "midi": 73,
            "time": 13.134233000000009,
            "velocity": 0.6299212598425197,
            "duration": 0.08996050000000011
        },
        {
            "name": "G#5",
            "midi": 80,
            "time": 13.224193500000009,
            "velocity": 0.4881889763779528,
            "duration": 0.08996050000000011
        },
        {
            "name": "F#5",
            "midi": 78,
            "time": 13.31415400000001,
            "velocity": 0.6614173228346457,
            "duration": 0.08996050000000011
        },
        {
            "name": "G#5",
            "midi": 80,
            "time": 13.40411450000001,
            "velocity": 0.4881889763779528,
            "duration": 0.08996050000000011
        },
        {
            "name": "E5",
            "midi": 76,
            "time": 13.49407500000001,
            "velocity": 0.6299212598425197,
            "duration": 0.08996050000000011
        },
        {
            "name": "G#5",
            "midi": 80,
            "time": 13.58403550000001,
            "velocity": 0.4881889763779528,
            "duration": 0.08996050000000011
        },
        {
            "name": "D#5",
            "midi": 75,
            "time": 13.67399600000001,
            "velocity": 0.6299212598425197,
            "duration": 0.08996050000000011
        },
        {
            "name": "G#5",
            "midi": 80,
            "time": 13.76395650000001,
            "velocity": 0.4881889763779528,
            "duration": 0.08996050000000011
        },
        {
            "name": "C#5",
            "midi": 73,
            "time": 13.85391700000001,
            "velocity": 0.6220472440944882,
            "duration": 0.08996050000000011
        },
        {
            "name": "G#5",
            "midi": 80,
            "time": 13.94387750000001,
            "velocity": 0.4881889763779528,
            "duration": 0.08996050000000011
        },
        {
            "name": "C5",
            "midi": 72,
            "time": 14.03383800000001,
            "velocity": 0.6220472440944882,
            "duration": 0.08996050000000011
        },
        {
            "name": "G#5",
            "midi": 80,
            "time": 14.12379850000001,
            "velocity": 0.4881889763779528,
            "duration": 0.08996050000000011
        },
        {
            "name": "A4",
            "midi": 69,
            "time": 14.21375900000001,
            "velocity": 0.6062992125984252,
            "duration": 0.08996050000000011
        },
        {
            "name": "G5",
            "midi": 79,
            "time": 14.30371950000001,
            "velocity": 0.48031496062992124,
            "duration": 0.08996050000000011
        },
        {
            "name": "G#4",
            "midi": 68,
            "time": 14.39368000000001,
            "velocity": 0.5984251968503937,
            "duration": 0.08996050000000011
        },
        {
            "name": "G#5",
            "midi": 80,
            "time": 14.48364050000001,
            "velocity": 0.47244094488188976,
            "duration": 0.08996050000000011
        },
        {
            "name": "G#4",
            "midi": 68,
            "time": 14.57360100000001,
            "velocity": 0.5905511811023622,
            "duration": 0.08996050000000011
        },
        {
            "name": "G#5",
            "midi": 80,
            "time": 14.66356150000001,
            "velocity": 0.4645669291338583,
            "duration": 0.08996050000000011
        },
        {
            "name": "G#4",
            "midi": 68,
            "time": 14.753522000000011,
            "velocity": 0.5826771653543307,
            "duration": 0.08996050000000011
        },
        {
            "name": "G#5",
            "midi": 80,
            "time": 14.843482500000011,
            "velocity": 0.4645669291338583,
            "duration": 0.08996050000000011
        },
        {
            "name": "A#4",
            "midi": 70,
            "time": 14.933443000000011,
            "velocity": 0.5826771653543307,
            "duration": 0.08996050000000011
        },
        {
            "name": "G#5",
            "midi": 80,
            "time": 15.023403500000011,
            "velocity": 0.48031496062992124,
            "duration": 0.08996050000000011
        },
        {
            "name": "C5",
            "midi": 72,
            "time": 15.113364000000011,
            "velocity": 0.5984251968503937,
            "duration": 0.08996050000000011
        },
        {
            "name": "G#5",
            "midi": 80,
            "time": 15.203324500000011,
            "velocity": 0.4645669291338583,
            "duration": 0.08996050000000011
        },
        {
            "name": "C#5",
            "midi": 73,
            "time": 15.293285000000012,
            "velocity": 0.5984251968503937,
            "duration": 0.08996050000000011
        },
        {
            "name": "G#5",
            "midi": 80,
            "time": 15.383245500000012,
            "velocity": 0.4881889763779528,
            "duration": 0.08996050000000011
        },
        {
            "name": "D#5",
            "midi": 75,
            "time": 15.473206000000012,
            "velocity": 0.6062992125984252,
            "duration": 0.08996050000000011
        },
        {
            "name": "G#5",
            "midi": 80,
            "time": 15.563166500000012,
            "velocity": 0.48031496062992124,
            "duration": 0.08996050000000011
        },
        {
            "name": "C5",
            "midi": 72,
            "time": 15.653127000000012,
            "velocity": 0.6220472440944882,
            "duration": 0.08996050000000011
        },
        {
            "name": "G#5",
            "midi": 80,
            "time": 15.743087500000012,
            "velocity": 0.4881889763779528,
            "duration": 0.08996050000000011
        },
        {
            "name": "D#5",
            "midi": 75,
            "time": 15.833048000000012,
            "velocity": 0.6220472440944882,
            "duration": 0.08996050000000011
        },
        {
            "name": "G#5",
            "midi": 80,
            "time": 15.923008500000012,
            "velocity": 0.4881889763779528,
            "duration": 0.08996050000000011
        },
        {
            "name": "C#5",
            "midi": 73,
            "time": 16.012969000000012,
            "velocity": 0.6299212598425197,
            "duration": 0.08996050000000011
        },
        {
            "name": "G#5",
            "midi": 80,
            "time": 16.102929500000013,
            "velocity": 0.5118110236220472,
            "duration": 0.08996050000000011
        },
        {
            "name": "F#5",
            "midi": 78,
            "time": 16.192890000000013,
            "velocity": 0.6614173228346457,
            "duration": 0.08996050000000011
        },
        {
            "name": "G#5",
            "midi": 80,
            "time": 16.282850500000013,
            "velocity": 0.5354330708661418,
            "duration": 0.08996050000000011
        },
        {
            "name": "E5",
            "midi": 76,
            "time": 16.372811000000013,
            "velocity": 0.6614173228346457,
            "duration": 0.08996050000000011
        },
        {
            "name": "G#5",
            "midi": 80,
            "time": 16.462771500000013,
            "velocity": 0.5275590551181102,
            "duration": 0.08996050000000011
        },
        {
            "name": "D#5",
            "midi": 75,
            "time": 16.552732000000013,
            "velocity": 0.6614173228346457,
            "duration": 0.08996050000000011
        },
        {
            "name": "G#5",
            "midi": 80,
            "time": 16.642692500000013,
            "velocity": 0.5275590551181102,
            "duration": 0.08996050000000011
        },
        {
            "name": "C#5",
            "midi": 73,
            "time": 16.732653000000013,
            "velocity": 0.6614173228346457,
            "duration": 0.08996050000000011
        },
        {
            "name": "G#5",
            "midi": 80,
            "time": 16.822613500000013,
            "velocity": 0.5196850393700787,
            "duration": 0.08996050000000011
        },
        {
            "name": "C5",
            "midi": 72,
            "time": 16.912574000000014,
            "velocity": 0.6614173228346457,
            "duration": 0.08996050000000011
        },
        {
            "name": "G#5",
            "midi": 80,
            "time": 17.002534500000014,
            "velocity": 0.5275590551181102,
            "duration": 0.08996050000000011
        },
        {
            "name": "A4",
            "midi": 69,
            "time": 17.092495000000014,
            "velocity": 0.6614173228346457,
            "duration": 0.08996050000000011
        },
        {
            "name": "G5",
            "midi": 79,
            "time": 17.182455500000014,
            "velocity": 0.5196850393700787,
            "duration": 0.08996050000000011
        },
        {
            "name": "G#4",
            "midi": 68,
            "time": 17.272416000000014,
            "velocity": 0.6614173228346457,
            "duration": 0.08996050000000011
        },
        {
            "name": "G#5",
            "midi": 80,
            "time": 17.362376500000014,
            "velocity": 0.5196850393700787,
            "duration": 0.08996050000000011
        },
        {
            "name": "A4",
            "midi": 69,
            "time": 17.452337000000014,
            "velocity": 0.6220472440944882,
            "duration": 0.08996050000000011
        },
        {
            "name": "G5",
            "midi": 79,
            "time": 17.542297500000014,
            "velocity": 0.5275590551181102,
            "duration": 0.08996050000000011
        },
        {
            "name": "G#4",
            "midi": 68,
            "time": 17.632258000000014,
            "velocity": 0.6614173228346457,
            "duration": 0.08996050000000011
        },
        {
            "name": "G#5",
            "midi": 80,
            "time": 17.722218500000015,
            "velocity": 0.5196850393700787,
            "duration": 0.08996050000000011
        },
        {
            "name": "A4",
            "midi": 69,
            "time": 17.812179000000015,
            "velocity": 0.6220472440944882,
            "duration": 0.08996050000000011
        },
        {
            "name": "G5",
            "midi": 79,
            "time": 17.902139500000015,
            "velocity": 0.5275590551181102,
            "duration": 0.08996050000000011
        },
        {
            "name": "G#4",
            "midi": 68,
            "time": 17.992100000000015,
            "velocity": 0.6614173228346457,
            "duration": 0.08996050000000011
        },
        {
            "name": "G#5",
            "midi": 80,
            "time": 18.082060500000015,
            "velocity": 0.5196850393700787,
            "duration": 0.08996050000000011
        },
        {
            "name": "A4",
            "midi": 69,
            "time": 18.172021000000015,
            "velocity": 0.6220472440944882,
            "duration": 0.08996050000000011
        },
        {
            "name": "G5",
            "midi": 79,
            "time": 18.261981500000015,
            "velocity": 0.5118110236220472,
            "duration": 0.08996050000000011
        },
        {
            "name": "G#4",
            "midi": 68,
            "time": 18.351942000000015,
            "velocity": 0.6614173228346457,
            "duration": 0.08996050000000011
        },
        {
            "name": "G#5",
            "midi": 80,
            "time": 18.441902500000015,
            "velocity": 0.5196850393700787,
            "duration": 0.08996050000000011
        },
        {
            "name": "A4",
            "midi": 69,
            "time": 18.531863000000016,
            "velocity": 0.6220472440944882,
            "duration": 0.08996050000000011
        },
        {
            "name": "G5",
            "midi": 79,
            "time": 18.621823500000016,
            "velocity": 0.5118110236220472,
            "duration": 0.08996050000000011
        },
        {
            "name": "G#4",
            "midi": 68,
            "time": 18.711784000000016,
            "velocity": 0.6614173228346457,
            "duration": 0.17992100000000022
        },
        {
            "name": "G#5",
            "midi": 80,
            "time": 18.711784000000016,
            "velocity": 0.6614173228346457,
            "duration": 0.17992100000000022
        },
        {
            "name": "G#3",
            "midi": 56,
            "time": 19.071626000000016,
            "velocity": 0.889763779527559,
            "duration": 1.0795260000000013
        },
        {
            "name": "G#2",
            "midi": 44,
            "time": 20.241112500000018,
            "velocity": 0.3543307086614173,
            "duration": 0.0862121458333327
        },
        {
            "name": "C#3",
            "midi": 49,
            "time": 20.331073000000018,
            "velocity": 0.3700787401574803,
            "duration": 0.1049539166666662
        },
        {
            "name": "E3",
            "midi": 52,
            "time": 20.421033500000018,
            "velocity": 0.3858267716535433,
            "duration": 0.1049539166666662
        },
        {
            "name": "G#3",
            "midi": 56,
            "time": 20.510994000000018,
            "velocity": 0.4015748031496063,
            "duration": 0.1049539166666662
        },
        {
            "name": "C#3",
            "midi": 49,
            "time": 20.600954500000018,
            "velocity": 0.3700787401574803,
            "duration": 0.1049539166666662
        },
        {
            "name": "E3",
            "midi": 52,
            "time": 20.690915000000018,
            "velocity": 0.3858267716535433,
            "duration": 0.1049539166666662
        },
        {
            "name": "G#3",
            "midi": 56,
            "time": 20.78087550000002,
            "velocity": 0.4015748031496063,
            "duration": 0.1049539166666662
        },
        {
            "name": "C#4",
            "midi": 61,
            "time": 20.87083600000002,
            "velocity": 0.4015748031496063,
            "duration": 0.1049539166666662
        },
        {
            "name": "E3",
            "midi": 52,
            "time": 20.96079650000002,
            "velocity": 0.3700787401574803,
            "duration": 0.1049539166666662
        },
        {
            "name": "G#3",
            "midi": 56,
            "time": 21.05075700000002,
            "velocity": 0.3779527559055118,
            "duration": 0.1049539166666662
        },
        {
            "name": "C#4",
            "midi": 61,
            "time": 21.14071750000002,
            "velocity": 0.3937007874015748,
            "duration": 0.1049539166666662
        },
        {
            "name": "E4",
            "midi": 64,
            "time": 21.23067800000002,
            "velocity": 0.4015748031496063,
            "duration": 0.1049539166666662
        },
        {
            "name": "G#3",
            "midi": 56,
            "time": 21.32063850000002,
            "velocity": 0.3700787401574803,
            "duration": 0.1049539166666662
        },
        {
            "name": "C#4",
            "midi": 61,
            "time": 21.41059900000002,
            "velocity": 0.3779527559055118,
            "duration": 0.1049539166666662
        },
        {
            "name": "E4",
            "midi": 64,
            "time": 21.50055950000002,
            "velocity": 0.3937007874015748,
            "duration": 0.1049539166666662
        },
        {
            "name": "G#4",
            "midi": 68,
            "time": 21.59052000000002,
            "velocity": 0.4015748031496063,
            "duration": 0.1049539166666662
        },
        {
            "name": "C#4",
            "midi": 61,
            "time": 21.68048050000002,
            "velocity": 0.3700787401574803,
            "duration": 0.1049539166666662
        },
        {
            "name": "E4",
            "midi": 64,
            "time": 21.77044100000002,
            "velocity": 0.3779527559055118,
            "duration": 0.1049539166666662
        },
        {
            "name": "G#4",
            "midi": 68,
            "time": 21.86040150000002,
            "velocity": 0.3937007874015748,
            "duration": 0.1049539166666662
        },
        {
            "name": "C#5",
            "midi": 73,
            "time": 21.95036200000002,
            "velocity": 0.4015748031496063,
            "duration": 0.1049539166666662
        },
        {
            "name": "E4",
            "midi": 64,
            "time": 22.04032250000002,
            "velocity": 0.3700787401574803,
            "duration": 0.1049539166666662
        },
        {
            "name": "G#4",
            "midi": 68,
            "time": 22.13028300000002,
            "velocity": 0.3858267716535433,
            "duration": 0.1049539166666662
        },
        {
            "name": "C#5",
            "midi": 73,
            "time": 22.22024350000002,
            "velocity": 0.4015748031496063,
            "duration": 0.1049539166666662
        },
        {
            "name": "E5",
            "midi": 76,
            "time": 22.31020400000002,
            "velocity": 0.4015748031496063,
            "duration": 0.08246379166666529
        },
        {
            "name": "E5",
            "midi": 76,
            "time": 22.40016450000002,
            "velocity": 0.4015748031496063,
            "duration": 0.1049539166666662
        },
        {
            "name": "G#5",
            "midi": 80,
            "time": 22.49012500000002,
            "velocity": 0.4015748031496063,
            "duration": 0.1049539166666662
        },
        {
            "name": "C#6",
            "midi": 85,
            "time": 22.58008550000002,
            "velocity": 0.41732283464566927,
            "duration": 0.1049539166666662
        },
        {
            "name": "E5",
            "midi": 76,
            "time": 22.67004600000002,
            "velocity": 0.7559055118110236,
            "duration": 0.08996050000000011
        },
        {
            "name": "E6",
            "midi": 88,
            "time": 22.67004600000002,
            "velocity": 0.889763779527559,
            "duration": 0.08996050000000011
        },
        {
            "name": "E5",
            "midi": 76,
            "time": 22.84996700000002,
            "velocity": 0.5826771653543307,
            "duration": 0.08996050000000011
        },
        {
            "name": "E6",
            "midi": 88,
            "time": 22.84996700000002,
            "velocity": 0.6929133858267716,
            "duration": 0.08996050000000011
        },
        {
            "name": "E3",
            "midi": 52,
            "time": 23.11984850000002,
            "velocity": 0.3700787401574803,
            "duration": 0.1049539166666662
        },
        {
            "name": "G3",
            "midi": 55,
            "time": 23.20980900000002,
            "velocity": 0.3858267716535433,
            "duration": 0.1049539166666662
        },
        {
            "name": "C#4",
            "midi": 61,
            "time": 23.29976950000002,
            "velocity": 0.4015748031496063,
            "duration": 0.1049539166666662
        },
        {
            "name": "E4",
            "midi": 64,
            "time": 23.38973000000002,
            "velocity": 0.4015748031496063,
            "duration": 0.1049539166666662
        },
        {
            "name": "G3",
            "midi": 55,
            "time": 23.47969050000002,
            "velocity": 0.3700787401574803,
            "duration": 0.1049539166666662
        },
        {
            "name": "C#4",
            "midi": 61,
            "time": 23.56965100000002,
            "velocity": 0.3779527559055118,
            "duration": 0.1049539166666662
        },
        {
            "name": "E4",
            "midi": 64,
            "time": 23.659611500000022,
            "velocity": 0.3937007874015748,
            "duration": 0.1049539166666662
        },
        {
            "name": "G4",
            "midi": 67,
            "time": 23.749572000000022,
            "velocity": 0.4015748031496063,
            "duration": 0.1049539166666662
        },
        {
            "name": "C#4",
            "midi": 61,
            "time": 23.839532500000022,
            "velocity": 0.3700787401574803,
            "duration": 0.1049539166666662
        },
        {
            "name": "E4",
            "midi": 64,
            "time": 23.929493000000022,
            "velocity": 0.3779527559055118,
            "duration": 0.1049539166666662
        },
        {
            "name": "G4",
            "midi": 67,
            "time": 24.019453500000022,
            "velocity": 0.4015748031496063,
            "duration": 0.1049539166666662
        },
        {
            "name": "C#5",
            "midi": 73,
            "time": 24.109414000000022,
            "velocity": 0.4094488188976378,
            "duration": 0.1049539166666662
        },
        {
            "name": "E4",
            "midi": 64,
            "time": 24.199374500000022,
            "velocity": 0.3700787401574803,
            "duration": 0.1049539166666662
        },
        {
            "name": "G4",
            "midi": 67,
            "time": 24.289335000000023,
            "velocity": 0.3858267716535433,
            "duration": 0.1049539166666662
        },
        {
            "name": "C#5",
            "midi": 73,
            "time": 24.379295500000023,
            "velocity": 0.4015748031496063,
            "duration": 0.1049539166666662
        },
        {
            "name": "E5",
            "midi": 76,
            "time": 24.469256000000023,
            "velocity": 0.41732283464566927,
            "duration": 0.1049539166666662
        },
        {
            "name": "G4",
            "midi": 67,
            "time": 24.559216500000023,
            "velocity": 0.3700787401574803,
            "duration": 0.1049539166666662
        },
        {
            "name": "C#5",
            "midi": 73,
            "time": 24.649177000000023,
            "velocity": 0.3937007874015748,
            "duration": 0.1049539166666662
        },
        {
            "name": "E5",
            "midi": 76,
            "time": 24.739137500000023,
            "velocity": 0.4015748031496063,
            "duration": 0.1049539166666662
        },
        {
            "name": "G5",
            "midi": 79,
            "time": 24.829098000000023,
            "velocity": 0.41732283464566927,
            "duration": 0.1049539166666662
        },
        {
            "name": "C#5",
            "midi": 73,
            "time": 24.919058500000023,
            "velocity": 0.3700787401574803,
            "duration": 0.1049539166666662
        },
        {
            "name": "E5",
            "midi": 76,
            "time": 25.009019000000023,
            "velocity": 0.3858267716535433,
            "duration": 0.1049539166666662
        },
        {
            "name": "G5",
            "midi": 79,
            "time": 25.098979500000024,
            "velocity": 0.4015748031496063,
            "duration": 0.1049539166666662
        },
        {
            "name": "C#6",
            "midi": 85,
            "time": 25.188940000000024,
            "velocity": 0.4094488188976378,
            "duration": 0.1049539166666662
        },
        {
            "name": "E5",
            "midi": 76,
            "time": 25.278900500000024,
            "velocity": 0.3858267716535433,
            "duration": 0.1049539166666662
        },
        {
            "name": "G5",
            "midi": 79,
            "time": 25.368861000000024,
            "velocity": 0.4015748031496063,
            "duration": 0.1049539166666662
        },
        {
            "name": "C#6",
            "midi": 85,
            "time": 25.458821500000024,
            "velocity": 0.4251968503937008,
            "duration": 0.1049539166666662
        },
        {
            "name": "E5",
            "midi": 76,
            "time": 25.548782000000024,
            "velocity": 0.7322834645669292,
            "duration": 0.08996050000000011
        },
        {
            "name": "E6",
            "midi": 88,
            "time": 25.548782000000024,
            "velocity": 0.8661417322834646,
            "duration": 0.08996050000000011
        },
        {
            "name": "E5",
            "midi": 76,
            "time": 25.728703000000024,
            "velocity": 0.5748031496062992,
            "duration": 0.08996050000000011
        },
        {
            "name": "E6",
            "midi": 88,
            "time": 25.728703000000024,
            "velocity": 0.6850393700787402,
            "duration": 0.08996050000000011
        },
        {
            "name": "D#3",
            "midi": 51,
            "time": 25.998584500000025,
            "velocity": 0.3937007874015748,
            "duration": 0.0862121458333327
        },
        {
            "name": "A#3",
            "midi": 58,
            "time": 26.088545000000025,
            "velocity": 0.4015748031496063,
            "duration": 0.1049539166666662
        },
        {
            "name": "C#4",
            "midi": 61,
            "time": 26.178505500000025,
            "velocity": 0.3858267716535433,
            "duration": 0.1049539166666662
        },
        {
            "name": "D#4",
            "midi": 63,
            "time": 26.268466000000025,
            "velocity": 0.4015748031496063,
            "duration": 0.1049539166666662
        },
        {
            "name": "A#3",
            "midi": 58,
            "time": 26.358426500000025,
            "velocity": 0.4094488188976378,
            "duration": 0.1049539166666662
        },
        {
            "name": "C#4",
            "midi": 61,
            "time": 26.448387000000025,
            "velocity": 0.41732283464566927,
            "duration": 0.1049539166666662
        },
        {
            "name": "D#4",
            "midi": 63,
            "time": 26.538347500000025,
            "velocity": 0.4015748031496063,
            "duration": 0.1049539166666662
        },
        {
            "name": "A#4",
            "midi": 70,
            "time": 26.628308000000025,
            "velocity": 0.4409448818897638,
            "duration": 0.1049539166666662
        },
        {
            "name": "C#4",
            "midi": 61,
            "time": 26.718268500000026,
            "velocity": 0.4409448818897638,
            "duration": 0.1049539166666662
        },
        {
            "name": "D#4",
            "midi": 63,
            "time": 26.808229000000026,
            "velocity": 0.44881889763779526,
            "duration": 0.1049539166666662
        },
        {
            "name": "A#4",
            "midi": 70,
            "time": 26.898189500000026,
            "velocity": 0.4094488188976378,
            "duration": 0.1049539166666662
        },
        {
            "name": "C#5",
            "midi": 73,
            "time": 26.988150000000026,
            "velocity": 0.4566929133858268,
            "duration": 0.1049539166666662
        },
        {
            "name": "D#4",
            "midi": 63,
            "time": 27.078110500000026,
            "velocity": 0.4645669291338583,
            "duration": 0.1049539166666662
        },
        {
            "name": "A#4",
            "midi": 70,
            "time": 27.168071000000026,
            "velocity": 0.47244094488188976,
            "duration": 0.1049539166666662
        },
        {
            "name": "C#5",
            "midi": 73,
            "time": 27.258031500000026,
            "velocity": 0.4409448818897638,
            "duration": 0.1049539166666662
        },
        {
            "name": "D#5",
            "midi": 75,
            "time": 27.347992000000026,
            "velocity": 0.4881889763779528,
            "duration": 0.1049539166666662
        },
        {
            "name": "A#4",
            "midi": 70,
            "time": 27.437952500000026,
            "velocity": 0.4881889763779528,
            "duration": 0.1049539166666662
        },
        {
            "name": "C#5",
            "midi": 73,
            "time": 27.527913000000026,
            "velocity": 0.4881889763779528,
            "duration": 0.1049539166666662
        },
        {
            "name": "D#5",
            "midi": 75,
            "time": 27.617873500000027,
            "velocity": 0.4645669291338583,
            "duration": 0.1049539166666662
        },
        {
            "name": "A#5",
            "midi": 82,
            "time": 27.707834000000027,
            "velocity": 0.49606299212598426,
            "duration": 0.1049539166666662
        },
        {
            "name": "C#5",
            "midi": 73,
            "time": 27.797794500000027,
            "velocity": 0.5118110236220472,
            "duration": 0.1049539166666662
        },
        {
            "name": "D#5",
            "midi": 75,
            "time": 27.887755000000027,
            "velocity": 0.5196850393700787,
            "duration": 0.1049539166666662
        },
        {
            "name": "A#5",
            "midi": 82,
            "time": 27.977715500000027,
            "velocity": 0.4881889763779528,
            "duration": 0.1049539166666662
        },
        {
            "name": "C#6",
            "midi": 85,
            "time": 28.067676000000027,
            "velocity": 0.5275590551181102,
            "duration": 0.1049539166666662
        },
        {
            "name": "A#5",
            "midi": 82,
            "time": 28.157636500000027,
            "velocity": 0.5118110236220472,
            "duration": 0.1049539166666662
        },
        {
            "name": "D#5",
            "midi": 75,
            "time": 28.247597000000027,
            "velocity": 0.4881889763779528,
            "duration": 0.1049539166666662
        },
        {
            "name": "C#5",
            "midi": 73,
            "time": 28.337557500000027,
            "velocity": 0.48031496062992124,
            "duration": 0.1049539166666662
        },
        {
            "name": "A#5",
            "midi": 82,
            "time": 28.427518000000028,
            "velocity": 0.4645669291338583,
            "duration": 0.1049539166666662
        },
        {
            "name": "D#5",
            "midi": 75,
            "time": 28.517478500000028,
            "velocity": 0.44881889763779526,
            "duration": 0.1049539166666662
        },
        {
            "name": "C#5",
            "midi": 73,
            "time": 28.607439000000028,
            "velocity": 0.4409448818897638,
            "duration": 0.1049539166666662
        },
        {
            "name": "A#4",
            "midi": 70,
            "time": 28.697399500000028,
            "velocity": 0.4094488188976378,
            "duration": 0.1049539166666662
        },
        {
            "name": "B4",
            "midi": 71,
            "time": 28.787360000000028,
            "velocity": 0.3858267716535433,
            "duration": 0.17992100000000022
        },
        {
            "name": "D#5",
            "midi": 75,
            "time": 29.14720200000003,
            "velocity": 0.48031496062992124,
            "duration": 0.734677416666667
        },
        {
            "name": "B4",
            "midi": 71,
            "time": 29.86688600000003,
            "velocity": 0.3937007874015748,
            "duration": 0.2848749166666664
        },
        {
            "name": "G#4",
            "midi": 68,
            "time": 30.13676750000003,
            "velocity": 0.3937007874015748,
            "duration": 0.04498024999999828
        },
        {
            "name": "G4",
            "midi": 67,
            "time": 30.181747750000028,
            "velocity": 0.31496062992125984,
            "duration": 0.014993416666666093
        },
        {
            "name": "G#4",
            "midi": 68,
            "time": 30.196741166666694,
            "velocity": 0.31496062992125984,
            "duration": 0.014993416666666093
        },
        {
            "name": "A#4",
            "midi": 70,
            "time": 30.21173458333336,
            "velocity": 0.31496062992125984,
            "duration": 0.014993416666666093
        },
        {
            "name": "G#4",
            "midi": 68,
            "time": 30.226728000000026,
            "velocity": 0.4566929133858268,
            "duration": 0.37483541666666653
        },
        {
            "name": "G4",
            "midi": 67,
            "time": 30.586570000000027,
            "velocity": 0.3937007874015748,
            "duration": 0.5397630000000007
        },
        {
            "name": "G4",
            "midi": 67,
            "time": 31.126333000000027,
            "velocity": 0.3937007874015748,
            "duration": 0.1949144166666663
        },
        {
            "name": "D#5",
            "midi": 75,
            "time": 31.306254000000028,
            "velocity": 0.48031496062992124,
            "duration": 0.26988150000000033
        },
        {
            "name": "G4",
            "midi": 67,
            "time": 31.576135500000028,
            "velocity": 0.4094488188976378,
            "duration": 0.08996050000000011
        },
        {
            "name": "A#4",
            "midi": 70,
            "time": 31.666096000000028,
            "velocity": 0.3700787401574803,
            "duration": 0.37483541666666653
        },
        {
            "name": "G#4",
            "midi": 68,
            "time": 32.025938000000025,
            "velocity": 0.4015748031496063,
            "duration": 0.5397630000000007
        },
        {
            "name": "G#4",
            "midi": 68,
            "time": 32.565701000000026,
            "velocity": 0.3858267716535433,
            "duration": 0.19491441666666987
        },
        {
            "name": "D#5",
            "midi": 75,
            "time": 32.745622000000026,
            "velocity": 0.48031496062992124,
            "duration": 0.2698815000000039
        },
        {
            "name": "G#4",
            "midi": 68,
            "time": 33.01550350000003,
            "velocity": 0.3937007874015748,
            "duration": 0.1049539166666662
        },
        {
            "name": "B4",
            "midi": 71,
            "time": 33.105464000000026,
            "velocity": 0.4094488188976378,
            "duration": 0.3748354166666701
        },
        {
            "name": "A#4",
            "midi": 70,
            "time": 33.46530600000003,
            "velocity": 0.3937007874015748,
            "duration": 0.5397630000000007
        },
        {
            "name": "A#4",
            "midi": 70,
            "time": 34.00506900000003,
            "velocity": 0.4094488188976378,
            "duration": 0.19491441666666987
        },
        {
            "name": "D#5",
            "midi": 75,
            "time": 34.18499000000003,
            "velocity": 0.3858267716535433,
            "duration": 0.2698815000000039
        },
        {
            "name": "A#4",
            "midi": 70,
            "time": 34.45487150000003,
            "velocity": 0.4094488188976378,
            "duration": 0.08996049999999656
        },
        {
            "name": "B4",
            "midi": 71,
            "time": 34.54483200000003,
            "velocity": 0.4409448818897638,
            "duration": 0.08996049999999656
        },
        {
            "name": "D#6",
            "midi": 87,
            "time": 34.72475300000002,
            "velocity": 0.4409448818897638,
            "duration": 0.35984200000000044
        },
        {
            "name": "D#5",
            "midi": 75,
            "time": 34.72475300000002,
            "velocity": 0.3700787401574803,
            "duration": 0.35984200000000044
        },
        {
            "name": "D#6",
            "midi": 87,
            "time": 35.08459500000002,
            "velocity": 0.4566929133858268,
            "duration": 0.35984200000000044
        },
        {
            "name": "D#5",
            "midi": 75,
            "time": 35.08459500000002,
            "velocity": 0.3858267716535433,
            "duration": 0.35984200000000044
        },
        {
            "name": "D#5",
            "midi": 75,
            "time": 35.44443700000002,
            "velocity": 0.3700787401574803,
            "duration": 0.08996049999999656
        },
        {
            "name": "D#6",
            "midi": 87,
            "time": 35.44443700000002,
            "velocity": 0.4409448818897638,
            "duration": 0.08996049999999656
        },
        {
            "name": "B4",
            "midi": 71,
            "time": 35.624358000000015,
            "velocity": 0.3858267716535433,
            "duration": 0.08996049999999656
        },
        {
            "name": "B5",
            "midi": 83,
            "time": 35.624358000000015,
            "velocity": 0.4566929133858268,
            "duration": 0.08996049999999656
        },
        {
            "name": "G#5",
            "midi": 80,
            "time": 35.80427900000001,
            "velocity": 0.4645669291338583,
            "duration": 0.08996049999999656
        },
        {
            "name": "G#4",
            "midi": 68,
            "time": 35.80427900000001,
            "velocity": 0.3858267716535433,
            "duration": 0.08996049999999656
        },
        {
            "name": "G#5",
            "midi": 80,
            "time": 35.9842,
            "velocity": 0.48031496062992124,
            "duration": 0.08996049999999656
        },
        {
            "name": "G#4",
            "midi": 68,
            "time": 35.9842,
            "velocity": 0.4015748031496063,
            "duration": 0.08996049999999656
        },
        {
            "name": "G5",
            "midi": 79,
            "time": 36.164120999999994,
            "velocity": 0.4881889763779528,
            "duration": 0.35984200000000044
        },
        {
            "name": "G4",
            "midi": 67,
            "time": 36.164120999999994,
            "velocity": 0.4094488188976378,
            "duration": 0.35984200000000044
        },
        {
            "name": "G5",
            "midi": 79,
            "time": 36.523962999999995,
            "velocity": 0.5354330708661418,
            "duration": 0.35984200000000044
        },
        {
            "name": "G4",
            "midi": 67,
            "time": 36.523962999999995,
            "velocity": 0.44881889763779526,
            "duration": 0.35984200000000044
        },
        {
            "name": "G4",
            "midi": 67,
            "time": 36.883804999999995,
            "velocity": 0.4566929133858268,
            "duration": 0.08996049999999656
        },
        {
            "name": "G5",
            "midi": 79,
            "time": 36.883804999999995,
            "velocity": 0.5433070866141733,
            "duration": 0.08996049999999656
        },
        {
            "name": "D#6",
            "midi": 87,
            "time": 37.06372599999999,
            "velocity": 0.5590551181102362,
            "duration": 0.08996049999999656
        },
        {
            "name": "D#5",
            "midi": 75,
            "time": 37.06372599999999,
            "velocity": 0.47244094488188976,
            "duration": 0.08996049999999656
        },
        {
            "name": "G4",
            "midi": 67,
            "time": 37.24364699999998,
            "velocity": 0.48031496062992124,
            "duration": 0.08996049999999656
        },
        {
            "name": "G5",
            "midi": 79,
            "time": 37.24364699999998,
            "velocity": 0.5748031496062992,
            "duration": 0.08996049999999656
        },
        {
            "name": "A#4",
            "midi": 70,
            "time": 37.423567999999975,
            "velocity": 0.4881889763779528,
            "duration": 0.08996049999999656
        },
        {
            "name": "A#5",
            "midi": 82,
            "time": 37.423567999999975,
            "velocity": 0.5826771653543307,
            "duration": 0.08996049999999656
        },
        {
            "name": "G#4",
            "midi": 68,
            "time": 37.60348899999997,
            "velocity": 0.49606299212598426,
            "duration": 0.35984200000000044
        },
        {
            "name": "G#5",
            "midi": 80,
            "time": 37.60348899999997,
            "velocity": 0.5905511811023622,
            "duration": 0.35984200000000044
        },
        {
            "name": "G#4",
            "midi": 68,
            "time": 37.96333099999997,
            "velocity": 0.5354330708661418,
            "duration": 0.35984200000000044
        },
        {
            "name": "G#5",
            "midi": 80,
            "time": 37.96333099999997,
            "velocity": 0.6299212598425197,
            "duration": 0.35984200000000044
        },
        {
            "name": "G#4",
            "midi": 68,
            "time": 38.32317299999997,
            "velocity": 0.5433070866141733,
            "duration": 0.08996049999999656
        },
        {
            "name": "G#5",
            "midi": 80,
            "time": 38.32317299999997,
            "velocity": 0.6456692913385826,
            "duration": 0.08996049999999656
        },
        {
            "name": "D#5",
            "midi": 75,
            "time": 38.50309399999996,
            "velocity": 0.5669291338582677,
            "duration": 0.08996049999999656
        },
        {
            "name": "D#6",
            "midi": 87,
            "time": 38.50309399999996,
            "velocity": 0.6692913385826772,
            "duration": 0.08996049999999656
        },
        {
            "name": "G#5",
            "midi": 80,
            "time": 38.683014999999955,
            "velocity": 0.6771653543307087,
            "duration": 0.08996049999999656
        },
        {
            "name": "G#4",
            "midi": 68,
            "time": 38.683014999999955,
            "velocity": 0.5748031496062992,
            "duration": 0.08996049999999656
        },
        {
            "name": "B4",
            "midi": 71,
            "time": 38.86293599999995,
            "velocity": 0.5748031496062992,
            "duration": 0.08996049999999656
        },
        {
            "name": "B5",
            "midi": 83,
            "time": 38.86293599999995,
            "velocity": 0.6771653543307087,
            "duration": 0.08996049999999656
        },
        {
            "name": "A#5",
            "midi": 82,
            "time": 39.04285699999994,
            "velocity": 0.7007874015748031,
            "duration": 0.35984200000000044
        },
        {
            "name": "A#4",
            "midi": 70,
            "time": 39.04285699999994,
            "velocity": 0.5826771653543307,
            "duration": 0.35984200000000044
        },
        {
            "name": "A#4",
            "midi": 70,
            "time": 39.40269899999994,
            "velocity": 0.6220472440944882,
            "duration": 0.35984200000000044
        },
        {
            "name": "A#5",
            "midi": 82,
            "time": 39.40269899999994,
            "velocity": 0.7322834645669292,
            "duration": 0.35984200000000044
        },
        {
            "name": "A#5",
            "midi": 82,
            "time": 39.76254099999994,
            "velocity": 0.7322834645669292,
            "duration": 0.08996049999999656
        },
        {
            "name": "A#4",
            "midi": 70,
            "time": 39.76254099999994,
            "velocity": 0.6220472440944882,
            "duration": 0.08996049999999656
        },
        {
            "name": "D#6",
            "midi": 87,
            "time": 39.942461999999935,
            "velocity": 0.7322834645669292,
            "duration": 0.08996049999999656
        },
        {
            "name": "D#5",
            "midi": 75,
            "time": 39.942461999999935,
            "velocity": 0.6220472440944882,
            "duration": 0.08996049999999656
        },
        {
            "name": "A#5",
            "midi": 82,
            "time": 40.12238299999993,
            "velocity": 0.7322834645669292,
            "duration": 0.08996049999999656
        },
        {
            "name": "A#4",
            "midi": 70,
            "time": 40.12238299999993,
            "velocity": 0.6220472440944882,
            "duration": 0.08996049999999656
        },
        {
            "name": "C5",
            "midi": 72,
            "time": 40.30230399999992,
            "velocity": 0.6299212598425197,
            "duration": 0.7196840000000009
        },
        {
            "name": "C6",
            "midi": 84,
            "time": 40.30230399999992,
            "velocity": 0.7480314960629921,
            "duration": 0.7196840000000009
        },
        {
            "name": "C#6",
            "midi": 85,
            "time": 41.02198799999992,
            "velocity": 0.7480314960629921,
            "duration": 0.7196840000000009
        },
        {
            "name": "C#5",
            "midi": 73,
            "time": 41.02198799999992,
            "velocity": 0.6299212598425197,
            "duration": 0.7196840000000009
        },
        {
            "name": "A#5",
            "midi": 82,
            "time": 41.74167199999992,
            "velocity": 0.6299212598425197,
            "duration": 0.04872860416666924
        },
        {
            "name": "A#4",
            "midi": 70,
            "time": 41.74167199999992,
            "velocity": 0.5354330708661418,
            "duration": 0.35984200000000044
        },
        {
            "name": "B5",
            "midi": 83,
            "time": 41.79040060416659,
            "velocity": 0.5905511811023622,
            "duration": 0.04797893333333292
        },
        {
            "name": "A#5",
            "midi": 82,
            "time": 41.838379537499925,
            "velocity": 0.6299212598425197,
            "duration": 0.04872860416666924
        },
        {
            "name": "B5",
            "midi": 83,
            "time": 41.887108141666594,
            "velocity": 0.6299212598425197,
            "duration": 0.04797893333333292
        },
        {
            "name": "A#5",
            "midi": 82,
            "time": 41.947831479166595,
            "velocity": 0.6299212598425197,
            "duration": 0.05847432499999883
        },
        {
            "name": "G#5",
            "midi": 80,
            "time": 42.0018077791666,
            "velocity": 0.5905511811023622,
            "duration": 0.057724654166662503
        },
        {
            "name": "A#5",
            "midi": 82,
            "time": 42.051286054166596,
            "velocity": 0.5905511811023622,
            "duration": 0.05022794583332768
        },
        {
            "name": "B5",
            "midi": 83,
            "time": 42.10151399999992,
            "velocity": 0.7480314960629921,
            "duration": 1.0795260000000013
        },
        {
            "name": "B4",
            "midi": 71,
            "time": 42.10151399999992,
            "velocity": 0.6299212598425197,
            "duration": 1.0795260000000013
        },
        {
            "name": "G#5",
            "midi": 80,
            "time": 43.181039999999925,
            "velocity": 0.7480314960629921,
            "duration": 0.7196840000000009
        },
        {
            "name": "G#4",
            "midi": 68,
            "time": 43.181039999999925,
            "velocity": 0.6299212598425197,
            "duration": 0.7196840000000009
        },
        {
            "name": "A4",
            "midi": 69,
            "time": 43.900723999999926,
            "velocity": 0.6299212598425197,
            "duration": 0.7196840000000009
        },
        {
            "name": "A5",
            "midi": 81,
            "time": 43.900723999999926,
            "velocity": 0.7401574803149606,
            "duration": 0.7196840000000009
        },
        {
            "name": "G4",
            "midi": 67,
            "time": 44.62040799999993,
            "velocity": 0.5354330708661418,
            "duration": 0.35984200000000754
        },
        {
            "name": "G5",
            "midi": 79,
            "time": 44.62040799999993,
            "velocity": 0.6299212598425197,
            "duration": 0.04872860416666924
        },
        {
            "name": "G#5",
            "midi": 80,
            "time": 44.669136604166596,
            "velocity": 0.5905511811023622,
            "duration": 0.04872860416666924
        },
        {
            "name": "G5",
            "midi": 79,
            "time": 44.71711553749993,
            "velocity": 0.6299212598425197,
            "duration": 0.04872860416666924
        },
        {
            "name": "G#5",
            "midi": 80,
            "time": 44.7658441416666,
            "velocity": 0.6299212598425197,
            "duration": 0.04872860416666924
        },
        {
            "name": "G5",
            "midi": 79,
            "time": 44.8265674791666,
            "velocity": 0.6299212598425197,
            "duration": 0.05847432499999883
        },
        {
            "name": "F5",
            "midi": 77,
            "time": 44.8805437791666,
            "velocity": 0.5905511811023622,
            "duration": 0.05847432499999883
        },
        {
            "name": "G5",
            "midi": 79,
            "time": 44.9300220541666,
            "velocity": 0.5905511811023622,
            "duration": 0.050227945833334786
        },
        {
            "name": "G#4",
            "midi": 68,
            "time": 44.980249999999934,
            "velocity": 0.6299212598425197,
            "duration": 1.0795260000000013
        },
        {
            "name": "G#5",
            "midi": 80,
            "time": 44.980249999999934,
            "velocity": 0.7480314960629921,
            "duration": 1.0795260000000013
        },
        {
            "name": "E5",
            "midi": 76,
            "time": 46.059775999999935,
            "velocity": 0.7874015748031497,
            "duration": 0.8096444999999974
        },
        {
            "name": "A4",
            "midi": 69,
            "time": 46.059775999999935,
            "velocity": 0.6535433070866141,
            "duration": 0.8096444999999974
        },
        {
            "name": "C#5",
            "midi": 73,
            "time": 46.059775999999935,
            "velocity": 0.6535433070866141,
            "duration": 0.8096444999999974
        },
        {
            "name": "A5",
            "midi": 81,
            "time": 46.059775999999935,
            "velocity": 0.7874015748031497,
            "duration": 0.8096444999999974
        },
        {
            "name": "E5",
            "midi": 76,
            "time": 46.86942049999993,
            "velocity": 0.3700787401574803,
            "duration": 0.08996049999999656
        },
        {
            "name": "F#5",
            "midi": 78,
            "time": 46.95938099999993,
            "velocity": 0.3700787401574803,
            "duration": 0.08996049999999656
        },
        {
            "name": "G#5",
            "midi": 80,
            "time": 47.049341499999926,
            "velocity": 0.3779527559055118,
            "duration": 0.08996049999999656
        },
        {
            "name": "A5",
            "midi": 81,
            "time": 47.13930199999992,
            "velocity": 0.3858267716535433,
            "duration": 0.08996049999999656
        },
        {
            "name": "B5",
            "midi": 83,
            "time": 47.22926249999992,
            "velocity": 0.3937007874015748,
            "duration": 0.08996049999999656
        },
        {
            "name": "C#6",
            "midi": 85,
            "time": 47.319222999999916,
            "velocity": 0.4015748031496063,
            "duration": 0.08996049999999656
        },
        {
            "name": "B5",
            "midi": 83,
            "time": 47.40918349999991,
            "velocity": 0.4015748031496063,
            "duration": 0.08996049999999656
        },
        {
            "name": "A5",
            "midi": 81,
            "time": 47.49914399999991,
            "velocity": 0.3858267716535433,
            "duration": 0.08996049999999656
        },
        {
            "name": "E5",
            "midi": 76,
            "time": 47.589104499999905,
            "velocity": 0.3700787401574803,
            "duration": 0.08996049999999656
        },
        {
            "name": "F#5",
            "midi": 78,
            "time": 47.6790649999999,
            "velocity": 0.3700787401574803,
            "duration": 0.08996049999999656
        },
        {
            "name": "G#5",
            "midi": 80,
            "time": 47.7690254999999,
            "velocity": 0.3700787401574803,
            "duration": 0.08996049999999656
        },
        {
            "name": "A5",
            "midi": 81,
            "time": 47.858985999999895,
            "velocity": 0.3779527559055118,
            "duration": 0.08996049999999656
        },
        {
            "name": "B5",
            "midi": 83,
            "time": 47.94894649999989,
            "velocity": 0.3858267716535433,
            "duration": 0.08996049999999656
        },
        {
            "name": "C#6",
            "midi": 85,
            "time": 48.03890699999989,
            "velocity": 0.3937007874015748,
            "duration": 0.08996049999999656
        },
        {
            "name": "B5",
            "midi": 83,
            "time": 48.128867499999885,
            "velocity": 0.3779527559055118,
            "duration": 0.08996049999999656
        },
        {
            "name": "A5",
            "midi": 81,
            "time": 48.21882799999988,
            "velocity": 0.3779527559055118,
            "duration": 0.08996049999999656
        },
        {
            "name": "E5",
            "midi": 76,
            "time": 48.30878849999988,
            "velocity": 0.3700787401574803,
            "duration": 0.08996049999999656
        },
        {
            "name": "F#5",
            "midi": 78,
            "time": 48.398748999999874,
            "velocity": 0.3779527559055118,
            "duration": 0.08996049999999656
        },
        {
            "name": "G#5",
            "midi": 80,
            "time": 48.48870949999987,
            "velocity": 0.3858267716535433,
            "duration": 0.08996049999999656
        },
        {
            "name": "A5",
            "midi": 81,
            "time": 48.57866999999987,
            "velocity": 0.3937007874015748,
            "duration": 0.08996049999999656
        },
        {
            "name": "B5",
            "midi": 83,
            "time": 48.668630499999864,
            "velocity": 0.4015748031496063,
            "duration": 0.08996049999999656
        },
        {
            "name": "C#6",
            "midi": 85,
            "time": 48.75859099999986,
            "velocity": 0.4015748031496063,
            "duration": 0.08996049999999656
        },
        {
            "name": "B5",
            "midi": 83,
            "time": 48.84855149999986,
            "velocity": 0.3858267716535433,
            "duration": 0.08996049999999656
        },
        {
            "name": "A5",
            "midi": 81,
            "time": 48.938511999999854,
            "velocity": 0.3700787401574803,
            "duration": 0.08996049999999656
        },
        {
            "name": "E5",
            "midi": 76,
            "time": 49.02847249999985,
            "velocity": 0.3779527559055118,
            "duration": 0.08996049999999656
        },
        {
            "name": "F#5",
            "midi": 78,
            "time": 49.11843299999985,
            "velocity": 0.4015748031496063,
            "duration": 0.08996049999999656
        },
        {
            "name": "G#5",
            "midi": 80,
            "time": 49.20839349999984,
            "velocity": 0.4015748031496063,
            "duration": 0.08996049999999656
        },
        {
            "name": "A5",
            "midi": 81,
            "time": 49.29835399999984,
            "velocity": 0.4251968503937008,
            "duration": 0.08996049999999656
        },
        {
            "name": "B5",
            "midi": 83,
            "time": 49.38831449999984,
            "velocity": 0.4409448818897638,
            "duration": 0.08996049999999656
        },
        {
            "name": "C#6",
            "midi": 85,
            "time": 49.47827499999983,
            "velocity": 0.44881889763779526,
            "duration": 0.08996049999999656
        },
        {
            "name": "D6",
            "midi": 86,
            "time": 49.56823549999983,
            "velocity": 0.47244094488188976,
            "duration": 0.08996049999999656
        },
        {
            "name": "E6",
            "midi": 88,
            "time": 49.658195999999826,
            "velocity": 0.48031496062992124,
            "duration": 0.08996049999999656
        },
        {
            "name": "D#6",
            "midi": 87,
            "time": 49.74815649999982,
            "velocity": 0.4645669291338583,
            "duration": 0.08996049999999656
        },
        {
            "name": "E6",
            "midi": 88,
            "time": 49.83811699999982,
            "velocity": 0.44881889763779526,
            "duration": 0.08996049999999656
        },
        {
            "name": "D#6",
            "midi": 87,
            "time": 49.928077499999816,
            "velocity": 0.4409448818897638,
            "duration": 0.08996049999999656
        },
        {
            "name": "E6",
            "midi": 88,
            "time": 50.01803799999981,
            "velocity": 0.4251968503937008,
            "duration": 0.08996049999999656
        },
        {
            "name": "C#6",
            "midi": 85,
            "time": 50.10799849999981,
            "velocity": 0.4094488188976378,
            "duration": 0.08996049999999656
        },
        {
            "name": "B5",
            "midi": 83,
            "time": 50.197958999999805,
            "velocity": 0.4015748031496063,
            "duration": 0.08996049999999656
        },
        {
            "name": "A5",
            "midi": 81,
            "time": 50.2879194999998,
            "velocity": 0.3937007874015748,
            "duration": 0.08996049999999656
        },
        {
            "name": "G#5",
            "midi": 80,
            "time": 50.3778799999998,
            "velocity": 0.3779527559055118,
            "duration": 0.7196840000000009
        },
        {
            "name": "A#5",
            "midi": 82,
            "time": 51.0975639999998,
            "velocity": 0.3937007874015748,
            "duration": 0.05997366666666437
        },
        {
            "name": "B5",
            "midi": 83,
            "time": 51.157537666666464,
            "velocity": 0.3937007874015748,
            "duration": 0.05997366666666437
        },
        {
            "name": "A#5",
            "midi": 82,
            "time": 51.21751133333313,
            "velocity": 0.3937007874015748,
            "duration": 0.05622531249999696
        },
        {
            "name": "B5",
            "midi": 83,
            "time": 51.273736645833125,
            "velocity": 0.3937007874015748,
            "duration": 0.05622531249999696
        },
        {
            "name": "A#5",
            "midi": 82,
            "time": 51.32996195833312,
            "velocity": 0.3937007874015748,
            "duration": 0.05622531249999696
        },
        {
            "name": "B5",
            "midi": 83,
            "time": 51.38618727083312,
            "velocity": 0.3937007874015748,
            "duration": 0.05622531249999696
        },
        {
            "name": "A#5",
            "midi": 82,
            "time": 51.442412583333116,
            "velocity": 0.3779527559055118,
            "duration": 0.052476958333336654
        },
        {
            "name": "B5",
            "midi": 83,
            "time": 51.49488954166645,
            "velocity": 0.3779527559055118,
            "duration": 0.052476958333336654
        },
        {
            "name": "A#5",
            "midi": 82,
            "time": 51.54736649999979,
            "velocity": 0.3858267716535433,
            "duration": 0.04498025000000183
        },
        {
            "name": "B5",
            "midi": 83,
            "time": 51.59234674999979,
            "velocity": 0.3937007874015748,
            "duration": 0.04498025000000183
        },
        {
            "name": "A#5",
            "midi": 82,
            "time": 51.63732699999979,
            "velocity": 0.4015748031496063,
            "duration": 0.04498025000000183
        },
        {
            "name": "B5",
            "midi": 83,
            "time": 51.682307249999795,
            "velocity": 0.4015748031496063,
            "duration": 0.04498025000000183
        },
        {
            "name": "A#5",
            "midi": 82,
            "time": 51.7272874999998,
            "velocity": 0.4015748031496063,
            "duration": 0.04498025000000183
        },
        {
            "name": "B5",
            "midi": 83,
            "time": 51.7722677499998,
            "velocity": 0.4094488188976378,
            "duration": 0.04498025000000183
        },
        {
            "name": "G#5",
            "midi": 80,
            "time": 51.8172479999998,
            "velocity": 0.4409448818897638,
            "duration": 0.17992100000000022
        },
        {
            "name": "E4",
            "midi": 64,
            "time": 52.1770899999998,
            "velocity": 0.6850393700787402,
            "duration": 0.449802499999997
        },
        {
            "name": "A3",
            "midi": 57,
            "time": 52.1770899999998,
            "velocity": 0.5748031496062992,
            "duration": 0.449802499999997
        },
        {
            "name": "C#4",
            "midi": 61,
            "time": 52.1770899999998,
            "velocity": 0.6850393700787402,
            "duration": 0.449802499999997
        },
        {
            "name": "A4",
            "midi": 69,
            "time": 52.1770899999998,
            "velocity": 0.6850393700787402,
            "duration": 0.449802499999997
        },
        {
            "name": "E4",
            "midi": 64,
            "time": 52.6268924999998,
            "velocity": 0.3937007874015748,
            "duration": 0.08996049999999656
        },
        {
            "name": "F#4",
            "midi": 66,
            "time": 52.716852999999794,
            "velocity": 0.3937007874015748,
            "duration": 0.08996049999999656
        },
        {
            "name": "G#4",
            "midi": 68,
            "time": 52.80681349999979,
            "velocity": 0.3937007874015748,
            "duration": 0.08996049999999656
        },
        {
            "name": "A4",
            "midi": 69,
            "time": 52.89677399999979,
            "velocity": 0.3779527559055118,
            "duration": 0.08996049999999656
        },
        {
            "name": "B4",
            "midi": 71,
            "time": 52.986734499999784,
            "velocity": 0.3700787401574803,
            "duration": 0.08996049999999656
        },
        {
            "name": "C#5",
            "midi": 73,
            "time": 53.07669499999978,
            "velocity": 0.3858267716535433,
            "duration": 0.08996049999999656
        },
        {
            "name": "B4",
            "midi": 71,
            "time": 53.16665549999978,
            "velocity": 0.3779527559055118,
            "duration": 0.08996049999999656
        },
        {
            "name": "A4",
            "midi": 69,
            "time": 53.256615999999774,
            "velocity": 0.3700787401574803,
            "duration": 0.08996049999999656
        },
        {
            "name": "E4",
            "midi": 64,
            "time": 53.34657649999977,
            "velocity": 0.3700787401574803,
            "duration": 0.08996049999999656
        },
        {
            "name": "F#4",
            "midi": 66,
            "time": 53.43653699999977,
            "velocity": 0.3779527559055118,
            "duration": 0.08996049999999656
        },
        {
            "name": "G#4",
            "midi": 68,
            "time": 53.52649749999976,
            "velocity": 0.3858267716535433,
            "duration": 0.08996049999999656
        },
        {
            "name": "A4",
            "midi": 69,
            "time": 53.61645799999976,
            "velocity": 0.4015748031496063,
            "duration": 0.08996049999999656
        },
        {
            "name": "B4",
            "midi": 71,
            "time": 53.70641849999976,
            "velocity": 0.4015748031496063,
            "duration": 0.08996049999999656
        },
        {
            "name": "C#5",
            "midi": 73,
            "time": 53.79637899999975,
            "velocity": 0.3858267716535433,
            "duration": 0.08996049999999656
        },
        {
            "name": "B4",
            "midi": 71,
            "time": 53.88633949999975,
            "velocity": 0.3779527559055118,
            "duration": 0.08996049999999656
        },
        {
            "name": "A4",
            "midi": 69,
            "time": 53.976299999999746,
            "velocity": 0.3779527559055118,
            "duration": 0.08996049999999656
        },
        {
            "name": "E4",
            "midi": 64,
            "time": 54.06626049999974,
            "velocity": 0.3779527559055118,
            "duration": 0.08996049999999656
        },
        {
            "name": "F#4",
            "midi": 66,
            "time": 54.15622099999974,
            "velocity": 0.3779527559055118,
            "duration": 0.08996049999999656
        },
        {
            "name": "G#4",
            "midi": 68,
            "time": 54.246181499999736,
            "velocity": 0.3937007874015748,
            "duration": 0.08996049999999656
        },
        {
            "name": "A4",
            "midi": 69,
            "time": 54.33614199999973,
            "velocity": 0.3937007874015748,
            "duration": 0.08996049999999656
        },
        {
            "name": "B4",
            "midi": 71,
            "time": 54.42610249999973,
            "velocity": 0.3937007874015748,
            "duration": 0.08996049999999656
        },
        {
            "name": "C#5",
            "midi": 73,
            "time": 54.516062999999725,
            "velocity": 0.3937007874015748,
            "duration": 0.08996049999999656
        },
        {
            "name": "B4",
            "midi": 71,
            "time": 54.60602349999972,
            "velocity": 0.3937007874015748,
            "duration": 0.08996049999999656
        },
        {
            "name": "A4",
            "midi": 69,
            "time": 54.69598399999972,
            "velocity": 0.3858267716535433,
            "duration": 0.08996049999999656
        },
        {
            "name": "E4",
            "midi": 64,
            "time": 54.785944499999715,
            "velocity": 0.3937007874015748,
            "duration": 0.08996049999999656
        },
        {
            "name": "F#4",
            "midi": 66,
            "time": 54.87590499999971,
            "velocity": 0.4015748031496063,
            "duration": 0.08996049999999656
        },
        {
            "name": "G#4",
            "midi": 68,
            "time": 54.96586549999971,
            "velocity": 0.4015748031496063,
            "duration": 0.08996049999999656
        },
        {
            "name": "A4",
            "midi": 69,
            "time": 55.055825999999705,
            "velocity": 0.4094488188976378,
            "duration": 0.08996049999999656
        },
        {
            "name": "B4",
            "midi": 71,
            "time": 55.1457864999997,
            "velocity": 0.41732283464566927,
            "duration": 0.08996049999999656
        },
        {
            "name": "C#5",
            "midi": 73,
            "time": 55.2357469999997,
            "velocity": 0.4409448818897638,
            "duration": 0.08996049999999656
        },
        {
            "name": "B4",
            "midi": 71,
            "time": 55.325707499999695,
            "velocity": 0.4409448818897638,
            "duration": 0.08996049999999656
        },
        {
            "name": "A4",
            "midi": 69,
            "time": 55.41566799999969,
            "velocity": 0.44881889763779526,
            "duration": 0.08996049999999656
        },
        {
            "name": "E4",
            "midi": 64,
            "time": 55.50562849999969,
            "velocity": 0.4566929133858268,
            "duration": 0.08996049999999656
        },
        {
            "name": "F#4",
            "midi": 66,
            "time": 55.595588999999684,
            "velocity": 0.4645669291338583,
            "duration": 0.08996049999999656
        },
        {
            "name": "G#4",
            "midi": 68,
            "time": 55.68554949999968,
            "velocity": 0.47244094488188976,
            "duration": 0.08996049999999656
        },
        {
            "name": "A4",
            "midi": 69,
            "time": 55.77550999999968,
            "velocity": 0.4881889763779528,
            "duration": 0.08996049999999656
        },
        {
            "name": "B4",
            "midi": 71,
            "time": 55.865470499999674,
            "velocity": 0.4881889763779528,
            "duration": 0.08996049999999656
        },
        {
            "name": "C#5",
            "midi": 73,
            "time": 55.95543099999967,
            "velocity": 0.4881889763779528,
            "duration": 0.08996049999999656
        },
        {
            "name": "B4",
            "midi": 71,
            "time": 56.04539149999967,
            "velocity": 0.49606299212598426,
            "duration": 0.08996049999999656
        },
        {
            "name": "A4",
            "midi": 69,
            "time": 56.13535199999966,
            "velocity": 0.5196850393700787,
            "duration": 0.08996049999999656
        },
        {
            "name": "E4",
            "midi": 64,
            "time": 56.22531249999966,
            "velocity": 0.5275590551181102,
            "duration": 0.08996049999999656
        },
        {
            "name": "F#4",
            "midi": 66,
            "time": 56.31527299999966,
            "velocity": 0.5354330708661418,
            "duration": 0.08996049999999656
        },
        {
            "name": "G#4",
            "midi": 68,
            "time": 56.40523349999965,
            "velocity": 0.5354330708661418,
            "duration": 0.08996049999999656
        },
        {
            "name": "A4",
            "midi": 69,
            "time": 56.49519399999965,
            "velocity": 0.5511811023622047,
            "duration": 0.08996049999999656
        },
        {
            "name": "B4",
            "midi": 71,
            "time": 56.585154499999646,
            "velocity": 0.5590551181102362,
            "duration": 0.08996049999999656
        },
        {
            "name": "C#5",
            "midi": 73,
            "time": 56.67511499999964,
            "velocity": 0.5669291338582677,
            "duration": 0.08996049999999656
        },
        {
            "name": "D5",
            "midi": 74,
            "time": 56.76507549999964,
            "velocity": 0.5748031496062992,
            "duration": 0.08996049999999656
        },
        {
            "name": "E5",
            "midi": 76,
            "time": 56.855035999999636,
            "velocity": 0.5826771653543307,
            "duration": 0.08996049999999656
        },
        {
            "name": "F#5",
            "midi": 78,
            "time": 56.94499649999963,
            "velocity": 0.5905511811023622,
            "duration": 0.08996049999999656
        },
        {
            "name": "G#5",
            "midi": 80,
            "time": 57.03495699999963,
            "velocity": 0.5984251968503937,
            "duration": 0.08996049999999656
        },
        {
            "name": "A5",
            "midi": 81,
            "time": 57.124917499999626,
            "velocity": 0.6062992125984252,
            "duration": 0.08996049999999656
        },
        {
            "name": "B5",
            "midi": 83,
            "time": 57.21487799999962,
            "velocity": 0.6220472440944882,
            "duration": 0.08996049999999656
        },
        {
            "name": "C#6",
            "midi": 85,
            "time": 57.30483849999962,
            "velocity": 0.6220472440944882,
            "duration": 0.08996049999999656
        },
        {
            "name": "D6",
            "midi": 86,
            "time": 57.394798999999615,
            "velocity": 0.6220472440944882,
            "duration": 0.08996049999999656
        },
        {
            "name": "D#6",
            "midi": 87,
            "time": 57.48475949999961,
            "velocity": 0.6299212598425197,
            "duration": 0.08996049999999656
        },
        {
            "name": "E5",
            "midi": 76,
            "time": 57.57471999999961,
            "velocity": 0.6614173228346457,
            "duration": 0.7196840000000009
        },
        {
            "name": "E6",
            "midi": 88,
            "time": 57.57471999999961,
            "velocity": 0.6614173228346457,
            "duration": 0.7196840000000009
        },
        {
            "name": "G#4",
            "midi": 68,
            "time": 58.29440399999961,
            "velocity": 0.6614173228346457,
            "duration": 0.7196840000000009
        },
        {
            "name": "G#5",
            "midi": 80,
            "time": 58.29440399999961,
            "velocity": 0.6614173228346457,
            "duration": 0.7196840000000009
        },
        {
            "name": "B4",
            "midi": 71,
            "time": 59.01408799999961,
            "velocity": 0.6614173228346457,
            "duration": 0.7196840000000009
        },
        {
            "name": "B5",
            "midi": 83,
            "time": 59.01408799999961,
            "velocity": 0.6614173228346457,
            "duration": 0.7196840000000009
        },
        {
            "name": "G3",
            "midi": 55,
            "time": 59.73377199999961,
            "velocity": 0.5590551181102362,
            "duration": 0.7196840000000009
        },
        {
            "name": "C#4",
            "midi": 61,
            "time": 59.73377199999961,
            "velocity": 0.5590551181102362,
            "duration": 0.7196840000000009
        },
        {
            "name": "G4",
            "midi": 67,
            "time": 59.73377199999961,
            "velocity": 0.6614173228346457,
            "duration": 0.7196840000000009
        },
        {
            "name": "D#4",
            "midi": 63,
            "time": 60.45345599999961,
            "velocity": 0.6614173228346457,
            "duration": 0.17992100000000022
        },
        {
            "name": "G#4",
            "midi": 68,
            "time": 60.45345599999961,
            "velocity": 0.6614173228346457,
            "duration": 0.17992100000000022
        },
        {
            "name": "B3",
            "midi": 59,
            "time": 60.45345599999961,
            "velocity": 0.6614173228346457,
            "duration": 0.17992100000000022
        },
        {
            "name": "D#4",
            "midi": 63,
            "time": 60.63337699999961,
            "velocity": 0.4015748031496063,
            "duration": 0.08996049999999656
        },
        {
            "name": "B4",
            "midi": 71,
            "time": 60.63337699999961,
            "velocity": 0.4015748031496063,
            "duration": 0.08996049999999656
        },
        {
            "name": "D#4",
            "midi": 63,
            "time": 60.813297999999605,
            "velocity": 0.4015748031496063,
            "duration": 0.08996049999999656
        },
        {
            "name": "B4",
            "midi": 71,
            "time": 60.813297999999605,
            "velocity": 0.4015748031496063,
            "duration": 0.08996049999999656
        },
        {
            "name": "D#4",
            "midi": 63,
            "time": 60.9932189999996,
            "velocity": 0.4015748031496063,
            "duration": 0.08996049999999656
        },
        {
            "name": "B4",
            "midi": 71,
            "time": 60.9932189999996,
            "velocity": 0.4015748031496063,
            "duration": 0.08996049999999656
        },
        {
            "name": "D#4",
            "midi": 63,
            "time": 61.17313999999959,
            "velocity": 0.4015748031496063,
            "duration": 0.08996049999999656
        },
        {
            "name": "B4",
            "midi": 71,
            "time": 61.17313999999959,
            "velocity": 0.4015748031496063,
            "duration": 0.08996049999999656
        },
        {
            "name": "D#4",
            "midi": 63,
            "time": 61.353060999999585,
            "velocity": 0.4015748031496063,
            "duration": 0.08996049999999656
        },
        {
            "name": "B4",
            "midi": 71,
            "time": 61.353060999999585,
            "velocity": 0.4015748031496063,
            "duration": 0.08996049999999656
        },
        {
            "name": "A#4",
            "midi": 70,
            "time": 61.53298199999958,
            "velocity": 0.3858267716535433,
            "duration": 0.08996049999999656
        },
        {
            "name": "D#4",
            "midi": 63,
            "time": 61.53298199999958,
            "velocity": 0.3858267716535433,
            "duration": 0.08996049999999656
        },
        {
            "name": "D#4",
            "midi": 63,
            "time": 61.71290299999957,
            "velocity": 0.3779527559055118,
            "duration": 0.08996049999999656
        },
        {
            "name": "G#4",
            "midi": 68,
            "time": 61.71290299999957,
            "velocity": 0.3779527559055118,
            "duration": 0.08996049999999656
        },
        {
            "name": "D#4",
            "midi": 63,
            "time": 61.892823999999564,
            "velocity": 0.4645669291338583,
            "duration": 0.17992100000000022
        },
        {
            "name": "G4",
            "midi": 67,
            "time": 61.892823999999564,
            "velocity": 0.4645669291338583,
            "duration": 0.17992100000000022
        },
        {
            "name": "D#5",
            "midi": 75,
            "time": 62.072744999999564,
            "velocity": 0.3858267716535433,
            "duration": 0.08996049999999656
        },
        {
            "name": "G4",
            "midi": 67,
            "time": 62.072744999999564,
            "velocity": 0.3858267716535433,
            "duration": 0.08996049999999656
        },
        {
            "name": "G4",
            "midi": 67,
            "time": 62.25266599999956,
            "velocity": 0.3858267716535433,
            "duration": 0.08996049999999656
        },
        {
            "name": "D#5",
            "midi": 75,
            "time": 62.25266599999956,
            "velocity": 0.3858267716535433,
            "duration": 0.08996049999999656
        },
        {
            "name": "G4",
            "midi": 67,
            "time": 62.43258699999955,
            "velocity": 0.3937007874015748,
            "duration": 0.08996049999999656
        },
        {
            "name": "D#5",
            "midi": 75,
            "time": 62.43258699999955,
            "velocity": 0.3937007874015748,
            "duration": 0.08996049999999656
        },
        {
            "name": "G4",
            "midi": 67,
            "time": 62.61250799999954,
            "velocity": 0.4015748031496063,
            "duration": 0.08996049999999656
        },
        {
            "name": "D#5",
            "midi": 75,
            "time": 62.61250799999954,
            "velocity": 0.4015748031496063,
            "duration": 0.08996049999999656
        },
        {
            "name": "D#5",
            "midi": 75,
            "time": 62.79242899999954,
            "velocity": 0.4015748031496063,
            "duration": 0.08996049999999656
        },
        {
            "name": "G4",
            "midi": 67,
            "time": 62.79242899999954,
            "velocity": 0.4015748031496063,
            "duration": 0.08996049999999656
        },
        {
            "name": "D#5",
            "midi": 75,
            "time": 62.97234999999953,
            "velocity": 0.4015748031496063,
            "duration": 0.08996049999999656
        },
        {
            "name": "G#4",
            "midi": 68,
            "time": 62.97234999999953,
            "velocity": 0.4015748031496063,
            "duration": 0.08996049999999656
        },
        {
            "name": "A#4",
            "midi": 70,
            "time": 63.15227099999952,
            "velocity": 0.3937007874015748,
            "duration": 0.08996049999999656
        },
        {
            "name": "D#5",
            "midi": 75,
            "time": 63.15227099999952,
            "velocity": 0.3937007874015748,
            "duration": 0.08996049999999656
        },
        {
            "name": "B4",
            "midi": 71,
            "time": 63.332191999999516,
            "velocity": 0.4566929133858268,
            "duration": 0.17992100000000022
        },
        {
            "name": "D#5",
            "midi": 75,
            "time": 63.332191999999516,
            "velocity": 0.4566929133858268,
            "duration": 0.17992100000000022
        },
        {
            "name": "B4",
            "midi": 71,
            "time": 63.512112999999516,
            "velocity": 0.3937007874015748,
            "duration": 0.08996049999999656
        },
        {
            "name": "D#4",
            "midi": 63,
            "time": 63.512112999999516,
            "velocity": 0.3937007874015748,
            "duration": 0.08996049999999656
        },
        {
            "name": "B4",
            "midi": 71,
            "time": 63.69203399999951,
            "velocity": 0.3937007874015748,
            "duration": 0.08996049999999656
        },
        {
            "name": "D#4",
            "midi": 63,
            "time": 63.69203399999951,
            "velocity": 0.3937007874015748,
            "duration": 0.08996049999999656
        },
        {
            "name": "D#4",
            "midi": 63,
            "time": 63.8719549999995,
            "velocity": 0.3937007874015748,
            "duration": 0.08996049999999656
        },
        {
            "name": "B4",
            "midi": 71,
            "time": 63.8719549999995,
            "velocity": 0.3937007874015748,
            "duration": 0.08996049999999656
        },
        {
            "name": "B4",
            "midi": 71,
            "time": 64.0518759999995,
            "velocity": 0.3937007874015748,
            "duration": 0.08996050000000366
        },
        {
            "name": "D#4",
            "midi": 63,
            "time": 64.0518759999995,
            "velocity": 0.3937007874015748,
            "duration": 0.08996050000000366
        },
        {
            "name": "B4",
            "midi": 71,
            "time": 64.2317969999995,
            "velocity": 0.3937007874015748,
            "duration": 0.08996050000000366
        },
        {
            "name": "D#4",
            "midi": 63,
            "time": 64.2317969999995,
            "velocity": 0.3937007874015748,
            "duration": 0.08996050000000366
        },
        {
            "name": "A#4",
            "midi": 70,
            "time": 64.41171799999951,
            "velocity": 0.3937007874015748,
            "duration": 0.08996050000000366
        },
        {
            "name": "D#4",
            "midi": 63,
            "time": 64.41171799999951,
            "velocity": 0.3937007874015748,
            "duration": 0.08996050000000366
        },
        {
            "name": "D#4",
            "midi": 63,
            "time": 64.59163899999952,
            "velocity": 0.3779527559055118,
            "duration": 0.08996050000000366
        },
        {
            "name": "G#4",
            "midi": 68,
            "time": 64.59163899999952,
            "velocity": 0.3779527559055118,
            "duration": 0.08996050000000366
        },
        {
            "name": "D#4",
            "midi": 63,
            "time": 64.77155999999952,
            "velocity": 0.4566929133858268,
            "duration": 0.17992099999999311
        },
        {
            "name": "G4",
            "midi": 67,
            "time": 64.77155999999952,
            "velocity": 0.4566929133858268,
            "duration": 0.17992099999999311
        },
        {
            "name": "D#5",
            "midi": 75,
            "time": 64.95148099999952,
            "velocity": 0.3858267716535433,
            "duration": 0.08996050000000366
        },
        {
            "name": "G4",
            "midi": 67,
            "time": 64.95148099999952,
            "velocity": 0.3858267716535433,
            "duration": 0.08996050000000366
        },
        {
            "name": "G4",
            "midi": 67,
            "time": 65.13140199999953,
            "velocity": 0.3858267716535433,
            "duration": 0.08996050000000366
        },
        {
            "name": "D#5",
            "midi": 75,
            "time": 65.13140199999953,
            "velocity": 0.3858267716535433,
            "duration": 0.08996050000000366
        },
        {
            "name": "G4",
            "midi": 67,
            "time": 65.31132299999953,
            "velocity": 0.4015748031496063,
            "duration": 0.08996050000000366
        },
        {
            "name": "D#5",
            "midi": 75,
            "time": 65.31132299999953,
            "velocity": 0.4015748031496063,
            "duration": 0.08996050000000366
        },
        {
            "name": "G4",
            "midi": 67,
            "time": 65.49124399999954,
            "velocity": 0.3858267716535433,
            "duration": 0.08996050000000366
        },
        {
            "name": "D#5",
            "midi": 75,
            "time": 65.49124399999954,
            "velocity": 0.3858267716535433,
            "duration": 0.08996050000000366
        },
        {
            "name": "D#5",
            "midi": 75,
            "time": 65.67116499999955,
            "velocity": 0.3858267716535433,
            "duration": 0.08996050000000366
        },
        {
            "name": "G4",
            "midi": 67,
            "time": 65.67116499999955,
            "velocity": 0.3858267716535433,
            "duration": 0.08996050000000366
        },
        {
            "name": "G#4",
            "midi": 68,
            "time": 65.85108599999955,
            "velocity": 0.3937007874015748,
            "duration": 0.08996050000000366
        },
        {
            "name": "D#5",
            "midi": 75,
            "time": 65.85108599999955,
            "velocity": 0.3937007874015748,
            "duration": 0.08996050000000366
        },
        {
            "name": "A#4",
            "midi": 70,
            "time": 66.03100699999956,
            "velocity": 0.4015748031496063,
            "duration": 0.08996050000000366
        },
        {
            "name": "D#5",
            "midi": 75,
            "time": 66.03100699999956,
            "velocity": 0.4015748031496063,
            "duration": 0.08996050000000366
        },
        {
            "name": "B4",
            "midi": 71,
            "time": 66.21092799999957,
            "velocity": 0.4409448818897638,
            "duration": 0.08996050000000366
        },
        {
            "name": "D#5",
            "midi": 75,
            "time": 66.21092799999957,
            "velocity": 0.4409448818897638,
            "duration": 0.08996050000000366
        },
        {
            "name": "D#5",
            "midi": 75,
            "time": 66.39084899999958,
            "velocity": 0.3937007874015748,
            "duration": 0.08996050000000366
        },
        {
            "name": "B4",
            "midi": 71,
            "time": 66.39084899999958,
            "velocity": 0.3937007874015748,
            "duration": 0.08996050000000366
        },
        {
            "name": "D#5",
            "midi": 75,
            "time": 66.57076999999958,
            "velocity": 0.3937007874015748,
            "duration": 0.17992099999999311
        },
        {
            "name": "B4",
            "midi": 71,
            "time": 66.57076999999958,
            "velocity": 0.3937007874015748,
            "duration": 0.17992099999999311
        },
        {
            "name": "G#4",
            "midi": 68,
            "time": 66.75069099999958,
            "velocity": 0.3700787401574803,
            "duration": 0.17992099999999311
        },
        {
            "name": "B4",
            "midi": 71,
            "time": 66.75069099999958,
            "velocity": 0.3700787401574803,
            "duration": 0.17992099999999311
        },
        {
            "name": "E5",
            "midi": 76,
            "time": 67.11053299999956,
            "velocity": 0.3937007874015748,
            "duration": 0.08996050000000366
        },
        {
            "name": "C#5",
            "midi": 73,
            "time": 67.11053299999956,
            "velocity": 0.3937007874015748,
            "duration": 0.08996050000000366
        },
        {
            "name": "C#5",
            "midi": 73,
            "time": 67.29045399999957,
            "velocity": 0.3937007874015748,
            "duration": 0.17992099999999311
        },
        {
            "name": "E5",
            "midi": 76,
            "time": 67.29045399999957,
            "velocity": 0.3937007874015748,
            "duration": 0.17992099999999311
        },
        {
            "name": "C#5",
            "midi": 73,
            "time": 67.47037499999956,
            "velocity": 0.3779527559055118,
            "duration": 0.17992099999999311
        },
        {
            "name": "G#4",
            "midi": 68,
            "time": 67.47037499999956,
            "velocity": 0.3779527559055118,
            "duration": 0.17992099999999311
        },
        {
            "name": "D#5",
            "midi": 75,
            "time": 67.83021699999955,
            "velocity": 0.3700787401574803,
            "duration": 0.08996050000000366
        },
        {
            "name": "B4",
            "midi": 71,
            "time": 67.83021699999955,
            "velocity": 0.3700787401574803,
            "duration": 0.08996050000000366
        },
        {
            "name": "B4",
            "midi": 71,
            "time": 68.01013799999956,
            "velocity": 0.3700787401574803,
            "duration": 0.17992099999999311
        },
        {
            "name": "D#5",
            "midi": 75,
            "time": 68.01013799999956,
            "velocity": 0.3700787401574803,
            "duration": 0.17992099999999311
        },
        {
            "name": "B4",
            "midi": 71,
            "time": 68.19005899999955,
            "velocity": 0.3464566929133858,
            "duration": 0.17992099999999311
        },
        {
            "name": "G#4",
            "midi": 68,
            "time": 68.19005899999955,
            "velocity": 0.3464566929133858,
            "duration": 0.17992099999999311
        },
        {
            "name": "A#4",
            "midi": 70,
            "time": 68.54990099999954,
            "velocity": 0.3858267716535433,
            "duration": 0.08996050000000366
        },
        {
            "name": "D#5",
            "midi": 75,
            "time": 68.54990099999954,
            "velocity": 0.3858267716535433,
            "duration": 0.08996050000000366
        },
        {
            "name": "A#4",
            "midi": 70,
            "time": 68.72982199999954,
            "velocity": 0.3700787401574803,
            "duration": 0.17992099999999311
        },
        {
            "name": "D#5",
            "midi": 75,
            "time": 68.72982199999954,
            "velocity": 0.3700787401574803,
            "duration": 0.17992099999999311
        },
        {
            "name": "A#4",
            "midi": 70,
            "time": 68.90974299999954,
            "velocity": 0.3543307086614173,
            "duration": 0.17992099999999311
        },
        {
            "name": "G4",
            "midi": 67,
            "time": 68.90974299999954,
            "velocity": 0.3543307086614173,
            "duration": 0.17992099999999311
        },
        {
            "name": "B4",
            "midi": 71,
            "time": 69.08966399999953,
            "velocity": 0.3858267716535433,
            "duration": 0.17992099999999311
        },
        {
            "name": "G#4",
            "midi": 68,
            "time": 69.08966399999953,
            "velocity": 0.3858267716535433,
            "duration": 0.17992099999999311
        },
        {
            "name": "B4",
            "midi": 71,
            "time": 69.26958499999952,
            "velocity": 0.33858267716535434,
            "duration": 0.08996050000000366
        },
        {
            "name": "D#5",
            "midi": 75,
            "time": 69.26958499999952,
            "velocity": 0.4015748031496063,
            "duration": 0.08996050000000366
        },
        {
            "name": "B5",
            "midi": 83,
            "time": 69.26958499999952,
            "velocity": 0.4015748031496063,
            "duration": 0.08996050000000366
        },
        {
            "name": "D#5",
            "midi": 75,
            "time": 69.44950599999953,
            "velocity": 0.4409448818897638,
            "duration": 0.08996050000000366
        },
        {
            "name": "B4",
            "midi": 71,
            "time": 69.44950599999953,
            "velocity": 0.3700787401574803,
            "duration": 0.08996050000000366
        },
        {
            "name": "B5",
            "midi": 83,
            "time": 69.44950599999953,
            "velocity": 0.4409448818897638,
            "duration": 0.08996050000000366
        },
        {
            "name": "B5",
            "midi": 83,
            "time": 69.62942699999954,
            "velocity": 0.4566929133858268,
            "duration": 0.08996050000000366
        },
        {
            "name": "D#5",
            "midi": 75,
            "time": 69.62942699999954,
            "velocity": 0.4566929133858268,
            "duration": 0.08996050000000366
        },
        {
            "name": "B4",
            "midi": 71,
            "time": 69.62942699999954,
            "velocity": 0.3858267716535433,
            "duration": 0.08996050000000366
        },
        {
            "name": "B4",
            "midi": 71,
            "time": 69.80934799999955,
            "velocity": 0.4094488188976378,
            "duration": 0.08996050000000366
        },
        {
            "name": "D#5",
            "midi": 75,
            "time": 69.80934799999955,
            "velocity": 0.4881889763779528,
            "duration": 0.08996050000000366
        },
        {
            "name": "B5",
            "midi": 83,
            "time": 69.80934799999955,
            "velocity": 0.4881889763779528,
            "duration": 0.08996050000000366
        },
        {
            "name": "B4",
            "midi": 71,
            "time": 69.98926899999955,
            "velocity": 0.4409448818897638,
            "duration": 0.08996050000000366
        },
        {
            "name": "D#5",
            "midi": 75,
            "time": 69.98926899999955,
            "velocity": 0.5196850393700787,
            "duration": 0.08996050000000366
        },
        {
            "name": "B5",
            "midi": 83,
            "time": 69.98926899999955,
            "velocity": 0.5196850393700787,
            "duration": 0.08996050000000366
        },
        {
            "name": "A#5",
            "midi": 82,
            "time": 70.16918999999956,
            "velocity": 0.5354330708661418,
            "duration": 0.08996050000000366
        },
        {
            "name": "A#4",
            "midi": 70,
            "time": 70.16918999999956,
            "velocity": 0.44881889763779526,
            "duration": 0.08996050000000366
        },
        {
            "name": "C#5",
            "midi": 73,
            "time": 70.16918999999956,
            "velocity": 0.5354330708661418,
            "duration": 0.08996050000000366
        },
        {
            "name": "G#4",
            "midi": 68,
            "time": 70.34911099999957,
            "velocity": 0.48031496062992124,
            "duration": 0.08996050000000366
        },
        {
            "name": "B4",
            "midi": 71,
            "time": 70.34911099999957,
            "velocity": 0.5669291338582677,
            "duration": 0.08996050000000366
        },
        {
            "name": "G#5",
            "midi": 80,
            "time": 70.34911099999957,
            "velocity": 0.5669291338582677,
            "duration": 0.08996050000000366
        },
        {
            "name": "G4",
            "midi": 67,
            "time": 70.52903199999957,
            "velocity": 0.49606299212598426,
            "duration": 0.17992099999999311
        },
        {
            "name": "A#4",
            "midi": 70,
            "time": 70.52903199999957,
            "velocity": 0.5905511811023622,
            "duration": 0.17992099999999311
        },
        {
            "name": "G5",
            "midi": 79,
            "time": 70.52903199999957,
            "velocity": 0.5905511811023622,
            "duration": 0.17992099999999311
        },
        {
            "name": "G5",
            "midi": 79,
            "time": 70.70895299999957,
            "velocity": 0.5984251968503937,
            "duration": 0.08996050000000366
        },
        {
            "name": "E5",
            "midi": 76,
            "time": 70.70895299999957,
            "velocity": 0.5039370078740157,
            "duration": 0.08996050000000366
        },
        {
            "name": "E6",
            "midi": 88,
            "time": 70.70895299999957,
            "velocity": 0.5984251968503937,
            "duration": 0.08996050000000366
        },
        {
            "name": "G5",
            "midi": 79,
            "time": 70.88887399999957,
            "velocity": 0.6456692913385826,
            "duration": 0.08996050000000366
        },
        {
            "name": "E6",
            "midi": 88,
            "time": 70.88887399999957,
            "velocity": 0.6456692913385826,
            "duration": 0.08996050000000366
        },
        {
            "name": "E5",
            "midi": 76,
            "time": 70.88887399999957,
            "velocity": 0.5433070866141733,
            "duration": 0.08996050000000366
        },
        {
            "name": "E5",
            "midi": 76,
            "time": 71.06879499999958,
            "velocity": 0.5275590551181102,
            "duration": 0.08996050000000366
        },
        {
            "name": "E6",
            "midi": 88,
            "time": 71.06879499999958,
            "velocity": 0.6220472440944882,
            "duration": 0.08996050000000366
        },
        {
            "name": "G5",
            "midi": 79,
            "time": 71.06879499999958,
            "velocity": 0.6220472440944882,
            "duration": 0.08996050000000366
        },
        {
            "name": "E6",
            "midi": 88,
            "time": 71.24871599999959,
            "velocity": 0.6456692913385826,
            "duration": 0.08996050000000366
        },
        {
            "name": "G5",
            "midi": 79,
            "time": 71.24871599999959,
            "velocity": 0.6456692913385826,
            "duration": 0.08996050000000366
        },
        {
            "name": "E5",
            "midi": 76,
            "time": 71.24871599999959,
            "velocity": 0.5433070866141733,
            "duration": 0.08996050000000366
        },
        {
            "name": "E6",
            "midi": 88,
            "time": 71.4286369999996,
            "velocity": 0.6141732283464567,
            "duration": 0.08996050000000366
        },
        {
            "name": "G5",
            "midi": 79,
            "time": 71.4286369999996,
            "velocity": 0.6141732283464567,
            "duration": 0.08996050000000366
        },
        {
            "name": "E5",
            "midi": 76,
            "time": 71.4286369999996,
            "velocity": 0.5196850393700787,
            "duration": 0.08996050000000366
        },
        {
            "name": "G5",
            "midi": 79,
            "time": 71.6085579999996,
            "velocity": 0.6299212598425197,
            "duration": 0.08996050000000366
        },
        {
            "name": "D#5",
            "midi": 75,
            "time": 71.6085579999996,
            "velocity": 0.5354330708661418,
            "duration": 0.08996050000000366
        },
        {
            "name": "D#6",
            "midi": 87,
            "time": 71.6085579999996,
            "velocity": 0.6299212598425197,
            "duration": 0.08996050000000366
        },
        {
            "name": "G5",
            "midi": 79,
            "time": 71.78847899999961,
            "velocity": 0.6141732283464567,
            "duration": 0.08996050000000366
        },
        {
            "name": "C#5",
            "midi": 73,
            "time": 71.78847899999961,
            "velocity": 0.5196850393700787,
            "duration": 0.08996050000000366
        },
        {
            "name": "C#6",
            "midi": 85,
            "time": 71.78847899999961,
            "velocity": 0.6141732283464567,
            "duration": 0.08996050000000366
        },
        {
            "name": "B4",
            "midi": 71,
            "time": 71.96839999999962,
            "velocity": 0.5433070866141733,
            "duration": 0.17992099999999311
        },
        {
            "name": "G#5",
            "midi": 80,
            "time": 71.96839999999962,
            "velocity": 0.6456692913385826,
            "duration": 0.17992099999999311
        },
        {
            "name": "B5",
            "midi": 83,
            "time": 71.96839999999962,
            "velocity": 0.6456692913385826,
            "duration": 0.17992099999999311
        },
        {
            "name": "B4",
            "midi": 71,
            "time": 72.14832099999961,
            "velocity": 0.3228346456692913,
            "duration": 0.08996050000000366
        },
        {
            "name": "D#5",
            "midi": 75,
            "time": 72.14832099999961,
            "velocity": 0.3858267716535433,
            "duration": 0.08996050000000366
        },
        {
            "name": "B5",
            "midi": 83,
            "time": 72.14832099999961,
            "velocity": 0.3858267716535433,
            "duration": 0.08996050000000366
        },
        {
            "name": "D#5",
            "midi": 75,
            "time": 72.32824199999962,
            "velocity": 0.4094488188976378,
            "duration": 0.08996050000000366
        },
        {
            "name": "B5",
            "midi": 83,
            "time": 72.32824199999962,
            "velocity": 0.4094488188976378,
            "duration": 0.08996050000000366
        },
        {
            "name": "B4",
            "midi": 71,
            "time": 72.32824199999962,
            "velocity": 0.3464566929133858,
            "duration": 0.08996050000000366
        },
        {
            "name": "B4",
            "midi": 71,
            "time": 72.50816299999963,
            "velocity": 0.3779527559055118,
            "duration": 0.08996050000000366
        },
        {
            "name": "D#5",
            "midi": 75,
            "time": 72.50816299999963,
            "velocity": 0.44881889763779526,
            "duration": 0.08996050000000366
        },
        {
            "name": "B5",
            "midi": 83,
            "time": 72.50816299999963,
            "velocity": 0.44881889763779526,
            "duration": 0.08996050000000366
        },
        {
            "name": "D#5",
            "midi": 75,
            "time": 72.68808399999963,
            "velocity": 0.48031496062992124,
            "duration": 0.08996050000000366
        },
        {
            "name": "B5",
            "midi": 83,
            "time": 72.68808399999963,
            "velocity": 0.48031496062992124,
            "duration": 0.08996050000000366
        },
        {
            "name": "B4",
            "midi": 71,
            "time": 72.68808399999963,
            "velocity": 0.4015748031496063,
            "duration": 0.08996050000000366
        },
        {
            "name": "B5",
            "midi": 83,
            "time": 72.86800499999964,
            "velocity": 0.5196850393700787,
            "duration": 0.08996050000000366
        },
        {
            "name": "B4",
            "midi": 71,
            "time": 72.86800499999964,
            "velocity": 0.4409448818897638,
            "duration": 0.08996050000000366
        },
        {
            "name": "D#5",
            "midi": 75,
            "time": 72.86800499999964,
            "velocity": 0.5196850393700787,
            "duration": 0.08996050000000366
        },
        {
            "name": "A#4",
            "midi": 70,
            "time": 73.04792599999965,
            "velocity": 0.4566929133858268,
            "duration": 0.08996050000000366
        },
        {
            "name": "A#5",
            "midi": 82,
            "time": 73.04792599999965,
            "velocity": 0.5433070866141733,
            "duration": 0.08996050000000366
        },
        {
            "name": "C#5",
            "midi": 73,
            "time": 73.04792599999965,
            "velocity": 0.5433070866141733,
            "duration": 0.08996050000000366
        },
        {
            "name": "G#4",
            "midi": 68,
            "time": 73.22784699999966,
            "velocity": 0.4881889763779528,
            "duration": 0.08996050000000366
        },
        {
            "name": "B4",
            "midi": 71,
            "time": 73.22784699999966,
            "velocity": 0.5748031496062992,
            "duration": 0.08996050000000366
        },
        {
            "name": "G#5",
            "midi": 80,
            "time": 73.22784699999966,
            "velocity": 0.5748031496062992,
            "duration": 0.08996050000000366
        },
        {
            "name": "G4",
            "midi": 67,
            "time": 73.40776799999966,
            "velocity": 0.5196850393700787,
            "duration": 0.17992099999999311
        },
        {
            "name": "A#4",
            "midi": 70,
            "time": 73.40776799999966,
            "velocity": 0.6141732283464567,
            "duration": 0.17992099999999311
        },
        {
            "name": "G5",
            "midi": 79,
            "time": 73.40776799999966,
            "velocity": 0.6141732283464567,
            "duration": 0.17992099999999311
        },
        {
            "name": "G5",
            "midi": 79,
            "time": 73.58768899999966,
            "velocity": 0.6220472440944882,
            "duration": 0.08996050000000366
        },
        {
            "name": "E6",
            "midi": 88,
            "time": 73.58768899999966,
            "velocity": 0.6220472440944882,
            "duration": 0.08996050000000366
        },
        {
            "name": "E5",
            "midi": 76,
            "time": 73.58768899999966,
            "velocity": 0.5275590551181102,
            "duration": 0.08996050000000366
        },
        {
            "name": "G5",
            "midi": 79,
            "time": 73.76760999999966,
            "velocity": 0.6377952755905512,
            "duration": 0.08996050000000366
        },
        {
            "name": "E5",
            "midi": 76,
            "time": 73.76760999999966,
            "velocity": 0.5354330708661418,
            "duration": 0.08996050000000366
        },
        {
            "name": "E6",
            "midi": 88,
            "time": 73.76760999999966,
            "velocity": 0.6377952755905512,
            "duration": 0.08996050000000366
        },
        {
            "name": "E5",
            "midi": 76,
            "time": 73.94753099999967,
            "velocity": 0.5196850393700787,
            "duration": 0.08996050000000366
        },
        {
            "name": "E6",
            "midi": 88,
            "time": 73.94753099999967,
            "velocity": 0.6141732283464567,
            "duration": 0.08996050000000366
        },
        {
            "name": "G5",
            "midi": 79,
            "time": 73.94753099999967,
            "velocity": 0.6141732283464567,
            "duration": 0.08996050000000366
        },
        {
            "name": "G5",
            "midi": 79,
            "time": 74.12745199999968,
            "velocity": 0.6456692913385826,
            "duration": 0.08996050000000366
        },
        {
            "name": "E5",
            "midi": 76,
            "time": 74.12745199999968,
            "velocity": 0.5433070866141733,
            "duration": 0.08996050000000366
        },
        {
            "name": "E6",
            "midi": 88,
            "time": 74.12745199999968,
            "velocity": 0.6456692913385826,
            "duration": 0.08996050000000366
        },
        {
            "name": "E5",
            "midi": 76,
            "time": 74.30737299999969,
            "velocity": 0.5196850393700787,
            "duration": 0.08996050000000366
        },
        {
            "name": "E6",
            "midi": 88,
            "time": 74.30737299999969,
            "velocity": 0.6141732283464567,
            "duration": 0.08996050000000366
        },
        {
            "name": "G5",
            "midi": 79,
            "time": 74.30737299999969,
            "velocity": 0.6141732283464567,
            "duration": 0.08996050000000366
        },
        {
            "name": "D#6",
            "midi": 87,
            "time": 74.4872939999997,
            "velocity": 0.6220472440944882,
            "duration": 0.08996050000000366
        },
        {
            "name": "G5",
            "midi": 79,
            "time": 74.4872939999997,
            "velocity": 0.6220472440944882,
            "duration": 0.08996050000000366
        },
        {
            "name": "D#5",
            "midi": 75,
            "time": 74.4872939999997,
            "velocity": 0.5275590551181102,
            "duration": 0.08996050000000366
        },
        {
            "name": "C#6",
            "midi": 85,
            "time": 74.6672149999997,
            "velocity": 0.6220472440944882,
            "duration": 0.08996050000000366
        },
        {
            "name": "C#5",
            "midi": 73,
            "time": 74.6672149999997,
            "velocity": 0.5275590551181102,
            "duration": 0.08996050000000366
        },
        {
            "name": "G5",
            "midi": 79,
            "time": 74.6672149999997,
            "velocity": 0.6220472440944882,
            "duration": 0.08996050000000366
        },
        {
            "name": "G#5",
            "midi": 80,
            "time": 74.84713599999971,
            "velocity": 0.6456692913385826,
            "duration": 0.17992099999999311
        },
        {
            "name": "B5",
            "midi": 83,
            "time": 74.84713599999971,
            "velocity": 0.6456692913385826,
            "duration": 0.17992099999999311
        },
        {
            "name": "B4",
            "midi": 71,
            "time": 74.84713599999971,
            "velocity": 0.5433070866141733,
            "duration": 0.17992099999999311
        },
        {
            "name": "B5",
            "midi": 83,
            "time": 75.0270569999997,
            "velocity": 0.3937007874015748,
            "duration": 0.08996050000000366
        },
        {
            "name": "G#5",
            "midi": 80,
            "time": 75.0270569999997,
            "velocity": 0.3937007874015748,
            "duration": 0.08996050000000366
        },
        {
            "name": "B5",
            "midi": 83,
            "time": 75.20697799999971,
            "velocity": 0.3937007874015748,
            "duration": 0.17992099999999311
        },
        {
            "name": "G#5",
            "midi": 80,
            "time": 75.20697799999971,
            "velocity": 0.3937007874015748,
            "duration": 0.17992099999999311
        },
        {
            "name": "D#6",
            "midi": 87,
            "time": 75.3868989999997,
            "velocity": 0.3779527559055118,
            "duration": 0.17992099999999311
        },
        {
            "name": "B5",
            "midi": 83,
            "time": 75.3868989999997,
            "velocity": 0.3779527559055118,
            "duration": 0.17992099999999311
        },
        {
            "name": "C#6",
            "midi": 85,
            "time": 75.74674099999969,
            "velocity": 0.3858267716535433,
            "duration": 0.08996050000000366
        },
        {
            "name": "G#5",
            "midi": 80,
            "time": 75.74674099999969,
            "velocity": 0.3858267716535433,
            "duration": 0.08996050000000366
        },
        {
            "name": "C#6",
            "midi": 85,
            "time": 75.9266619999997,
            "velocity": 0.3858267716535433,
            "duration": 0.17992099999999311
        },
        {
            "name": "G#5",
            "midi": 80,
            "time": 75.9266619999997,
            "velocity": 0.3858267716535433,
            "duration": 0.17992099999999311
        },
        {
            "name": "E6",
            "midi": 88,
            "time": 76.10658299999969,
            "velocity": 0.3779527559055118,
            "duration": 0.17992099999999311
        },
        {
            "name": "C#6",
            "midi": 85,
            "time": 76.10658299999969,
            "velocity": 0.3779527559055118,
            "duration": 0.17992099999999311
        },
        {
            "name": "G#5",
            "midi": 80,
            "time": 76.46642499999967,
            "velocity": 0.3858267716535433,
            "duration": 0.08996050000000366
        },
        {
            "name": "B5",
            "midi": 83,
            "time": 76.46642499999967,
            "velocity": 0.3858267716535433,
            "duration": 0.08996050000000366
        },
        {
            "name": "B5",
            "midi": 83,
            "time": 76.64634599999968,
            "velocity": 0.3858267716535433,
            "duration": 0.17992099999999311
        },
        {
            "name": "G#5",
            "midi": 80,
            "time": 76.64634599999968,
            "velocity": 0.3858267716535433,
            "duration": 0.17992099999999311
        },
        {
            "name": "D#6",
            "midi": 87,
            "time": 76.82626699999967,
            "velocity": 0.3779527559055118,
            "duration": 0.17992099999999311
        },
        {
            "name": "B5",
            "midi": 83,
            "time": 76.82626699999967,
            "velocity": 0.3779527559055118,
            "duration": 0.17992099999999311
        },
        {
            "name": "A#5",
            "midi": 82,
            "time": 77.18610899999966,
            "velocity": 0.4015748031496063,
            "duration": 0.08996050000000366
        },
        {
            "name": "G5",
            "midi": 79,
            "time": 77.18610899999966,
            "velocity": 0.4015748031496063,
            "duration": 0.08996050000000366
        },
        {
            "name": "A#5",
            "midi": 82,
            "time": 77.36602999999967,
            "velocity": 0.4015748031496063,
            "duration": 0.17992099999999311
        },
        {
            "name": "G5",
            "midi": 79,
            "time": 77.36602999999967,
            "velocity": 0.4015748031496063,
            "duration": 0.17992099999999311
        },
        {
            "name": "D#6",
            "midi": 87,
            "time": 77.54595099999966,
            "velocity": 0.3779527559055118,
            "duration": 0.17992099999999311
        },
        {
            "name": "A#5",
            "midi": 82,
            "time": 77.54595099999966,
            "velocity": 0.3779527559055118,
            "duration": 0.17992099999999311
        },
        {
            "name": "D#5",
            "midi": 75,
            "time": 77.90579299999965,
            "velocity": 0.4409448818897638,
            "duration": 0.08996050000000366
        },
        {
            "name": "B5",
            "midi": 83,
            "time": 77.90579299999965,
            "velocity": 0.4409448818897638,
            "duration": 0.08996050000000366
        },
        {
            "name": "B5",
            "midi": 83,
            "time": 78.08571399999965,
            "velocity": 0.4015748031496063,
            "duration": 0.17992099999999311
        },
        {
            "name": "D#5",
            "midi": 75,
            "time": 78.08571399999965,
            "velocity": 0.4015748031496063,
            "duration": 0.17992099999999311
        },
        {
            "name": "G#5",
            "midi": 80,
            "time": 78.26563499999965,
            "velocity": 0.4015748031496063,
            "duration": 0.17992099999999311
        },
        {
            "name": "D#6",
            "midi": 87,
            "time": 78.26563499999965,
            "velocity": 0.4015748031496063,
            "duration": 0.17992099999999311
        },
        {
            "name": "A5",
            "midi": 81,
            "time": 78.62547699999963,
            "velocity": 0.4881889763779528,
            "duration": 0.08996050000000366
        },
        {
            "name": "C#5",
            "midi": 73,
            "time": 78.62547699999963,
            "velocity": 0.4881889763779528,
            "duration": 0.08996050000000366
        },
        {
            "name": "A5",
            "midi": 81,
            "time": 78.80539799999964,
            "velocity": 0.4409448818897638,
            "duration": 0.17992099999999311
        },
        {
            "name": "C#5",
            "midi": 73,
            "time": 78.80539799999964,
            "velocity": 0.4409448818897638,
            "duration": 0.17992099999999311
        },
        {
            "name": "E5",
            "midi": 76,
            "time": 78.98531899999963,
            "velocity": 0.4409448818897638,
            "duration": 0.17992099999999311
        },
        {
            "name": "C#6",
            "midi": 85,
            "time": 78.98531899999963,
            "velocity": 0.4409448818897638,
            "duration": 0.17992099999999311
        },
        {
            "name": "G#5",
            "midi": 80,
            "time": 79.34516099999962,
            "velocity": 0.44881889763779526,
            "duration": 0.08996050000000366
        },
        {
            "name": "B4",
            "midi": 71,
            "time": 79.34516099999962,
            "velocity": 0.44881889763779526,
            "duration": 0.08996050000000366
        },
        {
            "name": "G#5",
            "midi": 80,
            "time": 79.52508199999963,
            "velocity": 0.44881889763779526,
            "duration": 0.17992099999999311
        },
        {
            "name": "B4",
            "midi": 71,
            "time": 79.52508199999963,
            "velocity": 0.44881889763779526,
            "duration": 0.17992099999999311
        },
        {
            "name": "D#5",
            "midi": 75,
            "time": 79.70500299999962,
            "velocity": 0.4015748031496063,
            "duration": 0.17992099999999311
        },
        {
            "name": "B5",
            "midi": 83,
            "time": 79.70500299999962,
            "velocity": 0.4015748031496063,
            "duration": 0.17992099999999311
        },
        {
            "name": "G5",
            "midi": 79,
            "time": 80.06484499999961,
            "velocity": 0.4094488188976378,
            "duration": 0.08996050000000366
        },
        {
            "name": "A#4",
            "midi": 70,
            "time": 80.06484499999961,
            "velocity": 0.4094488188976378,
            "duration": 0.08996050000000366
        },
        {
            "name": "A#4",
            "midi": 70,
            "time": 80.24476599999961,
            "velocity": 0.4015748031496063,
            "duration": 0.17992099999999311
        },
        {
            "name": "G5",
            "midi": 79,
            "time": 80.24476599999961,
            "velocity": 0.4015748031496063,
            "duration": 0.17992099999999311
        },
        {
            "name": "C#5",
            "midi": 73,
            "time": 80.42468699999961,
            "velocity": 0.33070866141732286,
            "duration": 0.17992099999999311
        },
        {
            "name": "A#5",
            "midi": 82,
            "time": 80.42468699999961,
            "velocity": 0.33070866141732286,
            "duration": 0.17992099999999311
        },
        {
            "name": "G#5",
            "midi": 80,
            "time": 80.6046079999996,
            "velocity": 0.3937007874015748,
            "duration": 0.35984200000000044
        },
        {
            "name": "B4",
            "midi": 71,
            "time": 80.6046079999996,
            "velocity": 0.3937007874015748,
            "duration": 0.35984200000000044
        },
        {
            "name": "B4",
            "midi": 71,
            "time": 81.6841339999996,
            "velocity": 0.3937007874015748,
            "duration": 0.2698814999999968
        },
        {
            "name": "G#4",
            "midi": 68,
            "time": 81.9540154999996,
            "velocity": 0.3937007874015748,
            "duration": 0.08996050000000366
        },
        {
            "name": "G4",
            "midi": 67,
            "time": 82.0439759999996,
            "velocity": 0.44881889763779526,
            "duration": 0.35984200000000044
        },
        {
            "name": "D#5",
            "midi": 75,
            "time": 82.4038179999996,
            "velocity": 0.3700787401574803,
            "duration": 0.2698814999999968
        },
        {
            "name": "C#4",
            "midi": 61,
            "time": 82.4038179999996,
            "velocity": 0.30708661417322836,
            "duration": 0.2698814999999968
        },
        {
            "name": "G4",
            "midi": 67,
            "time": 82.4038179999996,
            "velocity": 0.3700787401574803,
            "duration": 0.2698814999999968
        },
        {
            "name": "G4",
            "midi": 67,
            "time": 82.7636599999996,
            "velocity": 0.3700787401574803,
            "duration": 0.2698814999999968
        },
        {
            "name": "D#5",
            "midi": 75,
            "time": 82.7636599999996,
            "velocity": 0.3700787401574803,
            "duration": 0.2698814999999968
        },
        {
            "name": "C#4",
            "midi": 61,
            "time": 82.7636599999996,
            "velocity": 0.30708661417322836,
            "duration": 0.2698814999999968
        },
        {
            "name": "G4",
            "midi": 67,
            "time": 83.1235019999996,
            "velocity": 0.3937007874015748,
            "duration": 0.2698814999999968
        },
        {
            "name": "D#5",
            "midi": 75,
            "time": 83.1235019999996,
            "velocity": 0.3937007874015748,
            "duration": 0.2698814999999968
        },
        {
            "name": "C#4",
            "midi": 61,
            "time": 83.1235019999996,
            "velocity": 0.33070866141732286,
            "duration": 0.2698814999999968
        },
        {
            "name": "B3",
            "midi": 59,
            "time": 83.3933834999996,
            "velocity": 0.3937007874015748,
            "duration": 0.05997366666666437
        },
        {
            "name": "G#4",
            "midi": 68,
            "time": 83.4383637499996,
            "velocity": 0.3937007874015748,
            "duration": 0.05997366666667858
        },
        {
            "name": "D#5",
            "midi": 75,
            "time": 83.4833439999996,
            "velocity": 0.44881889763779526,
            "duration": 1.0795260000000013
        },
        {
            "name": "B5",
            "midi": 83,
            "time": 84.5628699999996,
            "velocity": 0.4566929133858268,
            "duration": 0.2698814999999968
        },
        {
            "name": "G#5",
            "midi": 80,
            "time": 84.8327514999996,
            "velocity": 0.4566929133858268,
            "duration": 0.08996050000000366
        },
        {
            "name": "G5",
            "midi": 79,
            "time": 84.9227119999996,
            "velocity": 0.5275590551181102,
            "duration": 0.35984200000000044
        },
        {
            "name": "D#6",
            "midi": 87,
            "time": 85.2825539999996,
            "velocity": 0.44881889763779526,
            "duration": 0.2698814999999968
        },
        {
            "name": "C#5",
            "midi": 73,
            "time": 85.2825539999996,
            "velocity": 0.3779527559055118,
            "duration": 0.2698814999999968
        },
        {
            "name": "G5",
            "midi": 79,
            "time": 85.2825539999996,
            "velocity": 0.44881889763779526,
            "duration": 0.2698814999999968
        },
        {
            "name": "C#5",
            "midi": 73,
            "time": 85.64239599999961,
            "velocity": 0.3779527559055118,
            "duration": 0.2698814999999968
        },
        {
            "name": "D#6",
            "midi": 87,
            "time": 85.64239599999961,
            "velocity": 0.44881889763779526,
            "duration": 0.2698814999999968
        },
        {
            "name": "G5",
            "midi": 79,
            "time": 85.64239599999961,
            "velocity": 0.44881889763779526,
            "duration": 0.2698814999999968
        },
        {
            "name": "G5",
            "midi": 79,
            "time": 86.00223799999961,
            "velocity": 0.44881889763779526,
            "duration": 0.2698814999999968
        },
        {
            "name": "C#5",
            "midi": 73,
            "time": 86.00223799999961,
            "velocity": 0.3779527559055118,
            "duration": 0.2698814999999968
        },
        {
            "name": "D#6",
            "midi": 87,
            "time": 86.00223799999961,
            "velocity": 0.44881889763779526,
            "duration": 0.2698814999999968
        },
        {
            "name": "B4",
            "midi": 71,
            "time": 86.2721194999996,
            "velocity": 0.3700787401574803,
            "duration": 0.05997366666666437
        },
        {
            "name": "G#5",
            "midi": 80,
            "time": 86.3170997499996,
            "velocity": 0.41732283464566927,
            "duration": 0.05997366666667858
        },
        {
            "name": "D#6",
            "midi": 87,
            "time": 86.36207999999961,
            "velocity": 0.5748031496062992,
            "duration": 0.6297234999999972
        },
        {
            "name": "C#5",
            "midi": 73,
            "time": 86.9918034999996,
            "velocity": 0.33858267716535434,
            "duration": 0.05997366666666437
        },
        {
            "name": "G5",
            "midi": 79,
            "time": 87.0367837499996,
            "velocity": 0.41732283464566927,
            "duration": 0.05997366666667858
        },
        {
            "name": "D#6",
            "midi": 87,
            "time": 87.08176399999961,
            "velocity": 0.5669291338582677,
            "duration": 0.6297234999999972
        },
        {
            "name": "B4",
            "midi": 71,
            "time": 87.7114874999996,
            "velocity": 0.31496062992125984,
            "duration": 0.05997366666666437
        },
        {
            "name": "G#5",
            "midi": 80,
            "time": 87.7564677499996,
            "velocity": 0.41732283464566927,
            "duration": 0.05997366666667858
        },
        {
            "name": "D#6",
            "midi": 87,
            "time": 87.80144799999961,
            "velocity": 0.5669291338582677,
            "duration": 0.6297234999999972
        },
        {
            "name": "C#5",
            "midi": 73,
            "time": 88.4311714999996,
            "velocity": 0.3543307086614173,
            "duration": 0.05997366666666437
        },
        {
            "name": "G5",
            "midi": 79,
            "time": 88.4761517499996,
            "velocity": 0.4094488188976378,
            "duration": 0.05997366666667858
        },
        {
            "name": "D#6",
            "midi": 87,
            "time": 88.52113199999961,
            "velocity": 0.5590551181102362,
            "duration": 0.7196840000000009
        },
        {
            "name": "B3",
            "midi": 59,
            "time": 89.24081599999961,
            "velocity": 0.3858267716535433,
            "duration": 0.08921082916666023
        },
        {
            "name": "G#4",
            "midi": 68,
            "time": 89.3307764999996,
            "velocity": 0.3937007874015748,
            "duration": 0.08921082916666023
        },
        {
            "name": "D#4",
            "midi": 63,
            "time": 89.42073699999959,
            "velocity": 0.4015748031496063,
            "duration": 0.08921082916666023
        },
        {
            "name": "G#4",
            "midi": 68,
            "time": 89.51069749999958,
            "velocity": 0.3779527559055118,
            "duration": 0.08921082916666023
        },
        {
            "name": "B3",
            "midi": 59,
            "time": 89.60065799999957,
            "velocity": 0.4094488188976378,
            "duration": 0.08921082916666023
        },
        {
            "name": "G#4",
            "midi": 68,
            "time": 89.69061849999956,
            "velocity": 0.41732283464566927,
            "duration": 0.08921082916666023
        },
        {
            "name": "D#4",
            "midi": 63,
            "time": 89.78057899999955,
            "velocity": 0.4251968503937008,
            "duration": 0.08921082916666023
        },
        {
            "name": "G#4",
            "midi": 68,
            "time": 89.87053949999954,
            "velocity": 0.4015748031496063,
            "duration": 0.08921082916666023
        },
        {
            "name": "B3",
            "midi": 59,
            "time": 89.96049999999953,
            "velocity": 0.44881889763779526,
            "duration": 0.08921082916666023
        },
        {
            "name": "G#4",
            "midi": 68,
            "time": 90.05046049999952,
            "velocity": 0.44881889763779526,
            "duration": 0.08921082916666023
        },
        {
            "name": "D#4",
            "midi": 63,
            "time": 90.1404209999995,
            "velocity": 0.4566929133858268,
            "duration": 0.08921082916666023
        },
        {
            "name": "G#4",
            "midi": 68,
            "time": 90.2303814999995,
            "velocity": 0.4094488188976378,
            "duration": 0.08921082916666023
        },
        {
            "name": "B3",
            "midi": 59,
            "time": 90.32034199999948,
            "velocity": 0.48031496062992124,
            "duration": 0.08921082916666023
        },
        {
            "name": "G#4",
            "midi": 68,
            "time": 90.41030249999947,
            "velocity": 0.4881889763779528,
            "duration": 0.08921082916666023
        },
        {
            "name": "D#4",
            "midi": 63,
            "time": 90.50026299999946,
            "velocity": 0.4881889763779528,
            "duration": 0.08921082916666023
        },
        {
            "name": "G#4",
            "midi": 68,
            "time": 90.59022349999945,
            "velocity": 0.44881889763779526,
            "duration": 0.08921082916666023
        },
        {
            "name": "C4",
            "midi": 60,
            "time": 90.68018399999944,
            "velocity": 0.5196850393700787,
            "duration": 0.08921082916666023
        },
        {
            "name": "F#4",
            "midi": 66,
            "time": 90.77014449999943,
            "velocity": 0.5275590551181102,
            "duration": 0.08921082916666023
        },
        {
            "name": "D#4",
            "midi": 63,
            "time": 90.86010499999942,
            "velocity": 0.5354330708661418,
            "duration": 0.08921082916666023
        },
        {
            "name": "F#4",
            "midi": 66,
            "time": 90.95006549999941,
            "velocity": 0.4881889763779528,
            "duration": 0.08921082916666023
        },
        {
            "name": "C4",
            "midi": 60,
            "time": 91.0400259999994,
            "velocity": 0.5433070866141733,
            "duration": 0.08921082916666023
        },
        {
            "name": "F#4",
            "midi": 66,
            "time": 91.12998649999939,
            "velocity": 0.5511811023622047,
            "duration": 0.08921082916666023
        },
        {
            "name": "D#4",
            "midi": 63,
            "time": 91.21994699999938,
            "velocity": 0.5590551181102362,
            "duration": 0.08921082916666023
        },
        {
            "name": "F#4",
            "midi": 66,
            "time": 91.30990749999937,
            "velocity": 0.5354330708661418,
            "duration": 0.08921082916666023
        },
        {
            "name": "C4",
            "midi": 60,
            "time": 91.39986799999936,
            "velocity": 0.5748031496062992,
            "duration": 0.08921082916666023
        },
        {
            "name": "F#4",
            "midi": 66,
            "time": 91.48982849999935,
            "velocity": 0.5826771653543307,
            "duration": 0.08921082916666023
        },
        {
            "name": "D#4",
            "midi": 63,
            "time": 91.57978899999934,
            "velocity": 0.5905511811023622,
            "duration": 0.08921082916666023
        },
        {
            "name": "F#4",
            "midi": 66,
            "time": 91.66974949999933,
            "velocity": 0.5984251968503937,
            "duration": 0.08921082916666023
        },
        {
            "name": "C4",
            "midi": 60,
            "time": 91.75970999999932,
            "velocity": 0.6141732283464567,
            "duration": 0.08921082916666023
        },
        {
            "name": "F#4",
            "midi": 66,
            "time": 91.8496704999993,
            "velocity": 0.6220472440944882,
            "duration": 0.08921082916666023
        },
        {
            "name": "D#4",
            "midi": 63,
            "time": 91.9396309999993,
            "velocity": 0.6220472440944882,
            "duration": 0.08921082916666023
        },
        {
            "name": "F#4",
            "midi": 66,
            "time": 92.02959149999928,
            "velocity": 0.5748031496062992,
            "duration": 0.08921082916666023
        },
        {
            "name": "E3",
            "midi": 52,
            "time": 92.11955199999927,
            "velocity": 0.5433070866141733,
            "duration": 0.08996050000000366
        },
        {
            "name": "G#3",
            "midi": 56,
            "time": 92.11955199999927,
            "velocity": 0.5433070866141733,
            "duration": 0.08996050000000366
        },
        {
            "name": "C#4",
            "midi": 61,
            "time": 92.11955199999927,
            "velocity": 0.6456692913385826,
            "duration": 0.08996050000000366
        },
        {
            "name": "E4",
            "midi": 64,
            "time": 92.11955199999927,
            "velocity": 0.6456692913385826,
            "duration": 0.08996050000000366
        },
        {
            "name": "G#2",
            "midi": 44,
            "time": 92.20951249999928,
            "velocity": 0.4251968503937008,
            "duration": 0.08621214583332915
        },
        {
            "name": "C#3",
            "midi": 49,
            "time": 92.29947299999927,
            "velocity": 0.4409448818897638,
            "duration": 0.10495391666667331
        },
        {
            "name": "E3",
            "midi": 52,
            "time": 92.38943349999927,
            "velocity": 0.44881889763779526,
            "duration": 0.10495391666667331
        },
        {
            "name": "G#3",
            "midi": 56,
            "time": 92.47939399999927,
            "velocity": 0.4645669291338583,
            "duration": 0.10495391666667331
        },
        {
            "name": "C#3",
            "midi": 49,
            "time": 92.56935449999928,
            "velocity": 0.4251968503937008,
            "duration": 0.10495391666667331
        },
        {
            "name": "E3",
            "midi": 52,
            "time": 92.65931499999928,
            "velocity": 0.4409448818897638,
            "duration": 0.10495391666667331
        },
        {
            "name": "G#3",
            "midi": 56,
            "time": 92.74927549999929,
            "velocity": 0.4409448818897638,
            "duration": 0.10495391666667331
        },
        {
            "name": "C#4",
            "midi": 61,
            "time": 92.83923599999929,
            "velocity": 0.44881889763779526,
            "duration": 0.10495391666667331
        },
        {
            "name": "E3",
            "midi": 52,
            "time": 92.92919649999929,
            "velocity": 0.4015748031496063,
            "duration": 0.10495391666667331
        },
        {
            "name": "G#3",
            "midi": 56,
            "time": 93.0191569999993,
            "velocity": 0.41732283464566927,
            "duration": 0.10495391666667331
        },
        {
            "name": "C#4",
            "midi": 61,
            "time": 93.1091174999993,
            "velocity": 0.4251968503937008,
            "duration": 0.10495391666667331
        },
        {
            "name": "E4",
            "midi": 64,
            "time": 93.1990779999993,
            "velocity": 0.4409448818897638,
            "duration": 0.10495391666667331
        },
        {
            "name": "G#3",
            "midi": 56,
            "time": 93.28903849999931,
            "velocity": 0.4094488188976378,
            "duration": 0.10495391666667331
        },
        {
            "name": "C#4",
            "midi": 61,
            "time": 93.37899899999931,
            "velocity": 0.41732283464566927,
            "duration": 0.10495391666667331
        },
        {
            "name": "E4",
            "midi": 64,
            "time": 93.46895949999931,
            "velocity": 0.4409448818897638,
            "duration": 0.10495391666667331
        },
        {
            "name": "G#4",
            "midi": 68,
            "time": 93.55891999999932,
            "velocity": 0.44881889763779526,
            "duration": 0.10495391666667331
        },
        {
            "name": "C#4",
            "midi": 61,
            "time": 93.64888049999932,
            "velocity": 0.4094488188976378,
            "duration": 0.10495391666667331
        },
        {
            "name": "E4",
            "midi": 64,
            "time": 93.73884099999933,
            "velocity": 0.41732283464566927,
            "duration": 0.10495391666667331
        },
        {
            "name": "G#4",
            "midi": 68,
            "time": 93.82880149999933,
            "velocity": 0.4409448818897638,
            "duration": 0.10495391666667331
        },
        {
            "name": "C#5",
            "midi": 73,
            "time": 93.91876199999933,
            "velocity": 0.44881889763779526,
            "duration": 0.10495391666667331
        },
        {
            "name": "E4",
            "midi": 64,
            "time": 94.00872249999934,
            "velocity": 0.4094488188976378,
            "duration": 0.10495391666667331
        },
        {
            "name": "G#4",
            "midi": 68,
            "time": 94.09868299999934,
            "velocity": 0.41732283464566927,
            "duration": 0.10495391666667331
        },
        {
            "name": "C#5",
            "midi": 73,
            "time": 94.18864349999934,
            "velocity": 0.4409448818897638,
            "duration": 0.10495391666667331
        },
        {
            "name": "E5",
            "midi": 76,
            "time": 94.27860399999935,
            "velocity": 0.4409448818897638,
            "duration": 0.10495391666667331
        },
        {
            "name": "G#4",
            "midi": 68,
            "time": 94.36856449999935,
            "velocity": 0.4094488188976378,
            "duration": 0.10495391666667331
        },
        {
            "name": "C#5",
            "midi": 73,
            "time": 94.45852499999936,
            "velocity": 0.4409448818897638,
            "duration": 0.10495391666667331
        },
        {
            "name": "E5",
            "midi": 76,
            "time": 94.54848549999936,
            "velocity": 0.44881889763779526,
            "duration": 0.08996050000000366
        },
        {
            "name": "E5",
            "midi": 76,
            "time": 94.63844599999936,
            "velocity": 0.7401574803149606,
            "duration": 0.08996050000000366
        },
        {
            "name": "G#5",
            "midi": 80,
            "time": 94.63844599999936,
            "velocity": 0.7401574803149606,
            "duration": 0.08996050000000366
        },
        {
            "name": "C#5",
            "midi": 73,
            "time": 94.63844599999936,
            "velocity": 0.6220472440944882,
            "duration": 0.08996050000000366
        },
        {
            "name": "G#4",
            "midi": 68,
            "time": 94.63844599999936,
            "velocity": 0.6220472440944882,
            "duration": 0.08996050000000366
        },
        {
            "name": "G#4",
            "midi": 68,
            "time": 94.81836699999937,
            "velocity": 0.5275590551181102,
            "duration": 0.08996050000000366
        },
        {
            "name": "G#5",
            "midi": 80,
            "time": 94.81836699999937,
            "velocity": 0.6220472440944882,
            "duration": 0.08996050000000366
        },
        {
            "name": "C#5",
            "midi": 73,
            "time": 94.81836699999937,
            "velocity": 0.5275590551181102,
            "duration": 0.08996050000000366
        },
        {
            "name": "E5",
            "midi": 76,
            "time": 94.81836699999937,
            "velocity": 0.6220472440944882,
            "duration": 0.08996050000000366
        },
        {
            "name": "G#2",
            "midi": 44,
            "time": 95.08824849999937,
            "velocity": 0.3779527559055118,
            "duration": 0.08621214583332915
        },
        {
            "name": "C3",
            "midi": 48,
            "time": 95.17820899999936,
            "velocity": 0.3937007874015748,
            "duration": 0.10495391666667331
        },
        {
            "name": "D#3",
            "midi": 51,
            "time": 95.26816949999936,
            "velocity": 0.4015748031496063,
            "duration": 0.10495391666667331
        },
        {
            "name": "G#3",
            "midi": 56,
            "time": 95.35812999999936,
            "velocity": 0.4094488188976378,
            "duration": 0.10495391666667331
        },
        {
            "name": "C3",
            "midi": 48,
            "time": 95.44809049999937,
            "velocity": 0.3779527559055118,
            "duration": 0.10495391666667331
        },
        {
            "name": "D#3",
            "midi": 51,
            "time": 95.53805099999937,
            "velocity": 0.3858267716535433,
            "duration": 0.10495391666667331
        },
        {
            "name": "G#3",
            "midi": 56,
            "time": 95.62801149999937,
            "velocity": 0.4015748031496063,
            "duration": 0.10495391666667331
        },
        {
            "name": "C4",
            "midi": 60,
            "time": 95.71797199999938,
            "velocity": 0.41732283464566927,
            "duration": 0.10495391666667331
        },
        {
            "name": "D#3",
            "midi": 51,
            "time": 95.80793249999938,
            "velocity": 0.3700787401574803,
            "duration": 0.10495391666667331
        },
        {
            "name": "G#3",
            "midi": 56,
            "time": 95.89789299999939,
            "velocity": 0.3858267716535433,
            "duration": 0.10495391666667331
        },
        {
            "name": "C4",
            "midi": 60,
            "time": 95.98785349999939,
            "velocity": 0.4015748031496063,
            "duration": 0.10495391666667331
        },
        {
            "name": "D#4",
            "midi": 63,
            "time": 96.07781399999939,
            "velocity": 0.4015748031496063,
            "duration": 0.10495391666667331
        },
        {
            "name": "G#3",
            "midi": 56,
            "time": 96.1677744999994,
            "velocity": 0.3779527559055118,
            "duration": 0.10495391666667331
        },
        {
            "name": "C4",
            "midi": 60,
            "time": 96.2577349999994,
            "velocity": 0.4015748031496063,
            "duration": 0.10495391666667331
        },
        {
            "name": "D#4",
            "midi": 63,
            "time": 96.3476954999994,
            "velocity": 0.4094488188976378,
            "duration": 0.10495391666667331
        },
        {
            "name": "G#4",
            "midi": 68,
            "time": 96.43765599999941,
            "velocity": 0.41732283464566927,
            "duration": 0.10495391666667331
        },
        {
            "name": "C4",
            "midi": 60,
            "time": 96.52761649999941,
            "velocity": 0.3779527559055118,
            "duration": 0.10495391666667331
        },
        {
            "name": "D#4",
            "midi": 63,
            "time": 96.61757699999941,
            "velocity": 0.3858267716535433,
            "duration": 0.10495391666667331
        },
        {
            "name": "G#4",
            "midi": 68,
            "time": 96.70753749999942,
            "velocity": 0.4015748031496063,
            "duration": 0.10495391666667331
        },
        {
            "name": "C5",
            "midi": 72,
            "time": 96.79749799999942,
            "velocity": 0.4015748031496063,
            "duration": 0.10495391666667331
        },
        {
            "name": "D#4",
            "midi": 63,
            "time": 96.88745849999943,
            "velocity": 0.3779527559055118,
            "duration": 0.10495391666667331
        },
        {
            "name": "G#4",
            "midi": 68,
            "time": 96.97741899999943,
            "velocity": 0.3937007874015748,
            "duration": 0.10495391666667331
        },
        {
            "name": "C5",
            "midi": 72,
            "time": 97.06737949999943,
            "velocity": 0.4015748031496063,
            "duration": 0.10495391666667331
        },
        {
            "name": "D#5",
            "midi": 75,
            "time": 97.15733999999944,
            "velocity": 0.4094488188976378,
            "duration": 0.10495391666667331
        },
        {
            "name": "G#4",
            "midi": 68,
            "time": 97.24730049999944,
            "velocity": 0.4015748031496063,
            "duration": 0.10495391666667331
        },
        {
            "name": "C5",
            "midi": 72,
            "time": 97.33726099999944,
            "velocity": 0.4094488188976378,
            "duration": 0.10495391666667331
        },
        {
            "name": "D#5",
            "midi": 75,
            "time": 97.42722149999945,
            "velocity": 0.4409448818897638,
            "duration": 0.08996050000000366
        },
        {
            "name": "G#4",
            "midi": 68,
            "time": 97.51718199999945,
            "velocity": 0.6220472440944882,
            "duration": 0.08996050000000366
        },
        {
            "name": "C5",
            "midi": 72,
            "time": 97.51718199999945,
            "velocity": 0.6220472440944882,
            "duration": 0.08996050000000366
        },
        {
            "name": "D#5",
            "midi": 75,
            "time": 97.51718199999945,
            "velocity": 0.7401574803149606,
            "duration": 0.08996050000000366
        },
        {
            "name": "G#5",
            "midi": 80,
            "time": 97.51718199999945,
            "velocity": 0.7401574803149606,
            "duration": 0.08996050000000366
        },
        {
            "name": "G#4",
            "midi": 68,
            "time": 97.69710299999946,
            "velocity": 0.5196850393700787,
            "duration": 0.08996050000000366
        },
        {
            "name": "C5",
            "midi": 72,
            "time": 97.69710299999946,
            "velocity": 0.5196850393700787,
            "duration": 0.08996050000000366
        },
        {
            "name": "D#5",
            "midi": 75,
            "time": 97.69710299999946,
            "velocity": 0.6141732283464567,
            "duration": 0.08996050000000366
        },
        {
            "name": "G#5",
            "midi": 80,
            "time": 97.69710299999946,
            "velocity": 0.6141732283464567,
            "duration": 0.08996050000000366
        },
        {
            "name": "C#3",
            "midi": 49,
            "time": 97.96698449999946,
            "velocity": 0.49606299212598426,
            "duration": 0.10495391666667331
        },
        {
            "name": "F3",
            "midi": 53,
            "time": 98.05694499999946,
            "velocity": 0.5196850393700787,
            "duration": 0.10495391666667331
        },
        {
            "name": "G#3",
            "midi": 56,
            "time": 98.14690549999946,
            "velocity": 0.49606299212598426,
            "duration": 0.10495391666667331
        },
        {
            "name": "C#4",
            "midi": 61,
            "time": 98.23686599999947,
            "velocity": 0.5354330708661418,
            "duration": 0.10495391666667331
        },
        {
            "name": "F3",
            "midi": 53,
            "time": 98.32682649999947,
            "velocity": 0.4881889763779528,
            "duration": 0.10495391666667331
        },
        {
            "name": "G#3",
            "midi": 56,
            "time": 98.41678699999947,
            "velocity": 0.49606299212598426,
            "duration": 0.10495391666667331
        },
        {
            "name": "C#4",
            "midi": 61,
            "time": 98.50674749999948,
            "velocity": 0.4881889763779528,
            "duration": 0.10495391666667331
        },
        {
            "name": "F4",
            "midi": 65,
            "time": 98.59670799999948,
            "velocity": 0.5354330708661418,
            "duration": 0.10495391666667331
        },
        {
            "name": "G#3",
            "midi": 56,
            "time": 98.68666849999948,
            "velocity": 0.4881889763779528,
            "duration": 0.10495391666667331
        },
        {
            "name": "C#4",
            "midi": 61,
            "time": 98.77662899999949,
            "velocity": 0.49606299212598426,
            "duration": 0.10495391666667331
        },
        {
            "name": "F4",
            "midi": 65,
            "time": 98.86658949999949,
            "velocity": 0.5118110236220472,
            "duration": 0.10495391666667331
        },
        {
            "name": "G#4",
            "midi": 68,
            "time": 98.9565499999995,
            "velocity": 0.5354330708661418,
            "duration": 0.10495391666667331
        },
        {
            "name": "C#4",
            "midi": 61,
            "time": 99.0465104999995,
            "velocity": 0.4881889763779528,
            "duration": 0.10495391666667331
        },
        {
            "name": "F4",
            "midi": 65,
            "time": 99.1364709999995,
            "velocity": 0.5118110236220472,
            "duration": 0.10495391666667331
        },
        {
            "name": "G#4",
            "midi": 68,
            "time": 99.2264314999995,
            "velocity": 0.4881889763779528,
            "duration": 0.10495391666667331
        },
        {
            "name": "C#5",
            "midi": 73,
            "time": 99.31639199999951,
            "velocity": 0.5354330708661418,
            "duration": 0.10495391666667331
        },
        {
            "name": "F4",
            "midi": 65,
            "time": 99.40635249999951,
            "velocity": 0.48031496062992124,
            "duration": 0.10495391666667331
        },
        {
            "name": "G#4",
            "midi": 68,
            "time": 99.49631299999952,
            "velocity": 0.4881889763779528,
            "duration": 0.10495391666667331
        },
        {
            "name": "C#5",
            "midi": 73,
            "time": 99.58627349999952,
            "velocity": 0.4881889763779528,
            "duration": 0.10495391666667331
        },
        {
            "name": "F5",
            "midi": 77,
            "time": 99.67623399999952,
            "velocity": 0.5354330708661418,
            "duration": 0.10495391666667331
        },
        {
            "name": "G#4",
            "midi": 68,
            "time": 99.76619449999953,
            "velocity": 0.49606299212598426,
            "duration": 0.10495391666667331
        },
        {
            "name": "C#5",
            "midi": 73,
            "time": 99.85615499999953,
            "velocity": 0.5196850393700787,
            "duration": 0.10495391666667331
        },
        {
            "name": "F5",
            "midi": 77,
            "time": 99.94611549999954,
            "velocity": 0.5118110236220472,
            "duration": 0.10495391666667331
        },
        {
            "name": "G#5",
            "midi": 80,
            "time": 100.03607599999954,
            "velocity": 0.5433070866141733,
            "duration": 0.10495391666667331
        },
        {
            "name": "C#5",
            "midi": 73,
            "time": 100.12603649999954,
            "velocity": 0.49606299212598426,
            "duration": 0.10495391666667331
        },
        {
            "name": "F5",
            "midi": 77,
            "time": 100.21599699999955,
            "velocity": 0.5354330708661418,
            "duration": 0.10495391666667331
        },
        {
            "name": "G#5",
            "midi": 80,
            "time": 100.30595749999955,
            "velocity": 0.5354330708661418,
            "duration": 0.08996050000000366
        },
        {
            "name": "F5",
            "midi": 77,
            "time": 100.39591799999955,
            "velocity": 0.6850393700787402,
            "duration": 0.08996050000000366
        },
        {
            "name": "G#5",
            "midi": 80,
            "time": 100.39591799999955,
            "velocity": 0.8110236220472441,
            "duration": 0.08996050000000366
        },
        {
            "name": "C#5",
            "midi": 73,
            "time": 100.39591799999955,
            "velocity": 0.6850393700787402,
            "duration": 0.08996050000000366
        },
        {
            "name": "C#6",
            "midi": 85,
            "time": 100.39591799999955,
            "velocity": 0.8110236220472441,
            "duration": 0.08996050000000366
        },
        {
            "name": "F5",
            "midi": 77,
            "time": 100.57583899999956,
            "velocity": 0.6062992125984252,
            "duration": 0.08996050000000366
        },
        {
            "name": "C#5",
            "midi": 73,
            "time": 100.57583899999956,
            "velocity": 0.6062992125984252,
            "duration": 0.08996050000000366
        },
        {
            "name": "G#5",
            "midi": 80,
            "time": 100.57583899999956,
            "velocity": 0.7086614173228346,
            "duration": 0.08996050000000366
        },
        {
            "name": "C#6",
            "midi": 85,
            "time": 100.57583899999956,
            "velocity": 0.7086614173228346,
            "duration": 0.08996050000000366
        },
        {
            "name": "C#3",
            "midi": 49,
            "time": 100.84572049999956,
            "velocity": 0.48031496062992124,
            "duration": 0.10495391666667331
        },
        {
            "name": "F#3",
            "midi": 54,
            "time": 100.93568099999956,
            "velocity": 0.49606299212598426,
            "duration": 0.10495391666667331
        },
        {
            "name": "A3",
            "midi": 57,
            "time": 101.02564149999957,
            "velocity": 0.4881889763779528,
            "duration": 0.10495391666667331
        },
        {
            "name": "C#4",
            "midi": 61,
            "time": 101.11560199999957,
            "velocity": 0.5433070866141733,
            "duration": 0.04498025000000894
        },
        {
            "name": "C#4",
            "midi": 61,
            "time": 101.20556249999957,
            "velocity": 0.5669291338582677,
            "duration": 0.10495391666667331
        },
        {
            "name": "F#4",
            "midi": 66,
            "time": 101.29552299999958,
            "velocity": 0.5984251968503937,
            "duration": 0.10495391666667331
        },
        {
            "name": "A4",
            "midi": 69,
            "time": 101.38548349999958,
            "velocity": 0.5984251968503937,
            "duration": 0.10495391666667331
        },
        {
            "name": "C#5",
            "midi": 73,
            "time": 101.47544399999958,
            "velocity": 0.6220472440944882,
            "duration": 0.04498025000000894
        },
        {
            "name": "C#5",
            "midi": 73,
            "time": 101.56540449999959,
            "velocity": 0.6535433070866141,
            "duration": 0.10495391666667331
        },
        {
            "name": "F#5",
            "midi": 78,
            "time": 101.65536499999959,
            "velocity": 0.6614173228346457,
            "duration": 0.10495391666667331
        },
        {
            "name": "A5",
            "midi": 81,
            "time": 101.7453254999996,
            "velocity": 0.6299212598425197,
            "duration": 0.10495391666667331
        },
        {
            "name": "F#5",
            "midi": 78,
            "time": 101.8352859999996,
            "velocity": 0.8031496062992126,
            "duration": 0.08996050000000366
        },
        {
            "name": "C#5",
            "midi": 73,
            "time": 101.8352859999996,
            "velocity": 0.6771653543307087,
            "duration": 0.08996050000000366
        },
        {
            "name": "C#6",
            "midi": 85,
            "time": 101.8352859999996,
            "velocity": 0.8031496062992126,
            "duration": 0.08996050000000366
        },
        {
            "name": "C#5",
            "midi": 73,
            "time": 102.0152069999996,
            "velocity": 0.6692913385826772,
            "duration": 0.08996050000000366
        },
        {
            "name": "F#5",
            "midi": 78,
            "time": 102.0152069999996,
            "velocity": 0.7952755905511811,
            "duration": 0.08996050000000366
        },
        {
            "name": "C#6",
            "midi": 85,
            "time": 102.0152069999996,
            "velocity": 0.7952755905511811,
            "duration": 0.08996050000000366
        },
        {
            "name": "C#3",
            "midi": 49,
            "time": 102.2850884999996,
            "velocity": 0.5905511811023622,
            "duration": 0.10495391666667331
        },
        {
            "name": "E3",
            "midi": 52,
            "time": 102.3750489999996,
            "velocity": 0.6062992125984252,
            "duration": 0.10495391666667331
        },
        {
            "name": "G3",
            "midi": 55,
            "time": 102.46500949999961,
            "velocity": 0.5905511811023622,
            "duration": 0.10495391666667331
        },
        {
            "name": "C#4",
            "midi": 61,
            "time": 102.55496999999961,
            "velocity": 0.6299212598425197,
            "duration": 0.04498025000000894
        },
        {
            "name": "C#4",
            "midi": 61,
            "time": 102.64493049999962,
            "velocity": 0.5984251968503937,
            "duration": 0.10495391666667331
        },
        {
            "name": "E4",
            "midi": 64,
            "time": 102.73489099999962,
            "velocity": 0.6220472440944882,
            "duration": 0.10495391666667331
        },
        {
            "name": "G4",
            "midi": 67,
            "time": 102.82485149999962,
            "velocity": 0.6062992125984252,
            "duration": 0.10495391666667331
        },
        {
            "name": "C#5",
            "midi": 73,
            "time": 102.91481199999963,
            "velocity": 0.6377952755905512,
            "duration": 0.04498025000000894
        },
        {
            "name": "C#5",
            "midi": 73,
            "time": 103.00477249999963,
            "velocity": 0.6220472440944882,
            "duration": 0.10495391666667331
        },
        {
            "name": "E5",
            "midi": 76,
            "time": 103.09473299999964,
            "velocity": 0.6299212598425197,
            "duration": 0.10495391666667331
        },
        {
            "name": "G5",
            "midi": 79,
            "time": 103.18469349999964,
            "velocity": 0.6299212598425197,
            "duration": 0.08996050000000366
        },
        {
            "name": "G5",
            "midi": 79,
            "time": 103.27465399999964,
            "velocity": 0.8503937007874016,
            "duration": 0.08996050000000366
        },
        {
            "name": "C#5",
            "midi": 73,
            "time": 103.27465399999964,
            "velocity": 0.7086614173228346,
            "duration": 0.08996050000000366
        },
        {
            "name": "C#6",
            "midi": 85,
            "time": 103.27465399999964,
            "velocity": 0.8503937007874016,
            "duration": 0.08996050000000366
        },
        {
            "name": "C#6",
            "midi": 85,
            "time": 103.45457499999965,
            "velocity": 0.8503937007874016,
            "duration": 0.08996050000000366
        },
        {
            "name": "C#5",
            "midi": 73,
            "time": 103.45457499999965,
            "velocity": 0.7086614173228346,
            "duration": 0.08996050000000366
        },
        {
            "name": "G5",
            "midi": 79,
            "time": 103.45457499999965,
            "velocity": 0.8503937007874016,
            "duration": 0.08996050000000366
        },
        {
            "name": "C6",
            "midi": 84,
            "time": 103.63449599999966,
            "velocity": 0.8503937007874016,
            "duration": 0.17992099999999311
        },
        {
            "name": "G#5",
            "midi": 80,
            "time": 103.63449599999966,
            "velocity": 0.8503937007874016,
            "duration": 0.17992099999999311
        },
        {
            "name": "C5",
            "midi": 72,
            "time": 103.63449599999966,
            "velocity": 0.7086614173228346,
            "duration": 0.17992099999999311
        },
        {
            "name": "G#4",
            "midi": 68,
            "time": 103.81441699999965,
            "velocity": 0.5826771653543307,
            "duration": 0.08996050000000366
        },
        {
            "name": "G#5",
            "midi": 80,
            "time": 103.90437749999965,
            "velocity": 0.4566929133858268,
            "duration": 0.08996050000000366
        },
        {
            "name": "G#4",
            "midi": 68,
            "time": 103.99433799999966,
            "velocity": 0.5905511811023622,
            "duration": 0.08996050000000366
        },
        {
            "name": "G#5",
            "midi": 80,
            "time": 104.08429849999966,
            "velocity": 0.47244094488188976,
            "duration": 0.08996050000000366
        },
        {
            "name": "A#4",
            "midi": 70,
            "time": 104.17425899999967,
            "velocity": 0.5984251968503937,
            "duration": 0.08996050000000366
        },
        {
            "name": "G#5",
            "midi": 80,
            "time": 104.26421949999967,
            "velocity": 0.47244094488188976,
            "duration": 0.08996050000000366
        },
        {
            "name": "C5",
            "midi": 72,
            "time": 104.35417999999967,
            "velocity": 0.5984251968503937,
            "duration": 0.08996050000000366
        },
        {
            "name": "G#5",
            "midi": 80,
            "time": 104.44414049999968,
            "velocity": 0.48031496062992124,
            "duration": 0.08996050000000366
        },
        {
            "name": "C#5",
            "midi": 73,
            "time": 104.53410099999968,
            "velocity": 0.6141732283464567,
            "duration": 0.08996050000000366
        },
        {
            "name": "G#5",
            "midi": 80,
            "time": 104.62406149999968,
            "velocity": 0.4881889763779528,
            "duration": 0.08996050000000366
        },
        {
            "name": "D#5",
            "midi": 75,
            "time": 104.71402199999969,
            "velocity": 0.6220472440944882,
            "duration": 0.08996050000000366
        },
        {
            "name": "G#5",
            "midi": 80,
            "time": 104.80398249999969,
            "velocity": 0.4881889763779528,
            "duration": 0.08996050000000366
        },
        {
            "name": "C5",
            "midi": 72,
            "time": 104.8939429999997,
            "velocity": 0.6220472440944882,
            "duration": 0.08996050000000366
        },
        {
            "name": "G#5",
            "midi": 80,
            "time": 104.9839034999997,
            "velocity": 0.4881889763779528,
            "duration": 0.08996050000000366
        },
        {
            "name": "D#5",
            "midi": 75,
            "time": 105.0738639999997,
            "velocity": 0.6299212598425197,
            "duration": 0.08996050000000366
        },
        {
            "name": "G#5",
            "midi": 80,
            "time": 105.1638244999997,
            "velocity": 0.4881889763779528,
            "duration": 0.08996050000000366
        },
        {
            "name": "C#5",
            "midi": 73,
            "time": 105.25378499999971,
            "velocity": 0.6299212598425197,
            "duration": 0.08996050000000366
        },
        {
            "name": "G#5",
            "midi": 80,
            "time": 105.34374549999971,
            "velocity": 0.4881889763779528,
            "duration": 0.08996050000000366
        },
        {
            "name": "F#5",
            "midi": 78,
            "time": 105.43370599999972,
            "velocity": 0.6614173228346457,
            "duration": 0.08996050000000366
        },
        {
            "name": "G#5",
            "midi": 80,
            "time": 105.52366649999972,
            "velocity": 0.4881889763779528,
            "duration": 0.08996050000000366
        },
        {
            "name": "E5",
            "midi": 76,
            "time": 105.61362699999972,
            "velocity": 0.6299212598425197,
            "duration": 0.08996050000000366
        },
        {
            "name": "G#5",
            "midi": 80,
            "time": 105.70358749999973,
            "velocity": 0.4881889763779528,
            "duration": 0.08996050000000366
        },
        {
            "name": "D#5",
            "midi": 75,
            "time": 105.79354799999973,
            "velocity": 0.6299212598425197,
            "duration": 0.08996050000000366
        },
        {
            "name": "G#5",
            "midi": 80,
            "time": 105.88350849999973,
            "velocity": 0.4881889763779528,
            "duration": 0.08996050000000366
        },
        {
            "name": "C#5",
            "midi": 73,
            "time": 105.97346899999974,
            "velocity": 0.6220472440944882,
            "duration": 0.08996050000000366
        },
        {
            "name": "G#5",
            "midi": 80,
            "time": 106.06342949999974,
            "velocity": 0.4881889763779528,
            "duration": 0.08996050000000366
        },
        {
            "name": "C5",
            "midi": 72,
            "time": 106.15338999999975,
            "velocity": 0.6220472440944882,
            "duration": 0.08996050000000366
        },
        {
            "name": "G#5",
            "midi": 80,
            "time": 106.24335049999975,
            "velocity": 0.4881889763779528,
            "duration": 0.08996050000000366
        },
        {
            "name": "A4",
            "midi": 69,
            "time": 106.33331099999975,
            "velocity": 0.6062992125984252,
            "duration": 0.08996050000000366
        },
        {
            "name": "G5",
            "midi": 79,
            "time": 106.42327149999976,
            "velocity": 0.48031496062992124,
            "duration": 0.08996050000000366
        },
        {
            "name": "G#4",
            "midi": 68,
            "time": 106.51323199999976,
            "velocity": 0.5984251968503937,
            "duration": 0.08996050000000366
        },
        {
            "name": "G#5",
            "midi": 80,
            "time": 106.60319249999976,
            "velocity": 0.47244094488188976,
            "duration": 0.08996050000000366
        },
        {
            "name": "G#4",
            "midi": 68,
            "time": 106.69315299999977,
            "velocity": 0.5905511811023622,
            "duration": 0.08996050000000366
        },
        {
            "name": "G#5",
            "midi": 80,
            "time": 106.78311349999977,
            "velocity": 0.4645669291338583,
            "duration": 0.08996050000000366
        },
        {
            "name": "G#4",
            "midi": 68,
            "time": 106.87307399999978,
            "velocity": 0.5826771653543307,
            "duration": 0.08996050000000366
        },
        {
            "name": "G#5",
            "midi": 80,
            "time": 106.96303449999978,
            "velocity": 0.4645669291338583,
            "duration": 0.08996050000000366
        },
        {
            "name": "A#4",
            "midi": 70,
            "time": 107.05299499999978,
            "velocity": 0.5826771653543307,
            "duration": 0.08996050000000366
        },
        {
            "name": "G#5",
            "midi": 80,
            "time": 107.14295549999979,
            "velocity": 0.48031496062992124,
            "duration": 0.08996050000000366
        },
        {
            "name": "C5",
            "midi": 72,
            "time": 107.23291599999979,
            "velocity": 0.5984251968503937,
            "duration": 0.08996050000000366
        },
        {
            "name": "G#5",
            "midi": 80,
            "time": 107.3228764999998,
            "velocity": 0.4645669291338583,
            "duration": 0.08996050000000366
        },
        {
            "name": "C#5",
            "midi": 73,
            "time": 107.4128369999998,
            "velocity": 0.5984251968503937,
            "duration": 0.08996050000000366
        },
        {
            "name": "G#5",
            "midi": 80,
            "time": 107.5027974999998,
            "velocity": 0.4881889763779528,
            "duration": 0.08996050000000366
        },
        {
            "name": "D#5",
            "midi": 75,
            "time": 107.5927579999998,
            "velocity": 0.6062992125984252,
            "duration": 0.08996050000000366
        },
        {
            "name": "G#5",
            "midi": 80,
            "time": 107.68271849999981,
            "velocity": 0.48031496062992124,
            "duration": 0.08996050000000366
        },
        {
            "name": "C5",
            "midi": 72,
            "time": 107.77267899999981,
            "velocity": 0.6220472440944882,
            "duration": 0.08996050000000366
        },
        {
            "name": "G#5",
            "midi": 80,
            "time": 107.86263949999982,
            "velocity": 0.4881889763779528,
            "duration": 0.08996050000000366
        },
        {
            "name": "D#5",
            "midi": 75,
            "time": 107.95259999999982,
            "velocity": 0.6220472440944882,
            "duration": 0.08996050000000366
        },
        {
            "name": "G#5",
            "midi": 80,
            "time": 108.04256049999982,
            "velocity": 0.4881889763779528,
            "duration": 0.08996050000000366
        },
        {
            "name": "C#5",
            "midi": 73,
            "time": 108.13252099999983,
            "velocity": 0.6299212598425197,
            "duration": 0.08996050000000366
        },
        {
            "name": "G#5",
            "midi": 80,
            "time": 108.22248149999983,
            "velocity": 0.5118110236220472,
            "duration": 0.08996050000000366
        },
        {
            "name": "F#5",
            "midi": 78,
            "time": 108.31244199999983,
            "velocity": 0.6614173228346457,
            "duration": 0.08996050000000366
        },
        {
            "name": "G#5",
            "midi": 80,
            "time": 108.40240249999984,
            "velocity": 0.5354330708661418,
            "duration": 0.08996050000000366
        },
        {
            "name": "E5",
            "midi": 76,
            "time": 108.49236299999984,
            "velocity": 0.6614173228346457,
            "duration": 0.08996050000000366
        },
        {
            "name": "G#5",
            "midi": 80,
            "time": 108.58232349999984,
            "velocity": 0.5275590551181102,
            "duration": 0.08996050000000366
        },
        {
            "name": "D#5",
            "midi": 75,
            "time": 108.67228399999985,
            "velocity": 0.6614173228346457,
            "duration": 0.08996050000000366
        },
        {
            "name": "G#5",
            "midi": 80,
            "time": 108.76224449999985,
            "velocity": 0.5275590551181102,
            "duration": 0.08996050000000366
        },
        {
            "name": "C#5",
            "midi": 73,
            "time": 108.85220499999986,
            "velocity": 0.6614173228346457,
            "duration": 0.08996050000000366
        },
        {
            "name": "G#5",
            "midi": 80,
            "time": 108.94216549999986,
            "velocity": 0.5196850393700787,
            "duration": 0.08996050000000366
        },
        {
            "name": "C5",
            "midi": 72,
            "time": 109.03212599999986,
            "velocity": 0.6614173228346457,
            "duration": 0.08996050000000366
        },
        {
            "name": "G#5",
            "midi": 80,
            "time": 109.12208649999987,
            "velocity": 0.5275590551181102,
            "duration": 0.08996050000000366
        },
        {
            "name": "A4",
            "midi": 69,
            "time": 109.21204699999987,
            "velocity": 0.6614173228346457,
            "duration": 0.08996050000000366
        },
        {
            "name": "G5",
            "midi": 79,
            "time": 109.30200749999987,
            "velocity": 0.5196850393700787,
            "duration": 0.08996050000000366
        },
        {
            "name": "G#4",
            "midi": 68,
            "time": 109.39196799999988,
            "velocity": 0.6614173228346457,
            "duration": 0.08996050000000366
        },
        {
            "name": "G#5",
            "midi": 80,
            "time": 109.48192849999988,
            "velocity": 0.5196850393700787,
            "duration": 0.08996050000000366
        },
        {
            "name": "A4",
            "midi": 69,
            "time": 109.57188899999989,
            "velocity": 0.6220472440944882,
            "duration": 0.08996050000000366
        },
        {
            "name": "G5",
            "midi": 79,
            "time": 109.66184949999989,
            "velocity": 0.5275590551181102,
            "duration": 0.08996050000000366
        },
        {
            "name": "G#4",
            "midi": 68,
            "time": 109.75180999999989,
            "velocity": 0.6614173228346457,
            "duration": 0.08996050000000366
        },
        {
            "name": "G#5",
            "midi": 80,
            "time": 109.8417704999999,
            "velocity": 0.5196850393700787,
            "duration": 0.08996050000000366
        },
        {
            "name": "A4",
            "midi": 69,
            "time": 109.9317309999999,
            "velocity": 0.6220472440944882,
            "duration": 0.08996050000000366
        },
        {
            "name": "G5",
            "midi": 79,
            "time": 110.0216914999999,
            "velocity": 0.5275590551181102,
            "duration": 0.08996050000000366
        },
        {
            "name": "G#4",
            "midi": 68,
            "time": 110.1116519999999,
            "velocity": 0.6614173228346457,
            "duration": 0.08996050000000366
        },
        {
            "name": "G#5",
            "midi": 80,
            "time": 110.20161249999991,
            "velocity": 0.5196850393700787,
            "duration": 0.08996050000000366
        },
        {
            "name": "A4",
            "midi": 69,
            "time": 110.29157299999991,
            "velocity": 0.6220472440944882,
            "duration": 0.08996050000000366
        },
        {
            "name": "G5",
            "midi": 79,
            "time": 110.38153349999992,
            "velocity": 0.5118110236220472,
            "duration": 0.08996050000000366
        },
        {
            "name": "G#4",
            "midi": 68,
            "time": 110.47149399999992,
            "velocity": 0.6614173228346457,
            "duration": 0.08996050000000366
        },
        {
            "name": "G#5",
            "midi": 80,
            "time": 110.56145449999993,
            "velocity": 0.5196850393700787,
            "duration": 0.08996050000000366
        },
        {
            "name": "A4",
            "midi": 69,
            "time": 110.65141499999993,
            "velocity": 0.6220472440944882,
            "duration": 0.08996050000000366
        },
        {
            "name": "G5",
            "midi": 79,
            "time": 110.74137549999993,
            "velocity": 0.5118110236220472,
            "duration": 0.08996050000000366
        },
        {
            "name": "G#4",
            "midi": 68,
            "time": 110.83133599999994,
            "velocity": 0.6614173228346457,
            "duration": 0.17992099999999311
        },
        {
            "name": "G#5",
            "midi": 80,
            "time": 110.83133599999994,
            "velocity": 0.6614173228346457,
            "duration": 0.17992099999999311
        },
        {
            "name": "G#3",
            "midi": 56,
            "time": 111.19117799999992,
            "velocity": 0.889763779527559,
            "duration": 1.0795260000000013
        },
        {
            "name": "G#2",
            "midi": 44,
            "time": 112.36066449999993,
            "velocity": 0.3700787401574803,
            "duration": 0.08621214583332915
        },
        {
            "name": "C#3",
            "midi": 49,
            "time": 112.45062499999992,
            "velocity": 0.3858267716535433,
            "duration": 0.10495391666667331
        },
        {
            "name": "E3",
            "midi": 52,
            "time": 112.54058549999992,
            "velocity": 0.4015748031496063,
            "duration": 0.10495391666667331
        },
        {
            "name": "G#3",
            "midi": 56,
            "time": 112.63054599999992,
            "velocity": 0.4094488188976378,
            "duration": 0.10495391666667331
        },
        {
            "name": "C#3",
            "midi": 49,
            "time": 112.72050649999993,
            "velocity": 0.3700787401574803,
            "duration": 0.10495391666667331
        },
        {
            "name": "E3",
            "midi": 52,
            "time": 112.81046699999993,
            "velocity": 0.3858267716535433,
            "duration": 0.10495391666667331
        },
        {
            "name": "G#3",
            "midi": 56,
            "time": 112.90042749999994,
            "velocity": 0.4015748031496063,
            "duration": 0.10495391666667331
        },
        {
            "name": "C#4",
            "midi": 61,
            "time": 112.99038799999994,
            "velocity": 0.4094488188976378,
            "duration": 0.10495391666667331
        },
        {
            "name": "E3",
            "midi": 52,
            "time": 113.08034849999994,
            "velocity": 0.3700787401574803,
            "duration": 0.10495391666667331
        },
        {
            "name": "G#3",
            "midi": 56,
            "time": 113.17030899999995,
            "velocity": 0.3858267716535433,
            "duration": 0.10495391666667331
        },
        {
            "name": "C#4",
            "midi": 61,
            "time": 113.26026949999995,
            "velocity": 0.4015748031496063,
            "duration": 0.10495391666667331
        },
        {
            "name": "E4",
            "midi": 64,
            "time": 113.35022999999995,
            "velocity": 0.4094488188976378,
            "duration": 0.10495391666667331
        },
        {
            "name": "G#3",
            "midi": 56,
            "time": 113.44019049999996,
            "velocity": 0.3779527559055118,
            "duration": 0.10495391666667331
        },
        {
            "name": "C#4",
            "midi": 61,
            "time": 113.53015099999996,
            "velocity": 0.3937007874015748,
            "duration": 0.10495391666667331
        },
        {
            "name": "E4",
            "midi": 64,
            "time": 113.62011149999996,
            "velocity": 0.4015748031496063,
            "duration": 0.10495391666667331
        },
        {
            "name": "G#4",
            "midi": 68,
            "time": 113.71007199999997,
            "velocity": 0.4094488188976378,
            "duration": 0.10495391666667331
        },
        {
            "name": "C#4",
            "midi": 61,
            "time": 113.80003249999997,
            "velocity": 0.3700787401574803,
            "duration": 0.10495391666667331
        },
        {
            "name": "E4",
            "midi": 64,
            "time": 113.88999299999998,
            "velocity": 0.3700787401574803,
            "duration": 0.10495391666667331
        },
        {
            "name": "G#4",
            "midi": 68,
            "time": 113.97995349999998,
            "velocity": 0.3937007874015748,
            "duration": 0.10495391666667331
        },
        {
            "name": "C#5",
            "midi": 73,
            "time": 114.06991399999998,
            "velocity": 0.4094488188976378,
            "duration": 0.10495391666667331
        },
        {
            "name": "E4",
            "midi": 64,
            "time": 114.15987449999999,
            "velocity": 0.3700787401574803,
            "duration": 0.10495391666667331
        },
        {
            "name": "G#4",
            "midi": 68,
            "time": 114.24983499999999,
            "velocity": 0.3937007874015748,
            "duration": 0.10495391666667331
        },
        {
            "name": "C#5",
            "midi": 73,
            "time": 114.3397955,
            "velocity": 0.4015748031496063,
            "duration": 0.10495391666667331
        },
        {
            "name": "E5",
            "midi": 76,
            "time": 114.429756,
            "velocity": 0.4251968503937008,
            "duration": 0.08621214583334336
        },
        {
            "name": "E5",
            "midi": 76,
            "time": 114.5197165,
            "velocity": 0.4015748031496063,
            "duration": 0.10495391666667331
        },
        {
            "name": "G#5",
            "midi": 80,
            "time": 114.609677,
            "velocity": 0.4015748031496063,
            "duration": 0.10495391666667331
        },
        {
            "name": "C#6",
            "midi": 85,
            "time": 114.69963750000001,
            "velocity": 0.41732283464566927,
            "duration": 0.08996050000000366
        },
        {
            "name": "E5",
            "midi": 76,
            "time": 114.78959800000001,
            "velocity": 0.7480314960629921,
            "duration": 0.08996050000000366
        },
        {
            "name": "E6",
            "midi": 88,
            "time": 114.78959800000001,
            "velocity": 0.8818897637795275,
            "duration": 0.08996050000000366
        },
        {
            "name": "E5",
            "midi": 76,
            "time": 114.96951900000002,
            "velocity": 0.5826771653543307,
            "duration": 0.08996050000000366
        },
        {
            "name": "E6",
            "midi": 88,
            "time": 114.96951900000002,
            "velocity": 0.6929133858267716,
            "duration": 0.08996050000000366
        },
        {
            "name": "E3",
            "midi": 52,
            "time": 115.23940050000002,
            "velocity": 0.36220472440944884,
            "duration": 0.10495391666667331
        },
        {
            "name": "G3",
            "midi": 55,
            "time": 115.32936100000002,
            "velocity": 0.3779527559055118,
            "duration": 0.10495391666667331
        },
        {
            "name": "C#4",
            "midi": 61,
            "time": 115.41932150000002,
            "velocity": 0.3937007874015748,
            "duration": 0.10495391666667331
        },
        {
            "name": "E4",
            "midi": 64,
            "time": 115.50928200000003,
            "velocity": 0.4015748031496063,
            "duration": 0.10495391666667331
        },
        {
            "name": "G3",
            "midi": 55,
            "time": 115.59924250000003,
            "velocity": 0.3700787401574803,
            "duration": 0.10495391666667331
        },
        {
            "name": "C#4",
            "midi": 61,
            "time": 115.68920300000003,
            "velocity": 0.3858267716535433,
            "duration": 0.10495391666667331
        },
        {
            "name": "E4",
            "midi": 64,
            "time": 115.77916350000004,
            "velocity": 0.4015748031496063,
            "duration": 0.10495391666667331
        },
        {
            "name": "G4",
            "midi": 67,
            "time": 115.86912400000004,
            "velocity": 0.4015748031496063,
            "duration": 0.10495391666667331
        },
        {
            "name": "C#4",
            "midi": 61,
            "time": 115.95908450000005,
            "velocity": 0.3937007874015748,
            "duration": 0.10495391666667331
        },
        {
            "name": "E4",
            "midi": 64,
            "time": 116.04904500000005,
            "velocity": 0.3858267716535433,
            "duration": 0.10495391666667331
        },
        {
            "name": "G4",
            "midi": 67,
            "time": 116.13900550000005,
            "velocity": 0.4015748031496063,
            "duration": 0.10495391666667331
        },
        {
            "name": "C#5",
            "midi": 73,
            "time": 116.22896600000006,
            "velocity": 0.4094488188976378,
            "duration": 0.10495391666667331
        },
        {
            "name": "E4",
            "midi": 64,
            "time": 116.31892650000006,
            "velocity": 0.3700787401574803,
            "duration": 0.10495391666667331
        },
        {
            "name": "G4",
            "midi": 67,
            "time": 116.40888700000006,
            "velocity": 0.3858267716535433,
            "duration": 0.10495391666667331
        },
        {
            "name": "C#5",
            "midi": 73,
            "time": 116.49884750000007,
            "velocity": 0.4015748031496063,
            "duration": 0.10495391666667331
        },
        {
            "name": "E5",
            "midi": 76,
            "time": 116.58880800000007,
            "velocity": 0.4094488188976378,
            "duration": 0.10495391666667331
        },
        {
            "name": "G4",
            "midi": 67,
            "time": 116.67876850000007,
            "velocity": 0.3779527559055118,
            "duration": 0.10495391666667331
        },
        {
            "name": "C#5",
            "midi": 73,
            "time": 116.76872900000008,
            "velocity": 0.3779527559055118,
            "duration": 0.10495391666667331
        },
        {
            "name": "E5",
            "midi": 76,
            "time": 116.85868950000008,
            "velocity": 0.3937007874015748,
            "duration": 0.10495391666667331
        },
        {
            "name": "G5",
            "midi": 79,
            "time": 116.94865000000009,
            "velocity": 0.4094488188976378,
            "duration": 0.10495391666667331
        },
        {
            "name": "C#5",
            "midi": 73,
            "time": 117.03861050000009,
            "velocity": 0.3700787401574803,
            "duration": 0.10495391666667331
        },
        {
            "name": "E5",
            "midi": 76,
            "time": 117.1285710000001,
            "velocity": 0.3937007874015748,
            "duration": 0.10495391666667331
        },
        {
            "name": "G5",
            "midi": 79,
            "time": 117.2185315000001,
            "velocity": 0.4015748031496063,
            "duration": 0.10495391666667331
        },
        {
            "name": "C#6",
            "midi": 85,
            "time": 117.3084920000001,
            "velocity": 0.4251968503937008,
            "duration": 0.10495391666667331
        },
        {
            "name": "E5",
            "midi": 76,
            "time": 117.3984525000001,
            "velocity": 0.4015748031496063,
            "duration": 0.10495391666667331
        },
        {
            "name": "G5",
            "midi": 79,
            "time": 117.48841300000011,
            "velocity": 0.4251968503937008,
            "duration": 0.10495391666667331
        },
        {
            "name": "C#6",
            "midi": 85,
            "time": 117.57837350000011,
            "velocity": 0.44881889763779526,
            "duration": 0.08996050000000366
        },
        {
            "name": "E6",
            "midi": 88,
            "time": 117.66833400000012,
            "velocity": 0.8661417322834646,
            "duration": 0.08996050000000366
        },
        {
            "name": "E5",
            "midi": 76,
            "time": 117.66833400000012,
            "velocity": 0.7322834645669292,
            "duration": 0.08996050000000366
        },
        {
            "name": "E5",
            "midi": 76,
            "time": 117.84825500000012,
            "velocity": 0.5748031496062992,
            "duration": 0.08996050000000366
        },
        {
            "name": "E6",
            "midi": 88,
            "time": 117.84825500000012,
            "velocity": 0.6850393700787402,
            "duration": 0.08996050000000366
        },
        {
            "name": "D#3",
            "midi": 51,
            "time": 118.11813650000012,
            "velocity": 0.3937007874015748,
            "duration": 0.08621214583332915
        },
        {
            "name": "A#3",
            "midi": 58,
            "time": 118.20809700000011,
            "velocity": 0.4015748031496063,
            "duration": 0.10495391666667331
        },
        {
            "name": "C#4",
            "midi": 61,
            "time": 118.29805750000011,
            "velocity": 0.4015748031496063,
            "duration": 0.10495391666667331
        },
        {
            "name": "D#4",
            "midi": 63,
            "time": 118.38801800000012,
            "velocity": 0.4015748031496063,
            "duration": 0.10495391666667331
        },
        {
            "name": "A#3",
            "midi": 58,
            "time": 118.47797850000012,
            "velocity": 0.4094488188976378,
            "duration": 0.10495391666667331
        },
        {
            "name": "C#4",
            "midi": 61,
            "time": 118.56793900000012,
            "velocity": 0.41732283464566927,
            "duration": 0.10495391666667331
        },
        {
            "name": "D#4",
            "midi": 63,
            "time": 118.65789950000013,
            "velocity": 0.4251968503937008,
            "duration": 0.10495391666667331
        },
        {
            "name": "A#4",
            "midi": 70,
            "time": 118.74786000000013,
            "velocity": 0.4409448818897638,
            "duration": 0.10495391666667331
        },
        {
            "name": "C#4",
            "midi": 61,
            "time": 118.83782050000013,
            "velocity": 0.4409448818897638,
            "duration": 0.10495391666667331
        },
        {
            "name": "D#4",
            "midi": 63,
            "time": 118.92778100000014,
            "velocity": 0.44881889763779526,
            "duration": 0.10495391666667331
        },
        {
            "name": "A#4",
            "midi": 70,
            "time": 119.01774150000014,
            "velocity": 0.44881889763779526,
            "duration": 0.10495391666667331
        },
        {
            "name": "C#5",
            "midi": 73,
            "time": 119.10770200000015,
            "velocity": 0.4566929133858268,
            "duration": 0.10495391666667331
        },
        {
            "name": "D#4",
            "midi": 63,
            "time": 119.19766250000015,
            "velocity": 0.4645669291338583,
            "duration": 0.10495391666667331
        },
        {
            "name": "A#4",
            "midi": 70,
            "time": 119.28762300000015,
            "velocity": 0.47244094488188976,
            "duration": 0.10495391666667331
        },
        {
            "name": "C#5",
            "midi": 73,
            "time": 119.37758350000016,
            "velocity": 0.48031496062992124,
            "duration": 0.10495391666667331
        },
        {
            "name": "D#5",
            "midi": 75,
            "time": 119.46754400000016,
            "velocity": 0.4881889763779528,
            "duration": 0.10495391666667331
        },
        {
            "name": "A#4",
            "midi": 70,
            "time": 119.55750450000016,
            "velocity": 0.4881889763779528,
            "duration": 0.10495391666667331
        },
        {
            "name": "C#5",
            "midi": 73,
            "time": 119.64746500000017,
            "velocity": 0.4881889763779528,
            "duration": 0.10495391666667331
        },
        {
            "name": "D#5",
            "midi": 75,
            "time": 119.73742550000017,
            "velocity": 0.4881889763779528,
            "duration": 0.10495391666667331
        },
        {
            "name": "A#5",
            "midi": 82,
            "time": 119.82738600000017,
            "velocity": 0.49606299212598426,
            "duration": 0.10495391666667331
        },
        {
            "name": "C#5",
            "midi": 73,
            "time": 119.91734650000018,
            "velocity": 0.5118110236220472,
            "duration": 0.10495391666667331
        },
        {
            "name": "D#5",
            "midi": 75,
            "time": 120.00730700000018,
            "velocity": 0.5196850393700787,
            "duration": 0.10495391666667331
        },
        {
            "name": "A#5",
            "midi": 82,
            "time": 120.09726750000019,
            "velocity": 0.5275590551181102,
            "duration": 0.10495391666667331
        },
        {
            "name": "C#6",
            "midi": 85,
            "time": 120.18722800000019,
            "velocity": 0.5275590551181102,
            "duration": 0.10495391666667331
        },
        {
            "name": "A#5",
            "midi": 82,
            "time": 120.2771885000002,
            "velocity": 0.5118110236220472,
            "duration": 0.10495391666667331
        },
        {
            "name": "D#5",
            "midi": 75,
            "time": 120.3671490000002,
            "velocity": 0.4881889763779528,
            "duration": 0.10495391666667331
        },
        {
            "name": "C#5",
            "midi": 73,
            "time": 120.4571095000002,
            "velocity": 0.48031496062992124,
            "duration": 0.10495391666667331
        },
        {
            "name": "A#5",
            "midi": 82,
            "time": 120.5470700000002,
            "velocity": 0.4645669291338583,
            "duration": 0.10495391666667331
        },
        {
            "name": "D#5",
            "midi": 75,
            "time": 120.63703050000021,
            "velocity": 0.44881889763779526,
            "duration": 0.10495391666667331
        },
        {
            "name": "C#5",
            "midi": 73,
            "time": 120.72699100000021,
            "velocity": 0.4409448818897638,
            "duration": 0.10495391666667331
        },
        {
            "name": "A#4",
            "midi": 70,
            "time": 120.81695150000021,
            "velocity": 0.4094488188976378,
            "duration": 0.10495391666667331
        },
        {
            "name": "B4",
            "midi": 71,
            "time": 120.90691200000022,
            "velocity": 0.3858267716535433,
            "duration": 0.17992100000000733
        },
        {
            "name": "D#5",
            "midi": 75,
            "time": 121.26675400000022,
            "velocity": 0.48031496062992124,
            "duration": 0.7346774166666705
        },
        {
            "name": "B4",
            "midi": 71,
            "time": 121.98643800000022,
            "velocity": 0.4409448818897638,
            "duration": 0.2698814999999968
        },
        {
            "name": "G#4",
            "midi": 68,
            "time": 122.25631950000022,
            "velocity": 0.4409448818897638,
            "duration": 0.044980249999994726
        },
        {
            "name": "G4",
            "midi": 67,
            "time": 122.30129975000021,
            "velocity": 0.3464566929133858,
            "duration": 0.014993416666669646
        },
        {
            "name": "G#4",
            "midi": 68,
            "time": 122.31629316666688,
            "velocity": 0.3464566929133858,
            "duration": 0.014993416666669646
        },
        {
            "name": "A#4",
            "midi": 70,
            "time": 122.33128658333355,
            "velocity": 0.3464566929133858,
            "duration": 0.014993416666669646
        },
        {
            "name": "G#4",
            "midi": 68,
            "time": 122.34628000000022,
            "velocity": 0.49606299212598426,
            "duration": 0.3748354166666701
        },
        {
            "name": "G4",
            "midi": 67,
            "time": 122.70612200000022,
            "velocity": 0.4409448818897638,
            "duration": 0.5397630000000078
        },
        {
            "name": "G4",
            "midi": 67,
            "time": 123.24588500000023,
            "velocity": 0.4409448818897638,
            "duration": 0.19491441666666276
        },
        {
            "name": "D#5",
            "midi": 75,
            "time": 123.42580600000022,
            "velocity": 0.5354330708661418,
            "duration": 0.2698814999999968
        },
        {
            "name": "G4",
            "midi": 67,
            "time": 123.69568750000022,
            "velocity": 0.44881889763779526,
            "duration": 0.08996050000000366
        },
        {
            "name": "A#4",
            "midi": 70,
            "time": 123.78564800000022,
            "velocity": 0.4015748031496063,
            "duration": 0.3748354166666701
        },
        {
            "name": "G#4",
            "midi": 68,
            "time": 124.14549000000022,
            "velocity": 0.4409448818897638,
            "duration": 0.5397630000000078
        },
        {
            "name": "G#4",
            "midi": 68,
            "time": 124.68525300000023,
            "velocity": 0.41732283464566927,
            "duration": 0.19491441666666276
        },
        {
            "name": "D#5",
            "midi": 75,
            "time": 124.86517400000022,
            "velocity": 0.5354330708661418,
            "duration": 0.2698814999999968
        },
        {
            "name": "G#4",
            "midi": 68,
            "time": 125.13505550000022,
            "velocity": 0.4409448818897638,
            "duration": 0.08996050000000366
        },
        {
            "name": "B4",
            "midi": 71,
            "time": 125.22501600000022,
            "velocity": 0.44881889763779526,
            "duration": 0.3748354166666701
        },
        {
            "name": "A#4",
            "midi": 70,
            "time": 125.58485800000022,
            "velocity": 0.4409448818897638,
            "duration": 0.5397630000000078
        },
        {
            "name": "A#4",
            "midi": 70,
            "time": 126.12462100000023,
            "velocity": 0.44881889763779526,
            "duration": 0.19491441666666276
        },
        {
            "name": "D#5",
            "midi": 75,
            "time": 126.30454200000023,
            "velocity": 0.41732283464566927,
            "duration": 0.2698814999999968
        },
        {
            "name": "A#4",
            "midi": 70,
            "time": 126.57442350000022,
            "velocity": 0.44881889763779526,
            "duration": 0.08996050000000366
        },
        {
            "name": "B4",
            "midi": 71,
            "time": 126.66438400000023,
            "velocity": 0.4645669291338583,
            "duration": 0.17992099999999311
        },
        {
            "name": "D#6",
            "midi": 87,
            "time": 126.84430500000022,
            "velocity": 0.4645669291338583,
            "duration": 0.35984200000000044
        },
        {
            "name": "D#5",
            "midi": 75,
            "time": 126.84430500000022,
            "velocity": 0.3858267716535433,
            "duration": 0.35984200000000044
        },
        {
            "name": "D#5",
            "midi": 75,
            "time": 127.20414700000022,
            "velocity": 0.3858267716535433,
            "duration": 0.35984200000000044
        },
        {
            "name": "D#6",
            "midi": 87,
            "time": 127.20414700000022,
            "velocity": 0.4566929133858268,
            "duration": 0.35984200000000044
        },
        {
            "name": "D#5",
            "midi": 75,
            "time": 127.56398900000022,
            "velocity": 0.3700787401574803,
            "duration": 0.08996050000000366
        },
        {
            "name": "D#6",
            "midi": 87,
            "time": 127.56398900000022,
            "velocity": 0.4409448818897638,
            "duration": 0.08996050000000366
        },
        {
            "name": "B4",
            "midi": 71,
            "time": 127.74391000000023,
            "velocity": 0.3858267716535433,
            "duration": 0.08996050000000366
        },
        {
            "name": "B5",
            "midi": 83,
            "time": 127.74391000000023,
            "velocity": 0.4566929133858268,
            "duration": 0.08996050000000366
        },
        {
            "name": "G#5",
            "midi": 80,
            "time": 127.92383100000023,
            "velocity": 0.4645669291338583,
            "duration": 0.08996049999998945
        },
        {
            "name": "G#4",
            "midi": 68,
            "time": 127.92383100000023,
            "velocity": 0.3858267716535433,
            "duration": 0.08996049999998945
        },
        {
            "name": "G#4",
            "midi": 68,
            "time": 128.1037520000002,
            "velocity": 0.4015748031496063,
            "duration": 0.08996049999998945
        },
        {
            "name": "G#5",
            "midi": 80,
            "time": 128.1037520000002,
            "velocity": 0.48031496062992124,
            "duration": 0.08996049999998945
        },
        {
            "name": "G4",
            "midi": 67,
            "time": 128.2836730000002,
            "velocity": 0.4094488188976378,
            "duration": 0.35984199999998623
        },
        {
            "name": "G5",
            "midi": 79,
            "time": 128.2836730000002,
            "velocity": 0.4881889763779528,
            "duration": 0.35984199999998623
        },
        {
            "name": "G5",
            "midi": 79,
            "time": 128.64351500000018,
            "velocity": 0.5354330708661418,
            "duration": 0.35984199999998623
        },
        {
            "name": "G4",
            "midi": 67,
            "time": 128.64351500000018,
            "velocity": 0.44881889763779526,
            "duration": 0.35984199999998623
        },
        {
            "name": "G5",
            "midi": 79,
            "time": 129.00335700000016,
            "velocity": 0.5433070866141733,
            "duration": 0.08996049999998945
        },
        {
            "name": "G4",
            "midi": 67,
            "time": 129.00335700000016,
            "velocity": 0.4566929133858268,
            "duration": 0.08996049999998945
        },
        {
            "name": "D#5",
            "midi": 75,
            "time": 129.18327800000014,
            "velocity": 0.47244094488188976,
            "duration": 0.08996049999998945
        },
        {
            "name": "D#6",
            "midi": 87,
            "time": 129.18327800000014,
            "velocity": 0.5590551181102362,
            "duration": 0.08996049999998945
        },
        {
            "name": "G4",
            "midi": 67,
            "time": 129.36319900000012,
            "velocity": 0.48031496062992124,
            "duration": 0.08996049999998945
        },
        {
            "name": "G5",
            "midi": 79,
            "time": 129.36319900000012,
            "velocity": 0.5748031496062992,
            "duration": 0.08996049999998945
        },
        {
            "name": "A#5",
            "midi": 82,
            "time": 129.5431200000001,
            "velocity": 0.5826771653543307,
            "duration": 0.08996049999998945
        },
        {
            "name": "A#4",
            "midi": 70,
            "time": 129.5431200000001,
            "velocity": 0.4881889763779528,
            "duration": 0.08996049999998945
        },
        {
            "name": "G#4",
            "midi": 68,
            "time": 129.72304100000008,
            "velocity": 0.49606299212598426,
            "duration": 0.35984199999998623
        },
        {
            "name": "G#5",
            "midi": 80,
            "time": 129.72304100000008,
            "velocity": 0.5905511811023622,
            "duration": 0.35984199999998623
        },
        {
            "name": "G#4",
            "midi": 68,
            "time": 130.08288300000007,
            "velocity": 0.5354330708661418,
            "duration": 0.35984199999998623
        },
        {
            "name": "G#5",
            "midi": 80,
            "time": 130.08288300000007,
            "velocity": 0.6299212598425197,
            "duration": 0.35984199999998623
        },
        {
            "name": "G#5",
            "midi": 80,
            "time": 130.44272500000005,
            "velocity": 0.6456692913385826,
            "duration": 0.08996049999998945
        },
        {
            "name": "G#4",
            "midi": 68,
            "time": 130.44272500000005,
            "velocity": 0.5433070866141733,
            "duration": 0.08996049999998945
        },
        {
            "name": "D#6",
            "midi": 87,
            "time": 130.62264600000003,
            "velocity": 0.6692913385826772,
            "duration": 0.08996049999998945
        },
        {
            "name": "D#5",
            "midi": 75,
            "time": 130.62264600000003,
            "velocity": 0.5669291338582677,
            "duration": 0.08996049999998945
        },
        {
            "name": "G#4",
            "midi": 68,
            "time": 130.802567,
            "velocity": 0.5748031496062992,
            "duration": 0.08996049999998945
        },
        {
            "name": "G#5",
            "midi": 80,
            "time": 130.802567,
            "velocity": 0.6771653543307087,
            "duration": 0.08996049999998945
        },
        {
            "name": "B4",
            "midi": 71,
            "time": 130.982488,
            "velocity": 0.5748031496062992,
            "duration": 0.08996049999998945
        },
        {
            "name": "B5",
            "midi": 83,
            "time": 130.982488,
            "velocity": 0.6771653543307087,
            "duration": 0.08996049999998945
        },
        {
            "name": "A#4",
            "midi": 70,
            "time": 131.16240899999997,
            "velocity": 0.5826771653543307,
            "duration": 0.35984199999998623
        },
        {
            "name": "A#5",
            "midi": 82,
            "time": 131.16240899999997,
            "velocity": 0.7007874015748031,
            "duration": 0.35984199999998623
        },
        {
            "name": "A#4",
            "midi": 70,
            "time": 131.52225099999995,
            "velocity": 0.6220472440944882,
            "duration": 0.35984199999998623
        },
        {
            "name": "A#5",
            "midi": 82,
            "time": 131.52225099999995,
            "velocity": 0.7322834645669292,
            "duration": 0.35984199999998623
        },
        {
            "name": "A#4",
            "midi": 70,
            "time": 131.88209299999994,
            "velocity": 0.6220472440944882,
            "duration": 0.08996049999998945
        },
        {
            "name": "A#5",
            "midi": 82,
            "time": 131.88209299999994,
            "velocity": 0.7322834645669292,
            "duration": 0.08996049999998945
        },
        {
            "name": "D#6",
            "midi": 87,
            "time": 132.06201399999992,
            "velocity": 0.7322834645669292,
            "duration": 0.08996049999998945
        },
        {
            "name": "D#5",
            "midi": 75,
            "time": 132.06201399999992,
            "velocity": 0.7322834645669292,
            "duration": 0.08996049999998945
        },
        {
            "name": "A#5",
            "midi": 82,
            "time": 132.2419349999999,
            "velocity": 0.7322834645669292,
            "duration": 0.08996049999998945
        },
        {
            "name": "A#4",
            "midi": 70,
            "time": 132.2419349999999,
            "velocity": 0.6220472440944882,
            "duration": 0.08996049999998945
        },
        {
            "name": "C5",
            "midi": 72,
            "time": 132.42185599999988,
            "velocity": 0.6299212598425197,
            "duration": 0.7196840000000009
        },
        {
            "name": "C6",
            "midi": 84,
            "time": 132.42185599999988,
            "velocity": 0.7480314960629921,
            "duration": 0.7196840000000009
        },
        {
            "name": "C#5",
            "midi": 73,
            "time": 133.14153999999988,
            "velocity": 0.6299212598425197,
            "duration": 0.7196840000000009
        },
        {
            "name": "C#6",
            "midi": 85,
            "time": 133.14153999999988,
            "velocity": 0.7480314960629921,
            "duration": 0.7196840000000009
        },
        {
            "name": "A#4",
            "midi": 70,
            "time": 133.86122399999988,
            "velocity": 0.5354330708661418,
            "duration": 0.3598419999999578
        },
        {
            "name": "A#5",
            "midi": 82,
            "time": 133.86122399999988,
            "velocity": 0.6299212598425197,
            "duration": 0.04872860416665503
        },
        {
            "name": "B5",
            "midi": 83,
            "time": 133.90995260416653,
            "velocity": 0.5905511811023622,
            "duration": 0.04797893333332581
        },
        {
            "name": "A#5",
            "midi": 82,
            "time": 133.95793153749986,
            "velocity": 0.6299212598425197,
            "duration": 0.04872860416665503
        },
        {
            "name": "B5",
            "midi": 83,
            "time": 134.00666014166652,
            "velocity": 0.6299212598425197,
            "duration": 0.04797893333332581
        },
        {
            "name": "A#5",
            "midi": 82,
            "time": 134.0673834791665,
            "velocity": 0.6299212598425197,
            "duration": 0.05847432499999172
        },
        {
            "name": "G#5",
            "midi": 80,
            "time": 134.12135977916648,
            "velocity": 0.5905511811023622,
            "duration": 0.057724654166690925
        },
        {
            "name": "A#5",
            "midi": 82,
            "time": 134.1708380541665,
            "velocity": 0.5905511811023622,
            "duration": 0.05022794583334189
        },
        {
            "name": "B4",
            "midi": 71,
            "time": 134.22106599999984,
            "velocity": 0.6299212598425197,
            "duration": 1.079525999999987
        },
        {
            "name": "B5",
            "midi": 83,
            "time": 134.22106599999984,
            "velocity": 0.7480314960629921,
            "duration": 1.079525999999987
        },
        {
            "name": "G#5",
            "midi": 80,
            "time": 135.30059199999982,
            "velocity": 0.7480314960629921,
            "duration": 0.7196840000000009
        },
        {
            "name": "G#4",
            "midi": 68,
            "time": 135.30059199999982,
            "velocity": 0.6299212598425197,
            "duration": 0.7196840000000009
        },
        {
            "name": "A4",
            "midi": 69,
            "time": 136.02027599999982,
            "velocity": 0.6299212598425197,
            "duration": 0.7196840000000009
        },
        {
            "name": "A5",
            "midi": 81,
            "time": 136.02027599999982,
            "velocity": 0.7401574803149606,
            "duration": 0.7196840000000009
        },
        {
            "name": "G4",
            "midi": 67,
            "time": 136.73995999999983,
            "velocity": 0.5354330708661418,
            "duration": 0.3598419999999578
        },
        {
            "name": "G5",
            "midi": 79,
            "time": 136.73995999999983,
            "velocity": 0.6299212598425197,
            "duration": 0.04872860416665503
        },
        {
            "name": "G#5",
            "midi": 80,
            "time": 136.78868860416648,
            "velocity": 0.5905511811023622,
            "duration": 0.04872860416665503
        },
        {
            "name": "G5",
            "midi": 79,
            "time": 136.8366675374998,
            "velocity": 0.6299212598425197,
            "duration": 0.04872860416665503
        },
        {
            "name": "G#5",
            "midi": 80,
            "time": 136.88539614166646,
            "velocity": 0.6299212598425197,
            "duration": 0.04872860416665503
        },
        {
            "name": "G5",
            "midi": 79,
            "time": 136.94611947916644,
            "velocity": 0.6299212598425197,
            "duration": 0.05847432499999172
        },
        {
            "name": "F5",
            "midi": 77,
            "time": 137.00009577916643,
            "velocity": 0.5905511811023622,
            "duration": 0.058474325000020144
        },
        {
            "name": "G5",
            "midi": 79,
            "time": 137.04957405416644,
            "velocity": 0.5905511811023622,
            "duration": 0.05022794583334189
        },
        {
            "name": "G#5",
            "midi": 80,
            "time": 137.09980199999978,
            "velocity": 0.7480314960629921,
            "duration": 1.079525999999987
        },
        {
            "name": "G#4",
            "midi": 68,
            "time": 137.09980199999978,
            "velocity": 0.6299212598425197,
            "duration": 1.079525999999987
        },
        {
            "name": "E5",
            "midi": 76,
            "time": 138.17932799999977,
            "velocity": 0.7874015748031497,
            "duration": 0.8096444999999903
        },
        {
            "name": "A4",
            "midi": 69,
            "time": 138.17932799999977,
            "velocity": 0.6535433070866141,
            "duration": 0.8096444999999903
        },
        {
            "name": "C#5",
            "midi": 73,
            "time": 138.17932799999977,
            "velocity": 0.7874015748031497,
            "duration": 0.8096444999999903
        },
        {
            "name": "A5",
            "midi": 81,
            "time": 138.17932799999977,
            "velocity": 0.7874015748031497,
            "duration": 0.8096444999999903
        },
        {
            "name": "E5",
            "midi": 76,
            "time": 138.98897249999976,
            "velocity": 0.3779527559055118,
            "duration": 0.08996049999998945
        },
        {
            "name": "F#5",
            "midi": 78,
            "time": 139.07893299999975,
            "velocity": 0.3858267716535433,
            "duration": 0.08996049999998945
        },
        {
            "name": "G#5",
            "midi": 80,
            "time": 139.16889349999974,
            "velocity": 0.4015748031496063,
            "duration": 0.08996049999998945
        },
        {
            "name": "A5",
            "midi": 81,
            "time": 139.25885399999973,
            "velocity": 0.4015748031496063,
            "duration": 0.08996049999998945
        },
        {
            "name": "B5",
            "midi": 83,
            "time": 139.34881449999972,
            "velocity": 0.4094488188976378,
            "duration": 0.08996049999998945
        },
        {
            "name": "C#6",
            "midi": 85,
            "time": 139.4387749999997,
            "velocity": 0.41732283464566927,
            "duration": 0.08996049999998945
        },
        {
            "name": "B5",
            "midi": 83,
            "time": 139.5287354999997,
            "velocity": 0.4015748031496063,
            "duration": 0.08996049999998945
        },
        {
            "name": "A5",
            "midi": 81,
            "time": 139.6186959999997,
            "velocity": 0.3858267716535433,
            "duration": 0.08996049999998945
        },
        {
            "name": "E5",
            "midi": 76,
            "time": 139.70865649999968,
            "velocity": 0.3700787401574803,
            "duration": 0.08996049999998945
        },
        {
            "name": "F#5",
            "midi": 78,
            "time": 139.79861699999967,
            "velocity": 0.3779527559055118,
            "duration": 0.08996049999998945
        },
        {
            "name": "G#5",
            "midi": 80,
            "time": 139.88857749999966,
            "velocity": 0.3779527559055118,
            "duration": 0.08996049999998945
        },
        {
            "name": "A5",
            "midi": 81,
            "time": 139.97853799999965,
            "velocity": 0.3858267716535433,
            "duration": 0.08996049999998945
        },
        {
            "name": "B5",
            "midi": 83,
            "time": 140.06849849999963,
            "velocity": 0.3937007874015748,
            "duration": 0.08996049999998945
        },
        {
            "name": "C#6",
            "midi": 85,
            "time": 140.15845899999962,
            "velocity": 0.4015748031496063,
            "duration": 0.08996049999998945
        },
        {
            "name": "B5",
            "midi": 83,
            "time": 140.2484194999996,
            "velocity": 0.3937007874015748,
            "duration": 0.08996049999998945
        },
        {
            "name": "A5",
            "midi": 81,
            "time": 140.3383799999996,
            "velocity": 0.3779527559055118,
            "duration": 0.08996049999998945
        },
        {
            "name": "E5",
            "midi": 76,
            "time": 140.4283404999996,
            "velocity": 0.3858267716535433,
            "duration": 0.08996049999998945
        },
        {
            "name": "F#5",
            "midi": 78,
            "time": 140.51830099999958,
            "velocity": 0.3937007874015748,
            "duration": 0.08996049999998945
        },
        {
            "name": "G#5",
            "midi": 80,
            "time": 140.60826149999957,
            "velocity": 0.3937007874015748,
            "duration": 0.08996049999998945
        },
        {
            "name": "A5",
            "midi": 81,
            "time": 140.69822199999956,
            "velocity": 0.4015748031496063,
            "duration": 0.08996049999998945
        },
        {
            "name": "B5",
            "midi": 83,
            "time": 140.78818249999955,
            "velocity": 0.4015748031496063,
            "duration": 0.08996049999998945
        },
        {
            "name": "C#6",
            "midi": 85,
            "time": 140.87814299999954,
            "velocity": 0.4015748031496063,
            "duration": 0.08996049999998945
        },
        {
            "name": "B5",
            "midi": 83,
            "time": 140.96810349999953,
            "velocity": 0.3858267716535433,
            "duration": 0.08996049999998945
        },
        {
            "name": "A5",
            "midi": 81,
            "time": 141.05806399999952,
            "velocity": 0.3700787401574803,
            "duration": 0.08996049999998945
        },
        {
            "name": "E5",
            "midi": 76,
            "time": 141.1480244999995,
            "velocity": 0.3779527559055118,
            "duration": 0.08996049999998945
        },
        {
            "name": "F#5",
            "midi": 78,
            "time": 141.2379849999995,
            "velocity": 0.4015748031496063,
            "duration": 0.08996049999998945
        },
        {
            "name": "G#5",
            "midi": 80,
            "time": 141.3279454999995,
            "velocity": 0.4015748031496063,
            "duration": 0.08996049999998945
        },
        {
            "name": "A5",
            "midi": 81,
            "time": 141.41790599999948,
            "velocity": 0.4251968503937008,
            "duration": 0.08996049999998945
        },
        {
            "name": "B5",
            "midi": 83,
            "time": 141.50786649999947,
            "velocity": 0.4409448818897638,
            "duration": 0.08996049999998945
        },
        {
            "name": "C#6",
            "midi": 85,
            "time": 141.59782699999946,
            "velocity": 0.44881889763779526,
            "duration": 0.08996049999998945
        },
        {
            "name": "D6",
            "midi": 86,
            "time": 141.68778749999944,
            "velocity": 0.47244094488188976,
            "duration": 0.08996049999998945
        },
        {
            "name": "E6",
            "midi": 88,
            "time": 141.77774799999943,
            "velocity": 0.48031496062992124,
            "duration": 0.08996049999998945
        },
        {
            "name": "D#6",
            "midi": 87,
            "time": 141.86770849999942,
            "velocity": 0.4645669291338583,
            "duration": 0.08996049999998945
        },
        {
            "name": "E6",
            "midi": 88,
            "time": 141.9576689999994,
            "velocity": 0.44881889763779526,
            "duration": 0.08996049999998945
        },
        {
            "name": "D#6",
            "midi": 87,
            "time": 142.0476294999994,
            "velocity": 0.4409448818897638,
            "duration": 0.08996049999998945
        },
        {
            "name": "E6",
            "midi": 88,
            "time": 142.1375899999994,
            "velocity": 0.4251968503937008,
            "duration": 0.08996049999998945
        },
        {
            "name": "C#6",
            "midi": 85,
            "time": 142.22755049999938,
            "velocity": 0.4094488188976378,
            "duration": 0.08996049999998945
        },
        {
            "name": "B5",
            "midi": 83,
            "time": 142.31751099999937,
            "velocity": 0.4015748031496063,
            "duration": 0.08996049999998945
        },
        {
            "name": "A5",
            "midi": 81,
            "time": 142.40747149999936,
            "velocity": 0.3937007874015748,
            "duration": 0.08996049999998945
        },
        {
            "name": "G#5",
            "midi": 80,
            "time": 142.49743199999935,
            "velocity": 0.3779527559055118,
            "duration": 0.7196840000000009
        },
        {
            "name": "A#5",
            "midi": 82,
            "time": 143.21711599999935,
            "velocity": 0.3937007874015748,
            "duration": 0.05997366666667858
        },
        {
            "name": "B5",
            "midi": 83,
            "time": 143.27708966666603,
            "velocity": 0.3937007874015748,
            "duration": 0.05997366666667858
        },
        {
            "name": "A#5",
            "midi": 82,
            "time": 143.3370633333327,
            "velocity": 0.3937007874015748,
            "duration": 0.056225312500004065
        },
        {
            "name": "B5",
            "midi": 83,
            "time": 143.3932886458327,
            "velocity": 0.3937007874015748,
            "duration": 0.056225312500004065
        },
        {
            "name": "A#5",
            "midi": 82,
            "time": 143.44951395833272,
            "velocity": 0.3937007874015748,
            "duration": 0.056225312500004065
        },
        {
            "name": "B5",
            "midi": 83,
            "time": 143.50573927083272,
            "velocity": 0.3937007874015748,
            "duration": 0.056225312500004065
        },
        {
            "name": "A#5",
            "midi": 82,
            "time": 143.56196458333272,
            "velocity": 0.3937007874015748,
            "duration": 0.05247695833332955
        },
        {
            "name": "B5",
            "midi": 83,
            "time": 143.61444154166605,
            "velocity": 0.3779527559055118,
            "duration": 0.05247695833332955
        },
        {
            "name": "A#5",
            "midi": 82,
            "time": 143.66691849999938,
            "velocity": 0.3858267716535433,
            "duration": 0.04498025000000894
        },
        {
            "name": "B5",
            "midi": 83,
            "time": 143.7118987499994,
            "velocity": 0.3937007874015748,
            "duration": 0.04498025000000894
        },
        {
            "name": "A#5",
            "midi": 82,
            "time": 143.7568789999994,
            "velocity": 0.4015748031496063,
            "duration": 0.04498025000000894
        },
        {
            "name": "B5",
            "midi": 83,
            "time": 143.8018592499994,
            "velocity": 0.4015748031496063,
            "duration": 0.04498025000000894
        },
        {
            "name": "A#5",
            "midi": 82,
            "time": 143.84683949999942,
            "velocity": 0.4015748031496063,
            "duration": 0.04498025000000894
        },
        {
            "name": "B5",
            "midi": 83,
            "time": 143.89181974999943,
            "velocity": 0.4094488188976378,
            "duration": 0.04498025000000894
        },
        {
            "name": "G#5",
            "midi": 80,
            "time": 143.93679999999944,
            "velocity": 0.4409448818897638,
            "duration": 0.17992100000000733
        },
        {
            "name": "A3",
            "midi": 57,
            "time": 144.29664199999945,
            "velocity": 0.5748031496062992,
            "duration": 0.4498025000000041
        },
        {
            "name": "C#4",
            "midi": 61,
            "time": 144.29664199999945,
            "velocity": 0.5748031496062992,
            "duration": 0.4498025000000041
        },
        {
            "name": "A4",
            "midi": 69,
            "time": 144.29664199999945,
            "velocity": 0.6850393700787402,
            "duration": 0.4498025000000041
        },
        {
            "name": "E4",
            "midi": 64,
            "time": 144.29664199999945,
            "velocity": 0.6850393700787402,
            "duration": 0.4498025000000041
        },
        {
            "name": "E4",
            "midi": 64,
            "time": 144.74644449999946,
            "velocity": 0.3779527559055118,
            "duration": 0.08996049999998945
        },
        {
            "name": "F#4",
            "midi": 66,
            "time": 144.83640499999944,
            "velocity": 0.3858267716535433,
            "duration": 0.08996049999998945
        },
        {
            "name": "G#4",
            "midi": 68,
            "time": 144.92636549999943,
            "velocity": 0.3937007874015748,
            "duration": 0.08996049999998945
        },
        {
            "name": "A4",
            "midi": 69,
            "time": 145.01632599999942,
            "velocity": 0.4015748031496063,
            "duration": 0.08996049999998945
        },
        {
            "name": "B4",
            "midi": 71,
            "time": 145.1062864999994,
            "velocity": 0.4015748031496063,
            "duration": 0.08996049999998945
        },
        {
            "name": "C#5",
            "midi": 73,
            "time": 145.1962469999994,
            "velocity": 0.4094488188976378,
            "duration": 0.08996049999998945
        },
        {
            "name": "B4",
            "midi": 71,
            "time": 145.2862074999994,
            "velocity": 0.4015748031496063,
            "duration": 0.08996049999998945
        },
        {
            "name": "A4",
            "midi": 69,
            "time": 145.37616799999938,
            "velocity": 0.3779527559055118,
            "duration": 0.08996049999998945
        },
        {
            "name": "E4",
            "midi": 64,
            "time": 145.46612849999937,
            "velocity": 0.3779527559055118,
            "duration": 0.08996049999998945
        },
        {
            "name": "F#4",
            "midi": 66,
            "time": 145.55608899999936,
            "velocity": 0.3779527559055118,
            "duration": 0.08996049999998945
        },
        {
            "name": "G#4",
            "midi": 68,
            "time": 145.64604949999935,
            "velocity": 0.3858267716535433,
            "duration": 0.08996049999998945
        },
        {
            "name": "A4",
            "midi": 69,
            "time": 145.73600999999934,
            "velocity": 0.3937007874015748,
            "duration": 0.08996049999998945
        },
        {
            "name": "B4",
            "midi": 71,
            "time": 145.82597049999933,
            "velocity": 0.3937007874015748,
            "duration": 0.08996049999998945
        },
        {
            "name": "C#5",
            "midi": 73,
            "time": 145.91593099999932,
            "velocity": 0.4015748031496063,
            "duration": 0.08996049999998945
        },
        {
            "name": "B4",
            "midi": 71,
            "time": 146.0058914999993,
            "velocity": 0.4015748031496063,
            "duration": 0.08996049999998945
        },
        {
            "name": "A4",
            "midi": 69,
            "time": 146.0958519999993,
            "velocity": 0.3779527559055118,
            "duration": 0.08996049999998945
        },
        {
            "name": "E4",
            "midi": 64,
            "time": 146.1858124999993,
            "velocity": 0.3779527559055118,
            "duration": 0.08996049999998945
        },
        {
            "name": "F#4",
            "midi": 66,
            "time": 146.27577299999928,
            "velocity": 0.3779527559055118,
            "duration": 0.08996049999998945
        },
        {
            "name": "G#4",
            "midi": 68,
            "time": 146.36573349999927,
            "velocity": 0.3937007874015748,
            "duration": 0.08996049999998945
        },
        {
            "name": "A4",
            "midi": 69,
            "time": 146.45569399999926,
            "velocity": 0.4015748031496063,
            "duration": 0.08996049999998945
        },
        {
            "name": "B4",
            "midi": 71,
            "time": 146.54565449999924,
            "velocity": 0.4015748031496063,
            "duration": 0.08996049999998945
        },
        {
            "name": "C#5",
            "midi": 73,
            "time": 146.63561499999923,
            "velocity": 0.4015748031496063,
            "duration": 0.08996049999998945
        },
        {
            "name": "B4",
            "midi": 71,
            "time": 146.72557549999922,
            "velocity": 0.3937007874015748,
            "duration": 0.08996049999998945
        },
        {
            "name": "A4",
            "midi": 69,
            "time": 146.8155359999992,
            "velocity": 0.3858267716535433,
            "duration": 0.08996049999998945
        },
        {
            "name": "E4",
            "midi": 64,
            "time": 146.9054964999992,
            "velocity": 0.3937007874015748,
            "duration": 0.08996049999998945
        },
        {
            "name": "F#4",
            "midi": 66,
            "time": 146.9954569999992,
            "velocity": 0.4015748031496063,
            "duration": 0.08996049999998945
        },
        {
            "name": "G#4",
            "midi": 68,
            "time": 147.08541749999918,
            "velocity": 0.4015748031496063,
            "duration": 0.08996049999998945
        },
        {
            "name": "A4",
            "midi": 69,
            "time": 147.17537799999917,
            "velocity": 0.4094488188976378,
            "duration": 0.08996049999998945
        },
        {
            "name": "B4",
            "midi": 71,
            "time": 147.26533849999916,
            "velocity": 0.41732283464566927,
            "duration": 0.08996049999998945
        },
        {
            "name": "C#5",
            "midi": 73,
            "time": 147.35529899999915,
            "velocity": 0.4409448818897638,
            "duration": 0.08996049999998945
        },
        {
            "name": "B4",
            "midi": 71,
            "time": 147.44525949999914,
            "velocity": 0.4409448818897638,
            "duration": 0.08996049999998945
        },
        {
            "name": "A4",
            "midi": 69,
            "time": 147.53521999999913,
            "velocity": 0.44881889763779526,
            "duration": 0.08996049999998945
        },
        {
            "name": "E4",
            "midi": 64,
            "time": 147.62518049999912,
            "velocity": 0.4566929133858268,
            "duration": 0.08996049999998945
        },
        {
            "name": "F#4",
            "midi": 66,
            "time": 147.7151409999991,
            "velocity": 0.4645669291338583,
            "duration": 0.08996049999998945
        },
        {
            "name": "G#4",
            "midi": 68,
            "time": 147.8051014999991,
            "velocity": 0.47244094488188976,
            "duration": 0.08996049999998945
        },
        {
            "name": "A4",
            "midi": 69,
            "time": 147.8950619999991,
            "velocity": 0.4881889763779528,
            "duration": 0.08996049999998945
        },
        {
            "name": "B4",
            "midi": 71,
            "time": 147.98502249999908,
            "velocity": 0.4881889763779528,
            "duration": 0.08996049999998945
        },
        {
            "name": "C#5",
            "midi": 73,
            "time": 148.07498299999907,
            "velocity": 0.4881889763779528,
            "duration": 0.08996049999998945
        },
        {
            "name": "B4",
            "midi": 71,
            "time": 148.16494349999905,
            "velocity": 0.49606299212598426,
            "duration": 0.08996049999998945
        },
        {
            "name": "A4",
            "midi": 69,
            "time": 148.25490399999904,
            "velocity": 0.5196850393700787,
            "duration": 0.08996049999998945
        },
        {
            "name": "E4",
            "midi": 64,
            "time": 148.34486449999903,
            "velocity": 0.5275590551181102,
            "duration": 0.08996049999998945
        },
        {
            "name": "F#4",
            "midi": 66,
            "time": 148.43482499999902,
            "velocity": 0.5354330708661418,
            "duration": 0.08996049999998945
        },
        {
            "name": "G#4",
            "midi": 68,
            "time": 148.524785499999,
            "velocity": 0.5354330708661418,
            "duration": 0.08996049999998945
        },
        {
            "name": "A4",
            "midi": 69,
            "time": 148.614745999999,
            "velocity": 0.5511811023622047,
            "duration": 0.08996049999998945
        },
        {
            "name": "B4",
            "midi": 71,
            "time": 148.704706499999,
            "velocity": 0.5590551181102362,
            "duration": 0.08996049999998945
        },
        {
            "name": "C#5",
            "midi": 73,
            "time": 148.79466699999898,
            "velocity": 0.5669291338582677,
            "duration": 0.08996049999998945
        },
        {
            "name": "D5",
            "midi": 74,
            "time": 148.88462749999897,
            "velocity": 0.5748031496062992,
            "duration": 0.08996049999998945
        },
        {
            "name": "E5",
            "midi": 76,
            "time": 148.97458799999896,
            "velocity": 0.5826771653543307,
            "duration": 0.08996049999998945
        },
        {
            "name": "F#5",
            "midi": 78,
            "time": 149.06454849999895,
            "velocity": 0.5905511811023622,
            "duration": 0.08996049999998945
        },
        {
            "name": "G#5",
            "midi": 80,
            "time": 149.15450899999894,
            "velocity": 0.5984251968503937,
            "duration": 0.08996049999998945
        },
        {
            "name": "A5",
            "midi": 81,
            "time": 149.24446949999893,
            "velocity": 0.6062992125984252,
            "duration": 0.08996049999998945
        },
        {
            "name": "B5",
            "midi": 83,
            "time": 149.33442999999892,
            "velocity": 0.6220472440944882,
            "duration": 0.08996049999998945
        },
        {
            "name": "C#6",
            "midi": 85,
            "time": 149.4243904999989,
            "velocity": 0.6220472440944882,
            "duration": 0.08996049999998945
        },
        {
            "name": "D6",
            "midi": 86,
            "time": 149.5143509999989,
            "velocity": 0.6220472440944882,
            "duration": 0.08996049999998945
        },
        {
            "name": "D#6",
            "midi": 87,
            "time": 149.6043114999989,
            "velocity": 0.6299212598425197,
            "duration": 0.08996049999998945
        },
        {
            "name": "E6",
            "midi": 88,
            "time": 149.69427199999888,
            "velocity": 0.6614173228346457,
            "duration": 0.7196840000000009
        },
        {
            "name": "E5",
            "midi": 76,
            "time": 149.69427199999888,
            "velocity": 0.5590551181102362,
            "duration": 0.7196840000000009
        },
        {
            "name": "G#4",
            "midi": 68,
            "time": 150.41395599999888,
            "velocity": 0.5590551181102362,
            "duration": 0.7196840000000009
        },
        {
            "name": "G#5",
            "midi": 80,
            "time": 150.41395599999888,
            "velocity": 0.6614173228346457,
            "duration": 0.7196840000000009
        },
        {
            "name": "B4",
            "midi": 71,
            "time": 151.13363999999888,
            "velocity": 0.5590551181102362,
            "duration": 0.7196840000000009
        },
        {
            "name": "B5",
            "midi": 83,
            "time": 151.13363999999888,
            "velocity": 0.6614173228346457,
            "duration": 0.7196840000000009
        },
        {
            "name": "C#4",
            "midi": 61,
            "time": 151.85332399999888,
            "velocity": 0.5590551181102362,
            "duration": 0.7196840000000009
        },
        {
            "name": "G3",
            "midi": 55,
            "time": 151.85332399999888,
            "velocity": 0.47244094488188976,
            "duration": 0.7196840000000009
        },
        {
            "name": "G4",
            "midi": 67,
            "time": 151.85332399999888,
            "velocity": 0.6614173228346457,
            "duration": 0.7196840000000009
        },
        {
            "name": "D#4",
            "midi": 63,
            "time": 152.57300799999888,
            "velocity": 0.5590551181102362,
            "duration": 0.17992100000000733
        },
        {
            "name": "B3",
            "midi": 59,
            "time": 152.57300799999888,
            "velocity": 0.5590551181102362,
            "duration": 0.17992100000000733
        },
        {
            "name": "G#4",
            "midi": 68,
            "time": 152.57300799999888,
            "velocity": 0.6614173228346457,
            "duration": 0.17992100000000733
        },
        {
            "name": "B4",
            "midi": 71,
            "time": 152.7529289999989,
            "velocity": 0.4015748031496063,
            "duration": 0.08996049999998945
        },
        {
            "name": "D#4",
            "midi": 63,
            "time": 152.7529289999989,
            "velocity": 0.4015748031496063,
            "duration": 0.08996049999998945
        },
        {
            "name": "B4",
            "midi": 71,
            "time": 152.93284999999887,
            "velocity": 0.4015748031496063,
            "duration": 0.08996049999998945
        },
        {
            "name": "D#4",
            "midi": 63,
            "time": 152.93284999999887,
            "velocity": 0.4015748031496063,
            "duration": 0.08996049999998945
        },
        {
            "name": "D#4",
            "midi": 63,
            "time": 153.11277099999884,
            "velocity": 0.4015748031496063,
            "duration": 0.08996049999998945
        },
        {
            "name": "B4",
            "midi": 71,
            "time": 153.11277099999884,
            "velocity": 0.4015748031496063,
            "duration": 0.08996049999998945
        },
        {
            "name": "B4",
            "midi": 71,
            "time": 153.29269199999882,
            "velocity": 0.4015748031496063,
            "duration": 0.08996049999998945
        },
        {
            "name": "D#4",
            "midi": 63,
            "time": 153.29269199999882,
            "velocity": 0.4015748031496063,
            "duration": 0.08996049999998945
        },
        {
            "name": "B4",
            "midi": 71,
            "time": 153.4726129999988,
            "velocity": 0.4015748031496063,
            "duration": 0.08996049999998945
        },
        {
            "name": "D#4",
            "midi": 63,
            "time": 153.4726129999988,
            "velocity": 0.4015748031496063,
            "duration": 0.08996049999998945
        },
        {
            "name": "D#4",
            "midi": 63,
            "time": 153.65253399999878,
            "velocity": 0.3858267716535433,
            "duration": 0.08996049999998945
        },
        {
            "name": "A#4",
            "midi": 70,
            "time": 153.65253399999878,
            "velocity": 0.3858267716535433,
            "duration": 0.08996049999998945
        },
        {
            "name": "G#4",
            "midi": 68,
            "time": 153.83245499999876,
            "velocity": 0.3700787401574803,
            "duration": 0.08996049999998945
        },
        {
            "name": "D#4",
            "midi": 63,
            "time": 153.83245499999876,
            "velocity": 0.3700787401574803,
            "duration": 0.08996049999998945
        },
        {
            "name": "D#4",
            "midi": 63,
            "time": 154.01237599999874,
            "velocity": 0.4645669291338583,
            "duration": 0.17992100000000733
        },
        {
            "name": "G4",
            "midi": 67,
            "time": 154.01237599999874,
            "velocity": 0.4645669291338583,
            "duration": 0.17992100000000733
        },
        {
            "name": "G4",
            "midi": 67,
            "time": 154.19229699999875,
            "velocity": 0.3858267716535433,
            "duration": 0.08996049999998945
        },
        {
            "name": "D#5",
            "midi": 75,
            "time": 154.19229699999875,
            "velocity": 0.3858267716535433,
            "duration": 0.08996049999998945
        },
        {
            "name": "G4",
            "midi": 67,
            "time": 154.37221799999872,
            "velocity": 0.3858267716535433,
            "duration": 0.08996049999998945
        },
        {
            "name": "D#5",
            "midi": 75,
            "time": 154.37221799999872,
            "velocity": 0.3858267716535433,
            "duration": 0.08996049999998945
        },
        {
            "name": "D#5",
            "midi": 75,
            "time": 154.5521389999987,
            "velocity": 0.3937007874015748,
            "duration": 0.08996049999998945
        },
        {
            "name": "G4",
            "midi": 67,
            "time": 154.5521389999987,
            "velocity": 0.3937007874015748,
            "duration": 0.08996049999998945
        },
        {
            "name": "G4",
            "midi": 67,
            "time": 154.73205999999868,
            "velocity": 0.4015748031496063,
            "duration": 0.08996049999998945
        },
        {
            "name": "D#5",
            "midi": 75,
            "time": 154.73205999999868,
            "velocity": 0.4015748031496063,
            "duration": 0.08996049999998945
        },
        {
            "name": "G4",
            "midi": 67,
            "time": 154.91198099999866,
            "velocity": 0.4015748031496063,
            "duration": 0.08996049999998945
        },
        {
            "name": "D#5",
            "midi": 75,
            "time": 154.91198099999866,
            "velocity": 0.4015748031496063,
            "duration": 0.08996049999998945
        },
        {
            "name": "D#5",
            "midi": 75,
            "time": 155.09190199999864,
            "velocity": 0.4015748031496063,
            "duration": 0.08996049999998945
        },
        {
            "name": "G#4",
            "midi": 68,
            "time": 155.09190199999864,
            "velocity": 0.4015748031496063,
            "duration": 0.08996049999998945
        },
        {
            "name": "A#4",
            "midi": 70,
            "time": 155.27182299999862,
            "velocity": 0.41732283464566927,
            "duration": 0.08996049999998945
        },
        {
            "name": "D#5",
            "midi": 75,
            "time": 155.27182299999862,
            "velocity": 0.41732283464566927,
            "duration": 0.08996049999998945
        },
        {
            "name": "B4",
            "midi": 71,
            "time": 155.4517439999986,
            "velocity": 0.4566929133858268,
            "duration": 0.17992100000000733
        },
        {
            "name": "D#5",
            "midi": 75,
            "time": 155.4517439999986,
            "velocity": 0.4566929133858268,
            "duration": 0.17992100000000733
        },
        {
            "name": "B4",
            "midi": 71,
            "time": 155.6316649999986,
            "velocity": 0.3937007874015748,
            "duration": 0.08996049999998945
        },
        {
            "name": "D#4",
            "midi": 63,
            "time": 155.6316649999986,
            "velocity": 0.3937007874015748,
            "duration": 0.08996049999998945
        },
        {
            "name": "D#4",
            "midi": 63,
            "time": 155.81158599999858,
            "velocity": 0.3937007874015748,
            "duration": 0.08996049999998945
        },
        {
            "name": "B4",
            "midi": 71,
            "time": 155.81158599999858,
            "velocity": 0.3937007874015748,
            "duration": 0.08996049999998945
        },
        {
            "name": "B4",
            "midi": 71,
            "time": 155.99150699999856,
            "velocity": 0.3937007874015748,
            "duration": 0.08996049999998945
        },
        {
            "name": "D#4",
            "midi": 63,
            "time": 155.99150699999856,
            "velocity": 0.3937007874015748,
            "duration": 0.08996049999998945
        },
        {
            "name": "B4",
            "midi": 71,
            "time": 156.17142799999854,
            "velocity": 0.3937007874015748,
            "duration": 0.08996049999998945
        },
        {
            "name": "D#4",
            "midi": 63,
            "time": 156.17142799999854,
            "velocity": 0.3937007874015748,
            "duration": 0.08996049999998945
        },
        {
            "name": "D#4",
            "midi": 63,
            "time": 156.35134899999852,
            "velocity": 0.3937007874015748,
            "duration": 0.08996049999998945
        },
        {
            "name": "B4",
            "midi": 71,
            "time": 156.35134899999852,
            "velocity": 0.3937007874015748,
            "duration": 0.08996049999998945
        },
        {
            "name": "D#4",
            "midi": 63,
            "time": 156.5312699999985,
            "velocity": 0.3779527559055118,
            "duration": 0.08996049999998945
        },
        {
            "name": "A#4",
            "midi": 70,
            "time": 156.5312699999985,
            "velocity": 0.3779527559055118,
            "duration": 0.08996049999998945
        },
        {
            "name": "G#4",
            "midi": 68,
            "time": 156.71119099999848,
            "velocity": 0.3700787401574803,
            "duration": 0.08996049999998945
        },
        {
            "name": "D#4",
            "midi": 63,
            "time": 156.71119099999848,
            "velocity": 0.3700787401574803,
            "duration": 0.08996049999998945
        },
        {
            "name": "D#4",
            "midi": 63,
            "time": 156.89111199999846,
            "velocity": 0.4566929133858268,
            "duration": 0.17992100000000733
        },
        {
            "name": "G4",
            "midi": 67,
            "time": 156.89111199999846,
            "velocity": 0.4566929133858268,
            "duration": 0.17992100000000733
        },
        {
            "name": "D#5",
            "midi": 75,
            "time": 157.07103299999847,
            "velocity": 0.3858267716535433,
            "duration": 0.08996049999998945
        },
        {
            "name": "G4",
            "midi": 67,
            "time": 157.07103299999847,
            "velocity": 0.3858267716535433,
            "duration": 0.08996049999998945
        },
        {
            "name": "D#5",
            "midi": 75,
            "time": 157.25095399999844,
            "velocity": 0.3858267716535433,
            "duration": 0.08996049999998945
        },
        {
            "name": "G4",
            "midi": 67,
            "time": 157.25095399999844,
            "velocity": 0.3858267716535433,
            "duration": 0.08996049999998945
        },
        {
            "name": "G4",
            "midi": 67,
            "time": 157.43087499999842,
            "velocity": 0.4015748031496063,
            "duration": 0.08996049999998945
        },
        {
            "name": "D#5",
            "midi": 75,
            "time": 157.43087499999842,
            "velocity": 0.4015748031496063,
            "duration": 0.08996049999998945
        },
        {
            "name": "G4",
            "midi": 67,
            "time": 157.6107959999984,
            "velocity": 0.3858267716535433,
            "duration": 0.08996049999998945
        },
        {
            "name": "D#5",
            "midi": 75,
            "time": 157.6107959999984,
            "velocity": 0.3858267716535433,
            "duration": 0.08996049999998945
        },
        {
            "name": "G4",
            "midi": 67,
            "time": 157.79071699999838,
            "velocity": 0.3858267716535433,
            "duration": 0.08996049999998945
        },
        {
            "name": "D#5",
            "midi": 75,
            "time": 157.79071699999838,
            "velocity": 0.3858267716535433,
            "duration": 0.08996049999998945
        },
        {
            "name": "G#4",
            "midi": 68,
            "time": 157.97063799999836,
            "velocity": 0.4015748031496063,
            "duration": 0.08996049999998945
        },
        {
            "name": "D#5",
            "midi": 75,
            "time": 157.97063799999836,
            "velocity": 0.4015748031496063,
            "duration": 0.08996049999998945
        },
        {
            "name": "D#5",
            "midi": 75,
            "time": 158.15055899999834,
            "velocity": 0.4015748031496063,
            "duration": 0.08996049999998945
        },
        {
            "name": "A#4",
            "midi": 70,
            "time": 158.15055899999834,
            "velocity": 0.4015748031496063,
            "duration": 0.08996049999998945
        },
        {
            "name": "D#5",
            "midi": 75,
            "time": 158.33047999999832,
            "velocity": 0.4409448818897638,
            "duration": 0.08996049999998945
        },
        {
            "name": "B4",
            "midi": 71,
            "time": 158.33047999999832,
            "velocity": 0.4409448818897638,
            "duration": 0.08996049999998945
        },
        {
            "name": "B4",
            "midi": 71,
            "time": 158.5104009999983,
            "velocity": 0.3937007874015748,
            "duration": 0.08996049999998945
        },
        {
            "name": "D#5",
            "midi": 75,
            "time": 158.5104009999983,
            "velocity": 0.3937007874015748,
            "duration": 0.08996049999998945
        },
        {
            "name": "B4",
            "midi": 71,
            "time": 158.69032199999828,
            "velocity": 0.3937007874015748,
            "duration": 0.17992100000000733
        },
        {
            "name": "D#5",
            "midi": 75,
            "time": 158.69032199999828,
            "velocity": 0.3937007874015748,
            "duration": 0.17992100000000733
        },
        {
            "name": "B4",
            "midi": 71,
            "time": 158.87024299999828,
            "velocity": 0.3858267716535433,
            "duration": 0.17992100000000733
        },
        {
            "name": "G#4",
            "midi": 68,
            "time": 158.87024299999828,
            "velocity": 0.3858267716535433,
            "duration": 0.17992100000000733
        },
        {
            "name": "C#5",
            "midi": 73,
            "time": 159.2300849999983,
            "velocity": 0.3937007874015748,
            "duration": 0.08996049999998945
        },
        {
            "name": "E5",
            "midi": 76,
            "time": 159.2300849999983,
            "velocity": 0.3937007874015748,
            "duration": 0.08996049999998945
        },
        {
            "name": "E5",
            "midi": 76,
            "time": 159.41000599999828,
            "velocity": 0.3937007874015748,
            "duration": 0.17992100000000733
        },
        {
            "name": "C#5",
            "midi": 73,
            "time": 159.41000599999828,
            "velocity": 0.3937007874015748,
            "duration": 0.17992100000000733
        },
        {
            "name": "C#5",
            "midi": 73,
            "time": 159.58992699999828,
            "velocity": 0.3858267716535433,
            "duration": 0.17992100000000733
        },
        {
            "name": "G#4",
            "midi": 68,
            "time": 159.58992699999828,
            "velocity": 0.3858267716535433,
            "duration": 0.17992100000000733
        },
        {
            "name": "D#5",
            "midi": 75,
            "time": 159.9497689999983,
            "velocity": 0.3700787401574803,
            "duration": 0.08996049999998945
        },
        {
            "name": "B4",
            "midi": 71,
            "time": 159.9497689999983,
            "velocity": 0.3700787401574803,
            "duration": 0.08996049999998945
        },
        {
            "name": "D#5",
            "midi": 75,
            "time": 160.12968999999828,
            "velocity": 0.3700787401574803,
            "duration": 0.17992100000000733
        },
        {
            "name": "B4",
            "midi": 71,
            "time": 160.12968999999828,
            "velocity": 0.3700787401574803,
            "duration": 0.17992100000000733
        },
        {
            "name": "G#4",
            "midi": 68,
            "time": 160.30961099999828,
            "velocity": 0.3858267716535433,
            "duration": 0.17992100000000733
        },
        {
            "name": "B4",
            "midi": 71,
            "time": 160.30961099999828,
            "velocity": 0.3858267716535433,
            "duration": 0.17992100000000733
        },
        {
            "name": "D#5",
            "midi": 75,
            "time": 160.6694529999983,
            "velocity": 0.3858267716535433,
            "duration": 0.08996049999998945
        },
        {
            "name": "A#4",
            "midi": 70,
            "time": 160.6694529999983,
            "velocity": 0.3858267716535433,
            "duration": 0.08996049999998945
        },
        {
            "name": "D#5",
            "midi": 75,
            "time": 160.84937399999828,
            "velocity": 0.3700787401574803,
            "duration": 0.17992100000000733
        },
        {
            "name": "A#4",
            "midi": 70,
            "time": 160.84937399999828,
            "velocity": 0.3700787401574803,
            "duration": 0.17992100000000733
        },
        {
            "name": "G4",
            "midi": 67,
            "time": 161.02929499999829,
            "velocity": 0.3700787401574803,
            "duration": 0.17992100000000733
        },
        {
            "name": "A#4",
            "midi": 70,
            "time": 161.02929499999829,
            "velocity": 0.3700787401574803,
            "duration": 0.17992100000000733
        },
        {
            "name": "G#4",
            "midi": 68,
            "time": 161.2092159999983,
            "velocity": 0.3858267716535433,
            "duration": 0.17992100000000733
        },
        {
            "name": "B4",
            "midi": 71,
            "time": 161.2092159999983,
            "velocity": 0.3858267716535433,
            "duration": 0.17992100000000733
        },
        {
            "name": "D#5",
            "midi": 75,
            "time": 161.3891369999983,
            "velocity": 0.4015748031496063,
            "duration": 0.08996049999998945
        },
        {
            "name": "B5",
            "midi": 83,
            "time": 161.3891369999983,
            "velocity": 0.4015748031496063,
            "duration": 0.08996049999998945
        },
        {
            "name": "B4",
            "midi": 71,
            "time": 161.3891369999983,
            "velocity": 0.33858267716535434,
            "duration": 0.08996049999998945
        },
        {
            "name": "B5",
            "midi": 83,
            "time": 161.56905799999828,
            "velocity": 0.4409448818897638,
            "duration": 0.08996049999998945
        },
        {
            "name": "D#5",
            "midi": 75,
            "time": 161.56905799999828,
            "velocity": 0.4409448818897638,
            "duration": 0.08996049999998945
        },
        {
            "name": "B4",
            "midi": 71,
            "time": 161.56905799999828,
            "velocity": 0.3700787401574803,
            "duration": 0.08996049999998945
        },
        {
            "name": "B5",
            "midi": 83,
            "time": 161.74897899999826,
            "velocity": 0.4566929133858268,
            "duration": 0.08996049999998945
        },
        {
            "name": "B4",
            "midi": 71,
            "time": 161.74897899999826,
            "velocity": 0.3858267716535433,
            "duration": 0.08996049999998945
        },
        {
            "name": "D#5",
            "midi": 75,
            "time": 161.74897899999826,
            "velocity": 0.4566929133858268,
            "duration": 0.08996049999998945
        },
        {
            "name": "B4",
            "midi": 71,
            "time": 161.92889999999824,
            "velocity": 0.4094488188976378,
            "duration": 0.08996049999998945
        },
        {
            "name": "D#5",
            "midi": 75,
            "time": 161.92889999999824,
            "velocity": 0.4881889763779528,
            "duration": 0.08996049999998945
        },
        {
            "name": "B5",
            "midi": 83,
            "time": 161.92889999999824,
            "velocity": 0.4881889763779528,
            "duration": 0.08996049999998945
        },
        {
            "name": "B5",
            "midi": 83,
            "time": 162.10882099999822,
            "velocity": 0.5196850393700787,
            "duration": 0.08996049999998945
        },
        {
            "name": "D#5",
            "midi": 75,
            "time": 162.10882099999822,
            "velocity": 0.5196850393700787,
            "duration": 0.08996049999998945
        },
        {
            "name": "B4",
            "midi": 71,
            "time": 162.10882099999822,
            "velocity": 0.4409448818897638,
            "duration": 0.08996049999998945
        },
        {
            "name": "C#5",
            "midi": 73,
            "time": 162.2887419999982,
            "velocity": 0.5354330708661418,
            "duration": 0.08996049999998945
        },
        {
            "name": "A#4",
            "midi": 70,
            "time": 162.2887419999982,
            "velocity": 0.44881889763779526,
            "duration": 0.08996049999998945
        },
        {
            "name": "A#5",
            "midi": 82,
            "time": 162.2887419999982,
            "velocity": 0.5354330708661418,
            "duration": 0.08996049999998945
        },
        {
            "name": "G#5",
            "midi": 80,
            "time": 162.46866299999817,
            "velocity": 0.5669291338582677,
            "duration": 0.08996049999998945
        },
        {
            "name": "G#4",
            "midi": 68,
            "time": 162.46866299999817,
            "velocity": 0.48031496062992124,
            "duration": 0.08996049999998945
        },
        {
            "name": "B4",
            "midi": 71,
            "time": 162.46866299999817,
            "velocity": 0.5669291338582677,
            "duration": 0.08996049999998945
        },
        {
            "name": "G5",
            "midi": 79,
            "time": 162.64858399999815,
            "velocity": 0.5905511811023622,
            "duration": 0.17992100000000733
        },
        {
            "name": "G4",
            "midi": 67,
            "time": 162.64858399999815,
            "velocity": 0.49606299212598426,
            "duration": 0.17992100000000733
        },
        {
            "name": "A#4",
            "midi": 70,
            "time": 162.64858399999815,
            "velocity": 0.5905511811023622,
            "duration": 0.17992100000000733
        },
        {
            "name": "E5",
            "midi": 76,
            "time": 162.82850499999816,
            "velocity": 0.5039370078740157,
            "duration": 0.08996049999998945
        },
        {
            "name": "E6",
            "midi": 88,
            "time": 162.82850499999816,
            "velocity": 0.5984251968503937,
            "duration": 0.08996049999998945
        },
        {
            "name": "G5",
            "midi": 79,
            "time": 162.82850499999816,
            "velocity": 0.5984251968503937,
            "duration": 0.08996049999998945
        },
        {
            "name": "G5",
            "midi": 79,
            "time": 163.00842599999814,
            "velocity": 0.6456692913385826,
            "duration": 0.08996049999998945
        },
        {
            "name": "E5",
            "midi": 76,
            "time": 163.00842599999814,
            "velocity": 0.5433070866141733,
            "duration": 0.08996049999998945
        },
        {
            "name": "E6",
            "midi": 88,
            "time": 163.00842599999814,
            "velocity": 0.6456692913385826,
            "duration": 0.08996049999998945
        },
        {
            "name": "G5",
            "midi": 79,
            "time": 163.18834699999812,
            "velocity": 0.6220472440944882,
            "duration": 0.08996049999998945
        },
        {
            "name": "E6",
            "midi": 88,
            "time": 163.18834699999812,
            "velocity": 0.6220472440944882,
            "duration": 0.08996049999998945
        },
        {
            "name": "E5",
            "midi": 76,
            "time": 163.18834699999812,
            "velocity": 0.5275590551181102,
            "duration": 0.08996049999998945
        },
        {
            "name": "E6",
            "midi": 88,
            "time": 163.3682679999981,
            "velocity": 0.6456692913385826,
            "duration": 0.08996049999998945
        },
        {
            "name": "E5",
            "midi": 76,
            "time": 163.3682679999981,
            "velocity": 0.5433070866141733,
            "duration": 0.08996049999998945
        },
        {
            "name": "G5",
            "midi": 79,
            "time": 163.3682679999981,
            "velocity": 0.6456692913385826,
            "duration": 0.08996049999998945
        },
        {
            "name": "G5",
            "midi": 79,
            "time": 163.54818899999808,
            "velocity": 0.6220472440944882,
            "duration": 0.08996049999998945
        },
        {
            "name": "E5",
            "midi": 76,
            "time": 163.54818899999808,
            "velocity": 0.5275590551181102,
            "duration": 0.08996049999998945
        },
        {
            "name": "E6",
            "midi": 88,
            "time": 163.54818899999808,
            "velocity": 0.6220472440944882,
            "duration": 0.08996049999998945
        },
        {
            "name": "G5",
            "midi": 79,
            "time": 163.72810999999805,
            "velocity": 0.6377952755905512,
            "duration": 0.08996049999998945
        },
        {
            "name": "D#5",
            "midi": 75,
            "time": 163.72810999999805,
            "velocity": 0.5354330708661418,
            "duration": 0.08996049999998945
        },
        {
            "name": "D#6",
            "midi": 87,
            "time": 163.72810999999805,
            "velocity": 0.6377952755905512,
            "duration": 0.08996049999998945
        },
        {
            "name": "G5",
            "midi": 79,
            "time": 163.90803099999803,
            "velocity": 0.6220472440944882,
            "duration": 0.08996049999998945
        },
        {
            "name": "C#6",
            "midi": 85,
            "time": 163.90803099999803,
            "velocity": 0.6220472440944882,
            "duration": 0.08996049999998945
        },
        {
            "name": "C#5",
            "midi": 73,
            "time": 163.90803099999803,
            "velocity": 0.5275590551181102,
            "duration": 0.08996049999998945
        },
        {
            "name": "B5",
            "midi": 83,
            "time": 164.087951999998,
            "velocity": 0.6456692913385826,
            "duration": 0.18666803749999872
        },
        {
            "name": "G#5",
            "midi": 80,
            "time": 164.087951999998,
            "velocity": 0.6456692913385826,
            "duration": 0.17992100000000733
        },
        {
            "name": "B4",
            "midi": 71,
            "time": 164.087951999998,
            "velocity": 0.5433070866141733,
            "duration": 0.17992100000000733
        },
        {
            "name": "B4",
            "midi": 71,
            "time": 164.26787299999802,
            "velocity": 0.3228346456692913,
            "duration": 0.08996049999998945
        },
        {
            "name": "B5",
            "midi": 83,
            "time": 164.26787299999802,
            "velocity": 0.3858267716535433,
            "duration": 0.08996049999998945
        },
        {
            "name": "D#5",
            "midi": 75,
            "time": 164.26787299999802,
            "velocity": 0.3858267716535433,
            "duration": 0.08996049999998945
        },
        {
            "name": "B5",
            "midi": 83,
            "time": 164.447793999998,
            "velocity": 0.4094488188976378,
            "duration": 0.08996049999998945
        },
        {
            "name": "B4",
            "midi": 71,
            "time": 164.447793999998,
            "velocity": 0.3464566929133858,
            "duration": 0.08996049999998945
        },
        {
            "name": "D#5",
            "midi": 75,
            "time": 164.447793999998,
            "velocity": 0.4094488188976378,
            "duration": 0.08996049999998945
        },
        {
            "name": "B4",
            "midi": 71,
            "time": 164.62771499999798,
            "velocity": 0.3779527559055118,
            "duration": 0.08996049999998945
        },
        {
            "name": "B5",
            "midi": 83,
            "time": 164.62771499999798,
            "velocity": 0.44881889763779526,
            "duration": 0.08996049999998945
        },
        {
            "name": "D#5",
            "midi": 75,
            "time": 164.62771499999798,
            "velocity": 0.44881889763779526,
            "duration": 0.08996049999998945
        },
        {
            "name": "B4",
            "midi": 71,
            "time": 164.80763599999796,
            "velocity": 0.4015748031496063,
            "duration": 0.08996049999998945
        },
        {
            "name": "D#5",
            "midi": 75,
            "time": 164.80763599999796,
            "velocity": 0.48031496062992124,
            "duration": 0.08996049999998945
        },
        {
            "name": "B5",
            "midi": 83,
            "time": 164.80763599999796,
            "velocity": 0.48031496062992124,
            "duration": 0.08996049999998945
        },
        {
            "name": "D#5",
            "midi": 75,
            "time": 164.98755699999793,
            "velocity": 0.5196850393700787,
            "duration": 0.08996049999998945
        },
        {
            "name": "B5",
            "midi": 83,
            "time": 164.98755699999793,
            "velocity": 0.5196850393700787,
            "duration": 0.08996049999998945
        },
        {
            "name": "B4",
            "midi": 71,
            "time": 164.98755699999793,
            "velocity": 0.4409448818897638,
            "duration": 0.08996049999998945
        },
        {
            "name": "A#5",
            "midi": 82,
            "time": 165.1674779999979,
            "velocity": 0.5433070866141733,
            "duration": 0.08996049999998945
        },
        {
            "name": "A#4",
            "midi": 70,
            "time": 165.1674779999979,
            "velocity": 0.4566929133858268,
            "duration": 0.08996049999998945
        },
        {
            "name": "C#5",
            "midi": 73,
            "time": 165.1674779999979,
            "velocity": 0.5433070866141733,
            "duration": 0.08996049999998945
        },
        {
            "name": "G#5",
            "midi": 80,
            "time": 165.3473989999979,
            "velocity": 0.5748031496062992,
            "duration": 0.08996049999998945
        },
        {
            "name": "G#4",
            "midi": 68,
            "time": 165.3473989999979,
            "velocity": 0.4881889763779528,
            "duration": 0.08996049999998945
        },
        {
            "name": "B4",
            "midi": 71,
            "time": 165.3473989999979,
            "velocity": 0.5748031496062992,
            "duration": 0.08996049999998945
        },
        {
            "name": "A#4",
            "midi": 70,
            "time": 165.52731999999787,
            "velocity": 0.6141732283464567,
            "duration": 0.17992100000000733
        },
        {
            "name": "G4",
            "midi": 67,
            "time": 165.52731999999787,
            "velocity": 0.5196850393700787,
            "duration": 0.17992100000000733
        },
        {
            "name": "G5",
            "midi": 79,
            "time": 165.52731999999787,
            "velocity": 0.6141732283464567,
            "duration": 0.17992100000000733
        },
        {
            "name": "E6",
            "midi": 88,
            "time": 165.70724099999788,
            "velocity": 0.6141732283464567,
            "duration": 0.08996049999998945
        },
        {
            "name": "G5",
            "midi": 79,
            "time": 165.70724099999788,
            "velocity": 0.6141732283464567,
            "duration": 0.08996049999998945
        },
        {
            "name": "E5",
            "midi": 76,
            "time": 165.70724099999788,
            "velocity": 0.5196850393700787,
            "duration": 0.08996049999998945
        },
        {
            "name": "E6",
            "midi": 88,
            "time": 165.88716199999786,
            "velocity": 0.6456692913385826,
            "duration": 0.08996049999998945
        },
        {
            "name": "E5",
            "midi": 76,
            "time": 165.88716199999786,
            "velocity": 0.5433070866141733,
            "duration": 0.08996049999998945
        },
        {
            "name": "G5",
            "midi": 79,
            "time": 165.88716199999786,
            "velocity": 0.6456692913385826,
            "duration": 0.08996049999998945
        },
        {
            "name": "E5",
            "midi": 76,
            "time": 166.06708299999784,
            "velocity": 0.5196850393700787,
            "duration": 0.08996049999998945
        },
        {
            "name": "E6",
            "midi": 88,
            "time": 166.06708299999784,
            "velocity": 0.6141732283464567,
            "duration": 0.08996049999998945
        },
        {
            "name": "G5",
            "midi": 79,
            "time": 166.06708299999784,
            "velocity": 0.6141732283464567,
            "duration": 0.08996049999998945
        },
        {
            "name": "G5",
            "midi": 79,
            "time": 166.24700399999782,
            "velocity": 0.6456692913385826,
            "duration": 0.08996049999998945
        },
        {
            "name": "E5",
            "midi": 76,
            "time": 166.24700399999782,
            "velocity": 0.5433070866141733,
            "duration": 0.08996049999998945
        },
        {
            "name": "E6",
            "midi": 88,
            "time": 166.24700399999782,
            "velocity": 0.6456692913385826,
            "duration": 0.08996049999998945
        },
        {
            "name": "G5",
            "midi": 79,
            "time": 166.4269249999978,
            "velocity": 0.6220472440944882,
            "duration": 0.08996049999998945
        },
        {
            "name": "E5",
            "midi": 76,
            "time": 166.4269249999978,
            "velocity": 0.5275590551181102,
            "duration": 0.08996049999998945
        },
        {
            "name": "E6",
            "midi": 88,
            "time": 166.4269249999978,
            "velocity": 0.6220472440944882,
            "duration": 0.08996049999998945
        },
        {
            "name": "D#5",
            "midi": 75,
            "time": 166.60684599999777,
            "velocity": 0.5354330708661418,
            "duration": 0.08996049999998945
        },
        {
            "name": "G5",
            "midi": 79,
            "time": 166.60684599999777,
            "velocity": 0.6299212598425197,
            "duration": 0.08996049999998945
        },
        {
            "name": "D#6",
            "midi": 87,
            "time": 166.60684599999777,
            "velocity": 0.6299212598425197,
            "duration": 0.08996049999998945
        },
        {
            "name": "G5",
            "midi": 79,
            "time": 166.78676699999775,
            "velocity": 0.6220472440944882,
            "duration": 0.08996049999998945
        },
        {
            "name": "C#5",
            "midi": 73,
            "time": 166.78676699999775,
            "velocity": 0.5275590551181102,
            "duration": 0.08996049999998945
        },
        {
            "name": "C#6",
            "midi": 85,
            "time": 166.78676699999775,
            "velocity": 0.6220472440944882,
            "duration": 0.08996049999998945
        },
        {
            "name": "B5",
            "midi": 83,
            "time": 166.96668799999773,
            "velocity": 0.6456692913385826,
            "duration": 0.17992100000000733
        },
        {
            "name": "G#5",
            "midi": 80,
            "time": 166.96668799999773,
            "velocity": 0.6456692913385826,
            "duration": 0.17992100000000733
        },
        {
            "name": "B4",
            "midi": 71,
            "time": 166.96668799999773,
            "velocity": 0.5433070866141733,
            "duration": 0.17992100000000733
        },
        {
            "name": "B5",
            "midi": 83,
            "time": 167.14660899999774,
            "velocity": 0.3937007874015748,
            "duration": 0.08996049999998945
        },
        {
            "name": "G#5",
            "midi": 80,
            "time": 167.14660899999774,
            "velocity": 0.3937007874015748,
            "duration": 0.08996049999998945
        },
        {
            "name": "B5",
            "midi": 83,
            "time": 167.32652999999772,
            "velocity": 0.3937007874015748,
            "duration": 0.17992100000000733
        },
        {
            "name": "G#5",
            "midi": 80,
            "time": 167.32652999999772,
            "velocity": 0.3937007874015748,
            "duration": 0.17992100000000733
        },
        {
            "name": "B5",
            "midi": 83,
            "time": 167.50645099999772,
            "velocity": 0.3779527559055118,
            "duration": 0.17992100000000733
        },
        {
            "name": "D#6",
            "midi": 87,
            "time": 167.50645099999772,
            "velocity": 0.3779527559055118,
            "duration": 0.17992100000000733
        },
        {
            "name": "C#6",
            "midi": 85,
            "time": 167.86629299999774,
            "velocity": 0.3858267716535433,
            "duration": 0.08996049999998945
        },
        {
            "name": "G#5",
            "midi": 80,
            "time": 167.86629299999774,
            "velocity": 0.3858267716535433,
            "duration": 0.08996049999998945
        },
        {
            "name": "C#6",
            "midi": 85,
            "time": 168.04621399999772,
            "velocity": 0.3858267716535433,
            "duration": 0.17992100000000733
        },
        {
            "name": "G#5",
            "midi": 80,
            "time": 168.04621399999772,
            "velocity": 0.3858267716535433,
            "duration": 0.17992100000000733
        },
        {
            "name": "E6",
            "midi": 88,
            "time": 168.22613499999773,
            "velocity": 0.3700787401574803,
            "duration": 0.17992100000000733
        },
        {
            "name": "C#6",
            "midi": 85,
            "time": 168.22613499999773,
            "velocity": 0.3700787401574803,
            "duration": 0.17992100000000733
        },
        {
            "name": "B5",
            "midi": 83,
            "time": 168.58597699999774,
            "velocity": 0.3858267716535433,
            "duration": 0.08996049999998945
        },
        {
            "name": "G#5",
            "midi": 80,
            "time": 168.58597699999774,
            "velocity": 0.3858267716535433,
            "duration": 0.08996049999998945
        },
        {
            "name": "G#5",
            "midi": 80,
            "time": 168.76589799999772,
            "velocity": 0.3858267716535433,
            "duration": 0.17992100000000733
        },
        {
            "name": "B5",
            "midi": 83,
            "time": 168.76589799999772,
            "velocity": 0.3858267716535433,
            "duration": 0.17992100000000733
        },
        {
            "name": "D#6",
            "midi": 87,
            "time": 168.94581899999773,
            "velocity": 0.3700787401574803,
            "duration": 0.17992100000000733
        },
        {
            "name": "B5",
            "midi": 83,
            "time": 168.94581899999773,
            "velocity": 0.3700787401574803,
            "duration": 0.17992100000000733
        },
        {
            "name": "A#5",
            "midi": 82,
            "time": 169.30566099999774,
            "velocity": 0.4015748031496063,
            "duration": 0.08996049999998945
        },
        {
            "name": "G5",
            "midi": 79,
            "time": 169.30566099999774,
            "velocity": 0.4015748031496063,
            "duration": 0.08996049999998945
        },
        {
            "name": "A#5",
            "midi": 82,
            "time": 169.48558199999772,
            "velocity": 0.4015748031496063,
            "duration": 0.17992100000000733
        },
        {
            "name": "G5",
            "midi": 79,
            "time": 169.48558199999772,
            "velocity": 0.4015748031496063,
            "duration": 0.17992100000000733
        },
        {
            "name": "D#6",
            "midi": 87,
            "time": 169.66550299999773,
            "velocity": 0.3700787401574803,
            "duration": 0.17992100000000733
        },
        {
            "name": "A#5",
            "midi": 82,
            "time": 169.66550299999773,
            "velocity": 0.3700787401574803,
            "duration": 0.17992100000000733
        },
        {
            "name": "B5",
            "midi": 83,
            "time": 170.02534499999774,
            "velocity": 0.4409448818897638,
            "duration": 0.08996049999998945
        },
        {
            "name": "D#5",
            "midi": 75,
            "time": 170.02534499999774,
            "velocity": 0.4409448818897638,
            "duration": 0.08996049999998945
        },
        {
            "name": "D#5",
            "midi": 75,
            "time": 170.20526599999772,
            "velocity": 0.4015748031496063,
            "duration": 0.17992100000000733
        },
        {
            "name": "B5",
            "midi": 83,
            "time": 170.20526599999772,
            "velocity": 0.4015748031496063,
            "duration": 0.17992100000000733
        },
        {
            "name": "D#6",
            "midi": 87,
            "time": 170.38518699999773,
            "velocity": 0.4015748031496063,
            "duration": 0.17992100000000733
        },
        {
            "name": "G#5",
            "midi": 80,
            "time": 170.38518699999773,
            "velocity": 0.4015748031496063,
            "duration": 0.17992100000000733
        },
        {
            "name": "A5",
            "midi": 81,
            "time": 170.74502899999774,
            "velocity": 0.4881889763779528,
            "duration": 0.08996049999998945
        },
        {
            "name": "C#5",
            "midi": 73,
            "time": 170.74502899999774,
            "velocity": 0.4881889763779528,
            "duration": 0.08996049999998945
        },
        {
            "name": "A5",
            "midi": 81,
            "time": 170.92494999999772,
            "velocity": 0.4409448818897638,
            "duration": 0.17992100000000733
        },
        {
            "name": "C#5",
            "midi": 73,
            "time": 170.92494999999772,
            "velocity": 0.4409448818897638,
            "duration": 0.17992100000000733
        },
        {
            "name": "E5",
            "midi": 76,
            "time": 171.10487099999773,
            "velocity": 0.4409448818897638,
            "duration": 0.17992100000000733
        },
        {
            "name": "C#6",
            "midi": 85,
            "time": 171.10487099999773,
            "velocity": 0.4409448818897638,
            "duration": 0.17992100000000733
        },
        {
            "name": "G#5",
            "midi": 80,
            "time": 171.46471299999774,
            "velocity": 0.44881889763779526,
            "duration": 0.08996049999998945
        },
        {
            "name": "B4",
            "midi": 71,
            "time": 171.46471299999774,
            "velocity": 0.44881889763779526,
            "duration": 0.08996049999998945
        },
        {
            "name": "B4",
            "midi": 71,
            "time": 171.64463399999772,
            "velocity": 0.44881889763779526,
            "duration": 0.17992100000000733
        },
        {
            "name": "G#5",
            "midi": 80,
            "time": 171.64463399999772,
            "velocity": 0.44881889763779526,
            "duration": 0.17992100000000733
        },
        {
            "name": "D#5",
            "midi": 75,
            "time": 171.82455499999773,
            "velocity": 0.4015748031496063,
            "duration": 0.17992100000000733
        },
        {
            "name": "B5",
            "midi": 83,
            "time": 171.82455499999773,
            "velocity": 0.4015748031496063,
            "duration": 0.17992100000000733
        },
        {
            "name": "A#4",
            "midi": 70,
            "time": 172.18439699999774,
            "velocity": 0.4094488188976378,
            "duration": 0.08996049999998945
        },
        {
            "name": "G5",
            "midi": 79,
            "time": 172.18439699999774,
            "velocity": 0.4094488188976378,
            "duration": 0.08996049999998945
        },
        {
            "name": "A#4",
            "midi": 70,
            "time": 172.36431799999772,
            "velocity": 0.4015748031496063,
            "duration": 0.17992100000000733
        },
        {
            "name": "G5",
            "midi": 79,
            "time": 172.36431799999772,
            "velocity": 0.4015748031496063,
            "duration": 0.17992100000000733
        },
        {
            "name": "C#5",
            "midi": 73,
            "time": 172.54423899999773,
            "velocity": 0.33070866141732286,
            "duration": 0.17992100000000733
        },
        {
            "name": "A#5",
            "midi": 82,
            "time": 172.54423899999773,
            "velocity": 0.33070866141732286,
            "duration": 0.17992100000000733
        },
        {
            "name": "G#5",
            "midi": 80,
            "time": 172.72415999999774,
            "velocity": 0.3937007874015748,
            "duration": 0.35984199999998623
        },
        {
            "name": "B4",
            "midi": 71,
            "time": 172.72415999999774,
            "velocity": 0.3937007874015748,
            "duration": 0.35984199999998623
        },
        {
            "name": "B4",
            "midi": 71,
            "time": 173.80368599999773,
            "velocity": 0.3937007874015748,
            "duration": 0.2698814999999968
        },
        {
            "name": "G#4",
            "midi": 68,
            "time": 174.07356749999772,
            "velocity": 0.3937007874015748,
            "duration": 0.08996049999998945
        },
        {
            "name": "G4",
            "midi": 67,
            "time": 174.1635279999977,
            "velocity": 0.44881889763779526,
            "duration": 0.35984199999998623
        },
        {
            "name": "C#4",
            "midi": 61,
            "time": 174.5233699999977,
            "velocity": 0.30708661417322836,
            "duration": 0.2698814999999968
        },
        {
            "name": "G4",
            "midi": 67,
            "time": 174.5233699999977,
            "velocity": 0.3700787401574803,
            "duration": 0.2698814999999968
        },
        {
            "name": "D#5",
            "midi": 75,
            "time": 174.5233699999977,
            "velocity": 0.3700787401574803,
            "duration": 0.2698814999999968
        },
        {
            "name": "D#5",
            "midi": 75,
            "time": 174.88321199999768,
            "velocity": 0.3700787401574803,
            "duration": 0.2698814999999968
        },
        {
            "name": "C#4",
            "midi": 61,
            "time": 174.88321199999768,
            "velocity": 0.30708661417322836,
            "duration": 0.2698814999999968
        },
        {
            "name": "G4",
            "midi": 67,
            "time": 174.88321199999768,
            "velocity": 0.3700787401574803,
            "duration": 0.2698814999999968
        },
        {
            "name": "G4",
            "midi": 67,
            "time": 175.24305399999767,
            "velocity": 0.3937007874015748,
            "duration": 0.2698814999999968
        },
        {
            "name": "D#5",
            "midi": 75,
            "time": 175.24305399999767,
            "velocity": 0.3937007874015748,
            "duration": 0.2698814999999968
        },
        {
            "name": "C#4",
            "midi": 61,
            "time": 175.24305399999767,
            "velocity": 0.33070866141732286,
            "duration": 0.2698814999999968
        },
        {
            "name": "B3",
            "midi": 59,
            "time": 175.51293549999767,
            "velocity": 0.3937007874015748,
            "duration": 0.05997366666667858
        },
        {
            "name": "G#4",
            "midi": 68,
            "time": 175.55791574999768,
            "velocity": 0.3937007874015748,
            "duration": 0.05997366666667858
        },
        {
            "name": "D#5",
            "midi": 75,
            "time": 175.60289599999768,
            "velocity": 0.44881889763779526,
            "duration": 1.0795260000000155
        },
        {
            "name": "B5",
            "midi": 83,
            "time": 176.6824219999977,
            "velocity": 0.4566929133858268,
            "duration": 0.2698814999999968
        },
        {
            "name": "G#5",
            "midi": 80,
            "time": 176.9523034999977,
            "velocity": 0.4566929133858268,
            "duration": 0.08996049999998945
        },
        {
            "name": "G5",
            "midi": 79,
            "time": 177.0422639999977,
            "velocity": 0.5275590551181102,
            "duration": 0.35984199999998623
        },
        {
            "name": "G5",
            "midi": 79,
            "time": 177.40210599999767,
            "velocity": 0.44881889763779526,
            "duration": 0.2698814999999968
        },
        {
            "name": "D#6",
            "midi": 87,
            "time": 177.40210599999767,
            "velocity": 0.44881889763779526,
            "duration": 0.2698814999999968
        },
        {
            "name": "C#5",
            "midi": 73,
            "time": 177.40210599999767,
            "velocity": 0.3779527559055118,
            "duration": 0.2698814999999968
        },
        {
            "name": "C#5",
            "midi": 73,
            "time": 177.76194799999766,
            "velocity": 0.3779527559055118,
            "duration": 0.2698814999999968
        },
        {
            "name": "D#6",
            "midi": 87,
            "time": 177.76194799999766,
            "velocity": 0.44881889763779526,
            "duration": 0.2698814999999968
        },
        {
            "name": "G5",
            "midi": 79,
            "time": 177.76194799999766,
            "velocity": 0.44881889763779526,
            "duration": 0.2698814999999968
        },
        {
            "name": "D#6",
            "midi": 87,
            "time": 178.12178999999765,
            "velocity": 0.44881889763779526,
            "duration": 0.2698814999999968
        },
        {
            "name": "G5",
            "midi": 79,
            "time": 178.12178999999765,
            "velocity": 0.44881889763779526,
            "duration": 0.2698814999999968
        },
        {
            "name": "C#5",
            "midi": 73,
            "time": 178.12178999999765,
            "velocity": 0.3779527559055118,
            "duration": 0.2698814999999968
        },
        {
            "name": "B4",
            "midi": 71,
            "time": 178.39167149999764,
            "velocity": 0.3700787401574803,
            "duration": 0.05997366666667858
        },
        {
            "name": "G#5",
            "midi": 80,
            "time": 178.43665174999765,
            "velocity": 0.4094488188976378,
            "duration": 0.05997366666667858
        },
        {
            "name": "D#6",
            "midi": 87,
            "time": 178.48163199999766,
            "velocity": 0.5748031496062992,
            "duration": 0.6297235000000114
        },
        {
            "name": "C#5",
            "midi": 73,
            "time": 179.11135549999767,
            "velocity": 0.33858267716535434,
            "duration": 0.05997366666667858
        },
        {
            "name": "G5",
            "midi": 79,
            "time": 179.15633574999768,
            "velocity": 0.4015748031496063,
            "duration": 0.05997366666667858
        },
        {
            "name": "D#6",
            "midi": 87,
            "time": 179.2013159999977,
            "velocity": 0.5669291338582677,
            "duration": 0.6297235000000114
        },
        {
            "name": "B4",
            "midi": 71,
            "time": 179.8310394999977,
            "velocity": 0.31496062992125984,
            "duration": 0.05997366666667858
        },
        {
            "name": "G#5",
            "midi": 80,
            "time": 179.8760197499977,
            "velocity": 0.3937007874015748,
            "duration": 0.05997366666667858
        },
        {
            "name": "D#6",
            "midi": 87,
            "time": 179.92099999999772,
            "velocity": 0.5669291338582677,
            "duration": 0.6297235000000114
        },
        {
            "name": "C#5",
            "midi": 73,
            "time": 180.55072349999773,
            "velocity": 0.3543307086614173,
            "duration": 0.05997366666667858
        },
        {
            "name": "G5",
            "midi": 79,
            "time": 180.59570374999774,
            "velocity": 0.4094488188976378,
            "duration": 0.05997366666667858
        },
        {
            "name": "D#6",
            "midi": 87,
            "time": 180.64068399999775,
            "velocity": 0.5590551181102362,
            "duration": 0.7196840000000009
        },
        {
            "name": "B3",
            "midi": 59,
            "time": 181.36036799999775,
            "velocity": 0.3858267716535433,
            "duration": 0.08921082916666023
        },
        {
            "name": "G#4",
            "midi": 68,
            "time": 181.45032849999774,
            "velocity": 0.3937007874015748,
            "duration": 0.08921082916666023
        },
        {
            "name": "D#4",
            "midi": 63,
            "time": 181.54028899999773,
            "velocity": 0.4015748031496063,
            "duration": 0.08921082916666023
        },
        {
            "name": "G#4",
            "midi": 68,
            "time": 181.63024949999772,
            "velocity": 0.3700787401574803,
            "duration": 0.08921082916666023
        },
        {
            "name": "B3",
            "midi": 59,
            "time": 181.7202099999977,
            "velocity": 0.4094488188976378,
            "duration": 0.08921082916666023
        },
        {
            "name": "G#4",
            "midi": 68,
            "time": 181.8101704999977,
            "velocity": 0.41732283464566927,
            "duration": 0.08921082916666023
        },
        {
            "name": "D#4",
            "midi": 63,
            "time": 181.90013099999769,
            "velocity": 0.4251968503937008,
            "duration": 0.08921082916666023
        },
        {
            "name": "G#4",
            "midi": 68,
            "time": 181.99009149999767,
            "velocity": 0.4094488188976378,
            "duration": 0.08921082916666023
        },
        {
            "name": "B3",
            "midi": 59,
            "time": 182.08005199999766,
            "velocity": 0.44881889763779526,
            "duration": 0.08921082916666023
        },
        {
            "name": "G#4",
            "midi": 68,
            "time": 182.17001249999765,
            "velocity": 0.44881889763779526,
            "duration": 0.08921082916666023
        },
        {
            "name": "D#4",
            "midi": 63,
            "time": 182.25997299999764,
            "velocity": 0.4566929133858268,
            "duration": 0.08921082916666023
        },
        {
            "name": "G#4",
            "midi": 68,
            "time": 182.34993349999763,
            "velocity": 0.4251968503937008,
            "duration": 0.08921082916666023
        },
        {
            "name": "B3",
            "midi": 59,
            "time": 182.43989399999762,
            "velocity": 0.48031496062992124,
            "duration": 0.08921082916666023
        },
        {
            "name": "G#4",
            "midi": 68,
            "time": 182.5298544999976,
            "velocity": 0.4881889763779528,
            "duration": 0.08921082916666023
        },
        {
            "name": "D#4",
            "midi": 63,
            "time": 182.6198149999976,
            "velocity": 0.4881889763779528,
            "duration": 0.08921082916666023
        },
        {
            "name": "G#4",
            "midi": 68,
            "time": 182.7097754999976,
            "velocity": 0.44881889763779526,
            "duration": 0.08921082916666023
        },
        {
            "name": "C4",
            "midi": 60,
            "time": 182.79973599999758,
            "velocity": 0.5196850393700787,
            "duration": 0.08921082916666023
        },
        {
            "name": "F#4",
            "midi": 66,
            "time": 182.88969649999757,
            "velocity": 0.5275590551181102,
            "duration": 0.08921082916666023
        },
        {
            "name": "D#4",
            "midi": 63,
            "time": 182.97965699999756,
            "velocity": 0.5354330708661418,
            "duration": 0.08921082916666023
        },
        {
            "name": "F#4",
            "midi": 66,
            "time": 183.06961749999755,
            "velocity": 0.49606299212598426,
            "duration": 0.08921082916666023
        },
        {
            "name": "C4",
            "midi": 60,
            "time": 183.15957799999754,
            "velocity": 0.5433070866141733,
            "duration": 0.08921082916666023
        },
        {
            "name": "F#4",
            "midi": 66,
            "time": 183.24953849999753,
            "velocity": 0.5511811023622047,
            "duration": 0.08921082916666023
        },
        {
            "name": "D#4",
            "midi": 63,
            "time": 183.33949899999752,
            "velocity": 0.5590551181102362,
            "duration": 0.08921082916666023
        },
        {
            "name": "F#4",
            "midi": 66,
            "time": 183.4294594999975,
            "velocity": 0.5354330708661418,
            "duration": 0.08921082916666023
        },
        {
            "name": "C4",
            "midi": 60,
            "time": 183.5194199999975,
            "velocity": 0.5748031496062992,
            "duration": 0.08921082916666023
        },
        {
            "name": "F#4",
            "midi": 66,
            "time": 183.60938049999749,
            "velocity": 0.5826771653543307,
            "duration": 0.08921082916666023
        },
        {
            "name": "D#4",
            "midi": 63,
            "time": 183.69934099999747,
            "velocity": 0.5905511811023622,
            "duration": 0.08921082916666023
        },
        {
            "name": "F#4",
            "midi": 66,
            "time": 183.78930149999746,
            "velocity": 0.5511811023622047,
            "duration": 0.08921082916666023
        },
        {
            "name": "C4",
            "midi": 60,
            "time": 183.87926199999745,
            "velocity": 0.6141732283464567,
            "duration": 0.08921082916666023
        },
        {
            "name": "F#4",
            "midi": 66,
            "time": 183.96922249999744,
            "velocity": 0.6220472440944882,
            "duration": 0.08921082916666023
        },
        {
            "name": "D#4",
            "midi": 63,
            "time": 184.05918299999743,
            "velocity": 0.6220472440944882,
            "duration": 0.08921082916666023
        },
        {
            "name": "F#4",
            "midi": 66,
            "time": 184.14914349999742,
            "velocity": 0.5748031496062992,
            "duration": 0.08921082916666023
        },
        {
            "name": "C#4",
            "midi": 61,
            "time": 184.2391039999974,
            "velocity": 0.6299212598425197,
            "duration": 0.08996049999998945
        },
        {
            "name": "F4",
            "midi": 65,
            "time": 184.2391039999974,
            "velocity": 0.6299212598425197,
            "duration": 0.08996049999998945
        },
        {
            "name": "C#3",
            "midi": 49,
            "time": 184.3290644999974,
            "velocity": 0.4015748031496063,
            "duration": 0.1049539166666591
        },
        {
            "name": "F3",
            "midi": 53,
            "time": 184.4190249999974,
            "velocity": 0.4015748031496063,
            "duration": 0.1049539166666591
        },
        {
            "name": "G#3",
            "midi": 56,
            "time": 184.50898549999738,
            "velocity": 0.4094488188976378,
            "duration": 0.1049539166666591
        },
        {
            "name": "C#4",
            "midi": 61,
            "time": 184.59894599999737,
            "velocity": 0.4251968503937008,
            "duration": 0.1049539166666591
        },
        {
            "name": "F3",
            "midi": 53,
            "time": 184.68890649999736,
            "velocity": 0.3858267716535433,
            "duration": 0.1049539166666591
        },
        {
            "name": "G#3",
            "midi": 56,
            "time": 184.77886699999735,
            "velocity": 0.3937007874015748,
            "duration": 0.1049539166666591
        },
        {
            "name": "C#4",
            "midi": 61,
            "time": 184.86882749999734,
            "velocity": 0.4015748031496063,
            "duration": 0.1049539166666591
        },
        {
            "name": "F4",
            "midi": 65,
            "time": 184.95878799999733,
            "velocity": 0.4015748031496063,
            "duration": 0.1049539166666591
        },
        {
            "name": "G#3",
            "midi": 56,
            "time": 185.04874849999732,
            "velocity": 0.3779527559055118,
            "duration": 0.1049539166666591
        },
        {
            "name": "C#4",
            "midi": 61,
            "time": 185.1387089999973,
            "velocity": 0.3937007874015748,
            "duration": 0.1049539166666591
        },
        {
            "name": "F4",
            "midi": 65,
            "time": 185.2286694999973,
            "velocity": 0.4015748031496063,
            "duration": 0.1049539166666591
        },
        {
            "name": "G#4",
            "midi": 68,
            "time": 185.31862999999728,
            "velocity": 0.4094488188976378,
            "duration": 0.1049539166666591
        },
        {
            "name": "C#4",
            "midi": 61,
            "time": 185.40859049999727,
            "velocity": 0.3858267716535433,
            "duration": 0.1049539166666591
        },
        {
            "name": "F4",
            "midi": 65,
            "time": 185.49855099999726,
            "velocity": 0.3937007874015748,
            "duration": 0.1049539166666591
        },
        {
            "name": "G#4",
            "midi": 68,
            "time": 185.58851149999725,
            "velocity": 0.4015748031496063,
            "duration": 0.1049539166666591
        },
        {
            "name": "C#5",
            "midi": 73,
            "time": 185.67847199999724,
            "velocity": 0.4015748031496063,
            "duration": 0.1049539166666591
        },
        {
            "name": "F4",
            "midi": 65,
            "time": 185.76843249999723,
            "velocity": 0.3858267716535433,
            "duration": 0.1049539166666591
        },
        {
            "name": "G#4",
            "midi": 68,
            "time": 185.85839299999722,
            "velocity": 0.4015748031496063,
            "duration": 0.1049539166666591
        },
        {
            "name": "C#5",
            "midi": 73,
            "time": 185.9483534999972,
            "velocity": 0.4015748031496063,
            "duration": 0.1049539166666591
        },
        {
            "name": "F5",
            "midi": 77,
            "time": 186.0383139999972,
            "velocity": 0.4251968503937008,
            "duration": 0.1049539166666591
        },
        {
            "name": "G#4",
            "midi": 68,
            "time": 186.1282744999972,
            "velocity": 0.3858267716535433,
            "duration": 0.1049539166666591
        },
        {
            "name": "C#5",
            "midi": 73,
            "time": 186.21823499999718,
            "velocity": 0.4015748031496063,
            "duration": 0.1049539166666591
        },
        {
            "name": "F5",
            "midi": 77,
            "time": 186.30819549999717,
            "velocity": 0.4015748031496063,
            "duration": 0.1049539166666591
        },
        {
            "name": "G#5",
            "midi": 80,
            "time": 186.39815599999716,
            "velocity": 0.41732283464566927,
            "duration": 0.1049539166666591
        },
        {
            "name": "C#5",
            "midi": 73,
            "time": 186.48811649999715,
            "velocity": 0.3937007874015748,
            "duration": 0.1049539166666591
        },
        {
            "name": "F5",
            "midi": 77,
            "time": 186.57807699999714,
            "velocity": 0.4015748031496063,
            "duration": 0.1049539166666591
        },
        {
            "name": "G#5",
            "midi": 80,
            "time": 186.66803749999713,
            "velocity": 0.4094488188976378,
            "duration": 0.08996049999998945
        },
        {
            "name": "C#5",
            "midi": 73,
            "time": 186.75799799999712,
            "velocity": 0.6141732283464567,
            "duration": 0.08996049999998945
        },
        {
            "name": "F5",
            "midi": 77,
            "time": 186.75799799999712,
            "velocity": 0.6141732283464567,
            "duration": 0.08996049999998945
        },
        {
            "name": "G#5",
            "midi": 80,
            "time": 186.75799799999712,
            "velocity": 0.7322834645669292,
            "duration": 0.08996049999998945
        },
        {
            "name": "C#6",
            "midi": 85,
            "time": 186.75799799999712,
            "velocity": 0.7322834645669292,
            "duration": 0.08996049999998945
        },
        {
            "name": "G#5",
            "midi": 80,
            "time": 186.9379189999971,
            "velocity": 0.6141732283464567,
            "duration": 0.08996049999998945
        },
        {
            "name": "C#5",
            "midi": 73,
            "time": 186.9379189999971,
            "velocity": 0.5118110236220472,
            "duration": 0.08996049999998945
        },
        {
            "name": "C#6",
            "midi": 85,
            "time": 186.9379189999971,
            "velocity": 0.6141732283464567,
            "duration": 0.08996049999998945
        },
        {
            "name": "F5",
            "midi": 77,
            "time": 186.9379189999971,
            "velocity": 0.5118110236220472,
            "duration": 0.08996049999998945
        },
        {
            "name": "C#3",
            "midi": 49,
            "time": 187.2078004999971,
            "velocity": 0.4015748031496063,
            "duration": 0.1049539166666591
        },
        {
            "name": "F3",
            "midi": 53,
            "time": 187.29776099999708,
            "velocity": 0.4094488188976378,
            "duration": 0.1049539166666591
        },
        {
            "name": "G#3",
            "midi": 56,
            "time": 187.38772149999707,
            "velocity": 0.4251968503937008,
            "duration": 0.1049539166666591
        },
        {
            "name": "C#4",
            "midi": 61,
            "time": 187.47768199999706,
            "velocity": 0.4409448818897638,
            "duration": 0.1049539166666591
        },
        {
            "name": "F3",
            "midi": 53,
            "time": 187.56764249999705,
            "velocity": 0.4015748031496063,
            "duration": 0.1049539166666591
        },
        {
            "name": "G#3",
            "midi": 56,
            "time": 187.65760299999704,
            "velocity": 0.41732283464566927,
            "duration": 0.1049539166666591
        },
        {
            "name": "C#4",
            "midi": 61,
            "time": 187.74756349999703,
            "velocity": 0.4251968503937008,
            "duration": 0.1049539166666591
        },
        {
            "name": "F4",
            "midi": 65,
            "time": 187.83752399999702,
            "velocity": 0.4409448818897638,
            "duration": 0.1049539166666591
        },
        {
            "name": "G#3",
            "midi": 56,
            "time": 187.927484499997,
            "velocity": 0.4015748031496063,
            "duration": 0.1049539166666591
        },
        {
            "name": "C#4",
            "midi": 61,
            "time": 188.017444999997,
            "velocity": 0.41732283464566927,
            "duration": 0.1049539166666591
        },
        {
            "name": "F4",
            "midi": 65,
            "time": 188.107405499997,
            "velocity": 0.4409448818897638,
            "duration": 0.1049539166666591
        },
        {
            "name": "G#4",
            "midi": 68,
            "time": 188.19736599999698,
            "velocity": 0.44881889763779526,
            "duration": 0.1049539166666591
        },
        {
            "name": "C#4",
            "midi": 61,
            "time": 188.28732649999696,
            "velocity": 0.4015748031496063,
            "duration": 0.1049539166666591
        },
        {
            "name": "F4",
            "midi": 65,
            "time": 188.37728699999695,
            "velocity": 0.41732283464566927,
            "duration": 0.1049539166666591
        },
        {
            "name": "G#4",
            "midi": 68,
            "time": 188.46724749999694,
            "velocity": 0.4409448818897638,
            "duration": 0.1049539166666591
        },
        {
            "name": "C#5",
            "midi": 73,
            "time": 188.55720799999693,
            "velocity": 0.44881889763779526,
            "duration": 0.1049539166666591
        },
        {
            "name": "F4",
            "midi": 65,
            "time": 188.64716849999692,
            "velocity": 0.41732283464566927,
            "duration": 0.1049539166666591
        },
        {
            "name": "G#4",
            "midi": 68,
            "time": 188.7371289999969,
            "velocity": 0.4409448818897638,
            "duration": 0.1049539166666591
        },
        {
            "name": "C#5",
            "midi": 73,
            "time": 188.8270894999969,
            "velocity": 0.44881889763779526,
            "duration": 0.1049539166666591
        },
        {
            "name": "F5",
            "midi": 77,
            "time": 188.9170499999969,
            "velocity": 0.44881889763779526,
            "duration": 0.1049539166666591
        },
        {
            "name": "G#4",
            "midi": 68,
            "time": 189.00701049999688,
            "velocity": 0.4094488188976378,
            "duration": 0.1049539166666591
        },
        {
            "name": "C#5",
            "midi": 73,
            "time": 189.09697099999687,
            "velocity": 0.4251968503937008,
            "duration": 0.1049539166666591
        },
        {
            "name": "F5",
            "midi": 77,
            "time": 189.18693149999686,
            "velocity": 0.4409448818897638,
            "duration": 0.1049539166666591
        },
        {
            "name": "G#5",
            "midi": 80,
            "time": 189.27689199999685,
            "velocity": 0.4566929133858268,
            "duration": 0.1049539166666591
        },
        {
            "name": "C#5",
            "midi": 73,
            "time": 189.36685249999684,
            "velocity": 0.4094488188976378,
            "duration": 0.1049539166666591
        },
        {
            "name": "F5",
            "midi": 77,
            "time": 189.45681299999683,
            "velocity": 0.4409448818897638,
            "duration": 0.1049539166666591
        },
        {
            "name": "G#5",
            "midi": 80,
            "time": 189.54677349999682,
            "velocity": 0.4645669291338583,
            "duration": 0.08996049999998945
        },
        {
            "name": "C#5",
            "midi": 73,
            "time": 189.6367339999968,
            "velocity": 0.6141732283464567,
            "duration": 0.08996049999998945
        },
        {
            "name": "F5",
            "midi": 77,
            "time": 189.6367339999968,
            "velocity": 0.6141732283464567,
            "duration": 0.08996049999998945
        },
        {
            "name": "C#6",
            "midi": 85,
            "time": 189.6367339999968,
            "velocity": 0.7322834645669292,
            "duration": 0.08996049999998945
        },
        {
            "name": "G#5",
            "midi": 80,
            "time": 189.6367339999968,
            "velocity": 0.7322834645669292,
            "duration": 0.08996049999998945
        },
        {
            "name": "F5",
            "midi": 77,
            "time": 189.81665499999679,
            "velocity": 0.5275590551181102,
            "duration": 0.08996049999998945
        },
        {
            "name": "G#5",
            "midi": 80,
            "time": 189.81665499999679,
            "velocity": 0.6377952755905512,
            "duration": 0.08996049999998945
        },
        {
            "name": "C#5",
            "midi": 73,
            "time": 189.81665499999679,
            "velocity": 0.5275590551181102,
            "duration": 0.08996049999998945
        },
        {
            "name": "C#6",
            "midi": 85,
            "time": 189.81665499999679,
            "velocity": 0.6377952755905512,
            "duration": 0.08996049999998945
        },
        {
            "name": "C#3",
            "midi": 49,
            "time": 190.08653649999678,
            "velocity": 0.4881889763779528,
            "duration": 0.1049539166666591
        },
        {
            "name": "F#3",
            "midi": 54,
            "time": 190.17649699999677,
            "velocity": 0.4881889763779528,
            "duration": 0.1049539166666591
        },
        {
            "name": "A3",
            "midi": 57,
            "time": 190.26645749999676,
            "velocity": 0.5118110236220472,
            "duration": 0.1049539166666591
        },
        {
            "name": "C#4",
            "midi": 61,
            "time": 190.35641799999675,
            "velocity": 0.5275590551181102,
            "duration": 0.04498025000000894
        },
        {
            "name": "C#4",
            "midi": 61,
            "time": 190.44637849999677,
            "velocity": 0.4881889763779528,
            "duration": 0.1049539166666591
        },
        {
            "name": "F#4",
            "midi": 66,
            "time": 190.53633899999676,
            "velocity": 0.5118110236220472,
            "duration": 0.1049539166666591
        },
        {
            "name": "A4",
            "midi": 69,
            "time": 190.62629949999675,
            "velocity": 0.5275590551181102,
            "duration": 0.1049539166666591
        },
        {
            "name": "C#5",
            "midi": 73,
            "time": 190.71625999999674,
            "velocity": 0.5354330708661418,
            "duration": 0.04498025000000894
        },
        {
            "name": "C#5",
            "midi": 73,
            "time": 190.80622049999675,
            "velocity": 0.4881889763779528,
            "duration": 0.1049539166666591
        },
        {
            "name": "F#5",
            "midi": 78,
            "time": 190.89618099999674,
            "velocity": 0.5118110236220472,
            "duration": 0.1049539166666591
        },
        {
            "name": "A5",
            "midi": 81,
            "time": 190.98614149999673,
            "velocity": 0.5354330708661418,
            "duration": 0.08996049999998945
        },
        {
            "name": "F#5",
            "midi": 78,
            "time": 191.07610199999672,
            "velocity": 0.6692913385826772,
            "duration": 0.08996049999998945
        },
        {
            "name": "C#5",
            "midi": 73,
            "time": 191.07610199999672,
            "velocity": 0.6692913385826772,
            "duration": 0.08996049999998945
        },
        {
            "name": "A5",
            "midi": 81,
            "time": 191.07610199999672,
            "velocity": 0.7952755905511811,
            "duration": 0.08996049999998945
        },
        {
            "name": "C#6",
            "midi": 85,
            "time": 191.07610199999672,
            "velocity": 0.7952755905511811,
            "duration": 0.08996049999998945
        },
        {
            "name": "F#5",
            "midi": 78,
            "time": 191.2560229999967,
            "velocity": 0.5669291338582677,
            "duration": 0.08996049999998945
        },
        {
            "name": "C#6",
            "midi": 85,
            "time": 191.2560229999967,
            "velocity": 0.6771653543307087,
            "duration": 0.08996049999998945
        },
        {
            "name": "A5",
            "midi": 81,
            "time": 191.2560229999967,
            "velocity": 0.6771653543307087,
            "duration": 0.08996049999998945
        },
        {
            "name": "C#5",
            "midi": 73,
            "time": 191.2560229999967,
            "velocity": 0.5669291338582677,
            "duration": 0.08996049999998945
        },
        {
            "name": "C#3",
            "midi": 49,
            "time": 191.5259044999967,
            "velocity": 0.4881889763779528,
            "duration": 0.1049539166666591
        },
        {
            "name": "G#3",
            "midi": 56,
            "time": 191.6158649999967,
            "velocity": 0.4881889763779528,
            "duration": 0.1049539166666591
        },
        {
            "name": "B3",
            "midi": 59,
            "time": 191.70582549999668,
            "velocity": 0.5196850393700787,
            "duration": 0.1049539166666591
        },
        {
            "name": "C#4",
            "midi": 61,
            "time": 191.79578599999667,
            "velocity": 0.5354330708661418,
            "duration": 0.04498025000000894
        },
        {
            "name": "C#4",
            "midi": 61,
            "time": 191.88574649999669,
            "velocity": 0.4881889763779528,
            "duration": 0.1049539166666591
        },
        {
            "name": "G#4",
            "midi": 68,
            "time": 191.97570699999667,
            "velocity": 0.49606299212598426,
            "duration": 0.1049539166666591
        },
        {
            "name": "B4",
            "midi": 71,
            "time": 192.06566749999666,
            "velocity": 0.5275590551181102,
            "duration": 0.1049539166666591
        },
        {
            "name": "C#5",
            "midi": 73,
            "time": 192.15562799999665,
            "velocity": 0.5354330708661418,
            "duration": 0.04498025000000894
        },
        {
            "name": "C#5",
            "midi": 73,
            "time": 192.24558849999667,
            "velocity": 0.4881889763779528,
            "duration": 0.1049539166666591
        },
        {
            "name": "G#5",
            "midi": 80,
            "time": 192.33554899999666,
            "velocity": 0.49606299212598426,
            "duration": 0.1049539166666591
        },
        {
            "name": "B5",
            "midi": 83,
            "time": 192.42550949999665,
            "velocity": 0.5275590551181102,
            "duration": 0.08996049999998945
        },
        {
            "name": "C#5",
            "midi": 73,
            "time": 192.51546999999664,
            "velocity": 0.6929133858267716,
            "duration": 0.08996049999998945
        },
        {
            "name": "G#5",
            "midi": 80,
            "time": 192.51546999999664,
            "velocity": 0.6929133858267716,
            "duration": 0.08996049999998945
        },
        {
            "name": "C#6",
            "midi": 85,
            "time": 192.51546999999664,
            "velocity": 0.8188976377952756,
            "duration": 0.08996049999998945
        },
        {
            "name": "B5",
            "midi": 83,
            "time": 192.51546999999664,
            "velocity": 0.8188976377952756,
            "duration": 0.08996049999998945
        },
        {
            "name": "C#6",
            "midi": 85,
            "time": 192.69539099999662,
            "velocity": 0.7086614173228346,
            "duration": 0.08996049999998945
        },
        {
            "name": "B5",
            "midi": 83,
            "time": 192.69539099999662,
            "velocity": 0.7086614173228346,
            "duration": 0.08996049999998945
        },
        {
            "name": "G#5",
            "midi": 80,
            "time": 192.69539099999662,
            "velocity": 0.6062992125984252,
            "duration": 0.08996049999998945
        },
        {
            "name": "C#5",
            "midi": 73,
            "time": 192.69539099999662,
            "velocity": 0.6062992125984252,
            "duration": 0.08996049999998945
        },
        {
            "name": "C#5",
            "midi": 73,
            "time": 192.8753119999966,
            "velocity": 0.6377952755905512,
            "duration": 0.17992100000000733
        },
        {
            "name": "C#6",
            "midi": 85,
            "time": 192.8753119999966,
            "velocity": 0.7559055118110236,
            "duration": 0.17992100000000733
        },
        {
            "name": "A5",
            "midi": 81,
            "time": 192.8753119999966,
            "velocity": 0.7559055118110236,
            "duration": 0.17992100000000733
        },
        {
            "name": "F#5",
            "midi": 78,
            "time": 192.8753119999966,
            "velocity": 0.6377952755905512,
            "duration": 0.17992100000000733
        },
        {
            "name": "C#5",
            "midi": 73,
            "time": 193.2351539999966,
            "velocity": 0.5354330708661418,
            "duration": 0.7346774166666705
        },
        {
            "name": "A4",
            "midi": 69,
            "time": 193.9548379999966,
            "velocity": 0.4015748031496063,
            "duration": 0.2848749166666664
        },
        {
            "name": "F#4",
            "midi": 66,
            "time": 194.2247194999966,
            "velocity": 0.4015748031496063,
            "duration": 0.04498025000000894
        },
        {
            "name": "F4",
            "midi": 65,
            "time": 194.26969974999662,
            "velocity": 0.3228346456692913,
            "duration": 0.014993416666669646
        },
        {
            "name": "F#4",
            "midi": 66,
            "time": 194.2846931666633,
            "velocity": 0.3228346456692913,
            "duration": 0.014993416666669646
        },
        {
            "name": "G#4",
            "midi": 68,
            "time": 194.29968658332996,
            "velocity": 0.3228346456692913,
            "duration": 0.014993416666669646
        },
        {
            "name": "F#4",
            "midi": 66,
            "time": 194.31467999999663,
            "velocity": 0.4881889763779528,
            "duration": 0.3748354166666559
        },
        {
            "name": "F4",
            "midi": 65,
            "time": 194.6745219999966,
            "velocity": 0.4015748031496063,
            "duration": 0.5397629999999936
        },
        {
            "name": "F4",
            "midi": 65,
            "time": 195.2142849999966,
            "velocity": 0.4015748031496063,
            "duration": 0.19491441666667697
        },
        {
            "name": "C#5",
            "midi": 73,
            "time": 195.39420599999661,
            "velocity": 0.4409448818897638,
            "duration": 0.2698814999999968
        },
        {
            "name": "F4",
            "midi": 65,
            "time": 195.6640874999966,
            "velocity": 0.4015748031496063,
            "duration": 0.08996049999998945
        },
        {
            "name": "G#4",
            "midi": 68,
            "time": 195.7540479999966,
            "velocity": 0.4015748031496063,
            "duration": 0.3748354166666559
        },
        {
            "name": "F#4",
            "midi": 66,
            "time": 196.1138899999966,
            "velocity": 0.4015748031496063,
            "duration": 0.5397629999999936
        },
        {
            "name": "F#4",
            "midi": 66,
            "time": 196.65365299999658,
            "velocity": 0.4094488188976378,
            "duration": 0.19491441666667697
        },
        {
            "name": "C#5",
            "midi": 73,
            "time": 196.8335739999966,
            "velocity": 0.4409448818897638,
            "duration": 0.2848749166666664
        },
        {
            "name": "F#4",
            "midi": 66,
            "time": 197.10345549999658,
            "velocity": 0.4015748031496063,
            "duration": 0.08996049999998945
        },
        {
            "name": "A4",
            "midi": 69,
            "time": 197.19341599999657,
            "velocity": 0.3858267716535433,
            "duration": 0.3748354166666559
        },
        {
            "name": "G#4",
            "midi": 68,
            "time": 197.55325799999656,
            "velocity": 0.4094488188976378,
            "duration": 0.5397629999999936
        },
        {
            "name": "G#4",
            "midi": 68,
            "time": 198.09302099999655,
            "velocity": 0.4094488188976378,
            "duration": 0.19491441666667697
        },
        {
            "name": "C#5",
            "midi": 73,
            "time": 198.27294199999656,
            "velocity": 0.4566929133858268,
            "duration": 0.2698814999999968
        },
        {
            "name": "G#4",
            "midi": 68,
            "time": 198.54282349999656,
            "velocity": 0.4015748031496063,
            "duration": 0.08996049999998945
        },
        {
            "name": "A4",
            "midi": 69,
            "time": 198.63278399999655,
            "velocity": 0.30708661417322836,
            "duration": 0.1049539166666591
        },
        {
            "name": "C#5",
            "midi": 73,
            "time": 198.72274449999654,
            "velocity": 0.2440944881889764,
            "duration": 0.1049539166666591
        },
        {
            "name": "A4",
            "midi": 69,
            "time": 198.81270499999653,
            "velocity": 0.2677165354330709,
            "duration": 0.1049539166666591
        },
        {
            "name": "C#5",
            "midi": 73,
            "time": 198.90266549999652,
            "velocity": 0.23622047244094488,
            "duration": 0.1049539166666591
        },
        {
            "name": "F#4",
            "midi": 66,
            "time": 198.9926259999965,
            "velocity": 0.30708661417322836,
            "duration": 0.1049539166666591
        },
        {
            "name": "C#5",
            "midi": 73,
            "time": 199.0825864999965,
            "velocity": 0.2440944881889764,
            "duration": 0.1049539166666591
        },
        {
            "name": "A4",
            "midi": 69,
            "time": 199.17254699999648,
            "velocity": 0.2677165354330709,
            "duration": 0.1049539166666591
        },
        {
            "name": "C#5",
            "midi": 73,
            "time": 199.26250749999647,
            "velocity": 0.2440944881889764,
            "duration": 0.1049539166666591
        },
        {
            "name": "F#4",
            "midi": 66,
            "time": 199.35246799999646,
            "velocity": 0.30708661417322836,
            "duration": 0.1049539166666591
        },
        {
            "name": "C#5",
            "midi": 73,
            "time": 199.44242849999645,
            "velocity": 0.25196850393700787,
            "duration": 0.1049539166666591
        },
        {
            "name": "A4",
            "midi": 69,
            "time": 199.53238899999644,
            "velocity": 0.2677165354330709,
            "duration": 0.1049539166666591
        },
        {
            "name": "C#5",
            "midi": 73,
            "time": 199.62234949999643,
            "velocity": 0.23622047244094488,
            "duration": 0.1049539166666591
        },
        {
            "name": "F#4",
            "midi": 66,
            "time": 199.71230999999642,
            "velocity": 0.30708661417322836,
            "duration": 0.1049539166666591
        },
        {
            "name": "C#5",
            "midi": 73,
            "time": 199.8022704999964,
            "velocity": 0.25196850393700787,
            "duration": 0.1049539166666591
        },
        {
            "name": "A4",
            "midi": 69,
            "time": 199.8922309999964,
            "velocity": 0.2677165354330709,
            "duration": 0.1049539166666591
        },
        {
            "name": "C#5",
            "midi": 73,
            "time": 199.9821914999964,
            "velocity": 0.2440944881889764,
            "duration": 0.1049539166666591
        },
        {
            "name": "G#4",
            "midi": 68,
            "time": 200.07215199999638,
            "velocity": 0.30708661417322836,
            "duration": 0.1049539166666591
        },
        {
            "name": "C#5",
            "midi": 73,
            "time": 200.16211249999637,
            "velocity": 0.25196850393700787,
            "duration": 0.1049539166666591
        },
        {
            "name": "B4",
            "midi": 71,
            "time": 200.25207299999636,
            "velocity": 0.2677165354330709,
            "duration": 0.1049539166666591
        },
        {
            "name": "C#5",
            "midi": 73,
            "time": 200.34203349999635,
            "velocity": 0.25196850393700787,
            "duration": 0.1049539166666591
        },
        {
            "name": "G#4",
            "midi": 68,
            "time": 200.43199399999634,
            "velocity": 0.3700787401574803,
            "duration": 0.1049539166666591
        },
        {
            "name": "C#5",
            "midi": 73,
            "time": 200.52195449999633,
            "velocity": 0.3228346456692913,
            "duration": 0.1049539166666591
        },
        {
            "name": "B4",
            "midi": 71,
            "time": 200.61191499999632,
            "velocity": 0.3700787401574803,
            "duration": 0.1049539166666591
        },
        {
            "name": "C#5",
            "midi": 73,
            "time": 200.7018754999963,
            "velocity": 0.3464566929133858,
            "duration": 0.1049539166666591
        },
        {
            "name": "G#4",
            "midi": 68,
            "time": 200.7918359999963,
            "velocity": 0.4566929133858268,
            "duration": 0.1049539166666591
        },
        {
            "name": "C#5",
            "midi": 73,
            "time": 200.88179649999628,
            "velocity": 0.3700787401574803,
            "duration": 0.1049539166666591
        },
        {
            "name": "B4",
            "midi": 71,
            "time": 200.97175699999627,
            "velocity": 0.4251968503937008,
            "duration": 0.1049539166666591
        },
        {
            "name": "C#5",
            "midi": 73,
            "time": 201.06171749999626,
            "velocity": 0.3937007874015748,
            "duration": 0.1049539166666591
        },
        {
            "name": "G#4",
            "midi": 68,
            "time": 201.15167799999625,
            "velocity": 0.5039370078740157,
            "duration": 0.1049539166666591
        },
        {
            "name": "C#5",
            "midi": 73,
            "time": 201.24163849999624,
            "velocity": 0.3858267716535433,
            "duration": 0.1049539166666591
        },
        {
            "name": "B4",
            "midi": 71,
            "time": 201.33159899999623,
            "velocity": 0.4015748031496063,
            "duration": 0.1049539166666591
        },
        {
            "name": "C#5",
            "midi": 73,
            "time": 201.42155949999622,
            "velocity": 0.3464566929133858,
            "duration": 0.1049539166666591
        },
        {
            "name": "F#4",
            "midi": 66,
            "time": 201.5115199999962,
            "velocity": 0.30708661417322836,
            "duration": 0.1049539166666591
        },
        {
            "name": "C#5",
            "midi": 73,
            "time": 201.6014804999962,
            "velocity": 0.2440944881889764,
            "duration": 0.1049539166666591
        },
        {
            "name": "A4",
            "midi": 69,
            "time": 201.6914409999962,
            "velocity": 0.2677165354330709,
            "duration": 0.1049539166666591
        },
        {
            "name": "C#5",
            "midi": 73,
            "time": 201.78140149999618,
            "velocity": 0.30708661417322836,
            "duration": 0.1049539166666591
        },
        {
            "name": "F#4",
            "midi": 66,
            "time": 201.87136199999617,
            "velocity": 0.3779527559055118,
            "duration": 0.1049539166666591
        },
        {
            "name": "C#5",
            "midi": 73,
            "time": 201.96132249999616,
            "velocity": 0.33070866141732286,
            "duration": 0.1049539166666591
        },
        {
            "name": "A4",
            "midi": 69,
            "time": 202.05128299999615,
            "velocity": 0.3779527559055118,
            "duration": 0.1049539166666591
        },
        {
            "name": "C#5",
            "midi": 73,
            "time": 202.14124349999614,
            "velocity": 0.3543307086614173,
            "duration": 0.1049539166666591
        },
        {
            "name": "F#4",
            "midi": 66,
            "time": 202.23120399999613,
            "velocity": 0.4566929133858268,
            "duration": 0.1049539166666591
        },
        {
            "name": "C#5",
            "midi": 73,
            "time": 202.32116449999612,
            "velocity": 0.3779527559055118,
            "duration": 0.1049539166666591
        },
        {
            "name": "A4",
            "midi": 69,
            "time": 202.4111249999961,
            "velocity": 0.4251968503937008,
            "duration": 0.1049539166666591
        },
        {
            "name": "C#5",
            "midi": 73,
            "time": 202.5010854999961,
            "velocity": 0.3937007874015748,
            "duration": 0.1049539166666591
        },
        {
            "name": "F#4",
            "midi": 66,
            "time": 202.59104599999608,
            "velocity": 0.5039370078740157,
            "duration": 0.1049539166666591
        },
        {
            "name": "C#5",
            "midi": 73,
            "time": 202.68100649999607,
            "velocity": 0.4015748031496063,
            "duration": 0.1049539166666591
        },
        {
            "name": "A4",
            "midi": 69,
            "time": 202.77096699999606,
            "velocity": 0.4015748031496063,
            "duration": 0.1049539166666591
        },
        {
            "name": "C#5",
            "midi": 73,
            "time": 202.86092749999605,
            "velocity": 0.3543307086614173,
            "duration": 0.1049539166666591
        },
        {
            "name": "F#4",
            "midi": 66,
            "time": 202.95088799999604,
            "velocity": 0.30708661417322836,
            "duration": 0.1049539166666591
        },
        {
            "name": "D5",
            "midi": 74,
            "time": 203.04084849999603,
            "velocity": 0.2440944881889764,
            "duration": 0.1049539166666591
        },
        {
            "name": "A4",
            "midi": 69,
            "time": 203.13080899999602,
            "velocity": 0.2677165354330709,
            "duration": 0.1049539166666591
        },
        {
            "name": "D5",
            "midi": 74,
            "time": 203.220769499996,
            "velocity": 0.25196850393700787,
            "duration": 0.1049539166666591
        },
        {
            "name": "F#4",
            "midi": 66,
            "time": 203.310729999996,
            "velocity": 0.3543307086614173,
            "duration": 0.1049539166666591
        },
        {
            "name": "D5",
            "midi": 74,
            "time": 203.400690499996,
            "velocity": 0.2440944881889764,
            "duration": 0.1049539166666591
        },
        {
            "name": "A4",
            "midi": 69,
            "time": 203.49065099999598,
            "velocity": 0.2677165354330709,
            "duration": 0.1049539166666591
        },
        {
            "name": "D5",
            "midi": 74,
            "time": 203.58061149999597,
            "velocity": 0.2677165354330709,
            "duration": 0.1049539166666591
        },
        {
            "name": "A4",
            "midi": 69,
            "time": 203.67057199999596,
            "velocity": 0.3779527559055118,
            "duration": 0.1049539166666591
        },
        {
            "name": "D5",
            "midi": 74,
            "time": 203.76053249999595,
            "velocity": 0.2677165354330709,
            "duration": 0.1049539166666591
        },
        {
            "name": "C5",
            "midi": 72,
            "time": 203.85049299999594,
            "velocity": 0.2992125984251969,
            "duration": 0.1049539166666591
        },
        {
            "name": "D5",
            "midi": 74,
            "time": 203.94045349999593,
            "velocity": 0.2677165354330709,
            "duration": 0.1049539166666591
        },
        {
            "name": "A4",
            "midi": 69,
            "time": 204.03041399999591,
            "velocity": 0.41732283464566927,
            "duration": 0.1049539166666591
        },
        {
            "name": "D5",
            "midi": 74,
            "time": 204.1203744999959,
            "velocity": 0.2677165354330709,
            "duration": 0.1049539166666591
        },
        {
            "name": "C5",
            "midi": 72,
            "time": 204.2103349999959,
            "velocity": 0.30708661417322836,
            "duration": 0.1049539166666591
        },
        {
            "name": "D5",
            "midi": 74,
            "time": 204.30029549999588,
            "velocity": 0.2677165354330709,
            "duration": 0.1049539166666591
        },
        {
            "name": "G4",
            "midi": 67,
            "time": 204.39025599999587,
            "velocity": 0.41732283464566927,
            "duration": 0.1049539166666591
        },
        {
            "name": "D5",
            "midi": 74,
            "time": 204.48021649999586,
            "velocity": 0.25196850393700787,
            "duration": 0.1049539166666591
        },
        {
            "name": "B4",
            "midi": 71,
            "time": 204.57017699999585,
            "velocity": 0.2677165354330709,
            "duration": 0.1049539166666591
        },
        {
            "name": "D5",
            "midi": 74,
            "time": 204.66013749999584,
            "velocity": 0.25196850393700787,
            "duration": 0.1049539166666591
        },
        {
            "name": "G4",
            "midi": 67,
            "time": 204.75009799999583,
            "velocity": 0.30708661417322836,
            "duration": 0.1049539166666591
        },
        {
            "name": "D5",
            "midi": 74,
            "time": 204.84005849999582,
            "velocity": 0.25984251968503935,
            "duration": 0.1049539166666591
        },
        {
            "name": "B4",
            "midi": 71,
            "time": 204.9300189999958,
            "velocity": 0.2755905511811024,
            "duration": 0.1049539166666591
        },
        {
            "name": "D5",
            "midi": 74,
            "time": 205.0199794999958,
            "velocity": 0.2440944881889764,
            "duration": 0.1049539166666591
        },
        {
            "name": "G4",
            "midi": 67,
            "time": 205.1099399999958,
            "velocity": 0.30708661417322836,
            "duration": 0.1049539166666591
        },
        {
            "name": "D5",
            "midi": 74,
            "time": 205.19990049999578,
            "velocity": 0.25196850393700787,
            "duration": 0.1049539166666591
        },
        {
            "name": "B4",
            "midi": 71,
            "time": 205.28986099999577,
            "velocity": 0.2677165354330709,
            "duration": 0.1049539166666591
        },
        {
            "name": "D5",
            "midi": 74,
            "time": 205.37982149999576,
            "velocity": 0.2440944881889764,
            "duration": 0.1049539166666591
        },
        {
            "name": "G4",
            "midi": 67,
            "time": 205.46978199999575,
            "velocity": 0.30708661417322836,
            "duration": 0.1049539166666591
        },
        {
            "name": "D5",
            "midi": 74,
            "time": 205.55974249999574,
            "velocity": 0.25196850393700787,
            "duration": 0.1049539166666591
        },
        {
            "name": "B4",
            "midi": 71,
            "time": 205.64970299999572,
            "velocity": 0.2677165354330709,
            "duration": 0.1049539166666591
        },
        {
            "name": "D5",
            "midi": 74,
            "time": 205.73966349999571,
            "velocity": 0.25196850393700787,
            "duration": 0.1049539166666591
        },
        {
            "name": "A4",
            "midi": 69,
            "time": 205.8296239999957,
            "velocity": 0.30708661417322836,
            "duration": 0.1049539166666591
        },
        {
            "name": "D5",
            "midi": 74,
            "time": 205.9195844999957,
            "velocity": 0.25196850393700787,
            "duration": 0.1049539166666591
        },
        {
            "name": "C5",
            "midi": 72,
            "time": 206.00954499999568,
            "velocity": 0.2755905511811024,
            "duration": 0.1049539166666591
        },
        {
            "name": "D5",
            "midi": 74,
            "time": 206.09950549999567,
            "velocity": 0.25196850393700787,
            "duration": 0.1049539166666591
        },
        {
            "name": "A4",
            "midi": 69,
            "time": 206.18946599999566,
            "velocity": 0.3937007874015748,
            "duration": 0.1049539166666591
        },
        {
            "name": "D5",
            "midi": 74,
            "time": 206.27942649999565,
            "velocity": 0.3228346456692913,
            "duration": 0.1049539166666591
        },
        {
            "name": "C5",
            "midi": 72,
            "time": 206.36938699999564,
            "velocity": 0.3700787401574803,
            "duration": 0.1049539166666591
        },
        {
            "name": "D5",
            "midi": 74,
            "time": 206.45934749999563,
            "velocity": 0.3464566929133858,
            "duration": 0.1049539166666591
        },
        {
            "name": "A4",
            "midi": 69,
            "time": 206.54930799999562,
            "velocity": 0.4566929133858268,
            "duration": 0.1049539166666591
        },
        {
            "name": "D5",
            "midi": 74,
            "time": 206.6392684999956,
            "velocity": 0.36220472440944884,
            "duration": 0.1049539166666591
        },
        {
            "name": "C5",
            "midi": 72,
            "time": 206.7292289999956,
            "velocity": 0.4251968503937008,
            "duration": 0.1049539166666591
        },
        {
            "name": "D5",
            "midi": 74,
            "time": 206.8191894999956,
            "velocity": 0.3858267716535433,
            "duration": 0.1049539166666591
        },
        {
            "name": "A4",
            "midi": 69,
            "time": 206.90914999999558,
            "velocity": 0.49606299212598426,
            "duration": 0.1049539166666591
        },
        {
            "name": "D5",
            "midi": 74,
            "time": 206.99911049999557,
            "velocity": 0.3858267716535433,
            "duration": 0.1049539166666591
        },
        {
            "name": "C5",
            "midi": 72,
            "time": 207.08907099999556,
            "velocity": 0.4015748031496063,
            "duration": 0.1049539166666591
        },
        {
            "name": "D5",
            "midi": 74,
            "time": 207.17903149999555,
            "velocity": 0.3464566929133858,
            "duration": 0.1049539166666591
        },
        {
            "name": "G4",
            "midi": 67,
            "time": 207.26899199999554,
            "velocity": 0.30708661417322836,
            "duration": 0.1049539166666591
        },
        {
            "name": "D5",
            "midi": 74,
            "time": 207.35895249999552,
            "velocity": 0.25196850393700787,
            "duration": 0.1049539166666591
        },
        {
            "name": "B4",
            "midi": 71,
            "time": 207.4489129999955,
            "velocity": 0.2677165354330709,
            "duration": 0.1049539166666591
        },
        {
            "name": "D5",
            "midi": 74,
            "time": 207.5388734999955,
            "velocity": 0.2440944881889764,
            "duration": 0.1049539166666591
        },
        {
            "name": "G4",
            "midi": 67,
            "time": 207.6288339999955,
            "velocity": 0.3937007874015748,
            "duration": 0.1049539166666591
        },
        {
            "name": "D5",
            "midi": 74,
            "time": 207.71879449999548,
            "velocity": 0.33070866141732286,
            "duration": 0.1049539166666591
        },
        {
            "name": "B4",
            "midi": 71,
            "time": 207.80875499999547,
            "velocity": 0.3779527559055118,
            "duration": 0.1049539166666591
        },
        {
            "name": "D5",
            "midi": 74,
            "time": 207.89871549999546,
            "velocity": 0.36220472440944884,
            "duration": 0.1049539166666591
        },
        {
            "name": "G4",
            "midi": 67,
            "time": 207.98867599999545,
            "velocity": 0.48031496062992124,
            "duration": 0.1049539166666591
        },
        {
            "name": "D5",
            "midi": 74,
            "time": 208.07863649999544,
            "velocity": 0.3858267716535433,
            "duration": 0.1049539166666591
        },
        {
            "name": "B4",
            "midi": 71,
            "time": 208.16859699999543,
            "velocity": 0.4330708661417323,
            "duration": 0.1049539166666591
        },
        {
            "name": "D5",
            "midi": 74,
            "time": 208.25855749999542,
            "velocity": 0.4094488188976378,
            "duration": 0.1049539166666591
        },
        {
            "name": "G4",
            "midi": 67,
            "time": 208.3485179999954,
            "velocity": 0.5433070866141733,
            "duration": 0.1049539166666591
        },
        {
            "name": "D5",
            "midi": 74,
            "time": 208.4384784999954,
            "velocity": 0.4251968503937008,
            "duration": 0.1049539166666591
        },
        {
            "name": "B4",
            "midi": 71,
            "time": 208.5284389999954,
            "velocity": 0.4330708661417323,
            "duration": 0.1049539166666591
        },
        {
            "name": "D5",
            "midi": 74,
            "time": 208.61839949999538,
            "velocity": 0.3543307086614173,
            "duration": 0.1049539166666591
        },
        {
            "name": "G#4",
            "midi": 68,
            "time": 208.70835999999537,
            "velocity": 0.33858267716535434,
            "duration": 0.1049539166666591
        },
        {
            "name": "D5",
            "midi": 74,
            "time": 208.79832049999536,
            "velocity": 0.2677165354330709,
            "duration": 0.1049539166666591
        },
        {
            "name": "B4",
            "midi": 71,
            "time": 208.88828099999535,
            "velocity": 0.2992125984251969,
            "duration": 0.1049539166666591
        },
        {
            "name": "D5",
            "midi": 74,
            "time": 208.97824149999533,
            "velocity": 0.2677165354330709,
            "duration": 0.1049539166666591
        },
        {
            "name": "G#4",
            "midi": 68,
            "time": 209.06820199999532,
            "velocity": 0.4409448818897638,
            "duration": 0.1049539166666591
        },
        {
            "name": "C#5",
            "midi": 73,
            "time": 209.1581624999953,
            "velocity": 0.3543307086614173,
            "duration": 0.1049539166666591
        },
        {
            "name": "B4",
            "midi": 71,
            "time": 209.2481229999953,
            "velocity": 0.4251968503937008,
            "duration": 0.1049539166666591
        },
        {
            "name": "C#5",
            "midi": 73,
            "time": 209.3380834999953,
            "velocity": 0.3779527559055118,
            "duration": 0.1049539166666591
        },
        {
            "name": "G#4",
            "midi": 68,
            "time": 209.42804399999528,
            "velocity": 0.5275590551181102,
            "duration": 0.1049539166666591
        },
        {
            "name": "C#5",
            "midi": 73,
            "time": 209.51800449999527,
            "velocity": 0.4094488188976378,
            "duration": 0.1049539166666591
        },
        {
            "name": "B4",
            "midi": 71,
            "time": 209.60796499999526,
            "velocity": 0.5118110236220472,
            "duration": 0.1049539166666591
        },
        {
            "name": "C#5",
            "midi": 73,
            "time": 209.69792549999525,
            "velocity": 0.4330708661417323,
            "duration": 0.1049539166666591
        },
        {
            "name": "G#4",
            "midi": 68,
            "time": 209.78788599999524,
            "velocity": 0.6141732283464567,
            "duration": 0.1049539166666591
        },
        {
            "name": "C#5",
            "midi": 73,
            "time": 209.87784649999523,
            "velocity": 0.4645669291338583,
            "duration": 0.1049539166666591
        },
        {
            "name": "B4",
            "midi": 71,
            "time": 209.96780699999522,
            "velocity": 0.48031496062992124,
            "duration": 0.1049539166666591
        },
        {
            "name": "C#5",
            "midi": 73,
            "time": 210.0577674999952,
            "velocity": 0.3858267716535433,
            "duration": 0.1049539166666591
        },
        {
            "name": "F#4",
            "midi": 66,
            "time": 210.1477279999952,
            "velocity": 0.44881889763779526,
            "duration": 0.1049539166666591
        },
        {
            "name": "C#5",
            "midi": 73,
            "time": 210.2376884999952,
            "velocity": 0.3464566929133858,
            "duration": 0.1049539166666591
        },
        {
            "name": "A4",
            "midi": 69,
            "time": 210.32764899999518,
            "velocity": 0.3700787401574803,
            "duration": 0.1049539166666591
        },
        {
            "name": "C#5",
            "midi": 73,
            "time": 210.41760949999517,
            "velocity": 0.33858267716535434,
            "duration": 0.1049539166666591
        },
        {
            "name": "F#4",
            "midi": 66,
            "time": 210.50756999999516,
            "velocity": 0.4409448818897638,
            "duration": 0.1049539166666591
        },
        {
            "name": "C#5",
            "midi": 73,
            "time": 210.59753049999514,
            "velocity": 0.3464566929133858,
            "duration": 0.1049539166666591
        },
        {
            "name": "A4",
            "midi": 69,
            "time": 210.68749099999513,
            "velocity": 0.3700787401574803,
            "duration": 0.1049539166666591
        },
        {
            "name": "C#5",
            "midi": 73,
            "time": 210.77745149999512,
            "velocity": 0.3464566929133858,
            "duration": 0.1049539166666591
        },
        {
            "name": "F#4",
            "midi": 66,
            "time": 210.8674119999951,
            "velocity": 0.4409448818897638,
            "duration": 0.1049539166666591
        },
        {
            "name": "F#5",
            "midi": 78,
            "time": 210.9573724999951,
            "velocity": 0.33858267716535434,
            "duration": 0.1049539166666591
        },
        {
            "name": "A4",
            "midi": 69,
            "time": 211.0473329999951,
            "velocity": 0.36220472440944884,
            "duration": 0.1049539166666591
        },
        {
            "name": "F#5",
            "midi": 78,
            "time": 211.13729349999508,
            "velocity": 0.33070866141732286,
            "duration": 0.1049539166666591
        },
        {
            "name": "F#4",
            "midi": 66,
            "time": 211.22725399999507,
            "velocity": 0.4251968503937008,
            "duration": 0.1049539166666591
        },
        {
            "name": "F#5",
            "midi": 78,
            "time": 211.31721449999506,
            "velocity": 0.3543307086614173,
            "duration": 0.1049539166666591
        },
        {
            "name": "A4",
            "midi": 69,
            "time": 211.40717499999505,
            "velocity": 0.3700787401574803,
            "duration": 0.1049539166666591
        },
        {
            "name": "F#5",
            "midi": 78,
            "time": 211.49713549999504,
            "velocity": 0.33858267716535434,
            "duration": 0.1049539166666591
        },
        {
            "name": "F#4",
            "midi": 66,
            "time": 211.58709599999503,
            "velocity": 0.4881889763779528,
            "duration": 0.1049539166666591
        },
        {
            "name": "F#5",
            "midi": 78,
            "time": 211.67705649999502,
            "velocity": 0.3228346456692913,
            "duration": 0.1049539166666591
        },
        {
            "name": "D#5",
            "midi": 75,
            "time": 211.767016999995,
            "velocity": 0.3700787401574803,
            "duration": 0.1049539166666591
        },
        {
            "name": "G#4",
            "midi": 68,
            "time": 211.767016999995,
            "velocity": 0.3700787401574803,
            "duration": 0.1049539166666591
        },
        {
            "name": "F#5",
            "midi": 78,
            "time": 211.856977499995,
            "velocity": 0.33070866141732286,
            "duration": 0.1049539166666591
        },
        {
            "name": "F#4",
            "midi": 66,
            "time": 211.946937999995,
            "velocity": 0.4645669291338583,
            "duration": 0.1049539166666591
        },
        {
            "name": "F#5",
            "midi": 78,
            "time": 212.03689849999498,
            "velocity": 0.33858267716535434,
            "duration": 0.1049539166666591
        },
        {
            "name": "D#5",
            "midi": 75,
            "time": 212.12685899999497,
            "velocity": 0.3700787401574803,
            "duration": 0.1049539166666591
        },
        {
            "name": "G#4",
            "midi": 68,
            "time": 212.12685899999497,
            "velocity": 0.3700787401574803,
            "duration": 0.1049539166666591
        },
        {
            "name": "F#5",
            "midi": 78,
            "time": 212.21681949999495,
            "velocity": 0.3464566929133858,
            "duration": 0.1049539166666591
        },
        {
            "name": "F#4",
            "midi": 66,
            "time": 212.30677999999494,
            "velocity": 0.4566929133858268,
            "duration": 0.1049539166666591
        },
        {
            "name": "F#5",
            "midi": 78,
            "time": 212.39674049999493,
            "velocity": 0.3543307086614173,
            "duration": 0.1049539166666591
        },
        {
            "name": "G#4",
            "midi": 68,
            "time": 212.48670099999492,
            "velocity": 0.3700787401574803,
            "duration": 0.1049539166666591
        },
        {
            "name": "D#5",
            "midi": 75,
            "time": 212.48670099999492,
            "velocity": 0.3700787401574803,
            "duration": 0.1049539166666591
        },
        {
            "name": "F#5",
            "midi": 78,
            "time": 212.5766614999949,
            "velocity": 0.33070866141732286,
            "duration": 0.1049539166666591
        },
        {
            "name": "F#4",
            "midi": 66,
            "time": 212.6666219999949,
            "velocity": 0.4566929133858268,
            "duration": 0.1049539166666591
        },
        {
            "name": "F#5",
            "midi": 78,
            "time": 212.7565824999949,
            "velocity": 0.33858267716535434,
            "duration": 0.1049539166666591
        },
        {
            "name": "D#5",
            "midi": 75,
            "time": 212.84654299999488,
            "velocity": 0.3700787401574803,
            "duration": 0.1049539166666591
        },
        {
            "name": "G#4",
            "midi": 68,
            "time": 212.84654299999488,
            "velocity": 0.3700787401574803,
            "duration": 0.1049539166666591
        },
        {
            "name": "F#5",
            "midi": 78,
            "time": 212.93650349999487,
            "velocity": 0.33070866141732286,
            "duration": 0.1049539166666591
        },
        {
            "name": "E4",
            "midi": 64,
            "time": 213.02646399999486,
            "velocity": 0.5118110236220472,
            "duration": 0.1049539166666591
        },
        {
            "name": "E5",
            "midi": 76,
            "time": 213.11642449999485,
            "velocity": 0.4094488188976378,
            "duration": 0.1049539166666591
        },
        {
            "name": "C#5",
            "midi": 73,
            "time": 213.20638499999484,
            "velocity": 0.4409448818897638,
            "duration": 0.1049539166666591
        },
        {
            "name": "E5",
            "midi": 76,
            "time": 213.29634549999483,
            "velocity": 0.4094488188976378,
            "duration": 0.1049539166666591
        },
        {
            "name": "E4",
            "midi": 64,
            "time": 213.38630599999482,
            "velocity": 0.5118110236220472,
            "duration": 0.1049539166666591
        },
        {
            "name": "E5",
            "midi": 76,
            "time": 213.4762664999948,
            "velocity": 0.4094488188976378,
            "duration": 0.1049539166666591
        },
        {
            "name": "C#5",
            "midi": 73,
            "time": 213.5662269999948,
            "velocity": 0.4409448818897638,
            "duration": 0.1049539166666591
        },
        {
            "name": "E5",
            "midi": 76,
            "time": 213.6561874999948,
            "velocity": 0.4015748031496063,
            "duration": 0.1049539166666591
        },
        {
            "name": "E4",
            "midi": 64,
            "time": 213.74614799999478,
            "velocity": 0.5118110236220472,
            "duration": 0.1049539166666591
        },
        {
            "name": "E5",
            "midi": 76,
            "time": 213.83610849999476,
            "velocity": 0.41732283464566927,
            "duration": 0.1049539166666591
        },
        {
            "name": "C#5",
            "midi": 73,
            "time": 213.92606899999475,
            "velocity": 0.44881889763779526,
            "duration": 0.1049539166666591
        },
        {
            "name": "E5",
            "midi": 76,
            "time": 214.01602949999474,
            "velocity": 0.4015748031496063,
            "duration": 0.1049539166666591
        },
        {
            "name": "E4",
            "midi": 64,
            "time": 214.10598999999473,
            "velocity": 0.5118110236220472,
            "duration": 0.1049539166666591
        },
        {
            "name": "E5",
            "midi": 76,
            "time": 214.19595049999472,
            "velocity": 0.41732283464566927,
            "duration": 0.1049539166666591
        },
        {
            "name": "C#5",
            "midi": 73,
            "time": 214.2859109999947,
            "velocity": 0.44881889763779526,
            "duration": 0.1049539166666591
        },
        {
            "name": "E5",
            "midi": 76,
            "time": 214.3758714999947,
            "velocity": 0.4094488188976378,
            "duration": 0.1049539166666591
        },
        {
            "name": "D#4",
            "midi": 63,
            "time": 214.4658319999947,
            "velocity": 0.5118110236220472,
            "duration": 0.1049539166666591
        },
        {
            "name": "D#5",
            "midi": 75,
            "time": 214.55579249999468,
            "velocity": 0.41732283464566927,
            "duration": 0.1049539166666591
        },
        {
            "name": "C#5",
            "midi": 73,
            "time": 214.64575299999467,
            "velocity": 0.4566929133858268,
            "duration": 0.1049539166666591
        },
        {
            "name": "D#5",
            "midi": 75,
            "time": 214.73571349999466,
            "velocity": 0.4094488188976378,
            "duration": 0.1049539166666591
        },
        {
            "name": "D#4",
            "midi": 63,
            "time": 214.82567399999465,
            "velocity": 0.5118110236220472,
            "duration": 0.1049539166666591
        },
        {
            "name": "D#5",
            "midi": 75,
            "time": 214.91563449999464,
            "velocity": 0.4015748031496063,
            "duration": 0.1049539166666591
        },
        {
            "name": "C#5",
            "midi": 73,
            "time": 215.00559499999463,
            "velocity": 0.44881889763779526,
            "duration": 0.1049539166666591
        },
        {
            "name": "D#5",
            "midi": 75,
            "time": 215.09555549999462,
            "velocity": 0.4094488188976378,
            "duration": 0.1049539166666591
        },
        {
            "name": "D#4",
            "midi": 63,
            "time": 215.1855159999946,
            "velocity": 0.5118110236220472,
            "duration": 0.1049539166666591
        },
        {
            "name": "D#5",
            "midi": 75,
            "time": 215.2754764999946,
            "velocity": 0.4015748031496063,
            "duration": 0.1049539166666591
        },
        {
            "name": "C#5",
            "midi": 73,
            "time": 215.36543699999459,
            "velocity": 0.4409448818897638,
            "duration": 0.1049539166666591
        },
        {
            "name": "D#5",
            "midi": 75,
            "time": 215.45539749999458,
            "velocity": 0.4015748031496063,
            "duration": 0.1049539166666591
        },
        {
            "name": "D#4",
            "midi": 63,
            "time": 215.54535799999456,
            "velocity": 0.5118110236220472,
            "duration": 0.1049539166666591
        },
        {
            "name": "D#5",
            "midi": 75,
            "time": 215.63531849999455,
            "velocity": 0.4015748031496063,
            "duration": 0.1049539166666591
        },
        {
            "name": "C#5",
            "midi": 73,
            "time": 215.72527899999454,
            "velocity": 0.4409448818897638,
            "duration": 0.1049539166666591
        },
        {
            "name": "D#5",
            "midi": 75,
            "time": 215.81523949999453,
            "velocity": 0.4015748031496063,
            "duration": 0.08996049999998945
        },
        {
            "name": "D#4",
            "midi": 63,
            "time": 215.90519999999452,
            "velocity": 0.5354330708661418,
            "duration": 0.17992100000000733
        },
        {
            "name": "C5",
            "midi": 72,
            "time": 215.90519999999452,
            "velocity": 0.6141732283464567,
            "duration": 0.17992100000000733
        },
        {
            "name": "D#5",
            "midi": 75,
            "time": 215.90519999999452,
            "velocity": 0.6299212598425197,
            "duration": 0.17992100000000733
        },
        {
            "name": "G#4",
            "midi": 68,
            "time": 216.26504199999454,
            "velocity": 0.4251968503937008,
            "duration": 0.7196840000000009
        },
        {
            "name": "A4",
            "midi": 69,
            "time": 216.98472599999454,
            "velocity": 0.4015748031496063,
            "duration": 0.17992100000000733
        },
        {
            "name": "G#4",
            "midi": 68,
            "time": 217.16464699999455,
            "velocity": 0.4015748031496063,
            "duration": 0.17992100000000733
        },
        {
            "name": "A3",
            "midi": 57,
            "time": 217.34456799999455,
            "velocity": 0.3937007874015748,
            "duration": 0.7196840000000009
        },
        {
            "name": "C#4",
            "midi": 61,
            "time": 217.34456799999455,
            "velocity": 0.3937007874015748,
            "duration": 0.7196840000000009
        },
        {
            "name": "F#4",
            "midi": 66,
            "time": 217.34456799999455,
            "velocity": 0.4645669291338583,
            "duration": 0.35984199999998623
        },
        {
            "name": "G#4",
            "midi": 68,
            "time": 217.70440999999454,
            "velocity": 0.3858267716535433,
            "duration": 0.17992100000000733
        },
        {
            "name": "F#4",
            "midi": 66,
            "time": 217.88433099999455,
            "velocity": 0.3858267716535433,
            "duration": 0.17992100000000733
        },
        {
            "name": "B3",
            "midi": 59,
            "time": 218.06425199999455,
            "velocity": 0.3937007874015748,
            "duration": 0.7196840000000009
        },
        {
            "name": "G#3",
            "midi": 56,
            "time": 218.06425199999455,
            "velocity": 0.3937007874015748,
            "duration": 0.7196840000000009
        },
        {
            "name": "E4",
            "midi": 64,
            "time": 218.06425199999455,
            "velocity": 0.4645669291338583,
            "duration": 0.35984199999998623
        },
        {
            "name": "F#4",
            "midi": 66,
            "time": 218.42409399999454,
            "velocity": 0.3779527559055118,
            "duration": 0.17992100000000733
        },
        {
            "name": "E4",
            "midi": 64,
            "time": 218.60401499999455,
            "velocity": 0.3779527559055118,
            "duration": 0.17992100000000733
        },
        {
            "name": "F#3",
            "midi": 54,
            "time": 218.78393599999455,
            "velocity": 0.3858267716535433,
            "duration": 0.7196840000000009
        },
        {
            "name": "D#4",
            "midi": 63,
            "time": 218.78393599999455,
            "velocity": 0.4566929133858268,
            "duration": 0.35984199999998623
        },
        {
            "name": "A3",
            "midi": 57,
            "time": 218.78393599999455,
            "velocity": 0.3858267716535433,
            "duration": 0.7196840000000009
        },
        {
            "name": "E4",
            "midi": 64,
            "time": 219.14377799999454,
            "velocity": 0.3700787401574803,
            "duration": 0.17992100000000733
        },
        {
            "name": "D#4",
            "midi": 63,
            "time": 219.32369899999455,
            "velocity": 0.3700787401574803,
            "duration": 0.17992100000000733
        },
        {
            "name": "E3",
            "midi": 52,
            "time": 219.50361999999456,
            "velocity": 0.3858267716535433,
            "duration": 0.7196840000000009
        },
        {
            "name": "G#3",
            "midi": 56,
            "time": 219.50361999999456,
            "velocity": 0.3858267716535433,
            "duration": 0.7196840000000009
        },
        {
            "name": "C#4",
            "midi": 61,
            "time": 219.50361999999456,
            "velocity": 0.4566929133858268,
            "duration": 0.35984199999998623
        },
        {
            "name": "D#4",
            "midi": 63,
            "time": 219.86346199999454,
            "velocity": 0.4015748031496063,
            "duration": 0.17992100000000733
        },
        {
            "name": "C#4",
            "midi": 61,
            "time": 220.04338299999455,
            "velocity": 0.4015748031496063,
            "duration": 0.17992100000000733
        },
        {
            "name": "C4",
            "midi": 60,
            "time": 220.22330399999456,
            "velocity": 0.4566929133858268,
            "duration": 0.7196840000000009
        },
        {
            "name": "F#3",
            "midi": 54,
            "time": 220.22330399999456,
            "velocity": 0.3858267716535433,
            "duration": 0.7196840000000009
        },
        {
            "name": "D#3",
            "midi": 51,
            "time": 220.22330399999456,
            "velocity": 0.3858267716535433,
            "duration": 0.7196840000000009
        },
        {
            "name": "C#3",
            "midi": 49,
            "time": 220.94298799999456,
            "velocity": 0.3779527559055118,
            "duration": 0.6297235000000114
        },
        {
            "name": "C#4",
            "midi": 61,
            "time": 220.94298799999456,
            "velocity": 0.44881889763779526,
            "duration": 0.6297235000000114
        },
        {
            "name": "E3",
            "midi": 52,
            "time": 220.94298799999456,
            "velocity": 0.3779527559055118,
            "duration": 0.6297235000000114
        },
        {
            "name": "C3",
            "midi": 48,
            "time": 221.57271149999457,
            "velocity": 0.3779527559055118,
            "duration": 0.04498025000000894
        },
        {
            "name": "G#3",
            "midi": 56,
            "time": 221.61769174999458,
            "velocity": 0.3779527559055118,
            "duration": 0.04498025000000894
        },
        {
            "name": "D#4",
            "midi": 63,
            "time": 221.6626719999946,
            "velocity": 0.4566929133858268,
            "duration": 0.2698814999999968
        },
        {
            "name": "G#5",
            "midi": 80,
            "time": 222.02251399999457,
            "velocity": 0.49606299212598426,
            "duration": 0.5397629999999936
        },
        {
            "name": "G#5",
            "midi": 80,
            "time": 222.56227699999457,
            "velocity": 0.5275590551181102,
            "duration": 0.08996049999998945
        },
        {
            "name": "A5",
            "midi": 81,
            "time": 222.74219799999454,
            "velocity": 0.5354330708661418,
            "duration": 0.08996049999998945
        },
        {
            "name": "G#5",
            "midi": 80,
            "time": 222.92211899999452,
            "velocity": 0.5196850393700787,
            "duration": 0.08996049999998945
        },
        {
            "name": "F#5",
            "midi": 78,
            "time": 223.1020399999945,
            "velocity": 0.5354330708661418,
            "duration": 0.08996049999998945
        },
        {
            "name": "C#5",
            "midi": 73,
            "time": 223.28196099999448,
            "velocity": 0.4409448818897638,
            "duration": 0.08996049999998945
        },
        {
            "name": "A4",
            "midi": 69,
            "time": 223.28196099999448,
            "velocity": 0.3700787401574803,
            "duration": 0.08996049999998945
        },
        {
            "name": "F#5",
            "midi": 78,
            "time": 223.28196099999448,
            "velocity": 0.4409448818897638,
            "duration": 0.08996049999998945
        },
        {
            "name": "B4",
            "midi": 71,
            "time": 223.46188199999446,
            "velocity": 0.3779527559055118,
            "duration": 0.08996049999998945
        },
        {
            "name": "G#5",
            "midi": 80,
            "time": 223.46188199999446,
            "velocity": 0.44881889763779526,
            "duration": 0.08996049999998945
        },
        {
            "name": "D#5",
            "midi": 75,
            "time": 223.46188199999446,
            "velocity": 0.44881889763779526,
            "duration": 0.08996049999998945
        },
        {
            "name": "A4",
            "midi": 69,
            "time": 223.64180299999444,
            "velocity": 0.3779527559055118,
            "duration": 0.08996049999998945
        },
        {
            "name": "C#5",
            "midi": 73,
            "time": 223.64180299999444,
            "velocity": 0.44881889763779526,
            "duration": 0.08996049999998945
        },
        {
            "name": "F#5",
            "midi": 78,
            "time": 223.64180299999444,
            "velocity": 0.44881889763779526,
            "duration": 0.08996049999998945
        },
        {
            "name": "B4",
            "midi": 71,
            "time": 223.82172399999442,
            "velocity": 0.4645669291338583,
            "duration": 0.08996049999998945
        },
        {
            "name": "E5",
            "midi": 76,
            "time": 223.82172399999442,
            "velocity": 0.4645669291338583,
            "duration": 0.08996049999998945
        },
        {
            "name": "G#4",
            "midi": 68,
            "time": 223.82172399999442,
            "velocity": 0.3937007874015748,
            "duration": 0.08996049999998945
        },
        {
            "name": "G#4",
            "midi": 68,
            "time": 224.0016449999944,
            "velocity": 0.4015748031496063,
            "duration": 0.08996049999998945
        },
        {
            "name": "B4",
            "midi": 71,
            "time": 224.0016449999944,
            "velocity": 0.47244094488188976,
            "duration": 0.08996049999998945
        },
        {
            "name": "E5",
            "midi": 76,
            "time": 224.0016449999944,
            "velocity": 0.47244094488188976,
            "duration": 0.08996049999998945
        },
        {
            "name": "A4",
            "midi": 69,
            "time": 224.18156599999438,
            "velocity": 0.4015748031496063,
            "duration": 0.08996049999998945
        },
        {
            "name": "C#5",
            "midi": 73,
            "time": 224.18156599999438,
            "velocity": 0.48031496062992124,
            "duration": 0.08996049999998945
        },
        {
            "name": "F#5",
            "midi": 78,
            "time": 224.18156599999438,
            "velocity": 0.48031496062992124,
            "duration": 0.08996049999998945
        },
        {
            "name": "E5",
            "midi": 76,
            "time": 224.36148699999436,
            "velocity": 0.4881889763779528,
            "duration": 0.08996049999998945
        },
        {
            "name": "G#4",
            "midi": 68,
            "time": 224.36148699999436,
            "velocity": 0.4094488188976378,
            "duration": 0.08996049999998945
        },
        {
            "name": "B4",
            "midi": 71,
            "time": 224.36148699999436,
            "velocity": 0.4881889763779528,
            "duration": 0.08996049999998945
        },
        {
            "name": "A4",
            "midi": 69,
            "time": 224.54140799999433,
            "velocity": 0.4881889763779528,
            "duration": 0.08996049999998945
        },
        {
            "name": "D#5",
            "midi": 75,
            "time": 224.54140799999433,
            "velocity": 0.4881889763779528,
            "duration": 0.08996049999998945
        },
        {
            "name": "F#4",
            "midi": 66,
            "time": 224.54140799999433,
            "velocity": 0.4094488188976378,
            "duration": 0.08996049999998945
        },
        {
            "name": "A4",
            "midi": 69,
            "time": 224.7213289999943,
            "velocity": 0.49606299212598426,
            "duration": 0.08996049999998945
        },
        {
            "name": "D#5",
            "midi": 75,
            "time": 224.7213289999943,
            "velocity": 0.49606299212598426,
            "duration": 0.08996049999998945
        },
        {
            "name": "F#4",
            "midi": 66,
            "time": 224.7213289999943,
            "velocity": 0.41732283464566927,
            "duration": 0.08996049999998945
        },
        {
            "name": "G#4",
            "midi": 68,
            "time": 224.9012499999943,
            "velocity": 0.4409448818897638,
            "duration": 0.08996049999998945
        },
        {
            "name": "B4",
            "midi": 71,
            "time": 224.9012499999943,
            "velocity": 0.5196850393700787,
            "duration": 0.08996049999998945
        },
        {
            "name": "E5",
            "midi": 76,
            "time": 224.9012499999943,
            "velocity": 0.5196850393700787,
            "duration": 0.08996049999998945
        },
        {
            "name": "F#4",
            "midi": 66,
            "time": 225.08117099999427,
            "velocity": 0.4409448818897638,
            "duration": 0.08996049999998945
        },
        {
            "name": "A4",
            "midi": 69,
            "time": 225.08117099999427,
            "velocity": 0.5275590551181102,
            "duration": 0.08996049999998945
        },
        {
            "name": "D#5",
            "midi": 75,
            "time": 225.08117099999427,
            "velocity": 0.5275590551181102,
            "duration": 0.08996049999998945
        },
        {
            "name": "C#5",
            "midi": 73,
            "time": 225.26109199999425,
            "velocity": 0.5354330708661418,
            "duration": 0.08996049999998945
        },
        {
            "name": "G#4",
            "midi": 68,
            "time": 225.26109199999425,
            "velocity": 0.5354330708661418,
            "duration": 0.08996049999998945
        },
        {
            "name": "E4",
            "midi": 64,
            "time": 225.26109199999425,
            "velocity": 0.44881889763779526,
            "duration": 0.08996049999998945
        },
        {
            "name": "E4",
            "midi": 64,
            "time": 225.44101299999423,
            "velocity": 0.44881889763779526,
            "duration": 0.08996049999998945
        },
        {
            "name": "C#5",
            "midi": 73,
            "time": 225.44101299999423,
            "velocity": 0.5354330708661418,
            "duration": 0.08996049999998945
        },
        {
            "name": "G#4",
            "midi": 68,
            "time": 225.44101299999423,
            "velocity": 0.5354330708661418,
            "duration": 0.08996049999998945
        },
        {
            "name": "F#4",
            "midi": 66,
            "time": 225.6209339999942,
            "velocity": 0.4015748031496063,
            "duration": 0.08996049999998945
        },
        {
            "name": "D#5",
            "midi": 75,
            "time": 225.6209339999942,
            "velocity": 0.47244094488188976,
            "duration": 0.08996049999998945
        },
        {
            "name": "A4",
            "midi": 69,
            "time": 225.6209339999942,
            "velocity": 0.47244094488188976,
            "duration": 0.08996049999998945
        },
        {
            "name": "G#4",
            "midi": 68,
            "time": 225.8008549999942,
            "velocity": 0.4251968503937008,
            "duration": 0.08996049999998945
        },
        {
            "name": "E4",
            "midi": 64,
            "time": 225.8008549999942,
            "velocity": 0.3543307086614173,
            "duration": 0.08996049999998945
        },
        {
            "name": "C#5",
            "midi": 73,
            "time": 225.8008549999942,
            "velocity": 0.4251968503937008,
            "duration": 0.08996049999998945
        },
        {
            "name": "C5",
            "midi": 72,
            "time": 225.98077599999417,
            "velocity": 0.3779527559055118,
            "duration": 0.7196840000000009
        },
        {
            "name": "D#4",
            "midi": 63,
            "time": 225.98077599999417,
            "velocity": 0.31496062992125984,
            "duration": 0.7196840000000009
        },
        {
            "name": "F#4",
            "midi": 66,
            "time": 225.98077599999417,
            "velocity": 0.3779527559055118,
            "duration": 0.7196840000000009
        },
        {
            "name": "E4",
            "midi": 64,
            "time": 226.70045999999417,
            "velocity": 0.4409448818897638,
            "duration": 0.6297235000000114
        },
        {
            "name": "C#5",
            "midi": 73,
            "time": 226.70045999999417,
            "velocity": 0.4409448818897638,
            "duration": 0.6297235000000114
        },
        {
            "name": "C#4",
            "midi": 61,
            "time": 226.70045999999417,
            "velocity": 0.3700787401574803,
            "duration": 0.6297235000000114
        },
        {
            "name": "C4",
            "midi": 60,
            "time": 227.33018349999418,
            "velocity": 0.3858267716535433,
            "duration": 0.04498025000000894
        },
        {
            "name": "F#4",
            "midi": 66,
            "time": 227.3751637499942,
            "velocity": 0.4645669291338583,
            "duration": 1.124506249999996
        },
        {
            "name": "D#5",
            "midi": 75,
            "time": 227.4201439999942,
            "velocity": 0.6299212598425197,
            "duration": 1.079525999999987
        },
        {
            "name": "C#5",
            "midi": 73,
            "time": 228.49966999999418,
            "velocity": 0.4566929133858268,
            "duration": 0.35984199999998623
        },
        {
            "name": "E4",
            "midi": 64,
            "time": 228.49966999999418,
            "velocity": 0.4566929133858268,
            "duration": 0.35984199999998623
        },
        {
            "name": "C#4",
            "midi": 61,
            "time": 228.49966999999418,
            "velocity": 0.3858267716535433,
            "duration": 0.35984199999998623
        },
        {
            "name": "D#4",
            "midi": 63,
            "time": 228.85951199999417,
            "velocity": 0.30708661417322836,
            "duration": 0.17992100000000733
        },
        {
            "name": "C5",
            "midi": 72,
            "time": 228.85951199999417,
            "velocity": 0.3700787401574803,
            "duration": 0.17992100000000733
        },
        {
            "name": "F#4",
            "midi": 66,
            "time": 228.85951199999417,
            "velocity": 0.3700787401574803,
            "duration": 0.17992100000000733
        },
        {
            "name": "F#4",
            "midi": 66,
            "time": 229.21935399999418,
            "velocity": 0.41732283464566927,
            "duration": 0.17992100000000733
        },
        {
            "name": "C5",
            "midi": 72,
            "time": 229.21935399999418,
            "velocity": 0.41732283464566927,
            "duration": 0.17992100000000733
        },
        {
            "name": "D#4",
            "midi": 63,
            "time": 229.21935399999418,
            "velocity": 0.3543307086614173,
            "duration": 0.17992100000000733
        },
        {
            "name": "C#5",
            "midi": 73,
            "time": 229.5791959999942,
            "velocity": 0.4881889763779528,
            "duration": 0.17992100000000733
        },
        {
            "name": "E4",
            "midi": 64,
            "time": 229.5791959999942,
            "velocity": 0.4881889763779528,
            "duration": 0.17992100000000733
        },
        {
            "name": "C#4",
            "midi": 61,
            "time": 229.5791959999942,
            "velocity": 0.4094488188976378,
            "duration": 0.17992100000000733
        },
        {
            "name": "E4",
            "midi": 64,
            "time": 229.9390379999942,
            "velocity": 0.5354330708661418,
            "duration": 0.17992100000000733
        },
        {
            "name": "C#4",
            "midi": 61,
            "time": 229.9390379999942,
            "velocity": 0.44881889763779526,
            "duration": 0.17992100000000733
        },
        {
            "name": "C#5",
            "midi": 73,
            "time": 229.9390379999942,
            "velocity": 0.5354330708661418,
            "duration": 0.17992100000000733
        },
        {
            "name": "C4",
            "midi": 60,
            "time": 230.2089194999942,
            "velocity": 0.4015748031496063,
            "duration": 0.04498025000000894
        },
        {
            "name": "F#4",
            "midi": 66,
            "time": 230.25389974999422,
            "velocity": 0.4645669291338583,
            "duration": 1.124506249999996
        },
        {
            "name": "D#5",
            "midi": 75,
            "time": 230.29887999999423,
            "velocity": 0.6299212598425197,
            "duration": 1.079525999999987
        },
        {
            "name": "E4",
            "midi": 64,
            "time": 231.37840599999421,
            "velocity": 0.3779527559055118,
            "duration": 0.17992100000000733
        },
        {
            "name": "C#4",
            "midi": 61,
            "time": 231.37840599999421,
            "velocity": 0.31496062992125984,
            "duration": 0.17992100000000733
        },
        {
            "name": "C#5",
            "midi": 73,
            "time": 231.55832699999422,
            "velocity": 0.33858267716535434,
            "duration": 0.17992100000000733
        },
        {
            "name": "F#4",
            "midi": 66,
            "time": 231.73824799999423,
            "velocity": 0.4015748031496063,
            "duration": 0.17992100000000733
        },
        {
            "name": "D#4",
            "midi": 63,
            "time": 231.73824799999423,
            "velocity": 0.33858267716535434,
            "duration": 0.17992100000000733
        },
        {
            "name": "C5",
            "midi": 72,
            "time": 231.91816899999424,
            "velocity": 0.3700787401574803,
            "duration": 0.17992100000000733
        },
        {
            "name": "D#4",
            "midi": 63,
            "time": 232.09808999999424,
            "velocity": 0.3779527559055118,
            "duration": 0.17992100000000733
        },
        {
            "name": "F#4",
            "midi": 66,
            "time": 232.09808999999424,
            "velocity": 0.44881889763779526,
            "duration": 0.17992100000000733
        },
        {
            "name": "C5",
            "midi": 72,
            "time": 232.27801099999425,
            "velocity": 0.41732283464566927,
            "duration": 0.17992100000000733
        },
        {
            "name": "C#4",
            "midi": 61,
            "time": 232.45793199999426,
            "velocity": 0.44881889763779526,
            "duration": 0.17992100000000733
        },
        {
            "name": "E4",
            "midi": 64,
            "time": 232.45793199999426,
            "velocity": 0.5354330708661418,
            "duration": 0.17992100000000733
        },
        {
            "name": "C#5",
            "midi": 73,
            "time": 232.63785299999427,
            "velocity": 0.44881889763779526,
            "duration": 0.17992100000000733
        },
        {
            "name": "C#4",
            "midi": 61,
            "time": 232.81777399999427,
            "velocity": 0.47244094488188976,
            "duration": 0.17992100000000733
        },
        {
            "name": "E4",
            "midi": 64,
            "time": 232.81777399999427,
            "velocity": 0.5590551181102362,
            "duration": 0.17992100000000733
        },
        {
            "name": "C#5",
            "midi": 73,
            "time": 232.99769499999428,
            "velocity": 0.5118110236220472,
            "duration": 0.17992100000000733
        },
        {
            "name": "C4",
            "midi": 60,
            "time": 233.1776159999943,
            "velocity": 0.5354330708661418,
            "duration": 0.17992100000000733
        },
        {
            "name": "F#4",
            "midi": 66,
            "time": 233.1776159999943,
            "velocity": 0.6299212598425197,
            "duration": 0.17992100000000733
        },
        {
            "name": "D#5",
            "midi": 75,
            "time": 233.3575369999943,
            "velocity": 0.5433070866141733,
            "duration": 0.17992100000000733
        },
        {
            "name": "C4",
            "midi": 60,
            "time": 233.5374579999943,
            "velocity": 0.4881889763779528,
            "duration": 0.17992100000000733
        },
        {
            "name": "F#4",
            "midi": 66,
            "time": 233.5374579999943,
            "velocity": 0.5748031496062992,
            "duration": 0.17992100000000733
        },
        {
            "name": "D#5",
            "midi": 75,
            "time": 233.7173789999943,
            "velocity": 0.4566929133858268,
            "duration": 0.17992100000000733
        },
        {
            "name": "E4",
            "midi": 64,
            "time": 233.89729999999432,
            "velocity": 0.49606299212598426,
            "duration": 0.17992100000000733
        },
        {
            "name": "C#4",
            "midi": 61,
            "time": 233.89729999999432,
            "velocity": 0.41732283464566927,
            "duration": 0.17992100000000733
        },
        {
            "name": "C#5",
            "midi": 73,
            "time": 234.07722099999432,
            "velocity": 0.4015748031496063,
            "duration": 0.17992100000000733
        },
        {
            "name": "E4",
            "midi": 64,
            "time": 234.25714199999433,
            "velocity": 0.44881889763779526,
            "duration": 0.17992100000000733
        },
        {
            "name": "C#4",
            "midi": 61,
            "time": 234.25714199999433,
            "velocity": 0.3779527559055118,
            "duration": 0.17992100000000733
        },
        {
            "name": "C#5",
            "midi": 73,
            "time": 234.43706299999434,
            "velocity": 0.41732283464566927,
            "duration": 0.17992100000000733
        },
        {
            "name": "D#4",
            "midi": 63,
            "time": 234.61698399999435,
            "velocity": 0.3700787401574803,
            "duration": 1.4393680000000018
        },
        {
            "name": "A3",
            "midi": 57,
            "time": 234.61698399999435,
            "velocity": 0.30708661417322836,
            "duration": 1.4393680000000018
        },
        {
            "name": "C#4",
            "midi": 61,
            "time": 234.61698399999435,
            "velocity": 0.30708661417322836,
            "duration": 1.4393680000000018
        },
        {
            "name": "A4",
            "midi": 69,
            "time": 234.61698399999435,
            "velocity": 0.3700787401574803,
            "duration": 1.4393680000000018
        },
        {
            "name": "D#4",
            "midi": 63,
            "time": 236.05635199999435,
            "velocity": 0.2440944881889764,
            "duration": 1.4393680000000018
        },
        {
            "name": "G#4",
            "midi": 68,
            "time": 236.05635199999435,
            "velocity": 0.2440944881889764,
            "duration": 1.4393680000000018
        },
        {
            "name": "G#3",
            "midi": 56,
            "time": 236.05635199999435,
            "velocity": 0.2047244094488189,
            "duration": 1.4393680000000018
        },
        {
            "name": "C4",
            "midi": 60,
            "time": 236.05635199999435,
            "velocity": 0.2047244094488189,
            "duration": 1.4393680000000018
        },
        {
            "name": "G#2",
            "midi": 44,
            "time": 237.58568049999434,
            "velocity": 0.3700787401574803,
            "duration": 0.08621214583334336
        },
        {
            "name": "C#3",
            "midi": 49,
            "time": 237.67564099999436,
            "velocity": 0.3779527559055118,
            "duration": 0.1049539166666591
        },
        {
            "name": "E3",
            "midi": 52,
            "time": 237.76560149999435,
            "velocity": 0.3937007874015748,
            "duration": 0.1049539166666591
        },
        {
            "name": "G#3",
            "midi": 56,
            "time": 237.85556199999434,
            "velocity": 0.4015748031496063,
            "duration": 0.1049539166666591
        },
        {
            "name": "C#3",
            "midi": 49,
            "time": 237.94552249999433,
            "velocity": 0.4015748031496063,
            "duration": 0.1049539166666591
        },
        {
            "name": "E3",
            "midi": 52,
            "time": 238.03548299999431,
            "velocity": 0.3858267716535433,
            "duration": 0.1049539166666591
        },
        {
            "name": "G#3",
            "midi": 56,
            "time": 238.1254434999943,
            "velocity": 0.4015748031496063,
            "duration": 0.1049539166666591
        },
        {
            "name": "C#4",
            "midi": 61,
            "time": 238.2154039999943,
            "velocity": 0.4015748031496063,
            "duration": 0.1049539166666591
        },
        {
            "name": "E3",
            "midi": 52,
            "time": 238.30536449999428,
            "velocity": 0.3700787401574803,
            "duration": 0.1049539166666591
        },
        {
            "name": "G#3",
            "midi": 56,
            "time": 238.39532499999427,
            "velocity": 0.3779527559055118,
            "duration": 0.1049539166666591
        },
        {
            "name": "C#4",
            "midi": 61,
            "time": 238.48528549999426,
            "velocity": 0.3937007874015748,
            "duration": 0.1049539166666591
        },
        {
            "name": "E4",
            "midi": 64,
            "time": 238.57524599999425,
            "velocity": 0.4015748031496063,
            "duration": 0.1049539166666591
        },
        {
            "name": "G#3",
            "midi": 56,
            "time": 238.66520649999424,
            "velocity": 0.3779527559055118,
            "duration": 0.1049539166666591
        },
        {
            "name": "C#4",
            "midi": 61,
            "time": 238.75516699999423,
            "velocity": 0.3858267716535433,
            "duration": 0.1049539166666591
        },
        {
            "name": "E4",
            "midi": 64,
            "time": 238.84512749999422,
            "velocity": 0.4015748031496063,
            "duration": 0.1049539166666591
        },
        {
            "name": "G#4",
            "midi": 68,
            "time": 238.9350879999942,
            "velocity": 0.41732283464566927,
            "duration": 0.1049539166666591
        },
        {
            "name": "C#4",
            "midi": 61,
            "time": 239.0250484999942,
            "velocity": 0.3700787401574803,
            "duration": 0.1049539166666591
        },
        {
            "name": "E4",
            "midi": 64,
            "time": 239.1150089999942,
            "velocity": 0.3858267716535433,
            "duration": 0.1049539166666591
        },
        {
            "name": "G#4",
            "midi": 68,
            "time": 239.20496949999418,
            "velocity": 0.4015748031496063,
            "duration": 0.1049539166666591
        },
        {
            "name": "C#5",
            "midi": 73,
            "time": 239.29492999999417,
            "velocity": 0.4094488188976378,
            "duration": 0.1049539166666591
        },
        {
            "name": "E4",
            "midi": 64,
            "time": 239.38489049999416,
            "velocity": 0.4015748031496063,
            "duration": 0.1049539166666591
        },
        {
            "name": "G#4",
            "midi": 68,
            "time": 239.47485099999415,
            "velocity": 0.3937007874015748,
            "duration": 0.1049539166666591
        },
        {
            "name": "C#5",
            "midi": 73,
            "time": 239.56481149999414,
            "velocity": 0.4015748031496063,
            "duration": 0.1049539166666591
        },
        {
            "name": "E5",
            "midi": 76,
            "time": 239.65477199999413,
            "velocity": 0.41732283464566927,
            "duration": 0.1049539166666591
        },
        {
            "name": "G#4",
            "midi": 68,
            "time": 239.74473249999411,
            "velocity": 0.4015748031496063,
            "duration": 0.1049539166666591
        },
        {
            "name": "C#5",
            "midi": 73,
            "time": 239.8346929999941,
            "velocity": 0.4015748031496063,
            "duration": 0.1049539166666591
        },
        {
            "name": "E5",
            "midi": 76,
            "time": 239.9246534999941,
            "velocity": 0.4409448818897638,
            "duration": 0.08996049999998945
        },
        {
            "name": "C#5",
            "midi": 73,
            "time": 240.01461399999408,
            "velocity": 0.6220472440944882,
            "duration": 0.08996049999998945
        },
        {
            "name": "G#5",
            "midi": 80,
            "time": 240.01461399999408,
            "velocity": 0.7401574803149606,
            "duration": 0.08996049999998945
        },
        {
            "name": "G#4",
            "midi": 68,
            "time": 240.01461399999408,
            "velocity": 0.6220472440944882,
            "duration": 0.08996049999998945
        },
        {
            "name": "E5",
            "midi": 76,
            "time": 240.01461399999408,
            "velocity": 0.7401574803149606,
            "duration": 0.08996049999998945
        },
        {
            "name": "G#5",
            "midi": 80,
            "time": 240.19453499999406,
            "velocity": 0.6220472440944882,
            "duration": 0.08996049999998945
        },
        {
            "name": "E5",
            "midi": 76,
            "time": 240.19453499999406,
            "velocity": 0.6220472440944882,
            "duration": 0.08996049999998945
        },
        {
            "name": "C#5",
            "midi": 73,
            "time": 240.19453499999406,
            "velocity": 0.5275590551181102,
            "duration": 0.08996049999998945
        },
        {
            "name": "G#4",
            "midi": 68,
            "time": 240.19453499999406,
            "velocity": 0.5275590551181102,
            "duration": 0.08996049999998945
        },
        {
            "name": "G#2",
            "midi": 44,
            "time": 240.46441649999406,
            "velocity": 0.3700787401574803,
            "duration": 0.08621214583334336
        },
        {
            "name": "C3",
            "midi": 48,
            "time": 240.55437699999408,
            "velocity": 0.3858267716535433,
            "duration": 0.1049539166666591
        },
        {
            "name": "D#3",
            "midi": 51,
            "time": 240.64433749999407,
            "velocity": 0.4015748031496063,
            "duration": 0.1049539166666591
        },
        {
            "name": "G#3",
            "midi": 56,
            "time": 240.73429799999406,
            "velocity": 0.4015748031496063,
            "duration": 0.1049539166666591
        },
        {
            "name": "C3",
            "midi": 48,
            "time": 240.82425849999404,
            "velocity": 0.3779527559055118,
            "duration": 0.1049539166666591
        },
        {
            "name": "D#3",
            "midi": 51,
            "time": 240.91421899999403,
            "velocity": 0.3937007874015748,
            "duration": 0.1049539166666591
        },
        {
            "name": "G#3",
            "midi": 56,
            "time": 241.00417949999402,
            "velocity": 0.4015748031496063,
            "duration": 0.1049539166666591
        },
        {
            "name": "C4",
            "midi": 60,
            "time": 241.094139999994,
            "velocity": 0.4094488188976378,
            "duration": 0.1049539166666591
        },
        {
            "name": "D#3",
            "midi": 51,
            "time": 241.184100499994,
            "velocity": 0.4015748031496063,
            "duration": 0.1049539166666591
        },
        {
            "name": "G#3",
            "midi": 56,
            "time": 241.274060999994,
            "velocity": 0.4015748031496063,
            "duration": 0.1049539166666591
        },
        {
            "name": "C4",
            "midi": 60,
            "time": 241.36402149999398,
            "velocity": 0.4015748031496063,
            "duration": 0.1049539166666591
        },
        {
            "name": "D#4",
            "midi": 63,
            "time": 241.45398199999397,
            "velocity": 0.4094488188976378,
            "duration": 0.1049539166666591
        },
        {
            "name": "G#3",
            "midi": 56,
            "time": 241.54394249999396,
            "velocity": 0.3700787401574803,
            "duration": 0.1049539166666591
        },
        {
            "name": "C4",
            "midi": 60,
            "time": 241.63390299999395,
            "velocity": 0.3937007874015748,
            "duration": 0.1049539166666591
        },
        {
            "name": "D#4",
            "midi": 63,
            "time": 241.72386349999394,
            "velocity": 0.4015748031496063,
            "duration": 0.1049539166666591
        },
        {
            "name": "G#4",
            "midi": 68,
            "time": 241.81382399999393,
            "velocity": 0.41732283464566927,
            "duration": 0.1049539166666591
        },
        {
            "name": "C4",
            "midi": 60,
            "time": 241.90378449999392,
            "velocity": 0.3858267716535433,
            "duration": 0.1049539166666591
        },
        {
            "name": "D#4",
            "midi": 63,
            "time": 241.9937449999939,
            "velocity": 0.3937007874015748,
            "duration": 0.1049539166666591
        },
        {
            "name": "G#4",
            "midi": 68,
            "time": 242.0837054999939,
            "velocity": 0.4015748031496063,
            "duration": 0.1049539166666591
        },
        {
            "name": "C5",
            "midi": 72,
            "time": 242.1736659999939,
            "velocity": 0.4094488188976378,
            "duration": 0.1049539166666591
        },
        {
            "name": "D#4",
            "midi": 63,
            "time": 242.26362649999388,
            "velocity": 0.4015748031496063,
            "duration": 0.1049539166666591
        },
        {
            "name": "G#4",
            "midi": 68,
            "time": 242.35358699999387,
            "velocity": 0.3937007874015748,
            "duration": 0.1049539166666591
        },
        {
            "name": "C5",
            "midi": 72,
            "time": 242.44354749999385,
            "velocity": 0.4015748031496063,
            "duration": 0.1049539166666591
        },
        {
            "name": "D#5",
            "midi": 75,
            "time": 242.53350799999384,
            "velocity": 0.4094488188976378,
            "duration": 0.1049539166666591
        },
        {
            "name": "G#4",
            "midi": 68,
            "time": 242.62346849999383,
            "velocity": 0.3858267716535433,
            "duration": 0.1049539166666591
        },
        {
            "name": "C5",
            "midi": 72,
            "time": 242.71342899999382,
            "velocity": 0.4015748031496063,
            "duration": 0.1049539166666591
        },
        {
            "name": "D#5",
            "midi": 75,
            "time": 242.8033894999938,
            "velocity": 0.41732283464566927,
            "duration": 0.08996049999998945
        },
        {
            "name": "C5",
            "midi": 72,
            "time": 242.8933499999938,
            "velocity": 0.6220472440944882,
            "duration": 0.08996049999998945
        },
        {
            "name": "D#5",
            "midi": 75,
            "time": 242.8933499999938,
            "velocity": 0.7401574803149606,
            "duration": 0.08996049999998945
        },
        {
            "name": "G#5",
            "midi": 80,
            "time": 242.8933499999938,
            "velocity": 0.7401574803149606,
            "duration": 0.08996049999998945
        },
        {
            "name": "G#4",
            "midi": 68,
            "time": 242.8933499999938,
            "velocity": 0.6220472440944882,
            "duration": 0.08996049999998945
        },
        {
            "name": "D#5",
            "midi": 75,
            "time": 243.07327099999378,
            "velocity": 0.6141732283464567,
            "duration": 0.08996049999998945
        },
        {
            "name": "G#4",
            "midi": 68,
            "time": 243.07327099999378,
            "velocity": 0.5196850393700787,
            "duration": 0.08996049999998945
        },
        {
            "name": "G#5",
            "midi": 80,
            "time": 243.07327099999378,
            "velocity": 0.6141732283464567,
            "duration": 0.08996049999998945
        },
        {
            "name": "C5",
            "midi": 72,
            "time": 243.07327099999378,
            "velocity": 0.5196850393700787,
            "duration": 0.08996049999998945
        },
        {
            "name": "C#3",
            "midi": 49,
            "time": 243.34315249999378,
            "velocity": 0.4881889763779528,
            "duration": 0.1049539166666591
        },
        {
            "name": "F3",
            "midi": 53,
            "time": 243.43311299999377,
            "velocity": 0.5118110236220472,
            "duration": 0.1049539166666591
        },
        {
            "name": "G#3",
            "midi": 56,
            "time": 243.52307349999376,
            "velocity": 0.5275590551181102,
            "duration": 0.1049539166666591
        },
        {
            "name": "C#4",
            "midi": 61,
            "time": 243.61303399999375,
            "velocity": 0.5354330708661418,
            "duration": 0.1049539166666591
        },
        {
            "name": "F3",
            "midi": 53,
            "time": 243.70299449999374,
            "velocity": 0.5118110236220472,
            "duration": 0.1049539166666591
        },
        {
            "name": "G#3",
            "midi": 56,
            "time": 243.79295499999373,
            "velocity": 0.5275590551181102,
            "duration": 0.1049539166666591
        },
        {
            "name": "C#4",
            "midi": 61,
            "time": 243.88291549999371,
            "velocity": 0.5354330708661418,
            "duration": 0.1049539166666591
        },
        {
            "name": "F4",
            "midi": 65,
            "time": 243.9728759999937,
            "velocity": 0.5433070866141733,
            "duration": 0.1049539166666591
        },
        {
            "name": "G#3",
            "midi": 56,
            "time": 244.0628364999937,
            "velocity": 0.5196850393700787,
            "duration": 0.1049539166666591
        },
        {
            "name": "C#4",
            "midi": 61,
            "time": 244.15279699999368,
            "velocity": 0.5354330708661418,
            "duration": 0.1049539166666591
        },
        {
            "name": "F4",
            "midi": 65,
            "time": 244.24275749999367,
            "velocity": 0.5433070866141733,
            "duration": 0.1049539166666591
        },
        {
            "name": "G#4",
            "midi": 68,
            "time": 244.33271799999366,
            "velocity": 0.5590551181102362,
            "duration": 0.1049539166666591
        },
        {
            "name": "C#4",
            "midi": 61,
            "time": 244.42267849999365,
            "velocity": 0.5196850393700787,
            "duration": 0.1049539166666591
        },
        {
            "name": "F4",
            "midi": 65,
            "time": 244.51263899999364,
            "velocity": 0.5354330708661418,
            "duration": 0.1049539166666591
        },
        {
            "name": "G#4",
            "midi": 68,
            "time": 244.60259949999363,
            "velocity": 0.5354330708661418,
            "duration": 0.1049539166666591
        },
        {
            "name": "C#5",
            "midi": 73,
            "time": 244.69255999999362,
            "velocity": 0.5433070866141733,
            "duration": 0.1049539166666591
        },
        {
            "name": "F4",
            "midi": 65,
            "time": 244.7825204999936,
            "velocity": 0.5196850393700787,
            "duration": 0.1049539166666591
        },
        {
            "name": "G#4",
            "midi": 68,
            "time": 244.8724809999936,
            "velocity": 0.5354330708661418,
            "duration": 0.1049539166666591
        },
        {
            "name": "C#5",
            "midi": 73,
            "time": 244.9624414999936,
            "velocity": 0.5354330708661418,
            "duration": 0.1049539166666591
        },
        {
            "name": "F5",
            "midi": 77,
            "time": 245.05240199999358,
            "velocity": 0.5511811023622047,
            "duration": 0.1049539166666591
        },
        {
            "name": "G#4",
            "midi": 68,
            "time": 245.14236249999357,
            "velocity": 0.49606299212598426,
            "duration": 0.1049539166666591
        },
        {
            "name": "C#5",
            "midi": 73,
            "time": 245.23232299999356,
            "velocity": 0.5196850393700787,
            "duration": 0.1049539166666591
        },
        {
            "name": "F5",
            "midi": 77,
            "time": 245.32228349999355,
            "velocity": 0.5354330708661418,
            "duration": 0.1049539166666591
        },
        {
            "name": "G#5",
            "midi": 80,
            "time": 245.41224399999354,
            "velocity": 0.5354330708661418,
            "duration": 0.1049539166666591
        },
        {
            "name": "C#5",
            "midi": 73,
            "time": 245.50220449999352,
            "velocity": 0.5196850393700787,
            "duration": 0.1049539166666591
        },
        {
            "name": "F5",
            "midi": 77,
            "time": 245.5921649999935,
            "velocity": 0.5354330708661418,
            "duration": 0.1049539166666591
        },
        {
            "name": "G#5",
            "midi": 80,
            "time": 245.6821254999935,
            "velocity": 0.5511811023622047,
            "duration": 0.08996049999998945
        },
        {
            "name": "C#5",
            "midi": 73,
            "time": 245.7720859999935,
            "velocity": 0.6850393700787402,
            "duration": 0.08996049999998945
        },
        {
            "name": "F5",
            "midi": 77,
            "time": 245.7720859999935,
            "velocity": 0.6850393700787402,
            "duration": 0.08996049999998945
        },
        {
            "name": "G#5",
            "midi": 80,
            "time": 245.7720859999935,
            "velocity": 0.8110236220472441,
            "duration": 0.08996049999998945
        },
        {
            "name": "C#6",
            "midi": 85,
            "time": 245.7720859999935,
            "velocity": 0.8110236220472441,
            "duration": 0.08996049999998945
        },
        {
            "name": "F5",
            "midi": 77,
            "time": 245.95200699999347,
            "velocity": 0.6062992125984252,
            "duration": 0.08996049999998945
        },
        {
            "name": "G#5",
            "midi": 80,
            "time": 245.95200699999347,
            "velocity": 0.7086614173228346,
            "duration": 0.08996049999998945
        },
        {
            "name": "C#6",
            "midi": 85,
            "time": 245.95200699999347,
            "velocity": 0.7086614173228346,
            "duration": 0.08996049999998945
        },
        {
            "name": "C#5",
            "midi": 73,
            "time": 245.95200699999347,
            "velocity": 0.6062992125984252,
            "duration": 0.08996049999998945
        },
        {
            "name": "C#3",
            "midi": 49,
            "time": 246.22188849999347,
            "velocity": 0.48031496062992124,
            "duration": 0.1049539166666591
        },
        {
            "name": "F#3",
            "midi": 54,
            "time": 246.31184899999346,
            "velocity": 0.49606299212598426,
            "duration": 0.1049539166666591
        },
        {
            "name": "A3",
            "midi": 57,
            "time": 246.40180949999345,
            "velocity": 0.4881889763779528,
            "duration": 0.1049539166666591
        },
        {
            "name": "C#4",
            "midi": 61,
            "time": 246.49176999999344,
            "velocity": 0.5433070866141733,
            "duration": 0.04498025000000894
        },
        {
            "name": "C#4",
            "midi": 61,
            "time": 246.58173049999345,
            "velocity": 0.5669291338582677,
            "duration": 0.1049539166666591
        },
        {
            "name": "F#4",
            "midi": 66,
            "time": 246.67169099999344,
            "velocity": 0.5984251968503937,
            "duration": 0.1049539166666591
        },
        {
            "name": "A4",
            "midi": 69,
            "time": 246.76165149999343,
            "velocity": 0.5984251968503937,
            "duration": 0.1049539166666591
        },
        {
            "name": "C#5",
            "midi": 73,
            "time": 246.85161199999342,
            "velocity": 0.6456692913385826,
            "duration": 0.04498025000000894
        },
        {
            "name": "C#5",
            "midi": 73,
            "time": 246.94157249999344,
            "velocity": 0.6692913385826772,
            "duration": 0.1049539166666591
        },
        {
            "name": "F#5",
            "midi": 78,
            "time": 247.03153299999343,
            "velocity": 0.6850393700787402,
            "duration": 0.1049539166666591
        },
        {
            "name": "A5",
            "midi": 81,
            "time": 247.12149349999342,
            "velocity": 0.6614173228346457,
            "duration": 0.1049539166666591
        },
        {
            "name": "F#5",
            "midi": 78,
            "time": 247.2114539999934,
            "velocity": 0.8031496062992126,
            "duration": 0.08996049999998945
        },
        {
            "name": "C#6",
            "midi": 85,
            "time": 247.2114539999934,
            "velocity": 0.8031496062992126,
            "duration": 0.08996049999998945
        },
        {
            "name": "C#5",
            "midi": 73,
            "time": 247.2114539999934,
            "velocity": 0.6771653543307087,
            "duration": 0.08996049999998945
        },
        {
            "name": "C#5",
            "midi": 73,
            "time": 247.3913749999934,
            "velocity": 0.6692913385826772,
            "duration": 0.08996049999998945
        },
        {
            "name": "F#5",
            "midi": 78,
            "time": 247.3913749999934,
            "velocity": 0.7952755905511811,
            "duration": 0.08996049999998945
        },
        {
            "name": "C#6",
            "midi": 85,
            "time": 247.3913749999934,
            "velocity": 0.7952755905511811,
            "duration": 0.08996049999998945
        },
        {
            "name": "C#3",
            "midi": 49,
            "time": 247.66125649999339,
            "velocity": 0.5905511811023622,
            "duration": 0.1049539166666591
        },
        {
            "name": "E3",
            "midi": 52,
            "time": 247.75121699999337,
            "velocity": 0.6062992125984252,
            "duration": 0.1049539166666591
        },
        {
            "name": "G3",
            "midi": 55,
            "time": 247.84117749999336,
            "velocity": 0.5905511811023622,
            "duration": 0.1049539166666591
        },
        {
            "name": "C#4",
            "midi": 61,
            "time": 247.93113799999335,
            "velocity": 0.6299212598425197,
            "duration": 0.04498025000000894
        },
        {
            "name": "C#4",
            "midi": 61,
            "time": 248.02109849999337,
            "velocity": 0.6062992125984252,
            "duration": 0.1049539166666591
        },
        {
            "name": "E4",
            "midi": 64,
            "time": 248.11105899999336,
            "velocity": 0.6220472440944882,
            "duration": 0.1049539166666591
        },
        {
            "name": "G4",
            "midi": 67,
            "time": 248.20101949999335,
            "velocity": 0.6062992125984252,
            "duration": 0.1049539166666591
        },
        {
            "name": "C#5",
            "midi": 73,
            "time": 248.29097999999334,
            "velocity": 0.6377952755905512,
            "duration": 0.04498025000000894
        },
        {
            "name": "C#5",
            "midi": 73,
            "time": 248.38094049999336,
            "velocity": 0.6299212598425197,
            "duration": 0.1049539166666591
        },
        {
            "name": "E5",
            "midi": 76,
            "time": 248.47090099999335,
            "velocity": 0.6377952755905512,
            "duration": 0.1049539166666591
        },
        {
            "name": "G5",
            "midi": 79,
            "time": 248.56086149999334,
            "velocity": 0.6220472440944882,
            "duration": 0.08996049999998945
        },
        {
            "name": "G5",
            "midi": 79,
            "time": 248.65082199999333,
            "velocity": 0.8503937007874016,
            "duration": 0.08996049999998945
        },
        {
            "name": "C#6",
            "midi": 85,
            "time": 248.65082199999333,
            "velocity": 0.8503937007874016,
            "duration": 0.08996049999998945
        },
        {
            "name": "C#5",
            "midi": 73,
            "time": 248.65082199999333,
            "velocity": 0.7086614173228346,
            "duration": 0.08996049999998945
        },
        {
            "name": "C#6",
            "midi": 85,
            "time": 248.8307429999933,
            "velocity": 0.8503937007874016,
            "duration": 0.08996049999998945
        },
        {
            "name": "G5",
            "midi": 79,
            "time": 248.8307429999933,
            "velocity": 0.8503937007874016,
            "duration": 0.08996049999998945
        },
        {
            "name": "C#5",
            "midi": 73,
            "time": 248.8307429999933,
            "velocity": 0.7086614173228346,
            "duration": 0.08996049999998945
        },
        {
            "name": "G#5",
            "midi": 80,
            "time": 249.01066399999328,
            "velocity": 0.8503937007874016,
            "duration": 0.17992100000000733
        },
        {
            "name": "C5",
            "midi": 72,
            "time": 249.01066399999328,
            "velocity": 0.7086614173228346,
            "duration": 0.17992100000000733
        },
        {
            "name": "C6",
            "midi": 84,
            "time": 249.01066399999328,
            "velocity": 0.8503937007874016,
            "duration": 0.17992100000000733
        },
        {
            "name": "G#4",
            "midi": 68,
            "time": 249.1905849999933,
            "velocity": 0.5826771653543307,
            "duration": 0.08996049999998945
        },
        {
            "name": "G#5",
            "midi": 80,
            "time": 249.28054549999328,
            "velocity": 0.4566929133858268,
            "duration": 0.08996049999998945
        },
        {
            "name": "G#4",
            "midi": 68,
            "time": 249.37050599999327,
            "velocity": 0.5905511811023622,
            "duration": 0.08996049999998945
        },
        {
            "name": "G#5",
            "midi": 80,
            "time": 249.46046649999326,
            "velocity": 0.47244094488188976,
            "duration": 0.08996049999998945
        },
        {
            "name": "A#4",
            "midi": 70,
            "time": 249.55042699999325,
            "velocity": 0.5984251968503937,
            "duration": 0.08996049999998945
        },
        {
            "name": "G#5",
            "midi": 80,
            "time": 249.64038749999324,
            "velocity": 0.47244094488188976,
            "duration": 0.08996049999998945
        },
        {
            "name": "C5",
            "midi": 72,
            "time": 249.73034799999323,
            "velocity": 0.5984251968503937,
            "duration": 0.08996049999998945
        },
        {
            "name": "G#5",
            "midi": 80,
            "time": 249.82030849999322,
            "velocity": 0.48031496062992124,
            "duration": 0.08996049999998945
        },
        {
            "name": "C#5",
            "midi": 73,
            "time": 249.9102689999932,
            "velocity": 0.6141732283464567,
            "duration": 0.08996049999998945
        },
        {
            "name": "G#5",
            "midi": 80,
            "time": 250.0002294999932,
            "velocity": 0.4881889763779528,
            "duration": 0.08996049999998945
        },
        {
            "name": "D#5",
            "midi": 75,
            "time": 250.09018999999319,
            "velocity": 0.6220472440944882,
            "duration": 0.08996049999998945
        },
        {
            "name": "G#5",
            "midi": 80,
            "time": 250.18015049999318,
            "velocity": 0.4881889763779528,
            "duration": 0.08996049999998945
        },
        {
            "name": "C5",
            "midi": 72,
            "time": 250.27011099999316,
            "velocity": 0.6220472440944882,
            "duration": 0.08996049999998945
        },
        {
            "name": "G#5",
            "midi": 80,
            "time": 250.36007149999315,
            "velocity": 0.4881889763779528,
            "duration": 0.08996049999998945
        },
        {
            "name": "D#5",
            "midi": 75,
            "time": 250.45003199999314,
            "velocity": 0.6299212598425197,
            "duration": 0.08996049999998945
        },
        {
            "name": "G#5",
            "midi": 80,
            "time": 250.53999249999313,
            "velocity": 0.4881889763779528,
            "duration": 0.08996049999998945
        },
        {
            "name": "C#5",
            "midi": 73,
            "time": 250.62995299999312,
            "velocity": 0.6299212598425197,
            "duration": 0.08996049999998945
        },
        {
            "name": "G#5",
            "midi": 80,
            "time": 250.7199134999931,
            "velocity": 0.4881889763779528,
            "duration": 0.08996049999998945
        },
        {
            "name": "F#5",
            "midi": 78,
            "time": 250.8098739999931,
            "velocity": 0.6614173228346457,
            "duration": 0.08996049999998945
        },
        {
            "name": "G#5",
            "midi": 80,
            "time": 250.8998344999931,
            "velocity": 0.4881889763779528,
            "duration": 0.08996049999998945
        },
        {
            "name": "E5",
            "midi": 76,
            "time": 250.98979499999308,
            "velocity": 0.6299212598425197,
            "duration": 0.08996049999998945
        },
        {
            "name": "G#5",
            "midi": 80,
            "time": 251.07975549999307,
            "velocity": 0.4881889763779528,
            "duration": 0.08996049999998945
        },
        {
            "name": "D#5",
            "midi": 75,
            "time": 251.16971599999306,
            "velocity": 0.6299212598425197,
            "duration": 0.08996049999998945
        },
        {
            "name": "G#5",
            "midi": 80,
            "time": 251.25967649999305,
            "velocity": 0.4881889763779528,
            "duration": 0.08996049999998945
        },
        {
            "name": "C#5",
            "midi": 73,
            "time": 251.34963699999304,
            "velocity": 0.6220472440944882,
            "duration": 0.08996049999998945
        },
        {
            "name": "G#5",
            "midi": 80,
            "time": 251.43959749999303,
            "velocity": 0.4881889763779528,
            "duration": 0.08996049999998945
        },
        {
            "name": "C5",
            "midi": 72,
            "time": 251.52955799999302,
            "velocity": 0.6220472440944882,
            "duration": 0.08996049999998945
        },
        {
            "name": "G#5",
            "midi": 80,
            "time": 251.619518499993,
            "velocity": 0.4881889763779528,
            "duration": 0.08996049999998945
        },
        {
            "name": "A4",
            "midi": 69,
            "time": 251.709478999993,
            "velocity": 0.6062992125984252,
            "duration": 0.08996049999998945
        },
        {
            "name": "G5",
            "midi": 79,
            "time": 251.79943949999299,
            "velocity": 0.48031496062992124,
            "duration": 0.08996049999998945
        },
        {
            "name": "G#4",
            "midi": 68,
            "time": 251.88939999999297,
            "velocity": 0.5984251968503937,
            "duration": 0.08996049999998945
        },
        {
            "name": "G#5",
            "midi": 80,
            "time": 251.97936049999296,
            "velocity": 0.47244094488188976,
            "duration": 0.08996049999998945
        },
        {
            "name": "G#4",
            "midi": 68,
            "time": 252.06932099999295,
            "velocity": 0.5905511811023622,
            "duration": 0.08996049999998945
        },
        {
            "name": "G#5",
            "midi": 80,
            "time": 252.15928149999294,
            "velocity": 0.4645669291338583,
            "duration": 0.08996049999998945
        },
        {
            "name": "G#4",
            "midi": 68,
            "time": 252.24924199999293,
            "velocity": 0.5826771653543307,
            "duration": 0.08996049999998945
        },
        {
            "name": "G#5",
            "midi": 80,
            "time": 252.33920249999292,
            "velocity": 0.4645669291338583,
            "duration": 0.08996049999998945
        },
        {
            "name": "A#4",
            "midi": 70,
            "time": 252.4291629999929,
            "velocity": 0.5826771653543307,
            "duration": 0.08996049999998945
        },
        {
            "name": "G#5",
            "midi": 80,
            "time": 252.5191234999929,
            "velocity": 0.48031496062992124,
            "duration": 0.08996049999998945
        },
        {
            "name": "C5",
            "midi": 72,
            "time": 252.6090839999929,
            "velocity": 0.5984251968503937,
            "duration": 0.08996049999998945
        },
        {
            "name": "G#5",
            "midi": 80,
            "time": 252.69904449999288,
            "velocity": 0.4645669291338583,
            "duration": 0.08996049999998945
        },
        {
            "name": "C#5",
            "midi": 73,
            "time": 252.78900499999287,
            "velocity": 0.5984251968503937,
            "duration": 0.08996049999998945
        },
        {
            "name": "G#5",
            "midi": 80,
            "time": 252.87896549999286,
            "velocity": 0.4881889763779528,
            "duration": 0.08996049999998945
        },
        {
            "name": "D#5",
            "midi": 75,
            "time": 252.96892599999285,
            "velocity": 0.6062992125984252,
            "duration": 0.08996049999998945
        },
        {
            "name": "G#5",
            "midi": 80,
            "time": 253.05888649999284,
            "velocity": 0.48031496062992124,
            "duration": 0.08996049999998945
        },
        {
            "name": "C5",
            "midi": 72,
            "time": 253.14884699999283,
            "velocity": 0.6220472440944882,
            "duration": 0.08996049999998945
        },
        {
            "name": "G#5",
            "midi": 80,
            "time": 253.23880749999282,
            "velocity": 0.4881889763779528,
            "duration": 0.08996049999998945
        },
        {
            "name": "D#5",
            "midi": 75,
            "time": 253.3287679999928,
            "velocity": 0.6220472440944882,
            "duration": 0.08996049999998945
        },
        {
            "name": "G#5",
            "midi": 80,
            "time": 253.4187284999928,
            "velocity": 0.4881889763779528,
            "duration": 0.08996049999998945
        },
        {
            "name": "C#5",
            "midi": 73,
            "time": 253.50868899999278,
            "velocity": 0.6299212598425197,
            "duration": 0.08996049999998945
        },
        {
            "name": "G#5",
            "midi": 80,
            "time": 253.59864949999277,
            "velocity": 0.5118110236220472,
            "duration": 0.08996049999998945
        },
        {
            "name": "F#5",
            "midi": 78,
            "time": 253.68860999999276,
            "velocity": 0.6614173228346457,
            "duration": 0.08996049999998945
        },
        {
            "name": "G#5",
            "midi": 80,
            "time": 253.77857049999275,
            "velocity": 0.5354330708661418,
            "duration": 0.08996049999998945
        },
        {
            "name": "E5",
            "midi": 76,
            "time": 253.86853099999274,
            "velocity": 0.6614173228346457,
            "duration": 0.08996049999998945
        },
        {
            "name": "G#5",
            "midi": 80,
            "time": 253.95849149999273,
            "velocity": 0.5275590551181102,
            "duration": 0.08996049999998945
        },
        {
            "name": "D#5",
            "midi": 75,
            "time": 254.04845199999272,
            "velocity": 0.6614173228346457,
            "duration": 0.08996049999998945
        },
        {
            "name": "G#5",
            "midi": 80,
            "time": 254.1384124999927,
            "velocity": 0.5275590551181102,
            "duration": 0.08996049999998945
        },
        {
            "name": "C#5",
            "midi": 73,
            "time": 254.2283729999927,
            "velocity": 0.6614173228346457,
            "duration": 0.08996049999998945
        },
        {
            "name": "G#5",
            "midi": 80,
            "time": 254.3183334999927,
            "velocity": 0.5196850393700787,
            "duration": 0.08996049999998945
        },
        {
            "name": "C5",
            "midi": 72,
            "time": 254.40829399999268,
            "velocity": 0.6614173228346457,
            "duration": 0.08996049999998945
        },
        {
            "name": "G#5",
            "midi": 80,
            "time": 254.49825449999267,
            "velocity": 0.5275590551181102,
            "duration": 0.08996049999998945
        },
        {
            "name": "A4",
            "midi": 69,
            "time": 254.58821499999266,
            "velocity": 0.6614173228346457,
            "duration": 0.08996049999998945
        },
        {
            "name": "G5",
            "midi": 79,
            "time": 254.67817549999265,
            "velocity": 0.5196850393700787,
            "duration": 0.08996049999998945
        },
        {
            "name": "G#4",
            "midi": 68,
            "time": 254.76813599999264,
            "velocity": 0.6614173228346457,
            "duration": 0.08996049999998945
        },
        {
            "name": "G#5",
            "midi": 80,
            "time": 254.85809649999263,
            "velocity": 0.5196850393700787,
            "duration": 0.08996049999998945
        },
        {
            "name": "A4",
            "midi": 69,
            "time": 254.94805699999262,
            "velocity": 0.6220472440944882,
            "duration": 0.08996049999998945
        },
        {
            "name": "G5",
            "midi": 79,
            "time": 255.0380174999926,
            "velocity": 0.5275590551181102,
            "duration": 0.08996049999998945
        },
        {
            "name": "G#4",
            "midi": 68,
            "time": 255.1279779999926,
            "velocity": 0.6614173228346457,
            "duration": 0.08996049999998945
        },
        {
            "name": "G#5",
            "midi": 80,
            "time": 255.21793849999258,
            "velocity": 0.5196850393700787,
            "duration": 0.08996049999998945
        },
        {
            "name": "A4",
            "midi": 69,
            "time": 255.30789899999257,
            "velocity": 0.6220472440944882,
            "duration": 0.08996049999998945
        },
        {
            "name": "G5",
            "midi": 79,
            "time": 255.39785949999256,
            "velocity": 0.5275590551181102,
            "duration": 0.08996049999998945
        },
        {
            "name": "G#4",
            "midi": 68,
            "time": 255.48781999999255,
            "velocity": 0.6614173228346457,
            "duration": 0.08996049999998945
        },
        {
            "name": "G#5",
            "midi": 80,
            "time": 255.57778049999254,
            "velocity": 0.5196850393700787,
            "duration": 0.08996049999998945
        },
        {
            "name": "A4",
            "midi": 69,
            "time": 255.66774099999253,
            "velocity": 0.6220472440944882,
            "duration": 0.08996049999998945
        },
        {
            "name": "G5",
            "midi": 79,
            "time": 255.75770149999252,
            "velocity": 0.5118110236220472,
            "duration": 0.08996049999998945
        },
        {
            "name": "G#4",
            "midi": 68,
            "time": 255.8476619999925,
            "velocity": 0.6614173228346457,
            "duration": 0.08996049999998945
        },
        {
            "name": "G#5",
            "midi": 80,
            "time": 255.9376224999925,
            "velocity": 0.5196850393700787,
            "duration": 0.08996049999998945
        },
        {
            "name": "A4",
            "midi": 69,
            "time": 256.0275829999925,
            "velocity": 0.6220472440944882,
            "duration": 0.08996050000001787
        },
        {
            "name": "G5",
            "midi": 79,
            "time": 256.1175434999925,
            "velocity": 0.5118110236220472,
            "duration": 0.08996050000001787
        },
        {
            "name": "G#5",
            "midi": 80,
            "time": 256.2075039999925,
            "velocity": 0.6614173228346457,
            "duration": 0.1799209999999789
        },
        {
            "name": "G#4",
            "midi": 68,
            "time": 256.2075039999925,
            "velocity": 0.6614173228346457,
            "duration": 0.1799209999999789
        },
        {
            "name": "G#3",
            "midi": 56,
            "time": 256.5673459999925,
            "velocity": 0.889763779527559,
            "duration": 1.079525999999987
        },
        {
            "name": "G#4",
            "midi": 68,
            "time": 258.0067139999925,
            "velocity": 0.4409448818897638,
            "duration": 0.7346774166666137
        },
        {
            "name": "E4",
            "midi": 64,
            "time": 258.72639799999246,
            "velocity": 0.3700787401574803,
            "duration": 0.284874916666638
        },
        {
            "name": "C#4",
            "midi": 61,
            "time": 258.99627949999245,
            "velocity": 0.3700787401574803,
            "duration": 0.044980249999980515
        },
        {
            "name": "C4",
            "midi": 60,
            "time": 259.04125974999243,
            "velocity": 0.29133858267716534,
            "duration": 0.014993416666641224
        },
        {
            "name": "C#4",
            "midi": 61,
            "time": 259.0562531666591,
            "velocity": 0.29133858267716534,
            "duration": 0.014993416666641224
        },
        {
            "name": "D#4",
            "midi": 63,
            "time": 259.0712465833257,
            "velocity": 0.29133858267716534,
            "duration": 0.014993416666641224
        },
        {
            "name": "C#4",
            "midi": 61,
            "time": 259.08623999999236,
            "velocity": 0.41732283464566927,
            "duration": 0.3748354166666559
        },
        {
            "name": "C4",
            "midi": 60,
            "time": 259.4460819999924,
            "velocity": 0.3700787401574803,
            "duration": 0.5397629999999936
        },
        {
            "name": "C4",
            "midi": 60,
            "time": 259.98584499999237,
            "velocity": 0.3700787401574803,
            "duration": 0.19491441666662013
        },
        {
            "name": "G#4",
            "midi": 68,
            "time": 260.16576599999235,
            "velocity": 0.4409448818897638,
            "duration": 0.2698814999999968
        },
        {
            "name": "C4",
            "midi": 60,
            "time": 260.43564749999234,
            "velocity": 0.3779527559055118,
            "duration": 0.08996050000001787
        },
        {
            "name": "D#4",
            "midi": 63,
            "time": 260.52560799999236,
            "velocity": 0.33858267716535434,
            "duration": 0.3748354166666559
        },
        {
            "name": "C#4",
            "midi": 61,
            "time": 260.8854499999924,
            "velocity": 0.3700787401574803,
            "duration": 0.5397629999999936
        },
        {
            "name": "C#4",
            "midi": 61,
            "time": 261.42521299999237,
            "velocity": 0.3543307086614173,
            "duration": 0.19491441666662013
        },
        {
            "name": "G#4",
            "midi": 68,
            "time": 261.60513399999235,
            "velocity": 0.44881889763779526,
            "duration": 0.2698814999999968
        },
        {
            "name": "C#4",
            "midi": 61,
            "time": 261.87501549999234,
            "velocity": 0.3700787401574803,
            "duration": 0.08996050000001787
        },
        {
            "name": "E4",
            "midi": 64,
            "time": 261.96497599999236,
            "velocity": 0.3779527559055118,
            "duration": 0.3748354166666559
        },
        {
            "name": "D#4",
            "midi": 63,
            "time": 262.3248179999924,
            "velocity": 0.3700787401574803,
            "duration": 0.5397629999999936
        },
        {
            "name": "D#4",
            "midi": 63,
            "time": 262.86458099999237,
            "velocity": 0.3779527559055118,
            "duration": 0.19491441666662013
        },
        {
            "name": "G#4",
            "midi": 68,
            "time": 263.04450199999235,
            "velocity": 0.4251968503937008,
            "duration": 0.284874916666638
        },
        {
            "name": "D#4",
            "midi": 63,
            "time": 263.31438349999235,
            "velocity": 0.3779527559055118,
            "duration": 0.08996049999996103
        },
        {
            "name": "E4",
            "midi": 64,
            "time": 263.4043439999923,
            "velocity": 0.4015748031496063,
            "duration": 0.08996050000001787
        },
        {
            "name": "G#5",
            "midi": 80,
            "time": 263.58426499999234,
            "velocity": 0.4566929133858268,
            "duration": 0.35984200000001465
        },
        {
            "name": "G#4",
            "midi": 68,
            "time": 263.58426499999234,
            "velocity": 0.3779527559055118,
            "duration": 0.35984200000001465
        },
        {
            "name": "G#4",
            "midi": 68,
            "time": 263.94410699999236,
            "velocity": 0.3543307086614173,
            "duration": 0.35984200000001465
        },
        {
            "name": "G#5",
            "midi": 80,
            "time": 263.94410699999236,
            "velocity": 0.41732283464566927,
            "duration": 0.35984200000001465
        },
        {
            "name": "G#5",
            "midi": 80,
            "time": 264.3039489999924,
            "velocity": 0.4409448818897638,
            "duration": 0.08996050000001787
        },
        {
            "name": "G#4",
            "midi": 68,
            "time": 264.3039489999924,
            "velocity": 0.3700787401574803,
            "duration": 0.08996050000001787
        },
        {
            "name": "E4",
            "midi": 64,
            "time": 264.4838699999924,
            "velocity": 0.3858267716535433,
            "duration": 0.08996050000001787
        },
        {
            "name": "E5",
            "midi": 76,
            "time": 264.4838699999924,
            "velocity": 0.4566929133858268,
            "duration": 0.08996050000001787
        },
        {
            "name": "C#5",
            "midi": 73,
            "time": 264.66379099999244,
            "velocity": 0.4409448818897638,
            "duration": 0.08996050000001787
        },
        {
            "name": "C#4",
            "midi": 61,
            "time": 264.66379099999244,
            "velocity": 0.3700787401574803,
            "duration": 0.08996050000001787
        },
        {
            "name": "C#4",
            "midi": 61,
            "time": 264.8437119999925,
            "velocity": 0.4015748031496063,
            "duration": 0.08996050000001787
        },
        {
            "name": "C#5",
            "midi": 73,
            "time": 264.8437119999925,
            "velocity": 0.48031496062992124,
            "duration": 0.08996050000001787
        },
        {
            "name": "C4",
            "midi": 60,
            "time": 265.0236329999925,
            "velocity": 0.4094488188976378,
            "duration": 0.35984200000001465
        },
        {
            "name": "C5",
            "midi": 72,
            "time": 265.0236329999925,
            "velocity": 0.4881889763779528,
            "duration": 0.35984200000001465
        },
        {
            "name": "C5",
            "midi": 72,
            "time": 265.38347499999253,
            "velocity": 0.5354330708661418,
            "duration": 0.35984200000001465
        },
        {
            "name": "C4",
            "midi": 60,
            "time": 265.38347499999253,
            "velocity": 0.44881889763779526,
            "duration": 0.35984200000001465
        },
        {
            "name": "C4",
            "midi": 60,
            "time": 265.74331699999254,
            "velocity": 0.4566929133858268,
            "duration": 0.08996050000001787
        },
        {
            "name": "C5",
            "midi": 72,
            "time": 265.74331699999254,
            "velocity": 0.5433070866141733,
            "duration": 0.08996050000001787
        },
        {
            "name": "G#5",
            "midi": 80,
            "time": 265.9232379999926,
            "velocity": 0.5590551181102362,
            "duration": 0.08996050000001787
        },
        {
            "name": "G#4",
            "midi": 68,
            "time": 265.9232379999926,
            "velocity": 0.47244094488188976,
            "duration": 0.08996050000001787
        },
        {
            "name": "C5",
            "midi": 72,
            "time": 266.1031589999926,
            "velocity": 0.5433070866141733,
            "duration": 0.08996050000001787
        },
        {
            "name": "C4",
            "midi": 60,
            "time": 266.1031589999926,
            "velocity": 0.4566929133858268,
            "duration": 0.08996050000001787
        },
        {
            "name": "D#5",
            "midi": 75,
            "time": 266.28307999999265,
            "velocity": 0.5826771653543307,
            "duration": 0.08996050000001787
        },
        {
            "name": "D#4",
            "midi": 63,
            "time": 266.28307999999265,
            "velocity": 0.4881889763779528,
            "duration": 0.08996050000001787
        },
        {
            "name": "C#4",
            "midi": 61,
            "time": 266.4630009999927,
            "velocity": 0.49606299212598426,
            "duration": 0.35984200000001465
        },
        {
            "name": "C#5",
            "midi": 73,
            "time": 266.4630009999927,
            "velocity": 0.5905511811023622,
            "duration": 0.35984200000001465
        },
        {
            "name": "C#4",
            "midi": 61,
            "time": 266.8228429999927,
            "velocity": 0.5354330708661418,
            "duration": 0.35984200000001465
        },
        {
            "name": "C#5",
            "midi": 73,
            "time": 266.8228429999927,
            "velocity": 0.6299212598425197,
            "duration": 0.35984200000001465
        },
        {
            "name": "C#5",
            "midi": 73,
            "time": 267.1826849999927,
            "velocity": 0.5905511811023622,
            "duration": 0.08996050000001787
        },
        {
            "name": "C#4",
            "midi": 61,
            "time": 267.1826849999927,
            "velocity": 0.49606299212598426,
            "duration": 0.08996050000001787
        },
        {
            "name": "G#5",
            "midi": 80,
            "time": 267.36260599999275,
            "velocity": 0.6692913385826772,
            "duration": 0.08996050000001787
        },
        {
            "name": "G#4",
            "midi": 68,
            "time": 267.36260599999275,
            "velocity": 0.5669291338582677,
            "duration": 0.08996050000001787
        },
        {
            "name": "C#5",
            "midi": 73,
            "time": 267.5425269999928,
            "velocity": 0.6771653543307087,
            "duration": 0.08996050000001787
        },
        {
            "name": "C#4",
            "midi": 61,
            "time": 267.5425269999928,
            "velocity": 0.5748031496062992,
            "duration": 0.08996050000001787
        },
        {
            "name": "E4",
            "midi": 64,
            "time": 267.7224479999928,
            "velocity": 0.5748031496062992,
            "duration": 0.08996050000001787
        },
        {
            "name": "E5",
            "midi": 76,
            "time": 267.7224479999928,
            "velocity": 0.6771653543307087,
            "duration": 0.08996050000001787
        },
        {
            "name": "D#4",
            "midi": 63,
            "time": 267.90236899999286,
            "velocity": 0.5669291338582677,
            "duration": 0.35984200000001465
        },
        {
            "name": "D#5",
            "midi": 75,
            "time": 267.90236899999286,
            "velocity": 0.6692913385826772,
            "duration": 0.35984200000001465
        },
        {
            "name": "D#5",
            "midi": 75,
            "time": 268.2622109999929,
            "velocity": 0.7322834645669292,
            "duration": 0.35984200000001465
        },
        {
            "name": "D#4",
            "midi": 63,
            "time": 268.2622109999929,
            "velocity": 0.6220472440944882,
            "duration": 0.35984200000001465
        },
        {
            "name": "D#4",
            "midi": 63,
            "time": 268.6220529999929,
            "velocity": 0.5905511811023622,
            "duration": 0.08996050000001787
        },
        {
            "name": "D#5",
            "midi": 75,
            "time": 268.6220529999929,
            "velocity": 0.7086614173228346,
            "duration": 0.08996050000001787
        },
        {
            "name": "G#4",
            "midi": 68,
            "time": 268.8019739999929,
            "velocity": 0.6220472440944882,
            "duration": 0.08996050000001787
        },
        {
            "name": "G#5",
            "midi": 80,
            "time": 268.8019739999929,
            "velocity": 0.7322834645669292,
            "duration": 0.08996050000001787
        },
        {
            "name": "D#5",
            "midi": 75,
            "time": 268.98189499999296,
            "velocity": 0.7086614173228346,
            "duration": 0.08996050000001787
        },
        {
            "name": "D#4",
            "midi": 63,
            "time": 268.98189499999296,
            "velocity": 0.5905511811023622,
            "duration": 0.08996050000001787
        },
        {
            "name": "F4",
            "midi": 65,
            "time": 269.161815999993,
            "velocity": 0.6299212598425197,
            "duration": 0.7196839999999725
        },
        {
            "name": "F5",
            "midi": 77,
            "time": 269.161815999993,
            "velocity": 0.7480314960629921,
            "duration": 0.7196839999999725
        },
        {
            "name": "F#4",
            "midi": 66,
            "time": 269.88149999999297,
            "velocity": 0.6299212598425197,
            "duration": 0.7196839999999725
        },
        {
            "name": "F#5",
            "midi": 78,
            "time": 269.88149999999297,
            "velocity": 0.7480314960629921,
            "duration": 0.7196839999999725
        },
        {
            "name": "D#4",
            "midi": 63,
            "time": 270.60118399999294,
            "velocity": 0.5275590551181102,
            "duration": 0.35984200000001465
        },
        {
            "name": "D#5",
            "midi": 75,
            "time": 270.60118399999294,
            "velocity": 0.6299212598425197,
            "duration": 0.048728604166683454
        },
        {
            "name": "E5",
            "midi": 76,
            "time": 270.6499126041596,
            "velocity": 0.5905511811023622,
            "duration": 0.048728604166683454
        },
        {
            "name": "D#5",
            "midi": 75,
            "time": 270.697891537493,
            "velocity": 0.6299212598425197,
            "duration": 0.048728604166683454
        },
        {
            "name": "E5",
            "midi": 76,
            "time": 270.74662014165966,
            "velocity": 0.6299212598425197,
            "duration": 0.048728604166683454
        },
        {
            "name": "D#5",
            "midi": 75,
            "time": 270.80734347915967,
            "velocity": 0.6299212598425197,
            "duration": 0.0584743249999633
        },
        {
            "name": "C#5",
            "midi": 73,
            "time": 270.86131977915966,
            "velocity": 0.5905511811023622,
            "duration": 0.0584743249999633
        },
        {
            "name": "D#5",
            "midi": 75,
            "time": 270.9107980541596,
            "velocity": 0.5905511811023622,
            "duration": 0.05022794583334189
        },
        {
            "name": "E5",
            "midi": 76,
            "time": 270.96102599999296,
            "velocity": 0.7480314960629921,
            "duration": 1.079525999999987
        },
        {
            "name": "E4",
            "midi": 64,
            "time": 270.96102599999296,
            "velocity": 0.6299212598425197,
            "duration": 1.079525999999987
        },
        {
            "name": "C#5",
            "midi": 73,
            "time": 272.04055199999294,
            "velocity": 0.7480314960629921,
            "duration": 0.7196839999999725
        },
        {
            "name": "C#4",
            "midi": 61,
            "time": 272.04055199999294,
            "velocity": 0.6299212598425197,
            "duration": 0.7196839999999725
        },
        {
            "name": "D4",
            "midi": 62,
            "time": 272.7602359999929,
            "velocity": 0.6299212598425197,
            "duration": 0.7196839999999725
        },
        {
            "name": "D5",
            "midi": 74,
            "time": 272.7602359999929,
            "velocity": 0.7401574803149606,
            "duration": 0.7196839999999725
        },
        {
            "name": "C4",
            "midi": 60,
            "time": 273.4799199999929,
            "velocity": 0.5275590551181102,
            "duration": 0.35984200000001465
        },
        {
            "name": "C5",
            "midi": 72,
            "time": 273.4799199999929,
            "velocity": 0.6299212598425197,
            "duration": 0.048728604166683454
        },
        {
            "name": "C#5",
            "midi": 73,
            "time": 273.52864860415957,
            "velocity": 0.5905511811023622,
            "duration": 0.048728604166683454
        },
        {
            "name": "C5",
            "midi": 72,
            "time": 273.5766275374929,
            "velocity": 0.6299212598425197,
            "duration": 0.048728604166683454
        },
        {
            "name": "C#5",
            "midi": 73,
            "time": 273.6253561416596,
            "velocity": 0.6299212598425197,
            "duration": 0.048728604166683454
        },
        {
            "name": "C5",
            "midi": 72,
            "time": 273.6860794791596,
            "velocity": 0.6299212598425197,
            "duration": 0.0584743249999633
        },
        {
            "name": "A#4",
            "midi": 70,
            "time": 273.7400557791596,
            "velocity": 0.5905511811023622,
            "duration": 0.0584743249999633
        },
        {
            "name": "C5",
            "midi": 72,
            "time": 273.78953405415956,
            "velocity": 0.5905511811023622,
            "duration": 0.05022794583334189
        },
        {
            "name": "C#4",
            "midi": 61,
            "time": 273.8397619999929,
            "velocity": 0.6299212598425197,
            "duration": 1.079525999999987
        },
        {
            "name": "C#5",
            "midi": 73,
            "time": 273.8397619999929,
            "velocity": 0.7480314960629921,
            "duration": 1.079525999999987
        },
        {
            "name": "F#4",
            "midi": 66,
            "time": 274.9192879999929,
            "velocity": 0.6535433070866141,
            "duration": 0.8096444999999903
        },
        {
            "name": "A4",
            "midi": 69,
            "time": 274.9192879999929,
            "velocity": 0.7874015748031497,
            "duration": 0.8096444999999903
        },
        {
            "name": "D5",
            "midi": 74,
            "time": 274.9192879999929,
            "velocity": 0.7874015748031497,
            "duration": 0.8096444999999903
        },
        {
            "name": "D4",
            "midi": 62,
            "time": 274.9192879999929,
            "velocity": 0.6535433070866141,
            "duration": 0.8096444999999903
        },
        {
            "name": "A4",
            "midi": 69,
            "time": 275.7289324999929,
            "velocity": 0.3779527559055118,
            "duration": 0.08996050000001787
        },
        {
            "name": "B4",
            "midi": 71,
            "time": 275.8188929999929,
            "velocity": 0.3779527559055118,
            "duration": 0.08996050000001787
        },
        {
            "name": "C#5",
            "midi": 73,
            "time": 275.9088534999929,
            "velocity": 0.3858267716535433,
            "duration": 0.08996050000001787
        },
        {
            "name": "D5",
            "midi": 74,
            "time": 275.99881399999293,
            "velocity": 0.3937007874015748,
            "duration": 0.08996050000001787
        },
        {
            "name": "E5",
            "midi": 76,
            "time": 276.08877449999295,
            "velocity": 0.4015748031496063,
            "duration": 0.08996050000001787
        },
        {
            "name": "F#5",
            "midi": 78,
            "time": 276.17873499999297,
            "velocity": 0.4015748031496063,
            "duration": 0.08996050000001787
        },
        {
            "name": "E5",
            "midi": 76,
            "time": 276.268695499993,
            "velocity": 0.3858267716535433,
            "duration": 0.08996050000001787
        },
        {
            "name": "D5",
            "midi": 74,
            "time": 276.358655999993,
            "velocity": 0.3858267716535433,
            "duration": 0.08996050000001787
        },
        {
            "name": "A4",
            "midi": 69,
            "time": 276.448616499993,
            "velocity": 0.3700787401574803,
            "duration": 0.08996050000001787
        },
        {
            "name": "B4",
            "midi": 71,
            "time": 276.53857699999304,
            "velocity": 0.3779527559055118,
            "duration": 0.08996050000001787
        },
        {
            "name": "C#5",
            "midi": 73,
            "time": 276.62853749999306,
            "velocity": 0.3858267716535433,
            "duration": 0.08996050000001787
        },
        {
            "name": "D5",
            "midi": 74,
            "time": 276.7184979999931,
            "velocity": 0.3937007874015748,
            "duration": 0.08996050000001787
        },
        {
            "name": "E5",
            "midi": 76,
            "time": 276.8084584999931,
            "velocity": 0.4015748031496063,
            "duration": 0.08996050000001787
        },
        {
            "name": "F#5",
            "midi": 78,
            "time": 276.8984189999931,
            "velocity": 0.4015748031496063,
            "duration": 0.08996050000001787
        },
        {
            "name": "E5",
            "midi": 76,
            "time": 276.98837949999313,
            "velocity": 0.3937007874015748,
            "duration": 0.08996050000001787
        },
        {
            "name": "D5",
            "midi": 74,
            "time": 277.07833999999315,
            "velocity": 0.3779527559055118,
            "duration": 0.08996050000001787
        },
        {
            "name": "A4",
            "midi": 69,
            "time": 277.16830049999317,
            "velocity": 0.3779527559055118,
            "duration": 0.08996050000001787
        },
        {
            "name": "B4",
            "midi": 71,
            "time": 277.2582609999932,
            "velocity": 0.3937007874015748,
            "duration": 0.08996050000001787
        },
        {
            "name": "C#5",
            "midi": 73,
            "time": 277.3482214999932,
            "velocity": 0.4015748031496063,
            "duration": 0.08996050000001787
        },
        {
            "name": "D5",
            "midi": 74,
            "time": 277.4381819999932,
            "velocity": 0.4015748031496063,
            "duration": 0.08996050000001787
        },
        {
            "name": "E5",
            "midi": 76,
            "time": 277.52814249999324,
            "velocity": 0.4094488188976378,
            "duration": 0.08996050000001787
        },
        {
            "name": "F#5",
            "midi": 78,
            "time": 277.61810299999325,
            "velocity": 0.4094488188976378,
            "duration": 0.08996050000001787
        },
        {
            "name": "E5",
            "midi": 76,
            "time": 277.7080634999933,
            "velocity": 0.4015748031496063,
            "duration": 0.08996050000001787
        },
        {
            "name": "D5",
            "midi": 74,
            "time": 277.7980239999933,
            "velocity": 0.3700787401574803,
            "duration": 0.08996050000001787
        },
        {
            "name": "A4",
            "midi": 69,
            "time": 277.8879844999933,
            "velocity": 0.3779527559055118,
            "duration": 0.08996050000001787
        },
        {
            "name": "B4",
            "midi": 71,
            "time": 277.9779449999933,
            "velocity": 0.4015748031496063,
            "duration": 0.08996050000001787
        },
        {
            "name": "C#5",
            "midi": 73,
            "time": 278.06790549999334,
            "velocity": 0.4015748031496063,
            "duration": 0.08996050000001787
        },
        {
            "name": "D5",
            "midi": 74,
            "time": 278.15786599999336,
            "velocity": 0.4251968503937008,
            "duration": 0.08996050000001787
        },
        {
            "name": "E5",
            "midi": 76,
            "time": 278.2478264999934,
            "velocity": 0.4409448818897638,
            "duration": 0.08996050000001787
        },
        {
            "name": "F#5",
            "midi": 78,
            "time": 278.3377869999934,
            "velocity": 0.44881889763779526,
            "duration": 0.08996050000001787
        },
        {
            "name": "G5",
            "midi": 79,
            "time": 278.4277474999934,
            "velocity": 0.47244094488188976,
            "duration": 0.08996050000001787
        },
        {
            "name": "A5",
            "midi": 81,
            "time": 278.51770799999343,
            "velocity": 0.48031496062992124,
            "duration": 0.08996050000001787
        },
        {
            "name": "G#5",
            "midi": 80,
            "time": 278.60766849999345,
            "velocity": 0.4645669291338583,
            "duration": 0.08996050000001787
        },
        {
            "name": "B5",
            "midi": 83,
            "time": 278.69762899999347,
            "velocity": 0.44881889763779526,
            "duration": 0.08996050000001787
        },
        {
            "name": "A5",
            "midi": 81,
            "time": 278.7875894999935,
            "velocity": 0.4409448818897638,
            "duration": 0.08996050000001787
        },
        {
            "name": "G5",
            "midi": 79,
            "time": 278.8775499999935,
            "velocity": 0.4251968503937008,
            "duration": 0.08996050000001787
        },
        {
            "name": "F#5",
            "midi": 78,
            "time": 278.9675104999935,
            "velocity": 0.4094488188976378,
            "duration": 0.08996050000001787
        },
        {
            "name": "E5",
            "midi": 76,
            "time": 279.05747099999354,
            "velocity": 0.4015748031496063,
            "duration": 0.08996050000001787
        },
        {
            "name": "D5",
            "midi": 74,
            "time": 279.14743149999356,
            "velocity": 0.3937007874015748,
            "duration": 0.08996050000001787
        },
        {
            "name": "C#5",
            "midi": 73,
            "time": 279.2373919999936,
            "velocity": 0.3779527559055118,
            "duration": 0.7196839999999725
        },
        {
            "name": "D#5",
            "midi": 75,
            "time": 279.95707599999355,
            "velocity": 0.3937007874015748,
            "duration": 0.05997366666667858
        },
        {
            "name": "E5",
            "midi": 76,
            "time": 280.0170496666602,
            "velocity": 0.3937007874015748,
            "duration": 0.05997366666667858
        },
        {
            "name": "D#5",
            "midi": 75,
            "time": 280.0770233333269,
            "velocity": 0.3937007874015748,
            "duration": 0.056225312499975644
        },
        {
            "name": "E5",
            "midi": 76,
            "time": 280.1332486458269,
            "velocity": 0.3937007874015748,
            "duration": 0.056225312499975644
        },
        {
            "name": "D#5",
            "midi": 75,
            "time": 280.18947395832686,
            "velocity": 0.3937007874015748,
            "duration": 0.056225312499975644
        },
        {
            "name": "E5",
            "midi": 76,
            "time": 280.24569927082683,
            "velocity": 0.3937007874015748,
            "duration": 0.056225312499975644
        },
        {
            "name": "D#5",
            "midi": 75,
            "time": 280.3019245833268,
            "velocity": 0.3858267716535433,
            "duration": 0.05247695833332955
        },
        {
            "name": "E5",
            "midi": 76,
            "time": 280.35440154166014,
            "velocity": 0.3858267716535433,
            "duration": 0.05247695833332955
        },
        {
            "name": "D#5",
            "midi": 75,
            "time": 280.40687849999347,
            "velocity": 0.3937007874015748,
            "duration": 0.044980249999980515
        },
        {
            "name": "E5",
            "midi": 76,
            "time": 280.45185874999345,
            "velocity": 0.4015748031496063,
            "duration": 0.044980249999980515
        },
        {
            "name": "D#5",
            "midi": 75,
            "time": 280.49683899999343,
            "velocity": 0.4015748031496063,
            "duration": 0.05997366666667858
        },
        {
            "name": "C#5",
            "midi": 73,
            "time": 280.5568126666601,
            "velocity": 0.4015748031496063,
            "duration": 0.05997366666667858
        },
        {
            "name": "D#5",
            "midi": 75,
            "time": 280.6167863333268,
            "velocity": 0.4094488188976378,
            "duration": 0.05997366666667858
        },
        {
            "name": "C#5",
            "midi": 73,
            "time": 280.67675999999346,
            "velocity": 0.4409448818897638,
            "duration": 0.1799209999999789
        },
        {
            "name": "D4",
            "midi": 62,
            "time": 281.0366019999934,
            "velocity": 0.6850393700787402,
            "duration": 0.4498024999999757
        },
        {
            "name": "F#3",
            "midi": 54,
            "time": 281.0366019999934,
            "velocity": 0.5748031496062992,
            "duration": 0.4498024999999757
        },
        {
            "name": "A3",
            "midi": 57,
            "time": 281.0366019999934,
            "velocity": 0.6850393700787402,
            "duration": 0.4498024999999757
        },
        {
            "name": "D3",
            "midi": 50,
            "time": 281.0366019999934,
            "velocity": 0.5748031496062992,
            "duration": 0.4498024999999757
        },
        {
            "name": "A3",
            "midi": 57,
            "time": 281.4864044999934,
            "velocity": 0.3779527559055118,
            "duration": 0.08996050000001787
        },
        {
            "name": "B3",
            "midi": 59,
            "time": 281.5763649999934,
            "velocity": 0.3779527559055118,
            "duration": 0.08996050000001787
        },
        {
            "name": "C#4",
            "midi": 61,
            "time": 281.66632549999343,
            "velocity": 0.3858267716535433,
            "duration": 0.08996050000001787
        },
        {
            "name": "D4",
            "midi": 62,
            "time": 281.75628599999345,
            "velocity": 0.3937007874015748,
            "duration": 0.08996050000001787
        },
        {
            "name": "E4",
            "midi": 64,
            "time": 281.84624649999347,
            "velocity": 0.4015748031496063,
            "duration": 0.08996050000001787
        },
        {
            "name": "F#4",
            "midi": 66,
            "time": 281.9362069999935,
            "velocity": 0.4015748031496063,
            "duration": 0.08996050000001787
        },
        {
            "name": "E4",
            "midi": 64,
            "time": 282.0261674999935,
            "velocity": 0.4015748031496063,
            "duration": 0.08996050000001787
        },
        {
            "name": "D4",
            "midi": 62,
            "time": 282.1161279999935,
            "velocity": 0.3779527559055118,
            "duration": 0.08996050000001787
        },
        {
            "name": "A3",
            "midi": 57,
            "time": 282.20608849999354,
            "velocity": 0.3700787401574803,
            "duration": 0.08996050000001787
        },
        {
            "name": "B3",
            "midi": 59,
            "time": 282.29604899999356,
            "velocity": 0.3779527559055118,
            "duration": 0.08996050000001787
        },
        {
            "name": "C#4",
            "midi": 61,
            "time": 282.3860094999936,
            "velocity": 0.3779527559055118,
            "duration": 0.08996050000001787
        },
        {
            "name": "D4",
            "midi": 62,
            "time": 282.4759699999936,
            "velocity": 0.3858267716535433,
            "duration": 0.08996050000001787
        },
        {
            "name": "E4",
            "midi": 64,
            "time": 282.5659304999936,
            "velocity": 0.3937007874015748,
            "duration": 0.08996050000001787
        },
        {
            "name": "F#4",
            "midi": 66,
            "time": 282.65589099999363,
            "velocity": 0.4015748031496063,
            "duration": 0.08996050000001787
        },
        {
            "name": "E4",
            "midi": 64,
            "time": 282.74585149999365,
            "velocity": 0.3779527559055118,
            "duration": 0.08996050000001787
        },
        {
            "name": "D4",
            "midi": 62,
            "time": 282.83581199999367,
            "velocity": 0.3779527559055118,
            "duration": 0.08996050000001787
        },
        {
            "name": "A3",
            "midi": 57,
            "time": 282.9257724999937,
            "velocity": 0.3779527559055118,
            "duration": 0.08996050000001787
        },
        {
            "name": "B3",
            "midi": 59,
            "time": 283.0157329999937,
            "velocity": 0.3779527559055118,
            "duration": 0.08996050000001787
        },
        {
            "name": "C#4",
            "midi": 61,
            "time": 283.1056934999937,
            "velocity": 0.3937007874015748,
            "duration": 0.08996050000001787
        },
        {
            "name": "D4",
            "midi": 62,
            "time": 283.19565399999374,
            "velocity": 0.3937007874015748,
            "duration": 0.08996050000001787
        },
        {
            "name": "E4",
            "midi": 64,
            "time": 283.28561449999376,
            "velocity": 0.3937007874015748,
            "duration": 0.08996050000001787
        },
        {
            "name": "F#4",
            "midi": 66,
            "time": 283.3755749999938,
            "velocity": 0.3937007874015748,
            "duration": 0.08996050000001787
        },
        {
            "name": "E4",
            "midi": 64,
            "time": 283.4655354999938,
            "velocity": 0.3937007874015748,
            "duration": 0.08996050000001787
        },
        {
            "name": "D4",
            "midi": 62,
            "time": 283.5554959999938,
            "velocity": 0.3858267716535433,
            "duration": 0.08996050000001787
        },
        {
            "name": "A3",
            "midi": 57,
            "time": 283.6454564999938,
            "velocity": 0.4015748031496063,
            "duration": 0.08996050000001787
        },
        {
            "name": "B3",
            "midi": 59,
            "time": 283.73541699999384,
            "velocity": 0.4015748031496063,
            "duration": 0.08996050000001787
        },
        {
            "name": "C#4",
            "midi": 61,
            "time": 283.82537749999386,
            "velocity": 0.41732283464566927,
            "duration": 0.08996050000001787
        },
        {
            "name": "D4",
            "midi": 62,
            "time": 283.9153379999939,
            "velocity": 0.4409448818897638,
            "duration": 0.08996050000001787
        },
        {
            "name": "E4",
            "midi": 64,
            "time": 284.0052984999939,
            "velocity": 0.4409448818897638,
            "duration": 0.08996050000001787
        },
        {
            "name": "F#4",
            "midi": 66,
            "time": 284.0952589999939,
            "velocity": 0.44881889763779526,
            "duration": 0.08996050000001787
        },
        {
            "name": "G4",
            "midi": 67,
            "time": 284.18521949999393,
            "velocity": 0.4645669291338583,
            "duration": 0.08996050000001787
        },
        {
            "name": "A4",
            "midi": 69,
            "time": 284.27517999999395,
            "velocity": 0.48031496062992124,
            "duration": 0.08996050000001787
        },
        {
            "name": "B4",
            "midi": 71,
            "time": 284.36514049999397,
            "velocity": 0.4881889763779528,
            "duration": 0.08996050000001787
        },
        {
            "name": "C#5",
            "midi": 73,
            "time": 284.455100999994,
            "velocity": 0.49606299212598426,
            "duration": 0.08996050000001787
        },
        {
            "name": "D5",
            "midi": 74,
            "time": 284.545061499994,
            "velocity": 0.5196850393700787,
            "duration": 0.08996050000001787
        },
        {
            "name": "E5",
            "midi": 76,
            "time": 284.635021999994,
            "velocity": 0.5354330708661418,
            "duration": 0.08996050000001787
        },
        {
            "name": "F#5",
            "midi": 78,
            "time": 284.72498249999404,
            "velocity": 0.5354330708661418,
            "duration": 0.08996050000001787
        },
        {
            "name": "G5",
            "midi": 79,
            "time": 284.81494299999406,
            "velocity": 0.5511811023622047,
            "duration": 0.08996050000001787
        },
        {
            "name": "G#5",
            "midi": 80,
            "time": 284.9049034999941,
            "velocity": 0.5669291338582677,
            "duration": 0.08996050000001787
        },
        {
            "name": "A5",
            "midi": 81,
            "time": 284.9948639999941,
            "velocity": 0.6220472440944882,
            "duration": 0.7196839999999725
        },
        {
            "name": "A4",
            "midi": 69,
            "time": 284.9948639999941,
            "velocity": 0.5275590551181102,
            "duration": 0.7196839999999725
        },
        {
            "name": "C#5",
            "midi": 73,
            "time": 285.71454799999407,
            "velocity": 0.6062992125984252,
            "duration": 0.7196839999999725
        },
        {
            "name": "C#4",
            "midi": 61,
            "time": 285.71454799999407,
            "velocity": 0.5118110236220472,
            "duration": 0.7196839999999725
        },
        {
            "name": "E4",
            "midi": 64,
            "time": 286.43423199999404,
            "velocity": 0.5118110236220472,
            "duration": 0.7196839999999725
        },
        {
            "name": "E5",
            "midi": 76,
            "time": 286.43423199999404,
            "velocity": 0.6062992125984252,
            "duration": 0.7196839999999725
        },
        {
            "name": "C3",
            "midi": 48,
            "time": 287.153915999994,
            "velocity": 0.5118110236220472,
            "duration": 0.7196839999999725
        },
        {
            "name": "F#3",
            "midi": 54,
            "time": 287.153915999994,
            "velocity": 0.5118110236220472,
            "duration": 0.7196839999999725
        },
        {
            "name": "C4",
            "midi": 60,
            "time": 287.153915999994,
            "velocity": 0.6062992125984252,
            "duration": 0.7196839999999725
        },
        {
            "name": "E4",
            "midi": 64,
            "time": 288.05352099999396,
            "velocity": 0.3779527559055118,
            "duration": 0.08996050000001787
        },
        {
            "name": "G#3",
            "midi": 56,
            "time": 288.05352099999396,
            "velocity": 0.3779527559055118,
            "duration": 0.08996050000001787
        },
        {
            "name": "E4",
            "midi": 64,
            "time": 288.233441999994,
            "velocity": 0.3779527559055118,
            "duration": 0.08996050000001787
        },
        {
            "name": "G#3",
            "midi": 56,
            "time": 288.233441999994,
            "velocity": 0.3779527559055118,
            "duration": 0.08996050000001787
        },
        {
            "name": "E4",
            "midi": 64,
            "time": 288.41336299999404,
            "velocity": 0.3779527559055118,
            "duration": 0.08996050000001787
        },
        {
            "name": "G#3",
            "midi": 56,
            "time": 288.41336299999404,
            "velocity": 0.3779527559055118,
            "duration": 0.08996050000001787
        },
        {
            "name": "E4",
            "midi": 64,
            "time": 288.59328399999407,
            "velocity": 0.3779527559055118,
            "duration": 0.08996050000001787
        },
        {
            "name": "G#3",
            "midi": 56,
            "time": 288.59328399999407,
            "velocity": 0.3779527559055118,
            "duration": 0.08996050000001787
        },
        {
            "name": "E4",
            "midi": 64,
            "time": 288.7732049999941,
            "velocity": 0.3779527559055118,
            "duration": 0.08996050000001787
        },
        {
            "name": "G#3",
            "midi": 56,
            "time": 288.7732049999941,
            "velocity": 0.3779527559055118,
            "duration": 0.08996050000001787
        },
        {
            "name": "D#4",
            "midi": 63,
            "time": 288.95312599999414,
            "velocity": 0.36220472440944884,
            "duration": 0.08996050000001787
        },
        {
            "name": "G#3",
            "midi": 56,
            "time": 288.95312599999414,
            "velocity": 0.36220472440944884,
            "duration": 0.08996050000001787
        },
        {
            "name": "G#3",
            "midi": 56,
            "time": 289.1330469999942,
            "velocity": 0.3543307086614173,
            "duration": 0.08996050000001787
        },
        {
            "name": "C#4",
            "midi": 61,
            "time": 289.1330469999942,
            "velocity": 0.3543307086614173,
            "duration": 0.08996050000001787
        },
        {
            "name": "C4",
            "midi": 60,
            "time": 289.3129679999942,
            "velocity": 0.41732283464566927,
            "duration": 0.1799209999999789
        },
        {
            "name": "G#3",
            "midi": 56,
            "time": 289.3129679999942,
            "velocity": 0.41732283464566927,
            "duration": 0.1799209999999789
        },
        {
            "name": "C4",
            "midi": 60,
            "time": 289.4928889999942,
            "velocity": 0.3779527559055118,
            "duration": 0.08996050000001787
        },
        {
            "name": "G#4",
            "midi": 68,
            "time": 289.4928889999942,
            "velocity": 0.3779527559055118,
            "duration": 0.08996050000001787
        },
        {
            "name": "G#4",
            "midi": 68,
            "time": 289.67280999999423,
            "velocity": 0.3779527559055118,
            "duration": 0.08996050000001787
        },
        {
            "name": "C4",
            "midi": 60,
            "time": 289.67280999999423,
            "velocity": 0.3779527559055118,
            "duration": 0.08996050000001787
        },
        {
            "name": "C4",
            "midi": 60,
            "time": 289.85273099999426,
            "velocity": 0.3779527559055118,
            "duration": 0.08996050000001787
        },
        {
            "name": "G#4",
            "midi": 68,
            "time": 289.85273099999426,
            "velocity": 0.3779527559055118,
            "duration": 0.08996050000001787
        },
        {
            "name": "C4",
            "midi": 60,
            "time": 290.0326519999943,
            "velocity": 0.3779527559055118,
            "duration": 0.08996050000001787
        },
        {
            "name": "G#4",
            "midi": 68,
            "time": 290.0326519999943,
            "velocity": 0.3779527559055118,
            "duration": 0.08996050000001787
        },
        {
            "name": "G#4",
            "midi": 68,
            "time": 290.21257299999434,
            "velocity": 0.3779527559055118,
            "duration": 0.08996050000001787
        },
        {
            "name": "C4",
            "midi": 60,
            "time": 290.21257299999434,
            "velocity": 0.3779527559055118,
            "duration": 0.08996050000001787
        },
        {
            "name": "G#4",
            "midi": 68,
            "time": 290.3924939999944,
            "velocity": 0.3779527559055118,
            "duration": 0.08996050000001787
        },
        {
            "name": "C#4",
            "midi": 61,
            "time": 290.3924939999944,
            "velocity": 0.3779527559055118,
            "duration": 0.08996050000001787
        },
        {
            "name": "G#4",
            "midi": 68,
            "time": 290.5724149999944,
            "velocity": 0.4015748031496063,
            "duration": 0.08996050000001787
        },
        {
            "name": "D#4",
            "midi": 63,
            "time": 290.5724149999944,
            "velocity": 0.4015748031496063,
            "duration": 0.08996050000001787
        },
        {
            "name": "E4",
            "midi": 64,
            "time": 290.75233599999444,
            "velocity": 0.4645669291338583,
            "duration": 0.1799209999999789
        },
        {
            "name": "G#4",
            "midi": 68,
            "time": 290.75233599999444,
            "velocity": 0.4645669291338583,
            "duration": 0.1799209999999789
        },
        {
            "name": "G#3",
            "midi": 56,
            "time": 290.9322569999944,
            "velocity": 0.3779527559055118,
            "duration": 0.08996050000001787
        },
        {
            "name": "E4",
            "midi": 64,
            "time": 290.9322569999944,
            "velocity": 0.3779527559055118,
            "duration": 0.08996050000001787
        },
        {
            "name": "E4",
            "midi": 64,
            "time": 291.11217799999446,
            "velocity": 0.3779527559055118,
            "duration": 0.08996050000001787
        },
        {
            "name": "G#3",
            "midi": 56,
            "time": 291.11217799999446,
            "velocity": 0.3779527559055118,
            "duration": 0.08996050000001787
        },
        {
            "name": "G#3",
            "midi": 56,
            "time": 291.2920989999945,
            "velocity": 0.3858267716535433,
            "duration": 0.08996050000001787
        },
        {
            "name": "E4",
            "midi": 64,
            "time": 291.2920989999945,
            "velocity": 0.3858267716535433,
            "duration": 0.08996050000001787
        },
        {
            "name": "G#3",
            "midi": 56,
            "time": 291.47201999999453,
            "velocity": 0.3858267716535433,
            "duration": 0.08996050000001787
        },
        {
            "name": "E4",
            "midi": 64,
            "time": 291.47201999999453,
            "velocity": 0.3858267716535433,
            "duration": 0.08996050000001787
        },
        {
            "name": "E4",
            "midi": 64,
            "time": 291.65194099999457,
            "velocity": 0.3858267716535433,
            "duration": 0.08996050000001787
        },
        {
            "name": "G#3",
            "midi": 56,
            "time": 291.65194099999457,
            "velocity": 0.3858267716535433,
            "duration": 0.08996050000001787
        },
        {
            "name": "G#3",
            "midi": 56,
            "time": 291.8318619999946,
            "velocity": 0.3700787401574803,
            "duration": 0.08996050000001787
        },
        {
            "name": "D#4",
            "midi": 63,
            "time": 291.8318619999946,
            "velocity": 0.3700787401574803,
            "duration": 0.08996050000001787
        },
        {
            "name": "C#4",
            "midi": 61,
            "time": 292.01178299999464,
            "velocity": 0.3779527559055118,
            "duration": 0.08996050000001787
        },
        {
            "name": "G#3",
            "midi": 56,
            "time": 292.01178299999464,
            "velocity": 0.3779527559055118,
            "duration": 0.08996050000001787
        },
        {
            "name": "G#3",
            "midi": 56,
            "time": 292.1917039999947,
            "velocity": 0.4645669291338583,
            "duration": 0.1799209999999789
        },
        {
            "name": "C4",
            "midi": 60,
            "time": 292.1917039999947,
            "velocity": 0.4645669291338583,
            "duration": 0.1799209999999789
        },
        {
            "name": "G#4",
            "midi": 68,
            "time": 292.37162499999465,
            "velocity": 0.3700787401574803,
            "duration": 0.08996050000001787
        },
        {
            "name": "C4",
            "midi": 60,
            "time": 292.37162499999465,
            "velocity": 0.3700787401574803,
            "duration": 0.08996050000001787
        },
        {
            "name": "G#4",
            "midi": 68,
            "time": 292.5515459999947,
            "velocity": 0.3700787401574803,
            "duration": 0.08996050000001787
        },
        {
            "name": "C4",
            "midi": 60,
            "time": 292.5515459999947,
            "velocity": 0.3700787401574803,
            "duration": 0.08996050000001787
        },
        {
            "name": "C4",
            "midi": 60,
            "time": 292.7314669999947,
            "velocity": 0.3700787401574803,
            "duration": 0.08996050000001787
        },
        {
            "name": "G#4",
            "midi": 68,
            "time": 292.7314669999947,
            "velocity": 0.3700787401574803,
            "duration": 0.08996050000001787
        },
        {
            "name": "C4",
            "midi": 60,
            "time": 292.91138799999476,
            "velocity": 0.3700787401574803,
            "duration": 0.08996050000001787
        },
        {
            "name": "G#4",
            "midi": 68,
            "time": 292.91138799999476,
            "velocity": 0.3700787401574803,
            "duration": 0.08996050000001787
        },
        {
            "name": "C4",
            "midi": 60,
            "time": 293.0913089999948,
            "velocity": 0.3700787401574803,
            "duration": 0.08996050000001787
        },
        {
            "name": "G#4",
            "midi": 68,
            "time": 293.0913089999948,
            "velocity": 0.3700787401574803,
            "duration": 0.08996050000001787
        },
        {
            "name": "C#4",
            "midi": 61,
            "time": 293.27122999999483,
            "velocity": 0.3700787401574803,
            "duration": 0.08996050000001787
        },
        {
            "name": "G#4",
            "midi": 68,
            "time": 293.27122999999483,
            "velocity": 0.3700787401574803,
            "duration": 0.08996050000001787
        },
        {
            "name": "G#4",
            "midi": 68,
            "time": 293.45115099999487,
            "velocity": 0.4015748031496063,
            "duration": 0.08996050000001787
        },
        {
            "name": "D#4",
            "midi": 63,
            "time": 293.45115099999487,
            "velocity": 0.4015748031496063,
            "duration": 0.08996050000001787
        },
        {
            "name": "G#4",
            "midi": 68,
            "time": 293.6310719999949,
            "velocity": 0.48031496062992124,
            "duration": 0.08996050000001787
        },
        {
            "name": "E4",
            "midi": 64,
            "time": 293.6310719999949,
            "velocity": 0.48031496062992124,
            "duration": 0.08996050000001787
        },
        {
            "name": "G#4",
            "midi": 68,
            "time": 293.81099299999494,
            "velocity": 0.3700787401574803,
            "duration": 0.08996050000001787
        },
        {
            "name": "E4",
            "midi": 64,
            "time": 293.81099299999494,
            "velocity": 0.3700787401574803,
            "duration": 0.08996050000001787
        },
        {
            "name": "E4",
            "midi": 64,
            "time": 293.990913999995,
            "velocity": 0.3779527559055118,
            "duration": 0.1799209999999789
        },
        {
            "name": "G#4",
            "midi": 68,
            "time": 293.990913999995,
            "velocity": 0.3779527559055118,
            "duration": 0.1799209999999789
        },
        {
            "name": "C#4",
            "midi": 61,
            "time": 294.17083499999495,
            "velocity": 0.3543307086614173,
            "duration": 0.1799209999999789
        },
        {
            "name": "E4",
            "midi": 64,
            "time": 294.17083499999495,
            "velocity": 0.3543307086614173,
            "duration": 0.1799209999999789
        },
        {
            "name": "F#4",
            "midi": 66,
            "time": 294.5306769999949,
            "velocity": 0.3779527559055118,
            "duration": 0.08996050000001787
        },
        {
            "name": "A4",
            "midi": 69,
            "time": 294.5306769999949,
            "velocity": 0.3779527559055118,
            "duration": 0.08996050000001787
        },
        {
            "name": "A4",
            "midi": 69,
            "time": 294.71059799999495,
            "velocity": 0.3779527559055118,
            "duration": 0.1799209999999789
        },
        {
            "name": "F#4",
            "midi": 66,
            "time": 294.71059799999495,
            "velocity": 0.3779527559055118,
            "duration": 0.1799209999999789
        },
        {
            "name": "C#4",
            "midi": 61,
            "time": 294.8905189999949,
            "velocity": 0.36220472440944884,
            "duration": 0.1799209999999789
        },
        {
            "name": "F#4",
            "midi": 66,
            "time": 294.8905189999949,
            "velocity": 0.36220472440944884,
            "duration": 0.1799209999999789
        },
        {
            "name": "G#4",
            "midi": 68,
            "time": 295.2503609999949,
            "velocity": 0.3700787401574803,
            "duration": 0.08996050000001787
        },
        {
            "name": "E4",
            "midi": 64,
            "time": 295.2503609999949,
            "velocity": 0.3700787401574803,
            "duration": 0.08996050000001787
        },
        {
            "name": "G#4",
            "midi": 68,
            "time": 295.4302819999949,
            "velocity": 0.3700787401574803,
            "duration": 0.1799209999999789
        },
        {
            "name": "E4",
            "midi": 64,
            "time": 295.4302819999949,
            "velocity": 0.3700787401574803,
            "duration": 0.1799209999999789
        },
        {
            "name": "E4",
            "midi": 64,
            "time": 295.6102029999949,
            "velocity": 0.36220472440944884,
            "duration": 0.1799209999999789
        },
        {
            "name": "C#4",
            "midi": 61,
            "time": 295.6102029999949,
            "velocity": 0.36220472440944884,
            "duration": 0.1799209999999789
        },
        {
            "name": "D#4",
            "midi": 63,
            "time": 295.97004499999485,
            "velocity": 0.3700787401574803,
            "duration": 0.08996050000001787
        },
        {
            "name": "G#4",
            "midi": 68,
            "time": 295.97004499999485,
            "velocity": 0.3700787401574803,
            "duration": 0.08996050000001787
        },
        {
            "name": "D#4",
            "midi": 63,
            "time": 296.1499659999949,
            "velocity": 0.3700787401574803,
            "duration": 0.1799209999999789
        },
        {
            "name": "G#4",
            "midi": 68,
            "time": 296.1499659999949,
            "velocity": 0.3700787401574803,
            "duration": 0.1799209999999789
        },
        {
            "name": "C4",
            "midi": 60,
            "time": 296.32988699999487,
            "velocity": 0.3543307086614173,
            "duration": 0.1799209999999789
        },
        {
            "name": "D#4",
            "midi": 63,
            "time": 296.32988699999487,
            "velocity": 0.3543307086614173,
            "duration": 0.1799209999999789
        },
        {
            "name": "C#4",
            "midi": 61,
            "time": 296.50980799999485,
            "velocity": 0.4645669291338583,
            "duration": 0.1799209999999789
        },
        {
            "name": "E4",
            "midi": 64,
            "time": 296.50980799999485,
            "velocity": 0.4645669291338583,
            "duration": 0.1799209999999789
        },
        {
            "name": "E4",
            "midi": 64,
            "time": 296.6897289999948,
            "velocity": 0.30708661417322836,
            "duration": 0.08996050000001787
        },
        {
            "name": "E5",
            "midi": 76,
            "time": 296.6897289999948,
            "velocity": 0.3700787401574803,
            "duration": 0.08996050000001787
        },
        {
            "name": "G#4",
            "midi": 68,
            "time": 296.6897289999948,
            "velocity": 0.3700787401574803,
            "duration": 0.08996050000001787
        },
        {
            "name": "E5",
            "midi": 76,
            "time": 296.86964999999486,
            "velocity": 0.3700787401574803,
            "duration": 0.08996050000001787
        },
        {
            "name": "E4",
            "midi": 64,
            "time": 296.86964999999486,
            "velocity": 0.30708661417322836,
            "duration": 0.08996050000001787
        },
        {
            "name": "G#4",
            "midi": 68,
            "time": 296.86964999999486,
            "velocity": 0.3700787401574803,
            "duration": 0.08996050000001787
        },
        {
            "name": "E4",
            "midi": 64,
            "time": 297.0495709999949,
            "velocity": 0.30708661417322836,
            "duration": 0.08996050000001787
        },
        {
            "name": "G#4",
            "midi": 68,
            "time": 297.0495709999949,
            "velocity": 0.3700787401574803,
            "duration": 0.08996050000001787
        },
        {
            "name": "E5",
            "midi": 76,
            "time": 297.0495709999949,
            "velocity": 0.3700787401574803,
            "duration": 0.08996050000001787
        },
        {
            "name": "G#4",
            "midi": 68,
            "time": 297.22949199999493,
            "velocity": 0.3700787401574803,
            "duration": 0.08996050000001787
        },
        {
            "name": "E4",
            "midi": 64,
            "time": 297.22949199999493,
            "velocity": 0.30708661417322836,
            "duration": 0.08996050000001787
        },
        {
            "name": "E5",
            "midi": 76,
            "time": 297.22949199999493,
            "velocity": 0.3700787401574803,
            "duration": 0.08996050000001787
        },
        {
            "name": "G#4",
            "midi": 68,
            "time": 297.40941299999497,
            "velocity": 0.3700787401574803,
            "duration": 0.08996050000001787
        },
        {
            "name": "E4",
            "midi": 64,
            "time": 297.40941299999497,
            "velocity": 0.30708661417322836,
            "duration": 0.08996050000001787
        },
        {
            "name": "E5",
            "midi": 76,
            "time": 297.40941299999497,
            "velocity": 0.3700787401574803,
            "duration": 0.08996050000001787
        },
        {
            "name": "F#4",
            "midi": 66,
            "time": 297.589333999995,
            "velocity": 0.3937007874015748,
            "duration": 0.08996050000001787
        },
        {
            "name": "D#4",
            "midi": 63,
            "time": 297.589333999995,
            "velocity": 0.33070866141732286,
            "duration": 0.08996050000001787
        },
        {
            "name": "D#5",
            "midi": 75,
            "time": 297.589333999995,
            "velocity": 0.3937007874015748,
            "duration": 0.08996050000001787
        },
        {
            "name": "C#4",
            "midi": 61,
            "time": 297.76925499999504,
            "velocity": 0.3464566929133858,
            "duration": 0.08996050000001787
        },
        {
            "name": "C#5",
            "midi": 73,
            "time": 297.76925499999504,
            "velocity": 0.4094488188976378,
            "duration": 0.08996050000001787
        },
        {
            "name": "E4",
            "midi": 64,
            "time": 297.76925499999504,
            "velocity": 0.4094488188976378,
            "duration": 0.08996050000001787
        },
        {
            "name": "D#4",
            "midi": 63,
            "time": 297.9491759999951,
            "velocity": 0.4566929133858268,
            "duration": 0.1799209999999789
        },
        {
            "name": "C5",
            "midi": 72,
            "time": 297.9491759999951,
            "velocity": 0.4566929133858268,
            "duration": 0.1799209999999789
        },
        {
            "name": "C4",
            "midi": 60,
            "time": 297.9491759999951,
            "velocity": 0.3858267716535433,
            "duration": 0.1799209999999789
        },
        {
            "name": "C5",
            "midi": 72,
            "time": 298.12909699999506,
            "velocity": 0.5354330708661418,
            "duration": 0.08996050000001787
        },
        {
            "name": "D#5",
            "midi": 75,
            "time": 298.12909699999506,
            "velocity": 0.6377952755905512,
            "duration": 0.08996050000001787
        },
        {
            "name": "C6",
            "midi": 84,
            "time": 298.12909699999506,
            "velocity": 0.6377952755905512,
            "duration": 0.08996050000001787
        },
        {
            "name": "D#5",
            "midi": 75,
            "time": 298.3090179999951,
            "velocity": 0.6771653543307087,
            "duration": 0.08996050000001787
        },
        {
            "name": "C5",
            "midi": 72,
            "time": 298.3090179999951,
            "velocity": 0.5748031496062992,
            "duration": 0.08996050000001787
        },
        {
            "name": "C6",
            "midi": 84,
            "time": 298.3090179999951,
            "velocity": 0.6771653543307087,
            "duration": 0.08996050000001787
        },
        {
            "name": "C5",
            "midi": 72,
            "time": 298.4889389999951,
            "velocity": 0.5354330708661418,
            "duration": 0.08996050000001787
        },
        {
            "name": "C6",
            "midi": 84,
            "time": 298.4889389999951,
            "velocity": 0.6299212598425197,
            "duration": 0.08996050000001787
        },
        {
            "name": "D#5",
            "midi": 75,
            "time": 298.4889389999951,
            "velocity": 0.6299212598425197,
            "duration": 0.08996050000001787
        },
        {
            "name": "C5",
            "midi": 72,
            "time": 298.66885999999516,
            "velocity": 0.5748031496062992,
            "duration": 0.08996050000001787
        },
        {
            "name": "D#5",
            "midi": 75,
            "time": 298.66885999999516,
            "velocity": 0.6771653543307087,
            "duration": 0.08996050000001787
        },
        {
            "name": "C6",
            "midi": 84,
            "time": 298.66885999999516,
            "velocity": 0.6771653543307087,
            "duration": 0.08996050000001787
        },
        {
            "name": "C5",
            "midi": 72,
            "time": 298.8487809999952,
            "velocity": 0.5354330708661418,
            "duration": 0.08996050000001787
        },
        {
            "name": "C6",
            "midi": 84,
            "time": 298.8487809999952,
            "velocity": 0.6377952755905512,
            "duration": 0.08996050000001787
        },
        {
            "name": "D#5",
            "midi": 75,
            "time": 298.8487809999952,
            "velocity": 0.6377952755905512,
            "duration": 0.08996050000001787
        },
        {
            "name": "E5",
            "midi": 76,
            "time": 299.02870199999523,
            "velocity": 0.7007874015748031,
            "duration": 0.08996050000001787
        },
        {
            "name": "C#5",
            "midi": 73,
            "time": 299.02870199999523,
            "velocity": 0.5826771653543307,
            "duration": 0.08996050000001787
        },
        {
            "name": "C#6",
            "midi": 85,
            "time": 299.02870199999523,
            "velocity": 0.7007874015748031,
            "duration": 0.08996050000001787
        },
        {
            "name": "D#6",
            "midi": 87,
            "time": 299.20862299999527,
            "velocity": 0.6614173228346457,
            "duration": 0.08996050000001787
        },
        {
            "name": "D#5",
            "midi": 75,
            "time": 299.20862299999527,
            "velocity": 0.5590551181102362,
            "duration": 0.08996050000001787
        },
        {
            "name": "F#5",
            "midi": 78,
            "time": 299.20862299999527,
            "velocity": 0.6614173228346457,
            "duration": 0.08996050000001787
        },
        {
            "name": "E6",
            "midi": 88,
            "time": 299.3885439999953,
            "velocity": 0.7559055118110236,
            "duration": 0.1799209999999789
        },
        {
            "name": "G#5",
            "midi": 80,
            "time": 299.3885439999953,
            "velocity": 0.7559055118110236,
            "duration": 0.1799209999999789
        },
        {
            "name": "E5",
            "midi": 76,
            "time": 299.3885439999953,
            "velocity": 0.6377952755905512,
            "duration": 0.1799209999999789
        },
        {
            "name": "G#4",
            "midi": 68,
            "time": 299.5684649999953,
            "velocity": 0.3700787401574803,
            "duration": 0.08996050000001787
        },
        {
            "name": "E4",
            "midi": 64,
            "time": 299.5684649999953,
            "velocity": 0.30708661417322836,
            "duration": 0.08996050000001787
        },
        {
            "name": "E5",
            "midi": 76,
            "time": 299.5684649999953,
            "velocity": 0.3700787401574803,
            "duration": 0.08996050000001787
        },
        {
            "name": "E4",
            "midi": 64,
            "time": 299.7483859999953,
            "velocity": 0.30708661417322836,
            "duration": 0.08996050000001787
        },
        {
            "name": "G#4",
            "midi": 68,
            "time": 299.7483859999953,
            "velocity": 0.3700787401574803,
            "duration": 0.08996050000001787
        },
        {
            "name": "E5",
            "midi": 76,
            "time": 299.7483859999953,
            "velocity": 0.3700787401574803,
            "duration": 0.08996050000001787
        },
        {
            "name": "G#4",
            "midi": 68,
            "time": 299.92830699999536,
            "velocity": 0.3700787401574803,
            "duration": 0.08996050000001787
        },
        {
            "name": "E4",
            "midi": 64,
            "time": 299.92830699999536,
            "velocity": 0.30708661417322836,
            "duration": 0.08996050000001787
        },
        {
            "name": "E5",
            "midi": 76,
            "time": 299.92830699999536,
            "velocity": 0.3700787401574803,
            "duration": 0.08996050000001787
        },
        {
            "name": "E5",
            "midi": 76,
            "time": 300.1082279999954,
            "velocity": 0.3779527559055118,
            "duration": 0.08996050000001787
        },
        {
            "name": "E4",
            "midi": 64,
            "time": 300.1082279999954,
            "velocity": 0.31496062992125984,
            "duration": 0.08996050000001787
        },
        {
            "name": "G#4",
            "midi": 68,
            "time": 300.1082279999954,
            "velocity": 0.3779527559055118,
            "duration": 0.08996050000001787
        },
        {
            "name": "G#4",
            "midi": 68,
            "time": 300.2881489999954,
            "velocity": 0.3779527559055118,
            "duration": 0.08996050000001787
        },
        {
            "name": "E4",
            "midi": 64,
            "time": 300.2881489999954,
            "velocity": 0.31496062992125984,
            "duration": 0.08996050000001787
        },
        {
            "name": "E5",
            "midi": 76,
            "time": 300.2881489999954,
            "velocity": 0.3779527559055118,
            "duration": 0.08996050000001787
        },
        {
            "name": "D#4",
            "midi": 63,
            "time": 300.46806999999546,
            "velocity": 0.31496062992125984,
            "duration": 0.08996050000001787
        },
        {
            "name": "F#4",
            "midi": 66,
            "time": 300.46806999999546,
            "velocity": 0.3779527559055118,
            "duration": 0.08996050000001787
        },
        {
            "name": "D#5",
            "midi": 75,
            "time": 300.46806999999546,
            "velocity": 0.3779527559055118,
            "duration": 0.08996050000001787
        },
        {
            "name": "E4",
            "midi": 64,
            "time": 300.6479909999955,
            "velocity": 0.3937007874015748,
            "duration": 0.08996050000001787
        },
        {
            "name": "C#5",
            "midi": 73,
            "time": 300.6479909999955,
            "velocity": 0.3937007874015748,
            "duration": 0.08996050000001787
        },
        {
            "name": "C#4",
            "midi": 61,
            "time": 300.6479909999955,
            "velocity": 0.33070866141732286,
            "duration": 0.08996050000001787
        },
        {
            "name": "C5",
            "midi": 72,
            "time": 300.82791199999554,
            "velocity": 0.4409448818897638,
            "duration": 0.1799209999999789
        },
        {
            "name": "D#4",
            "midi": 63,
            "time": 300.82791199999554,
            "velocity": 0.4409448818897638,
            "duration": 0.1799209999999789
        },
        {
            "name": "C4",
            "midi": 60,
            "time": 300.82791199999554,
            "velocity": 0.3700787401574803,
            "duration": 0.1799209999999789
        },
        {
            "name": "D#5",
            "midi": 75,
            "time": 301.0078329999955,
            "velocity": 0.6141732283464567,
            "duration": 0.08996050000001787
        },
        {
            "name": "C6",
            "midi": 84,
            "time": 301.0078329999955,
            "velocity": 0.6141732283464567,
            "duration": 0.08996050000001787
        },
        {
            "name": "C5",
            "midi": 72,
            "time": 301.0078329999955,
            "velocity": 0.5196850393700787,
            "duration": 0.08996050000001787
        },
        {
            "name": "D#5",
            "midi": 75,
            "time": 301.18775399999555,
            "velocity": 0.6771653543307087,
            "duration": 0.08996050000001787
        },
        {
            "name": "C5",
            "midi": 72,
            "time": 301.18775399999555,
            "velocity": 0.5748031496062992,
            "duration": 0.08996050000001787
        },
        {
            "name": "C6",
            "midi": 84,
            "time": 301.18775399999555,
            "velocity": 0.6771653543307087,
            "duration": 0.08996050000001787
        },
        {
            "name": "D#5",
            "midi": 75,
            "time": 301.3676749999956,
            "velocity": 0.6299212598425197,
            "duration": 0.08996050000001787
        },
        {
            "name": "C5",
            "midi": 72,
            "time": 301.3676749999956,
            "velocity": 0.5354330708661418,
            "duration": 0.08996050000001787
        },
        {
            "name": "C6",
            "midi": 84,
            "time": 301.3676749999956,
            "velocity": 0.6299212598425197,
            "duration": 0.08996050000001787
        },
        {
            "name": "C6",
            "midi": 84,
            "time": 301.5475959999956,
            "velocity": 0.6771653543307087,
            "duration": 0.08996050000001787
        },
        {
            "name": "C5",
            "midi": 72,
            "time": 301.5475959999956,
            "velocity": 0.5748031496062992,
            "duration": 0.08996050000001787
        },
        {
            "name": "D#5",
            "midi": 75,
            "time": 301.5475959999956,
            "velocity": 0.6771653543307087,
            "duration": 0.08996050000001787
        },
        {
            "name": "D#5",
            "midi": 75,
            "time": 301.72751699999566,
            "velocity": 0.6771653543307087,
            "duration": 0.08996050000001787
        },
        {
            "name": "C6",
            "midi": 84,
            "time": 301.72751699999566,
            "velocity": 0.6771653543307087,
            "duration": 0.08996050000001787
        },
        {
            "name": "C5",
            "midi": 72,
            "time": 301.72751699999566,
            "velocity": 0.5748031496062992,
            "duration": 0.08996050000001787
        },
        {
            "name": "C#5",
            "midi": 73,
            "time": 301.9074379999957,
            "velocity": 0.5748031496062992,
            "duration": 0.08996050000001787
        },
        {
            "name": "C#6",
            "midi": 85,
            "time": 301.9074379999957,
            "velocity": 0.6771653543307087,
            "duration": 0.08996050000001787
        },
        {
            "name": "E5",
            "midi": 76,
            "time": 301.9074379999957,
            "velocity": 0.6771653543307087,
            "duration": 0.08996050000001787
        },
        {
            "name": "D#6",
            "midi": 87,
            "time": 302.08735899999573,
            "velocity": 0.6299212598425197,
            "duration": 0.08996050000001787
        },
        {
            "name": "D#5",
            "midi": 75,
            "time": 302.08735899999573,
            "velocity": 0.5354330708661418,
            "duration": 0.08996050000001787
        },
        {
            "name": "F#5",
            "midi": 78,
            "time": 302.08735899999573,
            "velocity": 0.6299212598425197,
            "duration": 0.08996050000001787
        },
        {
            "name": "E5",
            "midi": 76,
            "time": 302.26727999999576,
            "velocity": 0.6456692913385826,
            "duration": 0.1799209999999789
        },
        {
            "name": "G#5",
            "midi": 80,
            "time": 302.26727999999576,
            "velocity": 0.7637795275590551,
            "duration": 0.1799209999999789
        },
        {
            "name": "E6",
            "midi": 88,
            "time": 302.26727999999576,
            "velocity": 0.7637795275590551,
            "duration": 0.1799209999999789
        },
        {
            "name": "G#5",
            "midi": 80,
            "time": 302.44720099999574,
            "velocity": 0.3937007874015748,
            "duration": 0.08996050000001787
        },
        {
            "name": "C#6",
            "midi": 85,
            "time": 302.44720099999574,
            "velocity": 0.3937007874015748,
            "duration": 0.08996050000001787
        },
        {
            "name": "C#6",
            "midi": 85,
            "time": 302.6271219999958,
            "velocity": 0.3937007874015748,
            "duration": 0.1799209999999789
        },
        {
            "name": "G#5",
            "midi": 80,
            "time": 302.6271219999958,
            "velocity": 0.3937007874015748,
            "duration": 0.1799209999999789
        },
        {
            "name": "G#5",
            "midi": 80,
            "time": 302.80704299999576,
            "velocity": 0.3779527559055118,
            "duration": 0.1799209999999789
        },
        {
            "name": "E5",
            "midi": 76,
            "time": 302.80704299999576,
            "velocity": 0.3779527559055118,
            "duration": 0.1799209999999789
        },
        {
            "name": "A5",
            "midi": 81,
            "time": 303.1668849999957,
            "velocity": 0.3858267716535433,
            "duration": 0.08996050000001787
        },
        {
            "name": "C#6",
            "midi": 85,
            "time": 303.1668849999957,
            "velocity": 0.3858267716535433,
            "duration": 0.08996050000001787
        },
        {
            "name": "C#6",
            "midi": 85,
            "time": 303.34680599999575,
            "velocity": 0.3858267716535433,
            "duration": 0.1799209999999789
        },
        {
            "name": "A5",
            "midi": 81,
            "time": 303.34680599999575,
            "velocity": 0.3858267716535433,
            "duration": 0.1799209999999789
        },
        {
            "name": "F#5",
            "midi": 78,
            "time": 303.52672699999573,
            "velocity": 0.3779527559055118,
            "duration": 0.1799209999999789
        },
        {
            "name": "A5",
            "midi": 81,
            "time": 303.52672699999573,
            "velocity": 0.3779527559055118,
            "duration": 0.1799209999999789
        },
        {
            "name": "G#5",
            "midi": 80,
            "time": 303.8865689999957,
            "velocity": 0.3858267716535433,
            "duration": 0.08996050000001787
        },
        {
            "name": "E5",
            "midi": 76,
            "time": 303.8865689999957,
            "velocity": 0.3858267716535433,
            "duration": 0.08996050000001787
        },
        {
            "name": "E5",
            "midi": 76,
            "time": 304.0664899999957,
            "velocity": 0.3858267716535433,
            "duration": 0.1799209999999789
        },
        {
            "name": "G#5",
            "midi": 80,
            "time": 304.0664899999957,
            "velocity": 0.3858267716535433,
            "duration": 0.1799209999999789
        },
        {
            "name": "C#5",
            "midi": 73,
            "time": 304.2464109999957,
            "velocity": 0.3700787401574803,
            "duration": 0.1799209999999789
        },
        {
            "name": "E5",
            "midi": 76,
            "time": 304.2464109999957,
            "velocity": 0.3700787401574803,
            "duration": 0.1799209999999789
        },
        {
            "name": "G#5",
            "midi": 80,
            "time": 304.60625299999566,
            "velocity": 0.4015748031496063,
            "duration": 0.08996050000001787
        },
        {
            "name": "D#5",
            "midi": 75,
            "time": 304.60625299999566,
            "velocity": 0.4015748031496063,
            "duration": 0.08996050000001787
        },
        {
            "name": "D#5",
            "midi": 75,
            "time": 304.7861739999957,
            "velocity": 0.4015748031496063,
            "duration": 0.1799209999999789
        },
        {
            "name": "G#5",
            "midi": 80,
            "time": 304.7861739999957,
            "velocity": 0.4015748031496063,
            "duration": 0.1799209999999789
        },
        {
            "name": "C5",
            "midi": 72,
            "time": 304.9660949999957,
            "velocity": 0.3858267716535433,
            "duration": 0.1799209999999789
        },
        {
            "name": "D#5",
            "midi": 75,
            "time": 304.9660949999957,
            "velocity": 0.3858267716535433,
            "duration": 0.1799209999999789
        },
        {
            "name": "E5",
            "midi": 76,
            "time": 305.32593699999563,
            "velocity": 0.4409448818897638,
            "duration": 0.08996050000001787
        },
        {
            "name": "G#5",
            "midi": 80,
            "time": 305.32593699999563,
            "velocity": 0.4409448818897638,
            "duration": 0.08996050000001787
        },
        {
            "name": "E5",
            "midi": 76,
            "time": 305.50585799999567,
            "velocity": 0.4409448818897638,
            "duration": 0.1799209999999789
        },
        {
            "name": "G#5",
            "midi": 80,
            "time": 305.50585799999567,
            "velocity": 0.4409448818897638,
            "duration": 0.1799209999999789
        },
        {
            "name": "G#4",
            "midi": 68,
            "time": 305.68577899999565,
            "velocity": 0.4251968503937008,
            "duration": 0.1799209999999789
        },
        {
            "name": "E5",
            "midi": 76,
            "time": 305.68577899999565,
            "velocity": 0.4251968503937008,
            "duration": 0.1799209999999789
        },
        {
            "name": "F#5",
            "midi": 78,
            "time": 306.0456209999956,
            "velocity": 0.5118110236220472,
            "duration": 0.08996050000001787
        },
        {
            "name": "A4",
            "midi": 69,
            "time": 306.0456209999956,
            "velocity": 0.5118110236220472,
            "duration": 0.08996050000001787
        },
        {
            "name": "F#5",
            "midi": 78,
            "time": 306.22554199999564,
            "velocity": 0.49606299212598426,
            "duration": 0.1799209999999789
        },
        {
            "name": "A4",
            "midi": 69,
            "time": 306.22554199999564,
            "velocity": 0.49606299212598426,
            "duration": 0.1799209999999789
        },
        {
            "name": "F#4",
            "midi": 66,
            "time": 306.4054629999956,
            "velocity": 0.4881889763779528,
            "duration": 0.1799209999999789
        },
        {
            "name": "D5",
            "midi": 74,
            "time": 306.4054629999956,
            "velocity": 0.4881889763779528,
            "duration": 0.1799209999999789
        },
        {
            "name": "E5",
            "midi": 76,
            "time": 306.7653049999956,
            "velocity": 0.44881889763779526,
            "duration": 0.08996050000001787
        },
        {
            "name": "G#4",
            "midi": 68,
            "time": 306.7653049999956,
            "velocity": 0.44881889763779526,
            "duration": 0.08996050000001787
        },
        {
            "name": "G#4",
            "midi": 68,
            "time": 306.9452259999956,
            "velocity": 0.44881889763779526,
            "duration": 0.1799209999999789
        },
        {
            "name": "E5",
            "midi": 76,
            "time": 306.9452259999956,
            "velocity": 0.44881889763779526,
            "duration": 0.1799209999999789
        },
        {
            "name": "E4",
            "midi": 64,
            "time": 307.1251469999956,
            "velocity": 0.44881889763779526,
            "duration": 0.1799209999999789
        },
        {
            "name": "C#5",
            "midi": 73,
            "time": 307.1251469999956,
            "velocity": 0.44881889763779526,
            "duration": 0.1799209999999789
        },
        {
            "name": "D#5",
            "midi": 75,
            "time": 307.48498899999555,
            "velocity": 0.3858267716535433,
            "duration": 0.08996050000001787
        },
        {
            "name": "F#4",
            "midi": 66,
            "time": 307.48498899999555,
            "velocity": 0.3858267716535433,
            "duration": 0.08996050000001787
        },
        {
            "name": "D#5",
            "midi": 75,
            "time": 307.6649099999956,
            "velocity": 0.3858267716535433,
            "duration": 0.1799209999999789
        },
        {
            "name": "F#4",
            "midi": 66,
            "time": 307.6649099999956,
            "velocity": 0.3858267716535433,
            "duration": 0.1799209999999789
        },
        {
            "name": "C5",
            "midi": 72,
            "time": 307.84483099999557,
            "velocity": 0.3700787401574803,
            "duration": 0.1799209999999789
        },
        {
            "name": "D#4",
            "midi": 63,
            "time": 307.84483099999557,
            "velocity": 0.3700787401574803,
            "duration": 0.1799209999999789
        },
        {
            "name": "C#5",
            "midi": 73,
            "time": 308.02475199999554,
            "velocity": 0.3937007874015748,
            "duration": 0.35984200000001465
        },
        {
            "name": "E4",
            "midi": 64,
            "time": 308.02475199999554,
            "velocity": 0.3937007874015748,
            "duration": 0.35984200000001465
        },
        {
            "name": "E4",
            "midi": 64,
            "time": 309.10427799999553,
            "velocity": 0.3937007874015748,
            "duration": 0.2698814999999968
        },
        {
            "name": "C#4",
            "midi": 61,
            "time": 309.3741594999955,
            "velocity": 0.3937007874015748,
            "duration": 0.08996050000001787
        },
        {
            "name": "C4",
            "midi": 60,
            "time": 309.46411999999555,
            "velocity": 0.44881889763779526,
            "duration": 0.35984200000001465
        },
        {
            "name": "C4",
            "midi": 60,
            "time": 309.82396199999556,
            "velocity": 0.3700787401574803,
            "duration": 0.2698814999999968
        },
        {
            "name": "F#3",
            "midi": 54,
            "time": 309.82396199999556,
            "velocity": 0.30708661417322836,
            "duration": 0.2698814999999968
        },
        {
            "name": "G#4",
            "midi": 68,
            "time": 309.82396199999556,
            "velocity": 0.3700787401574803,
            "duration": 0.2698814999999968
        },
        {
            "name": "C4",
            "midi": 60,
            "time": 310.1838039999956,
            "velocity": 0.3700787401574803,
            "duration": 0.2698814999999968
        },
        {
            "name": "G#4",
            "midi": 68,
            "time": 310.1838039999956,
            "velocity": 0.3700787401574803,
            "duration": 0.2698814999999968
        },
        {
            "name": "F#3",
            "midi": 54,
            "time": 310.1838039999956,
            "velocity": 0.30708661417322836,
            "duration": 0.2698814999999968
        },
        {
            "name": "F#3",
            "midi": 54,
            "time": 310.5436459999956,
            "velocity": 0.33070866141732286,
            "duration": 0.2698814999999968
        },
        {
            "name": "C4",
            "midi": 60,
            "time": 310.5436459999956,
            "velocity": 0.3937007874015748,
            "duration": 0.2698814999999968
        },
        {
            "name": "G#4",
            "midi": 68,
            "time": 310.5436459999956,
            "velocity": 0.3937007874015748,
            "duration": 0.2698814999999968
        },
        {
            "name": "E3",
            "midi": 52,
            "time": 310.8135274999956,
            "velocity": 0.3937007874015748,
            "duration": 0.044980249999980515
        },
        {
            "name": "C#4",
            "midi": 61,
            "time": 310.85850774999557,
            "velocity": 0.3937007874015748,
            "duration": 0.044980249999980515
        },
        {
            "name": "G#4",
            "midi": 68,
            "time": 310.90348799999555,
            "velocity": 0.44881889763779526,
            "duration": 1.079525999999987
        },
        {
            "name": "E5",
            "midi": 76,
            "time": 311.98301399999553,
            "velocity": 0.4566929133858268,
            "duration": 0.2698814999999968
        },
        {
            "name": "C#5",
            "midi": 73,
            "time": 312.25289549999553,
            "velocity": 0.4566929133858268,
            "duration": 0.08996050000001787
        },
        {
            "name": "C5",
            "midi": 72,
            "time": 312.34285599999555,
            "velocity": 0.5275590551181102,
            "duration": 0.35984200000001465
        },
        {
            "name": "G#5",
            "midi": 80,
            "time": 312.70269799999556,
            "velocity": 0.44881889763779526,
            "duration": 0.2698814999999968
        },
        {
            "name": "F#4",
            "midi": 66,
            "time": 312.70269799999556,
            "velocity": 0.3779527559055118,
            "duration": 0.2698814999999968
        },
        {
            "name": "C5",
            "midi": 72,
            "time": 312.70269799999556,
            "velocity": 0.44881889763779526,
            "duration": 0.2698814999999968
        },
        {
            "name": "C5",
            "midi": 72,
            "time": 313.0625399999956,
            "velocity": 0.44881889763779526,
            "duration": 0.2698814999999968
        },
        {
            "name": "F#4",
            "midi": 66,
            "time": 313.0625399999956,
            "velocity": 0.3779527559055118,
            "duration": 0.2698814999999968
        },
        {
            "name": "G#5",
            "midi": 80,
            "time": 313.0625399999956,
            "velocity": 0.44881889763779526,
            "duration": 0.2698814999999968
        },
        {
            "name": "C5",
            "midi": 72,
            "time": 313.4223819999956,
            "velocity": 0.44881889763779526,
            "duration": 0.2698814999999968
        },
        {
            "name": "G#5",
            "midi": 80,
            "time": 313.4223819999956,
            "velocity": 0.44881889763779526,
            "duration": 0.2698814999999968
        },
        {
            "name": "F#4",
            "midi": 66,
            "time": 313.4223819999956,
            "velocity": 0.3779527559055118,
            "duration": 0.2698814999999968
        },
        {
            "name": "E4",
            "midi": 64,
            "time": 313.6922634999956,
            "velocity": 0.3700787401574803,
            "duration": 0.044980249999980515
        },
        {
            "name": "C#5",
            "midi": 73,
            "time": 313.73724374999557,
            "velocity": 0.41732283464566927,
            "duration": 0.044980249999980515
        },
        {
            "name": "G#5",
            "midi": 80,
            "time": 313.78222399999555,
            "velocity": 0.5748031496062992,
            "duration": 0.6297235000000114
        },
        {
            "name": "F#4",
            "midi": 66,
            "time": 314.41194749999556,
            "velocity": 0.3543307086614173,
            "duration": 0.044980249999980515
        },
        {
            "name": "C5",
            "midi": 72,
            "time": 314.45692774999554,
            "velocity": 0.4094488188976378,
            "duration": 0.044980249999980515
        },
        {
            "name": "G#5",
            "midi": 80,
            "time": 314.5019079999955,
            "velocity": 0.5669291338582677,
            "duration": 0.6297235000000114
        },
        {
            "name": "E4",
            "midi": 64,
            "time": 315.13163149999554,
            "velocity": 0.33858267716535434,
            "duration": 0.044980249999980515
        },
        {
            "name": "C#5",
            "midi": 73,
            "time": 315.1766117499955,
            "velocity": 0.41732283464566927,
            "duration": 0.044980249999980515
        },
        {
            "name": "G#5",
            "midi": 80,
            "time": 315.2215919999955,
            "velocity": 0.5669291338582677,
            "duration": 0.6297235000000114
        },
        {
            "name": "F#4",
            "midi": 66,
            "time": 315.8513154999955,
            "velocity": 0.3543307086614173,
            "duration": 0.044980249999980515
        },
        {
            "name": "C5",
            "midi": 72,
            "time": 315.8962957499955,
            "velocity": 0.41732283464566927,
            "duration": 0.044980249999980515
        },
        {
            "name": "G#5",
            "midi": 80,
            "time": 315.94127599999547,
            "velocity": 0.5590551181102362,
            "duration": 0.7196839999999725
        },
        {
            "name": "E3",
            "midi": 52,
            "time": 316.66095999999544,
            "velocity": 0.4015748031496063,
            "duration": 0.08921082916668865
        },
        {
            "name": "C#4",
            "midi": 61,
            "time": 316.75092049999546,
            "velocity": 0.3779527559055118,
            "duration": 0.08921082916668865
        },
        {
            "name": "G#3",
            "midi": 56,
            "time": 316.8408809999955,
            "velocity": 0.4015748031496063,
            "duration": 0.08921082916668865
        },
        {
            "name": "C#4",
            "midi": 61,
            "time": 316.9308414999955,
            "velocity": 0.3858267716535433,
            "duration": 0.08921082916668865
        },
        {
            "name": "E3",
            "midi": 52,
            "time": 317.0208019999955,
            "velocity": 0.41732283464566927,
            "duration": 0.08921082916668865
        },
        {
            "name": "C#4",
            "midi": 61,
            "time": 317.11076249999553,
            "velocity": 0.4015748031496063,
            "duration": 0.08921082916668865
        },
        {
            "name": "G#3",
            "midi": 56,
            "time": 317.20072299999555,
            "velocity": 0.4409448818897638,
            "duration": 0.08921082916668865
        },
        {
            "name": "C#4",
            "midi": 61,
            "time": 317.29068349999557,
            "velocity": 0.4094488188976378,
            "duration": 0.08921082916668865
        },
        {
            "name": "E3",
            "midi": 52,
            "time": 317.3806439999956,
            "velocity": 0.44881889763779526,
            "duration": 0.08921082916668865
        },
        {
            "name": "C#4",
            "midi": 61,
            "time": 317.4706044999956,
            "velocity": 0.41732283464566927,
            "duration": 0.08921082916668865
        },
        {
            "name": "G#3",
            "midi": 56,
            "time": 317.5605649999956,
            "velocity": 0.4645669291338583,
            "duration": 0.08921082916668865
        },
        {
            "name": "C#4",
            "midi": 61,
            "time": 317.65052549999564,
            "velocity": 0.4409448818897638,
            "duration": 0.08921082916668865
        },
        {
            "name": "E3",
            "midi": 52,
            "time": 317.74048599999566,
            "velocity": 0.48031496062992124,
            "duration": 0.08921082916668865
        },
        {
            "name": "C#4",
            "midi": 61,
            "time": 317.8304464999957,
            "velocity": 0.44881889763779526,
            "duration": 0.08921082916668865
        },
        {
            "name": "G#3",
            "midi": 56,
            "time": 317.9204069999957,
            "velocity": 0.4881889763779528,
            "duration": 0.08921082916668865
        },
        {
            "name": "C#4",
            "midi": 61,
            "time": 318.0103674999957,
            "velocity": 0.44881889763779526,
            "duration": 0.08921082916668865
        },
        {
            "name": "F3",
            "midi": 53,
            "time": 318.1003279999957,
            "velocity": 0.5118110236220472,
            "duration": 0.08921082916668865
        },
        {
            "name": "C#3",
            "midi": 49,
            "time": 318.1003279999957,
            "velocity": 0.5118110236220472,
            "duration": 0.08921082916668865
        },
        {
            "name": "C#4",
            "midi": 61,
            "time": 318.19028849999575,
            "velocity": 0.4566929133858268,
            "duration": 0.08921082916668865
        },
        {
            "name": "G#3",
            "midi": 56,
            "time": 318.28024899999576,
            "velocity": 0.5275590551181102,
            "duration": 0.08921082916668865
        },
        {
            "name": "C#4",
            "midi": 61,
            "time": 318.3702094999958,
            "velocity": 0.47244094488188976,
            "duration": 0.08921082916668865
        },
        {
            "name": "F3",
            "midi": 53,
            "time": 318.4601699999958,
            "velocity": 0.5354330708661418,
            "duration": 0.08921082916668865
        },
        {
            "name": "C#3",
            "midi": 49,
            "time": 318.4601699999958,
            "velocity": 0.5354330708661418,
            "duration": 0.08921082916668865
        },
        {
            "name": "C#4",
            "midi": 61,
            "time": 318.5501304999958,
            "velocity": 0.48031496062992124,
            "duration": 0.08921082916668865
        },
        {
            "name": "G#3",
            "midi": 56,
            "time": 318.64009099999583,
            "velocity": 0.5433070866141733,
            "duration": 0.08921082916668865
        },
        {
            "name": "C#4",
            "midi": 61,
            "time": 318.73005149999585,
            "velocity": 0.5118110236220472,
            "duration": 0.08921082916668865
        },
        {
            "name": "F3",
            "midi": 53,
            "time": 318.82001199999587,
            "velocity": 0.5669291338582677,
            "duration": 0.08921082916668865
        },
        {
            "name": "C#3",
            "midi": 49,
            "time": 318.82001199999587,
            "velocity": 0.5669291338582677,
            "duration": 0.08921082916668865
        },
        {
            "name": "C#4",
            "midi": 61,
            "time": 318.9099724999959,
            "velocity": 0.5275590551181102,
            "duration": 0.08921082916668865
        },
        {
            "name": "G#3",
            "midi": 56,
            "time": 318.9999329999959,
            "velocity": 0.5748031496062992,
            "duration": 0.08921082916668865
        },
        {
            "name": "C#4",
            "midi": 61,
            "time": 319.0898934999959,
            "velocity": 0.5354330708661418,
            "duration": 0.08921082916668865
        },
        {
            "name": "C#3",
            "midi": 49,
            "time": 319.17985399999594,
            "velocity": 0.5826771653543307,
            "duration": 0.08921082916668865
        },
        {
            "name": "F3",
            "midi": 53,
            "time": 319.17985399999594,
            "velocity": 0.5826771653543307,
            "duration": 0.08921082916668865
        },
        {
            "name": "C#4",
            "midi": 61,
            "time": 319.26981449999596,
            "velocity": 0.5511811023622047,
            "duration": 0.08921082916668865
        },
        {
            "name": "G#3",
            "midi": 56,
            "time": 319.359774999996,
            "velocity": 0.5984251968503937,
            "duration": 0.08921082916668865
        },
        {
            "name": "C#4",
            "midi": 61,
            "time": 319.449735499996,
            "velocity": 0.5590551181102362,
            "duration": 0.07646642499997824
        },
        {
            "name": "F#3",
            "midi": 54,
            "time": 319.53969599999596,
            "velocity": 0.5275590551181102,
            "duration": 0.08996050000001787
        },
        {
            "name": "C#4",
            "midi": 61,
            "time": 319.53969599999596,
            "velocity": 0.6220472440944882,
            "duration": 0.08996050000001787
        },
        {
            "name": "C#3",
            "midi": 49,
            "time": 319.53969599999596,
            "velocity": 0.5275590551181102,
            "duration": 0.08996050000001787
        },
        {
            "name": "A3",
            "midi": 57,
            "time": 319.53969599999596,
            "velocity": 0.5275590551181102,
            "duration": 0.08996050000001787
        },
        {
            "name": "C#3",
            "midi": 49,
            "time": 319.629656499996,
            "velocity": 0.41732283464566927,
            "duration": 0.1049539166666591
        },
        {
            "name": "F#3",
            "midi": 54,
            "time": 319.719616999996,
            "velocity": 0.4409448818897638,
            "duration": 0.10495391666660225
        },
        {
            "name": "A3",
            "midi": 57,
            "time": 319.80957749999595,
            "velocity": 0.44881889763779526,
            "duration": 0.10495391666660225
        },
        {
            "name": "C#4",
            "midi": 61,
            "time": 319.8995379999959,
            "velocity": 0.4645669291338583,
            "duration": 0.10495391666660225
        },
        {
            "name": "F#3",
            "midi": 54,
            "time": 319.9894984999959,
            "velocity": 0.4251968503937008,
            "duration": 0.10495391666660225
        },
        {
            "name": "A3",
            "midi": 57,
            "time": 320.07945899999584,
            "velocity": 0.4251968503937008,
            "duration": 0.10495391666660225
        },
        {
            "name": "C#4",
            "midi": 61,
            "time": 320.1694194999958,
            "velocity": 0.4409448818897638,
            "duration": 0.10495391666660225
        },
        {
            "name": "F#4",
            "midi": 66,
            "time": 320.25937999999576,
            "velocity": 0.44881889763779526,
            "duration": 0.10495391666660225
        },
        {
            "name": "A3",
            "midi": 57,
            "time": 320.3493404999957,
            "velocity": 0.41732283464566927,
            "duration": 0.10495391666660225
        },
        {
            "name": "C#4",
            "midi": 61,
            "time": 320.4393009999957,
            "velocity": 0.4409448818897638,
            "duration": 0.10495391666660225
        },
        {
            "name": "F#4",
            "midi": 66,
            "time": 320.52926149999564,
            "velocity": 0.44881889763779526,
            "duration": 0.10495391666660225
        },
        {
            "name": "A4",
            "midi": 69,
            "time": 320.6192219999956,
            "velocity": 0.4566929133858268,
            "duration": 0.10495391666660225
        },
        {
            "name": "C#4",
            "midi": 61,
            "time": 320.70918249999556,
            "velocity": 0.41732283464566927,
            "duration": 0.10495391666660225
        },
        {
            "name": "F#4",
            "midi": 66,
            "time": 320.7991429999955,
            "velocity": 0.41732283464566927,
            "duration": 0.10495391666660225
        },
        {
            "name": "A4",
            "midi": 69,
            "time": 320.8891034999955,
            "velocity": 0.4251968503937008,
            "duration": 0.10495391666660225
        },
        {
            "name": "C#5",
            "midi": 73,
            "time": 320.97906399999545,
            "velocity": 0.44881889763779526,
            "duration": 0.10495391666660225
        },
        {
            "name": "F#4",
            "midi": 66,
            "time": 321.0690244999954,
            "velocity": 0.4566929133858268,
            "duration": 0.10495391666660225
        },
        {
            "name": "A4",
            "midi": 69,
            "time": 321.15898499999537,
            "velocity": 0.4015748031496063,
            "duration": 0.10495391666660225
        },
        {
            "name": "C#5",
            "midi": 73,
            "time": 321.24894549999533,
            "velocity": 0.4094488188976378,
            "duration": 0.10495391666660225
        },
        {
            "name": "F#5",
            "midi": 78,
            "time": 321.3389059999953,
            "velocity": 0.4409448818897638,
            "duration": 0.10495391666660225
        },
        {
            "name": "A4",
            "midi": 69,
            "time": 321.42886649999525,
            "velocity": 0.4015748031496063,
            "duration": 0.10495391666660225
        },
        {
            "name": "C#5",
            "midi": 73,
            "time": 321.5188269999952,
            "velocity": 0.4015748031496063,
            "duration": 0.10495391666660225
        },
        {
            "name": "F#5",
            "midi": 78,
            "time": 321.6087874999952,
            "velocity": 0.41732283464566927,
            "duration": 0.10495391666660225
        },
        {
            "name": "A5",
            "midi": 81,
            "time": 321.69874799999513,
            "velocity": 0.4409448818897638,
            "duration": 0.10495391666660225
        },
        {
            "name": "C#5",
            "midi": 73,
            "time": 321.7887084999951,
            "velocity": 0.4015748031496063,
            "duration": 0.10495391666660225
        },
        {
            "name": "F#5",
            "midi": 78,
            "time": 321.87866899999506,
            "velocity": 0.4251968503937008,
            "duration": 0.10495391666660225
        },
        {
            "name": "A5",
            "midi": 81,
            "time": 321.968629499995,
            "velocity": 0.44881889763779526,
            "duration": 0.08996049999996103
        },
        {
            "name": "C#6",
            "midi": 85,
            "time": 322.058589999995,
            "velocity": 0.7716535433070866,
            "duration": 0.08996050000001787
        },
        {
            "name": "C#5",
            "midi": 73,
            "time": 322.058589999995,
            "velocity": 0.6535433070866141,
            "duration": 0.08996050000001787
        },
        {
            "name": "A5",
            "midi": 81,
            "time": 322.058589999995,
            "velocity": 0.7716535433070866,
            "duration": 0.08996050000001787
        },
        {
            "name": "F#5",
            "midi": 78,
            "time": 322.058589999995,
            "velocity": 0.6535433070866141,
            "duration": 0.08996050000001787
        },
        {
            "name": "A5",
            "midi": 81,
            "time": 322.238510999995,
            "velocity": 0.6377952755905512,
            "duration": 0.08996050000001787
        },
        {
            "name": "F#5",
            "midi": 78,
            "time": 322.238510999995,
            "velocity": 0.5433070866141733,
            "duration": 0.08996050000001787
        },
        {
            "name": "C#6",
            "midi": 85,
            "time": 322.238510999995,
            "velocity": 0.6377952755905512,
            "duration": 0.08996050000001787
        },
        {
            "name": "C#5",
            "midi": 73,
            "time": 322.238510999995,
            "velocity": 0.5433070866141733,
            "duration": 0.08996050000001787
        },
        {
            "name": "C#3",
            "midi": 49,
            "time": 322.508392499995,
            "velocity": 0.4566929133858268,
            "duration": 0.1049539166666591
        },
        {
            "name": "E3",
            "midi": 52,
            "time": 322.59835299999503,
            "velocity": 0.47244094488188976,
            "duration": 0.10495391666660225
        },
        {
            "name": "G#3",
            "midi": 56,
            "time": 322.688313499995,
            "velocity": 0.4881889763779528,
            "duration": 0.10495391666660225
        },
        {
            "name": "C#4",
            "midi": 61,
            "time": 322.77827399999495,
            "velocity": 0.5118110236220472,
            "duration": 0.10495391666660225
        },
        {
            "name": "E3",
            "midi": 52,
            "time": 322.8682344999949,
            "velocity": 0.47244094488188976,
            "duration": 0.10495391666660225
        },
        {
            "name": "G#3",
            "midi": 56,
            "time": 322.9581949999949,
            "velocity": 0.4881889763779528,
            "duration": 0.10495391666660225
        },
        {
            "name": "C#4",
            "midi": 61,
            "time": 323.04815549999483,
            "velocity": 0.49606299212598426,
            "duration": 0.10495391666660225
        },
        {
            "name": "E4",
            "midi": 64,
            "time": 323.1381159999948,
            "velocity": 0.5196850393700787,
            "duration": 0.10495391666660225
        },
        {
            "name": "G#3",
            "midi": 56,
            "time": 323.22807649999476,
            "velocity": 0.48031496062992124,
            "duration": 0.10495391666660225
        },
        {
            "name": "C#4",
            "midi": 61,
            "time": 323.3180369999947,
            "velocity": 0.4881889763779528,
            "duration": 0.10495391666660225
        },
        {
            "name": "E4",
            "midi": 64,
            "time": 323.4079974999947,
            "velocity": 0.49606299212598426,
            "duration": 0.10495391666660225
        },
        {
            "name": "G#4",
            "midi": 68,
            "time": 323.49795799999464,
            "velocity": 0.5275590551181102,
            "duration": 0.10495391666660225
        },
        {
            "name": "C#4",
            "midi": 61,
            "time": 323.5879184999946,
            "velocity": 0.48031496062992124,
            "duration": 0.10495391666660225
        },
        {
            "name": "E4",
            "midi": 64,
            "time": 323.67787899999456,
            "velocity": 0.4881889763779528,
            "duration": 0.10495391666660225
        },
        {
            "name": "G#4",
            "midi": 68,
            "time": 323.7678394999945,
            "velocity": 0.49606299212598426,
            "duration": 0.10495391666660225
        },
        {
            "name": "C#5",
            "midi": 73,
            "time": 323.8577999999945,
            "velocity": 0.5196850393700787,
            "duration": 0.10495391666660225
        },
        {
            "name": "E4",
            "midi": 64,
            "time": 323.94776049999444,
            "velocity": 0.49606299212598426,
            "duration": 0.10495391666660225
        },
        {
            "name": "G#4",
            "midi": 68,
            "time": 324.0377209999944,
            "velocity": 0.49606299212598426,
            "duration": 0.10495391666660225
        },
        {
            "name": "C#5",
            "midi": 73,
            "time": 324.12768149999437,
            "velocity": 0.4881889763779528,
            "duration": 0.10495391666660225
        },
        {
            "name": "E5",
            "midi": 76,
            "time": 324.2176419999943,
            "velocity": 0.5196850393700787,
            "duration": 0.10495391666660225
        },
        {
            "name": "G#4",
            "midi": 68,
            "time": 324.3076024999943,
            "velocity": 0.4881889763779528,
            "duration": 0.10495391666660225
        },
        {
            "name": "C#5",
            "midi": 73,
            "time": 324.39756299999425,
            "velocity": 0.4881889763779528,
            "duration": 0.10495391666660225
        },
        {
            "name": "E5",
            "midi": 76,
            "time": 324.4875234999942,
            "velocity": 0.5275590551181102,
            "duration": 0.10495391666660225
        },
        {
            "name": "G#5",
            "midi": 80,
            "time": 324.5774839999942,
            "velocity": 0.5354330708661418,
            "duration": 0.10495391666660225
        },
        {
            "name": "C#5",
            "midi": 73,
            "time": 324.66744449999413,
            "velocity": 0.4881889763779528,
            "duration": 0.10495391666660225
        },
        {
            "name": "E5",
            "midi": 76,
            "time": 324.7574049999941,
            "velocity": 0.5196850393700787,
            "duration": 0.10495391666660225
        },
        {
            "name": "G#5",
            "midi": 80,
            "time": 324.84736549999405,
            "velocity": 0.5354330708661418,
            "duration": 0.08996049999996103
        },
        {
            "name": "C#6",
            "midi": 85,
            "time": 324.937325999994,
            "velocity": 0.8582677165354331,
            "duration": 0.08996050000001787
        },
        {
            "name": "E5",
            "midi": 76,
            "time": 324.937325999994,
            "velocity": 0.7244094488188977,
            "duration": 0.08996050000001787
        },
        {
            "name": "C#5",
            "midi": 73,
            "time": 324.937325999994,
            "velocity": 0.7244094488188977,
            "duration": 0.08996050000001787
        },
        {
            "name": "G#5",
            "midi": 80,
            "time": 324.937325999994,
            "velocity": 0.8582677165354331,
            "duration": 0.08996050000001787
        },
        {
            "name": "C#5",
            "midi": 73,
            "time": 325.11724699999405,
            "velocity": 0.6377952755905512,
            "duration": 0.08996050000001787
        },
        {
            "name": "E5",
            "midi": 76,
            "time": 325.11724699999405,
            "velocity": 0.6377952755905512,
            "duration": 0.08996050000001787
        },
        {
            "name": "G#5",
            "midi": 80,
            "time": 325.11724699999405,
            "velocity": 0.7559055118110236,
            "duration": 0.08996050000001787
        },
        {
            "name": "C#6",
            "midi": 85,
            "time": 325.11724699999405,
            "velocity": 0.7559055118110236,
            "duration": 0.08996050000001787
        },
        {
            "name": "C#3",
            "midi": 49,
            "time": 325.47708899999407,
            "velocity": 0.2440944881889764,
            "duration": 0.7196839999999156
        },
        {
            "name": "E3",
            "midi": 52,
            "time": 325.52206924999405,
            "velocity": 0.25984251968503935,
            "duration": 0.6747037499999351
        },
        {
            "name": "G3",
            "midi": 55,
            "time": 325.567049499994,
            "velocity": 0.2755905511811024,
            "duration": 0.6297234999999546
        },
        {
            "name": "A#3",
            "midi": 58,
            "time": 325.612029749994,
            "velocity": 0.30708661417322836,
            "duration": 0.5847432499999741
        },
        {
            "name": "C#4",
            "midi": 61,
            "time": 325.657009999994,
            "velocity": 0.3543307086614173,
            "duration": 0.5397629999999936
        },
        {
            "name": "C#4",
            "midi": 61,
            "time": 326.196772999994,
            "velocity": 0.41732283464566927,
            "duration": 0.7196839999999156
        },
        {
            "name": "E4",
            "midi": 64,
            "time": 326.24175324999396,
            "velocity": 0.4409448818897638,
            "duration": 0.6747037499999351
        },
        {
            "name": "G4",
            "midi": 67,
            "time": 326.28673349999394,
            "velocity": 0.4566929133858268,
            "duration": 0.6297234999999546
        },
        {
            "name": "A#4",
            "midi": 70,
            "time": 326.3317137499939,
            "velocity": 0.48031496062992124,
            "duration": 0.5847432499999741
        },
        {
            "name": "C#5",
            "midi": 73,
            "time": 326.3766939999939,
            "velocity": 0.4881889763779528,
            "duration": 0.35984200000001465
        },
        {
            "name": "C#5",
            "midi": 73,
            "time": 326.9164569999939,
            "velocity": 0.5196850393700787,
            "duration": 1.2594469999999092
        },
        {
            "name": "E5",
            "midi": 76,
            "time": 326.9614372499939,
            "velocity": 0.5354330708661418,
            "duration": 1.2144667499999287
        },
        {
            "name": "G5",
            "midi": 79,
            "time": 327.00641749999386,
            "velocity": 0.5748031496062992,
            "duration": 1.1694864999999481
        },
        {
            "name": "A#5",
            "midi": 82,
            "time": 327.05139774999384,
            "velocity": 0.5984251968503937,
            "duration": 1.1245062499999676
        },
        {
            "name": "C#6",
            "midi": 85,
            "time": 327.0963779999938,
            "velocity": 0.6220472440944882,
            "duration": 1.079525999999987
        },
        {
            "name": "A2",
            "midi": 45,
            "time": 328.3558249999938,
            "velocity": 0.2283464566929134,
            "duration": 0.7196839999999156
        },
        {
            "name": "C3",
            "midi": 48,
            "time": 328.40080524999377,
            "velocity": 0.25196850393700787,
            "duration": 0.6747037499999351
        },
        {
            "name": "D#3",
            "midi": 51,
            "time": 328.44578549999375,
            "velocity": 0.2755905511811024,
            "duration": 0.6297234999999546
        },
        {
            "name": "F#3",
            "midi": 54,
            "time": 328.4907657499937,
            "velocity": 0.2992125984251969,
            "duration": 0.5847432499999741
        },
        {
            "name": "A3",
            "midi": 57,
            "time": 328.5357459999937,
            "velocity": 0.3228346456692913,
            "duration": 0.5397629999999936
        },
        {
            "name": "A3",
            "midi": 57,
            "time": 329.0755089999937,
            "velocity": 0.4409448818897638,
            "duration": 0.7196839999999725
        },
        {
            "name": "C4",
            "midi": 60,
            "time": 329.1204892499937,
            "velocity": 0.44881889763779526,
            "duration": 0.6747037499999919
        },
        {
            "name": "D#4",
            "midi": 63,
            "time": 329.16546949999366,
            "velocity": 0.4566929133858268,
            "duration": 0.6297235000000114
        },
        {
            "name": "F#4",
            "midi": 66,
            "time": 329.21044974999364,
            "velocity": 0.4645669291338583,
            "duration": 0.5847432500000309
        },
        {
            "name": "A4",
            "midi": 69,
            "time": 329.2554299999936,
            "velocity": 0.4881889763779528,
            "duration": 0.35984200000001465
        },
        {
            "name": "A4",
            "midi": 69,
            "time": 329.70523249999366,
            "velocity": 0.5748031496062992,
            "duration": 1.3494075000000407
        },
        {
            "name": "C5",
            "midi": 72,
            "time": 329.7951929999937,
            "velocity": 0.6062992125984252,
            "duration": 1.2594470000000229
        },
        {
            "name": "D#5",
            "midi": 75,
            "time": 329.8851534999937,
            "velocity": 0.6220472440944882,
            "duration": 1.169486500000005
        },
        {
            "name": "A5",
            "midi": 81,
            "time": 329.9751139999937,
            "velocity": 0.7165354330708661,
            "duration": 1.079525999999987
        },
        {
            "name": "G#4",
            "midi": 68,
            "time": 331.1446004999937,
            "velocity": 0.2440944881889764,
            "duration": 0.1049539166666591
        },
        {
            "name": "E4",
            "midi": 64,
            "time": 331.23456099999373,
            "velocity": 0.2677165354330709,
            "duration": 0.10495391666660225
        },
        {
            "name": "G#4",
            "midi": 68,
            "time": 331.3245214999937,
            "velocity": 0.23622047244094488,
            "duration": 0.10495391666660225
        },
        {
            "name": "C#4",
            "midi": 61,
            "time": 331.41448199999365,
            "velocity": 0.30708661417322836,
            "duration": 0.08921082916663181
        },
        {
            "name": "G#4",
            "midi": 68,
            "time": 331.5044424999936,
            "velocity": 0.23622047244094488,
            "duration": 0.08921082916668865
        },
        {
            "name": "E4",
            "midi": 64,
            "time": 331.59440299999363,
            "velocity": 0.2677165354330709,
            "duration": 0.08921082916668865
        },
        {
            "name": "G#4",
            "midi": 68,
            "time": 331.68436349999365,
            "velocity": 0.23622047244094488,
            "duration": 0.08921082916668865
        },
        {
            "name": "C#4",
            "midi": 61,
            "time": 331.77432399999367,
            "velocity": 0.30708661417322836,
            "duration": 0.08921082916668865
        },
        {
            "name": "G#4",
            "midi": 68,
            "time": 331.8642844999937,
            "velocity": 0.2440944881889764,
            "duration": 0.08921082916668865
        },
        {
            "name": "E4",
            "midi": 64,
            "time": 331.9542449999937,
            "velocity": 0.2677165354330709,
            "duration": 0.08921082916668865
        },
        {
            "name": "G#4",
            "midi": 68,
            "time": 332.0442054999937,
            "velocity": 0.23622047244094488,
            "duration": 0.08921082916668865
        },
        {
            "name": "C#4",
            "midi": 61,
            "time": 332.13416599999374,
            "velocity": 0.30708661417322836,
            "duration": 0.08921082916668865
        },
        {
            "name": "G#4",
            "midi": 68,
            "time": 332.22412649999376,
            "velocity": 0.2440944881889764,
            "duration": 0.08921082916668865
        },
        {
            "name": "E4",
            "midi": 64,
            "time": 332.3140869999938,
            "velocity": 0.2677165354330709,
            "duration": 0.08921082916668865
        },
        {
            "name": "G#4",
            "midi": 68,
            "time": 332.4040474999938,
            "velocity": 0.2440944881889764,
            "duration": 0.08921082916668865
        },
        {
            "name": "D#4",
            "midi": 63,
            "time": 332.4940079999938,
            "velocity": 0.30708661417322836,
            "duration": 0.1049539166666591
        },
        {
            "name": "G#4",
            "midi": 68,
            "time": 332.58396849999383,
            "velocity": 0.2440944881889764,
            "duration": 0.10495391666660225
        },
        {
            "name": "F#4",
            "midi": 66,
            "time": 332.6739289999938,
            "velocity": 0.2677165354330709,
            "duration": 0.10495391666660225
        },
        {
            "name": "G#4",
            "midi": 68,
            "time": 332.76388949999375,
            "velocity": 0.23622047244094488,
            "duration": 0.10495391666660225
        },
        {
            "name": "D#4",
            "midi": 63,
            "time": 332.8538499999937,
            "velocity": 0.3937007874015748,
            "duration": 0.08921082916663181
        },
        {
            "name": "G#4",
            "midi": 68,
            "time": 332.9438104999937,
            "velocity": 0.33858267716535434,
            "duration": 0.08921082916668865
        },
        {
            "name": "F#4",
            "midi": 66,
            "time": 333.0337709999937,
            "velocity": 0.3700787401574803,
            "duration": 0.08921082916668865
        },
        {
            "name": "G#4",
            "midi": 68,
            "time": 333.1237314999937,
            "velocity": 0.3464566929133858,
            "duration": 0.08921082916668865
        },
        {
            "name": "D#4",
            "midi": 63,
            "time": 333.2136919999937,
            "velocity": 0.4566929133858268,
            "duration": 0.08921082916668865
        },
        {
            "name": "G#4",
            "midi": 68,
            "time": 333.30365249999375,
            "velocity": 0.36220472440944884,
            "duration": 0.08921082916668865
        },
        {
            "name": "F#4",
            "midi": 66,
            "time": 333.39361299999376,
            "velocity": 0.4251968503937008,
            "duration": 0.08921082916668865
        },
        {
            "name": "G#4",
            "midi": 68,
            "time": 333.4835734999938,
            "velocity": 0.4015748031496063,
            "duration": 0.08921082916668865
        },
        {
            "name": "D#4",
            "midi": 63,
            "time": 333.5735339999938,
            "velocity": 0.5196850393700787,
            "duration": 0.08921082916668865
        },
        {
            "name": "G#4",
            "midi": 68,
            "time": 333.6634944999938,
            "velocity": 0.3858267716535433,
            "duration": 0.08921082916668865
        },
        {
            "name": "F#4",
            "midi": 66,
            "time": 333.75345499999383,
            "velocity": 0.4015748031496063,
            "duration": 0.08921082916668865
        },
        {
            "name": "G#4",
            "midi": 68,
            "time": 333.84341549999385,
            "velocity": 0.33858267716535434,
            "duration": 0.08921082916668865
        },
        {
            "name": "C#4",
            "midi": 61,
            "time": 333.93337599999387,
            "velocity": 0.30708661417322836,
            "duration": 0.1049539166666591
        },
        {
            "name": "G#4",
            "midi": 68,
            "time": 334.0233364999939,
            "velocity": 0.23622047244094488,
            "duration": 0.10495391666660225
        },
        {
            "name": "E4",
            "midi": 64,
            "time": 334.11329699999385,
            "velocity": 0.2677165354330709,
            "duration": 0.10495391666660225
        },
        {
            "name": "G#4",
            "midi": 68,
            "time": 334.2032574999938,
            "velocity": 0.2440944881889764,
            "duration": 0.10495391666660225
        },
        {
            "name": "C#4",
            "midi": 61,
            "time": 334.2932179999938,
            "velocity": 0.3937007874015748,
            "duration": 0.08921082916663181
        },
        {
            "name": "G#4",
            "midi": 68,
            "time": 334.38317849999373,
            "velocity": 0.31496062992125984,
            "duration": 0.08921082916668865
        },
        {
            "name": "E4",
            "midi": 64,
            "time": 334.47313899999375,
            "velocity": 0.3700787401574803,
            "duration": 0.08921082916668865
        },
        {
            "name": "G#4",
            "midi": 68,
            "time": 334.56309949999377,
            "velocity": 0.33858267716535434,
            "duration": 0.08921082916668865
        },
        {
            "name": "C#4",
            "midi": 61,
            "time": 334.6530599999938,
            "velocity": 0.4566929133858268,
            "duration": 0.08921082916668865
        },
        {
            "name": "G#4",
            "midi": 68,
            "time": 334.7430204999938,
            "velocity": 0.3779527559055118,
            "duration": 0.08921082916668865
        },
        {
            "name": "E4",
            "midi": 64,
            "time": 334.8329809999938,
            "velocity": 0.4251968503937008,
            "duration": 0.08921082916668865
        },
        {
            "name": "G#4",
            "midi": 68,
            "time": 334.92294149999384,
            "velocity": 0.3858267716535433,
            "duration": 0.08921082916668865
        },
        {
            "name": "C#4",
            "midi": 61,
            "time": 335.01290199999386,
            "velocity": 0.5196850393700787,
            "duration": 0.08921082916668865
        },
        {
            "name": "G#4",
            "midi": 68,
            "time": 335.1028624999939,
            "velocity": 0.3858267716535433,
            "duration": 0.08921082916668865
        },
        {
            "name": "E4",
            "midi": 64,
            "time": 335.1928229999939,
            "velocity": 0.4015748031496063,
            "duration": 0.08921082916668865
        },
        {
            "name": "G#4",
            "midi": 68,
            "time": 335.2827834999939,
            "velocity": 0.33070866141732286,
            "duration": 0.08921082916668865
        },
        {
            "name": "C4",
            "midi": 60,
            "time": 335.37274399999393,
            "velocity": 0.30708661417322836,
            "duration": 0.1049539166666591
        },
        {
            "name": "G#4",
            "midi": 68,
            "time": 335.46270449999395,
            "velocity": 0.2283464566929134,
            "duration": 0.10495391666660225
        },
        {
            "name": "F#4",
            "midi": 66,
            "time": 335.5526649999939,
            "velocity": 0.2677165354330709,
            "duration": 0.10495391666660225
        },
        {
            "name": "G#4",
            "midi": 68,
            "time": 335.64262549999387,
            "velocity": 0.23622047244094488,
            "duration": 0.10495391666660225
        },
        {
            "name": "C4",
            "midi": 60,
            "time": 335.73258599999383,
            "velocity": 0.3937007874015748,
            "duration": 0.08921082916663181
        },
        {
            "name": "G#4",
            "midi": 68,
            "time": 335.8225464999938,
            "velocity": 0.31496062992125984,
            "duration": 0.08921082916668865
        },
        {
            "name": "F#4",
            "midi": 66,
            "time": 335.9125069999938,
            "velocity": 0.3700787401574803,
            "duration": 0.08921082916668865
        },
        {
            "name": "G#4",
            "midi": 68,
            "time": 336.0024674999938,
            "velocity": 0.33858267716535434,
            "duration": 0.08921082916668865
        },
        {
            "name": "C4",
            "midi": 60,
            "time": 336.09242799999384,
            "velocity": 0.4566929133858268,
            "duration": 0.08921082916668865
        },
        {
            "name": "G#4",
            "midi": 68,
            "time": 336.18238849999386,
            "velocity": 0.3858267716535433,
            "duration": 0.08921082916668865
        },
        {
            "name": "F#4",
            "midi": 66,
            "time": 336.2723489999939,
            "velocity": 0.4251968503937008,
            "duration": 0.08921082916668865
        },
        {
            "name": "G#4",
            "midi": 68,
            "time": 336.3623094999939,
            "velocity": 0.3858267716535433,
            "duration": 0.08921082916668865
        },
        {
            "name": "C4",
            "midi": 60,
            "time": 336.4522699999939,
            "velocity": 0.5196850393700787,
            "duration": 0.08921082916668865
        },
        {
            "name": "G#4",
            "midi": 68,
            "time": 336.54223049999393,
            "velocity": 0.3779527559055118,
            "duration": 0.08921082916668865
        },
        {
            "name": "F#4",
            "midi": 66,
            "time": 336.63219099999395,
            "velocity": 0.4015748031496063,
            "duration": 0.08921082916668865
        },
        {
            "name": "G#4",
            "midi": 68,
            "time": 336.72215149999397,
            "velocity": 0.33858267716535434,
            "duration": 0.07646642499997824
        },
        {
            "name": "E4",
            "midi": 64,
            "time": 336.81211199999393,
            "velocity": 0.3228346456692913,
            "duration": 0.1799209999999789
        },
        {
            "name": "G#4",
            "midi": 68,
            "time": 336.81211199999393,
            "velocity": 0.3228346456692913,
            "duration": 0.1799209999999789
        },
        {
            "name": "C#4",
            "midi": 61,
            "time": 336.81211199999393,
            "velocity": 0.3228346456692913,
            "duration": 0.1799209999999789
        },
        {
            "name": "G#5",
            "midi": 80,
            "time": 337.1719539999939,
            "velocity": 0.44881889763779526,
            "duration": 0.7196839999999725
        },
        {
            "name": "G#4",
            "midi": 68,
            "time": 337.1719539999939,
            "velocity": 0.44881889763779526,
            "duration": 0.7196839999999725
        },
        {
            "name": "E4",
            "midi": 64,
            "time": 337.89163799999386,
            "velocity": 0.3700787401574803,
            "duration": 0.2698814999999968
        },
        {
            "name": "E5",
            "midi": 76,
            "time": 337.89163799999386,
            "velocity": 0.3700787401574803,
            "duration": 0.2698814999999968
        },
        {
            "name": "C#4",
            "midi": 61,
            "time": 338.16151949999386,
            "velocity": 0.3700787401574803,
            "duration": 0.08621214583331493
        },
        {
            "name": "C#5",
            "midi": 73,
            "time": 338.16151949999386,
            "velocity": 0.3700787401574803,
            "duration": 0.08621214583331493
        },
        {
            "name": "C#5",
            "midi": 73,
            "time": 338.2514799999938,
            "velocity": 0.4251968503937008,
            "duration": 0.35984200000001465
        },
        {
            "name": "C#4",
            "midi": 61,
            "time": 338.2514799999938,
            "velocity": 0.4251968503937008,
            "duration": 0.35984200000001465
        },
        {
            "name": "C5",
            "midi": 72,
            "time": 338.61132199999383,
            "velocity": 0.36220472440944884,
            "duration": 0.5397629999999936
        },
        {
            "name": "C4",
            "midi": 60,
            "time": 338.61132199999383,
            "velocity": 0.36220472440944884,
            "duration": 0.5397629999999936
        },
        {
            "name": "C5",
            "midi": 72,
            "time": 339.1510849999938,
            "velocity": 0.3700787401574803,
            "duration": 0.1799209999999789
        },
        {
            "name": "C4",
            "midi": 60,
            "time": 339.1510849999938,
            "velocity": 0.3700787401574803,
            "duration": 0.1799209999999789
        },
        {
            "name": "G#5",
            "midi": 80,
            "time": 339.3310059999938,
            "velocity": 0.4409448818897638,
            "duration": 0.2698814999999968
        },
        {
            "name": "G#4",
            "midi": 68,
            "time": 339.3310059999938,
            "velocity": 0.4409448818897638,
            "duration": 0.2698814999999968
        },
        {
            "name": "C4",
            "midi": 60,
            "time": 339.6008874999938,
            "velocity": 0.3700787401574803,
            "duration": 0.08996050000001787
        },
        {
            "name": "C5",
            "midi": 72,
            "time": 339.6008874999938,
            "velocity": 0.3700787401574803,
            "duration": 0.08996050000001787
        },
        {
            "name": "D#4",
            "midi": 63,
            "time": 339.6908479999938,
            "velocity": 0.36220472440944884,
            "duration": 0.35984200000001465
        },
        {
            "name": "D#5",
            "midi": 75,
            "time": 339.6908479999938,
            "velocity": 0.36220472440944884,
            "duration": 0.35984200000001465
        },
        {
            "name": "C#4",
            "midi": 61,
            "time": 340.05068999999384,
            "velocity": 0.3700787401574803,
            "duration": 0.5397629999999936
        },
        {
            "name": "C#5",
            "midi": 73,
            "time": 340.05068999999384,
            "velocity": 0.3700787401574803,
            "duration": 0.5397629999999936
        },
        {
            "name": "C#5",
            "midi": 73,
            "time": 340.59045299999383,
            "velocity": 0.36220472440944884,
            "duration": 0.1799209999999789
        },
        {
            "name": "C#4",
            "midi": 61,
            "time": 340.59045299999383,
            "velocity": 0.36220472440944884,
            "duration": 0.1799209999999789
        },
        {
            "name": "G#5",
            "midi": 80,
            "time": 340.7703739999938,
            "velocity": 0.4409448818897638,
            "duration": 0.2698814999999968
        },
        {
            "name": "G#4",
            "midi": 68,
            "time": 340.7703739999938,
            "velocity": 0.4409448818897638,
            "duration": 0.2698814999999968
        },
        {
            "name": "C#4",
            "midi": 61,
            "time": 341.0402554999938,
            "velocity": 0.36220472440944884,
            "duration": 0.08996050000001787
        },
        {
            "name": "C#5",
            "midi": 73,
            "time": 341.0402554999938,
            "velocity": 0.36220472440944884,
            "duration": 0.08996050000001787
        },
        {
            "name": "E5",
            "midi": 76,
            "time": 341.1302159999938,
            "velocity": 0.3858267716535433,
            "duration": 0.35984200000001465
        },
        {
            "name": "E4",
            "midi": 64,
            "time": 341.1302159999938,
            "velocity": 0.3858267716535433,
            "duration": 0.35984200000001465
        },
        {
            "name": "D#5",
            "midi": 75,
            "time": 341.49005799999384,
            "velocity": 0.3779527559055118,
            "duration": 0.5397629999999936
        },
        {
            "name": "D#4",
            "midi": 63,
            "time": 341.49005799999384,
            "velocity": 0.3779527559055118,
            "duration": 0.5397629999999936
        },
        {
            "name": "D#4",
            "midi": 63,
            "time": 342.02982099999383,
            "velocity": 0.3700787401574803,
            "duration": 0.1799209999999789
        },
        {
            "name": "D#5",
            "midi": 75,
            "time": 342.02982099999383,
            "velocity": 0.3700787401574803,
            "duration": 0.1799209999999789
        },
        {
            "name": "G#5",
            "midi": 80,
            "time": 342.2097419999938,
            "velocity": 0.4251968503937008,
            "duration": 0.2698814999999968
        },
        {
            "name": "G#4",
            "midi": 68,
            "time": 342.2097419999938,
            "velocity": 0.4251968503937008,
            "duration": 0.2698814999999968
        },
        {
            "name": "D#5",
            "midi": 75,
            "time": 342.4796234999938,
            "velocity": 0.3700787401574803,
            "duration": 0.08996050000001787
        },
        {
            "name": "D#4",
            "midi": 63,
            "time": 342.4796234999938,
            "velocity": 0.3700787401574803,
            "duration": 0.08996050000001787
        },
        {
            "name": "F#4",
            "midi": 66,
            "time": 342.5695839999938,
            "velocity": 0.3937007874015748,
            "duration": 0.1799209999999789
        },
        {
            "name": "F#5",
            "midi": 78,
            "time": 342.5695839999938,
            "velocity": 0.3937007874015748,
            "duration": 0.1799209999999789
        },
        {
            "name": "E4",
            "midi": 64,
            "time": 342.7495049999938,
            "velocity": 0.3779527559055118,
            "duration": 0.1799209999999789
        },
        {
            "name": "E5",
            "midi": 76,
            "time": 342.7495049999938,
            "velocity": 0.3779527559055118,
            "duration": 0.1799209999999789
        },
        {
            "name": "C#6",
            "midi": 85,
            "time": 342.9294259999938,
            "velocity": 0.4251968503937008,
            "duration": 0.08996050000001787
        },
        {
            "name": "C#5",
            "midi": 73,
            "time": 342.9294259999938,
            "velocity": 0.4251968503937008,
            "duration": 0.08996050000001787
        },
        {
            "name": "E4",
            "midi": 64,
            "time": 343.1093469999938,
            "velocity": 0.4015748031496063,
            "duration": 0.08996050000001787
        },
        {
            "name": "E5",
            "midi": 76,
            "time": 343.1093469999938,
            "velocity": 0.4015748031496063,
            "duration": 0.08996050000001787
        },
        {
            "name": "F#4",
            "midi": 66,
            "time": 343.28926799999385,
            "velocity": 0.44881889763779526,
            "duration": 0.1799209999999789
        },
        {
            "name": "F#5",
            "midi": 78,
            "time": 343.28926799999385,
            "velocity": 0.44881889763779526,
            "duration": 0.1799209999999789
        },
        {
            "name": "F5",
            "midi": 77,
            "time": 343.46918899999383,
            "velocity": 0.4409448818897638,
            "duration": 0.1799209999999789
        },
        {
            "name": "F4",
            "midi": 65,
            "time": 343.46918899999383,
            "velocity": 0.4409448818897638,
            "duration": 0.1799209999999789
        },
        {
            "name": "C#5",
            "midi": 73,
            "time": 343.6491099999938,
            "velocity": 0.47244094488188976,
            "duration": 0.08996050000001787
        },
        {
            "name": "C#6",
            "midi": 85,
            "time": 343.6491099999938,
            "velocity": 0.47244094488188976,
            "duration": 0.08996050000001787
        },
        {
            "name": "F4",
            "midi": 65,
            "time": 343.82903099999385,
            "velocity": 0.47244094488188976,
            "duration": 0.08996050000001787
        },
        {
            "name": "F5",
            "midi": 77,
            "time": 343.82903099999385,
            "velocity": 0.47244094488188976,
            "duration": 0.08996050000001787
        },
        {
            "name": "G#5",
            "midi": 80,
            "time": 344.0089519999939,
            "velocity": 0.5196850393700787,
            "duration": 0.1799209999999789
        },
        {
            "name": "G#4",
            "midi": 68,
            "time": 344.0089519999939,
            "velocity": 0.5196850393700787,
            "duration": 0.1799209999999789
        },
        {
            "name": "F#4",
            "midi": 66,
            "time": 344.18887299999386,
            "velocity": 0.49606299212598426,
            "duration": 0.1799209999999789
        },
        {
            "name": "F#5",
            "midi": 78,
            "time": 344.18887299999386,
            "velocity": 0.49606299212598426,
            "duration": 0.1799209999999789
        },
        {
            "name": "C#5",
            "midi": 73,
            "time": 344.36879399999384,
            "velocity": 0.5354330708661418,
            "duration": 0.08996050000001787
        },
        {
            "name": "C#6",
            "midi": 85,
            "time": 344.36879399999384,
            "velocity": 0.5354330708661418,
            "duration": 0.08996050000001787
        },
        {
            "name": "F#4",
            "midi": 66,
            "time": 344.5487149999939,
            "velocity": 0.5354330708661418,
            "duration": 0.08996050000001787
        },
        {
            "name": "F#5",
            "midi": 78,
            "time": 344.5487149999939,
            "velocity": 0.5354330708661418,
            "duration": 0.08996050000001787
        },
        {
            "name": "A5",
            "midi": 81,
            "time": 344.7286359999939,
            "velocity": 0.5748031496062992,
            "duration": 0.1799209999999789
        },
        {
            "name": "A4",
            "midi": 69,
            "time": 344.7286359999939,
            "velocity": 0.5748031496062992,
            "duration": 0.1799209999999789
        },
        {
            "name": "G#5",
            "midi": 80,
            "time": 344.9085569999939,
            "velocity": 0.5669291338582677,
            "duration": 0.1799209999999789
        },
        {
            "name": "G#4",
            "midi": 68,
            "time": 344.9085569999939,
            "velocity": 0.5669291338582677,
            "duration": 0.1799209999999789
        },
        {
            "name": "C#5",
            "midi": 73,
            "time": 345.08847799999387,
            "velocity": 0.6141732283464567,
            "duration": 0.08996050000001787
        },
        {
            "name": "C#6",
            "midi": 85,
            "time": 345.08847799999387,
            "velocity": 0.6141732283464567,
            "duration": 0.08996050000001787
        },
        {
            "name": "G#4",
            "midi": 68,
            "time": 345.2683989999939,
            "velocity": 0.5984251968503937,
            "duration": 0.08996050000001787
        },
        {
            "name": "G#5",
            "midi": 80,
            "time": 345.2683989999939,
            "velocity": 0.5984251968503937,
            "duration": 0.08996050000001787
        },
        {
            "name": "A5",
            "midi": 81,
            "time": 345.44831999999394,
            "velocity": 0.6614173228346457,
            "duration": 0.11994733333335716
        },
        {
            "name": "F#5",
            "midi": 78,
            "time": 345.5682673333273,
            "velocity": 0.5275590551181102,
            "duration": 0.11994733333335716
        },
        {
            "name": "C#5",
            "midi": 73,
            "time": 345.68821466666066,
            "velocity": 0.5196850393700787,
            "duration": 0.11994733333335716
        },
        {
            "name": "A4",
            "midi": 69,
            "time": 345.808161999994,
            "velocity": 0.5748031496062992,
            "duration": 0.11994733333335716
        },
        {
            "name": "F#4",
            "midi": 66,
            "time": 345.92810933332737,
            "velocity": 0.4881889763779528,
            "duration": 0.11994733333335716
        },
        {
            "name": "C#4",
            "midi": 61,
            "time": 346.0480566666607,
            "velocity": 0.49606299212598426,
            "duration": 0.11994733333335716
        },
        {
            "name": "A4",
            "midi": 69,
            "time": 346.1680039999941,
            "velocity": 0.5590551181102362,
            "duration": 0.11994733333335716
        },
        {
            "name": "F#4",
            "midi": 66,
            "time": 346.28795133332744,
            "velocity": 0.49606299212598426,
            "duration": 0.11994733333335716
        },
        {
            "name": "C#4",
            "midi": 61,
            "time": 346.4078986666608,
            "velocity": 0.49606299212598426,
            "duration": 0.11994733333335716
        },
        {
            "name": "A3",
            "midi": 57,
            "time": 346.52784599999416,
            "velocity": 0.5590551181102362,
            "duration": 0.11994733333335716
        },
        {
            "name": "F#3",
            "midi": 54,
            "time": 346.6477933333275,
            "velocity": 0.48031496062992124,
            "duration": 0.11994733333335716
        },
        {
            "name": "C#3",
            "midi": 49,
            "time": 346.76774066666087,
            "velocity": 0.4881889763779528,
            "duration": 0.11994733333335716
        },
        {
            "name": "A3",
            "midi": 57,
            "time": 346.8876879999942,
            "velocity": 0.6141732283464567,
            "duration": 0.08996050000001787
        },
        {
            "name": "F#3",
            "midi": 54,
            "time": 346.97764849999425,
            "velocity": 0.48031496062992124,
            "duration": 0.08996050000001787
        },
        {
            "name": "C#3",
            "midi": 49,
            "time": 347.06760899999426,
            "velocity": 0.5275590551181102,
            "duration": 0.08996050000001787
        },
        {
            "name": "A2",
            "midi": 45,
            "time": 347.1575694999943,
            "velocity": 0.4881889763779528,
            "duration": 0.08996050000001787
        },
        {
            "name": "C#3",
            "midi": 49,
            "time": 347.2475299999943,
            "velocity": 0.5590551181102362,
            "duration": 0.08996050000001787
        },
        {
            "name": "E3",
            "midi": 52,
            "time": 347.3374904999943,
            "velocity": 0.4881889763779528,
            "duration": 0.08996050000001787
        },
        {
            "name": "G#3",
            "midi": 56,
            "time": 347.42745099999433,
            "velocity": 0.5275590551181102,
            "duration": 0.08996050000001787
        },
        {
            "name": "C#4",
            "midi": 61,
            "time": 347.51741149999435,
            "velocity": 0.4881889763779528,
            "duration": 0.08996050000001787
        },
        {
            "name": "F#4",
            "midi": 66,
            "time": 347.60737199999437,
            "velocity": 0.5590551181102362,
            "duration": 0.08996050000001787
        },
        {
            "name": "A4",
            "midi": 69,
            "time": 347.6973324999944,
            "velocity": 0.48031496062992124,
            "duration": 0.08996050000001787
        },
        {
            "name": "C#5",
            "midi": 73,
            "time": 347.7872929999944,
            "velocity": 0.5275590551181102,
            "duration": 0.08996050000001787
        },
        {
            "name": "F#5",
            "midi": 78,
            "time": 347.8772534999944,
            "velocity": 0.47244094488188976,
            "duration": 0.08996050000001787
        },
        {
            "name": "A5",
            "midi": 81,
            "time": 347.96721399999444,
            "velocity": 0.5669291338582677,
            "duration": 0.08996050000001787
        },
        {
            "name": "F#5",
            "midi": 78,
            "time": 348.05717449999446,
            "velocity": 0.49606299212598426,
            "duration": 0.08996050000001787
        },
        {
            "name": "C#5",
            "midi": 73,
            "time": 348.1471349999945,
            "velocity": 0.5354330708661418,
            "duration": 0.08996050000001787
        },
        {
            "name": "A4",
            "midi": 69,
            "time": 348.2370954999945,
            "velocity": 0.5118110236220472,
            "duration": 0.08996050000001787
        },
        {
            "name": "A5",
            "midi": 81,
            "time": 348.3270559999945,
            "velocity": 0.6614173228346457,
            "duration": 0.11994733333335716
        },
        {
            "name": "F#5",
            "midi": 78,
            "time": 348.44700333332787,
            "velocity": 0.5118110236220472,
            "duration": 0.11994733333335716
        },
        {
            "name": "D5",
            "midi": 74,
            "time": 348.5669506666612,
            "velocity": 0.5196850393700787,
            "duration": 0.11994733333335716
        },
        {
            "name": "A4",
            "midi": 69,
            "time": 348.6868979999946,
            "velocity": 0.5590551181102362,
            "duration": 0.11994733333335716
        },
        {
            "name": "F#4",
            "midi": 66,
            "time": 348.80684533332794,
            "velocity": 0.4881889763779528,
            "duration": 0.11994733333335716
        },
        {
            "name": "D4",
            "midi": 62,
            "time": 348.9267926666613,
            "velocity": 0.5118110236220472,
            "duration": 0.11994733333335716
        },
        {
            "name": "A4",
            "midi": 69,
            "time": 349.04673999999466,
            "velocity": 0.5511811023622047,
            "duration": 0.11994733333335716
        },
        {
            "name": "F#4",
            "midi": 66,
            "time": 349.166687333328,
            "velocity": 0.4881889763779528,
            "duration": 0.11994733333335716
        },
        {
            "name": "D4",
            "midi": 62,
            "time": 349.28663466666137,
            "velocity": 0.49606299212598426,
            "duration": 0.11994733333335716
        },
        {
            "name": "A3",
            "midi": 57,
            "time": 349.4065819999947,
            "velocity": 0.5669291338582677,
            "duration": 0.11994733333335716
        },
        {
            "name": "F#3",
            "midi": 54,
            "time": 349.5265293333281,
            "velocity": 0.4881889763779528,
            "duration": 0.11994733333335716
        },
        {
            "name": "D3",
            "midi": 50,
            "time": 349.64647666666144,
            "velocity": 0.4881889763779528,
            "duration": 0.11994733333335716
        },
        {
            "name": "A3",
            "midi": 57,
            "time": 349.7664239999948,
            "velocity": 0.6062992125984252,
            "duration": 0.08996050000001787
        },
        {
            "name": "F#3",
            "midi": 54,
            "time": 349.8563844999948,
            "velocity": 0.5118110236220472,
            "duration": 0.08996050000001787
        },
        {
            "name": "D3",
            "midi": 50,
            "time": 349.94634499999484,
            "velocity": 0.5511811023622047,
            "duration": 0.08996050000001787
        },
        {
            "name": "A2",
            "midi": 45,
            "time": 350.03630549999485,
            "velocity": 0.5196850393700787,
            "duration": 0.08996050000001787
        },
        {
            "name": "D3",
            "midi": 50,
            "time": 350.12626599999487,
            "velocity": 0.5748031496062992,
            "duration": 0.08996050000001787
        },
        {
            "name": "F#3",
            "midi": 54,
            "time": 350.2162264999949,
            "velocity": 0.4881889763779528,
            "duration": 0.08996050000001787
        },
        {
            "name": "A3",
            "midi": 57,
            "time": 350.3061869999949,
            "velocity": 0.5354330708661418,
            "duration": 0.08996050000001787
        },
        {
            "name": "D4",
            "midi": 62,
            "time": 350.3961474999949,
            "velocity": 0.49606299212598426,
            "duration": 0.08996050000001787
        },
        {
            "name": "F#4",
            "midi": 66,
            "time": 350.48610799999494,
            "velocity": 0.5669291338582677,
            "duration": 0.08996050000001787
        },
        {
            "name": "A4",
            "midi": 69,
            "time": 350.57606849999496,
            "velocity": 0.4881889763779528,
            "duration": 0.08996050000001787
        },
        {
            "name": "D5",
            "midi": 74,
            "time": 350.666028999995,
            "velocity": 0.5354330708661418,
            "duration": 0.08996050000001787
        },
        {
            "name": "F#5",
            "midi": 78,
            "time": 350.755989499995,
            "velocity": 0.5118110236220472,
            "duration": 0.08996050000001787
        },
        {
            "name": "A5",
            "midi": 81,
            "time": 350.845949999995,
            "velocity": 0.6141732283464567,
            "duration": 0.08996050000001787
        },
        {
            "name": "F#5",
            "midi": 78,
            "time": 350.93591049999503,
            "velocity": 0.5196850393700787,
            "duration": 0.08996050000001787
        },
        {
            "name": "D5",
            "midi": 74,
            "time": 351.02587099999505,
            "velocity": 0.5511811023622047,
            "duration": 0.08996050000001787
        },
        {
            "name": "A4",
            "midi": 69,
            "time": 351.11583149999507,
            "velocity": 0.5275590551181102,
            "duration": 0.08996050000001787
        },
        {
            "name": "C#6",
            "midi": 85,
            "time": 351.2057919999951,
            "velocity": 0.6692913385826772,
            "duration": 0.11994733333335716
        },
        {
            "name": "A#5",
            "midi": 82,
            "time": 351.32573933332844,
            "velocity": 0.5354330708661418,
            "duration": 0.11994733333335716
        },
        {
            "name": "G5",
            "midi": 79,
            "time": 351.4456866666618,
            "velocity": 0.5275590551181102,
            "duration": 0.11994733333335716
        },
        {
            "name": "E5",
            "midi": 76,
            "time": 351.56563399999516,
            "velocity": 0.6141732283464567,
            "duration": 0.11994733333335716
        },
        {
            "name": "C#5",
            "midi": 73,
            "time": 351.6855813333285,
            "velocity": 0.5118110236220472,
            "duration": 0.11994733333335716
        },
        {
            "name": "A#4",
            "midi": 70,
            "time": 351.80552866666187,
            "velocity": 0.5275590551181102,
            "duration": 0.11994733333335716
        },
        {
            "name": "E5",
            "midi": 76,
            "time": 351.92547599999523,
            "velocity": 0.6141732283464567,
            "duration": 0.11994733333335716
        },
        {
            "name": "C#5",
            "midi": 73,
            "time": 352.0454233333286,
            "velocity": 0.5354330708661418,
            "duration": 0.11994733333335716
        },
        {
            "name": "A#4",
            "midi": 70,
            "time": 352.16537066666194,
            "velocity": 0.5354330708661418,
            "duration": 0.11994733333335716
        },
        {
            "name": "G4",
            "midi": 67,
            "time": 352.2853179999953,
            "velocity": 0.5826771653543307,
            "duration": 0.08996050000001787
        },
        {
            "name": "E4",
            "midi": 64,
            "time": 352.3752784999953,
            "velocity": 0.4881889763779528,
            "duration": 0.08996050000001787
        },
        {
            "name": "C#4",
            "midi": 61,
            "time": 352.46523899999534,
            "velocity": 0.5275590551181102,
            "duration": 0.08996050000001787
        },
        {
            "name": "A#3",
            "midi": 58,
            "time": 352.55519949999535,
            "velocity": 0.4881889763779528,
            "duration": 0.08996050000001787
        },
        {
            "name": "E4",
            "midi": 64,
            "time": 352.64515999999537,
            "velocity": 0.5669291338582677,
            "duration": 0.08996050000001787
        },
        {
            "name": "C#4",
            "midi": 61,
            "time": 352.7351204999954,
            "velocity": 0.49606299212598426,
            "duration": 0.08996050000001787
        },
        {
            "name": "A#3",
            "midi": 58,
            "time": 352.8250809999954,
            "velocity": 0.5354330708661418,
            "duration": 0.08996050000001787
        },
        {
            "name": "G3",
            "midi": 55,
            "time": 352.9150414999954,
            "velocity": 0.49606299212598426,
            "duration": 0.08996050000001787
        },
        {
            "name": "E3",
            "midi": 52,
            "time": 353.00500199999544,
            "velocity": 0.5748031496062992,
            "duration": 0.08996050000001787
        },
        {
            "name": "C#3",
            "midi": 49,
            "time": 353.09496249999546,
            "velocity": 0.5118110236220472,
            "duration": 0.08996050000001787
        },
        {
            "name": "E3",
            "midi": 52,
            "time": 353.1849229999955,
            "velocity": 0.5354330708661418,
            "duration": 0.08996050000001787
        },
        {
            "name": "G3",
            "midi": 55,
            "time": 353.2748834999955,
            "velocity": 0.49606299212598426,
            "duration": 0.08996050000001787
        },
        {
            "name": "A#3",
            "midi": 58,
            "time": 353.3648439999955,
            "velocity": 0.6220472440944882,
            "duration": 0.05997366666667858
        },
        {
            "name": "C#4",
            "midi": 61,
            "time": 353.4248176666622,
            "velocity": 0.5039370078740157,
            "duration": 0.05997366666667858
        },
        {
            "name": "E4",
            "midi": 64,
            "time": 353.4847913333289,
            "velocity": 0.5433070866141733,
            "duration": 0.05997366666667858
        },
        {
            "name": "G4",
            "midi": 67,
            "time": 353.54476499999555,
            "velocity": 0.5196850393700787,
            "duration": 0.05997366666667858
        },
        {
            "name": "A#4",
            "midi": 70,
            "time": 353.60473866666223,
            "velocity": 0.5511811023622047,
            "duration": 0.05997366666667858
        },
        {
            "name": "C#5",
            "midi": 73,
            "time": 353.6647123333289,
            "velocity": 0.5118110236220472,
            "duration": 0.05997366666667858
        },
        {
            "name": "E5",
            "midi": 76,
            "time": 353.7246859999956,
            "velocity": 0.5590551181102362,
            "duration": 0.05997366666667858
        },
        {
            "name": "G5",
            "midi": 79,
            "time": 353.78465966666226,
            "velocity": 0.5275590551181102,
            "duration": 0.05997366666667858
        },
        {
            "name": "A#5",
            "midi": 82,
            "time": 353.84463333332894,
            "velocity": 0.5669291338582677,
            "duration": 0.05997366666667858
        },
        {
            "name": "C#6",
            "midi": 85,
            "time": 353.9046069999956,
            "velocity": 0.5275590551181102,
            "duration": 0.05997366666667858
        },
        {
            "name": "A#5",
            "midi": 82,
            "time": 353.9645806666623,
            "velocity": 0.5748031496062992,
            "duration": 0.05997366666667858
        },
        {
            "name": "E5",
            "midi": 76,
            "time": 354.024554333329,
            "velocity": 0.5354330708661418,
            "duration": 0.05997366666667858
        },
        {
            "name": "E6",
            "midi": 88,
            "time": 354.08452799999566,
            "velocity": 0.6850393700787402,
            "duration": 0.11994733333335716
        },
        {
            "name": "C#6",
            "midi": 85,
            "time": 354.204475333329,
            "velocity": 0.5275590551181102,
            "duration": 0.11994733333335716
        },
        {
            "name": "G#5",
            "midi": 80,
            "time": 354.3244226666624,
            "velocity": 0.5275590551181102,
            "duration": 0.11994733333335716
        },
        {
            "name": "E5",
            "midi": 76,
            "time": 354.44436999999573,
            "velocity": 0.6141732283464567,
            "duration": 0.11994733333335716
        },
        {
            "name": "C#5",
            "midi": 73,
            "time": 354.5643173333291,
            "velocity": 0.5196850393700787,
            "duration": 0.11994733333335716
        },
        {
            "name": "G#4",
            "midi": 68,
            "time": 354.68426466666244,
            "velocity": 0.5275590551181102,
            "duration": 0.11994733333335716
        },
        {
            "name": "E5",
            "midi": 76,
            "time": 354.8042119999958,
            "velocity": 0.6141732283464567,
            "duration": 0.11994733333335716
        },
        {
            "name": "C#5",
            "midi": 73,
            "time": 354.92415933332916,
            "velocity": 0.5196850393700787,
            "duration": 0.11994733333335716
        },
        {
            "name": "G#4",
            "midi": 68,
            "time": 355.0441066666625,
            "velocity": 0.5196850393700787,
            "duration": 0.11994733333335716
        },
        {
            "name": "E4",
            "midi": 64,
            "time": 355.1640539999959,
            "velocity": 0.6141732283464567,
            "duration": 0.08996050000001787
        },
        {
            "name": "C#5",
            "midi": 73,
            "time": 355.2540144999959,
            "velocity": 0.5275590551181102,
            "duration": 0.08996050000001787
        },
        {
            "name": "G#4",
            "midi": 68,
            "time": 355.3439749999959,
            "velocity": 0.5511811023622047,
            "duration": 0.08996050000001787
        },
        {
            "name": "E4",
            "midi": 64,
            "time": 355.4339354999959,
            "velocity": 0.5354330708661418,
            "duration": 0.08996050000001787
        },
        {
            "name": "C#4",
            "midi": 61,
            "time": 355.52389599999594,
            "velocity": 0.6220472440944882,
            "duration": 0.08996050000001787
        },
        {
            "name": "G#4",
            "midi": 68,
            "time": 355.61385649999596,
            "velocity": 0.5118110236220472,
            "duration": 0.08996050000001787
        },
        {
            "name": "E4",
            "midi": 64,
            "time": 355.703816999996,
            "velocity": 0.5354330708661418,
            "duration": 0.08996050000001787
        },
        {
            "name": "C#4",
            "midi": 61,
            "time": 355.793777499996,
            "velocity": 0.5118110236220472,
            "duration": 0.08996050000001787
        },
        {
            "name": "G#3",
            "midi": 56,
            "time": 355.883737999996,
            "velocity": 0.6141732283464567,
            "duration": 0.08996050000001787
        },
        {
            "name": "E4",
            "midi": 64,
            "time": 355.97369849999603,
            "velocity": 0.49606299212598426,
            "duration": 0.08996050000001787
        },
        {
            "name": "C#4",
            "midi": 61,
            "time": 356.06365899999605,
            "velocity": 0.5275590551181102,
            "duration": 0.08996050000001787
        },
        {
            "name": "G#3",
            "midi": 56,
            "time": 356.15361949999607,
            "velocity": 0.4881889763779528,
            "duration": 0.08996050000001787
        },
        {
            "name": "E3",
            "midi": 52,
            "time": 356.2435799999961,
            "velocity": 0.6220472440944882,
            "duration": 0.08996050000001787
        },
        {
            "name": "C#4",
            "midi": 61,
            "time": 356.3335404999961,
            "velocity": 0.5118110236220472,
            "duration": 0.08996050000001787
        },
        {
            "name": "G#3",
            "midi": 56,
            "time": 356.4235009999961,
            "velocity": 0.5354330708661418,
            "duration": 0.08996050000001787
        },
        {
            "name": "E3",
            "midi": 52,
            "time": 356.51346149999614,
            "velocity": 0.5118110236220472,
            "duration": 0.08996050000001787
        },
        {
            "name": "C#3",
            "midi": 49,
            "time": 356.60342199999616,
            "velocity": 0.6141732283464567,
            "duration": 0.08996050000001787
        },
        {
            "name": "G#3",
            "midi": 56,
            "time": 356.6933824999962,
            "velocity": 0.49606299212598426,
            "duration": 0.08996050000001787
        },
        {
            "name": "E3",
            "midi": 52,
            "time": 356.7833429999962,
            "velocity": 0.5354330708661418,
            "duration": 0.08996050000001787
        },
        {
            "name": "C#3",
            "midi": 49,
            "time": 356.8733034999962,
            "velocity": 0.4881889763779528,
            "duration": 0.08996050000001787
        },
        {
            "name": "G#2",
            "midi": 44,
            "time": 356.96326399999623,
            "velocity": 0.3700787401574803,
            "duration": 0.08996050000001787
        },
        {
            "name": "A2",
            "midi": 45,
            "time": 357.05322449999625,
            "velocity": 0.3700787401574803,
            "duration": 0.08996050000001787
        },
        {
            "name": "A#2",
            "midi": 46,
            "time": 357.14318499999627,
            "velocity": 0.3779527559055118,
            "duration": 0.08996050000001787
        },
        {
            "name": "B2",
            "midi": 47,
            "time": 357.2331454999963,
            "velocity": 0.3858267716535433,
            "duration": 0.08996050000001787
        },
        {
            "name": "C3",
            "midi": 48,
            "time": 357.3231059999963,
            "velocity": 0.4015748031496063,
            "duration": 0.08996050000001787
        },
        {
            "name": "C#3",
            "midi": 49,
            "time": 357.4130664999963,
            "velocity": 0.4015748031496063,
            "duration": 0.08996050000001787
        },
        {
            "name": "D3",
            "midi": 50,
            "time": 357.50302699999634,
            "velocity": 0.4015748031496063,
            "duration": 0.08996050000001787
        },
        {
            "name": "D#3",
            "midi": 51,
            "time": 357.59298749999635,
            "velocity": 0.4094488188976378,
            "duration": 0.08996050000001787
        },
        {
            "name": "E3",
            "midi": 52,
            "time": 357.6829479999964,
            "velocity": 0.4251968503937008,
            "duration": 0.08996050000001787
        },
        {
            "name": "F3",
            "midi": 53,
            "time": 357.7729084999964,
            "velocity": 0.4409448818897638,
            "duration": 0.08996050000001787
        },
        {
            "name": "F#3",
            "midi": 54,
            "time": 357.8628689999964,
            "velocity": 0.4409448818897638,
            "duration": 0.08996050000001787
        },
        {
            "name": "G3",
            "midi": 55,
            "time": 357.9528294999964,
            "velocity": 0.44881889763779526,
            "duration": 0.08996050000001787
        },
        {
            "name": "G#3",
            "midi": 56,
            "time": 358.04278999999644,
            "velocity": 0.4566929133858268,
            "duration": 0.08996050000001787
        },
        {
            "name": "A3",
            "midi": 57,
            "time": 358.13275049999646,
            "velocity": 0.4645669291338583,
            "duration": 0.08996050000001787
        },
        {
            "name": "A#3",
            "midi": 58,
            "time": 358.2227109999965,
            "velocity": 0.47244094488188976,
            "duration": 0.08996050000001787
        },
        {
            "name": "B3",
            "midi": 59,
            "time": 358.3126714999965,
            "velocity": 0.48031496062992124,
            "duration": 0.08996050000001787
        },
        {
            "name": "C4",
            "midi": 60,
            "time": 358.4026319999965,
            "velocity": 0.4881889763779528,
            "duration": 0.08996050000001787
        },
        {
            "name": "C#4",
            "midi": 61,
            "time": 358.49259249999653,
            "velocity": 0.4881889763779528,
            "duration": 0.08996050000001787
        },
        {
            "name": "D4",
            "midi": 62,
            "time": 358.58255299999655,
            "velocity": 0.49606299212598426,
            "duration": 0.08996050000001787
        },
        {
            "name": "D#4",
            "midi": 63,
            "time": 358.67251349999657,
            "velocity": 0.5118110236220472,
            "duration": 0.08996050000001787
        },
        {
            "name": "E4",
            "midi": 64,
            "time": 358.7624739999966,
            "velocity": 0.5275590551181102,
            "duration": 0.07196840000000293
        },
        {
            "name": "F4",
            "midi": 65,
            "time": 358.8344423999966,
            "velocity": 0.5354330708661418,
            "duration": 0.07196840000000293
        },
        {
            "name": "F#4",
            "midi": 66,
            "time": 358.9064107999966,
            "velocity": 0.5354330708661418,
            "duration": 0.07196840000000293
        },
        {
            "name": "G4",
            "midi": 67,
            "time": 358.9783791999966,
            "velocity": 0.5354330708661418,
            "duration": 0.07196840000000293
        },
        {
            "name": "G#4",
            "midi": 68,
            "time": 359.0503475999966,
            "velocity": 0.5433070866141733,
            "duration": 0.07196840000000293
        },
        {
            "name": "A4",
            "midi": 69,
            "time": 359.1223159999966,
            "velocity": 0.5511811023622047,
            "duration": 0.07196840000000293
        },
        {
            "name": "A#4",
            "midi": 70,
            "time": 359.1942843999966,
            "velocity": 0.5590551181102362,
            "duration": 0.07196840000000293
        },
        {
            "name": "B4",
            "midi": 71,
            "time": 359.2662527999966,
            "velocity": 0.5669291338582677,
            "duration": 0.07196840000000293
        },
        {
            "name": "C5",
            "midi": 72,
            "time": 359.3382211999966,
            "velocity": 0.5748031496062992,
            "duration": 0.07196840000000293
        },
        {
            "name": "C#5",
            "midi": 73,
            "time": 359.4101895999966,
            "velocity": 0.5748031496062992,
            "duration": 0.07196840000000293
        },
        {
            "name": "D5",
            "midi": 74,
            "time": 359.4821579999966,
            "velocity": 0.5826771653543307,
            "duration": 0.05997366666667858
        },
        {
            "name": "D#5",
            "midi": 75,
            "time": 359.5421316666633,
            "velocity": 0.5826771653543307,
            "duration": 0.05997366666667858
        },
        {
            "name": "E5",
            "midi": 76,
            "time": 359.60210533333,
            "velocity": 0.5905511811023622,
            "duration": 0.05997366666667858
        },
        {
            "name": "F5",
            "midi": 77,
            "time": 359.66207899999665,
            "velocity": 0.5984251968503937,
            "duration": 0.044980249999980515
        },
        {
            "name": "F#5",
            "midi": 78,
            "time": 359.70705924999663,
            "velocity": 0.6062992125984252,
            "duration": 0.044980249999980515
        },
        {
            "name": "G5",
            "midi": 79,
            "time": 359.7520394999966,
            "velocity": 0.6062992125984252,
            "duration": 0.044980249999980515
        },
        {
            "name": "G#5",
            "midi": 80,
            "time": 359.7970197499966,
            "velocity": 0.6062992125984252,
            "duration": 0.044980249999980515
        },
        {
            "name": "A5",
            "midi": 81,
            "time": 359.8419999999966,
            "velocity": 0.6377952755905512,
            "duration": 0.06747037500002762
        },
        {
            "name": "B5",
            "midi": 83,
            "time": 359.9094703749966,
            "velocity": 0.5669291338582677,
            "duration": 0.06747037500002762
        },
        {
            "name": "A5",
            "midi": 81,
            "time": 359.97694074999663,
            "velocity": 0.6062992125984252,
            "duration": 0.05997366666667858
        },
        {
            "name": "B5",
            "midi": 83,
            "time": 360.0369144166633,
            "velocity": 0.5590551181102362,
            "duration": 0.05997366666667858
        },
        {
            "name": "A5",
            "midi": 81,
            "time": 360.09688808333,
            "velocity": 0.6220472440944882,
            "duration": 0.05997366666667858
        },
        {
            "name": "B5",
            "midi": 83,
            "time": 360.15686174999666,
            "velocity": 0.5590551181102362,
            "duration": 0.05997366666667858
        },
        {
            "name": "A5",
            "midi": 81,
            "time": 360.21683541666334,
            "velocity": 0.6377952755905512,
            "duration": 0.05997366666667858
        },
        {
            "name": "B5",
            "midi": 83,
            "time": 360.27680908333,
            "velocity": 0.5826771653543307,
            "duration": 0.05997366666667858
        },
        {
            "name": "A5",
            "midi": 81,
            "time": 360.3367827499967,
            "velocity": 0.6377952755905512,
            "duration": 0.05997366666667858
        },
        {
            "name": "B5",
            "midi": 83,
            "time": 360.3967564166634,
            "velocity": 0.5748031496062992,
            "duration": 0.05997366666667858
        },
        {
            "name": "A5",
            "midi": 81,
            "time": 360.45673008333006,
            "velocity": 0.6377952755905512,
            "duration": 0.05997366666667858
        },
        {
            "name": "B5",
            "midi": 83,
            "time": 360.51670374999674,
            "velocity": 0.6220472440944882,
            "duration": 0.05997366666667858
        },
        {
            "name": "A5",
            "midi": 81,
            "time": 360.5766774166634,
            "velocity": 0.6220472440944882,
            "duration": 0.056225312499975644
        },
        {
            "name": "B5",
            "midi": 83,
            "time": 360.6329027291634,
            "velocity": 0.5984251968503937,
            "duration": 0.056225312499975644
        },
        {
            "name": "A5",
            "midi": 81,
            "time": 360.68912804166337,
            "velocity": 0.6220472440944882,
            "duration": 0.056225312499975644
        },
        {
            "name": "B5",
            "midi": 83,
            "time": 360.74535335416334,
            "velocity": 0.5984251968503937,
            "duration": 0.056225312499975644
        },
        {
            "name": "A5",
            "midi": 81,
            "time": 360.8015786666633,
            "velocity": 0.6141732283464567,
            "duration": 0.05247695833332955
        },
        {
            "name": "B5",
            "midi": 83,
            "time": 360.85405562499665,
            "velocity": 0.5826771653543307,
            "duration": 0.056225312499975644
        },
        {
            "name": "A5",
            "midi": 81,
            "time": 360.9102809374966,
            "velocity": 0.6062992125984252,
            "duration": 0.056225312499975644
        },
        {
            "name": "B5",
            "midi": 83,
            "time": 360.9665062499966,
            "velocity": 0.5511811023622047,
            "duration": 0.05997366666667858
        },
        {
            "name": "A5",
            "midi": 81,
            "time": 361.0264799166633,
            "velocity": 0.5826771653543307,
            "duration": 0.05997366666667858
        },
        {
            "name": "B5",
            "midi": 83,
            "time": 361.08645358332996,
            "velocity": 0.5354330708661418,
            "duration": 0.05997366666667858
        },
        {
            "name": "A5",
            "midi": 81,
            "time": 361.14642724999663,
            "velocity": 0.5826771653543307,
            "duration": 0.06747037500002762
        },
        {
            "name": "B5",
            "midi": 83,
            "time": 361.21389762499666,
            "velocity": 0.5354330708661418,
            "duration": 0.06747037500002762
        },
        {
            "name": "G#5",
            "midi": 80,
            "time": 361.2813679999967,
            "velocity": 0.5905511811023622,
            "duration": 0.11994733333335716
        },
        {
            "name": "F#5",
            "midi": 78,
            "time": 361.40131533333005,
            "velocity": 0.4881889763779528,
            "duration": 0.11994733333335716
        },
        {
            "name": "E5",
            "midi": 76,
            "time": 361.5212626666634,
            "velocity": 0.4881889763779528,
            "duration": 0.11994733333335716
        },
        {
            "name": "D#5",
            "midi": 75,
            "time": 361.64120999999676,
            "velocity": 0.4881889763779528,
            "duration": 0.11994733333335716
        },
        {
            "name": "F#5",
            "midi": 78,
            "time": 361.7611573333301,
            "velocity": 0.5118110236220472,
            "duration": 0.11994733333335716
        },
        {
            "name": "C#5",
            "midi": 73,
            "time": 361.8811046666635,
            "velocity": 0.4881889763779528,
            "duration": 0.11994733333335716
        },
        {
            "name": "C5",
            "midi": 72,
            "time": 362.00105199999683,
            "velocity": 0.4881889763779528,
            "duration": 0.11994733333335716
        },
        {
            "name": "D#5",
            "midi": 75,
            "time": 362.1209993333302,
            "velocity": 0.5118110236220472,
            "duration": 0.11994733333335716
        },
        {
            "name": "A4",
            "midi": 69,
            "time": 362.24094666666355,
            "velocity": 0.4881889763779528,
            "duration": 0.11994733333335716
        },
        {
            "name": "G#4",
            "midi": 68,
            "time": 362.3608939999969,
            "velocity": 0.4881889763779528,
            "duration": 0.11994733333335716
        },
        {
            "name": "F#4",
            "midi": 66,
            "time": 362.48084133333026,
            "velocity": 0.4881889763779528,
            "duration": 0.11994733333335716
        },
        {
            "name": "A4",
            "midi": 69,
            "time": 362.6007886666636,
            "velocity": 0.5118110236220472,
            "duration": 0.11994733333335716
        },
        {
            "name": "E4",
            "midi": 64,
            "time": 362.720735999997,
            "velocity": 0.4881889763779528,
            "duration": 0.11994733333335716
        },
        {
            "name": "D#4",
            "midi": 63,
            "time": 362.84068333333033,
            "velocity": 0.4881889763779528,
            "duration": 0.11994733333335716
        },
        {
            "name": "F#4",
            "midi": 66,
            "time": 362.9606306666637,
            "velocity": 0.5196850393700787,
            "duration": 0.11994733333335716
        },
        {
            "name": "C#4",
            "midi": 61,
            "time": 363.08057799999705,
            "velocity": 0.4881889763779528,
            "duration": 0.11994733333335716
        },
        {
            "name": "C4",
            "midi": 60,
            "time": 363.2005253333304,
            "velocity": 0.4881889763779528,
            "duration": 0.11994733333335716
        },
        {
            "name": "D#4",
            "midi": 63,
            "time": 363.32047266666376,
            "velocity": 0.4881889763779528,
            "duration": 0.11994733333335716
        },
        {
            "name": "A3",
            "midi": 57,
            "time": 363.4404199999971,
            "velocity": 0.4881889763779528,
            "duration": 0.11994733333335716
        },
        {
            "name": "G#3",
            "midi": 56,
            "time": 363.5603673333305,
            "velocity": 0.4881889763779528,
            "duration": 0.11994733333335716
        },
        {
            "name": "F#3",
            "midi": 54,
            "time": 363.68031466666383,
            "velocity": 0.4881889763779528,
            "duration": 0.11994733333335716
        },
        {
            "name": "A3",
            "midi": 57,
            "time": 363.8002619999972,
            "velocity": 0.49606299212598426,
            "duration": 0.11994733333335716
        },
        {
            "name": "E3",
            "midi": 52,
            "time": 363.92020933333055,
            "velocity": 0.4881889763779528,
            "duration": 0.11994733333335716
        },
        {
            "name": "D#3",
            "midi": 51,
            "time": 364.0401566666639,
            "velocity": 0.4881889763779528,
            "duration": 0.11994733333335716
        },
        {
            "name": "F#3",
            "midi": 54,
            "time": 364.16010399999726,
            "velocity": 0.5118110236220472,
            "duration": 0.11994733333335716
        },
        {
            "name": "C#3",
            "midi": 49,
            "time": 364.2800513333306,
            "velocity": 0.4881889763779528,
            "duration": 0.11994733333335716
        },
        {
            "name": "C3",
            "midi": 48,
            "time": 364.399998666664,
            "velocity": 0.4881889763779528,
            "duration": 0.11994733333335716
        },
        {
            "name": "D#3",
            "midi": 51,
            "time": 364.51994599999733,
            "velocity": 0.48031496062992124,
            "duration": 0.08996050000001787
        },
        {
            "name": "A2",
            "midi": 45,
            "time": 364.6398933333307,
            "velocity": 0.4566929133858268,
            "duration": 0.08996050000001787
        },
        {
            "name": "G#2",
            "midi": 44,
            "time": 364.75984066666405,
            "velocity": 0.4094488188976378,
            "duration": 0.08996050000001787
        },
        {
            "name": "E4",
            "midi": 64,
            "time": 368.8380499999974,
            "velocity": 0.3228346456692913,
            "duration": 0.2698814999999968
        },
        {
            "name": "C#4",
            "midi": 61,
            "time": 369.1079314999974,
            "velocity": 0.3228346456692913,
            "duration": 0.08996050000001787
        },
        {
            "name": "C4",
            "midi": 60,
            "time": 369.1978919999974,
            "velocity": 0.3858267716535433,
            "duration": 0.35984200000001465
        },
        {
            "name": "C4",
            "midi": 60,
            "time": 369.5577339999974,
            "velocity": 0.33070866141732286,
            "duration": 0.35984200000001465
        },
        {
            "name": "G#4",
            "midi": 68,
            "time": 369.5577339999974,
            "velocity": 0.33070866141732286,
            "duration": 0.35984200000001465
        },
        {
            "name": "F#3",
            "midi": 54,
            "time": 369.5577339999974,
            "velocity": 0.2755905511811024,
            "duration": 0.35984200000001465
        },
        {
            "name": "C4",
            "midi": 60,
            "time": 369.91757599999744,
            "velocity": 0.3228346456692913,
            "duration": 0.35984200000001465
        },
        {
            "name": "F#3",
            "midi": 54,
            "time": 369.91757599999744,
            "velocity": 0.2677165354330709,
            "duration": 0.35984200000001465
        },
        {
            "name": "G#4",
            "midi": 68,
            "time": 369.91757599999744,
            "velocity": 0.3228346456692913,
            "duration": 0.35984200000001465
        },
        {
            "name": "F#3",
            "midi": 54,
            "time": 370.27741799999745,
            "velocity": 0.2677165354330709,
            "duration": 0.2698814999999968
        },
        {
            "name": "G#4",
            "midi": 68,
            "time": 370.27741799999745,
            "velocity": 0.3228346456692913,
            "duration": 0.2698814999999968
        },
        {
            "name": "C4",
            "midi": 60,
            "time": 370.27741799999745,
            "velocity": 0.3228346456692913,
            "duration": 0.2698814999999968
        },
        {
            "name": "E3",
            "midi": 52,
            "time": 370.54729949999745,
            "velocity": 0.25984251968503935,
            "duration": 0.044980249999980515
        },
        {
            "name": "C#4",
            "midi": 61,
            "time": 370.59227974999743,
            "velocity": 0.30708661417322836,
            "duration": 0.044980249999980515
        },
        {
            "name": "G#4",
            "midi": 68,
            "time": 370.6372599999974,
            "velocity": 0.3858267716535433,
            "duration": 1.079525999999987
        },
        {
            "name": "E5",
            "midi": 76,
            "time": 371.7167859999974,
            "velocity": 0.3700787401574803,
            "duration": 0.2698814999999968
        },
        {
            "name": "C#5",
            "midi": 73,
            "time": 371.9866674999974,
            "velocity": 0.3700787401574803,
            "duration": 0.08996050000001787
        },
        {
            "name": "C5",
            "midi": 72,
            "time": 372.0766279999974,
            "velocity": 0.4409448818897638,
            "duration": 0.35984200000001465
        },
        {
            "name": "F#4",
            "midi": 66,
            "time": 372.4364699999974,
            "velocity": 0.30708661417322836,
            "duration": 0.35984200000001465
        },
        {
            "name": "C5",
            "midi": 72,
            "time": 372.4364699999974,
            "velocity": 0.3700787401574803,
            "duration": 0.35984200000001465
        },
        {
            "name": "G#5",
            "midi": 80,
            "time": 372.4364699999974,
            "velocity": 0.3700787401574803,
            "duration": 0.35984200000001465
        },
        {
            "name": "G#5",
            "midi": 80,
            "time": 372.79631199999744,
            "velocity": 0.3700787401574803,
            "duration": 0.35984200000001465
        },
        {
            "name": "C5",
            "midi": 72,
            "time": 372.79631199999744,
            "velocity": 0.3700787401574803,
            "duration": 0.35984200000001465
        },
        {
            "name": "F#4",
            "midi": 66,
            "time": 372.79631199999744,
            "velocity": 0.30708661417322836,
            "duration": 0.35984200000001465
        },
        {
            "name": "C5",
            "midi": 72,
            "time": 373.15615399999746,
            "velocity": 0.3700787401574803,
            "duration": 0.2698814999999968
        },
        {
            "name": "F#4",
            "midi": 66,
            "time": 373.15615399999746,
            "velocity": 0.30708661417322836,
            "duration": 0.2698814999999968
        },
        {
            "name": "G#5",
            "midi": 80,
            "time": 373.15615399999746,
            "velocity": 0.3700787401574803,
            "duration": 0.2698814999999968
        },
        {
            "name": "E4",
            "midi": 64,
            "time": 373.42603549999745,
            "velocity": 0.3228346456692913,
            "duration": 0.044980249999980515
        },
        {
            "name": "C#5",
            "midi": 73,
            "time": 373.47101574999743,
            "velocity": 0.36220472440944884,
            "duration": 0.044980249999980515
        },
        {
            "name": "G#5",
            "midi": 80,
            "time": 373.5159959999974,
            "velocity": 0.4566929133858268,
            "duration": 0.6297235000000114
        },
        {
            "name": "F#4",
            "midi": 66,
            "time": 374.1457194999974,
            "velocity": 0.3858267716535433,
            "duration": 0.044980249999980515
        },
        {
            "name": "C5",
            "midi": 72,
            "time": 374.1906997499974,
            "velocity": 0.41732283464566927,
            "duration": 0.044980249999980515
        },
        {
            "name": "G#5",
            "midi": 80,
            "time": 374.2356799999974,
            "velocity": 0.49606299212598426,
            "duration": 0.6297235000000114
        },
        {
            "name": "E4",
            "midi": 64,
            "time": 374.8654034999974,
            "velocity": 0.4409448818897638,
            "duration": 0.044980249999980515
        },
        {
            "name": "C#5",
            "midi": 73,
            "time": 374.9103837499974,
            "velocity": 0.4881889763779528,
            "duration": 0.044980249999980515
        },
        {
            "name": "G#5",
            "midi": 80,
            "time": 374.95536399999736,
            "velocity": 0.5511811023622047,
            "duration": 0.6297235000000114
        },
        {
            "name": "F#4",
            "midi": 66,
            "time": 375.58508749999737,
            "velocity": 0.47244094488188976,
            "duration": 0.044980249999980515
        },
        {
            "name": "C5",
            "midi": 72,
            "time": 375.63006774999735,
            "velocity": 0.5354330708661418,
            "duration": 0.044980249999980515
        },
        {
            "name": "G#5",
            "midi": 80,
            "time": 375.67504799999733,
            "velocity": 0.6299212598425197,
            "duration": 0.6297235000000114
        },
        {
            "name": "E4",
            "midi": 64,
            "time": 376.30477149999734,
            "velocity": 0.5354330708661418,
            "duration": 0.044980249999980515
        },
        {
            "name": "C#5",
            "midi": 73,
            "time": 376.3497517499973,
            "velocity": 0.5354330708661418,
            "duration": 0.044980249999980515
        },
        {
            "name": "G#5",
            "midi": 80,
            "time": 376.3947319999973,
            "velocity": 0.5826771653543307,
            "duration": 0.1049539166666591
        },
        {
            "name": "E4",
            "midi": 64,
            "time": 376.4846924999973,
            "velocity": 0.5354330708661418,
            "duration": 0.10495391666660225
        },
        {
            "name": "G#4",
            "midi": 68,
            "time": 376.5746529999973,
            "velocity": 0.5590551181102362,
            "duration": 0.10495391666660225
        },
        {
            "name": "C#5",
            "midi": 73,
            "time": 376.66461349999724,
            "velocity": 0.5354330708661418,
            "duration": 0.10495391666660225
        },
        {
            "name": "E5",
            "midi": 76,
            "time": 376.7545739999972,
            "velocity": 0.5826771653543307,
            "duration": 0.10495391666660225
        },
        {
            "name": "G#4",
            "midi": 68,
            "time": 376.84453449999717,
            "velocity": 0.5433070866141733,
            "duration": 0.10495391666660225
        },
        {
            "name": "C#5",
            "midi": 73,
            "time": 376.9344949999971,
            "velocity": 0.5669291338582677,
            "duration": 0.10495391666660225
        },
        {
            "name": "E5",
            "midi": 76,
            "time": 377.0244554999971,
            "velocity": 0.5354330708661418,
            "duration": 0.10495391666660225
        },
        {
            "name": "G#5",
            "midi": 80,
            "time": 377.11441599999705,
            "velocity": 0.5826771653543307,
            "duration": 0.10495391666660225
        },
        {
            "name": "C#5",
            "midi": 73,
            "time": 377.204376499997,
            "velocity": 0.5354330708661418,
            "duration": 0.10495391666660225
        },
        {
            "name": "E5",
            "midi": 76,
            "time": 377.294336999997,
            "velocity": 0.5590551181102362,
            "duration": 0.10495391666660225
        },
        {
            "name": "G#5",
            "midi": 80,
            "time": 377.38429749999693,
            "velocity": 0.5433070866141733,
            "duration": 0.10495391666660225
        },
        {
            "name": "C#6",
            "midi": 85,
            "time": 377.4742579999969,
            "velocity": 0.5905511811023622,
            "duration": 0.10495391666660225
        },
        {
            "name": "E5",
            "midi": 76,
            "time": 377.56421849999685,
            "velocity": 0.5669291338582677,
            "duration": 0.10495391666660225
        },
        {
            "name": "G#5",
            "midi": 80,
            "time": 377.6541789999968,
            "velocity": 0.5826771653543307,
            "duration": 0.10495391666660225
        },
        {
            "name": "C#6",
            "midi": 85,
            "time": 377.7441394999968,
            "velocity": 0.5669291338582677,
            "duration": 0.10495391666660225
        },
        {
            "name": "E6",
            "midi": 88,
            "time": 377.83409999999674,
            "velocity": 0.6299212598425197,
            "duration": 0.10495391666660225
        },
        {
            "name": "C#6",
            "midi": 85,
            "time": 377.9240604999967,
            "velocity": 0.6299212598425197,
            "duration": 0.10495391666660225
        },
        {
            "name": "G#5",
            "midi": 80,
            "time": 378.01402099999666,
            "velocity": 0.6220472440944882,
            "duration": 0.10495391666660225
        },
        {
            "name": "E5",
            "midi": 76,
            "time": 378.1039814999966,
            "velocity": 0.5826771653543307,
            "duration": 0.10495391666660225
        },
        {
            "name": "C#6",
            "midi": 85,
            "time": 378.1939419999966,
            "velocity": 0.6377952755905512,
            "duration": 0.10495391666660225
        },
        {
            "name": "G#5",
            "midi": 80,
            "time": 378.28390249999654,
            "velocity": 0.6299212598425197,
            "duration": 0.10495391666660225
        },
        {
            "name": "E5",
            "midi": 76,
            "time": 378.3738629999965,
            "velocity": 0.6220472440944882,
            "duration": 0.10495391666660225
        },
        {
            "name": "C#5",
            "midi": 73,
            "time": 378.46382349999647,
            "velocity": 0.5748031496062992,
            "duration": 0.10495391666660225
        },
        {
            "name": "G#5",
            "midi": 80,
            "time": 378.5537839999964,
            "velocity": 0.6299212598425197,
            "duration": 0.10495391666660225
        },
        {
            "name": "E5",
            "midi": 76,
            "time": 378.6437444999964,
            "velocity": 0.6220472440944882,
            "duration": 0.10495391666660225
        },
        {
            "name": "C#5",
            "midi": 73,
            "time": 378.73370499999635,
            "velocity": 0.6141732283464567,
            "duration": 0.10495391666660225
        },
        {
            "name": "G#4",
            "midi": 68,
            "time": 378.8236654999963,
            "velocity": 0.5826771653543307,
            "duration": 0.10495391666660225
        },
        {
            "name": "E5",
            "midi": 76,
            "time": 378.91362599999627,
            "velocity": 0.6299212598425197,
            "duration": 0.10495391666660225
        },
        {
            "name": "C#5",
            "midi": 73,
            "time": 379.00358649999623,
            "velocity": 0.6299212598425197,
            "duration": 0.10495391666660225
        },
        {
            "name": "G#4",
            "midi": 68,
            "time": 379.0935469999962,
            "velocity": 0.6141732283464567,
            "duration": 0.10495391666660225
        },
        {
            "name": "E4",
            "midi": 64,
            "time": 379.18350749999615,
            "velocity": 0.5748031496062992,
            "duration": 0.10495391666660225
        },
        {
            "name": "C#5",
            "midi": 73,
            "time": 379.2734679999961,
            "velocity": 0.6141732283464567,
            "duration": 0.10495391666660225
        },
        {
            "name": "G#4",
            "midi": 68,
            "time": 379.3634284999961,
            "velocity": 0.5905511811023622,
            "duration": 0.10495391666660225
        },
        {
            "name": "E4",
            "midi": 64,
            "time": 379.45338899999604,
            "velocity": 0.5826771653543307,
            "duration": 0.10495391666660225
        },
        {
            "name": "C#4",
            "midi": 61,
            "time": 379.543349499996,
            "velocity": 0.5433070866141733,
            "duration": 0.10495391666660225
        },
        {
            "name": "G#4",
            "midi": 68,
            "time": 379.63330999999596,
            "velocity": 0.6141732283464567,
            "duration": 0.10495391666660225
        },
        {
            "name": "E4",
            "midi": 64,
            "time": 379.7232704999959,
            "velocity": 0.5905511811023622,
            "duration": 0.10495391666660225
        },
        {
            "name": "C#4",
            "midi": 61,
            "time": 379.8132309999959,
            "velocity": 0.5826771653543307,
            "duration": 0.10495391666660225
        },
        {
            "name": "G#3",
            "midi": 56,
            "time": 379.90319149999584,
            "velocity": 0.5590551181102362,
            "duration": 0.10495391666660225
        },
        {
            "name": "E4",
            "midi": 64,
            "time": 379.9931519999958,
            "velocity": 0.6141732283464567,
            "duration": 0.10495391666660225
        },
        {
            "name": "C#4",
            "midi": 61,
            "time": 380.08311249999576,
            "velocity": 0.5905511811023622,
            "duration": 0.10495391666660225
        },
        {
            "name": "G#3",
            "midi": 56,
            "time": 380.1730729999957,
            "velocity": 0.5826771653543307,
            "duration": 0.10495391666660225
        },
        {
            "name": "E3",
            "midi": 52,
            "time": 380.2630334999957,
            "velocity": 0.5590551181102362,
            "duration": 0.10495391666660225
        },
        {
            "name": "C#4",
            "midi": 61,
            "time": 380.35299399999565,
            "velocity": 0.6141732283464567,
            "duration": 0.10495391666660225
        },
        {
            "name": "G#3",
            "midi": 56,
            "time": 380.4429544999956,
            "velocity": 0.5905511811023622,
            "duration": 0.10495391666660225
        },
        {
            "name": "E3",
            "midi": 52,
            "time": 380.53291499999557,
            "velocity": 0.5826771653543307,
            "duration": 0.10495391666660225
        },
        {
            "name": "G#3",
            "midi": 56,
            "time": 380.62287549999553,
            "velocity": 0.5590551181102362,
            "duration": 0.10495391666660225
        },
        {
            "name": "C#3",
            "midi": 49,
            "time": 380.7128359999955,
            "velocity": 0.5826771653543307,
            "duration": 0.3598419999999578
        },
        {
            "name": "C#5",
            "midi": 73,
            "time": 381.43251999999546,
            "velocity": 0.6535433070866141,
            "duration": 0.2698814999999968
        },
        {
            "name": "G#5",
            "midi": 80,
            "time": 381.43251999999546,
            "velocity": 0.7716535433070866,
            "duration": 0.2698814999999968
        },
        {
            "name": "E5",
            "midi": 76,
            "time": 381.43251999999546,
            "velocity": 0.6535433070866141,
            "duration": 0.2698814999999968
        },
        {
            "name": "C#6",
            "midi": 85,
            "time": 381.43251999999546,
            "velocity": 0.7716535433070866,
            "duration": 0.2698814999999968
        },
        {
            "name": "C#4",
            "midi": 61,
            "time": 382.15220399999544,
            "velocity": 0.6535433070866141,
            "duration": 0.2698814999999968
        },
        {
            "name": "E4",
            "midi": 64,
            "time": 382.15220399999544,
            "velocity": 0.6535433070866141,
            "duration": 0.2698814999999968
        },
        {
            "name": "G#4",
            "midi": 68,
            "time": 382.15220399999544,
            "velocity": 0.7637795275590551,
            "duration": 0.2698814999999968
        },
        {
            "name": "C#5",
            "midi": 73,
            "time": 382.15220399999544,
            "velocity": 0.7637795275590551,
            "duration": 0.2698814999999968
        }
        ],
        "controlChanges": {
        "7": [
            {
            "number": 7,
            "time": 0,
            "value": 0.7874015748031497
            }
        ],
        "10": [
            {
            "number": 10,
            "time": 0,
            "value": 0.5039370078740157
            }
        ],
        "91": [
            {
            "number": 91,
            "time": 0,
            "value": 1
            },
            {
            "number": 91,
            "time": 0,
            "value": 1
            },
            {
            "number": 91,
            "time": 184.2391039999974,
            "value": 1
            },
            {
            "number": 91,
            "time": 237.49571999999435,
            "value": 1
            },
            {
            "number": 91,
            "time": 319.53969599999596,
            "value": 1
            }
        ]
        },
        "id": 1,
        "name": "Piano right",
        "instrumentNumber": 0,
        "instrument": "acoustic grand piano",
        "instrumentFamily": "piano",
        "channelNumber": 0,
        "isPercussion": false
    },
    {
        "startTime": 0.0007496708333333334,
        "duration": 382.4220854999928,
        "length": 3072,
        "notes": [
        {
            "name": "C#2",
            "midi": 37,
            "time": 0.0007496708333333334,
            "velocity": 0.33070866141732286,
            "duration": 0.0899605
        },
        {
            "name": "G#2",
            "midi": 44,
            "time": 0.179921,
            "velocity": 0.30708661417322836,
            "duration": 0.0899605
        },
        {
            "name": "C#2",
            "midi": 37,
            "time": 0.359842,
            "velocity": 0.33858267716535434,
            "duration": 0.0899605
        },
        {
            "name": "G#2",
            "midi": 44,
            "time": 0.539763,
            "velocity": 0.30708661417322836,
            "duration": 0.0899605
        },
        {
            "name": "C#2",
            "midi": 37,
            "time": 0.719684,
            "velocity": 0.3228346456692913,
            "duration": 0.0899605
        },
        {
            "name": "G#2",
            "midi": 44,
            "time": 0.899605,
            "velocity": 0.30708661417322836,
            "duration": 0.0899605
        },
        {
            "name": "C#2",
            "midi": 37,
            "time": 1.079526,
            "velocity": 0.33070866141732286,
            "duration": 0.08996050000000011
        },
        {
            "name": "G#2",
            "midi": 44,
            "time": 1.2594470000000002,
            "velocity": 0.30708661417322836,
            "duration": 0.08996050000000011
        },
        {
            "name": "C#2",
            "midi": 37,
            "time": 1.4393680000000004,
            "velocity": 0.33858267716535434,
            "duration": 0.08996050000000011
        },
        {
            "name": "G#2",
            "midi": 44,
            "time": 1.6192890000000006,
            "velocity": 0.3228346456692913,
            "duration": 0.08996050000000011
        },
        {
            "name": "C#2",
            "midi": 37,
            "time": 1.7992100000000009,
            "velocity": 0.33858267716535434,
            "duration": 0.08996050000000011
        },
        {
            "name": "G#2",
            "midi": 44,
            "time": 1.979131000000001,
            "velocity": 0.31496062992125984,
            "duration": 0.08996050000000011
        },
        {
            "name": "C#2",
            "midi": 37,
            "time": 2.1590520000000013,
            "velocity": 0.3228346456692913,
            "duration": 0.08996050000000011
        },
        {
            "name": "G#2",
            "midi": 44,
            "time": 2.3389730000000015,
            "velocity": 0.30708661417322836,
            "duration": 0.08996050000000011
        },
        {
            "name": "C#3",
            "midi": 49,
            "time": 2.5188940000000017,
            "velocity": 0.6141732283464567,
            "duration": 0.08996050000000011
        },
        {
            "name": "C#2",
            "midi": 37,
            "time": 2.5188940000000017,
            "velocity": 0.5118110236220472,
            "duration": 0.08996050000000011
        },
        {
            "name": "G#2",
            "midi": 44,
            "time": 2.698815000000002,
            "velocity": 0.5275590551181102,
            "duration": 0.08996050000000011
        },
        {
            "name": "C2",
            "midi": 36,
            "time": 2.878736000000002,
            "velocity": 0.3228346456692913,
            "duration": 0.08996050000000011
        },
        {
            "name": "G#2",
            "midi": 44,
            "time": 3.0586570000000024,
            "velocity": 0.29133858267716534,
            "duration": 0.08996050000000011
        },
        {
            "name": "C2",
            "midi": 36,
            "time": 3.2385780000000026,
            "velocity": 0.3228346456692913,
            "duration": 0.08996050000000011
        },
        {
            "name": "G#2",
            "midi": 44,
            "time": 3.418499000000003,
            "velocity": 0.29133858267716534,
            "duration": 0.08996050000000011
        },
        {
            "name": "C2",
            "midi": 36,
            "time": 3.598420000000003,
            "velocity": 0.31496062992125984,
            "duration": 0.08996050000000011
        },
        {
            "name": "G#2",
            "midi": 44,
            "time": 3.7783410000000033,
            "velocity": 0.29133858267716534,
            "duration": 0.08996050000000011
        },
        {
            "name": "C2",
            "midi": 36,
            "time": 3.9582620000000035,
            "velocity": 0.31496062992125984,
            "duration": 0.08996049999999967
        },
        {
            "name": "G#2",
            "midi": 44,
            "time": 4.138183000000003,
            "velocity": 0.2992125984251969,
            "duration": 0.08996050000000011
        },
        {
            "name": "C2",
            "midi": 36,
            "time": 4.3181040000000035,
            "velocity": 0.31496062992125984,
            "duration": 0.08996050000000011
        },
        {
            "name": "G#2",
            "midi": 44,
            "time": 4.498025000000004,
            "velocity": 0.28346456692913385,
            "duration": 0.08996050000000011
        },
        {
            "name": "C2",
            "midi": 36,
            "time": 4.677946000000004,
            "velocity": 0.31496062992125984,
            "duration": 0.08996050000000011
        },
        {
            "name": "G#2",
            "midi": 44,
            "time": 4.857867000000004,
            "velocity": 0.29133858267716534,
            "duration": 0.08996050000000011
        },
        {
            "name": "C2",
            "midi": 36,
            "time": 5.037788000000004,
            "velocity": 0.31496062992125984,
            "duration": 0.08996050000000011
        },
        {
            "name": "G#2",
            "midi": 44,
            "time": 5.217709000000005,
            "velocity": 0.29133858267716534,
            "duration": 0.08996050000000011
        },
        {
            "name": "C3",
            "midi": 48,
            "time": 5.397630000000005,
            "velocity": 0.6141732283464567,
            "duration": 0.08996050000000011
        },
        {
            "name": "C2",
            "midi": 36,
            "time": 5.397630000000005,
            "velocity": 0.5118110236220472,
            "duration": 0.08996050000000011
        },
        {
            "name": "G#2",
            "midi": 44,
            "time": 5.577551000000005,
            "velocity": 0.5118110236220472,
            "duration": 0.08996050000000011
        },
        {
            "name": "B1",
            "midi": 35,
            "time": 5.757472000000005,
            "velocity": 0.4330708661417323,
            "duration": 0.08996050000000011
        },
        {
            "name": "G#2",
            "midi": 44,
            "time": 5.9373930000000055,
            "velocity": 0.3937007874015748,
            "duration": 0.08996050000000011
        },
        {
            "name": "B1",
            "midi": 35,
            "time": 6.117314000000006,
            "velocity": 0.4409448818897638,
            "duration": 0.08996050000000011
        },
        {
            "name": "G#2",
            "midi": 44,
            "time": 6.297235000000006,
            "velocity": 0.4015748031496063,
            "duration": 0.08996050000000011
        },
        {
            "name": "B1",
            "midi": 35,
            "time": 6.477156000000006,
            "velocity": 0.4409448818897638,
            "duration": 0.08996050000000011
        },
        {
            "name": "G#2",
            "midi": 44,
            "time": 6.657077000000006,
            "velocity": 0.4094488188976378,
            "duration": 0.08996050000000011
        },
        {
            "name": "B1",
            "midi": 35,
            "time": 6.836998000000007,
            "velocity": 0.4409448818897638,
            "duration": 0.08996050000000011
        },
        {
            "name": "G#2",
            "midi": 44,
            "time": 7.016919000000007,
            "velocity": 0.4094488188976378,
            "duration": 0.08996050000000011
        },
        {
            "name": "B1",
            "midi": 35,
            "time": 7.196840000000007,
            "velocity": 0.4409448818897638,
            "duration": 0.08996050000000011
        },
        {
            "name": "G#2",
            "midi": 44,
            "time": 7.376761000000007,
            "velocity": 0.4094488188976378,
            "duration": 0.08996050000000011
        },
        {
            "name": "B1",
            "midi": 35,
            "time": 7.5566820000000074,
            "velocity": 0.4409448818897638,
            "duration": 0.08996050000000011
        },
        {
            "name": "G#2",
            "midi": 44,
            "time": 7.736603000000008,
            "velocity": 0.4015748031496063,
            "duration": 0.08996050000000011
        },
        {
            "name": "B1",
            "midi": 35,
            "time": 7.916524000000008,
            "velocity": 0.4409448818897638,
            "duration": 0.08996050000000011
        },
        {
            "name": "G#2",
            "midi": 44,
            "time": 8.096445000000008,
            "velocity": 0.4015748031496063,
            "duration": 0.08996050000000011
        },
        {
            "name": "B1",
            "midi": 35,
            "time": 8.276366000000008,
            "velocity": 0.6456692913385826,
            "duration": 0.08996050000000011
        },
        {
            "name": "B2",
            "midi": 47,
            "time": 8.276366000000008,
            "velocity": 0.6456692913385826,
            "duration": 0.08996050000000011
        },
        {
            "name": "G#2",
            "midi": 44,
            "time": 8.456287000000009,
            "velocity": 0.5748031496062992,
            "duration": 0.08996050000000011
        },
        {
            "name": "A1",
            "midi": 33,
            "time": 8.636208000000009,
            "velocity": 0.3937007874015748,
            "duration": 0.08996050000000011
        },
        {
            "name": "A2",
            "midi": 45,
            "time": 8.816129000000009,
            "velocity": 0.4015748031496063,
            "duration": 0.08996050000000011
        },
        {
            "name": "A1",
            "midi": 33,
            "time": 8.99605000000001,
            "velocity": 0.44881889763779526,
            "duration": 0.08996050000000011
        },
        {
            "name": "A2",
            "midi": 45,
            "time": 9.17597100000001,
            "velocity": 0.47244094488188976,
            "duration": 0.08996050000000011
        },
        {
            "name": "A1",
            "midi": 33,
            "time": 9.35589200000001,
            "velocity": 0.44881889763779526,
            "duration": 0.08996050000000011
        },
        {
            "name": "A2",
            "midi": 45,
            "time": 9.53581300000001,
            "velocity": 0.44881889763779526,
            "duration": 0.08996050000000011
        },
        {
            "name": "A1",
            "midi": 33,
            "time": 9.71573400000001,
            "velocity": 0.6062992125984252,
            "duration": 0.08996050000000011
        },
        {
            "name": "A2",
            "midi": 45,
            "time": 9.89565500000001,
            "velocity": 0.6062992125984252,
            "duration": 0.08996050000000011
        },
        {
            "name": "A1",
            "midi": 33,
            "time": 10.07557600000001,
            "velocity": 0.5275590551181102,
            "duration": 0.08996050000000011
        },
        {
            "name": "A2",
            "midi": 45,
            "time": 10.25549700000001,
            "velocity": 0.49606299212598426,
            "duration": 0.08996050000000011
        },
        {
            "name": "A1",
            "midi": 33,
            "time": 10.435418000000011,
            "velocity": 0.5275590551181102,
            "duration": 0.08996050000000011
        },
        {
            "name": "A2",
            "midi": 45,
            "time": 10.615339000000011,
            "velocity": 0.49606299212598426,
            "duration": 0.08996050000000011
        },
        {
            "name": "A1",
            "midi": 33,
            "time": 10.795260000000011,
            "velocity": 0.5275590551181102,
            "duration": 0.08996050000000011
        },
        {
            "name": "A2",
            "midi": 45,
            "time": 10.975181000000012,
            "velocity": 0.49606299212598426,
            "duration": 0.08996050000000011
        },
        {
            "name": "A1",
            "midi": 33,
            "time": 11.155102000000012,
            "velocity": 0.6535433070866141,
            "duration": 0.08996050000000011
        },
        {
            "name": "A2",
            "midi": 45,
            "time": 11.335023000000012,
            "velocity": 0.6535433070866141,
            "duration": 0.08996050000000011
        },
        {
            "name": "G#2",
            "midi": 44,
            "time": 11.514944000000012,
            "velocity": 0.6062992125984252,
            "duration": 0.17992100000000022
        },
        {
            "name": "G#1",
            "midi": 32,
            "time": 11.514944000000012,
            "velocity": 0.5039370078740157,
            "duration": 0.17992100000000022
        },
        {
            "name": "C4",
            "midi": 60,
            "time": 11.694865000000013,
            "velocity": 0.4881889763779528,
            "duration": 0.17992100000000022
        },
        {
            "name": "G#3",
            "midi": 56,
            "time": 11.694865000000013,
            "velocity": 0.4881889763779528,
            "duration": 2.6988150000000033
        },
        {
            "name": "C4",
            "midi": 60,
            "time": 11.874786000000013,
            "velocity": 0.4881889763779528,
            "duration": 0.17992100000000022
        },
        {
            "name": "C#4",
            "midi": 61,
            "time": 12.054707000000013,
            "velocity": 0.4881889763779528,
            "duration": 0.17992100000000022
        },
        {
            "name": "D#4",
            "midi": 63,
            "time": 12.234628000000013,
            "velocity": 0.5039370078740157,
            "duration": 0.17992100000000022
        },
        {
            "name": "E4",
            "midi": 64,
            "time": 12.414549000000013,
            "velocity": 0.5196850393700787,
            "duration": 0.17992100000000022
        },
        {
            "name": "F#4",
            "midi": 66,
            "time": 12.594470000000014,
            "velocity": 0.5275590551181102,
            "duration": 0.17992100000000022
        },
        {
            "name": "D#4",
            "midi": 63,
            "time": 12.774391000000014,
            "velocity": 0.5354330708661418,
            "duration": 0.17992100000000022
        },
        {
            "name": "F#4",
            "midi": 66,
            "time": 12.954312000000014,
            "velocity": 0.5433070866141733,
            "duration": 0.17992100000000022
        },
        {
            "name": "E4",
            "midi": 64,
            "time": 13.134233000000014,
            "velocity": 0.5590551181102362,
            "duration": 0.17992100000000022
        },
        {
            "name": "A4",
            "midi": 69,
            "time": 13.314154000000014,
            "velocity": 0.5669291338582677,
            "duration": 0.17992100000000022
        },
        {
            "name": "G#4",
            "midi": 68,
            "time": 13.494075000000015,
            "velocity": 0.5590551181102362,
            "duration": 0.17992100000000022
        },
        {
            "name": "F#4",
            "midi": 66,
            "time": 13.673996000000015,
            "velocity": 0.5433070866141733,
            "duration": 0.17992100000000022
        },
        {
            "name": "E4",
            "midi": 64,
            "time": 13.853917000000015,
            "velocity": 0.5354330708661418,
            "duration": 0.17992100000000022
        },
        {
            "name": "D#4",
            "midi": 63,
            "time": 14.033838000000015,
            "velocity": 0.5275590551181102,
            "duration": 0.17992100000000022
        },
        {
            "name": "C#4",
            "midi": 61,
            "time": 14.213759000000016,
            "velocity": 0.5196850393700787,
            "duration": 0.17992100000000022
        },
        {
            "name": "C4",
            "midi": 60,
            "time": 14.393680000000016,
            "velocity": 0.5039370078740157,
            "duration": 0.17992100000000022
        },
        {
            "name": "G#3",
            "midi": 56,
            "time": 14.393680000000016,
            "velocity": 0.5039370078740157,
            "duration": 2.8787360000000017
        },
        {
            "name": "C4",
            "midi": 60,
            "time": 14.573601000000016,
            "velocity": 0.49606299212598426,
            "duration": 0.17992100000000022
        },
        {
            "name": "C4",
            "midi": 60,
            "time": 14.753522000000016,
            "velocity": 0.4881889763779528,
            "duration": 0.17992100000000022
        },
        {
            "name": "C#4",
            "midi": 61,
            "time": 14.933443000000016,
            "velocity": 0.47244094488188976,
            "duration": 0.17992100000000022
        },
        {
            "name": "D#4",
            "midi": 63,
            "time": 15.113364000000017,
            "velocity": 0.4881889763779528,
            "duration": 0.17992100000000022
        },
        {
            "name": "E4",
            "midi": 64,
            "time": 15.293285000000017,
            "velocity": 0.4881889763779528,
            "duration": 0.17992100000000022
        },
        {
            "name": "F#4",
            "midi": 66,
            "time": 15.473206000000017,
            "velocity": 0.5118110236220472,
            "duration": 0.17992100000000022
        },
        {
            "name": "D#4",
            "midi": 63,
            "time": 15.653127000000017,
            "velocity": 0.5275590551181102,
            "duration": 0.17992100000000022
        },
        {
            "name": "F#4",
            "midi": 66,
            "time": 15.833048000000018,
            "velocity": 0.5354330708661418,
            "duration": 0.17992099999999844
        },
        {
            "name": "E4",
            "midi": 64,
            "time": 16.012969000000016,
            "velocity": 0.5354330708661418,
            "duration": 0.17992100000000022
        },
        {
            "name": "A4",
            "midi": 69,
            "time": 16.192890000000016,
            "velocity": 0.5354330708661418,
            "duration": 0.17992100000000022
        },
        {
            "name": "G#4",
            "midi": 68,
            "time": 16.372811000000016,
            "velocity": 0.5275590551181102,
            "duration": 0.17992100000000022
        },
        {
            "name": "F#4",
            "midi": 66,
            "time": 16.552732000000017,
            "velocity": 0.5275590551181102,
            "duration": 0.17992100000000022
        },
        {
            "name": "E4",
            "midi": 64,
            "time": 16.732653000000017,
            "velocity": 0.5275590551181102,
            "duration": 0.17992100000000022
        },
        {
            "name": "D#4",
            "midi": 63,
            "time": 16.912574000000017,
            "velocity": 0.5275590551181102,
            "duration": 0.17992100000000022
        },
        {
            "name": "C#4",
            "midi": 61,
            "time": 17.092495000000017,
            "velocity": 0.5275590551181102,
            "duration": 0.17992100000000022
        },
        {
            "name": "G#3",
            "midi": 56,
            "time": 17.272416000000018,
            "velocity": 0.47244094488188976,
            "duration": 0.08996050000000011
        },
        {
            "name": "C4",
            "midi": 60,
            "time": 17.272416000000018,
            "velocity": 0.5590551181102362,
            "duration": 0.08996050000000011
        },
        {
            "name": "C#4",
            "midi": 61,
            "time": 17.452337000000018,
            "velocity": 0.4881889763779528,
            "duration": 0.08996050000000011
        },
        {
            "name": "G#3",
            "midi": 56,
            "time": 17.452337000000018,
            "velocity": 0.4094488188976378,
            "duration": 0.08996050000000011
        },
        {
            "name": "G#3",
            "midi": 56,
            "time": 17.632258000000018,
            "velocity": 0.4409448818897638,
            "duration": 0.08996050000000011
        },
        {
            "name": "C4",
            "midi": 60,
            "time": 17.632258000000018,
            "velocity": 0.5275590551181102,
            "duration": 0.08996050000000011
        },
        {
            "name": "C#4",
            "midi": 61,
            "time": 17.812179000000018,
            "velocity": 0.4881889763779528,
            "duration": 0.08996050000000011
        },
        {
            "name": "G#3",
            "midi": 56,
            "time": 17.812179000000018,
            "velocity": 0.4094488188976378,
            "duration": 0.08996050000000011
        },
        {
            "name": "G#3",
            "midi": 56,
            "time": 17.99210000000002,
            "velocity": 0.47244094488188976,
            "duration": 0.08996050000000011
        },
        {
            "name": "C4",
            "midi": 60,
            "time": 17.99210000000002,
            "velocity": 0.5590551181102362,
            "duration": 0.08996050000000011
        },
        {
            "name": "G#3",
            "midi": 56,
            "time": 18.17202100000002,
            "velocity": 0.4094488188976378,
            "duration": 0.08996050000000011
        },
        {
            "name": "C#4",
            "midi": 61,
            "time": 18.17202100000002,
            "velocity": 0.4881889763779528,
            "duration": 0.08996050000000011
        },
        {
            "name": "G#3",
            "midi": 56,
            "time": 18.35194200000002,
            "velocity": 0.4409448818897638,
            "duration": 0.08996050000000011
        },
        {
            "name": "C4",
            "midi": 60,
            "time": 18.35194200000002,
            "velocity": 0.5275590551181102,
            "duration": 0.08996050000000011
        },
        {
            "name": "C#4",
            "midi": 61,
            "time": 18.53186300000002,
            "velocity": 0.48031496062992124,
            "duration": 0.08996050000000011
        },
        {
            "name": "G#3",
            "midi": 56,
            "time": 18.53186300000002,
            "velocity": 0.4015748031496063,
            "duration": 0.08996050000000011
        },
        {
            "name": "G#3",
            "midi": 56,
            "time": 18.71178400000002,
            "velocity": 0.47244094488188976,
            "duration": 0.17992100000000022
        },
        {
            "name": "C4",
            "midi": 60,
            "time": 18.71178400000002,
            "velocity": 0.5590551181102362,
            "duration": 0.17992100000000022
        },
        {
            "name": "G#1",
            "midi": 32,
            "time": 19.07162600000002,
            "velocity": 0.6062992125984252,
            "duration": 1.0795260000000013
        },
        {
            "name": "G#2",
            "midi": 44,
            "time": 19.07162600000002,
            "velocity": 0.7086614173228346,
            "duration": 1.0795260000000013
        },
        {
            "name": "C#2",
            "midi": 37,
            "time": 20.15115200000002,
            "velocity": 0.33858267716535434,
            "duration": 0.08996050000000011
        },
        {
            "name": "G#2",
            "midi": 44,
            "time": 20.33107300000002,
            "velocity": 0.30708661417322836,
            "duration": 0.08996050000000011
        },
        {
            "name": "C#2",
            "midi": 37,
            "time": 20.51099400000002,
            "velocity": 0.33858267716535434,
            "duration": 0.08996050000000011
        },
        {
            "name": "G#2",
            "midi": 44,
            "time": 20.69091500000002,
            "velocity": 0.30708661417322836,
            "duration": 0.08996050000000011
        },
        {
            "name": "C#2",
            "midi": 37,
            "time": 20.870836000000022,
            "velocity": 0.33858267716535434,
            "duration": 0.08996050000000011
        },
        {
            "name": "G#2",
            "midi": 44,
            "time": 21.050757000000022,
            "velocity": 0.30708661417322836,
            "duration": 0.08996050000000011
        },
        {
            "name": "C#2",
            "midi": 37,
            "time": 21.230678000000022,
            "velocity": 0.33858267716535434,
            "duration": 0.08996050000000011
        },
        {
            "name": "G#2",
            "midi": 44,
            "time": 21.410599000000023,
            "velocity": 0.30708661417322836,
            "duration": 0.08996050000000011
        },
        {
            "name": "C#2",
            "midi": 37,
            "time": 21.590520000000023,
            "velocity": 0.33858267716535434,
            "duration": 0.08996050000000011
        },
        {
            "name": "G#2",
            "midi": 44,
            "time": 21.770441000000023,
            "velocity": 0.30708661417322836,
            "duration": 0.08996050000000011
        },
        {
            "name": "C#2",
            "midi": 37,
            "time": 21.950362000000023,
            "velocity": 0.33858267716535434,
            "duration": 0.08996050000000011
        },
        {
            "name": "G#2",
            "midi": 44,
            "time": 22.130283000000023,
            "velocity": 0.30708661417322836,
            "duration": 0.08996050000000011
        },
        {
            "name": "C#2",
            "midi": 37,
            "time": 22.310204000000024,
            "velocity": 0.33858267716535434,
            "duration": 0.08996050000000011
        },
        {
            "name": "G#2",
            "midi": 44,
            "time": 22.490125000000024,
            "velocity": 0.30708661417322836,
            "duration": 0.08996050000000011
        },
        {
            "name": "C#2",
            "midi": 37,
            "time": 22.670046000000024,
            "velocity": 0.5748031496062992,
            "duration": 0.08996050000000011
        },
        {
            "name": "C#3",
            "midi": 49,
            "time": 22.670046000000024,
            "velocity": 0.6850393700787402,
            "duration": 0.08996050000000011
        },
        {
            "name": "G#2",
            "midi": 44,
            "time": 22.849967000000024,
            "velocity": 0.5826771653543307,
            "duration": 0.08996050000000011
        },
        {
            "name": "A#1",
            "midi": 34,
            "time": 23.029888000000025,
            "velocity": 0.31496062992125984,
            "duration": 0.08996050000000011
        },
        {
            "name": "C#3",
            "midi": 49,
            "time": 23.209809000000025,
            "velocity": 0.28346456692913385,
            "duration": 0.08996050000000011
        },
        {
            "name": "A#2",
            "midi": 46,
            "time": 23.389730000000025,
            "velocity": 0.31496062992125984,
            "duration": 0.08996050000000011
        },
        {
            "name": "C#3",
            "midi": 49,
            "time": 23.569651000000025,
            "velocity": 0.29133858267716534,
            "duration": 0.08996050000000011
        },
        {
            "name": "A#2",
            "midi": 46,
            "time": 23.749572000000025,
            "velocity": 0.31496062992125984,
            "duration": 0.08996050000000011
        },
        {
            "name": "C#3",
            "midi": 49,
            "time": 23.929493000000026,
            "velocity": 0.29133858267716534,
            "duration": 0.08996050000000011
        },
        {
            "name": "A#2",
            "midi": 46,
            "time": 24.109414000000026,
            "velocity": 0.31496062992125984,
            "duration": 0.08996050000000011
        },
        {
            "name": "C#3",
            "midi": 49,
            "time": 24.289335000000026,
            "velocity": 0.29133858267716534,
            "duration": 0.08996050000000011
        },
        {
            "name": "A#2",
            "midi": 46,
            "time": 24.469256000000026,
            "velocity": 0.31496062992125984,
            "duration": 0.08996050000000011
        },
        {
            "name": "C#3",
            "midi": 49,
            "time": 24.649177000000027,
            "velocity": 0.29133858267716534,
            "duration": 0.08996050000000011
        },
        {
            "name": "A#2",
            "midi": 46,
            "time": 24.829098000000027,
            "velocity": 0.31496062992125984,
            "duration": 0.08996050000000011
        },
        {
            "name": "C#3",
            "midi": 49,
            "time": 25.009019000000027,
            "velocity": 0.28346456692913385,
            "duration": 0.08996050000000011
        },
        {
            "name": "A#2",
            "midi": 46,
            "time": 25.188940000000027,
            "velocity": 0.31496062992125984,
            "duration": 0.08996050000000011
        },
        {
            "name": "C#3",
            "midi": 49,
            "time": 25.368861000000027,
            "velocity": 0.29133858267716534,
            "duration": 0.08996050000000011
        },
        {
            "name": "A#2",
            "midi": 46,
            "time": 25.548782000000028,
            "velocity": 0.6850393700787402,
            "duration": 0.08996050000000011
        },
        {
            "name": "A#1",
            "midi": 34,
            "time": 25.548782000000028,
            "velocity": 0.5748031496062992,
            "duration": 0.08996050000000011
        },
        {
            "name": "C#3",
            "midi": 49,
            "time": 25.728703000000028,
            "velocity": 0.5669291338582677,
            "duration": 0.08996050000000011
        },
        {
            "name": "G1",
            "midi": 31,
            "time": 25.908624000000028,
            "velocity": 0.30708661417322836,
            "duration": 0.08996050000000011
        },
        {
            "name": "D#3",
            "midi": 51,
            "time": 26.08854500000003,
            "velocity": 0.28346456692913385,
            "duration": 0.08996050000000011
        },
        {
            "name": "G2",
            "midi": 43,
            "time": 26.26846600000003,
            "velocity": 0.31496062992125984,
            "duration": 0.08996050000000011
        },
        {
            "name": "D#3",
            "midi": 51,
            "time": 26.44838700000003,
            "velocity": 0.30708661417322836,
            "duration": 0.08996050000000011
        },
        {
            "name": "G2",
            "midi": 43,
            "time": 26.62830800000003,
            "velocity": 0.33858267716535434,
            "duration": 0.08996050000000011
        },
        {
            "name": "D#3",
            "midi": 51,
            "time": 26.80822900000003,
            "velocity": 0.31496062992125984,
            "duration": 0.08996050000000011
        },
        {
            "name": "G2",
            "midi": 43,
            "time": 26.98815000000003,
            "velocity": 0.3543307086614173,
            "duration": 0.08996050000000011
        },
        {
            "name": "D#3",
            "midi": 51,
            "time": 27.16807100000003,
            "velocity": 0.33858267716535434,
            "duration": 0.08996050000000011
        },
        {
            "name": "G2",
            "midi": 43,
            "time": 27.34799200000003,
            "velocity": 0.3700787401574803,
            "duration": 0.08996050000000011
        },
        {
            "name": "D#3",
            "midi": 51,
            "time": 27.52791300000003,
            "velocity": 0.3464566929133858,
            "duration": 0.08996050000000011
        },
        {
            "name": "G2",
            "midi": 43,
            "time": 27.70783400000003,
            "velocity": 0.3858267716535433,
            "duration": 0.08996050000000011
        },
        {
            "name": "D#3",
            "midi": 51,
            "time": 27.88775500000003,
            "velocity": 0.3543307086614173,
            "duration": 0.08996050000000011
        },
        {
            "name": "G2",
            "midi": 43,
            "time": 28.06767600000003,
            "velocity": 0.4015748031496063,
            "duration": 0.08996050000000011
        },
        {
            "name": "D#3",
            "midi": 51,
            "time": 28.24759700000003,
            "velocity": 0.3779527559055118,
            "duration": 0.08996050000000011
        },
        {
            "name": "G2",
            "midi": 43,
            "time": 28.42751800000003,
            "velocity": 0.3700787401574803,
            "duration": 0.08996050000000011
        },
        {
            "name": "D#3",
            "midi": 51,
            "time": 28.60743900000003,
            "velocity": 0.3543307086614173,
            "duration": 0.08996050000000011
        },
        {
            "name": "G#2",
            "midi": 44,
            "time": 28.78736000000003,
            "velocity": 0.25984251968503935,
            "duration": 0.1049539166666662
        },
        {
            "name": "D#3",
            "midi": 51,
            "time": 28.87732050000003,
            "velocity": 0.2047244094488189,
            "duration": 0.1049539166666662
        },
        {
            "name": "B2",
            "midi": 47,
            "time": 28.967281000000032,
            "velocity": 0.2204724409448819,
            "duration": 0.1049539166666662
        },
        {
            "name": "D#3",
            "midi": 51,
            "time": 29.057241500000032,
            "velocity": 0.1968503937007874,
            "duration": 0.1049539166666662
        },
        {
            "name": "G#2",
            "midi": 44,
            "time": 29.147202000000032,
            "velocity": 0.25984251968503935,
            "duration": 0.08921082916666734
        },
        {
            "name": "D#3",
            "midi": 51,
            "time": 29.237162500000032,
            "velocity": 0.1968503937007874,
            "duration": 0.08921082916666734
        },
        {
            "name": "B2",
            "midi": 47,
            "time": 29.327123000000032,
            "velocity": 0.2204724409448819,
            "duration": 0.08921082916666734
        },
        {
            "name": "D#3",
            "midi": 51,
            "time": 29.417083500000032,
            "velocity": 0.1889763779527559,
            "duration": 0.08921082916666734
        },
        {
            "name": "G#2",
            "midi": 44,
            "time": 29.507044000000032,
            "velocity": 0.25984251968503935,
            "duration": 0.08921082916666734
        },
        {
            "name": "D#3",
            "midi": 51,
            "time": 29.597004500000033,
            "velocity": 0.2047244094488189,
            "duration": 0.08921082916666734
        },
        {
            "name": "B2",
            "midi": 47,
            "time": 29.686965000000033,
            "velocity": 0.2283464566929134,
            "duration": 0.08921082916666734
        },
        {
            "name": "D#3",
            "midi": 51,
            "time": 29.776925500000033,
            "velocity": 0.1968503937007874,
            "duration": 0.08921082916666734
        },
        {
            "name": "G#2",
            "midi": 44,
            "time": 29.866886000000033,
            "velocity": 0.25984251968503935,
            "duration": 0.08921082916666734
        },
        {
            "name": "D#3",
            "midi": 51,
            "time": 29.956846500000033,
            "velocity": 0.2047244094488189,
            "duration": 0.08921082916666734
        },
        {
            "name": "B2",
            "midi": 47,
            "time": 30.046807000000033,
            "velocity": 0.2283464566929134,
            "duration": 0.08921082916666734
        },
        {
            "name": "D#3",
            "midi": 51,
            "time": 30.136767500000033,
            "velocity": 0.1968503937007874,
            "duration": 0.08921082916666734
        },
        {
            "name": "A#2",
            "midi": 46,
            "time": 30.226728000000033,
            "velocity": 0.25984251968503935,
            "duration": 0.1049539166666662
        },
        {
            "name": "D#3",
            "midi": 51,
            "time": 30.316688500000033,
            "velocity": 0.2047244094488189,
            "duration": 0.1049539166666662
        },
        {
            "name": "C#3",
            "midi": 49,
            "time": 30.406649000000034,
            "velocity": 0.2283464566929134,
            "duration": 0.1049539166666662
        },
        {
            "name": "D#3",
            "midi": 51,
            "time": 30.496609500000034,
            "velocity": 0.2047244094488189,
            "duration": 0.1049539166666662
        },
        {
            "name": "A#2",
            "midi": 46,
            "time": 30.586570000000034,
            "velocity": 0.3228346456692913,
            "duration": 0.08921082916666734
        },
        {
            "name": "D#3",
            "midi": 51,
            "time": 30.676530500000034,
            "velocity": 0.2755905511811024,
            "duration": 0.08921082916666734
        },
        {
            "name": "C#3",
            "midi": 49,
            "time": 30.766491000000034,
            "velocity": 0.31496062992125984,
            "duration": 0.08921082916666734
        },
        {
            "name": "D#3",
            "midi": 51,
            "time": 30.856451500000034,
            "velocity": 0.29133858267716534,
            "duration": 0.08921082916666734
        },
        {
            "name": "A#2",
            "midi": 46,
            "time": 30.946412000000034,
            "velocity": 0.3858267716535433,
            "duration": 0.08921082916666734
        },
        {
            "name": "D#3",
            "midi": 51,
            "time": 31.036372500000034,
            "velocity": 0.31496062992125984,
            "duration": 0.08921082916666734
        },
        {
            "name": "C#3",
            "midi": 49,
            "time": 31.126333000000034,
            "velocity": 0.36220472440944884,
            "duration": 0.08921082916666734
        },
        {
            "name": "D#3",
            "midi": 51,
            "time": 31.216293500000035,
            "velocity": 0.33070866141732286,
            "duration": 0.08921082916666734
        },
        {
            "name": "A#2",
            "midi": 46,
            "time": 31.306254000000035,
            "velocity": 0.4409448818897638,
            "duration": 0.08921082916666734
        },
        {
            "name": "D#3",
            "midi": 51,
            "time": 31.396214500000035,
            "velocity": 0.3228346456692913,
            "duration": 0.08921082916666734
        },
        {
            "name": "C#3",
            "midi": 49,
            "time": 31.486175000000035,
            "velocity": 0.33858267716535434,
            "duration": 0.08921082916666734
        },
        {
            "name": "D#3",
            "midi": 51,
            "time": 31.576135500000035,
            "velocity": 0.28346456692913385,
            "duration": 0.08921082916666734
        },
        {
            "name": "B2",
            "midi": 47,
            "time": 31.666096000000035,
            "velocity": 0.25984251968503935,
            "duration": 0.08921082916666734
        },
        {
            "name": "D#3",
            "midi": 51,
            "time": 31.756056500000035,
            "velocity": 0.2204724409448819,
            "duration": 0.08921082916666734
        },
        {
            "name": "B2",
            "midi": 47,
            "time": 31.846017000000035,
            "velocity": 0.23622047244094488,
            "duration": 0.08921082916666734
        },
        {
            "name": "D#3",
            "midi": 51,
            "time": 31.935977500000035,
            "velocity": 0.2047244094488189,
            "duration": 0.08921082916666734
        },
        {
            "name": "B2",
            "midi": 47,
            "time": 32.02593800000004,
            "velocity": 0.3228346456692913,
            "duration": 0.08921082916666734
        },
        {
            "name": "D#3",
            "midi": 51,
            "time": 32.11589850000004,
            "velocity": 0.29133858267716534,
            "duration": 0.08921082916666734
        },
        {
            "name": "B2",
            "midi": 47,
            "time": 32.205859000000046,
            "velocity": 0.30708661417322836,
            "duration": 0.08921082916666734
        },
        {
            "name": "D#3",
            "midi": 51,
            "time": 32.29581950000005,
            "velocity": 0.28346456692913385,
            "duration": 0.08921082916666734
        },
        {
            "name": "B2",
            "midi": 47,
            "time": 32.385780000000054,
            "velocity": 0.3858267716535433,
            "duration": 0.08921082916666734
        },
        {
            "name": "D#3",
            "midi": 51,
            "time": 32.47574050000006,
            "velocity": 0.33858267716535434,
            "duration": 0.08921082916666734
        },
        {
            "name": "B2",
            "midi": 47,
            "time": 32.56570100000006,
            "velocity": 0.3779527559055118,
            "duration": 0.08921082916666734
        },
        {
            "name": "D#3",
            "midi": 51,
            "time": 32.655661500000065,
            "velocity": 0.33070866141732286,
            "duration": 0.08921082916666734
        },
        {
            "name": "B2",
            "midi": 47,
            "time": 32.74562200000007,
            "velocity": 0.4251968503937008,
            "duration": 0.08921082916666734
        },
        {
            "name": "D#3",
            "midi": 51,
            "time": 32.83558250000007,
            "velocity": 0.3228346456692913,
            "duration": 0.08921082916666734
        },
        {
            "name": "B2",
            "midi": 47,
            "time": 32.925543000000076,
            "velocity": 0.33858267716535434,
            "duration": 0.08921082916666734
        },
        {
            "name": "D#3",
            "midi": 51,
            "time": 33.01550350000008,
            "velocity": 0.28346456692913385,
            "duration": 0.08921082916666734
        },
        {
            "name": "G2",
            "midi": 43,
            "time": 33.10546400000008,
            "velocity": 0.25196850393700787,
            "duration": 0.08921082916666734
        },
        {
            "name": "D#3",
            "midi": 51,
            "time": 33.19542450000009,
            "velocity": 0.1968503937007874,
            "duration": 0.08921082916666734
        },
        {
            "name": "G2",
            "midi": 43,
            "time": 33.28538500000009,
            "velocity": 0.2283464566929134,
            "duration": 0.08921082916666734
        },
        {
            "name": "D#3",
            "midi": 51,
            "time": 33.375345500000094,
            "velocity": 0.2047244094488189,
            "duration": 0.08921082916666734
        },
        {
            "name": "G2",
            "midi": 43,
            "time": 33.4653060000001,
            "velocity": 0.3228346456692913,
            "duration": 0.08921082916666734
        },
        {
            "name": "D#3",
            "midi": 51,
            "time": 33.5552665000001,
            "velocity": 0.29133858267716534,
            "duration": 0.08921082916666734
        },
        {
            "name": "G2",
            "midi": 43,
            "time": 33.645227000000105,
            "velocity": 0.33070866141732286,
            "duration": 0.08921082916666734
        },
        {
            "name": "D#3",
            "midi": 51,
            "time": 33.73518750000011,
            "velocity": 0.33858267716535434,
            "duration": 0.08921082916666734
        },
        {
            "name": "G2",
            "midi": 43,
            "time": 33.82514800000011,
            "velocity": 0.3779527559055118,
            "duration": 0.08921082916666734
        },
        {
            "name": "D#3",
            "midi": 51,
            "time": 33.915108500000116,
            "velocity": 0.33858267716535434,
            "duration": 0.08921082916666734
        },
        {
            "name": "G2",
            "midi": 43,
            "time": 34.00506900000012,
            "velocity": 0.3858267716535433,
            "duration": 0.08921082916666734
        },
        {
            "name": "D#3",
            "midi": 51,
            "time": 34.09502950000012,
            "velocity": 0.36220472440944884,
            "duration": 0.08921082916666734
        },
        {
            "name": "G2",
            "midi": 43,
            "time": 34.18499000000013,
            "velocity": 0.4251968503937008,
            "duration": 0.08921082916666734
        },
        {
            "name": "D#3",
            "midi": 51,
            "time": 34.27495050000013,
            "velocity": 0.2992125984251969,
            "duration": 0.08921082916666734
        },
        {
            "name": "G2",
            "midi": 43,
            "time": 34.364911000000134,
            "velocity": 0.33070866141732286,
            "duration": 0.08921082916666734
        },
        {
            "name": "D#3",
            "midi": 51,
            "time": 34.45487150000014,
            "velocity": 0.28346456692913385,
            "duration": 0.08921082916666734
        },
        {
            "name": "G#2",
            "midi": 44,
            "time": 34.54483200000014,
            "velocity": 0.30708661417322836,
            "duration": 0.1049539166666662
        },
        {
            "name": "D#3",
            "midi": 51,
            "time": 34.63479250000014,
            "velocity": 0.25196850393700787,
            "duration": 0.10495391666667331
        },
        {
            "name": "B2",
            "midi": 47,
            "time": 34.72475300000014,
            "velocity": 0.2755905511811024,
            "duration": 0.08921082916666734
        },
        {
            "name": "D#3",
            "midi": 51,
            "time": 34.814713500000146,
            "velocity": 0.2440944881889764,
            "duration": 0.08921082916666734
        },
        {
            "name": "G#2",
            "midi": 44,
            "time": 34.90467400000015,
            "velocity": 0.31496062992125984,
            "duration": 0.08921082916666734
        },
        {
            "name": "D#3",
            "midi": 51,
            "time": 34.99463450000015,
            "velocity": 0.2440944881889764,
            "duration": 0.08921082916666734
        },
        {
            "name": "B2",
            "midi": 47,
            "time": 35.08459500000016,
            "velocity": 0.2677165354330709,
            "duration": 0.08921082916666734
        },
        {
            "name": "D#3",
            "midi": 51,
            "time": 35.17455550000016,
            "velocity": 0.2440944881889764,
            "duration": 0.08921082916666734
        },
        {
            "name": "G#2",
            "midi": 44,
            "time": 35.264516000000164,
            "velocity": 0.3228346456692913,
            "duration": 0.08921082916666734
        },
        {
            "name": "D#3",
            "midi": 51,
            "time": 35.35447650000017,
            "velocity": 0.25196850393700787,
            "duration": 0.08921082916666734
        },
        {
            "name": "B2",
            "midi": 47,
            "time": 35.44443700000017,
            "velocity": 0.2755905511811024,
            "duration": 0.08921082916666734
        },
        {
            "name": "D#3",
            "midi": 51,
            "time": 35.534397500000175,
            "velocity": 0.25196850393700787,
            "duration": 0.08921082916666734
        },
        {
            "name": "G#2",
            "midi": 44,
            "time": 35.62435800000018,
            "velocity": 0.33858267716535434,
            "duration": 0.1049539166666662
        },
        {
            "name": "D#3",
            "midi": 51,
            "time": 35.714318500000175,
            "velocity": 0.29133858267716534,
            "duration": 0.10495391666667331
        },
        {
            "name": "B2",
            "midi": 47,
            "time": 35.80427900000018,
            "velocity": 0.29133858267716534,
            "duration": 0.10495391666667331
        },
        {
            "name": "D#3",
            "midi": 51,
            "time": 35.89423950000018,
            "velocity": 0.2677165354330709,
            "duration": 0.10495391666667331
        },
        {
            "name": "A#2",
            "midi": 46,
            "time": 35.984200000000186,
            "velocity": 0.36220472440944884,
            "duration": 0.10495391666667331
        },
        {
            "name": "D#3",
            "midi": 51,
            "time": 36.07416050000019,
            "velocity": 0.2677165354330709,
            "duration": 0.10495391666667331
        },
        {
            "name": "C#3",
            "midi": 49,
            "time": 36.16412100000019,
            "velocity": 0.30708661417322836,
            "duration": 0.08921082916666734
        },
        {
            "name": "D#3",
            "midi": 51,
            "time": 36.2540815000002,
            "velocity": 0.2677165354330709,
            "duration": 0.08921082916666734
        },
        {
            "name": "A#2",
            "midi": 46,
            "time": 36.3440420000002,
            "velocity": 0.3700787401574803,
            "duration": 0.08921082916666734
        },
        {
            "name": "D#3",
            "midi": 51,
            "time": 36.434002500000204,
            "velocity": 0.2755905511811024,
            "duration": 0.08921082916666734
        },
        {
            "name": "C#3",
            "midi": 49,
            "time": 36.52396300000021,
            "velocity": 0.31496062992125984,
            "duration": 0.08921082916666734
        },
        {
            "name": "D#3",
            "midi": 51,
            "time": 36.61392350000021,
            "velocity": 0.2755905511811024,
            "duration": 0.08921082916666734
        },
        {
            "name": "A#2",
            "midi": 46,
            "time": 36.703884000000215,
            "velocity": 0.3858267716535433,
            "duration": 0.08921082916666734
        },
        {
            "name": "D#3",
            "midi": 51,
            "time": 36.79384450000022,
            "velocity": 0.2755905511811024,
            "duration": 0.08921082916666734
        },
        {
            "name": "C#3",
            "midi": 49,
            "time": 36.88380500000022,
            "velocity": 0.3228346456692913,
            "duration": 0.08921082916666734
        },
        {
            "name": "D#3",
            "midi": 51,
            "time": 36.973765500000226,
            "velocity": 0.29133858267716534,
            "duration": 0.08921082916666734
        },
        {
            "name": "A#2",
            "midi": 46,
            "time": 37.06372600000023,
            "velocity": 0.3937007874015748,
            "duration": 0.1049539166666662
        },
        {
            "name": "D#3",
            "midi": 51,
            "time": 37.15368650000023,
            "velocity": 0.31496062992125984,
            "duration": 0.10495391666667331
        },
        {
            "name": "C#3",
            "midi": 49,
            "time": 37.24364700000023,
            "velocity": 0.3543307086614173,
            "duration": 0.10495391666667331
        },
        {
            "name": "D#3",
            "midi": 51,
            "time": 37.333607500000234,
            "velocity": 0.3228346456692913,
            "duration": 0.10495391666667331
        },
        {
            "name": "B2",
            "midi": 47,
            "time": 37.42356800000024,
            "velocity": 0.4015748031496063,
            "duration": 0.10495391666667331
        },
        {
            "name": "D#3",
            "midi": 51,
            "time": 37.51352850000024,
            "velocity": 0.3464566929133858,
            "duration": 0.10495391666667331
        },
        {
            "name": "B2",
            "midi": 47,
            "time": 37.603489000000245,
            "velocity": 0.3700787401574803,
            "duration": 0.08921082916666734
        },
        {
            "name": "D#3",
            "midi": 51,
            "time": 37.69344950000025,
            "velocity": 0.33858267716535434,
            "duration": 0.08921082916666734
        },
        {
            "name": "B2",
            "midi": 47,
            "time": 37.78341000000025,
            "velocity": 0.4094488188976378,
            "duration": 0.08921082916666734
        },
        {
            "name": "D#3",
            "midi": 51,
            "time": 37.873370500000256,
            "velocity": 0.3464566929133858,
            "duration": 0.08921082916666734
        },
        {
            "name": "B2",
            "midi": 47,
            "time": 37.96333100000026,
            "velocity": 0.3779527559055118,
            "duration": 0.08921082916666734
        },
        {
            "name": "D#3",
            "midi": 51,
            "time": 38.05329150000026,
            "velocity": 0.3779527559055118,
            "duration": 0.08921082916666734
        },
        {
            "name": "B2",
            "midi": 47,
            "time": 38.14325200000027,
            "velocity": 0.4409448818897638,
            "duration": 0.08921082916666734
        },
        {
            "name": "D#3",
            "midi": 51,
            "time": 38.23321250000027,
            "velocity": 0.3700787401574803,
            "duration": 0.08921082916666734
        },
        {
            "name": "B2",
            "midi": 47,
            "time": 38.323173000000274,
            "velocity": 0.3937007874015748,
            "duration": 0.08921082916666734
        },
        {
            "name": "D#3",
            "midi": 51,
            "time": 38.41313350000028,
            "velocity": 0.3543307086614173,
            "duration": 0.1049539166666662
        },
        {
            "name": "B2",
            "midi": 47,
            "time": 38.503094000000274,
            "velocity": 0.44881889763779526,
            "duration": 0.10495391666667331
        },
        {
            "name": "D#3",
            "midi": 51,
            "time": 38.59305450000028,
            "velocity": 0.3858267716535433,
            "duration": 0.10495391666667331
        },
        {
            "name": "B2",
            "midi": 47,
            "time": 38.68301500000028,
            "velocity": 0.4015748031496063,
            "duration": 0.10495391666667331
        },
        {
            "name": "D#3",
            "midi": 51,
            "time": 38.772975500000285,
            "velocity": 0.3700787401574803,
            "duration": 0.10495391666667331
        },
        {
            "name": "G2",
            "midi": 43,
            "time": 38.86293600000029,
            "velocity": 0.4645669291338583,
            "duration": 0.10495391666667331
        },
        {
            "name": "D#3",
            "midi": 51,
            "time": 38.95289650000029,
            "velocity": 0.41732283464566927,
            "duration": 0.10495391666667331
        },
        {
            "name": "G2",
            "midi": 43,
            "time": 39.042857000000296,
            "velocity": 0.4409448818897638,
            "duration": 0.08921082916666734
        },
        {
            "name": "D#3",
            "midi": 51,
            "time": 39.1328175000003,
            "velocity": 0.4409448818897638,
            "duration": 0.08921082916666734
        },
        {
            "name": "G2",
            "midi": 43,
            "time": 39.222778000000304,
            "velocity": 0.47244094488188976,
            "duration": 0.08921082916666734
        },
        {
            "name": "D#3",
            "midi": 51,
            "time": 39.31273850000031,
            "velocity": 0.4094488188976378,
            "duration": 0.08921082916666734
        },
        {
            "name": "G2",
            "midi": 43,
            "time": 39.40269900000031,
            "velocity": 0.44881889763779526,
            "duration": 0.08921082916666734
        },
        {
            "name": "D#3",
            "midi": 51,
            "time": 39.492659500000315,
            "velocity": 0.4094488188976378,
            "duration": 0.08921082916666734
        },
        {
            "name": "G2",
            "midi": 43,
            "time": 39.58262000000032,
            "velocity": 0.4881889763779528,
            "duration": 0.08921082916666734
        },
        {
            "name": "D#3",
            "midi": 51,
            "time": 39.67258050000032,
            "velocity": 0.41732283464566927,
            "duration": 0.08921082916666734
        },
        {
            "name": "G2",
            "midi": 43,
            "time": 39.762541000000326,
            "velocity": 0.4645669291338583,
            "duration": 0.1049539166666662
        },
        {
            "name": "D#3",
            "midi": 51,
            "time": 39.85250150000032,
            "velocity": 0.41732283464566927,
            "duration": 0.10495391666667331
        },
        {
            "name": "G2",
            "midi": 43,
            "time": 39.942462000000326,
            "velocity": 0.4881889763779528,
            "duration": 0.10495391666667331
        },
        {
            "name": "D#3",
            "midi": 51,
            "time": 40.03242250000033,
            "velocity": 0.4251968503937008,
            "duration": 0.10495391666667331
        },
        {
            "name": "G2",
            "midi": 43,
            "time": 40.12238300000033,
            "velocity": 0.47244094488188976,
            "duration": 0.10495391666667331
        },
        {
            "name": "D#3",
            "midi": 51,
            "time": 40.21234350000034,
            "velocity": 0.4251968503937008,
            "duration": 0.10495391666667331
        },
        {
            "name": "F#2",
            "midi": 42,
            "time": 40.30230400000034,
            "velocity": 0.5196850393700787,
            "duration": 0.10270490416667144
        },
        {
            "name": "D#3",
            "midi": 51,
            "time": 40.392264500000344,
            "velocity": 0.4251968503937008,
            "duration": 0.10270490416667144
        },
        {
            "name": "G#2",
            "midi": 44,
            "time": 40.48222500000035,
            "velocity": 0.48031496062992124,
            "duration": 0.10270490416667144
        },
        {
            "name": "D#3",
            "midi": 51,
            "time": 40.57218550000035,
            "velocity": 0.4251968503937008,
            "duration": 0.10270490416667144
        },
        {
            "name": "F#2",
            "midi": 42,
            "time": 40.662146000000355,
            "velocity": 0.5196850393700787,
            "duration": 0.10270490416667144
        },
        {
            "name": "D#3",
            "midi": 51,
            "time": 40.75210650000036,
            "velocity": 0.4409448818897638,
            "duration": 0.10270490416667144
        },
        {
            "name": "G#2",
            "midi": 44,
            "time": 40.84206700000036,
            "velocity": 0.48031496062992124,
            "duration": 0.10270490416667144
        },
        {
            "name": "D#3",
            "midi": 51,
            "time": 40.932027500000366,
            "velocity": 0.4409448818897638,
            "duration": 0.10270490416667144
        },
        {
            "name": "E2",
            "midi": 40,
            "time": 41.02198800000037,
            "velocity": 0.5196850393700787,
            "duration": 0.10270490416667144
        },
        {
            "name": "C#3",
            "midi": 49,
            "time": 41.11194850000037,
            "velocity": 0.4409448818897638,
            "duration": 0.10270490416667144
        },
        {
            "name": "G#2",
            "midi": 44,
            "time": 41.20190900000038,
            "velocity": 0.4881889763779528,
            "duration": 0.10270490416667144
        },
        {
            "name": "C#3",
            "midi": 49,
            "time": 41.29186950000038,
            "velocity": 0.4409448818897638,
            "duration": 0.10270490416667144
        },
        {
            "name": "E2",
            "midi": 40,
            "time": 41.381830000000384,
            "velocity": 0.5196850393700787,
            "duration": 0.10270490416667144
        },
        {
            "name": "C#3",
            "midi": 49,
            "time": 41.47179050000039,
            "velocity": 0.4409448818897638,
            "duration": 0.10270490416667144
        },
        {
            "name": "G#2",
            "midi": 44,
            "time": 41.56175100000039,
            "velocity": 0.48031496062992124,
            "duration": 0.10270490416667144
        },
        {
            "name": "C#3",
            "midi": 49,
            "time": 41.651711500000395,
            "velocity": 0.4409448818897638,
            "duration": 0.10270490416667144
        },
        {
            "name": "E2",
            "midi": 40,
            "time": 41.7416720000004,
            "velocity": 0.5196850393700787,
            "duration": 0.08921082916666734
        },
        {
            "name": "C#3",
            "midi": 49,
            "time": 41.8316325000004,
            "velocity": 0.4409448818897638,
            "duration": 0.08921082916666734
        },
        {
            "name": "F#2",
            "midi": 42,
            "time": 41.92159300000041,
            "velocity": 0.48031496062992124,
            "duration": 0.08921082916666734
        },
        {
            "name": "C#3",
            "midi": 49,
            "time": 42.01155350000041,
            "velocity": 0.4409448818897638,
            "duration": 0.08921082916666734
        },
        {
            "name": "D#2",
            "midi": 39,
            "time": 42.101514000000414,
            "velocity": 0.5196850393700787,
            "duration": 0.10270490416666433
        },
        {
            "name": "B2",
            "midi": 47,
            "time": 42.19147450000041,
            "velocity": 0.44881889763779526,
            "duration": 0.10270490416667144
        },
        {
            "name": "F#2",
            "midi": 42,
            "time": 42.281435000000414,
            "velocity": 0.4881889763779528,
            "duration": 0.10270490416667144
        },
        {
            "name": "B2",
            "midi": 47,
            "time": 42.37139550000042,
            "velocity": 0.44881889763779526,
            "duration": 0.10270490416667144
        },
        {
            "name": "D#2",
            "midi": 39,
            "time": 42.46135600000042,
            "velocity": 0.5196850393700787,
            "duration": 0.10270490416667144
        },
        {
            "name": "B2",
            "midi": 47,
            "time": 42.551316500000425,
            "velocity": 0.4409448818897638,
            "duration": 0.10270490416667144
        },
        {
            "name": "F#2",
            "midi": 42,
            "time": 42.64127700000043,
            "velocity": 0.48031496062992124,
            "duration": 0.10270490416667144
        },
        {
            "name": "B2",
            "midi": 47,
            "time": 42.73123750000043,
            "velocity": 0.4409448818897638,
            "duration": 0.10270490416667144
        },
        {
            "name": "D#2",
            "midi": 39,
            "time": 42.821198000000436,
            "velocity": 0.5196850393700787,
            "duration": 0.10270490416667144
        },
        {
            "name": "B2",
            "midi": 47,
            "time": 42.91115850000044,
            "velocity": 0.4409448818897638,
            "duration": 0.10270490416667144
        },
        {
            "name": "F#2",
            "midi": 42,
            "time": 43.00111900000044,
            "velocity": 0.47244094488188976,
            "duration": 0.10270490416667144
        },
        {
            "name": "B2",
            "midi": 47,
            "time": 43.09107950000045,
            "velocity": 0.4409448818897638,
            "duration": 0.10270490416667144
        },
        {
            "name": "D2",
            "midi": 38,
            "time": 43.18104000000045,
            "velocity": 0.5196850393700787,
            "duration": 0.10495391666667331
        },
        {
            "name": "B2",
            "midi": 47,
            "time": 43.271000500000454,
            "velocity": 0.4566929133858268,
            "duration": 0.10495391666667331
        },
        {
            "name": "E2",
            "midi": 40,
            "time": 43.36096100000046,
            "velocity": 0.4881889763779528,
            "duration": 0.10495391666667331
        },
        {
            "name": "B2",
            "midi": 47,
            "time": 43.45092150000046,
            "velocity": 0.4566929133858268,
            "duration": 0.10495391666667331
        },
        {
            "name": "D2",
            "midi": 38,
            "time": 43.540882000000465,
            "velocity": 0.5196850393700787,
            "duration": 0.10495391666667331
        },
        {
            "name": "B2",
            "midi": 47,
            "time": 43.63084250000047,
            "velocity": 0.4566929133858268,
            "duration": 0.10495391666667331
        },
        {
            "name": "E2",
            "midi": 40,
            "time": 43.72080300000047,
            "velocity": 0.4881889763779528,
            "duration": 0.10495391666667331
        },
        {
            "name": "B2",
            "midi": 47,
            "time": 43.810763500000476,
            "velocity": 0.44881889763779526,
            "duration": 0.10495391666667331
        },
        {
            "name": "C#2",
            "midi": 37,
            "time": 43.90072400000048,
            "velocity": 0.5196850393700787,
            "duration": 0.08921082916666734
        },
        {
            "name": "A2",
            "midi": 45,
            "time": 43.990684500000484,
            "velocity": 0.44881889763779526,
            "duration": 0.08921082916666734
        },
        {
            "name": "E2",
            "midi": 40,
            "time": 44.08064500000049,
            "velocity": 0.4881889763779528,
            "duration": 0.08921082916666734
        },
        {
            "name": "A2",
            "midi": 45,
            "time": 44.17060550000049,
            "velocity": 0.4409448818897638,
            "duration": 0.08921082916666734
        },
        {
            "name": "C#2",
            "midi": 37,
            "time": 44.260566000000495,
            "velocity": 0.5196850393700787,
            "duration": 0.08921082916666734
        },
        {
            "name": "A2",
            "midi": 45,
            "time": 44.3505265000005,
            "velocity": 0.44881889763779526,
            "duration": 0.08921082916666734
        },
        {
            "name": "E2",
            "midi": 40,
            "time": 44.4404870000005,
            "velocity": 0.4881889763779528,
            "duration": 0.08921082916666734
        },
        {
            "name": "A2",
            "midi": 45,
            "time": 44.530447500000506,
            "velocity": 0.44881889763779526,
            "duration": 0.08921082916666734
        },
        {
            "name": "C#2",
            "midi": 37,
            "time": 44.62040800000051,
            "velocity": 0.5196850393700787,
            "duration": 0.08921082916666734
        },
        {
            "name": "A#2",
            "midi": 46,
            "time": 44.71036850000051,
            "velocity": 0.4409448818897638,
            "duration": 0.08921082916666734
        },
        {
            "name": "D#2",
            "midi": 39,
            "time": 44.80032900000052,
            "velocity": 0.47244094488188976,
            "duration": 0.08921082916666734
        },
        {
            "name": "A#2",
            "midi": 46,
            "time": 44.89028950000052,
            "velocity": 0.4409448818897638,
            "duration": 0.08921082916666734
        },
        {
            "name": "B1",
            "midi": 35,
            "time": 44.980250000000524,
            "velocity": 0.5196850393700787,
            "duration": 0.10270490416666433
        },
        {
            "name": "G#2",
            "midi": 44,
            "time": 45.07021050000052,
            "velocity": 0.44881889763779526,
            "duration": 0.10270490416667144
        },
        {
            "name": "D#2",
            "midi": 39,
            "time": 45.160171000000524,
            "velocity": 0.48031496062992124,
            "duration": 0.10270490416667144
        },
        {
            "name": "G#2",
            "midi": 44,
            "time": 45.25013150000053,
            "velocity": 0.44881889763779526,
            "duration": 0.10270490416667144
        },
        {
            "name": "B1",
            "midi": 35,
            "time": 45.34009200000053,
            "velocity": 0.5196850393700787,
            "duration": 0.10270490416667144
        },
        {
            "name": "G#2",
            "midi": 44,
            "time": 45.430052500000535,
            "velocity": 0.4409448818897638,
            "duration": 0.10270490416667144
        },
        {
            "name": "D#2",
            "midi": 39,
            "time": 45.52001300000054,
            "velocity": 0.48031496062992124,
            "duration": 0.10270490416667144
        },
        {
            "name": "G#2",
            "midi": 44,
            "time": 45.60997350000054,
            "velocity": 0.44881889763779526,
            "duration": 0.10270490416667144
        },
        {
            "name": "B1",
            "midi": 35,
            "time": 45.699934000000546,
            "velocity": 0.5196850393700787,
            "duration": 0.10270490416667144
        },
        {
            "name": "G#2",
            "midi": 44,
            "time": 45.78989450000055,
            "velocity": 0.4409448818897638,
            "duration": 0.10270490416667144
        },
        {
            "name": "D#2",
            "midi": 39,
            "time": 45.87985500000055,
            "velocity": 0.48031496062992124,
            "duration": 0.10270490416667144
        },
        {
            "name": "G#2",
            "midi": 44,
            "time": 45.96981550000056,
            "velocity": 0.4566929133858268,
            "duration": 0.10270490416667144
        },
        {
            "name": "A2",
            "midi": 45,
            "time": 46.05977600000056,
            "velocity": 0.5905511811023622,
            "duration": 1.0795260000000013
        },
        {
            "name": "E2",
            "midi": 40,
            "time": 46.05977600000056,
            "velocity": 0.5039370078740157,
            "duration": 1.0795260000000013
        },
        {
            "name": "C#3",
            "midi": 49,
            "time": 46.05977600000056,
            "velocity": 0.5905511811023622,
            "duration": 1.0795260000000013
        },
        {
            "name": "C#2",
            "midi": 37,
            "time": 46.05977600000056,
            "velocity": 0.5039370078740157,
            "duration": 1.0795260000000013
        },
        {
            "name": "E4",
            "midi": 64,
            "time": 47.49914400000056,
            "velocity": 0.33070866141732286,
            "duration": 0.35984200000000044
        },
        {
            "name": "C#4",
            "midi": 61,
            "time": 47.49914400000056,
            "velocity": 0.33070866141732286,
            "duration": 0.35984200000000044
        },
        {
            "name": "A4",
            "midi": 69,
            "time": 47.49914400000056,
            "velocity": 0.3937007874015748,
            "duration": 0.35684331666666935
        },
        {
            "name": "E4",
            "midi": 64,
            "time": 48.21882800000056,
            "velocity": 0.3228346456692913,
            "duration": 0.35984200000000044
        },
        {
            "name": "C#4",
            "midi": 61,
            "time": 48.21882800000056,
            "velocity": 0.3228346456692913,
            "duration": 0.35984200000000044
        },
        {
            "name": "A4",
            "midi": 69,
            "time": 48.21882800000056,
            "velocity": 0.3858267716535433,
            "duration": 0.35984200000000044
        },
        {
            "name": "E4",
            "midi": 64,
            "time": 48.938512000000564,
            "velocity": 0.3228346456692913,
            "duration": 0.35984200000000044
        },
        {
            "name": "C#4",
            "midi": 61,
            "time": 48.938512000000564,
            "velocity": 0.3228346456692913,
            "duration": 0.35984200000000044
        },
        {
            "name": "A4",
            "midi": 69,
            "time": 48.938512000000564,
            "velocity": 0.3858267716535433,
            "duration": 0.35984200000000044
        },
        {
            "name": "E4",
            "midi": 64,
            "time": 49.298354000000565,
            "velocity": 0.3464566929133858,
            "duration": 0.35984200000000044
        },
        {
            "name": "C#4",
            "midi": 61,
            "time": 49.298354000000565,
            "velocity": 0.3464566929133858,
            "duration": 0.35984200000000044
        },
        {
            "name": "A4",
            "midi": 69,
            "time": 49.298354000000565,
            "velocity": 0.4094488188976378,
            "duration": 0.35984200000000044
        },
        {
            "name": "A4",
            "midi": 69,
            "time": 49.658196000000565,
            "velocity": 0.47244094488188976,
            "duration": 0.35984200000000044
        },
        {
            "name": "E4",
            "midi": 64,
            "time": 49.658196000000565,
            "velocity": 0.4015748031496063,
            "duration": 0.35984200000000044
        },
        {
            "name": "C#4",
            "midi": 61,
            "time": 49.658196000000565,
            "velocity": 0.4015748031496063,
            "duration": 0.35984200000000044
        },
        {
            "name": "A4",
            "midi": 69,
            "time": 50.018038000000566,
            "velocity": 0.4409448818897638,
            "duration": 0.35984200000000044
        },
        {
            "name": "E4",
            "midi": 64,
            "time": 50.018038000000566,
            "velocity": 0.3700787401574803,
            "duration": 0.35984200000000044
        },
        {
            "name": "C#4",
            "midi": 61,
            "time": 50.018038000000566,
            "velocity": 0.3700787401574803,
            "duration": 0.35984200000000044
        },
        {
            "name": "D#4",
            "midi": 63,
            "time": 50.377880000000566,
            "velocity": 0.3858267716535433,
            "duration": 0.08921082916666734
        },
        {
            "name": "B4",
            "midi": 71,
            "time": 50.46784050000057,
            "velocity": 0.3464566929133858,
            "duration": 0.08921082916666734
        },
        {
            "name": "G#4",
            "midi": 68,
            "time": 50.55780100000057,
            "velocity": 0.3700787401574803,
            "duration": 0.08921082916666734
        },
        {
            "name": "B4",
            "midi": 71,
            "time": 50.64776150000058,
            "velocity": 0.3464566929133858,
            "duration": 0.08921082916666734
        },
        {
            "name": "D#4",
            "midi": 63,
            "time": 50.73772200000058,
            "velocity": 0.4015748031496063,
            "duration": 0.08921082916666734
        },
        {
            "name": "B4",
            "midi": 71,
            "time": 50.827682500000584,
            "velocity": 0.33858267716535434,
            "duration": 0.08921082916666734
        },
        {
            "name": "G#4",
            "midi": 68,
            "time": 50.91764300000059,
            "velocity": 0.3700787401574803,
            "duration": 0.08921082916666734
        },
        {
            "name": "B4",
            "midi": 71,
            "time": 51.00760350000059,
            "velocity": 0.33858267716535434,
            "duration": 0.08921082916666734
        },
        {
            "name": "D#4",
            "midi": 63,
            "time": 51.097564000000595,
            "velocity": 0.4015748031496063,
            "duration": 0.08921082916666734
        },
        {
            "name": "C#5",
            "midi": 73,
            "time": 51.1875245000006,
            "velocity": 0.3543307086614173,
            "duration": 0.08921082916666734
        },
        {
            "name": "G4",
            "midi": 67,
            "time": 51.2774850000006,
            "velocity": 0.3700787401574803,
            "duration": 0.08921082916666734
        },
        {
            "name": "C#5",
            "midi": 73,
            "time": 51.367445500000606,
            "velocity": 0.33858267716535434,
            "duration": 0.08921082916666734
        },
        {
            "name": "D#4",
            "midi": 63,
            "time": 51.45740600000061,
            "velocity": 0.4015748031496063,
            "duration": 0.08921082916666734
        },
        {
            "name": "C#5",
            "midi": 73,
            "time": 51.547366500000614,
            "velocity": 0.33858267716535434,
            "duration": 0.08921082916666734
        },
        {
            "name": "G4",
            "midi": 67,
            "time": 51.63732700000062,
            "velocity": 0.3700787401574803,
            "duration": 0.08921082916666734
        },
        {
            "name": "C#5",
            "midi": 73,
            "time": 51.72728750000062,
            "velocity": 0.33858267716535434,
            "duration": 0.08921082916666734
        },
        {
            "name": "G#4",
            "midi": 68,
            "time": 51.817248000000625,
            "velocity": 0.4409448818897638,
            "duration": 0.17992100000000022
        },
        {
            "name": "E4",
            "midi": 64,
            "time": 51.817248000000625,
            "velocity": 0.4409448818897638,
            "duration": 0.17992100000000022
        },
        {
            "name": "B4",
            "midi": 71,
            "time": 51.817248000000625,
            "velocity": 0.4409448818897638,
            "duration": 0.17992100000000022
        },
        {
            "name": "E2",
            "midi": 40,
            "time": 52.177090000000625,
            "velocity": 0.4881889763779528,
            "duration": 0.7196840000000009
        },
        {
            "name": "A2",
            "midi": 45,
            "time": 52.177090000000625,
            "velocity": 0.5748031496062992,
            "duration": 0.7196840000000009
        },
        {
            "name": "C#3",
            "midi": 49,
            "time": 52.177090000000625,
            "velocity": 0.5748031496062992,
            "duration": 0.7196840000000009
        },
        {
            "name": "C#2",
            "midi": 37,
            "time": 52.177090000000625,
            "velocity": 0.4881889763779528,
            "duration": 0.7196840000000009
        },
        {
            "name": "E3",
            "midi": 52,
            "time": 53.61645800000063,
            "velocity": 0.3228346456692913,
            "duration": 0.35984200000000044
        },
        {
            "name": "C#3",
            "midi": 49,
            "time": 53.61645800000063,
            "velocity": 0.3228346456692913,
            "duration": 0.35984200000000044
        },
        {
            "name": "A3",
            "midi": 57,
            "time": 53.61645800000063,
            "velocity": 0.3858267716535433,
            "duration": 0.35984200000000044
        },
        {
            "name": "E3",
            "midi": 52,
            "time": 54.33614200000063,
            "velocity": 0.3228346456692913,
            "duration": 0.35984200000000044
        },
        {
            "name": "C#3",
            "midi": 49,
            "time": 54.33614200000063,
            "velocity": 0.3228346456692913,
            "duration": 0.35984200000000044
        },
        {
            "name": "A3",
            "midi": 57,
            "time": 54.33614200000063,
            "velocity": 0.3858267716535433,
            "duration": 0.35984200000000044
        },
        {
            "name": "A3",
            "midi": 57,
            "time": 54.87590500000063,
            "velocity": 0.4015748031496063,
            "duration": 0.17992100000000022
        },
        {
            "name": "C#3",
            "midi": 49,
            "time": 54.87590500000063,
            "velocity": 0.33858267716535434,
            "duration": 0.17992100000000022
        },
        {
            "name": "E3",
            "midi": 52,
            "time": 54.87590500000063,
            "velocity": 0.33858267716535434,
            "duration": 0.17992100000000022
        },
        {
            "name": "A3",
            "midi": 57,
            "time": 55.23574700000063,
            "velocity": 0.48031496062992124,
            "duration": 0.17992100000000022
        },
        {
            "name": "C#3",
            "midi": 49,
            "time": 55.23574700000063,
            "velocity": 0.4015748031496063,
            "duration": 0.17992100000000022
        },
        {
            "name": "E3",
            "midi": 52,
            "time": 55.23574700000063,
            "velocity": 0.4015748031496063,
            "duration": 0.17992100000000022
        },
        {
            "name": "A3",
            "midi": 57,
            "time": 55.59558900000063,
            "velocity": 0.5354330708661418,
            "duration": 0.17992100000000022
        },
        {
            "name": "E3",
            "midi": 52,
            "time": 55.59558900000063,
            "velocity": 0.44881889763779526,
            "duration": 0.17992100000000022
        },
        {
            "name": "C#3",
            "midi": 49,
            "time": 55.59558900000063,
            "velocity": 0.44881889763779526,
            "duration": 0.17992100000000022
        },
        {
            "name": "A3",
            "midi": 57,
            "time": 55.95543100000063,
            "velocity": 0.5354330708661418,
            "duration": 0.17992100000000022
        },
        {
            "name": "E3",
            "midi": 52,
            "time": 55.95543100000063,
            "velocity": 0.44881889763779526,
            "duration": 0.17992100000000022
        },
        {
            "name": "C#3",
            "midi": 49,
            "time": 55.95543100000063,
            "velocity": 0.44881889763779526,
            "duration": 0.17992100000000022
        },
        {
            "name": "E3",
            "midi": 52,
            "time": 56.13535200000063,
            "velocity": 0.4409448818897638,
            "duration": 0.35984200000000044
        },
        {
            "name": "A3",
            "midi": 57,
            "time": 56.13535200000063,
            "velocity": 0.5275590551181102,
            "duration": 0.35984200000000044
        },
        {
            "name": "C#3",
            "midi": 49,
            "time": 56.13535200000063,
            "velocity": 0.4409448818897638,
            "duration": 0.35984200000000044
        },
        {
            "name": "C#3",
            "midi": 49,
            "time": 57.57472000000063,
            "velocity": 0.5511811023622047,
            "duration": 0.08921082916666734
        },
        {
            "name": "A3",
            "midi": 57,
            "time": 57.664680500000635,
            "velocity": 0.48031496062992124,
            "duration": 0.08921082916666734
        },
        {
            "name": "E3",
            "midi": 52,
            "time": 57.75464100000064,
            "velocity": 0.5196850393700787,
            "duration": 0.08921082916666734
        },
        {
            "name": "A3",
            "midi": 57,
            "time": 57.84460150000064,
            "velocity": 0.4881889763779528,
            "duration": 0.08921082916666734
        },
        {
            "name": "C#3",
            "midi": 49,
            "time": 57.934562000000646,
            "velocity": 0.5511811023622047,
            "duration": 0.08921082916666734
        },
        {
            "name": "A3",
            "midi": 57,
            "time": 58.02452250000065,
            "velocity": 0.48031496062992124,
            "duration": 0.08921082916666734
        },
        {
            "name": "E3",
            "midi": 52,
            "time": 58.114483000000654,
            "velocity": 0.5118110236220472,
            "duration": 0.08921082916666734
        },
        {
            "name": "A3",
            "midi": 57,
            "time": 58.20444350000066,
            "velocity": 0.48031496062992124,
            "duration": 0.08921082916666734
        },
        {
            "name": "D3",
            "midi": 50,
            "time": 58.29440400000066,
            "velocity": 0.5511811023622047,
            "duration": 0.08921082916666734
        },
        {
            "name": "B3",
            "midi": 59,
            "time": 58.384364500000665,
            "velocity": 0.48031496062992124,
            "duration": 0.08921082916666734
        },
        {
            "name": "F3",
            "midi": 53,
            "time": 58.47432500000067,
            "velocity": 0.5196850393700787,
            "duration": 0.08921082916666734
        },
        {
            "name": "B3",
            "midi": 59,
            "time": 58.56428550000067,
            "velocity": 0.4881889763779528,
            "duration": 0.08921082916666734
        },
        {
            "name": "D3",
            "midi": 50,
            "time": 58.654246000000676,
            "velocity": 0.5511811023622047,
            "duration": 0.08921082916666734
        },
        {
            "name": "B3",
            "midi": 59,
            "time": 58.74420650000068,
            "velocity": 0.48031496062992124,
            "duration": 0.08921082916666734
        },
        {
            "name": "F3",
            "midi": 53,
            "time": 58.83416700000068,
            "velocity": 0.49606299212598426,
            "duration": 0.08921082916666734
        },
        {
            "name": "B3",
            "midi": 59,
            "time": 58.92412750000069,
            "velocity": 0.48031496062992124,
            "duration": 0.08921082916666734
        },
        {
            "name": "D#3",
            "midi": 51,
            "time": 59.01408800000069,
            "velocity": 0.5511811023622047,
            "duration": 0.08921082916666734
        },
        {
            "name": "B3",
            "midi": 59,
            "time": 59.104048500000694,
            "velocity": 0.48031496062992124,
            "duration": 0.08921082916666734
        },
        {
            "name": "G#3",
            "midi": 56,
            "time": 59.1940090000007,
            "velocity": 0.5196850393700787,
            "duration": 0.08921082916666734
        },
        {
            "name": "B3",
            "midi": 59,
            "time": 59.2839695000007,
            "velocity": 0.5196850393700787,
            "duration": 0.08921082916666734
        },
        {
            "name": "D#3",
            "midi": 51,
            "time": 59.373930000000705,
            "velocity": 0.5511811023622047,
            "duration": 0.08921082916666734
        },
        {
            "name": "B3",
            "midi": 59,
            "time": 59.46389050000071,
            "velocity": 0.4881889763779528,
            "duration": 0.08921082916666734
        },
        {
            "name": "G#3",
            "midi": 56,
            "time": 59.55385100000071,
            "velocity": 0.5196850393700787,
            "duration": 0.08921082916666734
        },
        {
            "name": "B3",
            "midi": 59,
            "time": 59.643811500000716,
            "velocity": 0.4881889763779528,
            "duration": 0.08921082916666734
        },
        {
            "name": "D#2",
            "midi": 39,
            "time": 59.73377200000072,
            "velocity": 0.5511811023622047,
            "duration": 0.08921082916666734
        },
        {
            "name": "D#3",
            "midi": 51,
            "time": 59.82373250000072,
            "velocity": 0.4881889763779528,
            "duration": 0.08921082916666734
        },
        {
            "name": "D3",
            "midi": 50,
            "time": 59.91369300000073,
            "velocity": 0.5275590551181102,
            "duration": 0.08921082916666734
        },
        {
            "name": "D#3",
            "midi": 51,
            "time": 60.00365350000073,
            "velocity": 0.4881889763779528,
            "duration": 0.08921082916666734
        },
        {
            "name": "D3",
            "midi": 50,
            "time": 60.093614000000734,
            "velocity": 0.5511811023622047,
            "duration": 0.08921082916666734
        },
        {
            "name": "D#3",
            "midi": 51,
            "time": 60.18357450000074,
            "velocity": 0.4881889763779528,
            "duration": 0.08921082916666734
        },
        {
            "name": "D3",
            "midi": 50,
            "time": 60.27353500000074,
            "velocity": 0.5275590551181102,
            "duration": 0.08921082916666734
        },
        {
            "name": "D#3",
            "midi": 51,
            "time": 60.363495500000745,
            "velocity": 0.48031496062992124,
            "duration": 0.07646642499999956
        },
        {
            "name": "G#2",
            "midi": 44,
            "time": 60.45345600000074,
            "velocity": 0.5590551181102362,
            "duration": 0.17992100000000022
        },
        {
            "name": "G#3",
            "midi": 56,
            "time": 60.81329800000074,
            "velocity": 0.33858267716535434,
            "duration": 0.08996049999999656
        },
        {
            "name": "G#3",
            "midi": 56,
            "time": 60.993219000000735,
            "velocity": 0.33858267716535434,
            "duration": 0.08996049999999656
        },
        {
            "name": "G#3",
            "midi": 56,
            "time": 61.17314000000073,
            "velocity": 0.33858267716535434,
            "duration": 0.08996049999999656
        },
        {
            "name": "G#3",
            "midi": 56,
            "time": 61.35306100000072,
            "velocity": 0.33858267716535434,
            "duration": 0.08996049999999656
        },
        {
            "name": "A#3",
            "midi": 58,
            "time": 61.532982000000715,
            "velocity": 0.33070866141732286,
            "duration": 0.08996049999999656
        },
        {
            "name": "B3",
            "midi": 59,
            "time": 61.71290300000071,
            "velocity": 0.33070866141732286,
            "duration": 0.08996049999999656
        },
        {
            "name": "D#3",
            "midi": 51,
            "time": 61.8928240000007,
            "velocity": 0.3700787401574803,
            "duration": 0.17992100000000022
        },
        {
            "name": "C#4",
            "midi": 61,
            "time": 61.8928240000007,
            "velocity": 0.3700787401574803,
            "duration": 0.17992100000000022
        },
        {
            "name": "D#4",
            "midi": 63,
            "time": 62.0727450000007,
            "velocity": 0.33070866141732286,
            "duration": 0.08996049999999656
        },
        {
            "name": "C#4",
            "midi": 61,
            "time": 62.0727450000007,
            "velocity": 0.33070866141732286,
            "duration": 0.08996049999999656
        },
        {
            "name": "C#4",
            "midi": 61,
            "time": 62.252666000000694,
            "velocity": 0.3228346456692913,
            "duration": 0.08996049999999656
        },
        {
            "name": "D#4",
            "midi": 63,
            "time": 62.252666000000694,
            "velocity": 0.3228346456692913,
            "duration": 0.08996049999999656
        },
        {
            "name": "C#4",
            "midi": 61,
            "time": 62.43258700000069,
            "velocity": 0.3228346456692913,
            "duration": 0.08996049999999656
        },
        {
            "name": "D#4",
            "midi": 63,
            "time": 62.43258700000069,
            "velocity": 0.3228346456692913,
            "duration": 0.08996049999999656
        },
        {
            "name": "D#4",
            "midi": 63,
            "time": 62.61250800000068,
            "velocity": 0.3228346456692913,
            "duration": 0.08996049999999656
        },
        {
            "name": "C#4",
            "midi": 61,
            "time": 62.61250800000068,
            "velocity": 0.3228346456692913,
            "duration": 0.08996049999999656
        },
        {
            "name": "C#4",
            "midi": 61,
            "time": 62.79242900000067,
            "velocity": 0.3228346456692913,
            "duration": 0.08996049999999656
        },
        {
            "name": "D#4",
            "midi": 63,
            "time": 62.79242900000067,
            "velocity": 0.3228346456692913,
            "duration": 0.08996049999999656
        },
        {
            "name": "D#4",
            "midi": 63,
            "time": 62.97235000000067,
            "velocity": 0.3228346456692913,
            "duration": 0.08996049999999656
        },
        {
            "name": "B3",
            "midi": 59,
            "time": 62.97235000000067,
            "velocity": 0.3228346456692913,
            "duration": 0.08996049999999656
        },
        {
            "name": "A#3",
            "midi": 58,
            "time": 63.15227100000066,
            "velocity": 0.31496062992125984,
            "duration": 0.08996049999999656
        },
        {
            "name": "D#4",
            "midi": 63,
            "time": 63.15227100000066,
            "velocity": 0.31496062992125984,
            "duration": 0.08996049999999656
        },
        {
            "name": "G#3",
            "midi": 56,
            "time": 63.33219200000065,
            "velocity": 0.3700787401574803,
            "duration": 0.17992100000000022
        },
        {
            "name": "G#2",
            "midi": 44,
            "time": 63.33219200000065,
            "velocity": 0.3700787401574803,
            "duration": 0.17992100000000022
        },
        {
            "name": "G#3",
            "midi": 56,
            "time": 63.51211300000065,
            "velocity": 0.33070866141732286,
            "duration": 0.08996049999999656
        },
        {
            "name": "G#3",
            "midi": 56,
            "time": 63.692034000000646,
            "velocity": 0.33070866141732286,
            "duration": 0.08996049999999656
        },
        {
            "name": "G#3",
            "midi": 56,
            "time": 63.87195500000064,
            "velocity": 0.33070866141732286,
            "duration": 0.08996049999999656
        },
        {
            "name": "G#3",
            "midi": 56,
            "time": 64.05187600000063,
            "velocity": 0.33858267716535434,
            "duration": 0.08996050000000366
        },
        {
            "name": "G#3",
            "midi": 56,
            "time": 64.23179700000064,
            "velocity": 0.33070866141732286,
            "duration": 0.08996050000000366
        },
        {
            "name": "A#3",
            "midi": 58,
            "time": 64.41171800000065,
            "velocity": 0.33858267716535434,
            "duration": 0.08996050000000366
        },
        {
            "name": "B3",
            "midi": 59,
            "time": 64.59163900000065,
            "velocity": 0.33858267716535434,
            "duration": 0.08996050000000366
        },
        {
            "name": "C#4",
            "midi": 61,
            "time": 64.77156000000066,
            "velocity": 0.3700787401574803,
            "duration": 0.17992099999999311
        },
        {
            "name": "D#3",
            "midi": 51,
            "time": 64.77156000000066,
            "velocity": 0.3700787401574803,
            "duration": 0.17992099999999311
        },
        {
            "name": "C#4",
            "midi": 61,
            "time": 64.95148100000065,
            "velocity": 0.3228346456692913,
            "duration": 0.08996050000000366
        },
        {
            "name": "D#4",
            "midi": 63,
            "time": 64.95148100000065,
            "velocity": 0.3228346456692913,
            "duration": 0.08996050000000366
        },
        {
            "name": "C#4",
            "midi": 61,
            "time": 65.13140200000066,
            "velocity": 0.33858267716535434,
            "duration": 0.08996050000000366
        },
        {
            "name": "D#4",
            "midi": 63,
            "time": 65.13140200000066,
            "velocity": 0.33858267716535434,
            "duration": 0.08996050000000366
        },
        {
            "name": "D#4",
            "midi": 63,
            "time": 65.31132300000067,
            "velocity": 0.33070866141732286,
            "duration": 0.08996050000000366
        },
        {
            "name": "C#4",
            "midi": 61,
            "time": 65.31132300000067,
            "velocity": 0.33070866141732286,
            "duration": 0.08996050000000366
        },
        {
            "name": "C#4",
            "midi": 61,
            "time": 65.49124400000068,
            "velocity": 0.33070866141732286,
            "duration": 0.08996050000000366
        },
        {
            "name": "D#4",
            "midi": 63,
            "time": 65.49124400000068,
            "velocity": 0.33070866141732286,
            "duration": 0.08996050000000366
        },
        {
            "name": "D#4",
            "midi": 63,
            "time": 65.67116500000068,
            "velocity": 0.33070866141732286,
            "duration": 0.08996050000000366
        },
        {
            "name": "C#4",
            "midi": 61,
            "time": 65.67116500000068,
            "velocity": 0.33070866141732286,
            "duration": 0.08996050000000366
        },
        {
            "name": "B3",
            "midi": 59,
            "time": 65.85108600000069,
            "velocity": 0.33070866141732286,
            "duration": 0.08996050000000366
        },
        {
            "name": "D#4",
            "midi": 63,
            "time": 65.85108600000069,
            "velocity": 0.33070866141732286,
            "duration": 0.08996050000000366
        },
        {
            "name": "D#4",
            "midi": 63,
            "time": 66.0310070000007,
            "velocity": 0.33070866141732286,
            "duration": 0.08996050000000366
        },
        {
            "name": "A#3",
            "midi": 58,
            "time": 66.0310070000007,
            "velocity": 0.33070866141732286,
            "duration": 0.08996050000000366
        },
        {
            "name": "G#2",
            "midi": 44,
            "time": 66.2109280000007,
            "velocity": 0.3779527559055118,
            "duration": 0.08996050000000366
        },
        {
            "name": "B3",
            "midi": 59,
            "time": 66.39084900000071,
            "velocity": 0.30708661417322836,
            "duration": 0.08996050000000366
        },
        {
            "name": "G#3",
            "midi": 56,
            "time": 66.39084900000071,
            "velocity": 0.30708661417322836,
            "duration": 0.08996050000000366
        },
        {
            "name": "G#3",
            "midi": 56,
            "time": 66.57077000000072,
            "velocity": 0.30708661417322836,
            "duration": 0.17992099999999311
        },
        {
            "name": "B3",
            "midi": 59,
            "time": 66.57077000000072,
            "velocity": 0.30708661417322836,
            "duration": 0.17992099999999311
        },
        {
            "name": "D#4",
            "midi": 63,
            "time": 66.75069100000071,
            "velocity": 0.30708661417322836,
            "duration": 0.17992099999999311
        },
        {
            "name": "B3",
            "midi": 59,
            "time": 66.75069100000071,
            "velocity": 0.30708661417322836,
            "duration": 0.17992099999999311
        },
        {
            "name": "C#3",
            "midi": 49,
            "time": 66.9306120000007,
            "velocity": 0.3700787401574803,
            "duration": 0.08996050000000366
        },
        {
            "name": "C#4",
            "midi": 61,
            "time": 67.11053300000071,
            "velocity": 0.33858267716535434,
            "duration": 0.08996050000000366
        },
        {
            "name": "G#3",
            "midi": 56,
            "time": 67.11053300000071,
            "velocity": 0.33858267716535434,
            "duration": 0.08996050000000366
        },
        {
            "name": "C#4",
            "midi": 61,
            "time": 67.29045400000072,
            "velocity": 0.33858267716535434,
            "duration": 0.17992099999999311
        },
        {
            "name": "G#3",
            "midi": 56,
            "time": 67.29045400000072,
            "velocity": 0.33858267716535434,
            "duration": 0.17992099999999311
        },
        {
            "name": "E4",
            "midi": 64,
            "time": 67.47037500000071,
            "velocity": 0.31496062992125984,
            "duration": 0.17992099999999311
        },
        {
            "name": "C#4",
            "midi": 61,
            "time": 67.47037500000071,
            "velocity": 0.31496062992125984,
            "duration": 0.17992099999999311
        },
        {
            "name": "D#3",
            "midi": 51,
            "time": 67.65029600000071,
            "velocity": 0.3700787401574803,
            "duration": 0.08996050000000366
        },
        {
            "name": "G#3",
            "midi": 56,
            "time": 67.83021700000072,
            "velocity": 0.3228346456692913,
            "duration": 0.08996050000000366
        },
        {
            "name": "B3",
            "midi": 59,
            "time": 67.83021700000072,
            "velocity": 0.3228346456692913,
            "duration": 0.08996050000000366
        },
        {
            "name": "B3",
            "midi": 59,
            "time": 68.01013800000072,
            "velocity": 0.33070866141732286,
            "duration": 0.17992099999999311
        },
        {
            "name": "G#3",
            "midi": 56,
            "time": 68.01013800000072,
            "velocity": 0.33070866141732286,
            "duration": 0.17992099999999311
        },
        {
            "name": "D#4",
            "midi": 63,
            "time": 68.19005900000072,
            "velocity": 0.30708661417322836,
            "duration": 0.17992099999999311
        },
        {
            "name": "B3",
            "midi": 59,
            "time": 68.19005900000072,
            "velocity": 0.30708661417322836,
            "duration": 0.17992099999999311
        },
        {
            "name": "D#3",
            "midi": 51,
            "time": 68.36998000000071,
            "velocity": 0.3700787401574803,
            "duration": 0.08996050000000366
        },
        {
            "name": "A#3",
            "midi": 58,
            "time": 68.54990100000072,
            "velocity": 0.30708661417322836,
            "duration": 0.08996050000000366
        },
        {
            "name": "G3",
            "midi": 55,
            "time": 68.54990100000072,
            "velocity": 0.30708661417322836,
            "duration": 0.08996050000000366
        },
        {
            "name": "A#3",
            "midi": 58,
            "time": 68.72982200000072,
            "velocity": 0.30708661417322836,
            "duration": 0.17992099999999311
        },
        {
            "name": "G3",
            "midi": 55,
            "time": 68.72982200000072,
            "velocity": 0.30708661417322836,
            "duration": 0.17992099999999311
        },
        {
            "name": "A#3",
            "midi": 58,
            "time": 68.90974300000072,
            "velocity": 0.30708661417322836,
            "duration": 0.17992099999999311
        },
        {
            "name": "D#4",
            "midi": 63,
            "time": 68.90974300000072,
            "velocity": 0.30708661417322836,
            "duration": 0.17992099999999311
        },
        {
            "name": "G#1",
            "midi": 32,
            "time": 69.08966400000071,
            "velocity": 0.33070866141732286,
            "duration": 0.17992099999999311
        },
        {
            "name": "G#2",
            "midi": 44,
            "time": 69.08966400000071,
            "velocity": 0.33070866141732286,
            "duration": 0.17992099999999311
        },
        {
            "name": "D#3",
            "midi": 51,
            "time": 69.2695850000007,
            "velocity": 0.3228346456692913,
            "duration": 0.08996050000000366
        },
        {
            "name": "G#2",
            "midi": 44,
            "time": 69.2695850000007,
            "velocity": 0.3228346456692913,
            "duration": 0.08996050000000366
        },
        {
            "name": "G#2",
            "midi": 44,
            "time": 69.44950600000071,
            "velocity": 0.33858267716535434,
            "duration": 0.08996050000000366
        },
        {
            "name": "D#3",
            "midi": 51,
            "time": 69.44950600000071,
            "velocity": 0.33858267716535434,
            "duration": 0.08996050000000366
        },
        {
            "name": "D#3",
            "midi": 51,
            "time": 69.62942700000072,
            "velocity": 0.3700787401574803,
            "duration": 0.08996050000000366
        },
        {
            "name": "G#2",
            "midi": 44,
            "time": 69.62942700000072,
            "velocity": 0.3700787401574803,
            "duration": 0.08996050000000366
        },
        {
            "name": "G#2",
            "midi": 44,
            "time": 69.80934800000072,
            "velocity": 0.3937007874015748,
            "duration": 0.08996050000000366
        },
        {
            "name": "D#3",
            "midi": 51,
            "time": 69.80934800000072,
            "velocity": 0.3937007874015748,
            "duration": 0.08996050000000366
        },
        {
            "name": "D#3",
            "midi": 51,
            "time": 69.98926900000073,
            "velocity": 0.4094488188976378,
            "duration": 0.08996050000000366
        },
        {
            "name": "G#2",
            "midi": 44,
            "time": 69.98926900000073,
            "velocity": 0.4094488188976378,
            "duration": 0.08996050000000366
        },
        {
            "name": "D#3",
            "midi": 51,
            "time": 70.16919000000074,
            "velocity": 0.44881889763779526,
            "duration": 0.08996050000000366
        },
        {
            "name": "A#2",
            "midi": 46,
            "time": 70.16919000000074,
            "velocity": 0.44881889763779526,
            "duration": 0.08996050000000366
        },
        {
            "name": "D#3",
            "midi": 51,
            "time": 70.34911100000075,
            "velocity": 0.4645669291338583,
            "duration": 0.08996050000000366
        },
        {
            "name": "B2",
            "midi": 47,
            "time": 70.34911100000075,
            "velocity": 0.4645669291338583,
            "duration": 0.08996050000000366
        },
        {
            "name": "D#3",
            "midi": 51,
            "time": 70.52903200000075,
            "velocity": 0.4881889763779528,
            "duration": 0.17992099999999311
        },
        {
            "name": "C#3",
            "midi": 49,
            "time": 70.52903200000075,
            "velocity": 0.4881889763779528,
            "duration": 0.17992099999999311
        },
        {
            "name": "D#2",
            "midi": 39,
            "time": 70.52903200000075,
            "velocity": 0.4094488188976378,
            "duration": 0.17992099999999311
        },
        {
            "name": "D#3",
            "midi": 51,
            "time": 70.70895300000075,
            "velocity": 0.4881889763779528,
            "duration": 0.08996050000000366
        },
        {
            "name": "C#4",
            "midi": 61,
            "time": 70.70895300000075,
            "velocity": 0.4881889763779528,
            "duration": 0.08996050000000366
        },
        {
            "name": "D#3",
            "midi": 51,
            "time": 70.88887400000075,
            "velocity": 0.5275590551181102,
            "duration": 0.08996050000000366
        },
        {
            "name": "C#4",
            "midi": 61,
            "time": 70.88887400000075,
            "velocity": 0.5275590551181102,
            "duration": 0.08996050000000366
        },
        {
            "name": "C#4",
            "midi": 61,
            "time": 71.06879500000076,
            "velocity": 0.49606299212598426,
            "duration": 0.08996050000000366
        },
        {
            "name": "D#3",
            "midi": 51,
            "time": 71.06879500000076,
            "velocity": 0.49606299212598426,
            "duration": 0.08996050000000366
        },
        {
            "name": "D#3",
            "midi": 51,
            "time": 71.24871600000077,
            "velocity": 0.5196850393700787,
            "duration": 0.08996050000000366
        },
        {
            "name": "C#4",
            "midi": 61,
            "time": 71.24871600000077,
            "velocity": 0.5196850393700787,
            "duration": 0.08996050000000366
        },
        {
            "name": "C#4",
            "midi": 61,
            "time": 71.42863700000078,
            "velocity": 0.4881889763779528,
            "duration": 0.08996050000000366
        },
        {
            "name": "D#3",
            "midi": 51,
            "time": 71.42863700000078,
            "velocity": 0.4881889763779528,
            "duration": 0.08996050000000366
        },
        {
            "name": "B3",
            "midi": 59,
            "time": 71.60855800000078,
            "velocity": 0.5275590551181102,
            "duration": 0.08996050000000366
        },
        {
            "name": "D#3",
            "midi": 51,
            "time": 71.60855800000078,
            "velocity": 0.5275590551181102,
            "duration": 0.08996050000000366
        },
        {
            "name": "A#3",
            "midi": 58,
            "time": 71.78847900000079,
            "velocity": 0.49606299212598426,
            "duration": 0.08996050000000366
        },
        {
            "name": "D#3",
            "midi": 51,
            "time": 71.78847900000079,
            "velocity": 0.49606299212598426,
            "duration": 0.08996050000000366
        },
        {
            "name": "G#1",
            "midi": 32,
            "time": 71.9684000000008,
            "velocity": 0.5433070866141733,
            "duration": 0.17992099999999311
        },
        {
            "name": "G#2",
            "midi": 44,
            "time": 71.9684000000008,
            "velocity": 0.5433070866141733,
            "duration": 0.17992099999999311
        },
        {
            "name": "D#3",
            "midi": 51,
            "time": 72.14832100000079,
            "velocity": 0.3228346456692913,
            "duration": 0.08996050000000366
        },
        {
            "name": "G#2",
            "midi": 44,
            "time": 72.14832100000079,
            "velocity": 0.3228346456692913,
            "duration": 0.08996050000000366
        },
        {
            "name": "D#3",
            "midi": 51,
            "time": 72.3282420000008,
            "velocity": 0.3464566929133858,
            "duration": 0.08996050000000366
        },
        {
            "name": "G#2",
            "midi": 44,
            "time": 72.3282420000008,
            "velocity": 0.3464566929133858,
            "duration": 0.08996050000000366
        },
        {
            "name": "G#2",
            "midi": 44,
            "time": 72.5081630000008,
            "velocity": 0.3779527559055118,
            "duration": 0.08996050000000366
        },
        {
            "name": "D#3",
            "midi": 51,
            "time": 72.5081630000008,
            "velocity": 0.3779527559055118,
            "duration": 0.08996050000000366
        },
        {
            "name": "D#3",
            "midi": 51,
            "time": 72.68808400000081,
            "velocity": 0.4015748031496063,
            "duration": 0.08996050000000366
        },
        {
            "name": "G#2",
            "midi": 44,
            "time": 72.68808400000081,
            "velocity": 0.4015748031496063,
            "duration": 0.08996050000000366
        },
        {
            "name": "D#3",
            "midi": 51,
            "time": 72.86800500000082,
            "velocity": 0.4409448818897638,
            "duration": 0.08996050000000366
        },
        {
            "name": "G#2",
            "midi": 44,
            "time": 72.86800500000082,
            "velocity": 0.4409448818897638,
            "duration": 0.08996050000000366
        },
        {
            "name": "A#2",
            "midi": 46,
            "time": 73.04792600000083,
            "velocity": 0.4566929133858268,
            "duration": 0.08996050000000366
        },
        {
            "name": "D#3",
            "midi": 51,
            "time": 73.04792600000083,
            "velocity": 0.4566929133858268,
            "duration": 0.08996050000000366
        },
        {
            "name": "D#3",
            "midi": 51,
            "time": 73.22784700000084,
            "velocity": 0.4881889763779528,
            "duration": 0.08996050000000366
        },
        {
            "name": "B2",
            "midi": 47,
            "time": 73.22784700000084,
            "velocity": 0.4881889763779528,
            "duration": 0.08996050000000366
        },
        {
            "name": "D#2",
            "midi": 39,
            "time": 73.40776800000084,
            "velocity": 0.5196850393700787,
            "duration": 0.17992099999999311
        },
        {
            "name": "C#3",
            "midi": 49,
            "time": 73.40776800000084,
            "velocity": 0.5196850393700787,
            "duration": 0.17992099999999311
        },
        {
            "name": "D#3",
            "midi": 51,
            "time": 73.40776800000084,
            "velocity": 0.5196850393700787,
            "duration": 0.17992099999999311
        },
        {
            "name": "D#3",
            "midi": 51,
            "time": 73.58768900000084,
            "velocity": 0.49606299212598426,
            "duration": 0.08996050000000366
        },
        {
            "name": "C#4",
            "midi": 61,
            "time": 73.58768900000084,
            "velocity": 0.49606299212598426,
            "duration": 0.08996050000000366
        },
        {
            "name": "D#3",
            "midi": 51,
            "time": 73.76761000000084,
            "velocity": 0.5275590551181102,
            "duration": 0.08996050000000366
        },
        {
            "name": "C#4",
            "midi": 61,
            "time": 73.76761000000084,
            "velocity": 0.5275590551181102,
            "duration": 0.08996050000000366
        },
        {
            "name": "C#4",
            "midi": 61,
            "time": 73.94753100000085,
            "velocity": 0.4881889763779528,
            "duration": 0.08996050000000366
        },
        {
            "name": "D#3",
            "midi": 51,
            "time": 73.94753100000085,
            "velocity": 0.4881889763779528,
            "duration": 0.08996050000000366
        },
        {
            "name": "D#3",
            "midi": 51,
            "time": 74.12745200000086,
            "velocity": 0.5275590551181102,
            "duration": 0.08996050000000366
        },
        {
            "name": "C#4",
            "midi": 61,
            "time": 74.12745200000086,
            "velocity": 0.5275590551181102,
            "duration": 0.08996050000000366
        },
        {
            "name": "C#4",
            "midi": 61,
            "time": 74.30737300000087,
            "velocity": 0.49606299212598426,
            "duration": 0.08996050000000366
        },
        {
            "name": "D#3",
            "midi": 51,
            "time": 74.30737300000087,
            "velocity": 0.49606299212598426,
            "duration": 0.08996050000000366
        },
        {
            "name": "B3",
            "midi": 59,
            "time": 74.48729400000087,
            "velocity": 0.5275590551181102,
            "duration": 0.08996050000000366
        },
        {
            "name": "D#3",
            "midi": 51,
            "time": 74.48729400000087,
            "velocity": 0.5275590551181102,
            "duration": 0.08996050000000366
        },
        {
            "name": "A#3",
            "midi": 58,
            "time": 74.66721500000088,
            "velocity": 0.5275590551181102,
            "duration": 0.08996050000000366
        },
        {
            "name": "D#3",
            "midi": 51,
            "time": 74.66721500000088,
            "velocity": 0.5275590551181102,
            "duration": 0.08996050000000366
        },
        {
            "name": "G#2",
            "midi": 44,
            "time": 74.84713600000089,
            "velocity": 0.5433070866141733,
            "duration": 0.17992099999999311
        },
        {
            "name": "G#3",
            "midi": 56,
            "time": 74.84713600000089,
            "velocity": 0.5433070866141733,
            "duration": 0.17992099999999311
        },
        {
            "name": "B3",
            "midi": 59,
            "time": 75.02705700000088,
            "velocity": 0.33858267716535434,
            "duration": 0.08996050000000366
        },
        {
            "name": "D#4",
            "midi": 63,
            "time": 75.02705700000088,
            "velocity": 0.33858267716535434,
            "duration": 0.08996050000000366
        },
        {
            "name": "B3",
            "midi": 59,
            "time": 75.20697800000089,
            "velocity": 0.3228346456692913,
            "duration": 0.17992099999999311
        },
        {
            "name": "D#4",
            "midi": 63,
            "time": 75.20697800000089,
            "velocity": 0.3228346456692913,
            "duration": 0.17992099999999311
        },
        {
            "name": "G#3",
            "midi": 56,
            "time": 75.38689900000088,
            "velocity": 0.30708661417322836,
            "duration": 0.17992099999999311
        },
        {
            "name": "B3",
            "midi": 59,
            "time": 75.38689900000088,
            "velocity": 0.30708661417322836,
            "duration": 0.17992099999999311
        },
        {
            "name": "C#3",
            "midi": 49,
            "time": 75.56682000000087,
            "velocity": 0.3779527559055118,
            "duration": 0.08996050000000366
        },
        {
            "name": "E4",
            "midi": 64,
            "time": 75.74674100000088,
            "velocity": 0.33070866141732286,
            "duration": 0.08996050000000366
        },
        {
            "name": "C#4",
            "midi": 61,
            "time": 75.74674100000088,
            "velocity": 0.33070866141732286,
            "duration": 0.08996050000000366
        },
        {
            "name": "E4",
            "midi": 64,
            "time": 75.92666200000089,
            "velocity": 0.33070866141732286,
            "duration": 0.17992099999999311
        },
        {
            "name": "C#4",
            "midi": 61,
            "time": 75.92666200000089,
            "velocity": 0.33070866141732286,
            "duration": 0.17992099999999311
        },
        {
            "name": "C#4",
            "midi": 61,
            "time": 76.10658300000088,
            "velocity": 0.30708661417322836,
            "duration": 0.17992099999999311
        },
        {
            "name": "G#3",
            "midi": 56,
            "time": 76.10658300000088,
            "velocity": 0.30708661417322836,
            "duration": 0.17992099999999311
        },
        {
            "name": "D#3",
            "midi": 51,
            "time": 76.28650400000087,
            "velocity": 0.3779527559055118,
            "duration": 0.08996050000000366
        },
        {
            "name": "B3",
            "midi": 59,
            "time": 76.46642500000088,
            "velocity": 0.33070866141732286,
            "duration": 0.08996050000000366
        },
        {
            "name": "D#4",
            "midi": 63,
            "time": 76.46642500000088,
            "velocity": 0.33070866141732286,
            "duration": 0.08996050000000366
        },
        {
            "name": "B3",
            "midi": 59,
            "time": 76.64634600000089,
            "velocity": 0.33070866141732286,
            "duration": 0.17992099999999311
        },
        {
            "name": "D#4",
            "midi": 63,
            "time": 76.64634600000089,
            "velocity": 0.33070866141732286,
            "duration": 0.17992099999999311
        },
        {
            "name": "G#3",
            "midi": 56,
            "time": 76.82626700000088,
            "velocity": 0.30708661417322836,
            "duration": 0.17992099999999311
        },
        {
            "name": "B3",
            "midi": 59,
            "time": 76.82626700000088,
            "velocity": 0.30708661417322836,
            "duration": 0.17992099999999311
        },
        {
            "name": "C#3",
            "midi": 49,
            "time": 77.00618800000088,
            "velocity": 0.3858267716535433,
            "duration": 0.08996050000000366
        },
        {
            "name": "D#4",
            "midi": 63,
            "time": 77.18610900000088,
            "velocity": 0.33070866141732286,
            "duration": 0.08996050000000366
        },
        {
            "name": "A#3",
            "midi": 58,
            "time": 77.18610900000088,
            "velocity": 0.33070866141732286,
            "duration": 0.08996050000000366
        },
        {
            "name": "D#4",
            "midi": 63,
            "time": 77.36603000000089,
            "velocity": 0.33070866141732286,
            "duration": 0.17992099999999311
        },
        {
            "name": "A#3",
            "midi": 58,
            "time": 77.36603000000089,
            "velocity": 0.33070866141732286,
            "duration": 0.17992099999999311
        },
        {
            "name": "A#3",
            "midi": 58,
            "time": 77.54595100000088,
            "velocity": 0.31496062992125984,
            "duration": 0.17992099999999311
        },
        {
            "name": "G3",
            "midi": 55,
            "time": 77.54595100000088,
            "velocity": 0.31496062992125984,
            "duration": 0.17992099999999311
        },
        {
            "name": "B2",
            "midi": 47,
            "time": 77.72587200000088,
            "velocity": 0.3543307086614173,
            "duration": 0.17992099999999311
        },
        {
            "name": "G#4",
            "midi": 68,
            "time": 77.90579300000087,
            "velocity": 0.30708661417322836,
            "duration": 0.08996050000000366
        },
        {
            "name": "D#4",
            "midi": 63,
            "time": 77.90579300000087,
            "velocity": 0.30708661417322836,
            "duration": 0.08996050000000366
        },
        {
            "name": "D#4",
            "midi": 63,
            "time": 78.08571400000088,
            "velocity": 0.3228346456692913,
            "duration": 0.17992099999999311
        },
        {
            "name": "G#4",
            "midi": 68,
            "time": 78.08571400000088,
            "velocity": 0.3228346456692913,
            "duration": 0.17992099999999311
        },
        {
            "name": "D#4",
            "midi": 63,
            "time": 78.26563500000087,
            "velocity": 0.3228346456692913,
            "duration": 0.17992099999999311
        },
        {
            "name": "B3",
            "midi": 59,
            "time": 78.26563500000087,
            "velocity": 0.3228346456692913,
            "duration": 0.17992099999999311
        },
        {
            "name": "C#3",
            "midi": 49,
            "time": 78.44555600000086,
            "velocity": 0.3937007874015748,
            "duration": 0.17992099999999311
        },
        {
            "name": "E4",
            "midi": 64,
            "time": 78.62547700000086,
            "velocity": 0.3700787401574803,
            "duration": 0.08996050000000366
        },
        {
            "name": "A4",
            "midi": 69,
            "time": 78.62547700000086,
            "velocity": 0.3700787401574803,
            "duration": 0.08996050000000366
        },
        {
            "name": "A4",
            "midi": 69,
            "time": 78.80539800000086,
            "velocity": 0.3543307086614173,
            "duration": 0.17992099999999311
        },
        {
            "name": "E4",
            "midi": 64,
            "time": 78.80539800000086,
            "velocity": 0.3543307086614173,
            "duration": 0.17992099999999311
        },
        {
            "name": "E4",
            "midi": 64,
            "time": 78.98531900000086,
            "velocity": 0.3543307086614173,
            "duration": 0.17992099999999311
        },
        {
            "name": "C#4",
            "midi": 61,
            "time": 78.98531900000086,
            "velocity": 0.3543307086614173,
            "duration": 0.17992099999999311
        },
        {
            "name": "D#3",
            "midi": 51,
            "time": 79.16524000000085,
            "velocity": 0.4094488188976378,
            "duration": 0.17992099999999311
        },
        {
            "name": "G#4",
            "midi": 68,
            "time": 79.34516100000084,
            "velocity": 0.3779527559055118,
            "duration": 0.08996050000000366
        },
        {
            "name": "D#4",
            "midi": 63,
            "time": 79.34516100000084,
            "velocity": 0.3779527559055118,
            "duration": 0.08996050000000366
        },
        {
            "name": "D#4",
            "midi": 63,
            "time": 79.52508200000085,
            "velocity": 0.3779527559055118,
            "duration": 0.17992099999999311
        },
        {
            "name": "G#4",
            "midi": 68,
            "time": 79.52508200000085,
            "velocity": 0.3779527559055118,
            "duration": 0.17992099999999311
        },
        {
            "name": "D#4",
            "midi": 63,
            "time": 79.70500300000084,
            "velocity": 0.3543307086614173,
            "duration": 0.17992099999999311
        },
        {
            "name": "B3",
            "midi": 59,
            "time": 79.70500300000084,
            "velocity": 0.3543307086614173,
            "duration": 0.17992099999999311
        },
        {
            "name": "D#3",
            "midi": 51,
            "time": 79.88492400000084,
            "velocity": 0.4015748031496063,
            "duration": 0.17992099999999311
        },
        {
            "name": "G4",
            "midi": 67,
            "time": 80.06484500000083,
            "velocity": 0.33858267716535434,
            "duration": 0.08996050000000366
        },
        {
            "name": "C#4",
            "midi": 61,
            "time": 80.06484500000083,
            "velocity": 0.33858267716535434,
            "duration": 0.08996050000000366
        },
        {
            "name": "C#4",
            "midi": 61,
            "time": 80.24476600000084,
            "velocity": 0.33858267716535434,
            "duration": 0.17992099999999311
        },
        {
            "name": "G4",
            "midi": 67,
            "time": 80.24476600000084,
            "velocity": 0.33858267716535434,
            "duration": 0.17992099999999311
        },
        {
            "name": "C#4",
            "midi": 61,
            "time": 80.42468700000083,
            "velocity": 0.2755905511811024,
            "duration": 0.17992099999999311
        },
        {
            "name": "A#3",
            "midi": 58,
            "time": 80.42468700000083,
            "velocity": 0.2755905511811024,
            "duration": 0.17992099999999311
        },
        {
            "name": "G#2",
            "midi": 44,
            "time": 80.60460800000082,
            "velocity": 0.3228346456692913,
            "duration": 0.08921082916666023
        },
        {
            "name": "G#3",
            "midi": 56,
            "time": 80.69456850000081,
            "velocity": 0.25984251968503935,
            "duration": 0.08921082916666023
        },
        {
            "name": "D#3",
            "midi": 51,
            "time": 80.7845290000008,
            "velocity": 0.28346456692913385,
            "duration": 0.08921082916666023
        },
        {
            "name": "G#3",
            "midi": 56,
            "time": 80.87448950000079,
            "velocity": 0.25196850393700787,
            "duration": 0.08921082916666023
        },
        {
            "name": "G#2",
            "midi": 44,
            "time": 80.96445000000078,
            "velocity": 0.3228346456692913,
            "duration": 0.08921082916666023
        },
        {
            "name": "G#3",
            "midi": 56,
            "time": 81.05441050000077,
            "velocity": 0.25984251968503935,
            "duration": 0.08921082916666023
        },
        {
            "name": "D#3",
            "midi": 51,
            "time": 81.14437100000076,
            "velocity": 0.28346456692913385,
            "duration": 0.08921082916666023
        },
        {
            "name": "G#3",
            "midi": 56,
            "time": 81.23433150000075,
            "velocity": 0.25984251968503935,
            "duration": 0.08921082916666023
        },
        {
            "name": "G#2",
            "midi": 44,
            "time": 81.32429200000074,
            "velocity": 0.3228346456692913,
            "duration": 0.08921082916666023
        },
        {
            "name": "G#3",
            "midi": 56,
            "time": 81.41425250000073,
            "velocity": 0.25984251968503935,
            "duration": 0.08921082916666023
        },
        {
            "name": "D#3",
            "midi": 51,
            "time": 81.50421300000072,
            "velocity": 0.29133858267716534,
            "duration": 0.08921082916666023
        },
        {
            "name": "G#3",
            "midi": 56,
            "time": 81.59417350000071,
            "velocity": 0.25984251968503935,
            "duration": 0.08921082916666023
        },
        {
            "name": "G#2",
            "midi": 44,
            "time": 81.6841340000007,
            "velocity": 0.3228346456692913,
            "duration": 0.08921082916666023
        },
        {
            "name": "G#3",
            "midi": 56,
            "time": 81.77409450000069,
            "velocity": 0.25984251968503935,
            "duration": 0.08921082916666023
        },
        {
            "name": "D#3",
            "midi": 51,
            "time": 81.86405500000068,
            "velocity": 0.29133858267716534,
            "duration": 0.08921082916666023
        },
        {
            "name": "G#3",
            "midi": 56,
            "time": 81.95401550000066,
            "velocity": 0.25984251968503935,
            "duration": 0.08921082916666023
        },
        {
            "name": "G#2",
            "midi": 44,
            "time": 82.04397600000065,
            "velocity": 0.3228346456692913,
            "duration": 0.08921082916666023
        },
        {
            "name": "A#3",
            "midi": 58,
            "time": 82.13393650000064,
            "velocity": 0.25984251968503935,
            "duration": 0.08921082916666023
        },
        {
            "name": "D#3",
            "midi": 51,
            "time": 82.22389700000063,
            "velocity": 0.2992125984251969,
            "duration": 0.08921082916666023
        },
        {
            "name": "A#3",
            "midi": 58,
            "time": 82.31385750000062,
            "velocity": 0.25984251968503935,
            "duration": 0.08921082916666023
        },
        {
            "name": "G#2",
            "midi": 44,
            "time": 82.40381800000061,
            "velocity": 0.3228346456692913,
            "duration": 0.08921082916666023
        },
        {
            "name": "A#3",
            "midi": 58,
            "time": 82.4937785000006,
            "velocity": 0.25984251968503935,
            "duration": 0.08921082916666023
        },
        {
            "name": "D#3",
            "midi": 51,
            "time": 82.58373900000059,
            "velocity": 0.29133858267716534,
            "duration": 0.08921082916666023
        },
        {
            "name": "A#3",
            "midi": 58,
            "time": 82.67369950000058,
            "velocity": 0.25984251968503935,
            "duration": 0.08921082916666023
        },
        {
            "name": "G#2",
            "midi": 44,
            "time": 82.76366000000057,
            "velocity": 0.3228346456692913,
            "duration": 0.08921082916666023
        },
        {
            "name": "A#3",
            "midi": 58,
            "time": 82.85362050000056,
            "velocity": 0.2677165354330709,
            "duration": 0.08921082916666023
        },
        {
            "name": "D#3",
            "midi": 51,
            "time": 82.94358100000055,
            "velocity": 0.2992125984251969,
            "duration": 0.08921082916666023
        },
        {
            "name": "A#3",
            "midi": 58,
            "time": 83.03354150000054,
            "velocity": 0.2677165354330709,
            "duration": 0.08921082916666023
        },
        {
            "name": "G#2",
            "midi": 44,
            "time": 83.12350200000053,
            "velocity": 0.3228346456692913,
            "duration": 0.08921082916666023
        },
        {
            "name": "A#3",
            "midi": 58,
            "time": 83.21346250000052,
            "velocity": 0.2677165354330709,
            "duration": 0.08921082916666023
        },
        {
            "name": "D#3",
            "midi": 51,
            "time": 83.3034230000005,
            "velocity": 0.28346456692913385,
            "duration": 0.08921082916666023
        },
        {
            "name": "A#3",
            "midi": 58,
            "time": 83.3933835000005,
            "velocity": 0.25984251968503935,
            "duration": 0.08921082916666023
        },
        {
            "name": "G#2",
            "midi": 44,
            "time": 83.48334400000049,
            "velocity": 0.3228346456692913,
            "duration": 0.08921082916666023
        },
        {
            "name": "G#3",
            "midi": 56,
            "time": 83.57330450000048,
            "velocity": 0.25984251968503935,
            "duration": 0.08921082916666023
        },
        {
            "name": "D#3",
            "midi": 51,
            "time": 83.66326500000046,
            "velocity": 0.29133858267716534,
            "duration": 0.08921082916666023
        },
        {
            "name": "G#3",
            "midi": 56,
            "time": 83.75322550000045,
            "velocity": 0.25984251968503935,
            "duration": 0.08921082916666023
        },
        {
            "name": "G#2",
            "midi": 44,
            "time": 83.84318600000044,
            "velocity": 0.3228346456692913,
            "duration": 0.08921082916666023
        },
        {
            "name": "G#3",
            "midi": 56,
            "time": 83.93314650000043,
            "velocity": 0.2677165354330709,
            "duration": 0.08921082916666023
        },
        {
            "name": "D#3",
            "midi": 51,
            "time": 84.02310700000042,
            "velocity": 0.2992125984251969,
            "duration": 0.08921082916666023
        },
        {
            "name": "G#3",
            "midi": 56,
            "time": 84.11306750000041,
            "velocity": 0.2677165354330709,
            "duration": 0.08921082916666023
        },
        {
            "name": "G#2",
            "midi": 44,
            "time": 84.2030280000004,
            "velocity": 0.3228346456692913,
            "duration": 0.08921082916666023
        },
        {
            "name": "G#3",
            "midi": 56,
            "time": 84.29298850000039,
            "velocity": 0.2677165354330709,
            "duration": 0.08921082916666023
        },
        {
            "name": "D#3",
            "midi": 51,
            "time": 84.38294900000038,
            "velocity": 0.2992125984251969,
            "duration": 0.08921082916666023
        },
        {
            "name": "G#3",
            "midi": 56,
            "time": 84.47290950000037,
            "velocity": 0.2677165354330709,
            "duration": 0.08921082916666023
        },
        {
            "name": "G#2",
            "midi": 44,
            "time": 84.56287000000036,
            "velocity": 0.3228346456692913,
            "duration": 0.08921082916666023
        },
        {
            "name": "G#3",
            "midi": 56,
            "time": 84.65283050000035,
            "velocity": 0.25984251968503935,
            "duration": 0.08921082916666023
        },
        {
            "name": "D#3",
            "midi": 51,
            "time": 84.74279100000034,
            "velocity": 0.28346456692913385,
            "duration": 0.08921082916666023
        },
        {
            "name": "G#3",
            "midi": 56,
            "time": 84.83275150000033,
            "velocity": 0.25984251968503935,
            "duration": 0.08921082916666023
        },
        {
            "name": "G#2",
            "midi": 44,
            "time": 84.92271200000032,
            "velocity": 0.3228346456692913,
            "duration": 0.08921082916666023
        },
        {
            "name": "A#3",
            "midi": 58,
            "time": 85.0126725000003,
            "velocity": 0.28346456692913385,
            "duration": 0.08921082916666023
        },
        {
            "name": "D#3",
            "midi": 51,
            "time": 85.1026330000003,
            "velocity": 0.28346456692913385,
            "duration": 0.08921082916666023
        },
        {
            "name": "A#3",
            "midi": 58,
            "time": 85.19259350000029,
            "velocity": 0.2677165354330709,
            "duration": 0.08921082916666023
        },
        {
            "name": "G#2",
            "midi": 44,
            "time": 85.28255400000027,
            "velocity": 0.3228346456692913,
            "duration": 0.08921082916666023
        },
        {
            "name": "A#3",
            "midi": 58,
            "time": 85.37251450000026,
            "velocity": 0.2677165354330709,
            "duration": 0.08921082916666023
        },
        {
            "name": "D#3",
            "midi": 51,
            "time": 85.46247500000025,
            "velocity": 0.28346456692913385,
            "duration": 0.08921082916666023
        },
        {
            "name": "A#3",
            "midi": 58,
            "time": 85.55243550000024,
            "velocity": 0.25984251968503935,
            "duration": 0.08921082916666023
        },
        {
            "name": "G#2",
            "midi": 44,
            "time": 85.64239600000023,
            "velocity": 0.3228346456692913,
            "duration": 0.08921082916666023
        },
        {
            "name": "A#3",
            "midi": 58,
            "time": 85.73235650000022,
            "velocity": 0.2677165354330709,
            "duration": 0.08921082916666023
        },
        {
            "name": "D#3",
            "midi": 51,
            "time": 85.82231700000021,
            "velocity": 0.28346456692913385,
            "duration": 0.08921082916666023
        },
        {
            "name": "A#3",
            "midi": 58,
            "time": 85.9122775000002,
            "velocity": 0.25984251968503935,
            "duration": 0.08921082916666023
        },
        {
            "name": "G#2",
            "midi": 44,
            "time": 86.00223800000019,
            "velocity": 0.3228346456692913,
            "duration": 0.08921082916666023
        },
        {
            "name": "A#3",
            "midi": 58,
            "time": 86.09219850000018,
            "velocity": 0.2677165354330709,
            "duration": 0.08921082916666023
        },
        {
            "name": "D#3",
            "midi": 51,
            "time": 86.18215900000017,
            "velocity": 0.30708661417322836,
            "duration": 0.08921082916666023
        },
        {
            "name": "A#3",
            "midi": 58,
            "time": 86.27211950000016,
            "velocity": 0.2677165354330709,
            "duration": 0.08921082916666023
        },
        {
            "name": "G#2",
            "midi": 44,
            "time": 86.36208000000015,
            "velocity": 0.3228346456692913,
            "duration": 0.08921082916666023
        },
        {
            "name": "G#3",
            "midi": 56,
            "time": 86.45204050000014,
            "velocity": 0.25984251968503935,
            "duration": 0.08921082916666023
        },
        {
            "name": "D#3",
            "midi": 51,
            "time": 86.54200100000013,
            "velocity": 0.28346456692913385,
            "duration": 0.08921082916666023
        },
        {
            "name": "G#3",
            "midi": 56,
            "time": 86.63196150000012,
            "velocity": 0.25984251968503935,
            "duration": 0.08921082916666023
        },
        {
            "name": "G#2",
            "midi": 44,
            "time": 86.7219220000001,
            "velocity": 0.33070866141732286,
            "duration": 0.08921082916666023
        },
        {
            "name": "G#3",
            "midi": 56,
            "time": 86.8118825000001,
            "velocity": 0.25984251968503935,
            "duration": 0.08921082916666023
        },
        {
            "name": "D#3",
            "midi": 51,
            "time": 86.90184300000008,
            "velocity": 0.2755905511811024,
            "duration": 0.08921082916666023
        },
        {
            "name": "G#3",
            "midi": 56,
            "time": 86.99180350000007,
            "velocity": 0.25984251968503935,
            "duration": 0.08921082916666023
        },
        {
            "name": "G#2",
            "midi": 44,
            "time": 87.08176400000006,
            "velocity": 0.3228346456692913,
            "duration": 0.08921082916666023
        },
        {
            "name": "A#3",
            "midi": 58,
            "time": 87.17172450000005,
            "velocity": 0.2677165354330709,
            "duration": 0.08921082916666023
        },
        {
            "name": "D#3",
            "midi": 51,
            "time": 87.26168500000004,
            "velocity": 0.29133858267716534,
            "duration": 0.08921082916666023
        },
        {
            "name": "A#3",
            "midi": 58,
            "time": 87.35164550000003,
            "velocity": 0.29133858267716534,
            "duration": 0.08921082916666023
        },
        {
            "name": "G#2",
            "midi": 44,
            "time": 87.44160600000002,
            "velocity": 0.3228346456692913,
            "duration": 0.08921082916666023
        },
        {
            "name": "A#3",
            "midi": 58,
            "time": 87.53156650000001,
            "velocity": 0.2677165354330709,
            "duration": 0.08921082916666023
        },
        {
            "name": "D#3",
            "midi": 51,
            "time": 87.621527,
            "velocity": 0.2992125984251969,
            "duration": 0.08921082916666023
        },
        {
            "name": "A#3",
            "midi": 58,
            "time": 87.71148749999999,
            "velocity": 0.2677165354330709,
            "duration": 0.08921082916666023
        },
        {
            "name": "G#2",
            "midi": 44,
            "time": 87.80144799999998,
            "velocity": 0.3228346456692913,
            "duration": 0.08921082916666023
        },
        {
            "name": "G#3",
            "midi": 56,
            "time": 87.89140849999997,
            "velocity": 0.25984251968503935,
            "duration": 0.08921082916666023
        },
        {
            "name": "D#3",
            "midi": 51,
            "time": 87.98136899999996,
            "velocity": 0.28346456692913385,
            "duration": 0.08921082916666023
        },
        {
            "name": "G#3",
            "midi": 56,
            "time": 88.07132949999995,
            "velocity": 0.25984251968503935,
            "duration": 0.08921082916666023
        },
        {
            "name": "G#2",
            "midi": 44,
            "time": 88.16128999999994,
            "velocity": 0.3228346456692913,
            "duration": 0.08921082916666023
        },
        {
            "name": "G#3",
            "midi": 56,
            "time": 88.25125049999993,
            "velocity": 0.25984251968503935,
            "duration": 0.08921082916666023
        },
        {
            "name": "D#3",
            "midi": 51,
            "time": 88.34121099999992,
            "velocity": 0.28346456692913385,
            "duration": 0.08921082916666023
        },
        {
            "name": "G#3",
            "midi": 56,
            "time": 88.4311714999999,
            "velocity": 0.25984251968503935,
            "duration": 0.08921082916666023
        },
        {
            "name": "G#2",
            "midi": 44,
            "time": 88.5211319999999,
            "velocity": 0.3228346456692913,
            "duration": 0.08921082916666023
        },
        {
            "name": "A#3",
            "midi": 58,
            "time": 88.61109249999988,
            "velocity": 0.2677165354330709,
            "duration": 0.08921082916666023
        },
        {
            "name": "D#3",
            "midi": 51,
            "time": 88.70105299999987,
            "velocity": 0.29133858267716534,
            "duration": 0.08921082916666023
        },
        {
            "name": "A#3",
            "midi": 58,
            "time": 88.79101349999986,
            "velocity": 0.25984251968503935,
            "duration": 0.08921082916666023
        },
        {
            "name": "G#2",
            "midi": 44,
            "time": 88.88097399999985,
            "velocity": 0.3228346456692913,
            "duration": 0.08921082916666023
        },
        {
            "name": "A#3",
            "midi": 58,
            "time": 88.97093449999984,
            "velocity": 0.2677165354330709,
            "duration": 0.08921082916666023
        },
        {
            "name": "D#3",
            "midi": 51,
            "time": 89.06089499999983,
            "velocity": 0.29133858267716534,
            "duration": 0.08921082916666023
        },
        {
            "name": "A#3",
            "midi": 58,
            "time": 89.15085549999982,
            "velocity": 0.2677165354330709,
            "duration": 0.08921082916666023
        },
        {
            "name": "G#2",
            "midi": 44,
            "time": 89.24081599999981,
            "velocity": 0.33070866141732286,
            "duration": 0.08921082916666023
        },
        {
            "name": "G#3",
            "midi": 56,
            "time": 89.3307764999998,
            "velocity": 0.3228346456692913,
            "duration": 0.08921082916666023
        },
        {
            "name": "D#3",
            "midi": 51,
            "time": 89.42073699999979,
            "velocity": 0.33070866141732286,
            "duration": 0.08921082916666023
        },
        {
            "name": "G#3",
            "midi": 56,
            "time": 89.51069749999978,
            "velocity": 0.31496062992125984,
            "duration": 0.08921082916666023
        },
        {
            "name": "G#2",
            "midi": 44,
            "time": 89.60065799999977,
            "velocity": 0.33858267716535434,
            "duration": 0.08921082916666023
        },
        {
            "name": "G#3",
            "midi": 56,
            "time": 89.69061849999976,
            "velocity": 0.3464566929133858,
            "duration": 0.08921082916666023
        },
        {
            "name": "D#3",
            "midi": 51,
            "time": 89.78057899999975,
            "velocity": 0.3543307086614173,
            "duration": 0.08921082916666023
        },
        {
            "name": "G#3",
            "midi": 56,
            "time": 89.87053949999974,
            "velocity": 0.33858267716535434,
            "duration": 0.08921082916666023
        },
        {
            "name": "G#2",
            "midi": 44,
            "time": 89.96049999999973,
            "velocity": 0.3700787401574803,
            "duration": 0.08921082916666023
        },
        {
            "name": "G#3",
            "midi": 56,
            "time": 90.05046049999972,
            "velocity": 0.3779527559055118,
            "duration": 0.08921082916666023
        },
        {
            "name": "D#3",
            "midi": 51,
            "time": 90.1404209999997,
            "velocity": 0.3779527559055118,
            "duration": 0.08921082916666023
        },
        {
            "name": "G#3",
            "midi": 56,
            "time": 90.2303814999997,
            "velocity": 0.3858267716535433,
            "duration": 0.08921082916666023
        },
        {
            "name": "G#2",
            "midi": 44,
            "time": 90.32034199999968,
            "velocity": 0.4015748031496063,
            "duration": 0.08921082916666023
        },
        {
            "name": "G#3",
            "midi": 56,
            "time": 90.41030249999967,
            "velocity": 0.4015748031496063,
            "duration": 0.08921082916666023
        },
        {
            "name": "D#3",
            "midi": 51,
            "time": 90.50026299999966,
            "velocity": 0.4094488188976378,
            "duration": 0.08921082916666023
        },
        {
            "name": "G#3",
            "midi": 56,
            "time": 90.59022349999965,
            "velocity": 0.3700787401574803,
            "duration": 0.08921082916666023
        },
        {
            "name": "G#2",
            "midi": 44,
            "time": 90.68018399999964,
            "velocity": 0.41732283464566927,
            "duration": 0.08921082916666023
        },
        {
            "name": "F#3",
            "midi": 54,
            "time": 90.77014449999963,
            "velocity": 0.4409448818897638,
            "duration": 0.08921082916666023
        },
        {
            "name": "D#3",
            "midi": 51,
            "time": 90.86010499999962,
            "velocity": 0.4409448818897638,
            "duration": 0.08921082916666023
        },
        {
            "name": "F#3",
            "midi": 54,
            "time": 90.95006549999961,
            "velocity": 0.4015748031496063,
            "duration": 0.08921082916666023
        },
        {
            "name": "G#2",
            "midi": 44,
            "time": 91.0400259999996,
            "velocity": 0.44881889763779526,
            "duration": 0.08921082916666023
        },
        {
            "name": "F#3",
            "midi": 54,
            "time": 91.12998649999959,
            "velocity": 0.4566929133858268,
            "duration": 0.08921082916666023
        },
        {
            "name": "D#3",
            "midi": 51,
            "time": 91.21994699999958,
            "velocity": 0.47244094488188976,
            "duration": 0.08921082916666023
        },
        {
            "name": "F#3",
            "midi": 54,
            "time": 91.30990749999957,
            "velocity": 0.4409448818897638,
            "duration": 0.08921082916666023
        },
        {
            "name": "G#2",
            "midi": 44,
            "time": 91.39986799999956,
            "velocity": 0.4881889763779528,
            "duration": 0.08921082916666023
        },
        {
            "name": "F#3",
            "midi": 54,
            "time": 91.48982849999955,
            "velocity": 0.4881889763779528,
            "duration": 0.08921082916666023
        },
        {
            "name": "D#3",
            "midi": 51,
            "time": 91.57978899999954,
            "velocity": 0.49606299212598426,
            "duration": 0.08921082916666023
        },
        {
            "name": "F#3",
            "midi": 54,
            "time": 91.66974949999953,
            "velocity": 0.44881889763779526,
            "duration": 0.08921082916666023
        },
        {
            "name": "G#2",
            "midi": 44,
            "time": 91.75970999999952,
            "velocity": 0.5118110236220472,
            "duration": 0.08921082916666023
        },
        {
            "name": "F#3",
            "midi": 54,
            "time": 91.8496704999995,
            "velocity": 0.5275590551181102,
            "duration": 0.08921082916666023
        },
        {
            "name": "D#3",
            "midi": 51,
            "time": 91.9396309999995,
            "velocity": 0.5275590551181102,
            "duration": 0.08921082916666023
        },
        {
            "name": "F#3",
            "midi": 54,
            "time": 92.02959149999948,
            "velocity": 0.4881889763779528,
            "duration": 0.08921082916666023
        },
        {
            "name": "C#2",
            "midi": 37,
            "time": 92.11955199999947,
            "velocity": 0.5433070866141733,
            "duration": 0.08996050000000366
        },
        {
            "name": "G#2",
            "midi": 44,
            "time": 92.29947299999948,
            "velocity": 0.30708661417322836,
            "duration": 0.08996050000000366
        },
        {
            "name": "C#2",
            "midi": 37,
            "time": 92.47939399999949,
            "velocity": 0.33858267716535434,
            "duration": 0.08996050000000366
        },
        {
            "name": "G#2",
            "midi": 44,
            "time": 92.6593149999995,
            "velocity": 0.31496062992125984,
            "duration": 0.08996050000000366
        },
        {
            "name": "C#2",
            "midi": 37,
            "time": 92.8392359999995,
            "velocity": 0.33070866141732286,
            "duration": 0.08996050000000366
        },
        {
            "name": "G#2",
            "midi": 44,
            "time": 93.01915699999951,
            "velocity": 0.30708661417322836,
            "duration": 0.08996050000000366
        },
        {
            "name": "C#2",
            "midi": 37,
            "time": 93.19907799999952,
            "velocity": 0.30708661417322836,
            "duration": 0.08996050000000366
        },
        {
            "name": "G#2",
            "midi": 44,
            "time": 93.37899899999952,
            "velocity": 0.30708661417322836,
            "duration": 0.08996050000000366
        },
        {
            "name": "C#2",
            "midi": 37,
            "time": 93.55891999999953,
            "velocity": 0.33858267716535434,
            "duration": 0.08996050000000366
        },
        {
            "name": "G#2",
            "midi": 44,
            "time": 93.73884099999954,
            "velocity": 0.31496062992125984,
            "duration": 0.08996050000000366
        },
        {
            "name": "C#2",
            "midi": 37,
            "time": 93.91876199999955,
            "velocity": 0.33858267716535434,
            "duration": 0.08996050000000366
        },
        {
            "name": "G#2",
            "midi": 44,
            "time": 94.09868299999955,
            "velocity": 0.31496062992125984,
            "duration": 0.08996050000000366
        },
        {
            "name": "C#2",
            "midi": 37,
            "time": 94.27860399999956,
            "velocity": 0.3228346456692913,
            "duration": 0.08996050000000366
        },
        {
            "name": "G#2",
            "midi": 44,
            "time": 94.45852499999957,
            "velocity": 0.2992125984251969,
            "duration": 0.08996050000000366
        },
        {
            "name": "C#3",
            "midi": 49,
            "time": 94.63844599999958,
            "velocity": 0.6062992125984252,
            "duration": 0.08996050000000366
        },
        {
            "name": "C#2",
            "midi": 37,
            "time": 94.63844599999958,
            "velocity": 0.5039370078740157,
            "duration": 0.08996050000000366
        },
        {
            "name": "G#2",
            "midi": 44,
            "time": 94.81836699999958,
            "velocity": 0.5275590551181102,
            "duration": 0.08996050000000366
        },
        {
            "name": "C2",
            "midi": 36,
            "time": 94.99828799999959,
            "velocity": 0.3228346456692913,
            "duration": 0.08996050000000366
        },
        {
            "name": "G#2",
            "midi": 44,
            "time": 95.1782089999996,
            "velocity": 0.30708661417322836,
            "duration": 0.08996050000000366
        },
        {
            "name": "C2",
            "midi": 36,
            "time": 95.3581299999996,
            "velocity": 0.3228346456692913,
            "duration": 0.08996050000000366
        },
        {
            "name": "G#2",
            "midi": 44,
            "time": 95.53805099999961,
            "velocity": 0.2992125984251969,
            "duration": 0.08996050000000366
        },
        {
            "name": "C2",
            "midi": 36,
            "time": 95.71797199999962,
            "velocity": 0.31496062992125984,
            "duration": 0.08996050000000366
        },
        {
            "name": "G#2",
            "midi": 44,
            "time": 95.89789299999963,
            "velocity": 0.29133858267716534,
            "duration": 0.08996050000000366
        },
        {
            "name": "C2",
            "midi": 36,
            "time": 96.07781399999963,
            "velocity": 0.31496062992125984,
            "duration": 0.08996050000000366
        },
        {
            "name": "G#2",
            "midi": 44,
            "time": 96.25773499999964,
            "velocity": 0.2992125984251969,
            "duration": 0.08996050000000366
        },
        {
            "name": "C2",
            "midi": 36,
            "time": 96.43765599999965,
            "velocity": 0.31496062992125984,
            "duration": 0.08996050000000366
        },
        {
            "name": "G#2",
            "midi": 44,
            "time": 96.61757699999966,
            "velocity": 0.2992125984251969,
            "duration": 0.08996050000000366
        },
        {
            "name": "C2",
            "midi": 36,
            "time": 96.79749799999966,
            "velocity": 0.31496062992125984,
            "duration": 0.08996050000000366
        },
        {
            "name": "G#2",
            "midi": 44,
            "time": 96.97741899999967,
            "velocity": 0.29133858267716534,
            "duration": 0.08996050000000366
        },
        {
            "name": "C2",
            "midi": 36,
            "time": 97.15733999999968,
            "velocity": 0.31496062992125984,
            "duration": 0.08996050000000366
        },
        {
            "name": "G#2",
            "midi": 44,
            "time": 97.33726099999969,
            "velocity": 0.29133858267716534,
            "duration": 0.08996050000000366
        },
        {
            "name": "C3",
            "midi": 48,
            "time": 97.51718199999969,
            "velocity": 0.6062992125984252,
            "duration": 0.08996050000000366
        },
        {
            "name": "C2",
            "midi": 36,
            "time": 97.51718199999969,
            "velocity": 0.5039370078740157,
            "duration": 0.08996050000000366
        },
        {
            "name": "G#2",
            "midi": 44,
            "time": 97.6971029999997,
            "velocity": 0.4566929133858268,
            "duration": 0.08996050000000366
        },
        {
            "name": "B1",
            "midi": 35,
            "time": 97.87702399999971,
            "velocity": 0.4330708661417323,
            "duration": 0.08996050000000366
        },
        {
            "name": "G#2",
            "midi": 44,
            "time": 98.05694499999971,
            "velocity": 0.4015748031496063,
            "duration": 0.08996050000000366
        },
        {
            "name": "B1",
            "midi": 35,
            "time": 98.23686599999972,
            "velocity": 0.4409448818897638,
            "duration": 0.08996050000000366
        },
        {
            "name": "G#2",
            "midi": 44,
            "time": 98.41678699999973,
            "velocity": 0.4094488188976378,
            "duration": 0.08996050000000366
        },
        {
            "name": "B1",
            "midi": 35,
            "time": 98.59670799999974,
            "velocity": 0.4409448818897638,
            "duration": 0.08996050000000366
        },
        {
            "name": "G#2",
            "midi": 44,
            "time": 98.77662899999974,
            "velocity": 0.4094488188976378,
            "duration": 0.08996050000000366
        },
        {
            "name": "B1",
            "midi": 35,
            "time": 98.95654999999975,
            "velocity": 0.4409448818897638,
            "duration": 0.08996050000000366
        },
        {
            "name": "G#2",
            "midi": 44,
            "time": 99.13647099999976,
            "velocity": 0.4094488188976378,
            "duration": 0.08996050000000366
        },
        {
            "name": "B1",
            "midi": 35,
            "time": 99.31639199999977,
            "velocity": 0.4409448818897638,
            "duration": 0.08996050000000366
        },
        {
            "name": "G#2",
            "midi": 44,
            "time": 99.49631299999977,
            "velocity": 0.4094488188976378,
            "duration": 0.08996050000000366
        },
        {
            "name": "B1",
            "midi": 35,
            "time": 99.67623399999978,
            "velocity": 0.4409448818897638,
            "duration": 0.08996050000000366
        },
        {
            "name": "G#2",
            "midi": 44,
            "time": 99.85615499999979,
            "velocity": 0.4094488188976378,
            "duration": 0.08996050000000366
        },
        {
            "name": "B1",
            "midi": 35,
            "time": 100.0360759999998,
            "velocity": 0.4409448818897638,
            "duration": 0.08996050000000366
        },
        {
            "name": "G#2",
            "midi": 44,
            "time": 100.2159969999998,
            "velocity": 0.4094488188976378,
            "duration": 0.08996050000000366
        },
        {
            "name": "B2",
            "midi": 47,
            "time": 100.39591799999981,
            "velocity": 0.6299212598425197,
            "duration": 0.08996050000000366
        },
        {
            "name": "B1",
            "midi": 35,
            "time": 100.39591799999981,
            "velocity": 0.5275590551181102,
            "duration": 0.08996050000000366
        },
        {
            "name": "G#2",
            "midi": 44,
            "time": 100.57583899999982,
            "velocity": 0.5748031496062992,
            "duration": 0.08996050000000366
        },
        {
            "name": "A1",
            "midi": 33,
            "time": 100.75575999999982,
            "velocity": 0.3937007874015748,
            "duration": 0.08996050000000366
        },
        {
            "name": "A2",
            "midi": 45,
            "time": 100.93568099999983,
            "velocity": 0.4015748031496063,
            "duration": 0.08996050000000366
        },
        {
            "name": "A1",
            "midi": 33,
            "time": 101.11560199999984,
            "velocity": 0.44881889763779526,
            "duration": 0.08996050000000366
        },
        {
            "name": "A2",
            "midi": 45,
            "time": 101.29552299999985,
            "velocity": 0.4881889763779528,
            "duration": 0.08996050000000366
        },
        {
            "name": "A1",
            "midi": 33,
            "time": 101.47544399999985,
            "velocity": 0.5275590551181102,
            "duration": 0.08996050000000366
        },
        {
            "name": "A2",
            "midi": 45,
            "time": 101.65536499999986,
            "velocity": 0.5354330708661418,
            "duration": 0.08996050000000366
        },
        {
            "name": "A1",
            "midi": 33,
            "time": 101.83528599999987,
            "velocity": 0.6771653543307087,
            "duration": 0.08996050000000366
        },
        {
            "name": "A2",
            "midi": 45,
            "time": 102.01520699999988,
            "velocity": 0.6692913385826772,
            "duration": 0.08996050000000366
        },
        {
            "name": "A1",
            "midi": 33,
            "time": 102.19512799999988,
            "velocity": 0.5275590551181102,
            "duration": 0.08996050000000366
        },
        {
            "name": "A2",
            "midi": 45,
            "time": 102.37504899999989,
            "velocity": 0.49606299212598426,
            "duration": 0.08996050000000366
        },
        {
            "name": "A1",
            "midi": 33,
            "time": 102.5549699999999,
            "velocity": 0.5275590551181102,
            "duration": 0.08996050000000366
        },
        {
            "name": "A2",
            "midi": 45,
            "time": 102.7348909999999,
            "velocity": 0.49606299212598426,
            "duration": 0.08996050000000366
        },
        {
            "name": "A1",
            "midi": 33,
            "time": 102.91481199999991,
            "velocity": 0.5275590551181102,
            "duration": 0.08996050000000366
        },
        {
            "name": "A2",
            "midi": 45,
            "time": 103.09473299999992,
            "velocity": 0.49606299212598426,
            "duration": 0.08996050000000366
        },
        {
            "name": "A1",
            "midi": 33,
            "time": 103.27465399999993,
            "velocity": 0.7086614173228346,
            "duration": 0.08996050000000366
        },
        {
            "name": "A2",
            "midi": 45,
            "time": 103.45457499999993,
            "velocity": 0.7086614173228346,
            "duration": 0.08996050000000366
        },
        {
            "name": "G#2",
            "midi": 44,
            "time": 103.63449599999994,
            "velocity": 0.6062992125984252,
            "duration": 0.17992099999999311
        },
        {
            "name": "G#1",
            "midi": 32,
            "time": 103.63449599999994,
            "velocity": 0.6062992125984252,
            "duration": 0.17992099999999311
        },
        {
            "name": "C4",
            "midi": 60,
            "time": 103.81441699999993,
            "velocity": 0.4881889763779528,
            "duration": 0.17992099999999311
        },
        {
            "name": "G#3",
            "midi": 56,
            "time": 103.81441699999993,
            "velocity": 0.4881889763779528,
            "duration": 2.6988149999998967
        },
        {
            "name": "C4",
            "midi": 60,
            "time": 103.99433799999993,
            "velocity": 0.4881889763779528,
            "duration": 0.17992099999999311
        },
        {
            "name": "C#4",
            "midi": 61,
            "time": 104.17425899999992,
            "velocity": 0.4881889763779528,
            "duration": 0.17992099999999311
        },
        {
            "name": "D#4",
            "midi": 63,
            "time": 104.35417999999991,
            "velocity": 0.5039370078740157,
            "duration": 0.17992099999999311
        },
        {
            "name": "E4",
            "midi": 64,
            "time": 104.53410099999991,
            "velocity": 0.5196850393700787,
            "duration": 0.17992099999999311
        },
        {
            "name": "F#4",
            "midi": 66,
            "time": 104.7140219999999,
            "velocity": 0.5275590551181102,
            "duration": 0.17992099999999311
        },
        {
            "name": "D#4",
            "midi": 63,
            "time": 104.8939429999999,
            "velocity": 0.5354330708661418,
            "duration": 0.17992099999999311
        },
        {
            "name": "F#4",
            "midi": 66,
            "time": 105.07386399999989,
            "velocity": 0.5433070866141733,
            "duration": 0.17992099999999311
        },
        {
            "name": "E4",
            "midi": 64,
            "time": 105.25378499999988,
            "velocity": 0.5590551181102362,
            "duration": 0.17992099999999311
        },
        {
            "name": "A4",
            "midi": 69,
            "time": 105.43370599999987,
            "velocity": 0.5669291338582677,
            "duration": 0.17992099999999311
        },
        {
            "name": "G#4",
            "midi": 68,
            "time": 105.61362699999987,
            "velocity": 0.5590551181102362,
            "duration": 0.17992099999999311
        },
        {
            "name": "F#4",
            "midi": 66,
            "time": 105.79354799999986,
            "velocity": 0.5433070866141733,
            "duration": 0.17992099999999311
        },
        {
            "name": "E4",
            "midi": 64,
            "time": 105.97346899999985,
            "velocity": 0.5354330708661418,
            "duration": 0.17992099999999311
        },
        {
            "name": "D#4",
            "midi": 63,
            "time": 106.15338999999985,
            "velocity": 0.5275590551181102,
            "duration": 0.17992099999999311
        },
        {
            "name": "C#4",
            "midi": 61,
            "time": 106.33331099999984,
            "velocity": 0.5196850393700787,
            "duration": 0.17992099999999311
        },
        {
            "name": "C4",
            "midi": 60,
            "time": 106.51323199999983,
            "velocity": 0.5039370078740157,
            "duration": 0.17992099999999311
        },
        {
            "name": "G#3",
            "midi": 56,
            "time": 106.51323199999983,
            "velocity": 0.5039370078740157,
            "duration": 2.87873599999989
        },
        {
            "name": "C4",
            "midi": 60,
            "time": 106.69315299999982,
            "velocity": 0.49606299212598426,
            "duration": 0.17992099999999311
        },
        {
            "name": "C4",
            "midi": 60,
            "time": 106.87307399999982,
            "velocity": 0.4881889763779528,
            "duration": 0.17992099999999311
        },
        {
            "name": "C#4",
            "midi": 61,
            "time": 107.05299499999981,
            "velocity": 0.47244094488188976,
            "duration": 0.17992099999999311
        },
        {
            "name": "D#4",
            "midi": 63,
            "time": 107.2329159999998,
            "velocity": 0.4881889763779528,
            "duration": 0.17992099999999311
        },
        {
            "name": "E4",
            "midi": 64,
            "time": 107.4128369999998,
            "velocity": 0.4881889763779528,
            "duration": 0.17992099999999311
        },
        {
            "name": "F#4",
            "midi": 66,
            "time": 107.59275799999979,
            "velocity": 0.5118110236220472,
            "duration": 0.17992099999999311
        },
        {
            "name": "D#4",
            "midi": 63,
            "time": 107.77267899999978,
            "velocity": 0.5275590551181102,
            "duration": 0.17992099999999311
        },
        {
            "name": "F#4",
            "midi": 66,
            "time": 107.95259999999978,
            "velocity": 0.5354330708661418,
            "duration": 0.17992099999999311
        },
        {
            "name": "E4",
            "midi": 64,
            "time": 108.13252099999977,
            "velocity": 0.5354330708661418,
            "duration": 0.17992099999999311
        },
        {
            "name": "A4",
            "midi": 69,
            "time": 108.31244199999976,
            "velocity": 0.5354330708661418,
            "duration": 0.17992099999999311
        },
        {
            "name": "G#4",
            "midi": 68,
            "time": 108.49236299999976,
            "velocity": 0.5275590551181102,
            "duration": 0.17992099999999311
        },
        {
            "name": "F#4",
            "midi": 66,
            "time": 108.67228399999975,
            "velocity": 0.5275590551181102,
            "duration": 0.17992099999999311
        },
        {
            "name": "E4",
            "midi": 64,
            "time": 108.85220499999974,
            "velocity": 0.5275590551181102,
            "duration": 0.17992099999999311
        },
        {
            "name": "D#4",
            "midi": 63,
            "time": 109.03212599999974,
            "velocity": 0.5275590551181102,
            "duration": 0.17992099999999311
        },
        {
            "name": "C#4",
            "midi": 61,
            "time": 109.21204699999973,
            "velocity": 0.5275590551181102,
            "duration": 0.17992099999999311
        },
        {
            "name": "G#3",
            "midi": 56,
            "time": 109.39196799999972,
            "velocity": 0.5590551181102362,
            "duration": 0.08996050000000366
        },
        {
            "name": "C4",
            "midi": 60,
            "time": 109.39196799999972,
            "velocity": 0.5590551181102362,
            "duration": 0.08996050000000366
        },
        {
            "name": "C#4",
            "midi": 61,
            "time": 109.57188899999973,
            "velocity": 0.4881889763779528,
            "duration": 0.08996050000000366
        },
        {
            "name": "G#3",
            "midi": 56,
            "time": 109.57188899999973,
            "velocity": 0.4881889763779528,
            "duration": 0.08996050000000366
        },
        {
            "name": "C4",
            "midi": 60,
            "time": 109.75180999999974,
            "velocity": 0.5275590551181102,
            "duration": 0.08996050000000366
        },
        {
            "name": "G#3",
            "midi": 56,
            "time": 109.75180999999974,
            "velocity": 0.5275590551181102,
            "duration": 0.08996050000000366
        },
        {
            "name": "C#4",
            "midi": 61,
            "time": 109.93173099999974,
            "velocity": 0.4881889763779528,
            "duration": 0.08996050000000366
        },
        {
            "name": "G#3",
            "midi": 56,
            "time": 109.93173099999974,
            "velocity": 0.4881889763779528,
            "duration": 0.08996050000000366
        },
        {
            "name": "C4",
            "midi": 60,
            "time": 110.11165199999975,
            "velocity": 0.5590551181102362,
            "duration": 0.08996050000000366
        },
        {
            "name": "G#3",
            "midi": 56,
            "time": 110.11165199999975,
            "velocity": 0.5590551181102362,
            "duration": 0.08996050000000366
        },
        {
            "name": "C#4",
            "midi": 61,
            "time": 110.29157299999976,
            "velocity": 0.4881889763779528,
            "duration": 0.08996050000000366
        },
        {
            "name": "G#3",
            "midi": 56,
            "time": 110.29157299999976,
            "velocity": 0.4881889763779528,
            "duration": 0.08996050000000366
        },
        {
            "name": "C4",
            "midi": 60,
            "time": 110.47149399999977,
            "velocity": 0.5275590551181102,
            "duration": 0.08996050000000366
        },
        {
            "name": "G#3",
            "midi": 56,
            "time": 110.47149399999977,
            "velocity": 0.5275590551181102,
            "duration": 0.08996050000000366
        },
        {
            "name": "C#4",
            "midi": 61,
            "time": 110.65141499999977,
            "velocity": 0.48031496062992124,
            "duration": 0.08996050000000366
        },
        {
            "name": "G#3",
            "midi": 56,
            "time": 110.65141499999977,
            "velocity": 0.48031496062992124,
            "duration": 0.08996050000000366
        },
        {
            "name": "G#3",
            "midi": 56,
            "time": 110.83133599999978,
            "velocity": 0.5590551181102362,
            "duration": 0.17992099999999311
        },
        {
            "name": "C4",
            "midi": 60,
            "time": 110.83133599999978,
            "velocity": 0.5590551181102362,
            "duration": 0.17992099999999311
        },
        {
            "name": "G#1",
            "midi": 32,
            "time": 111.19117799999977,
            "velocity": 0.7559055118110236,
            "duration": 1.0795260000000013
        },
        {
            "name": "G#2",
            "midi": 44,
            "time": 111.19117799999977,
            "velocity": 0.7559055118110236,
            "duration": 1.0795260000000013
        },
        {
            "name": "C#2",
            "midi": 37,
            "time": 112.27070399999977,
            "velocity": 0.33858267716535434,
            "duration": 0.08996050000000366
        },
        {
            "name": "G#2",
            "midi": 44,
            "time": 112.45062499999977,
            "velocity": 0.30708661417322836,
            "duration": 0.08996050000000366
        },
        {
            "name": "C#2",
            "midi": 37,
            "time": 112.63054599999978,
            "velocity": 0.33858267716535434,
            "duration": 0.08996050000000366
        },
        {
            "name": "G#2",
            "midi": 44,
            "time": 112.81046699999979,
            "velocity": 0.30708661417322836,
            "duration": 0.08996050000000366
        },
        {
            "name": "C#2",
            "midi": 37,
            "time": 112.9903879999998,
            "velocity": 0.33858267716535434,
            "duration": 0.08996050000000366
        },
        {
            "name": "G#2",
            "midi": 44,
            "time": 113.1703089999998,
            "velocity": 0.30708661417322836,
            "duration": 0.08996050000000366
        },
        {
            "name": "C#2",
            "midi": 37,
            "time": 113.35022999999981,
            "velocity": 0.33858267716535434,
            "duration": 0.08996050000000366
        },
        {
            "name": "G#2",
            "midi": 44,
            "time": 113.53015099999982,
            "velocity": 0.30708661417322836,
            "duration": 0.08996050000000366
        },
        {
            "name": "C#2",
            "midi": 37,
            "time": 113.71007199999983,
            "velocity": 0.33858267716535434,
            "duration": 0.08996050000000366
        },
        {
            "name": "G#2",
            "midi": 44,
            "time": 113.88999299999983,
            "velocity": 0.30708661417322836,
            "duration": 0.08996050000000366
        },
        {
            "name": "C#2",
            "midi": 37,
            "time": 114.06991399999984,
            "velocity": 0.33858267716535434,
            "duration": 0.08996050000000366
        },
        {
            "name": "G#2",
            "midi": 44,
            "time": 114.24983499999985,
            "velocity": 0.30708661417322836,
            "duration": 0.08996050000000366
        },
        {
            "name": "C#2",
            "midi": 37,
            "time": 114.42975599999986,
            "velocity": 0.33858267716535434,
            "duration": 0.08996050000000366
        },
        {
            "name": "G#2",
            "midi": 44,
            "time": 114.60967699999986,
            "velocity": 0.33858267716535434,
            "duration": 0.08996050000000366
        },
        {
            "name": "C#3",
            "midi": 49,
            "time": 114.78959799999987,
            "velocity": 0.7007874015748031,
            "duration": 0.08996050000000366
        },
        {
            "name": "C#2",
            "midi": 37,
            "time": 114.78959799999987,
            "velocity": 0.5905511811023622,
            "duration": 0.08996050000000366
        },
        {
            "name": "G#2",
            "midi": 44,
            "time": 114.96951899999988,
            "velocity": 0.5826771653543307,
            "duration": 0.08996050000000366
        },
        {
            "name": "A#1",
            "midi": 34,
            "time": 115.14943999999988,
            "velocity": 0.31496062992125984,
            "duration": 0.08996050000000366
        },
        {
            "name": "C#3",
            "midi": 49,
            "time": 115.32936099999989,
            "velocity": 0.29133858267716534,
            "duration": 0.08996050000000366
        },
        {
            "name": "A#2",
            "midi": 46,
            "time": 115.5092819999999,
            "velocity": 0.31496062992125984,
            "duration": 0.08996050000000366
        },
        {
            "name": "C#3",
            "midi": 49,
            "time": 115.6892029999999,
            "velocity": 0.31496062992125984,
            "duration": 0.08996050000000366
        },
        {
            "name": "A#2",
            "midi": 46,
            "time": 115.86912399999991,
            "velocity": 0.31496062992125984,
            "duration": 0.08996050000000366
        },
        {
            "name": "C#3",
            "midi": 49,
            "time": 116.04904499999992,
            "velocity": 0.29133858267716534,
            "duration": 0.08996050000000366
        },
        {
            "name": "A#2",
            "midi": 46,
            "time": 116.22896599999993,
            "velocity": 0.31496062992125984,
            "duration": 0.08996050000000366
        },
        {
            "name": "C#3",
            "midi": 49,
            "time": 116.40888699999994,
            "velocity": 0.31496062992125984,
            "duration": 0.08996050000000366
        },
        {
            "name": "A#2",
            "midi": 46,
            "time": 116.58880799999994,
            "velocity": 0.31496062992125984,
            "duration": 0.08996050000000366
        },
        {
            "name": "C#3",
            "midi": 49,
            "time": 116.76872899999995,
            "velocity": 0.29133858267716534,
            "duration": 0.08996050000000366
        },
        {
            "name": "A#2",
            "midi": 46,
            "time": 116.94864999999996,
            "velocity": 0.31496062992125984,
            "duration": 0.08996050000000366
        },
        {
            "name": "C#3",
            "midi": 49,
            "time": 117.12857099999997,
            "velocity": 0.29133858267716534,
            "duration": 0.08996050000000366
        },
        {
            "name": "A#2",
            "midi": 46,
            "time": 117.30849199999997,
            "velocity": 0.31496062992125984,
            "duration": 0.08996050000000366
        },
        {
            "name": "C#3",
            "midi": 49,
            "time": 117.48841299999998,
            "velocity": 0.2992125984251969,
            "duration": 0.08996050000000366
        },
        {
            "name": "A#2",
            "midi": 46,
            "time": 117.66833399999999,
            "velocity": 0.6535433070866141,
            "duration": 0.08996050000000366
        },
        {
            "name": "A#1",
            "midi": 34,
            "time": 117.66833399999999,
            "velocity": 0.5590551181102362,
            "duration": 0.08996050000000366
        },
        {
            "name": "C#3",
            "midi": 49,
            "time": 117.848255,
            "velocity": 0.5669291338582677,
            "duration": 0.08996050000000366
        },
        {
            "name": "G1",
            "midi": 31,
            "time": 118.028176,
            "velocity": 0.30708661417322836,
            "duration": 0.08996050000000366
        },
        {
            "name": "D#3",
            "midi": 51,
            "time": 118.20809700000001,
            "velocity": 0.30708661417322836,
            "duration": 0.08996050000000366
        },
        {
            "name": "G2",
            "midi": 43,
            "time": 118.38801800000002,
            "velocity": 0.31496062992125984,
            "duration": 0.08996050000000366
        },
        {
            "name": "D#3",
            "midi": 51,
            "time": 118.56793900000002,
            "velocity": 0.33070866141732286,
            "duration": 0.08996050000000366
        },
        {
            "name": "G2",
            "midi": 43,
            "time": 118.74786000000003,
            "velocity": 0.33858267716535434,
            "duration": 0.08996050000000366
        },
        {
            "name": "D#3",
            "midi": 51,
            "time": 118.92778100000004,
            "velocity": 0.33858267716535434,
            "duration": 0.08996050000000366
        },
        {
            "name": "G2",
            "midi": 43,
            "time": 119.10770200000005,
            "velocity": 0.3543307086614173,
            "duration": 0.08996050000000366
        },
        {
            "name": "D#3",
            "midi": 51,
            "time": 119.28762300000005,
            "velocity": 0.3543307086614173,
            "duration": 0.08996050000000366
        },
        {
            "name": "G2",
            "midi": 43,
            "time": 119.46754400000006,
            "velocity": 0.3700787401574803,
            "duration": 0.08996050000000366
        },
        {
            "name": "D#3",
            "midi": 51,
            "time": 119.64746500000007,
            "velocity": 0.3779527559055118,
            "duration": 0.08996050000000366
        },
        {
            "name": "G2",
            "midi": 43,
            "time": 119.82738600000008,
            "velocity": 0.3858267716535433,
            "duration": 0.08996050000000366
        },
        {
            "name": "D#3",
            "midi": 51,
            "time": 120.00730700000008,
            "velocity": 0.4015748031496063,
            "duration": 0.08996050000000366
        },
        {
            "name": "G2",
            "midi": 43,
            "time": 120.18722800000009,
            "velocity": 0.4015748031496063,
            "duration": 0.08996050000000366
        },
        {
            "name": "D#3",
            "midi": 51,
            "time": 120.3671490000001,
            "velocity": 0.3779527559055118,
            "duration": 0.08996050000000366
        },
        {
            "name": "G2",
            "midi": 43,
            "time": 120.5470700000001,
            "velocity": 0.3700787401574803,
            "duration": 0.08996050000000366
        },
        {
            "name": "D#3",
            "midi": 51,
            "time": 120.72699100000011,
            "velocity": 0.3543307086614173,
            "duration": 0.08996050000000366
        },
        {
            "name": "G#2",
            "midi": 44,
            "time": 120.90691200000012,
            "velocity": 0.25984251968503935,
            "duration": 0.10495391666667331
        },
        {
            "name": "D#3",
            "midi": 51,
            "time": 120.99687250000012,
            "velocity": 0.1968503937007874,
            "duration": 0.10495391666667331
        },
        {
            "name": "B2",
            "midi": 47,
            "time": 121.08683300000013,
            "velocity": 0.2204724409448819,
            "duration": 0.10495391666667331
        },
        {
            "name": "D#3",
            "midi": 51,
            "time": 121.17679350000013,
            "velocity": 0.1968503937007874,
            "duration": 0.10495391666667331
        },
        {
            "name": "G#2",
            "midi": 44,
            "time": 121.26675400000013,
            "velocity": 0.2755905511811024,
            "duration": 0.08921082916667444
        },
        {
            "name": "D#3",
            "midi": 51,
            "time": 121.35671450000014,
            "velocity": 0.2125984251968504,
            "duration": 0.08921082916666023
        },
        {
            "name": "B2",
            "midi": 47,
            "time": 121.44667500000013,
            "velocity": 0.2755905511811024,
            "duration": 0.08921082916666023
        },
        {
            "name": "D#3",
            "midi": 51,
            "time": 121.53663550000012,
            "velocity": 0.23622047244094488,
            "duration": 0.08921082916666023
        },
        {
            "name": "G#2",
            "midi": 44,
            "time": 121.6265960000001,
            "velocity": 0.29133858267716534,
            "duration": 0.08921082916666023
        },
        {
            "name": "D#3",
            "midi": 51,
            "time": 121.7165565000001,
            "velocity": 0.2125984251968504,
            "duration": 0.08921082916666023
        },
        {
            "name": "B2",
            "midi": 47,
            "time": 121.80651700000008,
            "velocity": 0.30708661417322836,
            "duration": 0.08921082916666023
        },
        {
            "name": "D#3",
            "midi": 51,
            "time": 121.89647750000007,
            "velocity": 0.23622047244094488,
            "duration": 0.08921082916666023
        },
        {
            "name": "G#2",
            "midi": 44,
            "time": 121.98643800000006,
            "velocity": 0.30708661417322836,
            "duration": 0.08921082916666023
        },
        {
            "name": "D#3",
            "midi": 51,
            "time": 122.07639850000005,
            "velocity": 0.2440944881889764,
            "duration": 0.08921082916666023
        },
        {
            "name": "B2",
            "midi": 47,
            "time": 122.16635900000004,
            "velocity": 0.31496062992125984,
            "duration": 0.08921082916666023
        },
        {
            "name": "D#3",
            "midi": 51,
            "time": 122.25631950000003,
            "velocity": 0.25984251968503935,
            "duration": 0.08921082916666023
        },
        {
            "name": "A#2",
            "midi": 46,
            "time": 122.34628000000002,
            "velocity": 0.25984251968503935,
            "duration": 0.10495391666667331
        },
        {
            "name": "D#3",
            "midi": 51,
            "time": 122.43624050000003,
            "velocity": 0.2047244094488189,
            "duration": 0.10495391666667331
        },
        {
            "name": "C#3",
            "midi": 49,
            "time": 122.52620100000003,
            "velocity": 0.2283464566929134,
            "duration": 0.10495391666667331
        },
        {
            "name": "D#3",
            "midi": 51,
            "time": 122.61616150000003,
            "velocity": 0.2047244094488189,
            "duration": 0.10495391666667331
        },
        {
            "name": "A#2",
            "midi": 46,
            "time": 122.70612200000004,
            "velocity": 0.33070866141732286,
            "duration": 0.08921082916667444
        },
        {
            "name": "D#3",
            "midi": 51,
            "time": 122.79608250000004,
            "velocity": 0.25196850393700787,
            "duration": 0.08921082916666023
        },
        {
            "name": "C#3",
            "midi": 49,
            "time": 122.88604300000003,
            "velocity": 0.31496062992125984,
            "duration": 0.08921082916666023
        },
        {
            "name": "D#3",
            "midi": 51,
            "time": 122.97600350000002,
            "velocity": 0.31496062992125984,
            "duration": 0.08921082916666023
        },
        {
            "name": "A#2",
            "midi": 46,
            "time": 123.06596400000001,
            "velocity": 0.3858267716535433,
            "duration": 0.08921082916666023
        },
        {
            "name": "D#3",
            "midi": 51,
            "time": 123.1559245,
            "velocity": 0.31496062992125984,
            "duration": 0.08921082916666023
        },
        {
            "name": "C#3",
            "midi": 49,
            "time": 123.24588499999999,
            "velocity": 0.36220472440944884,
            "duration": 0.08921082916666023
        },
        {
            "name": "D#3",
            "midi": 51,
            "time": 123.33584549999998,
            "velocity": 0.3228346456692913,
            "duration": 0.08921082916666023
        },
        {
            "name": "A#2",
            "midi": 46,
            "time": 123.42580599999997,
            "velocity": 0.4409448818897638,
            "duration": 0.08921082916666023
        },
        {
            "name": "D#3",
            "midi": 51,
            "time": 123.51576649999996,
            "velocity": 0.3228346456692913,
            "duration": 0.08921082916666023
        },
        {
            "name": "C#3",
            "midi": 49,
            "time": 123.60572699999994,
            "velocity": 0.33858267716535434,
            "duration": 0.08921082916666023
        },
        {
            "name": "D#3",
            "midi": 51,
            "time": 123.69568749999993,
            "velocity": 0.28346456692913385,
            "duration": 0.08921082916666023
        },
        {
            "name": "B2",
            "midi": 47,
            "time": 123.78564799999992,
            "velocity": 0.25984251968503935,
            "duration": 0.08921082916666023
        },
        {
            "name": "D#3",
            "midi": 51,
            "time": 123.87560849999991,
            "velocity": 0.2283464566929134,
            "duration": 0.08921082916666023
        },
        {
            "name": "B2",
            "midi": 47,
            "time": 123.9655689999999,
            "velocity": 0.23622047244094488,
            "duration": 0.08921082916666023
        },
        {
            "name": "D#3",
            "midi": 51,
            "time": 124.05552949999989,
            "velocity": 0.2047244094488189,
            "duration": 0.08921082916666023
        },
        {
            "name": "B2",
            "midi": 47,
            "time": 124.14548999999988,
            "velocity": 0.3228346456692913,
            "duration": 0.08921082916666023
        },
        {
            "name": "D#3",
            "midi": 51,
            "time": 124.23545049999987,
            "velocity": 0.25196850393700787,
            "duration": 0.08921082916666023
        },
        {
            "name": "B2",
            "midi": 47,
            "time": 124.32541099999986,
            "velocity": 0.30708661417322836,
            "duration": 0.08921082916666023
        },
        {
            "name": "D#3",
            "midi": 51,
            "time": 124.41537149999985,
            "velocity": 0.28346456692913385,
            "duration": 0.08921082916666023
        },
        {
            "name": "B2",
            "midi": 47,
            "time": 124.50533199999984,
            "velocity": 0.3858267716535433,
            "duration": 0.08921082916666023
        },
        {
            "name": "D#3",
            "midi": 51,
            "time": 124.59529249999983,
            "velocity": 0.2992125984251969,
            "duration": 0.08921082916666023
        },
        {
            "name": "B2",
            "midi": 47,
            "time": 124.68525299999982,
            "velocity": 0.3779527559055118,
            "duration": 0.08921082916666023
        },
        {
            "name": "D#3",
            "midi": 51,
            "time": 124.77521349999981,
            "velocity": 0.33070866141732286,
            "duration": 0.08921082916666023
        },
        {
            "name": "B2",
            "midi": 47,
            "time": 124.8651739999998,
            "velocity": 0.4251968503937008,
            "duration": 0.08921082916666023
        },
        {
            "name": "D#3",
            "midi": 51,
            "time": 124.95513449999979,
            "velocity": 0.3228346456692913,
            "duration": 0.08921082916666023
        },
        {
            "name": "B2",
            "midi": 47,
            "time": 125.04509499999978,
            "velocity": 0.33858267716535434,
            "duration": 0.08921082916666023
        },
        {
            "name": "D#3",
            "midi": 51,
            "time": 125.13505549999977,
            "velocity": 0.2755905511811024,
            "duration": 0.08921082916666023
        },
        {
            "name": "G2",
            "midi": 43,
            "time": 125.22501599999975,
            "velocity": 0.25196850393700787,
            "duration": 0.08921082916666023
        },
        {
            "name": "D#3",
            "midi": 51,
            "time": 125.31497649999974,
            "velocity": 0.2283464566929134,
            "duration": 0.08921082916666023
        },
        {
            "name": "G2",
            "midi": 43,
            "time": 125.40493699999973,
            "velocity": 0.2283464566929134,
            "duration": 0.08921082916666023
        },
        {
            "name": "D#3",
            "midi": 51,
            "time": 125.49489749999972,
            "velocity": 0.2047244094488189,
            "duration": 0.08921082916666023
        },
        {
            "name": "G2",
            "midi": 43,
            "time": 125.58485799999971,
            "velocity": 0.3228346456692913,
            "duration": 0.08921082916666023
        },
        {
            "name": "D#3",
            "midi": 51,
            "time": 125.6748184999997,
            "velocity": 0.31496062992125984,
            "duration": 0.08921082916666023
        },
        {
            "name": "G2",
            "midi": 43,
            "time": 125.76477899999969,
            "velocity": 0.33070866141732286,
            "duration": 0.08921082916666023
        },
        {
            "name": "D#3",
            "midi": 51,
            "time": 125.85473949999968,
            "velocity": 0.31496062992125984,
            "duration": 0.08921082916666023
        },
        {
            "name": "G2",
            "midi": 43,
            "time": 125.94469999999967,
            "velocity": 0.3779527559055118,
            "duration": 0.08921082916666023
        },
        {
            "name": "D#3",
            "midi": 51,
            "time": 126.03466049999966,
            "velocity": 0.33858267716535434,
            "duration": 0.08921082916666023
        },
        {
            "name": "G2",
            "midi": 43,
            "time": 126.12462099999965,
            "velocity": 0.3858267716535433,
            "duration": 0.08921082916666023
        },
        {
            "name": "D#3",
            "midi": 51,
            "time": 126.21458149999964,
            "velocity": 0.33070866141732286,
            "duration": 0.08921082916666023
        },
        {
            "name": "G2",
            "midi": 43,
            "time": 126.30454199999963,
            "velocity": 0.4251968503937008,
            "duration": 0.08921082916666023
        },
        {
            "name": "D#3",
            "midi": 51,
            "time": 126.39450249999962,
            "velocity": 0.2992125984251969,
            "duration": 0.08921082916666023
        },
        {
            "name": "G2",
            "midi": 43,
            "time": 126.48446299999961,
            "velocity": 0.33070866141732286,
            "duration": 0.08921082916666023
        },
        {
            "name": "D#3",
            "midi": 51,
            "time": 126.5744234999996,
            "velocity": 0.2755905511811024,
            "duration": 0.08921082916666023
        },
        {
            "name": "G#2",
            "midi": 44,
            "time": 126.66438399999959,
            "velocity": 0.30708661417322836,
            "duration": 0.10495391666667331
        },
        {
            "name": "D#3",
            "midi": 51,
            "time": 126.75434449999959,
            "velocity": 0.25984251968503935,
            "duration": 0.10495391666667331
        },
        {
            "name": "B2",
            "midi": 47,
            "time": 126.8443049999996,
            "velocity": 0.2755905511811024,
            "duration": 0.08921082916667444
        },
        {
            "name": "D#3",
            "midi": 51,
            "time": 126.9342654999996,
            "velocity": 0.2440944881889764,
            "duration": 0.08921082916666023
        },
        {
            "name": "G#2",
            "midi": 44,
            "time": 127.02422599999959,
            "velocity": 0.31496062992125984,
            "duration": 0.08921082916666023
        },
        {
            "name": "D#3",
            "midi": 51,
            "time": 127.11418649999958,
            "velocity": 0.2440944881889764,
            "duration": 0.08921082916666023
        },
        {
            "name": "B2",
            "midi": 47,
            "time": 127.20414699999957,
            "velocity": 0.2677165354330709,
            "duration": 0.08921082916666023
        },
        {
            "name": "D#3",
            "midi": 51,
            "time": 127.29410749999955,
            "velocity": 0.2440944881889764,
            "duration": 0.08921082916666023
        },
        {
            "name": "G#2",
            "midi": 44,
            "time": 127.38406799999954,
            "velocity": 0.3228346456692913,
            "duration": 0.08921082916666023
        },
        {
            "name": "D#3",
            "midi": 51,
            "time": 127.47402849999953,
            "velocity": 0.25196850393700787,
            "duration": 0.08921082916666023
        },
        {
            "name": "B2",
            "midi": 47,
            "time": 127.56398899999952,
            "velocity": 0.2755905511811024,
            "duration": 0.08921082916666023
        },
        {
            "name": "D#3",
            "midi": 51,
            "time": 127.65394949999951,
            "velocity": 0.25196850393700787,
            "duration": 0.08921082916666023
        },
        {
            "name": "G#2",
            "midi": 44,
            "time": 127.7439099999995,
            "velocity": 0.33858267716535434,
            "duration": 0.10495391666667331
        },
        {
            "name": "D#3",
            "midi": 51,
            "time": 127.8338704999995,
            "velocity": 0.25984251968503935,
            "duration": 0.10495391666667331
        },
        {
            "name": "B2",
            "midi": 47,
            "time": 127.92383099999951,
            "velocity": 0.29133858267716534,
            "duration": 0.10495391666667331
        },
        {
            "name": "D#3",
            "midi": 51,
            "time": 128.0137914999995,
            "velocity": 0.25984251968503935,
            "duration": 0.1049539166666591
        },
        {
            "name": "A#2",
            "midi": 46,
            "time": 128.1037519999995,
            "velocity": 0.36220472440944884,
            "duration": 0.1049539166666591
        },
        {
            "name": "D#3",
            "midi": 51,
            "time": 128.1937124999995,
            "velocity": 0.2677165354330709,
            "duration": 0.1049539166666591
        },
        {
            "name": "C#3",
            "midi": 49,
            "time": 128.28367299999948,
            "velocity": 0.30708661417322836,
            "duration": 0.08921082916666023
        },
        {
            "name": "D#3",
            "midi": 51,
            "time": 128.37363349999947,
            "velocity": 0.2677165354330709,
            "duration": 0.08921082916666023
        },
        {
            "name": "A#2",
            "midi": 46,
            "time": 128.46359399999946,
            "velocity": 0.3700787401574803,
            "duration": 0.08921082916666023
        },
        {
            "name": "D#3",
            "midi": 51,
            "time": 128.55355449999945,
            "velocity": 0.2755905511811024,
            "duration": 0.08921082916666023
        },
        {
            "name": "C#3",
            "midi": 49,
            "time": 128.64351499999944,
            "velocity": 0.31496062992125984,
            "duration": 0.08921082916666023
        },
        {
            "name": "D#3",
            "midi": 51,
            "time": 128.73347549999943,
            "velocity": 0.31496062992125984,
            "duration": 0.08921082916666023
        },
        {
            "name": "A#2",
            "midi": 46,
            "time": 128.82343599999942,
            "velocity": 0.3858267716535433,
            "duration": 0.08921082916666023
        },
        {
            "name": "D#3",
            "midi": 51,
            "time": 128.9133964999994,
            "velocity": 0.2755905511811024,
            "duration": 0.08921082916666023
        },
        {
            "name": "C#3",
            "midi": 49,
            "time": 129.0033569999994,
            "velocity": 0.3228346456692913,
            "duration": 0.08921082916666023
        },
        {
            "name": "D#3",
            "midi": 51,
            "time": 129.0933174999994,
            "velocity": 0.2755905511811024,
            "duration": 0.08921082916666023
        },
        {
            "name": "A#2",
            "midi": 46,
            "time": 129.18327799999938,
            "velocity": 0.3937007874015748,
            "duration": 0.1049539166666591
        },
        {
            "name": "D#3",
            "midi": 51,
            "time": 129.27323849999937,
            "velocity": 0.33070866141732286,
            "duration": 0.1049539166666591
        },
        {
            "name": "C#3",
            "midi": 49,
            "time": 129.36319899999936,
            "velocity": 0.3543307086614173,
            "duration": 0.1049539166666591
        },
        {
            "name": "D#3",
            "midi": 51,
            "time": 129.45315949999934,
            "velocity": 0.33070866141732286,
            "duration": 0.1049539166666591
        },
        {
            "name": "B2",
            "midi": 47,
            "time": 129.54311999999933,
            "velocity": 0.4015748031496063,
            "duration": 0.1049539166666591
        },
        {
            "name": "D#3",
            "midi": 51,
            "time": 129.63308049999932,
            "velocity": 0.33858267716535434,
            "duration": 0.1049539166666591
        },
        {
            "name": "B2",
            "midi": 47,
            "time": 129.7230409999993,
            "velocity": 0.3700787401574803,
            "duration": 0.08921082916666023
        },
        {
            "name": "D#3",
            "midi": 51,
            "time": 129.8130014999993,
            "velocity": 0.33858267716535434,
            "duration": 0.08921082916666023
        },
        {
            "name": "B2",
            "midi": 47,
            "time": 129.9029619999993,
            "velocity": 0.4094488188976378,
            "duration": 0.08921082916666023
        },
        {
            "name": "D#3",
            "midi": 51,
            "time": 129.99292249999928,
            "velocity": 0.3464566929133858,
            "duration": 0.08921082916666023
        },
        {
            "name": "B2",
            "midi": 47,
            "time": 130.08288299999927,
            "velocity": 0.3779527559055118,
            "duration": 0.08921082916666023
        },
        {
            "name": "D#3",
            "midi": 51,
            "time": 130.17284349999926,
            "velocity": 0.3464566929133858,
            "duration": 0.08921082916666023
        },
        {
            "name": "B2",
            "midi": 47,
            "time": 130.26280399999925,
            "velocity": 0.4409448818897638,
            "duration": 0.08921082916666023
        },
        {
            "name": "D#3",
            "midi": 51,
            "time": 130.35276449999924,
            "velocity": 0.36220472440944884,
            "duration": 0.08921082916666023
        },
        {
            "name": "B2",
            "midi": 47,
            "time": 130.44272499999923,
            "velocity": 0.3937007874015748,
            "duration": 0.1049539166666591
        },
        {
            "name": "D#3",
            "midi": 51,
            "time": 130.53268549999922,
            "velocity": 0.3543307086614173,
            "duration": 0.1049539166666591
        },
        {
            "name": "B2",
            "midi": 47,
            "time": 130.6226459999992,
            "velocity": 0.44881889763779526,
            "duration": 0.1049539166666591
        },
        {
            "name": "D#3",
            "midi": 51,
            "time": 130.7126064999992,
            "velocity": 0.3700787401574803,
            "duration": 0.1049539166666591
        },
        {
            "name": "B2",
            "midi": 47,
            "time": 130.8025669999992,
            "velocity": 0.4015748031496063,
            "duration": 0.1049539166666591
        },
        {
            "name": "D#3",
            "midi": 51,
            "time": 130.89252749999918,
            "velocity": 0.3700787401574803,
            "duration": 0.1049539166666591
        },
        {
            "name": "G2",
            "midi": 43,
            "time": 130.98248799999917,
            "velocity": 0.4645669291338583,
            "duration": 0.1049539166666591
        },
        {
            "name": "D#3",
            "midi": 51,
            "time": 131.07244849999915,
            "velocity": 0.4094488188976378,
            "duration": 0.1049539166666591
        },
        {
            "name": "G2",
            "midi": 43,
            "time": 131.16240899999914,
            "velocity": 0.4409448818897638,
            "duration": 0.08921082916666023
        },
        {
            "name": "D#3",
            "midi": 51,
            "time": 131.25236949999913,
            "velocity": 0.4015748031496063,
            "duration": 0.08921082916666023
        },
        {
            "name": "G2",
            "midi": 43,
            "time": 131.34232999999912,
            "velocity": 0.47244094488188976,
            "duration": 0.08921082916666023
        },
        {
            "name": "D#3",
            "midi": 51,
            "time": 131.4322904999991,
            "velocity": 0.41732283464566927,
            "duration": 0.08921082916666023
        },
        {
            "name": "G2",
            "midi": 43,
            "time": 131.5222509999991,
            "velocity": 0.44881889763779526,
            "duration": 0.08921082916666023
        },
        {
            "name": "D#3",
            "midi": 51,
            "time": 131.6122114999991,
            "velocity": 0.4094488188976378,
            "duration": 0.08921082916666023
        },
        {
            "name": "G2",
            "midi": 43,
            "time": 131.70217199999908,
            "velocity": 0.4881889763779528,
            "duration": 0.08921082916666023
        },
        {
            "name": "D#3",
            "midi": 51,
            "time": 131.79213249999907,
            "velocity": 0.4251968503937008,
            "duration": 0.08921082916666023
        },
        {
            "name": "G2",
            "midi": 43,
            "time": 131.88209299999906,
            "velocity": 0.4645669291338583,
            "duration": 0.1049539166666591
        },
        {
            "name": "D#3",
            "midi": 51,
            "time": 131.97205349999905,
            "velocity": 0.41732283464566927,
            "duration": 0.1049539166666591
        },
        {
            "name": "G2",
            "midi": 43,
            "time": 132.06201399999904,
            "velocity": 0.4881889763779528,
            "duration": 0.1049539166666591
        },
        {
            "name": "D#3",
            "midi": 51,
            "time": 132.15197449999903,
            "velocity": 0.4251968503937008,
            "duration": 0.1049539166666591
        },
        {
            "name": "G2",
            "midi": 43,
            "time": 132.24193499999902,
            "velocity": 0.47244094488188976,
            "duration": 0.1049539166666591
        },
        {
            "name": "D#3",
            "midi": 51,
            "time": 132.331895499999,
            "velocity": 0.41732283464566927,
            "duration": 0.1049539166666591
        },
        {
            "name": "F#2",
            "midi": 42,
            "time": 132.421855999999,
            "velocity": 0.5196850393700787,
            "duration": 0.1049539166666591
        },
        {
            "name": "D#3",
            "midi": 51,
            "time": 132.511816499999,
            "velocity": 0.44881889763779526,
            "duration": 0.1049539166666591
        },
        {
            "name": "G#2",
            "midi": 44,
            "time": 132.60177699999898,
            "velocity": 0.48031496062992124,
            "duration": 0.1049539166666591
        },
        {
            "name": "D#3",
            "midi": 51,
            "time": 132.69173749999896,
            "velocity": 0.4409448818897638,
            "duration": 0.1049539166666591
        },
        {
            "name": "F#2",
            "midi": 42,
            "time": 132.78169799999895,
            "velocity": 0.5196850393700787,
            "duration": 0.1049539166666591
        },
        {
            "name": "D#3",
            "midi": 51,
            "time": 132.87165849999894,
            "velocity": 0.4409448818897638,
            "duration": 0.1049539166666591
        },
        {
            "name": "G#2",
            "midi": 44,
            "time": 132.96161899999893,
            "velocity": 0.48031496062992124,
            "duration": 0.1049539166666591
        },
        {
            "name": "D#3",
            "midi": 51,
            "time": 133.05157949999892,
            "velocity": 0.4409448818897638,
            "duration": 0.1049539166666591
        },
        {
            "name": "E2",
            "midi": 40,
            "time": 133.1415399999989,
            "velocity": 0.5196850393700787,
            "duration": 0.1049539166666591
        },
        {
            "name": "C#3",
            "midi": 49,
            "time": 133.2315004999989,
            "velocity": 0.4566929133858268,
            "duration": 0.1049539166666591
        },
        {
            "name": "G#2",
            "midi": 44,
            "time": 133.3214609999989,
            "velocity": 0.4881889763779528,
            "duration": 0.1049539166666591
        },
        {
            "name": "C#3",
            "midi": 49,
            "time": 133.41142149999888,
            "velocity": 0.4409448818897638,
            "duration": 0.1049539166666591
        },
        {
            "name": "E2",
            "midi": 40,
            "time": 133.50138199999887,
            "velocity": 0.5196850393700787,
            "duration": 0.1049539166666591
        },
        {
            "name": "C#3",
            "midi": 49,
            "time": 133.59134249999886,
            "velocity": 0.4409448818897638,
            "duration": 0.1049539166666591
        },
        {
            "name": "G#2",
            "midi": 44,
            "time": 133.68130299999885,
            "velocity": 0.48031496062992124,
            "duration": 0.1049539166666591
        },
        {
            "name": "C#3",
            "midi": 49,
            "time": 133.77126349999884,
            "velocity": 0.48031496062992124,
            "duration": 0.1049539166666591
        },
        {
            "name": "E2",
            "midi": 40,
            "time": 133.86122399999883,
            "velocity": 0.5196850393700787,
            "duration": 0.08921082916666023
        },
        {
            "name": "C#3",
            "midi": 49,
            "time": 133.95118449999882,
            "velocity": 0.4409448818897638,
            "duration": 0.08921082916666023
        },
        {
            "name": "F#2",
            "midi": 42,
            "time": 134.0411449999988,
            "velocity": 0.48031496062992124,
            "duration": 0.08921082916666023
        },
        {
            "name": "C#3",
            "midi": 49,
            "time": 134.1311054999988,
            "velocity": 0.4251968503937008,
            "duration": 0.08921082916666023
        },
        {
            "name": "D#2",
            "midi": 39,
            "time": 134.22106599999879,
            "velocity": 0.5196850393700787,
            "duration": 0.1049539166666591
        },
        {
            "name": "B2",
            "midi": 47,
            "time": 134.31102649999877,
            "velocity": 0.4409448818897638,
            "duration": 0.1049539166666591
        },
        {
            "name": "F#2",
            "midi": 42,
            "time": 134.40098699999876,
            "velocity": 0.4881889763779528,
            "duration": 0.1049539166666591
        },
        {
            "name": "B2",
            "midi": 47,
            "time": 134.49094749999875,
            "velocity": 0.4409448818897638,
            "duration": 0.1049539166666591
        },
        {
            "name": "D#2",
            "midi": 39,
            "time": 134.58090799999874,
            "velocity": 0.5196850393700787,
            "duration": 0.1049539166666591
        },
        {
            "name": "B2",
            "midi": 47,
            "time": 134.67086849999873,
            "velocity": 0.4409448818897638,
            "duration": 0.1049539166666591
        },
        {
            "name": "F#2",
            "midi": 42,
            "time": 134.76082899999872,
            "velocity": 0.48031496062992124,
            "duration": 0.1049539166666591
        },
        {
            "name": "B2",
            "midi": 47,
            "time": 134.8507894999987,
            "velocity": 0.4409448818897638,
            "duration": 0.1049539166666591
        },
        {
            "name": "D#2",
            "midi": 39,
            "time": 134.9407499999987,
            "velocity": 0.5196850393700787,
            "duration": 0.1049539166666591
        },
        {
            "name": "B2",
            "midi": 47,
            "time": 135.0307104999987,
            "velocity": 0.4251968503937008,
            "duration": 0.1049539166666591
        },
        {
            "name": "F#2",
            "midi": 42,
            "time": 135.12067099999868,
            "velocity": 0.47244094488188976,
            "duration": 0.1049539166666591
        },
        {
            "name": "B2",
            "midi": 47,
            "time": 135.21063149999867,
            "velocity": 0.47244094488188976,
            "duration": 0.1049539166666591
        },
        {
            "name": "D2",
            "midi": 38,
            "time": 135.30059199999866,
            "velocity": 0.5196850393700787,
            "duration": 0.1049539166666591
        },
        {
            "name": "B2",
            "midi": 47,
            "time": 135.39055249999865,
            "velocity": 0.4409448818897638,
            "duration": 0.1049539166666591
        },
        {
            "name": "E2",
            "midi": 40,
            "time": 135.48051299999864,
            "velocity": 0.4881889763779528,
            "duration": 0.1049539166666591
        },
        {
            "name": "B2",
            "midi": 47,
            "time": 135.57047349999863,
            "velocity": 0.4251968503937008,
            "duration": 0.1049539166666591
        },
        {
            "name": "D2",
            "midi": 38,
            "time": 135.66043399999862,
            "velocity": 0.5196850393700787,
            "duration": 0.1049539166666591
        },
        {
            "name": "B2",
            "midi": 47,
            "time": 135.7503944999986,
            "velocity": 0.4409448818897638,
            "duration": 0.1049539166666591
        },
        {
            "name": "E2",
            "midi": 40,
            "time": 135.8403549999986,
            "velocity": 0.4881889763779528,
            "duration": 0.1049539166666591
        },
        {
            "name": "B2",
            "midi": 47,
            "time": 135.93031549999858,
            "velocity": 0.4409448818897638,
            "duration": 0.1049539166666591
        },
        {
            "name": "C#2",
            "midi": 37,
            "time": 136.02027599999857,
            "velocity": 0.5196850393700787,
            "duration": 0.1049539166666591
        },
        {
            "name": "A2",
            "midi": 45,
            "time": 136.11023649999856,
            "velocity": 0.4409448818897638,
            "duration": 0.1049539166666591
        },
        {
            "name": "E2",
            "midi": 40,
            "time": 136.20019699999855,
            "velocity": 0.4881889763779528,
            "duration": 0.1049539166666591
        },
        {
            "name": "A2",
            "midi": 45,
            "time": 136.29015749999854,
            "velocity": 0.4409448818897638,
            "duration": 0.1049539166666591
        },
        {
            "name": "C#2",
            "midi": 37,
            "time": 136.38011799999853,
            "velocity": 0.5196850393700787,
            "duration": 0.1049539166666591
        },
        {
            "name": "A2",
            "midi": 45,
            "time": 136.47007849999852,
            "velocity": 0.4409448818897638,
            "duration": 0.1049539166666591
        },
        {
            "name": "E2",
            "midi": 40,
            "time": 136.5600389999985,
            "velocity": 0.4881889763779528,
            "duration": 0.1049539166666591
        },
        {
            "name": "A2",
            "midi": 45,
            "time": 136.6499994999985,
            "velocity": 0.4409448818897638,
            "duration": 0.1049539166666591
        },
        {
            "name": "C#2",
            "midi": 37,
            "time": 136.7399599999985,
            "velocity": 0.5196850393700787,
            "duration": 0.08921082916666023
        },
        {
            "name": "A#2",
            "midi": 46,
            "time": 136.82992049999848,
            "velocity": 0.4409448818897638,
            "duration": 0.08921082916666023
        },
        {
            "name": "D#2",
            "midi": 39,
            "time": 136.91988099999847,
            "velocity": 0.47244094488188976,
            "duration": 0.08921082916666023
        },
        {
            "name": "A#2",
            "midi": 46,
            "time": 137.00984149999846,
            "velocity": 0.4409448818897638,
            "duration": 0.08921082916666023
        },
        {
            "name": "B1",
            "midi": 35,
            "time": 137.09980199999845,
            "velocity": 0.5196850393700787,
            "duration": 0.1049539166666591
        },
        {
            "name": "G#2",
            "midi": 44,
            "time": 137.18976249999844,
            "velocity": 0.4409448818897638,
            "duration": 0.1049539166666591
        },
        {
            "name": "D#2",
            "midi": 39,
            "time": 137.27972299999843,
            "velocity": 0.48031496062992124,
            "duration": 0.1049539166666591
        },
        {
            "name": "G#2",
            "midi": 44,
            "time": 137.36968349999842,
            "velocity": 0.4409448818897638,
            "duration": 0.1049539166666591
        },
        {
            "name": "B1",
            "midi": 35,
            "time": 137.4596439999984,
            "velocity": 0.5196850393700787,
            "duration": 0.1049539166666591
        },
        {
            "name": "G#2",
            "midi": 44,
            "time": 137.5496044999984,
            "velocity": 0.4409448818897638,
            "duration": 0.1049539166666591
        },
        {
            "name": "D#2",
            "midi": 39,
            "time": 137.63956499999838,
            "velocity": 0.48031496062992124,
            "duration": 0.1049539166666591
        },
        {
            "name": "G#2",
            "midi": 44,
            "time": 137.72952549999837,
            "velocity": 0.4251968503937008,
            "duration": 0.1049539166666591
        },
        {
            "name": "B1",
            "midi": 35,
            "time": 137.81948599999836,
            "velocity": 0.5196850393700787,
            "duration": 0.1049539166666591
        },
        {
            "name": "G#2",
            "midi": 44,
            "time": 137.90944649999835,
            "velocity": 0.4409448818897638,
            "duration": 0.1049539166666591
        },
        {
            "name": "D#2",
            "midi": 39,
            "time": 137.99940699999834,
            "velocity": 0.48031496062992124,
            "duration": 0.1049539166666591
        },
        {
            "name": "G#2",
            "midi": 44,
            "time": 138.08936749999833,
            "velocity": 0.4251968503937008,
            "duration": 0.08996049999998945
        },
        {
            "name": "A2",
            "midi": 45,
            "time": 138.17932799999832,
            "velocity": 0.5905511811023622,
            "duration": 1.079525999999987
        },
        {
            "name": "C#3",
            "midi": 49,
            "time": 138.17932799999832,
            "velocity": 0.5905511811023622,
            "duration": 1.079525999999987
        },
        {
            "name": "E2",
            "midi": 40,
            "time": 138.17932799999832,
            "velocity": 0.5039370078740157,
            "duration": 1.079525999999987
        },
        {
            "name": "C#2",
            "midi": 37,
            "time": 138.17932799999832,
            "velocity": 0.5039370078740157,
            "duration": 1.079525999999987
        },
        {
            "name": "E4",
            "midi": 64,
            "time": 139.6186959999983,
            "velocity": 0.33070866141732286,
            "duration": 0.35984200000001465
        },
        {
            "name": "C#4",
            "midi": 61,
            "time": 139.6186959999983,
            "velocity": 0.33070866141732286,
            "duration": 0.35984200000001465
        },
        {
            "name": "A4",
            "midi": 69,
            "time": 139.6186959999983,
            "velocity": 0.3937007874015748,
            "duration": 0.35684331666666935
        },
        {
            "name": "A4",
            "midi": 69,
            "time": 140.3383799999983,
            "velocity": 0.3858267716535433,
            "duration": 0.35984199999998623
        },
        {
            "name": "E4",
            "midi": 64,
            "time": 140.3383799999983,
            "velocity": 0.3228346456692913,
            "duration": 0.35984199999998623
        },
        {
            "name": "C#4",
            "midi": 61,
            "time": 140.3383799999983,
            "velocity": 0.3228346456692913,
            "duration": 0.35984199999998623
        },
        {
            "name": "A4",
            "midi": 69,
            "time": 141.05806399999827,
            "velocity": 0.3858267716535433,
            "duration": 0.35984199999998623
        },
        {
            "name": "E4",
            "midi": 64,
            "time": 141.05806399999827,
            "velocity": 0.3228346456692913,
            "duration": 0.35984199999998623
        },
        {
            "name": "C#4",
            "midi": 61,
            "time": 141.05806399999827,
            "velocity": 0.3228346456692913,
            "duration": 0.35984199999998623
        },
        {
            "name": "A4",
            "midi": 69,
            "time": 141.41790599999825,
            "velocity": 0.4094488188976378,
            "duration": 0.35984199999998623
        },
        {
            "name": "E4",
            "midi": 64,
            "time": 141.41790599999825,
            "velocity": 0.3464566929133858,
            "duration": 0.35984199999998623
        },
        {
            "name": "C#4",
            "midi": 61,
            "time": 141.41790599999825,
            "velocity": 0.3464566929133858,
            "duration": 0.35984199999998623
        },
        {
            "name": "A4",
            "midi": 69,
            "time": 141.77774799999824,
            "velocity": 0.47244094488188976,
            "duration": 0.35984199999998623
        },
        {
            "name": "E4",
            "midi": 64,
            "time": 141.77774799999824,
            "velocity": 0.4015748031496063,
            "duration": 0.35984199999998623
        },
        {
            "name": "C#4",
            "midi": 61,
            "time": 141.77774799999824,
            "velocity": 0.4015748031496063,
            "duration": 0.35984199999998623
        },
        {
            "name": "C#4",
            "midi": 61,
            "time": 142.13758999999823,
            "velocity": 0.3700787401574803,
            "duration": 0.35984199999998623
        },
        {
            "name": "A4",
            "midi": 69,
            "time": 142.13758999999823,
            "velocity": 0.4409448818897638,
            "duration": 0.35984199999998623
        },
        {
            "name": "E4",
            "midi": 64,
            "time": 142.13758999999823,
            "velocity": 0.3700787401574803,
            "duration": 0.35984199999998623
        },
        {
            "name": "D#4",
            "midi": 63,
            "time": 142.4974319999982,
            "velocity": 0.3858267716535433,
            "duration": 0.08996049999998945
        },
        {
            "name": "B4",
            "midi": 71,
            "time": 142.5873924999982,
            "velocity": 0.33858267716535434,
            "duration": 0.08996049999998945
        },
        {
            "name": "G#4",
            "midi": 68,
            "time": 142.6773529999982,
            "velocity": 0.3858267716535433,
            "duration": 0.08996049999998945
        },
        {
            "name": "B4",
            "midi": 71,
            "time": 142.76731349999818,
            "velocity": 0.3858267716535433,
            "duration": 0.08996049999998945
        },
        {
            "name": "D#4",
            "midi": 63,
            "time": 142.85727399999817,
            "velocity": 0.4015748031496063,
            "duration": 0.08996049999998945
        },
        {
            "name": "B4",
            "midi": 71,
            "time": 142.94723449999816,
            "velocity": 0.3464566929133858,
            "duration": 0.08996049999998945
        },
        {
            "name": "G#4",
            "midi": 68,
            "time": 143.03719499999815,
            "velocity": 0.3700787401574803,
            "duration": 0.08996049999998945
        },
        {
            "name": "B4",
            "midi": 71,
            "time": 143.12715549999814,
            "velocity": 0.33858267716535434,
            "duration": 0.08996049999998945
        },
        {
            "name": "D#4",
            "midi": 63,
            "time": 143.21711599999813,
            "velocity": 0.4015748031496063,
            "duration": 0.08996049999998945
        },
        {
            "name": "C#5",
            "midi": 73,
            "time": 143.30707649999812,
            "velocity": 0.3464566929133858,
            "duration": 0.08996049999998945
        },
        {
            "name": "G4",
            "midi": 67,
            "time": 143.3970369999981,
            "velocity": 0.3779527559055118,
            "duration": 0.08996049999998945
        },
        {
            "name": "C#5",
            "midi": 73,
            "time": 143.4869974999981,
            "velocity": 0.3464566929133858,
            "duration": 0.08996049999998945
        },
        {
            "name": "D#4",
            "midi": 63,
            "time": 143.5769579999981,
            "velocity": 0.4015748031496063,
            "duration": 0.08996049999998945
        },
        {
            "name": "C#5",
            "midi": 73,
            "time": 143.66691849999808,
            "velocity": 0.3543307086614173,
            "duration": 0.08996049999998945
        },
        {
            "name": "G4",
            "midi": 67,
            "time": 143.75687899999807,
            "velocity": 0.3779527559055118,
            "duration": 0.08996049999998945
        },
        {
            "name": "C#5",
            "midi": 73,
            "time": 143.84683949999805,
            "velocity": 0.3543307086614173,
            "duration": 0.08996049999998945
        },
        {
            "name": "B4",
            "midi": 71,
            "time": 143.93679999999804,
            "velocity": 0.4409448818897638,
            "duration": 0.17992100000000733
        },
        {
            "name": "E4",
            "midi": 64,
            "time": 143.93679999999804,
            "velocity": 0.3700787401574803,
            "duration": 0.17992100000000733
        },
        {
            "name": "G#4",
            "midi": 68,
            "time": 143.93679999999804,
            "velocity": 0.4409448818897638,
            "duration": 0.17992100000000733
        },
        {
            "name": "C#3",
            "midi": 49,
            "time": 144.29664199999806,
            "velocity": 0.5748031496062992,
            "duration": 0.7196840000000009
        },
        {
            "name": "A2",
            "midi": 45,
            "time": 144.29664199999806,
            "velocity": 0.5748031496062992,
            "duration": 0.7196840000000009
        },
        {
            "name": "E2",
            "midi": 40,
            "time": 144.29664199999806,
            "velocity": 0.4881889763779528,
            "duration": 0.7196840000000009
        },
        {
            "name": "C#2",
            "midi": 37,
            "time": 144.29664199999806,
            "velocity": 0.4881889763779528,
            "duration": 0.7196840000000009
        },
        {
            "name": "E3",
            "midi": 52,
            "time": 145.73600999999806,
            "velocity": 0.3228346456692913,
            "duration": 0.35984199999998623
        },
        {
            "name": "C#3",
            "midi": 49,
            "time": 145.73600999999806,
            "velocity": 0.3228346456692913,
            "duration": 0.35984199999998623
        },
        {
            "name": "A3",
            "midi": 57,
            "time": 145.73600999999806,
            "velocity": 0.3858267716535433,
            "duration": 0.35984199999998623
        },
        {
            "name": "E3",
            "midi": 52,
            "time": 146.45569399999803,
            "velocity": 0.3228346456692913,
            "duration": 0.35984199999998623
        },
        {
            "name": "A3",
            "midi": 57,
            "time": 146.45569399999803,
            "velocity": 0.3858267716535433,
            "duration": 0.35984199999998623
        },
        {
            "name": "C#3",
            "midi": 49,
            "time": 146.45569399999803,
            "velocity": 0.3228346456692913,
            "duration": 0.35984199999998623
        },
        {
            "name": "C#3",
            "midi": 49,
            "time": 146.99545699999803,
            "velocity": 0.33858267716535434,
            "duration": 0.17992100000000733
        },
        {
            "name": "A3",
            "midi": 57,
            "time": 146.99545699999803,
            "velocity": 0.4015748031496063,
            "duration": 0.17992100000000733
        },
        {
            "name": "E3",
            "midi": 52,
            "time": 146.99545699999803,
            "velocity": 0.33858267716535434,
            "duration": 0.17992100000000733
        },
        {
            "name": "C#3",
            "midi": 49,
            "time": 147.35529899999804,
            "velocity": 0.4015748031496063,
            "duration": 0.17992100000000733
        },
        {
            "name": "A3",
            "midi": 57,
            "time": 147.35529899999804,
            "velocity": 0.48031496062992124,
            "duration": 0.17992100000000733
        },
        {
            "name": "E3",
            "midi": 52,
            "time": 147.35529899999804,
            "velocity": 0.4015748031496063,
            "duration": 0.17992100000000733
        },
        {
            "name": "C#3",
            "midi": 49,
            "time": 147.71514099999806,
            "velocity": 0.44881889763779526,
            "duration": 0.17992100000000733
        },
        {
            "name": "A3",
            "midi": 57,
            "time": 147.71514099999806,
            "velocity": 0.5354330708661418,
            "duration": 0.17992100000000733
        },
        {
            "name": "E3",
            "midi": 52,
            "time": 147.71514099999806,
            "velocity": 0.44881889763779526,
            "duration": 0.17992100000000733
        },
        {
            "name": "A3",
            "midi": 57,
            "time": 148.07498299999807,
            "velocity": 0.5354330708661418,
            "duration": 0.17992100000000733
        },
        {
            "name": "E3",
            "midi": 52,
            "time": 148.07498299999807,
            "velocity": 0.44881889763779526,
            "duration": 0.17992100000000733
        },
        {
            "name": "C#3",
            "midi": 49,
            "time": 148.07498299999807,
            "velocity": 0.44881889763779526,
            "duration": 0.17992100000000733
        },
        {
            "name": "E3",
            "midi": 52,
            "time": 148.25490399999808,
            "velocity": 0.4409448818897638,
            "duration": 0.35984199999998623
        },
        {
            "name": "C#3",
            "midi": 49,
            "time": 148.25490399999808,
            "velocity": 0.4409448818897638,
            "duration": 0.35984199999998623
        },
        {
            "name": "A3",
            "midi": 57,
            "time": 148.25490399999808,
            "velocity": 0.5275590551181102,
            "duration": 0.35984199999998623
        },
        {
            "name": "C#3",
            "midi": 49,
            "time": 149.69427199999805,
            "velocity": 0.5511811023622047,
            "duration": 0.08921082916666023
        },
        {
            "name": "A3",
            "midi": 57,
            "time": 149.78423249999804,
            "velocity": 0.48031496062992124,
            "duration": 0.08921082916666023
        },
        {
            "name": "E3",
            "midi": 52,
            "time": 149.87419299999803,
            "velocity": 0.5196850393700787,
            "duration": 0.08921082916666023
        },
        {
            "name": "A3",
            "midi": 57,
            "time": 149.96415349999802,
            "velocity": 0.4881889763779528,
            "duration": 0.08921082916666023
        },
        {
            "name": "C#3",
            "midi": 49,
            "time": 150.054113999998,
            "velocity": 0.5511811023622047,
            "duration": 0.08921082916666023
        },
        {
            "name": "A3",
            "midi": 57,
            "time": 150.144074499998,
            "velocity": 0.48031496062992124,
            "duration": 0.08921082916666023
        },
        {
            "name": "E3",
            "midi": 52,
            "time": 150.234034999998,
            "velocity": 0.5118110236220472,
            "duration": 0.08921082916666023
        },
        {
            "name": "A3",
            "midi": 57,
            "time": 150.32399549999798,
            "velocity": 0.4881889763779528,
            "duration": 0.08921082916666023
        },
        {
            "name": "D3",
            "midi": 50,
            "time": 150.41395599999797,
            "velocity": 0.5511811023622047,
            "duration": 0.08921082916666023
        },
        {
            "name": "B3",
            "midi": 59,
            "time": 150.50391649999796,
            "velocity": 0.48031496062992124,
            "duration": 0.08921082916666023
        },
        {
            "name": "F3",
            "midi": 53,
            "time": 150.59387699999795,
            "velocity": 0.5196850393700787,
            "duration": 0.08921082916666023
        },
        {
            "name": "B3",
            "midi": 59,
            "time": 150.68383749999794,
            "velocity": 0.4881889763779528,
            "duration": 0.08921082916666023
        },
        {
            "name": "D3",
            "midi": 50,
            "time": 150.77379799999792,
            "velocity": 0.5511811023622047,
            "duration": 0.08921082916666023
        },
        {
            "name": "B3",
            "midi": 59,
            "time": 150.8637584999979,
            "velocity": 0.4645669291338583,
            "duration": 0.08921082916666023
        },
        {
            "name": "F3",
            "midi": 53,
            "time": 150.9537189999979,
            "velocity": 0.49606299212598426,
            "duration": 0.08921082916666023
        },
        {
            "name": "B3",
            "midi": 59,
            "time": 151.0436794999979,
            "velocity": 0.48031496062992124,
            "duration": 0.08921082916666023
        },
        {
            "name": "D#3",
            "midi": 51,
            "time": 151.13363999999788,
            "velocity": 0.5511811023622047,
            "duration": 0.08921082916666023
        },
        {
            "name": "B3",
            "midi": 59,
            "time": 151.22360049999787,
            "velocity": 0.48031496062992124,
            "duration": 0.08921082916666023
        },
        {
            "name": "G#3",
            "midi": 56,
            "time": 151.31356099999786,
            "velocity": 0.5196850393700787,
            "duration": 0.08921082916666023
        },
        {
            "name": "B3",
            "midi": 59,
            "time": 151.40352149999785,
            "velocity": 0.4881889763779528,
            "duration": 0.08921082916666023
        },
        {
            "name": "D#3",
            "midi": 51,
            "time": 151.49348199999784,
            "velocity": 0.5511811023622047,
            "duration": 0.08921082916666023
        },
        {
            "name": "B3",
            "midi": 59,
            "time": 151.58344249999783,
            "velocity": 0.4881889763779528,
            "duration": 0.08921082916666023
        },
        {
            "name": "G#3",
            "midi": 56,
            "time": 151.67340299999782,
            "velocity": 0.5196850393700787,
            "duration": 0.08921082916666023
        },
        {
            "name": "B3",
            "midi": 59,
            "time": 151.7633634999978,
            "velocity": 0.48031496062992124,
            "duration": 0.08921082916666023
        },
        {
            "name": "D#2",
            "midi": 39,
            "time": 151.8533239999978,
            "velocity": 0.5511811023622047,
            "duration": 0.08921082916666023
        },
        {
            "name": "D#3",
            "midi": 51,
            "time": 151.9432844999978,
            "velocity": 0.4881889763779528,
            "duration": 0.08921082916666023
        },
        {
            "name": "D3",
            "midi": 50,
            "time": 152.03324499999778,
            "velocity": 0.5275590551181102,
            "duration": 0.08921082916666023
        },
        {
            "name": "D#3",
            "midi": 51,
            "time": 152.12320549999777,
            "velocity": 0.4881889763779528,
            "duration": 0.08921082916666023
        },
        {
            "name": "D3",
            "midi": 50,
            "time": 152.21316599999776,
            "velocity": 0.5511811023622047,
            "duration": 0.08921082916666023
        },
        {
            "name": "D#3",
            "midi": 51,
            "time": 152.30312649999775,
            "velocity": 0.4881889763779528,
            "duration": 0.08921082916666023
        },
        {
            "name": "D3",
            "midi": 50,
            "time": 152.39308699999773,
            "velocity": 0.5275590551181102,
            "duration": 0.08921082916666023
        },
        {
            "name": "D#3",
            "midi": 51,
            "time": 152.48304749999772,
            "velocity": 0.4881889763779528,
            "duration": 0.07646642500000667
        },
        {
            "name": "G#2",
            "midi": 44,
            "time": 152.57300799999774,
            "velocity": 0.5590551181102362,
            "duration": 0.17992100000000733
        },
        {
            "name": "G#3",
            "midi": 56,
            "time": 152.93284999999776,
            "velocity": 0.33858267716535434,
            "duration": 0.08996049999998945
        },
        {
            "name": "G#3",
            "midi": 56,
            "time": 153.11277099999774,
            "velocity": 0.33858267716535434,
            "duration": 0.08996049999998945
        },
        {
            "name": "G#3",
            "midi": 56,
            "time": 153.29269199999771,
            "velocity": 0.33858267716535434,
            "duration": 0.08996049999998945
        },
        {
            "name": "G#3",
            "midi": 56,
            "time": 153.4726129999977,
            "velocity": 0.33858267716535434,
            "duration": 0.08996049999998945
        },
        {
            "name": "A#3",
            "midi": 58,
            "time": 153.65253399999767,
            "velocity": 0.31496062992125984,
            "duration": 0.08996049999998945
        },
        {
            "name": "B3",
            "midi": 59,
            "time": 153.83245499999765,
            "velocity": 0.30708661417322836,
            "duration": 0.08996049999998945
        },
        {
            "name": "D#3",
            "midi": 51,
            "time": 154.01237599999763,
            "velocity": 0.3700787401574803,
            "duration": 0.17992100000000733
        },
        {
            "name": "C#4",
            "midi": 61,
            "time": 154.01237599999763,
            "velocity": 0.3700787401574803,
            "duration": 0.17992100000000733
        },
        {
            "name": "C#4",
            "midi": 61,
            "time": 154.19229699999764,
            "velocity": 0.33070866141732286,
            "duration": 0.08996049999998945
        },
        {
            "name": "D#4",
            "midi": 63,
            "time": 154.19229699999764,
            "velocity": 0.33070866141732286,
            "duration": 0.08996049999998945
        },
        {
            "name": "C#4",
            "midi": 61,
            "time": 154.37221799999762,
            "velocity": 0.3228346456692913,
            "duration": 0.08996049999998945
        },
        {
            "name": "D#4",
            "midi": 63,
            "time": 154.37221799999762,
            "velocity": 0.3228346456692913,
            "duration": 0.08996049999998945
        },
        {
            "name": "C#4",
            "midi": 61,
            "time": 154.5521389999976,
            "velocity": 0.3228346456692913,
            "duration": 0.08996049999998945
        },
        {
            "name": "D#4",
            "midi": 63,
            "time": 154.5521389999976,
            "velocity": 0.3228346456692913,
            "duration": 0.08996049999998945
        },
        {
            "name": "D#4",
            "midi": 63,
            "time": 154.73205999999757,
            "velocity": 0.3228346456692913,
            "duration": 0.08996049999998945
        },
        {
            "name": "C#4",
            "midi": 61,
            "time": 154.73205999999757,
            "velocity": 0.3228346456692913,
            "duration": 0.08996049999998945
        },
        {
            "name": "D#4",
            "midi": 63,
            "time": 154.91198099999755,
            "velocity": 0.3228346456692913,
            "duration": 0.08996049999998945
        },
        {
            "name": "C#4",
            "midi": 61,
            "time": 154.91198099999755,
            "velocity": 0.3228346456692913,
            "duration": 0.08996049999998945
        },
        {
            "name": "D#4",
            "midi": 63,
            "time": 155.09190199999753,
            "velocity": 0.3228346456692913,
            "duration": 0.08996049999998945
        },
        {
            "name": "B3",
            "midi": 59,
            "time": 155.09190199999753,
            "velocity": 0.3228346456692913,
            "duration": 0.08996049999998945
        },
        {
            "name": "A#3",
            "midi": 58,
            "time": 155.2718229999975,
            "velocity": 0.33858267716535434,
            "duration": 0.08996049999998945
        },
        {
            "name": "D#4",
            "midi": 63,
            "time": 155.2718229999975,
            "velocity": 0.33858267716535434,
            "duration": 0.08996049999998945
        },
        {
            "name": "G#3",
            "midi": 56,
            "time": 155.4517439999975,
            "velocity": 0.3700787401574803,
            "duration": 0.17992100000000733
        },
        {
            "name": "G#2",
            "midi": 44,
            "time": 155.4517439999975,
            "velocity": 0.3700787401574803,
            "duration": 0.17992100000000733
        },
        {
            "name": "G#3",
            "midi": 56,
            "time": 155.6316649999975,
            "velocity": 0.33070866141732286,
            "duration": 0.08996049999998945
        },
        {
            "name": "G#3",
            "midi": 56,
            "time": 155.81158599999748,
            "velocity": 0.33070866141732286,
            "duration": 0.08996049999998945
        },
        {
            "name": "G#3",
            "midi": 56,
            "time": 155.99150699999745,
            "velocity": 0.33070866141732286,
            "duration": 0.08996049999998945
        },
        {
            "name": "G#3",
            "midi": 56,
            "time": 156.17142799999743,
            "velocity": 0.33858267716535434,
            "duration": 0.08996049999998945
        },
        {
            "name": "G#3",
            "midi": 56,
            "time": 156.3513489999974,
            "velocity": 0.33070866141732286,
            "duration": 0.08996049999998945
        },
        {
            "name": "A#3",
            "midi": 58,
            "time": 156.5312699999974,
            "velocity": 0.3228346456692913,
            "duration": 0.08996049999998945
        },
        {
            "name": "B3",
            "midi": 59,
            "time": 156.71119099999737,
            "velocity": 0.30708661417322836,
            "duration": 0.08996049999998945
        },
        {
            "name": "D#3",
            "midi": 51,
            "time": 156.89111199999735,
            "velocity": 0.3700787401574803,
            "duration": 0.17992100000000733
        },
        {
            "name": "C#4",
            "midi": 61,
            "time": 156.89111199999735,
            "velocity": 0.3700787401574803,
            "duration": 0.17992100000000733
        },
        {
            "name": "C#4",
            "midi": 61,
            "time": 157.07103299999736,
            "velocity": 0.3228346456692913,
            "duration": 0.08996049999998945
        },
        {
            "name": "D#4",
            "midi": 63,
            "time": 157.07103299999736,
            "velocity": 0.3228346456692913,
            "duration": 0.08996049999998945
        },
        {
            "name": "D#4",
            "midi": 63,
            "time": 157.25095399999734,
            "velocity": 0.33858267716535434,
            "duration": 0.08996049999998945
        },
        {
            "name": "C#4",
            "midi": 61,
            "time": 157.25095399999734,
            "velocity": 0.33858267716535434,
            "duration": 0.08996049999998945
        },
        {
            "name": "C#4",
            "midi": 61,
            "time": 157.43087499999731,
            "velocity": 0.33070866141732286,
            "duration": 0.08996049999998945
        },
        {
            "name": "D#4",
            "midi": 63,
            "time": 157.43087499999731,
            "velocity": 0.33070866141732286,
            "duration": 0.08996049999998945
        },
        {
            "name": "C#4",
            "midi": 61,
            "time": 157.6107959999973,
            "velocity": 0.33070866141732286,
            "duration": 0.08996049999998945
        },
        {
            "name": "D#4",
            "midi": 63,
            "time": 157.6107959999973,
            "velocity": 0.33070866141732286,
            "duration": 0.08996049999998945
        },
        {
            "name": "D#4",
            "midi": 63,
            "time": 157.79071699999727,
            "velocity": 0.33070866141732286,
            "duration": 0.08996049999998945
        },
        {
            "name": "C#4",
            "midi": 61,
            "time": 157.79071699999727,
            "velocity": 0.33070866141732286,
            "duration": 0.08996049999998945
        },
        {
            "name": "D#4",
            "midi": 63,
            "time": 157.97063799999725,
            "velocity": 0.33858267716535434,
            "duration": 0.08996049999998945
        },
        {
            "name": "B3",
            "midi": 59,
            "time": 157.97063799999725,
            "velocity": 0.33858267716535434,
            "duration": 0.08996049999998945
        },
        {
            "name": "D#4",
            "midi": 63,
            "time": 158.15055899999723,
            "velocity": 0.3543307086614173,
            "duration": 0.08996049999998945
        },
        {
            "name": "A#3",
            "midi": 58,
            "time": 158.15055899999723,
            "velocity": 0.3543307086614173,
            "duration": 0.08996049999998945
        },
        {
            "name": "G#2",
            "midi": 44,
            "time": 158.3304799999972,
            "velocity": 0.3779527559055118,
            "duration": 0.08996049999998945
        },
        {
            "name": "B3",
            "midi": 59,
            "time": 158.5104009999972,
            "velocity": 0.30708661417322836,
            "duration": 0.08996049999998945
        },
        {
            "name": "G#3",
            "midi": 56,
            "time": 158.5104009999972,
            "velocity": 0.30708661417322836,
            "duration": 0.08996049999998945
        },
        {
            "name": "G#3",
            "midi": 56,
            "time": 158.69032199999717,
            "velocity": 0.30708661417322836,
            "duration": 0.17992100000000733
        },
        {
            "name": "B3",
            "midi": 59,
            "time": 158.69032199999717,
            "velocity": 0.30708661417322836,
            "duration": 0.17992100000000733
        },
        {
            "name": "B3",
            "midi": 59,
            "time": 158.87024299999717,
            "velocity": 0.30708661417322836,
            "duration": 0.17992100000000733
        },
        {
            "name": "D#4",
            "midi": 63,
            "time": 158.87024299999717,
            "velocity": 0.30708661417322836,
            "duration": 0.17992100000000733
        },
        {
            "name": "C#3",
            "midi": 49,
            "time": 159.05016399999718,
            "velocity": 0.3700787401574803,
            "duration": 0.08996049999998945
        },
        {
            "name": "G#3",
            "midi": 56,
            "time": 159.23008499999716,
            "velocity": 0.33858267716535434,
            "duration": 0.08996049999998945
        },
        {
            "name": "C#4",
            "midi": 61,
            "time": 159.23008499999716,
            "velocity": 0.33858267716535434,
            "duration": 0.08996049999998945
        },
        {
            "name": "C#4",
            "midi": 61,
            "time": 159.41000599999714,
            "velocity": 0.33858267716535434,
            "duration": 0.17992100000000733
        },
        {
            "name": "G#3",
            "midi": 56,
            "time": 159.41000599999714,
            "velocity": 0.33858267716535434,
            "duration": 0.17992100000000733
        },
        {
            "name": "C#4",
            "midi": 61,
            "time": 159.58992699999715,
            "velocity": 0.3228346456692913,
            "duration": 0.17992100000000733
        },
        {
            "name": "E4",
            "midi": 64,
            "time": 159.58992699999715,
            "velocity": 0.3228346456692913,
            "duration": 0.17992100000000733
        },
        {
            "name": "D#3",
            "midi": 51,
            "time": 159.76984799999715,
            "velocity": 0.3700787401574803,
            "duration": 0.08996049999998945
        },
        {
            "name": "B3",
            "midi": 59,
            "time": 159.94976899999713,
            "velocity": 0.3228346456692913,
            "duration": 0.08996049999998945
        },
        {
            "name": "G#3",
            "midi": 56,
            "time": 159.94976899999713,
            "velocity": 0.3228346456692913,
            "duration": 0.08996049999998945
        },
        {
            "name": "G#3",
            "midi": 56,
            "time": 160.1296899999971,
            "velocity": 0.33070866141732286,
            "duration": 0.17992100000000733
        },
        {
            "name": "B3",
            "midi": 59,
            "time": 160.1296899999971,
            "velocity": 0.33070866141732286,
            "duration": 0.17992100000000733
        },
        {
            "name": "D#4",
            "midi": 63,
            "time": 160.30961099999712,
            "velocity": 0.33070866141732286,
            "duration": 0.17992100000000733
        },
        {
            "name": "B3",
            "midi": 59,
            "time": 160.30961099999712,
            "velocity": 0.33070866141732286,
            "duration": 0.17992100000000733
        },
        {
            "name": "D#3",
            "midi": 51,
            "time": 160.48953199999713,
            "velocity": 0.3700787401574803,
            "duration": 0.08996049999998945
        },
        {
            "name": "G3",
            "midi": 55,
            "time": 160.6694529999971,
            "velocity": 0.30708661417322836,
            "duration": 0.08996049999998945
        },
        {
            "name": "A#3",
            "midi": 58,
            "time": 160.6694529999971,
            "velocity": 0.30708661417322836,
            "duration": 0.08996049999998945
        },
        {
            "name": "A#3",
            "midi": 58,
            "time": 160.84937399999708,
            "velocity": 0.30708661417322836,
            "duration": 0.17992100000000733
        },
        {
            "name": "G3",
            "midi": 55,
            "time": 160.84937399999708,
            "velocity": 0.30708661417322836,
            "duration": 0.17992100000000733
        },
        {
            "name": "A#3",
            "midi": 58,
            "time": 161.0292949999971,
            "velocity": 0.30708661417322836,
            "duration": 0.17992100000000733
        },
        {
            "name": "D#4",
            "midi": 63,
            "time": 161.0292949999971,
            "velocity": 0.30708661417322836,
            "duration": 0.17992100000000733
        },
        {
            "name": "G#1",
            "midi": 32,
            "time": 161.2092159999971,
            "velocity": 0.33070866141732286,
            "duration": 0.17992100000000733
        },
        {
            "name": "G#2",
            "midi": 44,
            "time": 161.2092159999971,
            "velocity": 0.33070866141732286,
            "duration": 0.17992100000000733
        },
        {
            "name": "G#2",
            "midi": 44,
            "time": 161.3891369999971,
            "velocity": 0.3228346456692913,
            "duration": 0.08996049999998945
        },
        {
            "name": "D#3",
            "midi": 51,
            "time": 161.3891369999971,
            "velocity": 0.3228346456692913,
            "duration": 0.08996049999998945
        },
        {
            "name": "G#2",
            "midi": 44,
            "time": 161.56905799999709,
            "velocity": 0.33858267716535434,
            "duration": 0.08996049999998945
        },
        {
            "name": "D#3",
            "midi": 51,
            "time": 161.56905799999709,
            "velocity": 0.33858267716535434,
            "duration": 0.08996049999998945
        },
        {
            "name": "D#3",
            "midi": 51,
            "time": 161.74897899999706,
            "velocity": 0.3700787401574803,
            "duration": 0.08996049999998945
        },
        {
            "name": "G#2",
            "midi": 44,
            "time": 161.74897899999706,
            "velocity": 0.3700787401574803,
            "duration": 0.08996049999998945
        },
        {
            "name": "D#3",
            "midi": 51,
            "time": 161.92889999999704,
            "velocity": 0.3937007874015748,
            "duration": 0.08996049999998945
        },
        {
            "name": "G#2",
            "midi": 44,
            "time": 161.92889999999704,
            "velocity": 0.3937007874015748,
            "duration": 0.08996049999998945
        },
        {
            "name": "D#3",
            "midi": 51,
            "time": 162.10882099999702,
            "velocity": 0.4094488188976378,
            "duration": 0.08996049999998945
        },
        {
            "name": "G#2",
            "midi": 44,
            "time": 162.10882099999702,
            "velocity": 0.4094488188976378,
            "duration": 0.08996049999998945
        },
        {
            "name": "D#3",
            "midi": 51,
            "time": 162.288741999997,
            "velocity": 0.44881889763779526,
            "duration": 0.08996049999998945
        },
        {
            "name": "A#2",
            "midi": 46,
            "time": 162.288741999997,
            "velocity": 0.44881889763779526,
            "duration": 0.08996049999998945
        },
        {
            "name": "D#3",
            "midi": 51,
            "time": 162.46866299999698,
            "velocity": 0.4645669291338583,
            "duration": 0.08996049999998945
        },
        {
            "name": "B2",
            "midi": 47,
            "time": 162.46866299999698,
            "velocity": 0.4645669291338583,
            "duration": 0.08996049999998945
        },
        {
            "name": "D#3",
            "midi": 51,
            "time": 162.64858399999696,
            "velocity": 0.4881889763779528,
            "duration": 0.17992100000000733
        },
        {
            "name": "C#3",
            "midi": 49,
            "time": 162.64858399999696,
            "velocity": 0.4881889763779528,
            "duration": 0.17992100000000733
        },
        {
            "name": "D#2",
            "midi": 39,
            "time": 162.64858399999696,
            "velocity": 0.4881889763779528,
            "duration": 0.17992100000000733
        },
        {
            "name": "C#4",
            "midi": 61,
            "time": 162.82850499999697,
            "velocity": 0.4881889763779528,
            "duration": 0.08996049999998945
        },
        {
            "name": "D#3",
            "midi": 51,
            "time": 162.82850499999697,
            "velocity": 0.4881889763779528,
            "duration": 0.08996049999998945
        },
        {
            "name": "D#3",
            "midi": 51,
            "time": 163.00842599999694,
            "velocity": 0.5196850393700787,
            "duration": 0.08996049999998945
        },
        {
            "name": "C#4",
            "midi": 61,
            "time": 163.00842599999694,
            "velocity": 0.5196850393700787,
            "duration": 0.08996049999998945
        },
        {
            "name": "C#4",
            "midi": 61,
            "time": 163.18834699999692,
            "velocity": 0.4881889763779528,
            "duration": 0.08996049999998945
        },
        {
            "name": "D#3",
            "midi": 51,
            "time": 163.18834699999692,
            "velocity": 0.4881889763779528,
            "duration": 0.08996049999998945
        },
        {
            "name": "C#4",
            "midi": 61,
            "time": 163.3682679999969,
            "velocity": 0.5196850393700787,
            "duration": 0.08996049999998945
        },
        {
            "name": "D#3",
            "midi": 51,
            "time": 163.3682679999969,
            "velocity": 0.5196850393700787,
            "duration": 0.08996049999998945
        },
        {
            "name": "C#4",
            "midi": 61,
            "time": 163.54818899999688,
            "velocity": 0.4881889763779528,
            "duration": 0.08996049999998945
        },
        {
            "name": "D#3",
            "midi": 51,
            "time": 163.54818899999688,
            "velocity": 0.4881889763779528,
            "duration": 0.08996049999998945
        },
        {
            "name": "D#3",
            "midi": 51,
            "time": 163.72810999999686,
            "velocity": 0.5196850393700787,
            "duration": 0.08996049999998945
        },
        {
            "name": "B3",
            "midi": 59,
            "time": 163.72810999999686,
            "velocity": 0.5196850393700787,
            "duration": 0.08996049999998945
        },
        {
            "name": "D#3",
            "midi": 51,
            "time": 163.90803099999684,
            "velocity": 0.4881889763779528,
            "duration": 0.08996049999998945
        },
        {
            "name": "A#3",
            "midi": 58,
            "time": 163.90803099999684,
            "velocity": 0.4881889763779528,
            "duration": 0.08996049999998945
        },
        {
            "name": "G#2",
            "midi": 44,
            "time": 164.08795199999682,
            "velocity": 0.5275590551181102,
            "duration": 0.17992100000000733
        },
        {
            "name": "G#1",
            "midi": 32,
            "time": 164.08795199999682,
            "velocity": 0.5275590551181102,
            "duration": 0.17992100000000733
        },
        {
            "name": "D#3",
            "midi": 51,
            "time": 164.26787299999683,
            "velocity": 0.3228346456692913,
            "duration": 0.08996049999998945
        },
        {
            "name": "G#2",
            "midi": 44,
            "time": 164.26787299999683,
            "velocity": 0.3228346456692913,
            "duration": 0.08996049999998945
        },
        {
            "name": "D#3",
            "midi": 51,
            "time": 164.4477939999968,
            "velocity": 0.3464566929133858,
            "duration": 0.08996049999998945
        },
        {
            "name": "G#2",
            "midi": 44,
            "time": 164.4477939999968,
            "velocity": 0.3464566929133858,
            "duration": 0.08996049999998945
        },
        {
            "name": "G#2",
            "midi": 44,
            "time": 164.62771499999678,
            "velocity": 0.3779527559055118,
            "duration": 0.08996049999998945
        },
        {
            "name": "D#3",
            "midi": 51,
            "time": 164.62771499999678,
            "velocity": 0.3779527559055118,
            "duration": 0.08996049999998945
        },
        {
            "name": "G#2",
            "midi": 44,
            "time": 164.80763599999676,
            "velocity": 0.4015748031496063,
            "duration": 0.08996049999998945
        },
        {
            "name": "D#3",
            "midi": 51,
            "time": 164.80763599999676,
            "velocity": 0.4015748031496063,
            "duration": 0.08996049999998945
        },
        {
            "name": "G#2",
            "midi": 44,
            "time": 164.98755699999674,
            "velocity": 0.4409448818897638,
            "duration": 0.08996049999998945
        },
        {
            "name": "D#3",
            "midi": 51,
            "time": 164.98755699999674,
            "velocity": 0.4409448818897638,
            "duration": 0.08996049999998945
        },
        {
            "name": "D#3",
            "midi": 51,
            "time": 165.16747799999672,
            "velocity": 0.4566929133858268,
            "duration": 0.08996049999998945
        },
        {
            "name": "A#2",
            "midi": 46,
            "time": 165.16747799999672,
            "velocity": 0.4566929133858268,
            "duration": 0.08996049999998945
        },
        {
            "name": "B2",
            "midi": 47,
            "time": 165.3473989999967,
            "velocity": 0.4881889763779528,
            "duration": 0.08996049999998945
        },
        {
            "name": "D#3",
            "midi": 51,
            "time": 165.3473989999967,
            "velocity": 0.4881889763779528,
            "duration": 0.08996049999998945
        },
        {
            "name": "C#3",
            "midi": 49,
            "time": 165.52731999999668,
            "velocity": 0.5196850393700787,
            "duration": 0.17992100000000733
        },
        {
            "name": "D#2",
            "midi": 39,
            "time": 165.52731999999668,
            "velocity": 0.5196850393700787,
            "duration": 0.17992100000000733
        },
        {
            "name": "D#3",
            "midi": 51,
            "time": 165.52731999999668,
            "velocity": 0.5196850393700787,
            "duration": 0.17992100000000733
        },
        {
            "name": "D#3",
            "midi": 51,
            "time": 165.70724099999669,
            "velocity": 0.4881889763779528,
            "duration": 0.08996049999998945
        },
        {
            "name": "C#4",
            "midi": 61,
            "time": 165.70724099999669,
            "velocity": 0.4881889763779528,
            "duration": 0.08996049999998945
        },
        {
            "name": "D#3",
            "midi": 51,
            "time": 165.88716199999666,
            "velocity": 0.5275590551181102,
            "duration": 0.08996049999998945
        },
        {
            "name": "C#4",
            "midi": 61,
            "time": 165.88716199999666,
            "velocity": 0.5275590551181102,
            "duration": 0.08996049999998945
        },
        {
            "name": "D#3",
            "midi": 51,
            "time": 166.06708299999664,
            "velocity": 0.4881889763779528,
            "duration": 0.08996049999998945
        },
        {
            "name": "C#4",
            "midi": 61,
            "time": 166.06708299999664,
            "velocity": 0.4881889763779528,
            "duration": 0.08996049999998945
        },
        {
            "name": "C#4",
            "midi": 61,
            "time": 166.24700399999662,
            "velocity": 0.5275590551181102,
            "duration": 0.08996049999998945
        },
        {
            "name": "D#3",
            "midi": 51,
            "time": 166.24700399999662,
            "velocity": 0.5275590551181102,
            "duration": 0.08996049999998945
        },
        {
            "name": "D#3",
            "midi": 51,
            "time": 166.4269249999966,
            "velocity": 0.4881889763779528,
            "duration": 0.08996049999998945
        },
        {
            "name": "C#4",
            "midi": 61,
            "time": 166.4269249999966,
            "velocity": 0.4881889763779528,
            "duration": 0.08996049999998945
        },
        {
            "name": "B3",
            "midi": 59,
            "time": 166.60684599999658,
            "velocity": 0.5275590551181102,
            "duration": 0.08996049999998945
        },
        {
            "name": "D#3",
            "midi": 51,
            "time": 166.60684599999658,
            "velocity": 0.5275590551181102,
            "duration": 0.08996049999998945
        },
        {
            "name": "D#3",
            "midi": 51,
            "time": 166.78676699999656,
            "velocity": 0.4881889763779528,
            "duration": 0.08996049999998945
        },
        {
            "name": "A#3",
            "midi": 58,
            "time": 166.78676699999656,
            "velocity": 0.4881889763779528,
            "duration": 0.08996049999998945
        },
        {
            "name": "G#2",
            "midi": 44,
            "time": 166.96668799999654,
            "velocity": 0.5354330708661418,
            "duration": 0.17992100000000733
        },
        {
            "name": "G#3",
            "midi": 56,
            "time": 166.96668799999654,
            "velocity": 0.5354330708661418,
            "duration": 0.17992100000000733
        },
        {
            "name": "B3",
            "midi": 59,
            "time": 167.14660899999654,
            "velocity": 0.33858267716535434,
            "duration": 0.08996049999998945
        },
        {
            "name": "D#4",
            "midi": 63,
            "time": 167.14660899999654,
            "velocity": 0.33858267716535434,
            "duration": 0.08996049999998945
        },
        {
            "name": "D#4",
            "midi": 63,
            "time": 167.32652999999652,
            "velocity": 0.3228346456692913,
            "duration": 0.17992100000000733
        },
        {
            "name": "B3",
            "midi": 59,
            "time": 167.32652999999652,
            "velocity": 0.3228346456692913,
            "duration": 0.17992100000000733
        },
        {
            "name": "G#3",
            "midi": 56,
            "time": 167.50645099999653,
            "velocity": 0.30708661417322836,
            "duration": 0.17992100000000733
        },
        {
            "name": "B3",
            "midi": 59,
            "time": 167.50645099999653,
            "velocity": 0.30708661417322836,
            "duration": 0.17992100000000733
        },
        {
            "name": "C#3",
            "midi": 49,
            "time": 167.68637199999654,
            "velocity": 0.3779527559055118,
            "duration": 0.08996049999998945
        },
        {
            "name": "E4",
            "midi": 64,
            "time": 167.86629299999652,
            "velocity": 0.33070866141732286,
            "duration": 0.08996049999998945
        },
        {
            "name": "C#4",
            "midi": 61,
            "time": 167.86629299999652,
            "velocity": 0.33070866141732286,
            "duration": 0.08996049999998945
        },
        {
            "name": "C#4",
            "midi": 61,
            "time": 168.0462139999965,
            "velocity": 0.33070866141732286,
            "duration": 0.17992100000000733
        },
        {
            "name": "E4",
            "midi": 64,
            "time": 168.0462139999965,
            "velocity": 0.33070866141732286,
            "duration": 0.17992100000000733
        },
        {
            "name": "G#3",
            "midi": 56,
            "time": 168.2261349999965,
            "velocity": 0.30708661417322836,
            "duration": 0.17992100000000733
        },
        {
            "name": "C#4",
            "midi": 61,
            "time": 168.2261349999965,
            "velocity": 0.30708661417322836,
            "duration": 0.17992100000000733
        },
        {
            "name": "D#3",
            "midi": 51,
            "time": 168.4060559999965,
            "velocity": 0.3779527559055118,
            "duration": 0.08996049999998945
        },
        {
            "name": "D#4",
            "midi": 63,
            "time": 168.5859769999965,
            "velocity": 0.33070866141732286,
            "duration": 0.08996049999998945
        },
        {
            "name": "B3",
            "midi": 59,
            "time": 168.5859769999965,
            "velocity": 0.33070866141732286,
            "duration": 0.08996049999998945
        },
        {
            "name": "D#4",
            "midi": 63,
            "time": 168.76589799999647,
            "velocity": 0.33070866141732286,
            "duration": 0.17992100000000733
        },
        {
            "name": "B3",
            "midi": 59,
            "time": 168.76589799999647,
            "velocity": 0.33070866141732286,
            "duration": 0.17992100000000733
        },
        {
            "name": "B3",
            "midi": 59,
            "time": 168.94581899999648,
            "velocity": 0.30708661417322836,
            "duration": 0.17992100000000733
        },
        {
            "name": "G#3",
            "midi": 56,
            "time": 168.94581899999648,
            "velocity": 0.30708661417322836,
            "duration": 0.17992100000000733
        },
        {
            "name": "C#3",
            "midi": 49,
            "time": 169.12573999999648,
            "velocity": 0.3858267716535433,
            "duration": 0.08996049999998945
        },
        {
            "name": "D#4",
            "midi": 63,
            "time": 169.30566099999646,
            "velocity": 0.33070866141732286,
            "duration": 0.08996049999998945
        },
        {
            "name": "A#3",
            "midi": 58,
            "time": 169.30566099999646,
            "velocity": 0.33070866141732286,
            "duration": 0.08996049999998945
        },
        {
            "name": "A#3",
            "midi": 58,
            "time": 169.48558199999644,
            "velocity": 0.33070866141732286,
            "duration": 0.17992100000000733
        },
        {
            "name": "D#4",
            "midi": 63,
            "time": 169.48558199999644,
            "velocity": 0.33070866141732286,
            "duration": 0.17992100000000733
        },
        {
            "name": "A#3",
            "midi": 58,
            "time": 169.66550299999645,
            "velocity": 0.30708661417322836,
            "duration": 0.17992100000000733
        },
        {
            "name": "G3",
            "midi": 55,
            "time": 169.66550299999645,
            "velocity": 0.30708661417322836,
            "duration": 0.17992100000000733
        },
        {
            "name": "B2",
            "midi": 47,
            "time": 169.84542399999646,
            "velocity": 0.3543307086614173,
            "duration": 0.17992100000000733
        },
        {
            "name": "D#4",
            "midi": 63,
            "time": 170.02534499999646,
            "velocity": 0.30708661417322836,
            "duration": 0.08996049999998945
        },
        {
            "name": "G#4",
            "midi": 68,
            "time": 170.02534499999646,
            "velocity": 0.30708661417322836,
            "duration": 0.08996049999998945
        },
        {
            "name": "G#4",
            "midi": 68,
            "time": 170.20526599999644,
            "velocity": 0.3228346456692913,
            "duration": 0.17992100000000733
        },
        {
            "name": "D#4",
            "midi": 63,
            "time": 170.20526599999644,
            "velocity": 0.3228346456692913,
            "duration": 0.17992100000000733
        },
        {
            "name": "D#4",
            "midi": 63,
            "time": 170.38518699999645,
            "velocity": 0.3228346456692913,
            "duration": 0.17992100000000733
        },
        {
            "name": "B3",
            "midi": 59,
            "time": 170.38518699999645,
            "velocity": 0.3228346456692913,
            "duration": 0.17992100000000733
        },
        {
            "name": "C#3",
            "midi": 49,
            "time": 170.56510799999646,
            "velocity": 0.3937007874015748,
            "duration": 0.17992100000000733
        },
        {
            "name": "E4",
            "midi": 64,
            "time": 170.74502899999646,
            "velocity": 0.3700787401574803,
            "duration": 0.08996049999998945
        },
        {
            "name": "A4",
            "midi": 69,
            "time": 170.74502899999646,
            "velocity": 0.3700787401574803,
            "duration": 0.08996049999998945
        },
        {
            "name": "A4",
            "midi": 69,
            "time": 170.92494999999644,
            "velocity": 0.3543307086614173,
            "duration": 0.17992100000000733
        },
        {
            "name": "E4",
            "midi": 64,
            "time": 170.92494999999644,
            "velocity": 0.3543307086614173,
            "duration": 0.17992100000000733
        },
        {
            "name": "E4",
            "midi": 64,
            "time": 171.10487099999645,
            "velocity": 0.3543307086614173,
            "duration": 0.17992100000000733
        },
        {
            "name": "C#4",
            "midi": 61,
            "time": 171.10487099999645,
            "velocity": 0.3543307086614173,
            "duration": 0.17992100000000733
        },
        {
            "name": "D#3",
            "midi": 51,
            "time": 171.28479199999646,
            "velocity": 0.4094488188976378,
            "duration": 0.17992100000000733
        },
        {
            "name": "G#4",
            "midi": 68,
            "time": 171.46471299999646,
            "velocity": 0.3779527559055118,
            "duration": 0.08996049999998945
        },
        {
            "name": "D#4",
            "midi": 63,
            "time": 171.46471299999646,
            "velocity": 0.3779527559055118,
            "duration": 0.08996049999998945
        },
        {
            "name": "G#4",
            "midi": 68,
            "time": 171.64463399999644,
            "velocity": 0.3779527559055118,
            "duration": 0.17992100000000733
        },
        {
            "name": "D#4",
            "midi": 63,
            "time": 171.64463399999644,
            "velocity": 0.3779527559055118,
            "duration": 0.17992100000000733
        },
        {
            "name": "D#4",
            "midi": 63,
            "time": 171.82455499999645,
            "velocity": 0.3543307086614173,
            "duration": 0.17992100000000733
        },
        {
            "name": "B3",
            "midi": 59,
            "time": 171.82455499999645,
            "velocity": 0.3543307086614173,
            "duration": 0.17992100000000733
        },
        {
            "name": "D#3",
            "midi": 51,
            "time": 172.00447599999646,
            "velocity": 0.4015748031496063,
            "duration": 0.17992100000000733
        },
        {
            "name": "G4",
            "midi": 67,
            "time": 172.18439699999647,
            "velocity": 0.33858267716535434,
            "duration": 0.08996049999998945
        },
        {
            "name": "C#4",
            "midi": 61,
            "time": 172.18439699999647,
            "velocity": 0.33858267716535434,
            "duration": 0.08996049999998945
        },
        {
            "name": "G4",
            "midi": 67,
            "time": 172.36431799999644,
            "velocity": 0.33858267716535434,
            "duration": 0.17992100000000733
        },
        {
            "name": "C#4",
            "midi": 61,
            "time": 172.36431799999644,
            "velocity": 0.33858267716535434,
            "duration": 0.17992100000000733
        },
        {
            "name": "A#3",
            "midi": 58,
            "time": 172.54423899999645,
            "velocity": 0.2755905511811024,
            "duration": 0.17992100000000733
        },
        {
            "name": "C#4",
            "midi": 61,
            "time": 172.54423899999645,
            "velocity": 0.2755905511811024,
            "duration": 0.17992100000000733
        },
        {
            "name": "G#2",
            "midi": 44,
            "time": 172.72415999999646,
            "velocity": 0.3228346456692913,
            "duration": 0.08921082916666023
        },
        {
            "name": "G#3",
            "midi": 56,
            "time": 172.81412049999645,
            "velocity": 0.25196850393700787,
            "duration": 0.08921082916666023
        },
        {
            "name": "D#3",
            "midi": 51,
            "time": 172.90408099999644,
            "velocity": 0.28346456692913385,
            "duration": 0.08921082916666023
        },
        {
            "name": "G#3",
            "midi": 56,
            "time": 172.99404149999643,
            "velocity": 0.25984251968503935,
            "duration": 0.08921082916666023
        },
        {
            "name": "G#2",
            "midi": 44,
            "time": 173.08400199999642,
            "velocity": 0.3228346456692913,
            "duration": 0.08921082916666023
        },
        {
            "name": "G#3",
            "midi": 56,
            "time": 173.1739624999964,
            "velocity": 0.25984251968503935,
            "duration": 0.08921082916666023
        },
        {
            "name": "D#3",
            "midi": 51,
            "time": 173.2639229999964,
            "velocity": 0.28346456692913385,
            "duration": 0.08921082916666023
        },
        {
            "name": "G#3",
            "midi": 56,
            "time": 173.35388349999639,
            "velocity": 0.25984251968503935,
            "duration": 0.08921082916666023
        },
        {
            "name": "G#2",
            "midi": 44,
            "time": 173.44384399999637,
            "velocity": 0.3228346456692913,
            "duration": 0.08921082916666023
        },
        {
            "name": "G#3",
            "midi": 56,
            "time": 173.53380449999636,
            "velocity": 0.25984251968503935,
            "duration": 0.08921082916666023
        },
        {
            "name": "D#3",
            "midi": 51,
            "time": 173.62376499999635,
            "velocity": 0.29133858267716534,
            "duration": 0.08921082916666023
        },
        {
            "name": "G#3",
            "midi": 56,
            "time": 173.71372549999634,
            "velocity": 0.25984251968503935,
            "duration": 0.08921082916666023
        },
        {
            "name": "G#2",
            "midi": 44,
            "time": 173.80368599999633,
            "velocity": 0.3228346456692913,
            "duration": 0.08921082916666023
        },
        {
            "name": "G#3",
            "midi": 56,
            "time": 173.89364649999632,
            "velocity": 0.25984251968503935,
            "duration": 0.08921082916666023
        },
        {
            "name": "D#3",
            "midi": 51,
            "time": 173.9836069999963,
            "velocity": 0.29133858267716534,
            "duration": 0.08921082916666023
        },
        {
            "name": "G#3",
            "midi": 56,
            "time": 174.0735674999963,
            "velocity": 0.25984251968503935,
            "duration": 0.08921082916666023
        },
        {
            "name": "G#2",
            "midi": 44,
            "time": 174.1635279999963,
            "velocity": 0.3228346456692913,
            "duration": 0.08921082916666023
        },
        {
            "name": "A#3",
            "midi": 58,
            "time": 174.25348849999628,
            "velocity": 0.25984251968503935,
            "duration": 0.08921082916666023
        },
        {
            "name": "D#3",
            "midi": 51,
            "time": 174.34344899999627,
            "velocity": 0.2992125984251969,
            "duration": 0.08921082916666023
        },
        {
            "name": "A#3",
            "midi": 58,
            "time": 174.43340949999626,
            "velocity": 0.25984251968503935,
            "duration": 0.08921082916666023
        },
        {
            "name": "G#2",
            "midi": 44,
            "time": 174.52336999999625,
            "velocity": 0.3228346456692913,
            "duration": 0.08921082916666023
        },
        {
            "name": "A#3",
            "midi": 58,
            "time": 174.61333049999624,
            "velocity": 0.25984251968503935,
            "duration": 0.08921082916666023
        },
        {
            "name": "D#3",
            "midi": 51,
            "time": 174.70329099999623,
            "velocity": 0.29133858267716534,
            "duration": 0.08921082916666023
        },
        {
            "name": "A#3",
            "midi": 58,
            "time": 174.79325149999622,
            "velocity": 0.2677165354330709,
            "duration": 0.08921082916666023
        },
        {
            "name": "G#2",
            "midi": 44,
            "time": 174.8832119999962,
            "velocity": 0.3228346456692913,
            "duration": 0.08921082916666023
        },
        {
            "name": "A#3",
            "midi": 58,
            "time": 174.9731724999962,
            "velocity": 0.2677165354330709,
            "duration": 0.08921082916666023
        },
        {
            "name": "D#3",
            "midi": 51,
            "time": 175.06313299999618,
            "velocity": 0.2992125984251969,
            "duration": 0.08921082916666023
        },
        {
            "name": "A#3",
            "midi": 58,
            "time": 175.15309349999617,
            "velocity": 0.25984251968503935,
            "duration": 0.08921082916666023
        },
        {
            "name": "G#2",
            "midi": 44,
            "time": 175.24305399999616,
            "velocity": 0.3228346456692913,
            "duration": 0.08921082916666023
        },
        {
            "name": "A#3",
            "midi": 58,
            "time": 175.33301449999615,
            "velocity": 0.25984251968503935,
            "duration": 0.08921082916666023
        },
        {
            "name": "D#3",
            "midi": 51,
            "time": 175.42297499999614,
            "velocity": 0.28346456692913385,
            "duration": 0.08921082916666023
        },
        {
            "name": "A#3",
            "midi": 58,
            "time": 175.51293549999613,
            "velocity": 0.25984251968503935,
            "duration": 0.08921082916666023
        },
        {
            "name": "G#2",
            "midi": 44,
            "time": 175.60289599999612,
            "velocity": 0.3228346456692913,
            "duration": 0.08921082916666023
        },
        {
            "name": "G#3",
            "midi": 56,
            "time": 175.6928564999961,
            "velocity": 0.25196850393700787,
            "duration": 0.08921082916666023
        },
        {
            "name": "D#3",
            "midi": 51,
            "time": 175.7828169999961,
            "velocity": 0.29133858267716534,
            "duration": 0.08921082916666023
        },
        {
            "name": "G#3",
            "midi": 56,
            "time": 175.8727774999961,
            "velocity": 0.25196850393700787,
            "duration": 0.08921082916666023
        },
        {
            "name": "G#2",
            "midi": 44,
            "time": 175.96273799999608,
            "velocity": 0.3228346456692913,
            "duration": 0.08921082916666023
        },
        {
            "name": "G#3",
            "midi": 56,
            "time": 176.05269849999607,
            "velocity": 0.25984251968503935,
            "duration": 0.08921082916666023
        },
        {
            "name": "D#3",
            "midi": 51,
            "time": 176.14265899999606,
            "velocity": 0.2992125984251969,
            "duration": 0.08921082916666023
        },
        {
            "name": "G#3",
            "midi": 56,
            "time": 176.23261949999605,
            "velocity": 0.2677165354330709,
            "duration": 0.08921082916666023
        },
        {
            "name": "G#2",
            "midi": 44,
            "time": 176.32257999999604,
            "velocity": 0.3228346456692913,
            "duration": 0.08921082916666023
        },
        {
            "name": "G#3",
            "midi": 56,
            "time": 176.41254049999603,
            "velocity": 0.2677165354330709,
            "duration": 0.08921082916666023
        },
        {
            "name": "D#3",
            "midi": 51,
            "time": 176.50250099999602,
            "velocity": 0.2992125984251969,
            "duration": 0.08921082916666023
        },
        {
            "name": "G#3",
            "midi": 56,
            "time": 176.592461499996,
            "velocity": 0.25984251968503935,
            "duration": 0.08921082916666023
        },
        {
            "name": "G#2",
            "midi": 44,
            "time": 176.682421999996,
            "velocity": 0.3228346456692913,
            "duration": 0.08921082916666023
        },
        {
            "name": "G#3",
            "midi": 56,
            "time": 176.77238249999598,
            "velocity": 0.25984251968503935,
            "duration": 0.08921082916666023
        },
        {
            "name": "D#3",
            "midi": 51,
            "time": 176.86234299999597,
            "velocity": 0.28346456692913385,
            "duration": 0.08921082916666023
        },
        {
            "name": "G#3",
            "midi": 56,
            "time": 176.95230349999596,
            "velocity": 0.2677165354330709,
            "duration": 0.08921082916666023
        },
        {
            "name": "G#2",
            "midi": 44,
            "time": 177.04226399999595,
            "velocity": 0.3228346456692913,
            "duration": 0.08921082916666023
        },
        {
            "name": "A#3",
            "midi": 58,
            "time": 177.13222449999594,
            "velocity": 0.25984251968503935,
            "duration": 0.08921082916666023
        },
        {
            "name": "D#3",
            "midi": 51,
            "time": 177.22218499999593,
            "velocity": 0.28346456692913385,
            "duration": 0.08921082916666023
        },
        {
            "name": "A#3",
            "midi": 58,
            "time": 177.31214549999592,
            "velocity": 0.25984251968503935,
            "duration": 0.08921082916666023
        },
        {
            "name": "G#2",
            "midi": 44,
            "time": 177.4021059999959,
            "velocity": 0.3228346456692913,
            "duration": 0.08921082916666023
        },
        {
            "name": "A#3",
            "midi": 58,
            "time": 177.4920664999959,
            "velocity": 0.25984251968503935,
            "duration": 0.08921082916666023
        },
        {
            "name": "D#3",
            "midi": 51,
            "time": 177.5820269999959,
            "velocity": 0.28346456692913385,
            "duration": 0.08921082916666023
        },
        {
            "name": "A#3",
            "midi": 58,
            "time": 177.67198749999588,
            "velocity": 0.25984251968503935,
            "duration": 0.08921082916666023
        },
        {
            "name": "G#2",
            "midi": 44,
            "time": 177.76194799999587,
            "velocity": 0.3228346456692913,
            "duration": 0.08921082916666023
        },
        {
            "name": "A#3",
            "midi": 58,
            "time": 177.85190849999586,
            "velocity": 0.25984251968503935,
            "duration": 0.08921082916666023
        },
        {
            "name": "D#3",
            "midi": 51,
            "time": 177.94186899999585,
            "velocity": 0.28346456692913385,
            "duration": 0.08921082916666023
        },
        {
            "name": "A#3",
            "midi": 58,
            "time": 178.03182949999584,
            "velocity": 0.25984251968503935,
            "duration": 0.08921082916666023
        },
        {
            "name": "G#2",
            "midi": 44,
            "time": 178.12178999999583,
            "velocity": 0.3228346456692913,
            "duration": 0.08921082916666023
        },
        {
            "name": "A#3",
            "midi": 58,
            "time": 178.21175049999582,
            "velocity": 0.2677165354330709,
            "duration": 0.08921082916666023
        },
        {
            "name": "D#3",
            "midi": 51,
            "time": 178.3017109999958,
            "velocity": 0.30708661417322836,
            "duration": 0.08921082916666023
        },
        {
            "name": "A#3",
            "midi": 58,
            "time": 178.3916714999958,
            "velocity": 0.2677165354330709,
            "duration": 0.08921082916666023
        },
        {
            "name": "G#2",
            "midi": 44,
            "time": 178.48163199999578,
            "velocity": 0.3228346456692913,
            "duration": 0.08921082916666023
        },
        {
            "name": "G#3",
            "midi": 56,
            "time": 178.57159249999577,
            "velocity": 0.25984251968503935,
            "duration": 0.08921082916666023
        },
        {
            "name": "D#3",
            "midi": 51,
            "time": 178.66155299999576,
            "velocity": 0.28346456692913385,
            "duration": 0.08921082916666023
        },
        {
            "name": "G#3",
            "midi": 56,
            "time": 178.75151349999575,
            "velocity": 0.25984251968503935,
            "duration": 0.08921082916666023
        },
        {
            "name": "G#2",
            "midi": 44,
            "time": 178.84147399999574,
            "velocity": 0.33070866141732286,
            "duration": 0.08921082916666023
        },
        {
            "name": "G#3",
            "midi": 56,
            "time": 178.93143449999573,
            "velocity": 0.25984251968503935,
            "duration": 0.08921082916666023
        },
        {
            "name": "D#3",
            "midi": 51,
            "time": 179.02139499999572,
            "velocity": 0.2755905511811024,
            "duration": 0.08921082916666023
        },
        {
            "name": "G#3",
            "midi": 56,
            "time": 179.1113554999957,
            "velocity": 0.25984251968503935,
            "duration": 0.08921082916666023
        },
        {
            "name": "G#2",
            "midi": 44,
            "time": 179.2013159999957,
            "velocity": 0.3228346456692913,
            "duration": 0.08921082916666023
        },
        {
            "name": "A#3",
            "midi": 58,
            "time": 179.2912764999957,
            "velocity": 0.2677165354330709,
            "duration": 0.08921082916666023
        },
        {
            "name": "D#3",
            "midi": 51,
            "time": 179.38123699999568,
            "velocity": 0.29133858267716534,
            "duration": 0.08921082916666023
        },
        {
            "name": "A#3",
            "midi": 58,
            "time": 179.47119749999567,
            "velocity": 0.2677165354330709,
            "duration": 0.08921082916666023
        },
        {
            "name": "G#2",
            "midi": 44,
            "time": 179.56115799999566,
            "velocity": 0.3228346456692913,
            "duration": 0.08921082916666023
        },
        {
            "name": "A#3",
            "midi": 58,
            "time": 179.65111849999565,
            "velocity": 0.25984251968503935,
            "duration": 0.08921082916666023
        },
        {
            "name": "D#3",
            "midi": 51,
            "time": 179.74107899999564,
            "velocity": 0.2992125984251969,
            "duration": 0.08921082916666023
        },
        {
            "name": "A#3",
            "midi": 58,
            "time": 179.83103949999563,
            "velocity": 0.25984251968503935,
            "duration": 0.08921082916666023
        },
        {
            "name": "G#2",
            "midi": 44,
            "time": 179.92099999999562,
            "velocity": 0.3228346456692913,
            "duration": 0.08921082916666023
        },
        {
            "name": "G#3",
            "midi": 56,
            "time": 180.0109604999956,
            "velocity": 0.25984251968503935,
            "duration": 0.08921082916666023
        },
        {
            "name": "D#3",
            "midi": 51,
            "time": 180.1009209999956,
            "velocity": 0.28346456692913385,
            "duration": 0.08921082916666023
        },
        {
            "name": "G#3",
            "midi": 56,
            "time": 180.19088149999558,
            "velocity": 0.25984251968503935,
            "duration": 0.08921082916666023
        },
        {
            "name": "G#2",
            "midi": 44,
            "time": 180.28084199999557,
            "velocity": 0.3228346456692913,
            "duration": 0.08921082916666023
        },
        {
            "name": "G#3",
            "midi": 56,
            "time": 180.37080249999556,
            "velocity": 0.2677165354330709,
            "duration": 0.08921082916666023
        },
        {
            "name": "D#3",
            "midi": 51,
            "time": 180.46076299999555,
            "velocity": 0.28346456692913385,
            "duration": 0.08921082916666023
        },
        {
            "name": "G#3",
            "midi": 56,
            "time": 180.55072349999554,
            "velocity": 0.25984251968503935,
            "duration": 0.08921082916666023
        },
        {
            "name": "G#2",
            "midi": 44,
            "time": 180.64068399999553,
            "velocity": 0.3228346456692913,
            "duration": 0.08921082916666023
        },
        {
            "name": "A#3",
            "midi": 58,
            "time": 180.73064449999552,
            "velocity": 0.2677165354330709,
            "duration": 0.08921082916666023
        },
        {
            "name": "D#3",
            "midi": 51,
            "time": 180.8206049999955,
            "velocity": 0.29133858267716534,
            "duration": 0.08921082916666023
        },
        {
            "name": "A#3",
            "midi": 58,
            "time": 180.9105654999955,
            "velocity": 0.2677165354330709,
            "duration": 0.08921082916666023
        },
        {
            "name": "G#2",
            "midi": 44,
            "time": 181.0005259999955,
            "velocity": 0.3228346456692913,
            "duration": 0.08921082916666023
        },
        {
            "name": "A#3",
            "midi": 58,
            "time": 181.09048649999548,
            "velocity": 0.2677165354330709,
            "duration": 0.08921082916666023
        },
        {
            "name": "D#3",
            "midi": 51,
            "time": 181.18044699999547,
            "velocity": 0.29133858267716534,
            "duration": 0.08921082916666023
        },
        {
            "name": "A#3",
            "midi": 58,
            "time": 181.27040749999546,
            "velocity": 0.2677165354330709,
            "duration": 0.08921082916666023
        },
        {
            "name": "G#2",
            "midi": 44,
            "time": 181.36036799999545,
            "velocity": 0.33070866141732286,
            "duration": 0.08921082916666023
        },
        {
            "name": "G#3",
            "midi": 56,
            "time": 181.45032849999544,
            "velocity": 0.3228346456692913,
            "duration": 0.08921082916666023
        },
        {
            "name": "D#3",
            "midi": 51,
            "time": 181.54028899999543,
            "velocity": 0.33070866141732286,
            "duration": 0.08921082916666023
        },
        {
            "name": "G#3",
            "midi": 56,
            "time": 181.63024949999541,
            "velocity": 0.30708661417322836,
            "duration": 0.08921082916666023
        },
        {
            "name": "G#2",
            "midi": 44,
            "time": 181.7202099999954,
            "velocity": 0.33858267716535434,
            "duration": 0.08921082916666023
        },
        {
            "name": "G#3",
            "midi": 56,
            "time": 181.8101704999954,
            "velocity": 0.3464566929133858,
            "duration": 0.08921082916666023
        },
        {
            "name": "D#3",
            "midi": 51,
            "time": 181.90013099999538,
            "velocity": 0.3543307086614173,
            "duration": 0.08921082916666023
        },
        {
            "name": "G#3",
            "midi": 56,
            "time": 181.99009149999537,
            "velocity": 0.33070866141732286,
            "duration": 0.08921082916666023
        },
        {
            "name": "G#2",
            "midi": 44,
            "time": 182.08005199999536,
            "velocity": 0.3700787401574803,
            "duration": 0.08921082916666023
        },
        {
            "name": "G#3",
            "midi": 56,
            "time": 182.17001249999535,
            "velocity": 0.3779527559055118,
            "duration": 0.08921082916666023
        },
        {
            "name": "D#3",
            "midi": 51,
            "time": 182.25997299999534,
            "velocity": 0.3779527559055118,
            "duration": 0.08921082916666023
        },
        {
            "name": "G#3",
            "midi": 56,
            "time": 182.34993349999533,
            "velocity": 0.3464566929133858,
            "duration": 0.08921082916666023
        },
        {
            "name": "G#2",
            "midi": 44,
            "time": 182.43989399999532,
            "velocity": 0.4015748031496063,
            "duration": 0.08921082916666023
        },
        {
            "name": "G#3",
            "midi": 56,
            "time": 182.5298544999953,
            "velocity": 0.4015748031496063,
            "duration": 0.08921082916666023
        },
        {
            "name": "D#3",
            "midi": 51,
            "time": 182.6198149999953,
            "velocity": 0.4094488188976378,
            "duration": 0.08921082916666023
        },
        {
            "name": "G#3",
            "midi": 56,
            "time": 182.7097754999953,
            "velocity": 0.3700787401574803,
            "duration": 0.08921082916666023
        },
        {
            "name": "G#2",
            "midi": 44,
            "time": 182.79973599999528,
            "velocity": 0.41732283464566927,
            "duration": 0.08921082916666023
        },
        {
            "name": "F#3",
            "midi": 54,
            "time": 182.88969649999527,
            "velocity": 0.4409448818897638,
            "duration": 0.08921082916666023
        },
        {
            "name": "D#3",
            "midi": 51,
            "time": 182.97965699999526,
            "velocity": 0.4409448818897638,
            "duration": 0.08921082916666023
        },
        {
            "name": "F#3",
            "midi": 54,
            "time": 183.06961749999525,
            "velocity": 0.4094488188976378,
            "duration": 0.08921082916666023
        },
        {
            "name": "G#2",
            "midi": 44,
            "time": 183.15957799999524,
            "velocity": 0.44881889763779526,
            "duration": 0.08921082916666023
        },
        {
            "name": "F#3",
            "midi": 54,
            "time": 183.24953849999523,
            "velocity": 0.4566929133858268,
            "duration": 0.08921082916666023
        },
        {
            "name": "D#3",
            "midi": 51,
            "time": 183.33949899999521,
            "velocity": 0.47244094488188976,
            "duration": 0.08921082916666023
        },
        {
            "name": "F#3",
            "midi": 54,
            "time": 183.4294594999952,
            "velocity": 0.44881889763779526,
            "duration": 0.08921082916666023
        },
        {
            "name": "G#2",
            "midi": 44,
            "time": 183.5194199999952,
            "velocity": 0.4881889763779528,
            "duration": 0.08921082916666023
        },
        {
            "name": "F#3",
            "midi": 54,
            "time": 183.60938049999518,
            "velocity": 0.4881889763779528,
            "duration": 0.08921082916666023
        },
        {
            "name": "D#3",
            "midi": 51,
            "time": 183.69934099999517,
            "velocity": 0.49606299212598426,
            "duration": 0.08921082916666023
        },
        {
            "name": "F#3",
            "midi": 54,
            "time": 183.78930149999516,
            "velocity": 0.4645669291338583,
            "duration": 0.08921082916666023
        },
        {
            "name": "G#2",
            "midi": 44,
            "time": 183.87926199999515,
            "velocity": 0.5118110236220472,
            "duration": 0.08921082916666023
        },
        {
            "name": "F#3",
            "midi": 54,
            "time": 183.96922249999514,
            "velocity": 0.5275590551181102,
            "duration": 0.08921082916666023
        },
        {
            "name": "D#3",
            "midi": 51,
            "time": 184.05918299999513,
            "velocity": 0.5275590551181102,
            "duration": 0.08921082916666023
        },
        {
            "name": "F#3",
            "midi": 54,
            "time": 184.14914349999512,
            "velocity": 0.47244094488188976,
            "duration": 0.08921082916666023
        },
        {
            "name": "C#2",
            "midi": 37,
            "time": 184.2391039999951,
            "velocity": 0.3779527559055118,
            "duration": 0.08996049999998945
        },
        {
            "name": "F3",
            "midi": 53,
            "time": 184.2391039999951,
            "velocity": 0.44881889763779526,
            "duration": 0.08996049999998945
        },
        {
            "name": "G#3",
            "midi": 56,
            "time": 184.2391039999951,
            "velocity": 0.44881889763779526,
            "duration": 0.08996049999998945
        },
        {
            "name": "G#2",
            "midi": 44,
            "time": 184.4190249999951,
            "velocity": 0.2677165354330709,
            "duration": 0.08996049999998945
        },
        {
            "name": "C#2",
            "midi": 37,
            "time": 184.59894599999507,
            "velocity": 0.28346456692913385,
            "duration": 0.08996049999998945
        },
        {
            "name": "G#2",
            "midi": 44,
            "time": 184.77886699999505,
            "velocity": 0.2677165354330709,
            "duration": 0.08996049999998945
        },
        {
            "name": "C#2",
            "midi": 37,
            "time": 184.95878799999502,
            "velocity": 0.28346456692913385,
            "duration": 0.08996049999998945
        },
        {
            "name": "G#2",
            "midi": 44,
            "time": 185.138708999995,
            "velocity": 0.2677165354330709,
            "duration": 0.08996049999998945
        },
        {
            "name": "C#2",
            "midi": 37,
            "time": 185.31862999999498,
            "velocity": 0.2755905511811024,
            "duration": 0.08996049999998945
        },
        {
            "name": "G#2",
            "midi": 44,
            "time": 185.49855099999496,
            "velocity": 0.25984251968503935,
            "duration": 0.08996049999998945
        },
        {
            "name": "C#2",
            "midi": 37,
            "time": 185.67847199999494,
            "velocity": 0.33070866141732286,
            "duration": 0.08996049999998945
        },
        {
            "name": "G#2",
            "midi": 44,
            "time": 185.85839299999492,
            "velocity": 0.30708661417322836,
            "duration": 0.08996049999998945
        },
        {
            "name": "C#2",
            "midi": 37,
            "time": 186.0383139999949,
            "velocity": 0.33858267716535434,
            "duration": 0.08996049999998945
        },
        {
            "name": "G#2",
            "midi": 44,
            "time": 186.21823499999488,
            "velocity": 0.30708661417322836,
            "duration": 0.08996049999998945
        },
        {
            "name": "C#2",
            "midi": 37,
            "time": 186.39815599999486,
            "velocity": 0.33858267716535434,
            "duration": 0.08996049999998945
        },
        {
            "name": "G#2",
            "midi": 44,
            "time": 186.57807699999483,
            "velocity": 0.30708661417322836,
            "duration": 0.08996049999998945
        },
        {
            "name": "C#3",
            "midi": 49,
            "time": 186.7579979999948,
            "velocity": 0.6062992125984252,
            "duration": 0.08996049999998945
        },
        {
            "name": "C#2",
            "midi": 37,
            "time": 186.7579979999948,
            "velocity": 0.5039370078740157,
            "duration": 0.08996049999998945
        },
        {
            "name": "G#2",
            "midi": 44,
            "time": 186.9379189999948,
            "velocity": 0.5039370078740157,
            "duration": 0.08996049999998945
        },
        {
            "name": "B1",
            "midi": 35,
            "time": 187.11783999999477,
            "velocity": 0.5354330708661418,
            "duration": 0.08996049999998945
        },
        {
            "name": "G#2",
            "midi": 44,
            "time": 187.29776099999475,
            "velocity": 0.33858267716535434,
            "duration": 0.08996049999998945
        },
        {
            "name": "B1",
            "midi": 35,
            "time": 187.47768199999473,
            "velocity": 0.3700787401574803,
            "duration": 0.08996049999998945
        },
        {
            "name": "G#2",
            "midi": 44,
            "time": 187.6576029999947,
            "velocity": 0.3464566929133858,
            "duration": 0.08996049999998945
        },
        {
            "name": "B1",
            "midi": 35,
            "time": 187.8375239999947,
            "velocity": 0.3779527559055118,
            "duration": 0.08996049999998945
        },
        {
            "name": "G#2",
            "midi": 44,
            "time": 188.01744499999467,
            "velocity": 0.33858267716535434,
            "duration": 0.08996049999998945
        },
        {
            "name": "B1",
            "midi": 35,
            "time": 188.19736599999464,
            "velocity": 0.3779527559055118,
            "duration": 0.08996049999998945
        },
        {
            "name": "G#2",
            "midi": 44,
            "time": 188.37728699999462,
            "velocity": 0.3464566929133858,
            "duration": 0.08996049999998945
        },
        {
            "name": "B1",
            "midi": 35,
            "time": 188.5572079999946,
            "velocity": 0.3779527559055118,
            "duration": 0.08996049999998945
        },
        {
            "name": "G#2",
            "midi": 44,
            "time": 188.73712899999458,
            "velocity": 0.3464566929133858,
            "duration": 0.08996049999998945
        },
        {
            "name": "B1",
            "midi": 35,
            "time": 188.91704999999456,
            "velocity": 0.3779527559055118,
            "duration": 0.08996049999998945
        },
        {
            "name": "G#2",
            "midi": 44,
            "time": 189.09697099999454,
            "velocity": 0.3464566929133858,
            "duration": 0.08996049999998945
        },
        {
            "name": "B1",
            "midi": 35,
            "time": 189.27689199999452,
            "velocity": 0.3779527559055118,
            "duration": 0.08996049999998945
        },
        {
            "name": "G#2",
            "midi": 44,
            "time": 189.4568129999945,
            "velocity": 0.3464566929133858,
            "duration": 0.08996049999998945
        },
        {
            "name": "B1",
            "midi": 35,
            "time": 189.63673399999448,
            "velocity": 0.5039370078740157,
            "duration": 0.08996049999998945
        },
        {
            "name": "B2",
            "midi": 47,
            "time": 189.63673399999448,
            "velocity": 0.6062992125984252,
            "duration": 0.08996049999998945
        },
        {
            "name": "G#2",
            "midi": 44,
            "time": 189.81665499999446,
            "velocity": 0.5039370078740157,
            "duration": 0.08996049999998945
        },
        {
            "name": "A1",
            "midi": 33,
            "time": 189.99657599999443,
            "velocity": 0.5354330708661418,
            "duration": 0.08996049999998945
        },
        {
            "name": "A2",
            "midi": 45,
            "time": 190.1764969999944,
            "velocity": 0.4015748031496063,
            "duration": 0.08996049999998945
        },
        {
            "name": "A1",
            "midi": 33,
            "time": 190.3564179999944,
            "velocity": 0.4330708661417323,
            "duration": 0.08996049999998945
        },
        {
            "name": "A2",
            "midi": 45,
            "time": 190.53633899999437,
            "velocity": 0.4015748031496063,
            "duration": 0.08996049999998945
        },
        {
            "name": "A1",
            "midi": 33,
            "time": 190.71625999999435,
            "velocity": 0.4330708661417323,
            "duration": 0.08996049999998945
        },
        {
            "name": "A2",
            "midi": 45,
            "time": 190.89618099999433,
            "velocity": 0.4015748031496063,
            "duration": 0.08996049999998945
        },
        {
            "name": "A1",
            "midi": 33,
            "time": 191.0761019999943,
            "velocity": 0.6535433070866141,
            "duration": 0.08996049999998945
        },
        {
            "name": "A2",
            "midi": 45,
            "time": 191.2560229999943,
            "velocity": 0.5590551181102362,
            "duration": 0.08996049999998945
        },
        {
            "name": "F1",
            "midi": 29,
            "time": 191.43594399999427,
            "velocity": 0.4409448818897638,
            "duration": 0.08996049999998945
        },
        {
            "name": "F2",
            "midi": 41,
            "time": 191.61586499999424,
            "velocity": 0.4094488188976378,
            "duration": 0.08996049999998945
        },
        {
            "name": "F1",
            "midi": 29,
            "time": 191.79578599999422,
            "velocity": 0.41732283464566927,
            "duration": 0.08996049999998945
        },
        {
            "name": "F2",
            "midi": 41,
            "time": 191.9757069999942,
            "velocity": 0.4015748031496063,
            "duration": 0.08996049999998945
        },
        {
            "name": "F1",
            "midi": 29,
            "time": 192.15562799999418,
            "velocity": 0.41732283464566927,
            "duration": 0.08996049999998945
        },
        {
            "name": "F2",
            "midi": 41,
            "time": 192.33554899999416,
            "velocity": 0.3937007874015748,
            "duration": 0.08996049999998945
        },
        {
            "name": "F1",
            "midi": 29,
            "time": 192.51546999999414,
            "velocity": 0.6535433070866141,
            "duration": 0.08996049999998945
        },
        {
            "name": "F2",
            "midi": 41,
            "time": 192.69539099999412,
            "velocity": 0.6062992125984252,
            "duration": 0.08996049999998945
        },
        {
            "name": "F#1",
            "midi": 30,
            "time": 192.8753119999941,
            "velocity": 0.6141732283464567,
            "duration": 0.08996049999998945
        },
        {
            "name": "F#2",
            "midi": 42,
            "time": 192.8753119999941,
            "velocity": 0.6141732283464567,
            "duration": 0.08996049999998945
        },
        {
            "name": "C#4",
            "midi": 61,
            "time": 192.9652724999941,
            "velocity": 0.2283464566929134,
            "duration": 0.1049539166666591
        },
        {
            "name": "A3",
            "midi": 57,
            "time": 193.05523299999408,
            "velocity": 0.2677165354330709,
            "duration": 0.1049539166666591
        },
        {
            "name": "C#4",
            "midi": 61,
            "time": 193.14519349999406,
            "velocity": 0.2283464566929134,
            "duration": 0.1049539166666591
        },
        {
            "name": "F#3",
            "midi": 54,
            "time": 193.23515399999405,
            "velocity": 0.3228346456692913,
            "duration": 0.08921082916666023
        },
        {
            "name": "C#4",
            "midi": 61,
            "time": 193.32511449999404,
            "velocity": 0.2204724409448819,
            "duration": 0.08921082916666023
        },
        {
            "name": "A3",
            "midi": 57,
            "time": 193.41507499999403,
            "velocity": 0.2440944881889764,
            "duration": 0.08921082916666023
        },
        {
            "name": "C#4",
            "midi": 61,
            "time": 193.50503549999402,
            "velocity": 0.2204724409448819,
            "duration": 0.08921082916666023
        },
        {
            "name": "F#3",
            "midi": 54,
            "time": 193.594995999994,
            "velocity": 0.2992125984251969,
            "duration": 0.08921082916666023
        },
        {
            "name": "C#4",
            "midi": 61,
            "time": 193.684956499994,
            "velocity": 0.2204724409448819,
            "duration": 0.08921082916666023
        },
        {
            "name": "A3",
            "midi": 57,
            "time": 193.774916999994,
            "velocity": 0.25196850393700787,
            "duration": 0.08921082916666023
        },
        {
            "name": "C#4",
            "midi": 61,
            "time": 193.86487749999398,
            "velocity": 0.2283464566929134,
            "duration": 0.08921082916666023
        },
        {
            "name": "F#3",
            "midi": 54,
            "time": 193.95483799999397,
            "velocity": 0.2992125984251969,
            "duration": 0.08921082916666023
        },
        {
            "name": "C#4",
            "midi": 61,
            "time": 194.04479849999396,
            "velocity": 0.2283464566929134,
            "duration": 0.08921082916666023
        },
        {
            "name": "A3",
            "midi": 57,
            "time": 194.13475899999395,
            "velocity": 0.25196850393700787,
            "duration": 0.08921082916666023
        },
        {
            "name": "C#4",
            "midi": 61,
            "time": 194.22471949999394,
            "velocity": 0.2204724409448819,
            "duration": 0.08921082916666023
        },
        {
            "name": "G#3",
            "midi": 56,
            "time": 194.31467999999393,
            "velocity": 0.29133858267716534,
            "duration": 0.1049539166666591
        },
        {
            "name": "C#4",
            "midi": 61,
            "time": 194.40464049999392,
            "velocity": 0.2204724409448819,
            "duration": 0.1049539166666591
        },
        {
            "name": "B3",
            "midi": 59,
            "time": 194.4946009999939,
            "velocity": 0.2440944881889764,
            "duration": 0.1049539166666591
        },
        {
            "name": "C#4",
            "midi": 61,
            "time": 194.5845614999939,
            "velocity": 0.2047244094488189,
            "duration": 0.1049539166666591
        },
        {
            "name": "G#3",
            "midi": 56,
            "time": 194.67452199999389,
            "velocity": 0.33858267716535434,
            "duration": 0.08921082916666023
        },
        {
            "name": "C#4",
            "midi": 61,
            "time": 194.76448249999387,
            "velocity": 0.30708661417322836,
            "duration": 0.08921082916666023
        },
        {
            "name": "B3",
            "midi": 59,
            "time": 194.85444299999386,
            "velocity": 0.3700787401574803,
            "duration": 0.08921082916666023
        },
        {
            "name": "C#4",
            "midi": 61,
            "time": 194.94440349999385,
            "velocity": 0.33858267716535434,
            "duration": 0.08921082916666023
        },
        {
            "name": "G#3",
            "midi": 56,
            "time": 195.03436399999384,
            "velocity": 0.4330708661417323,
            "duration": 0.08921082916666023
        },
        {
            "name": "C#4",
            "midi": 61,
            "time": 195.12432449999383,
            "velocity": 0.3464566929133858,
            "duration": 0.08921082916666023
        },
        {
            "name": "B3",
            "midi": 59,
            "time": 195.21428499999382,
            "velocity": 0.4015748031496063,
            "duration": 0.08921082916666023
        },
        {
            "name": "C#4",
            "midi": 61,
            "time": 195.3042454999938,
            "velocity": 0.3700787401574803,
            "duration": 0.08921082916666023
        },
        {
            "name": "G#3",
            "midi": 56,
            "time": 195.3942059999938,
            "velocity": 0.4881889763779528,
            "duration": 0.08921082916666023
        },
        {
            "name": "C#4",
            "midi": 61,
            "time": 195.4841664999938,
            "velocity": 0.3858267716535433,
            "duration": 0.08921082916666023
        },
        {
            "name": "B3",
            "midi": 59,
            "time": 195.57412699999378,
            "velocity": 0.4015748031496063,
            "duration": 0.08921082916666023
        },
        {
            "name": "C#4",
            "midi": 61,
            "time": 195.66408749999377,
            "velocity": 0.33858267716535434,
            "duration": 0.08921082916666023
        },
        {
            "name": "A3",
            "midi": 57,
            "time": 195.75404799999376,
            "velocity": 0.29133858267716534,
            "duration": 0.08921082916666023
        },
        {
            "name": "C#4",
            "midi": 61,
            "time": 195.84400849999375,
            "velocity": 0.23622047244094488,
            "duration": 0.08921082916666023
        },
        {
            "name": "A3",
            "midi": 57,
            "time": 195.93396899999374,
            "velocity": 0.2677165354330709,
            "duration": 0.08921082916666023
        },
        {
            "name": "C#4",
            "midi": 61,
            "time": 196.02392949999373,
            "velocity": 0.2283464566929134,
            "duration": 0.08921082916666023
        },
        {
            "name": "A3",
            "midi": 57,
            "time": 196.11388999999372,
            "velocity": 0.33858267716535434,
            "duration": 0.08921082916666023
        },
        {
            "name": "C#4",
            "midi": 61,
            "time": 196.2038504999937,
            "velocity": 0.29133858267716534,
            "duration": 0.08921082916666023
        },
        {
            "name": "A3",
            "midi": 57,
            "time": 196.2938109999937,
            "velocity": 0.3700787401574803,
            "duration": 0.08921082916666023
        },
        {
            "name": "C#4",
            "midi": 61,
            "time": 196.38377149999368,
            "velocity": 0.33858267716535434,
            "duration": 0.08921082916666023
        },
        {
            "name": "A3",
            "midi": 57,
            "time": 196.47373199999367,
            "velocity": 0.4330708661417323,
            "duration": 0.08921082916666023
        },
        {
            "name": "C#4",
            "midi": 61,
            "time": 196.56369249999366,
            "velocity": 0.3464566929133858,
            "duration": 0.08921082916666023
        },
        {
            "name": "A3",
            "midi": 57,
            "time": 196.65365299999365,
            "velocity": 0.4094488188976378,
            "duration": 0.08921082916666023
        },
        {
            "name": "C#4",
            "midi": 61,
            "time": 196.74361349999364,
            "velocity": 0.3700787401574803,
            "duration": 0.08921082916666023
        },
        {
            "name": "A3",
            "midi": 57,
            "time": 196.83357399999363,
            "velocity": 0.5039370078740157,
            "duration": 0.08921082916666023
        },
        {
            "name": "C#4",
            "midi": 61,
            "time": 196.92353449999362,
            "velocity": 0.3779527559055118,
            "duration": 0.08921082916666023
        },
        {
            "name": "A3",
            "midi": 57,
            "time": 197.0134949999936,
            "velocity": 0.3858267716535433,
            "duration": 0.08921082916666023
        },
        {
            "name": "C#4",
            "midi": 61,
            "time": 197.1034554999936,
            "velocity": 0.31496062992125984,
            "duration": 0.08921082916666023
        },
        {
            "name": "F3",
            "midi": 53,
            "time": 197.1934159999936,
            "velocity": 0.30708661417322836,
            "duration": 0.08921082916666023
        },
        {
            "name": "C#4",
            "midi": 61,
            "time": 197.28337649999358,
            "velocity": 0.2283464566929134,
            "duration": 0.08921082916666023
        },
        {
            "name": "F3",
            "midi": 53,
            "time": 197.37333699999357,
            "velocity": 0.25196850393700787,
            "duration": 0.08921082916666023
        },
        {
            "name": "C#4",
            "midi": 61,
            "time": 197.46329749999356,
            "velocity": 0.2283464566929134,
            "duration": 0.08921082916666023
        },
        {
            "name": "F3",
            "midi": 53,
            "time": 197.55325799999355,
            "velocity": 0.30708661417322836,
            "duration": 0.08921082916666023
        },
        {
            "name": "C#4",
            "midi": 61,
            "time": 197.64321849999354,
            "velocity": 0.2677165354330709,
            "duration": 0.08921082916666023
        },
        {
            "name": "F3",
            "midi": 53,
            "time": 197.73317899999353,
            "velocity": 0.36220472440944884,
            "duration": 0.08921082916666023
        },
        {
            "name": "C#4",
            "midi": 61,
            "time": 197.82313949999352,
            "velocity": 0.33070866141732286,
            "duration": 0.08921082916666023
        },
        {
            "name": "F3",
            "midi": 53,
            "time": 197.9130999999935,
            "velocity": 0.4330708661417323,
            "duration": 0.08921082916666023
        },
        {
            "name": "C#4",
            "midi": 61,
            "time": 198.0030604999935,
            "velocity": 0.3464566929133858,
            "duration": 0.08921082916666023
        },
        {
            "name": "F3",
            "midi": 53,
            "time": 198.09302099999348,
            "velocity": 0.4251968503937008,
            "duration": 0.08921082916666023
        },
        {
            "name": "C#4",
            "midi": 61,
            "time": 198.18298149999347,
            "velocity": 0.4015748031496063,
            "duration": 0.08921082916666023
        },
        {
            "name": "F3",
            "midi": 53,
            "time": 198.27294199999346,
            "velocity": 0.4881889763779528,
            "duration": 0.08921082916666023
        },
        {
            "name": "C#4",
            "midi": 61,
            "time": 198.36290249999345,
            "velocity": 0.36220472440944884,
            "duration": 0.08921082916666023
        },
        {
            "name": "F3",
            "midi": 53,
            "time": 198.45286299999344,
            "velocity": 0.3779527559055118,
            "duration": 0.08921082916666023
        },
        {
            "name": "C#4",
            "midi": 61,
            "time": 198.54282349999343,
            "velocity": 0.30708661417322836,
            "duration": 0.08921082916666023
        },
        {
            "name": "F#3",
            "midi": 54,
            "time": 198.63278399999342,
            "velocity": 0.3228346456692913,
            "duration": 0.17992100000000733
        },
        {
            "name": "C#4",
            "midi": 61,
            "time": 198.99262599999344,
            "velocity": 0.4409448818897638,
            "duration": 0.7196840000000009
        },
        {
            "name": "A3",
            "midi": 57,
            "time": 199.71230999999344,
            "velocity": 0.3779527559055118,
            "duration": 0.2698814999999968
        },
        {
            "name": "F#3",
            "midi": 54,
            "time": 199.98219149999343,
            "velocity": 0.3779527559055118,
            "duration": 0.08621214583334336
        },
        {
            "name": "F#3",
            "midi": 54,
            "time": 200.07215199999345,
            "velocity": 0.4251968503937008,
            "duration": 0.35984199999998623
        },
        {
            "name": "F3",
            "midi": 53,
            "time": 200.43199399999344,
            "velocity": 0.3700787401574803,
            "duration": 0.5397629999999936
        },
        {
            "name": "F3",
            "midi": 53,
            "time": 200.97175699999343,
            "velocity": 0.3700787401574803,
            "duration": 0.17992100000000733
        },
        {
            "name": "C#4",
            "midi": 61,
            "time": 201.15167799999344,
            "velocity": 0.4409448818897638,
            "duration": 0.2698814999999968
        },
        {
            "name": "F3",
            "midi": 53,
            "time": 201.42155949999344,
            "velocity": 0.3700787401574803,
            "duration": 0.08621214583334336
        },
        {
            "name": "G#3",
            "midi": 56,
            "time": 201.51151999999345,
            "velocity": 0.33858267716535434,
            "duration": 0.35984199999998623
        },
        {
            "name": "F#3",
            "midi": 54,
            "time": 201.87136199999344,
            "velocity": 0.3700787401574803,
            "duration": 0.5397629999999936
        },
        {
            "name": "F#3",
            "midi": 54,
            "time": 202.41112499999343,
            "velocity": 0.3779527559055118,
            "duration": 0.17992100000000733
        },
        {
            "name": "C#4",
            "midi": 61,
            "time": 202.59104599999344,
            "velocity": 0.41732283464566927,
            "duration": 0.2698814999999968
        },
        {
            "name": "F#3",
            "midi": 54,
            "time": 202.86092749999344,
            "velocity": 0.3700787401574803,
            "duration": 0.08621214583334336
        },
        {
            "name": "F#3",
            "midi": 54,
            "time": 202.95088799999345,
            "velocity": 0.4251968503937008,
            "duration": 0.08996049999998945
        },
        {
            "name": "F#3",
            "midi": 54,
            "time": 203.13080899999343,
            "velocity": 0.3858267716535433,
            "duration": 0.17992100000000733
        },
        {
            "name": "D4",
            "midi": 62,
            "time": 203.31072999999344,
            "velocity": 0.41732283464566927,
            "duration": 0.2698814999999968
        },
        {
            "name": "F#3",
            "midi": 54,
            "time": 203.58061149999344,
            "velocity": 0.4566929133858268,
            "duration": 0.08996049999998945
        },
        {
            "name": "F#3",
            "midi": 54,
            "time": 203.67057199999343,
            "velocity": 0.4566929133858268,
            "duration": 0.08996049999998945
        },
        {
            "name": "F#3",
            "midi": 54,
            "time": 203.8504929999934,
            "velocity": 0.48031496062992124,
            "duration": 0.17992100000000733
        },
        {
            "name": "D4",
            "midi": 62,
            "time": 204.0304139999934,
            "velocity": 0.4881889763779528,
            "duration": 0.2698814999999968
        },
        {
            "name": "F#3",
            "midi": 54,
            "time": 204.3002954999934,
            "velocity": 0.4881889763779528,
            "duration": 0.08996049999998945
        },
        {
            "name": "G3",
            "midi": 55,
            "time": 204.3902559999934,
            "velocity": 0.5196850393700787,
            "duration": 0.17992100000000733
        },
        {
            "name": "D3",
            "midi": 50,
            "time": 204.75009799999341,
            "velocity": 0.3779527559055118,
            "duration": 0.7196840000000009
        },
        {
            "name": "B2",
            "midi": 47,
            "time": 205.46978199999342,
            "velocity": 0.3779527559055118,
            "duration": 0.2698814999999968
        },
        {
            "name": "G2",
            "midi": 43,
            "time": 205.7396634999934,
            "velocity": 0.3779527559055118,
            "duration": 0.08996049999998945
        },
        {
            "name": "G2",
            "midi": 43,
            "time": 205.8296239999934,
            "velocity": 0.44881889763779526,
            "duration": 0.35984199999998623
        },
        {
            "name": "F#2",
            "midi": 42,
            "time": 206.1894659999934,
            "velocity": 0.3779527559055118,
            "duration": 0.5397629999999936
        },
        {
            "name": "F#2",
            "midi": 42,
            "time": 206.72922899999338,
            "velocity": 0.3779527559055118,
            "duration": 0.17992100000000733
        },
        {
            "name": "D3",
            "midi": 50,
            "time": 206.9091499999934,
            "velocity": 0.47244094488188976,
            "duration": 0.2698814999999968
        },
        {
            "name": "F#2",
            "midi": 42,
            "time": 207.17903149999339,
            "velocity": 0.3700787401574803,
            "duration": 0.08996049999998945
        },
        {
            "name": "A2",
            "midi": 45,
            "time": 207.26899199999337,
            "velocity": 0.5196850393700787,
            "duration": 0.35984199999998623
        },
        {
            "name": "G2",
            "midi": 43,
            "time": 207.62883399999336,
            "velocity": 0.44881889763779526,
            "duration": 0.5397629999999936
        },
        {
            "name": "G2",
            "midi": 43,
            "time": 208.16859699999335,
            "velocity": 0.4645669291338583,
            "duration": 0.17992100000000733
        },
        {
            "name": "D3",
            "midi": 50,
            "time": 208.34851799999336,
            "velocity": 0.5196850393700787,
            "duration": 0.2698814999999968
        },
        {
            "name": "F#2",
            "midi": 42,
            "time": 208.61839949999336,
            "velocity": 0.44881889763779526,
            "duration": 0.08621214583334336
        },
        {
            "name": "F#2",
            "midi": 42,
            "time": 208.70835999999338,
            "velocity": 0.5748031496062992,
            "duration": 0.35984199999998623
        },
        {
            "name": "F2",
            "midi": 41,
            "time": 209.06820199999336,
            "velocity": 0.4881889763779528,
            "duration": 0.5397629999999936
        },
        {
            "name": "F2",
            "midi": 41,
            "time": 209.60796499999336,
            "velocity": 0.4881889763779528,
            "duration": 0.17992100000000733
        },
        {
            "name": "C#3",
            "midi": 49,
            "time": 209.78788599999336,
            "velocity": 0.5590551181102362,
            "duration": 0.2698814999999968
        },
        {
            "name": "F2",
            "midi": 41,
            "time": 210.05776749999336,
            "velocity": 0.4881889763779528,
            "duration": 0.08996049999998945
        },
        {
            "name": "F#2",
            "midi": 42,
            "time": 210.14772799999335,
            "velocity": 0.5905511811023622,
            "duration": 0.08996049999998945
        },
        {
            "name": "F#2",
            "midi": 42,
            "time": 210.32764899999333,
            "velocity": 0.5275590551181102,
            "duration": 0.17992100000000733
        },
        {
            "name": "A2",
            "midi": 45,
            "time": 210.50756999999334,
            "velocity": 0.5275590551181102,
            "duration": 0.17992100000000733
        },
        {
            "name": "F#2",
            "midi": 42,
            "time": 210.68749099999334,
            "velocity": 0.48031496062992124,
            "duration": 0.17992100000000733
        },
        {
            "name": "D2",
            "midi": 38,
            "time": 210.86741199999335,
            "velocity": 0.5905511811023622,
            "duration": 0.08996049999998945
        },
        {
            "name": "D2",
            "midi": 38,
            "time": 211.04733299999333,
            "velocity": 0.5354330708661418,
            "duration": 0.17992100000000733
        },
        {
            "name": "F#2",
            "midi": 42,
            "time": 211.22725399999334,
            "velocity": 0.5275590551181102,
            "duration": 0.17992100000000733
        },
        {
            "name": "D2",
            "midi": 38,
            "time": 211.40717499999334,
            "velocity": 0.4881889763779528,
            "duration": 0.17992100000000733
        },
        {
            "name": "C2",
            "midi": 36,
            "time": 211.58709599999335,
            "velocity": 0.5984251968503937,
            "duration": 0.8096444999999903
        },
        {
            "name": "C2",
            "midi": 36,
            "time": 212.48670099999333,
            "velocity": 0.5354330708661418,
            "duration": 0.17992100000000733
        },
        {
            "name": "D#2",
            "midi": 39,
            "time": 212.66662199999334,
            "velocity": 0.5354330708661418,
            "duration": 0.17992100000000733
        },
        {
            "name": "C2",
            "midi": 36,
            "time": 212.84654299999335,
            "velocity": 0.5118110236220472,
            "duration": 0.17992100000000733
        },
        {
            "name": "C#2",
            "midi": 37,
            "time": 213.02646399999335,
            "velocity": 0.5748031496062992,
            "duration": 0.08996049999998945
        },
        {
            "name": "C#2",
            "midi": 37,
            "time": 213.20638499999333,
            "velocity": 0.5354330708661418,
            "duration": 0.17992100000000733
        },
        {
            "name": "E2",
            "midi": 40,
            "time": 213.38630599999334,
            "velocity": 0.5354330708661418,
            "duration": 0.17992100000000733
        },
        {
            "name": "C#2",
            "midi": 37,
            "time": 213.56622699999335,
            "velocity": 0.5118110236220472,
            "duration": 0.17992100000000733
        },
        {
            "name": "A1",
            "midi": 33,
            "time": 213.74614799999335,
            "velocity": 0.5984251968503937,
            "duration": 0.08996049999998945
        },
        {
            "name": "A1",
            "midi": 33,
            "time": 213.92606899999333,
            "velocity": 0.5354330708661418,
            "duration": 0.17992100000000733
        },
        {
            "name": "C#2",
            "midi": 37,
            "time": 214.10598999999334,
            "velocity": 0.5354330708661418,
            "duration": 0.17992100000000733
        },
        {
            "name": "A1",
            "midi": 33,
            "time": 214.28591099999335,
            "velocity": 0.5275590551181102,
            "duration": 0.17992100000000733
        },
        {
            "name": "F#1",
            "midi": 30,
            "time": 214.46583199999336,
            "velocity": 0.5905511811023622,
            "duration": 0.08996049999998945
        },
        {
            "name": "F#1",
            "midi": 30,
            "time": 214.64575299999333,
            "velocity": 0.5354330708661418,
            "duration": 0.17992100000000733
        },
        {
            "name": "A1",
            "midi": 33,
            "time": 214.82567399999334,
            "velocity": 0.5354330708661418,
            "duration": 0.17992100000000733
        },
        {
            "name": "F#1",
            "midi": 30,
            "time": 215.00559499999335,
            "velocity": 0.5275590551181102,
            "duration": 0.17992100000000733
        },
        {
            "name": "G1",
            "midi": 31,
            "time": 215.18551599999336,
            "velocity": 0.6062992125984252,
            "duration": 0.08996049999998945
        },
        {
            "name": "G1",
            "midi": 31,
            "time": 215.36543699999334,
            "velocity": 0.5275590551181102,
            "duration": 0.17992100000000733
        },
        {
            "name": "A#1",
            "midi": 34,
            "time": 215.54535799999334,
            "velocity": 0.5275590551181102,
            "duration": 0.17992100000000733
        },
        {
            "name": "G1",
            "midi": 31,
            "time": 215.72527899999335,
            "velocity": 0.5275590551181102,
            "duration": 0.17992100000000733
        },
        {
            "name": "G#1",
            "midi": 32,
            "time": 215.90519999999336,
            "velocity": 0.30708661417322836,
            "duration": 0.1049539166666591
        },
        {
            "name": "G#2",
            "midi": 44,
            "time": 215.99516049999335,
            "velocity": 0.25984251968503935,
            "duration": 0.1049539166666591
        },
        {
            "name": "G#1",
            "midi": 32,
            "time": 216.08512099999334,
            "velocity": 0.30708661417322836,
            "duration": 0.1049539166666591
        },
        {
            "name": "G#2",
            "midi": 44,
            "time": 216.17508149999333,
            "velocity": 0.2440944881889764,
            "duration": 0.1049539166666591
        },
        {
            "name": "G#1",
            "midi": 32,
            "time": 216.26504199999331,
            "velocity": 0.30708661417322836,
            "duration": 0.08921082916666023
        },
        {
            "name": "G#2",
            "midi": 44,
            "time": 216.3550024999933,
            "velocity": 0.25196850393700787,
            "duration": 0.08921082916666023
        },
        {
            "name": "G#1",
            "midi": 32,
            "time": 216.4449629999933,
            "velocity": 0.30708661417322836,
            "duration": 0.08921082916666023
        },
        {
            "name": "G#2",
            "midi": 44,
            "time": 216.53492349999328,
            "velocity": 0.25196850393700787,
            "duration": 0.08921082916666023
        },
        {
            "name": "G#1",
            "midi": 32,
            "time": 216.62488399999327,
            "velocity": 0.30708661417322836,
            "duration": 0.08921082916666023
        },
        {
            "name": "G#2",
            "midi": 44,
            "time": 216.71484449999326,
            "velocity": 0.2677165354330709,
            "duration": 0.08921082916666023
        },
        {
            "name": "G#1",
            "midi": 32,
            "time": 216.80480499999325,
            "velocity": 0.30708661417322836,
            "duration": 0.08921082916666023
        },
        {
            "name": "G#2",
            "midi": 44,
            "time": 216.89476549999324,
            "velocity": 0.2677165354330709,
            "duration": 0.08921082916666023
        },
        {
            "name": "G#1",
            "midi": 32,
            "time": 216.98472599999323,
            "velocity": 0.30708661417322836,
            "duration": 0.08921082916666023
        },
        {
            "name": "G#2",
            "midi": 44,
            "time": 217.07468649999322,
            "velocity": 0.25196850393700787,
            "duration": 0.08921082916666023
        },
        {
            "name": "G#1",
            "midi": 32,
            "time": 217.1646469999932,
            "velocity": 0.30708661417322836,
            "duration": 0.08921082916666023
        },
        {
            "name": "G#2",
            "midi": 44,
            "time": 217.2546074999932,
            "velocity": 0.2677165354330709,
            "duration": 0.08921082916666023
        },
        {
            "name": "G#1",
            "midi": 32,
            "time": 217.3445679999932,
            "velocity": 0.30708661417322836,
            "duration": 0.08921082916666023
        },
        {
            "name": "G#2",
            "midi": 44,
            "time": 217.43452849999318,
            "velocity": 0.25984251968503935,
            "duration": 0.08921082916666023
        },
        {
            "name": "G#1",
            "midi": 32,
            "time": 217.52448899999317,
            "velocity": 0.30708661417322836,
            "duration": 0.08921082916666023
        },
        {
            "name": "G#2",
            "midi": 44,
            "time": 217.61444949999316,
            "velocity": 0.25196850393700787,
            "duration": 0.08921082916666023
        },
        {
            "name": "G#1",
            "midi": 32,
            "time": 217.70440999999315,
            "velocity": 0.30708661417322836,
            "duration": 0.08921082916666023
        },
        {
            "name": "G#2",
            "midi": 44,
            "time": 217.79437049999314,
            "velocity": 0.25984251968503935,
            "duration": 0.08921082916666023
        },
        {
            "name": "G#1",
            "midi": 32,
            "time": 217.88433099999313,
            "velocity": 0.30708661417322836,
            "duration": 0.08921082916666023
        },
        {
            "name": "G#2",
            "midi": 44,
            "time": 217.97429149999311,
            "velocity": 0.25984251968503935,
            "duration": 0.08921082916666023
        },
        {
            "name": "G#1",
            "midi": 32,
            "time": 218.0642519999931,
            "velocity": 0.30708661417322836,
            "duration": 0.08921082916666023
        },
        {
            "name": "G#2",
            "midi": 44,
            "time": 218.1542124999931,
            "velocity": 0.25984251968503935,
            "duration": 0.08921082916666023
        },
        {
            "name": "G#1",
            "midi": 32,
            "time": 218.24417299999308,
            "velocity": 0.30708661417322836,
            "duration": 0.08921082916666023
        },
        {
            "name": "G#2",
            "midi": 44,
            "time": 218.33413349999307,
            "velocity": 0.2677165354330709,
            "duration": 0.08921082916666023
        },
        {
            "name": "G#1",
            "midi": 32,
            "time": 218.42409399999306,
            "velocity": 0.30708661417322836,
            "duration": 0.08921082916666023
        },
        {
            "name": "G#2",
            "midi": 44,
            "time": 218.51405449999305,
            "velocity": 0.25984251968503935,
            "duration": 0.08921082916666023
        },
        {
            "name": "G#1",
            "midi": 32,
            "time": 218.60401499999304,
            "velocity": 0.30708661417322836,
            "duration": 0.08921082916666023
        },
        {
            "name": "G#2",
            "midi": 44,
            "time": 218.69397549999303,
            "velocity": 0.25196850393700787,
            "duration": 0.08921082916666023
        },
        {
            "name": "G#1",
            "midi": 32,
            "time": 218.78393599999302,
            "velocity": 0.30708661417322836,
            "duration": 0.08921082916666023
        },
        {
            "name": "G#2",
            "midi": 44,
            "time": 218.873896499993,
            "velocity": 0.25984251968503935,
            "duration": 0.08921082916666023
        },
        {
            "name": "G#1",
            "midi": 32,
            "time": 218.963856999993,
            "velocity": 0.30708661417322836,
            "duration": 0.08921082916666023
        },
        {
            "name": "G#2",
            "midi": 44,
            "time": 219.053817499993,
            "velocity": 0.25984251968503935,
            "duration": 0.08921082916666023
        },
        {
            "name": "G#1",
            "midi": 32,
            "time": 219.14377799999298,
            "velocity": 0.30708661417322836,
            "duration": 0.08921082916666023
        },
        {
            "name": "G#2",
            "midi": 44,
            "time": 219.23373849999297,
            "velocity": 0.25984251968503935,
            "duration": 0.08921082916666023
        },
        {
            "name": "G#1",
            "midi": 32,
            "time": 219.32369899999296,
            "velocity": 0.30708661417322836,
            "duration": 0.08921082916666023
        },
        {
            "name": "G#2",
            "midi": 44,
            "time": 219.41365949999295,
            "velocity": 0.25984251968503935,
            "duration": 0.08921082916666023
        },
        {
            "name": "G#1",
            "midi": 32,
            "time": 219.50361999999294,
            "velocity": 0.30708661417322836,
            "duration": 0.08921082916666023
        },
        {
            "name": "G#2",
            "midi": 44,
            "time": 219.59358049999292,
            "velocity": 0.25984251968503935,
            "duration": 0.08921082916666023
        },
        {
            "name": "G#1",
            "midi": 32,
            "time": 219.6835409999929,
            "velocity": 0.30708661417322836,
            "duration": 0.08921082916666023
        },
        {
            "name": "G#2",
            "midi": 44,
            "time": 219.7735014999929,
            "velocity": 0.25984251968503935,
            "duration": 0.08921082916666023
        },
        {
            "name": "G#1",
            "midi": 32,
            "time": 219.8634619999929,
            "velocity": 0.30708661417322836,
            "duration": 0.08921082916666023
        },
        {
            "name": "G#2",
            "midi": 44,
            "time": 219.95342249999288,
            "velocity": 0.25984251968503935,
            "duration": 0.08921082916666023
        },
        {
            "name": "G#1",
            "midi": 32,
            "time": 220.04338299999287,
            "velocity": 0.30708661417322836,
            "duration": 0.08921082916666023
        },
        {
            "name": "G#2",
            "midi": 44,
            "time": 220.13334349999286,
            "velocity": 0.2677165354330709,
            "duration": 0.08921082916666023
        },
        {
            "name": "G#1",
            "midi": 32,
            "time": 220.22330399999285,
            "velocity": 0.30708661417322836,
            "duration": 0.08921082916666023
        },
        {
            "name": "G#2",
            "midi": 44,
            "time": 220.31326449999284,
            "velocity": 0.2677165354330709,
            "duration": 0.08921082916666023
        },
        {
            "name": "G#1",
            "midi": 32,
            "time": 220.40322499999283,
            "velocity": 0.30708661417322836,
            "duration": 0.08921082916666023
        },
        {
            "name": "G#2",
            "midi": 44,
            "time": 220.49318549999282,
            "velocity": 0.25984251968503935,
            "duration": 0.08921082916666023
        },
        {
            "name": "G#1",
            "midi": 32,
            "time": 220.5831459999928,
            "velocity": 0.30708661417322836,
            "duration": 0.08921082916666023
        },
        {
            "name": "G#2",
            "midi": 44,
            "time": 220.6731064999928,
            "velocity": 0.2677165354330709,
            "duration": 0.08921082916666023
        },
        {
            "name": "G#1",
            "midi": 32,
            "time": 220.7630669999928,
            "velocity": 0.30708661417322836,
            "duration": 0.08921082916666023
        },
        {
            "name": "G#2",
            "midi": 44,
            "time": 220.85302749999278,
            "velocity": 0.2677165354330709,
            "duration": 0.08921082916666023
        },
        {
            "name": "G#1",
            "midi": 32,
            "time": 220.94298799999277,
            "velocity": 0.30708661417322836,
            "duration": 0.1049539166666591
        },
        {
            "name": "G#2",
            "midi": 44,
            "time": 221.03294849999276,
            "velocity": 0.2677165354330709,
            "duration": 0.1049539166666591
        },
        {
            "name": "G#1",
            "midi": 32,
            "time": 221.12290899999275,
            "velocity": 0.30708661417322836,
            "duration": 0.1049539166666591
        },
        {
            "name": "G#2",
            "midi": 44,
            "time": 221.21286949999273,
            "velocity": 0.25196850393700787,
            "duration": 0.1049539166666591
        },
        {
            "name": "G#1",
            "midi": 32,
            "time": 221.30282999999272,
            "velocity": 0.29133858267716534,
            "duration": 0.1049539166666591
        },
        {
            "name": "G#2",
            "midi": 44,
            "time": 221.3927904999927,
            "velocity": 0.25984251968503935,
            "duration": 0.1049539166666591
        },
        {
            "name": "G#1",
            "midi": 32,
            "time": 221.4827509999927,
            "velocity": 0.29133858267716534,
            "duration": 0.1049539166666591
        },
        {
            "name": "G#2",
            "midi": 44,
            "time": 221.5727114999927,
            "velocity": 0.2440944881889764,
            "duration": 0.1049539166666591
        },
        {
            "name": "G#1",
            "midi": 32,
            "time": 221.66267199999268,
            "velocity": 0.29133858267716534,
            "duration": 0.08921082916666023
        },
        {
            "name": "G#2",
            "midi": 44,
            "time": 221.75263249999267,
            "velocity": 0.25984251968503935,
            "duration": 0.08921082916666023
        },
        {
            "name": "G#1",
            "midi": 32,
            "time": 221.84259299999266,
            "velocity": 0.29133858267716534,
            "duration": 0.08921082916666023
        },
        {
            "name": "G#2",
            "midi": 44,
            "time": 221.93255349999265,
            "velocity": 0.25196850393700787,
            "duration": 0.08921082916666023
        },
        {
            "name": "G#1",
            "midi": 32,
            "time": 222.02251399999264,
            "velocity": 0.29133858267716534,
            "duration": 0.08921082916666023
        },
        {
            "name": "G#2",
            "midi": 44,
            "time": 222.11247449999263,
            "velocity": 0.25196850393700787,
            "duration": 0.08921082916666023
        },
        {
            "name": "G#1",
            "midi": 32,
            "time": 222.20243499999262,
            "velocity": 0.29133858267716534,
            "duration": 0.08921082916666023
        },
        {
            "name": "G#2",
            "midi": 44,
            "time": 222.2923954999926,
            "velocity": 0.25984251968503935,
            "duration": 0.08921082916666023
        },
        {
            "name": "G#1",
            "midi": 32,
            "time": 222.3823559999926,
            "velocity": 0.30708661417322836,
            "duration": 0.08921082916666023
        },
        {
            "name": "G#2",
            "midi": 44,
            "time": 222.4723164999926,
            "velocity": 0.2677165354330709,
            "duration": 0.08921082916666023
        },
        {
            "name": "G#1",
            "midi": 32,
            "time": 222.56227699999258,
            "velocity": 0.31496062992125984,
            "duration": 0.08921082916666023
        },
        {
            "name": "G#2",
            "midi": 44,
            "time": 222.65223749999257,
            "velocity": 0.2677165354330709,
            "duration": 0.08921082916666023
        },
        {
            "name": "G#1",
            "midi": 32,
            "time": 222.74219799999256,
            "velocity": 0.3228346456692913,
            "duration": 0.1049539166666591
        },
        {
            "name": "G#2",
            "midi": 44,
            "time": 222.83215849999254,
            "velocity": 0.29133858267716534,
            "duration": 0.1049539166666591
        },
        {
            "name": "G#1",
            "midi": 32,
            "time": 222.92211899999253,
            "velocity": 0.3228346456692913,
            "duration": 0.1049539166666591
        },
        {
            "name": "G#2",
            "midi": 44,
            "time": 223.01207949999252,
            "velocity": 0.2992125984251969,
            "duration": 0.1049539166666591
        },
        {
            "name": "G#1",
            "midi": 32,
            "time": 223.1020399999925,
            "velocity": 0.33858267716535434,
            "duration": 0.1049539166666591
        },
        {
            "name": "G#2",
            "midi": 44,
            "time": 223.1920004999925,
            "velocity": 0.2992125984251969,
            "duration": 0.1049539166666591
        },
        {
            "name": "G#1",
            "midi": 32,
            "time": 223.2819609999925,
            "velocity": 0.3464566929133858,
            "duration": 0.1049539166666591
        },
        {
            "name": "G#2",
            "midi": 44,
            "time": 223.37192149999248,
            "velocity": 0.30708661417322836,
            "duration": 0.1049539166666591
        },
        {
            "name": "G#1",
            "midi": 32,
            "time": 223.46188199999247,
            "velocity": 0.3543307086614173,
            "duration": 0.1049539166666591
        },
        {
            "name": "G#2",
            "midi": 44,
            "time": 223.55184249999246,
            "velocity": 0.31496062992125984,
            "duration": 0.1049539166666591
        },
        {
            "name": "G#1",
            "midi": 32,
            "time": 223.64180299999245,
            "velocity": 0.36220472440944884,
            "duration": 0.1049539166666591
        },
        {
            "name": "G#2",
            "midi": 44,
            "time": 223.73176349999244,
            "velocity": 0.3228346456692913,
            "duration": 0.1049539166666591
        },
        {
            "name": "G#1",
            "midi": 32,
            "time": 223.82172399999243,
            "velocity": 0.3700787401574803,
            "duration": 0.1049539166666591
        },
        {
            "name": "G#2",
            "midi": 44,
            "time": 223.91168449999242,
            "velocity": 0.3228346456692913,
            "duration": 0.1049539166666591
        },
        {
            "name": "G#1",
            "midi": 32,
            "time": 224.0016449999924,
            "velocity": 0.3779527559055118,
            "duration": 0.1049539166666591
        },
        {
            "name": "G#2",
            "midi": 44,
            "time": 224.0916054999924,
            "velocity": 0.33858267716535434,
            "duration": 0.1049539166666591
        },
        {
            "name": "G#1",
            "midi": 32,
            "time": 224.1815659999924,
            "velocity": 0.3858267716535433,
            "duration": 0.1049539166666591
        },
        {
            "name": "G#2",
            "midi": 44,
            "time": 224.27152649999238,
            "velocity": 0.3464566929133858,
            "duration": 0.1049539166666591
        },
        {
            "name": "G#1",
            "midi": 32,
            "time": 224.36148699999237,
            "velocity": 0.3937007874015748,
            "duration": 0.1049539166666591
        },
        {
            "name": "G#2",
            "midi": 44,
            "time": 224.45144749999236,
            "velocity": 0.3543307086614173,
            "duration": 0.1049539166666591
        },
        {
            "name": "G#1",
            "midi": 32,
            "time": 224.54140799999234,
            "velocity": 0.4015748031496063,
            "duration": 0.1049539166666591
        },
        {
            "name": "G#2",
            "midi": 44,
            "time": 224.63136849999233,
            "velocity": 0.36220472440944884,
            "duration": 0.1049539166666591
        },
        {
            "name": "G#1",
            "midi": 32,
            "time": 224.72132899999232,
            "velocity": 0.4015748031496063,
            "duration": 0.1049539166666591
        },
        {
            "name": "G#2",
            "midi": 44,
            "time": 224.8112894999923,
            "velocity": 0.3700787401574803,
            "duration": 0.1049539166666591
        },
        {
            "name": "G#1",
            "midi": 32,
            "time": 224.9012499999923,
            "velocity": 0.41732283464566927,
            "duration": 0.1049539166666591
        },
        {
            "name": "G#2",
            "midi": 44,
            "time": 224.9912104999923,
            "velocity": 0.3937007874015748,
            "duration": 0.1049539166666591
        },
        {
            "name": "G#1",
            "midi": 32,
            "time": 225.08117099999228,
            "velocity": 0.4251968503937008,
            "duration": 0.1049539166666591
        },
        {
            "name": "G#2",
            "midi": 44,
            "time": 225.17113149999227,
            "velocity": 0.4015748031496063,
            "duration": 0.1049539166666591
        },
        {
            "name": "G#1",
            "midi": 32,
            "time": 225.26109199999226,
            "velocity": 0.4251968503937008,
            "duration": 0.1049539166666591
        },
        {
            "name": "G#2",
            "midi": 44,
            "time": 225.35105249999225,
            "velocity": 0.4015748031496063,
            "duration": 0.1049539166666591
        },
        {
            "name": "G#1",
            "midi": 32,
            "time": 225.44101299999224,
            "velocity": 0.3858267716535433,
            "duration": 0.1049539166666591
        },
        {
            "name": "G#2",
            "midi": 44,
            "time": 225.53097349999223,
            "velocity": 0.3700787401574803,
            "duration": 0.1049539166666591
        },
        {
            "name": "G#1",
            "midi": 32,
            "time": 225.62093399999222,
            "velocity": 0.3464566929133858,
            "duration": 0.1049539166666591
        },
        {
            "name": "G#2",
            "midi": 44,
            "time": 225.7108944999922,
            "velocity": 0.2755905511811024,
            "duration": 0.1049539166666591
        },
        {
            "name": "G#1",
            "midi": 32,
            "time": 225.8008549999922,
            "velocity": 0.30708661417322836,
            "duration": 0.1049539166666591
        },
        {
            "name": "G#2",
            "midi": 44,
            "time": 225.8908154999922,
            "velocity": 0.2677165354330709,
            "duration": 0.1049539166666591
        },
        {
            "name": "G#1",
            "midi": 32,
            "time": 225.98077599999218,
            "velocity": 0.30708661417322836,
            "duration": 0.08921082916666023
        },
        {
            "name": "G#2",
            "midi": 44,
            "time": 226.07073649999217,
            "velocity": 0.25984251968503935,
            "duration": 0.08921082916666023
        },
        {
            "name": "G#1",
            "midi": 32,
            "time": 226.16069699999215,
            "velocity": 0.29133858267716534,
            "duration": 0.08921082916666023
        },
        {
            "name": "G#2",
            "midi": 44,
            "time": 226.25065749999214,
            "velocity": 0.2755905511811024,
            "duration": 0.08921082916666023
        },
        {
            "name": "G#1",
            "midi": 32,
            "time": 226.34061799999213,
            "velocity": 0.29133858267716534,
            "duration": 0.08921082916666023
        },
        {
            "name": "G#2",
            "midi": 44,
            "time": 226.43057849999212,
            "velocity": 0.25196850393700787,
            "duration": 0.08921082916666023
        },
        {
            "name": "G#1",
            "midi": 32,
            "time": 226.5205389999921,
            "velocity": 0.29133858267716534,
            "duration": 0.08921082916666023
        },
        {
            "name": "G#2",
            "midi": 44,
            "time": 226.6104994999921,
            "velocity": 0.25984251968503935,
            "duration": 0.08921082916666023
        },
        {
            "name": "G#1",
            "midi": 32,
            "time": 226.7004599999921,
            "velocity": 0.30708661417322836,
            "duration": 0.08921082916666023
        },
        {
            "name": "G#2",
            "midi": 44,
            "time": 226.79042049999208,
            "velocity": 0.2677165354330709,
            "duration": 0.08921082916666023
        },
        {
            "name": "G#1",
            "midi": 32,
            "time": 226.88038099999207,
            "velocity": 0.30708661417322836,
            "duration": 0.08921082916666023
        },
        {
            "name": "G#2",
            "midi": 44,
            "time": 226.97034149999206,
            "velocity": 0.2755905511811024,
            "duration": 0.08921082916666023
        },
        {
            "name": "G#1",
            "midi": 32,
            "time": 227.06030199999205,
            "velocity": 0.3228346456692913,
            "duration": 0.08921082916666023
        },
        {
            "name": "G#2",
            "midi": 44,
            "time": 227.15026249999204,
            "velocity": 0.30708661417322836,
            "duration": 0.08921082916666023
        },
        {
            "name": "G#1",
            "midi": 32,
            "time": 227.24022299999203,
            "velocity": 0.3543307086614173,
            "duration": 0.08921082916666023
        },
        {
            "name": "G#2",
            "midi": 44,
            "time": 227.33018349999202,
            "velocity": 0.3228346456692913,
            "duration": 0.08921082916666023
        },
        {
            "name": "G#1",
            "midi": 32,
            "time": 227.420143999992,
            "velocity": 0.36220472440944884,
            "duration": 0.08921082916666023
        },
        {
            "name": "G#2",
            "midi": 44,
            "time": 227.510104499992,
            "velocity": 0.33070866141732286,
            "duration": 0.08921082916666023
        },
        {
            "name": "G#1",
            "midi": 32,
            "time": 227.600064999992,
            "velocity": 0.3858267716535433,
            "duration": 0.08921082916666023
        },
        {
            "name": "G#2",
            "midi": 44,
            "time": 227.69002549999198,
            "velocity": 0.3464566929133858,
            "duration": 0.08921082916666023
        },
        {
            "name": "G#1",
            "midi": 32,
            "time": 227.77998599999196,
            "velocity": 0.4015748031496063,
            "duration": 0.08921082916666023
        },
        {
            "name": "G#2",
            "midi": 44,
            "time": 227.86994649999195,
            "velocity": 0.3543307086614173,
            "duration": 0.08921082916666023
        },
        {
            "name": "G#1",
            "midi": 32,
            "time": 227.95990699999194,
            "velocity": 0.4015748031496063,
            "duration": 0.08921082916666023
        },
        {
            "name": "G#2",
            "midi": 44,
            "time": 228.04986749999193,
            "velocity": 0.3464566929133858,
            "duration": 0.08921082916666023
        },
        {
            "name": "G#1",
            "midi": 32,
            "time": 228.13982799999192,
            "velocity": 0.3543307086614173,
            "duration": 0.08921082916666023
        },
        {
            "name": "G#2",
            "midi": 44,
            "time": 228.2297884999919,
            "velocity": 0.3228346456692913,
            "duration": 0.08921082916666023
        },
        {
            "name": "G#1",
            "midi": 32,
            "time": 228.3197489999919,
            "velocity": 0.3228346456692913,
            "duration": 0.08921082916666023
        },
        {
            "name": "G#2",
            "midi": 44,
            "time": 228.4097094999919,
            "velocity": 0.29133858267716534,
            "duration": 0.08921082916666023
        },
        {
            "name": "G#1",
            "midi": 32,
            "time": 228.49966999999188,
            "velocity": 0.3228346456692913,
            "duration": 0.1049539166666591
        },
        {
            "name": "G#2",
            "midi": 44,
            "time": 228.58963049999187,
            "velocity": 0.2755905511811024,
            "duration": 0.1049539166666591
        },
        {
            "name": "G#1",
            "midi": 32,
            "time": 228.67959099999186,
            "velocity": 0.30708661417322836,
            "duration": 0.1049539166666591
        },
        {
            "name": "G#2",
            "midi": 44,
            "time": 228.76955149999185,
            "velocity": 0.25984251968503935,
            "duration": 0.1049539166666591
        },
        {
            "name": "G#1",
            "midi": 32,
            "time": 228.85951199999184,
            "velocity": 0.29133858267716534,
            "duration": 0.1049539166666591
        },
        {
            "name": "G#2",
            "midi": 44,
            "time": 228.94947249999183,
            "velocity": 0.2677165354330709,
            "duration": 0.1049539166666591
        },
        {
            "name": "G#1",
            "midi": 32,
            "time": 229.03943299999182,
            "velocity": 0.29133858267716534,
            "duration": 0.1049539166666591
        },
        {
            "name": "G#2",
            "midi": 44,
            "time": 229.1293934999918,
            "velocity": 0.25196850393700787,
            "duration": 0.1049539166666591
        },
        {
            "name": "G#1",
            "midi": 32,
            "time": 229.2193539999918,
            "velocity": 0.29133858267716534,
            "duration": 0.1049539166666591
        },
        {
            "name": "G#2",
            "midi": 44,
            "time": 229.30931449999179,
            "velocity": 0.25984251968503935,
            "duration": 0.1049539166666591
        },
        {
            "name": "G#1",
            "midi": 32,
            "time": 229.39927499999177,
            "velocity": 0.29133858267716534,
            "duration": 0.1049539166666591
        },
        {
            "name": "G#2",
            "midi": 44,
            "time": 229.48923549999176,
            "velocity": 0.2755905511811024,
            "duration": 0.1049539166666591
        },
        {
            "name": "G#1",
            "midi": 32,
            "time": 229.57919599999175,
            "velocity": 0.2755905511811024,
            "duration": 0.1049539166666591
        },
        {
            "name": "G#2",
            "midi": 44,
            "time": 229.66915649999174,
            "velocity": 0.2677165354330709,
            "duration": 0.1049539166666591
        },
        {
            "name": "G#1",
            "midi": 32,
            "time": 229.75911699999173,
            "velocity": 0.3228346456692913,
            "duration": 0.1049539166666591
        },
        {
            "name": "G#2",
            "midi": 44,
            "time": 229.84907749999172,
            "velocity": 0.29133858267716534,
            "duration": 0.1049539166666591
        },
        {
            "name": "G#1",
            "midi": 32,
            "time": 229.9390379999917,
            "velocity": 0.33858267716535434,
            "duration": 0.1049539166666591
        },
        {
            "name": "G#2",
            "midi": 44,
            "time": 230.0289984999917,
            "velocity": 0.30708661417322836,
            "duration": 0.1049539166666591
        },
        {
            "name": "G#1",
            "midi": 32,
            "time": 230.1189589999917,
            "velocity": 0.3700787401574803,
            "duration": 0.1049539166666591
        },
        {
            "name": "G#2",
            "midi": 44,
            "time": 230.20891949999168,
            "velocity": 0.33070866141732286,
            "duration": 0.1049539166666591
        },
        {
            "name": "G#1",
            "midi": 32,
            "time": 230.29887999999167,
            "velocity": 0.3700787401574803,
            "duration": 0.08921082916666023
        },
        {
            "name": "G#2",
            "midi": 44,
            "time": 230.38884049999166,
            "velocity": 0.33858267716535434,
            "duration": 0.08921082916666023
        },
        {
            "name": "G#1",
            "midi": 32,
            "time": 230.47880099999165,
            "velocity": 0.4015748031496063,
            "duration": 0.08921082916666023
        },
        {
            "name": "G#2",
            "midi": 44,
            "time": 230.56876149999164,
            "velocity": 0.3700787401574803,
            "duration": 0.08921082916666023
        },
        {
            "name": "G#1",
            "midi": 32,
            "time": 230.65872199999163,
            "velocity": 0.4409448818897638,
            "duration": 0.08921082916666023
        },
        {
            "name": "G#2",
            "midi": 44,
            "time": 230.74868249999162,
            "velocity": 0.3779527559055118,
            "duration": 0.08921082916666023
        },
        {
            "name": "G#1",
            "midi": 32,
            "time": 230.8386429999916,
            "velocity": 0.4251968503937008,
            "duration": 0.08921082916666023
        },
        {
            "name": "G#2",
            "midi": 44,
            "time": 230.9286034999916,
            "velocity": 0.3700787401574803,
            "duration": 0.08921082916666023
        },
        {
            "name": "G#1",
            "midi": 32,
            "time": 231.01856399999158,
            "velocity": 0.3858267716535433,
            "duration": 0.08921082916666023
        },
        {
            "name": "G#2",
            "midi": 44,
            "time": 231.10852449999157,
            "velocity": 0.3543307086614173,
            "duration": 0.08921082916666023
        },
        {
            "name": "G#1",
            "midi": 32,
            "time": 231.19848499999156,
            "velocity": 0.3858267716535433,
            "duration": 0.08921082916666023
        },
        {
            "name": "G#2",
            "midi": 44,
            "time": 231.28844549999155,
            "velocity": 0.3228346456692913,
            "duration": 0.08921082916666023
        },
        {
            "name": "G#1",
            "midi": 32,
            "time": 231.37840599999154,
            "velocity": 0.3543307086614173,
            "duration": 0.08921082916666023
        },
        {
            "name": "G#2",
            "midi": 44,
            "time": 231.46836649999153,
            "velocity": 0.30708661417322836,
            "duration": 0.08921082916666023
        },
        {
            "name": "G#1",
            "midi": 32,
            "time": 231.55832699999152,
            "velocity": 0.3228346456692913,
            "duration": 0.08921082916666023
        },
        {
            "name": "G#2",
            "midi": 44,
            "time": 231.6482874999915,
            "velocity": 0.2755905511811024,
            "duration": 0.08921082916666023
        },
        {
            "name": "G#1",
            "midi": 32,
            "time": 231.7382479999915,
            "velocity": 0.31496062992125984,
            "duration": 0.08921082916666023
        },
        {
            "name": "G#2",
            "midi": 44,
            "time": 231.8282084999915,
            "velocity": 0.2677165354330709,
            "duration": 0.08921082916666023
        },
        {
            "name": "G#1",
            "midi": 32,
            "time": 231.91816899999148,
            "velocity": 0.30708661417322836,
            "duration": 0.08921082916666023
        },
        {
            "name": "G#2",
            "midi": 44,
            "time": 232.00812949999147,
            "velocity": 0.2677165354330709,
            "duration": 0.08921082916666023
        },
        {
            "name": "G#1",
            "midi": 32,
            "time": 232.09808999999146,
            "velocity": 0.30708661417322836,
            "duration": 0.08921082916666023
        },
        {
            "name": "G#2",
            "midi": 44,
            "time": 232.18805049999145,
            "velocity": 0.2677165354330709,
            "duration": 0.08921082916666023
        },
        {
            "name": "G#1",
            "midi": 32,
            "time": 232.27801099999144,
            "velocity": 0.3228346456692913,
            "duration": 0.08921082916666023
        },
        {
            "name": "G#2",
            "midi": 44,
            "time": 232.36797149999143,
            "velocity": 0.30708661417322836,
            "duration": 0.08921082916666023
        },
        {
            "name": "G#1",
            "midi": 32,
            "time": 232.45793199999142,
            "velocity": 0.3543307086614173,
            "duration": 0.08921082916666023
        },
        {
            "name": "G#2",
            "midi": 44,
            "time": 232.5478924999914,
            "velocity": 0.30708661417322836,
            "duration": 0.08921082916666023
        },
        {
            "name": "G#1",
            "midi": 32,
            "time": 232.6378529999914,
            "velocity": 0.3543307086614173,
            "duration": 0.08921082916666023
        },
        {
            "name": "G#2",
            "midi": 44,
            "time": 232.72781349999138,
            "velocity": 0.31496062992125984,
            "duration": 0.08921082916666023
        },
        {
            "name": "G#1",
            "midi": 32,
            "time": 232.81777399999137,
            "velocity": 0.3700787401574803,
            "duration": 0.08921082916666023
        },
        {
            "name": "G#2",
            "midi": 44,
            "time": 232.90773449999136,
            "velocity": 0.33858267716535434,
            "duration": 0.08921082916666023
        },
        {
            "name": "G#1",
            "midi": 32,
            "time": 232.99769499999135,
            "velocity": 0.4015748031496063,
            "duration": 0.08921082916666023
        },
        {
            "name": "G#2",
            "midi": 44,
            "time": 233.08765549999134,
            "velocity": 0.3543307086614173,
            "duration": 0.08921082916666023
        },
        {
            "name": "G#1",
            "midi": 32,
            "time": 233.17761599999133,
            "velocity": 0.4409448818897638,
            "duration": 0.08921082916666023
        },
        {
            "name": "G#2",
            "midi": 44,
            "time": 233.26757649999132,
            "velocity": 0.4015748031496063,
            "duration": 0.08921082916666023
        },
        {
            "name": "G#1",
            "midi": 32,
            "time": 233.3575369999913,
            "velocity": 0.4409448818897638,
            "duration": 0.08921082916666023
        },
        {
            "name": "G#2",
            "midi": 44,
            "time": 233.4474974999913,
            "velocity": 0.3858267716535433,
            "duration": 0.08921082916666023
        },
        {
            "name": "G#1",
            "midi": 32,
            "time": 233.5374579999913,
            "velocity": 0.4015748031496063,
            "duration": 0.08921082916666023
        },
        {
            "name": "G#2",
            "midi": 44,
            "time": 233.62741849999128,
            "velocity": 0.33858267716535434,
            "duration": 0.08921082916666023
        },
        {
            "name": "G#1",
            "midi": 32,
            "time": 233.71737899999127,
            "velocity": 0.3700787401574803,
            "duration": 0.08921082916666023
        },
        {
            "name": "G#2",
            "midi": 44,
            "time": 233.80733949999126,
            "velocity": 0.31496062992125984,
            "duration": 0.08921082916666023
        },
        {
            "name": "A1",
            "midi": 33,
            "time": 233.89729999999125,
            "velocity": 0.3464566929133858,
            "duration": 0.08921082916666023
        },
        {
            "name": "A2",
            "midi": 45,
            "time": 233.98726049999124,
            "velocity": 0.2992125984251969,
            "duration": 0.08921082916666023
        },
        {
            "name": "A1",
            "midi": 33,
            "time": 234.07722099999123,
            "velocity": 0.3228346456692913,
            "duration": 0.08921082916666023
        },
        {
            "name": "A2",
            "midi": 45,
            "time": 234.16718149999122,
            "velocity": 0.2755905511811024,
            "duration": 0.08921082916666023
        },
        {
            "name": "A1",
            "midi": 33,
            "time": 234.2571419999912,
            "velocity": 0.30708661417322836,
            "duration": 0.08921082916666023
        },
        {
            "name": "A2",
            "midi": 45,
            "time": 234.3471024999912,
            "velocity": 0.2677165354330709,
            "duration": 0.08921082916666023
        },
        {
            "name": "A1",
            "midi": 33,
            "time": 234.43706299999118,
            "velocity": 0.30708661417322836,
            "duration": 0.08921082916666023
        },
        {
            "name": "A2",
            "midi": 45,
            "time": 234.52702349999117,
            "velocity": 0.2677165354330709,
            "duration": 0.08921082916666023
        },
        {
            "name": "F#1",
            "midi": 30,
            "time": 234.61698399999116,
            "velocity": 0.25984251968503935,
            "duration": 1.4393680000000018
        },
        {
            "name": "F#2",
            "midi": 42,
            "time": 234.61698399999116,
            "velocity": 0.30708661417322836,
            "duration": 1.4393680000000018
        },
        {
            "name": "G#1",
            "midi": 32,
            "time": 236.05635199999116,
            "velocity": 0.2125984251968504,
            "duration": 1.4393680000000018
        },
        {
            "name": "G#2",
            "midi": 44,
            "time": 236.05635199999116,
            "velocity": 0.25196850393700787,
            "duration": 1.4393680000000018
        },
        {
            "name": "C#2",
            "midi": 37,
            "time": 237.49571999999117,
            "velocity": 0.4881889763779528,
            "duration": 0.08996049999998945
        },
        {
            "name": "G#2",
            "midi": 44,
            "time": 237.67564099999115,
            "velocity": 0.31496062992125984,
            "duration": 0.08996049999998945
        },
        {
            "name": "C#2",
            "midi": 37,
            "time": 237.85556199999112,
            "velocity": 0.33858267716535434,
            "duration": 0.08996049999998945
        },
        {
            "name": "G#2",
            "midi": 44,
            "time": 238.0354829999911,
            "velocity": 0.30708661417322836,
            "duration": 0.08996049999998945
        },
        {
            "name": "C#2",
            "midi": 37,
            "time": 238.21540399999108,
            "velocity": 0.3228346456692913,
            "duration": 0.08996049999998945
        },
        {
            "name": "G#2",
            "midi": 44,
            "time": 238.39532499999106,
            "velocity": 0.30708661417322836,
            "duration": 0.08996049999998945
        },
        {
            "name": "C#2",
            "midi": 37,
            "time": 238.57524599999104,
            "velocity": 0.33070866141732286,
            "duration": 0.08996049999998945
        },
        {
            "name": "G#2",
            "midi": 44,
            "time": 238.75516699999102,
            "velocity": 0.30708661417322836,
            "duration": 0.08996049999998945
        },
        {
            "name": "C#2",
            "midi": 37,
            "time": 238.935087999991,
            "velocity": 0.33858267716535434,
            "duration": 0.08996049999998945
        },
        {
            "name": "G#2",
            "midi": 44,
            "time": 239.11500899999098,
            "velocity": 0.31496062992125984,
            "duration": 0.08996049999998945
        },
        {
            "name": "C#2",
            "midi": 37,
            "time": 239.29492999999096,
            "velocity": 0.33858267716535434,
            "duration": 0.08996049999998945
        },
        {
            "name": "G#2",
            "midi": 44,
            "time": 239.47485099999093,
            "velocity": 0.31496062992125984,
            "duration": 0.08996049999998945
        },
        {
            "name": "C#2",
            "midi": 37,
            "time": 239.6547719999909,
            "velocity": 0.3228346456692913,
            "duration": 0.08996049999998945
        },
        {
            "name": "G#2",
            "midi": 44,
            "time": 239.8346929999909,
            "velocity": 0.2992125984251969,
            "duration": 0.08996049999998945
        },
        {
            "name": "C#2",
            "midi": 37,
            "time": 240.01461399999087,
            "velocity": 0.5196850393700787,
            "duration": 0.08996049999998945
        },
        {
            "name": "C#3",
            "midi": 49,
            "time": 240.01461399999087,
            "velocity": 0.6220472440944882,
            "duration": 0.08996049999998945
        },
        {
            "name": "G#2",
            "midi": 44,
            "time": 240.19453499999085,
            "velocity": 0.5275590551181102,
            "duration": 0.08996049999998945
        },
        {
            "name": "C2",
            "midi": 36,
            "time": 240.37445599999083,
            "velocity": 0.3228346456692913,
            "duration": 0.08996049999998945
        },
        {
            "name": "G#2",
            "midi": 44,
            "time": 240.5543769999908,
            "velocity": 0.2992125984251969,
            "duration": 0.08996049999998945
        },
        {
            "name": "C2",
            "midi": 36,
            "time": 240.7342979999908,
            "velocity": 0.3228346456692913,
            "duration": 0.08996049999998945
        },
        {
            "name": "G#2",
            "midi": 44,
            "time": 240.91421899999077,
            "velocity": 0.2992125984251969,
            "duration": 0.08996049999998945
        },
        {
            "name": "C2",
            "midi": 36,
            "time": 241.09413999999074,
            "velocity": 0.31496062992125984,
            "duration": 0.08996049999998945
        },
        {
            "name": "G#2",
            "midi": 44,
            "time": 241.27406099999072,
            "velocity": 0.29133858267716534,
            "duration": 0.08996049999998945
        },
        {
            "name": "C2",
            "midi": 36,
            "time": 241.4539819999907,
            "velocity": 0.31496062992125984,
            "duration": 0.08996049999998945
        },
        {
            "name": "G#2",
            "midi": 44,
            "time": 241.63390299999068,
            "velocity": 0.28346456692913385,
            "duration": 0.08996049999998945
        },
        {
            "name": "C2",
            "midi": 36,
            "time": 241.81382399999066,
            "velocity": 0.31496062992125984,
            "duration": 0.08996049999998945
        },
        {
            "name": "G#2",
            "midi": 44,
            "time": 241.99374499999064,
            "velocity": 0.28346456692913385,
            "duration": 0.08996049999998945
        },
        {
            "name": "C2",
            "midi": 36,
            "time": 242.17366599999062,
            "velocity": 0.31496062992125984,
            "duration": 0.08996049999998945
        },
        {
            "name": "G#2",
            "midi": 44,
            "time": 242.3535869999906,
            "velocity": 0.28346456692913385,
            "duration": 0.08996049999998945
        },
        {
            "name": "C2",
            "midi": 36,
            "time": 242.53350799999058,
            "velocity": 0.31496062992125984,
            "duration": 0.08996049999998945
        },
        {
            "name": "G#2",
            "midi": 44,
            "time": 242.71342899999055,
            "velocity": 0.28346456692913385,
            "duration": 0.08996049999998945
        },
        {
            "name": "C3",
            "midi": 48,
            "time": 242.89334999999053,
            "velocity": 0.6220472440944882,
            "duration": 0.08996049999998945
        },
        {
            "name": "C2",
            "midi": 36,
            "time": 242.89334999999053,
            "velocity": 0.5196850393700787,
            "duration": 0.08996049999998945
        },
        {
            "name": "G#2",
            "midi": 44,
            "time": 243.0732709999905,
            "velocity": 0.5118110236220472,
            "duration": 0.08996049999998945
        },
        {
            "name": "B1",
            "midi": 35,
            "time": 243.2531919999905,
            "velocity": 0.4330708661417323,
            "duration": 0.08996049999998945
        },
        {
            "name": "G#2",
            "midi": 44,
            "time": 243.43311299999047,
            "velocity": 0.4015748031496063,
            "duration": 0.08996049999998945
        },
        {
            "name": "B1",
            "midi": 35,
            "time": 243.61303399999045,
            "velocity": 0.4409448818897638,
            "duration": 0.08996049999998945
        },
        {
            "name": "G#2",
            "midi": 44,
            "time": 243.79295499999043,
            "velocity": 0.4094488188976378,
            "duration": 0.08996049999998945
        },
        {
            "name": "B1",
            "midi": 35,
            "time": 243.9728759999904,
            "velocity": 0.4409448818897638,
            "duration": 0.08996049999998945
        },
        {
            "name": "G#2",
            "midi": 44,
            "time": 244.1527969999904,
            "velocity": 0.4094488188976378,
            "duration": 0.08996049999998945
        },
        {
            "name": "B1",
            "midi": 35,
            "time": 244.33271799999036,
            "velocity": 0.4409448818897638,
            "duration": 0.08996049999998945
        },
        {
            "name": "G#2",
            "midi": 44,
            "time": 244.51263899999034,
            "velocity": 0.4015748031496063,
            "duration": 0.08996049999998945
        },
        {
            "name": "B1",
            "midi": 35,
            "time": 244.69255999999032,
            "velocity": 0.4409448818897638,
            "duration": 0.08996049999998945
        },
        {
            "name": "G#2",
            "midi": 44,
            "time": 244.8724809999903,
            "velocity": 0.4015748031496063,
            "duration": 0.08996049999998945
        },
        {
            "name": "B1",
            "midi": 35,
            "time": 245.05240199999028,
            "velocity": 0.4409448818897638,
            "duration": 0.08996049999998945
        },
        {
            "name": "G#2",
            "midi": 44,
            "time": 245.23232299999026,
            "velocity": 0.4094488188976378,
            "duration": 0.08996049999998945
        },
        {
            "name": "B1",
            "midi": 35,
            "time": 245.41224399999024,
            "velocity": 0.4409448818897638,
            "duration": 0.08996049999998945
        },
        {
            "name": "G#2",
            "midi": 44,
            "time": 245.59216499999022,
            "velocity": 0.4094488188976378,
            "duration": 0.08996049999998945
        },
        {
            "name": "B2",
            "midi": 47,
            "time": 245.7720859999902,
            "velocity": 0.6692913385826772,
            "duration": 0.08996049999998945
        },
        {
            "name": "B1",
            "midi": 35,
            "time": 245.7720859999902,
            "velocity": 0.5590551181102362,
            "duration": 0.08996049999998945
        },
        {
            "name": "G#2",
            "midi": 44,
            "time": 245.95200699999018,
            "velocity": 0.5748031496062992,
            "duration": 0.08996049999998945
        },
        {
            "name": "A1",
            "midi": 33,
            "time": 246.13192799999015,
            "velocity": 0.3937007874015748,
            "duration": 0.08996049999998945
        },
        {
            "name": "A2",
            "midi": 45,
            "time": 246.31184899999013,
            "velocity": 0.4015748031496063,
            "duration": 0.08996049999998945
        },
        {
            "name": "A1",
            "midi": 33,
            "time": 246.4917699999901,
            "velocity": 0.44881889763779526,
            "duration": 0.08996049999998945
        },
        {
            "name": "A2",
            "midi": 45,
            "time": 246.6716909999901,
            "velocity": 0.4881889763779528,
            "duration": 0.08996049999998945
        },
        {
            "name": "A1",
            "midi": 33,
            "time": 246.85161199999007,
            "velocity": 0.5275590551181102,
            "duration": 0.08996049999998945
        },
        {
            "name": "A2",
            "midi": 45,
            "time": 247.03153299999005,
            "velocity": 0.5275590551181102,
            "duration": 0.08996049999998945
        },
        {
            "name": "A1",
            "midi": 33,
            "time": 247.21145399999003,
            "velocity": 0.6771653543307087,
            "duration": 0.08996049999998945
        },
        {
            "name": "A2",
            "midi": 45,
            "time": 247.39137499999,
            "velocity": 0.6692913385826772,
            "duration": 0.08996049999998945
        },
        {
            "name": "A1",
            "midi": 33,
            "time": 247.57129599998999,
            "velocity": 0.5275590551181102,
            "duration": 0.08996049999998945
        },
        {
            "name": "A2",
            "midi": 45,
            "time": 247.75121699998996,
            "velocity": 0.4881889763779528,
            "duration": 0.08996049999998945
        },
        {
            "name": "A1",
            "midi": 33,
            "time": 247.93113799998994,
            "velocity": 0.5275590551181102,
            "duration": 0.08996049999998945
        },
        {
            "name": "A2",
            "midi": 45,
            "time": 248.11105899998992,
            "velocity": 0.49606299212598426,
            "duration": 0.08996049999998945
        },
        {
            "name": "A1",
            "midi": 33,
            "time": 248.2909799999899,
            "velocity": 0.5275590551181102,
            "duration": 0.08996049999998945
        },
        {
            "name": "A2",
            "midi": 45,
            "time": 248.47090099998988,
            "velocity": 0.5039370078740157,
            "duration": 0.08996049999998945
        },
        {
            "name": "A1",
            "midi": 33,
            "time": 248.65082199998986,
            "velocity": 0.7086614173228346,
            "duration": 0.08996049999998945
        },
        {
            "name": "A2",
            "midi": 45,
            "time": 248.83074299998984,
            "velocity": 0.7086614173228346,
            "duration": 0.08996049999998945
        },
        {
            "name": "G#2",
            "midi": 44,
            "time": 249.01066399998982,
            "velocity": 0.6062992125984252,
            "duration": 0.17992100000000733
        },
        {
            "name": "G#1",
            "midi": 32,
            "time": 249.01066399998982,
            "velocity": 0.6062992125984252,
            "duration": 0.17992100000000733
        },
        {
            "name": "C4",
            "midi": 60,
            "time": 249.19058499998982,
            "velocity": 0.4881889763779528,
            "duration": 0.17992100000000733
        },
        {
            "name": "G#3",
            "midi": 56,
            "time": 249.19058499998982,
            "velocity": 0.4881889763779528,
            "duration": 2.69881500000011
        },
        {
            "name": "C4",
            "midi": 60,
            "time": 249.37050599998983,
            "velocity": 0.4881889763779528,
            "duration": 0.17992100000000733
        },
        {
            "name": "C#4",
            "midi": 61,
            "time": 249.55042699998984,
            "velocity": 0.4881889763779528,
            "duration": 0.17992100000000733
        },
        {
            "name": "D#4",
            "midi": 63,
            "time": 249.73034799998985,
            "velocity": 0.5039370078740157,
            "duration": 0.17992100000000733
        },
        {
            "name": "E4",
            "midi": 64,
            "time": 249.91026899998985,
            "velocity": 0.5196850393700787,
            "duration": 0.17992100000000733
        },
        {
            "name": "F#4",
            "midi": 66,
            "time": 250.09018999998986,
            "velocity": 0.5275590551181102,
            "duration": 0.17992100000000733
        },
        {
            "name": "D#4",
            "midi": 63,
            "time": 250.27011099998987,
            "velocity": 0.5354330708661418,
            "duration": 0.17992100000000733
        },
        {
            "name": "F#4",
            "midi": 66,
            "time": 250.45003199998987,
            "velocity": 0.5433070866141733,
            "duration": 0.17992100000000733
        },
        {
            "name": "E4",
            "midi": 64,
            "time": 250.62995299998988,
            "velocity": 0.5590551181102362,
            "duration": 0.17992100000000733
        },
        {
            "name": "A4",
            "midi": 69,
            "time": 250.8098739999899,
            "velocity": 0.5669291338582677,
            "duration": 0.17992100000000733
        },
        {
            "name": "G#4",
            "midi": 68,
            "time": 250.9897949999899,
            "velocity": 0.5590551181102362,
            "duration": 0.17992100000000733
        },
        {
            "name": "F#4",
            "midi": 66,
            "time": 251.1697159999899,
            "velocity": 0.5433070866141733,
            "duration": 0.17992100000000733
        },
        {
            "name": "E4",
            "midi": 64,
            "time": 251.3496369999899,
            "velocity": 0.5354330708661418,
            "duration": 0.17992100000000733
        },
        {
            "name": "D#4",
            "midi": 63,
            "time": 251.52955799998992,
            "velocity": 0.5275590551181102,
            "duration": 0.17992100000000733
        },
        {
            "name": "C#4",
            "midi": 61,
            "time": 251.70947899998993,
            "velocity": 0.5196850393700787,
            "duration": 0.17992100000000733
        },
        {
            "name": "G#3",
            "midi": 56,
            "time": 251.88939999998993,
            "velocity": 0.5039370078740157,
            "duration": 2.878736000000117
        },
        {
            "name": "C4",
            "midi": 60,
            "time": 251.88939999998993,
            "velocity": 0.5039370078740157,
            "duration": 0.17992100000000733
        },
        {
            "name": "C4",
            "midi": 60,
            "time": 252.06932099998994,
            "velocity": 0.49606299212598426,
            "duration": 0.17992100000000733
        },
        {
            "name": "C4",
            "midi": 60,
            "time": 252.24924199998995,
            "velocity": 0.4881889763779528,
            "duration": 0.17992100000000733
        },
        {
            "name": "C#4",
            "midi": 61,
            "time": 252.42916299998996,
            "velocity": 0.47244094488188976,
            "duration": 0.17992100000000733
        },
        {
            "name": "D#4",
            "midi": 63,
            "time": 252.60908399998996,
            "velocity": 0.4881889763779528,
            "duration": 0.17992100000000733
        },
        {
            "name": "E4",
            "midi": 64,
            "time": 252.78900499998997,
            "velocity": 0.4881889763779528,
            "duration": 0.17992100000000733
        },
        {
            "name": "F#4",
            "midi": 66,
            "time": 252.96892599998998,
            "velocity": 0.5118110236220472,
            "duration": 0.17992100000000733
        },
        {
            "name": "D#4",
            "midi": 63,
            "time": 253.14884699998998,
            "velocity": 0.5275590551181102,
            "duration": 0.17992100000000733
        },
        {
            "name": "F#4",
            "midi": 66,
            "time": 253.32876799999,
            "velocity": 0.5354330708661418,
            "duration": 0.17992100000000733
        },
        {
            "name": "E4",
            "midi": 64,
            "time": 253.50868899999,
            "velocity": 0.5354330708661418,
            "duration": 0.17992100000000733
        },
        {
            "name": "A4",
            "midi": 69,
            "time": 253.68860999999,
            "velocity": 0.5354330708661418,
            "duration": 0.17992100000000733
        },
        {
            "name": "G#4",
            "midi": 68,
            "time": 253.86853099999,
            "velocity": 0.5275590551181102,
            "duration": 0.17992100000000733
        },
        {
            "name": "F#4",
            "midi": 66,
            "time": 254.04845199999002,
            "velocity": 0.5275590551181102,
            "duration": 0.17992100000000733
        },
        {
            "name": "E4",
            "midi": 64,
            "time": 254.22837299999003,
            "velocity": 0.5275590551181102,
            "duration": 0.17992100000000733
        },
        {
            "name": "D#4",
            "midi": 63,
            "time": 254.40829399999004,
            "velocity": 0.5275590551181102,
            "duration": 0.17992100000000733
        },
        {
            "name": "C#4",
            "midi": 61,
            "time": 254.58821499999004,
            "velocity": 0.5275590551181102,
            "duration": 0.17992100000000733
        },
        {
            "name": "C4",
            "midi": 60,
            "time": 254.76813599999005,
            "velocity": 0.5590551181102362,
            "duration": 0.08996049999998945
        },
        {
            "name": "G#3",
            "midi": 56,
            "time": 254.76813599999005,
            "velocity": 0.5590551181102362,
            "duration": 0.08996049999998945
        },
        {
            "name": "C#4",
            "midi": 61,
            "time": 254.94805699999003,
            "velocity": 0.4881889763779528,
            "duration": 0.08996049999998945
        },
        {
            "name": "G#3",
            "midi": 56,
            "time": 254.94805699999003,
            "velocity": 0.4881889763779528,
            "duration": 0.08996049999998945
        },
        {
            "name": "G#3",
            "midi": 56,
            "time": 255.12797799999,
            "velocity": 0.5354330708661418,
            "duration": 0.08996049999998945
        },
        {
            "name": "C4",
            "midi": 60,
            "time": 255.12797799999,
            "velocity": 0.5354330708661418,
            "duration": 0.08996049999998945
        },
        {
            "name": "C#4",
            "midi": 61,
            "time": 255.30789899999,
            "velocity": 0.4881889763779528,
            "duration": 0.08996049999998945
        },
        {
            "name": "G#3",
            "midi": 56,
            "time": 255.30789899999,
            "velocity": 0.4881889763779528,
            "duration": 0.08996049999998945
        },
        {
            "name": "C4",
            "midi": 60,
            "time": 255.48781999998997,
            "velocity": 0.5590551181102362,
            "duration": 0.08996049999998945
        },
        {
            "name": "G#3",
            "midi": 56,
            "time": 255.48781999998997,
            "velocity": 0.5590551181102362,
            "duration": 0.08996049999998945
        },
        {
            "name": "G#3",
            "midi": 56,
            "time": 255.66774099998995,
            "velocity": 0.4881889763779528,
            "duration": 0.08996049999998945
        },
        {
            "name": "C#4",
            "midi": 61,
            "time": 255.66774099998995,
            "velocity": 0.4881889763779528,
            "duration": 0.08996049999998945
        },
        {
            "name": "C4",
            "midi": 60,
            "time": 255.84766199998992,
            "velocity": 0.5275590551181102,
            "duration": 0.08996049999998945
        },
        {
            "name": "G#3",
            "midi": 56,
            "time": 255.84766199998992,
            "velocity": 0.5275590551181102,
            "duration": 0.08996049999998945
        },
        {
            "name": "C#4",
            "midi": 61,
            "time": 256.02758299998993,
            "velocity": 0.48031496062992124,
            "duration": 0.08996050000001787
        },
        {
            "name": "G#3",
            "midi": 56,
            "time": 256.02758299998993,
            "velocity": 0.48031496062992124,
            "duration": 0.08996050000001787
        },
        {
            "name": "C4",
            "midi": 60,
            "time": 256.20750399998997,
            "velocity": 0.5590551181102362,
            "duration": 0.1799209999999789
        },
        {
            "name": "G#3",
            "midi": 56,
            "time": 256.20750399998997,
            "velocity": 0.5590551181102362,
            "duration": 0.1799209999999789
        },
        {
            "name": "G#1",
            "midi": 32,
            "time": 256.5673459999899,
            "velocity": 0.6062992125984252,
            "duration": 1.079525999999987
        },
        {
            "name": "G#2",
            "midi": 44,
            "time": 256.5673459999899,
            "velocity": 0.7086614173228346,
            "duration": 1.079525999999987
        },
        {
            "name": "C#3",
            "midi": 49,
            "time": 257.6468719999899,
            "velocity": 0.30708661417322836,
            "duration": 0.1049539166666591
        },
        {
            "name": "G#3",
            "midi": 56,
            "time": 257.73683249998993,
            "velocity": 0.2283464566929134,
            "duration": 0.10495391666660225
        },
        {
            "name": "E3",
            "midi": 52,
            "time": 257.8267929999899,
            "velocity": 0.2677165354330709,
            "duration": 0.10495391666660225
        },
        {
            "name": "G#3",
            "midi": 56,
            "time": 257.91675349998985,
            "velocity": 0.2283464566929134,
            "duration": 0.10495391666660225
        },
        {
            "name": "C#3",
            "midi": 49,
            "time": 258.0067139999898,
            "velocity": 0.30708661417322836,
            "duration": 0.08921082916663181
        },
        {
            "name": "G#3",
            "midi": 56,
            "time": 258.0966744999898,
            "velocity": 0.2283464566929134,
            "duration": 0.08921082916668865
        },
        {
            "name": "E3",
            "midi": 52,
            "time": 258.1866349999898,
            "velocity": 0.2677165354330709,
            "duration": 0.08921082916668865
        },
        {
            "name": "G#3",
            "midi": 56,
            "time": 258.2765954999898,
            "velocity": 0.23622047244094488,
            "duration": 0.08921082916668865
        },
        {
            "name": "C#3",
            "midi": 49,
            "time": 258.3665559999898,
            "velocity": 0.30708661417322836,
            "duration": 0.08921082916668865
        },
        {
            "name": "G#3",
            "midi": 56,
            "time": 258.45651649998985,
            "velocity": 0.23622047244094488,
            "duration": 0.08921082916668865
        },
        {
            "name": "E3",
            "midi": 52,
            "time": 258.54647699998986,
            "velocity": 0.2677165354330709,
            "duration": 0.08921082916668865
        },
        {
            "name": "G#3",
            "midi": 56,
            "time": 258.6364374999899,
            "velocity": 0.23622047244094488,
            "duration": 0.08921082916668865
        },
        {
            "name": "C#3",
            "midi": 49,
            "time": 258.7263979999899,
            "velocity": 0.30708661417322836,
            "duration": 0.08921082916668865
        },
        {
            "name": "G#3",
            "midi": 56,
            "time": 258.8163584999899,
            "velocity": 0.23622047244094488,
            "duration": 0.08921082916668865
        },
        {
            "name": "E3",
            "midi": 52,
            "time": 258.90631899998994,
            "velocity": 0.2677165354330709,
            "duration": 0.08921082916668865
        },
        {
            "name": "G#3",
            "midi": 56,
            "time": 258.99627949998995,
            "velocity": 0.23622047244094488,
            "duration": 0.08921082916668865
        },
        {
            "name": "D#3",
            "midi": 51,
            "time": 259.08623999998997,
            "velocity": 0.30708661417322836,
            "duration": 0.1049539166666591
        },
        {
            "name": "G#3",
            "midi": 56,
            "time": 259.17620049999,
            "velocity": 0.23622047244094488,
            "duration": 0.10495391666660225
        },
        {
            "name": "F#3",
            "midi": 54,
            "time": 259.26616099998995,
            "velocity": 0.2677165354330709,
            "duration": 0.10495391666660225
        },
        {
            "name": "G#3",
            "midi": 56,
            "time": 259.3561214999899,
            "velocity": 0.23622047244094488,
            "duration": 0.10495391666660225
        },
        {
            "name": "D#3",
            "midi": 51,
            "time": 259.4460819999899,
            "velocity": 0.3779527559055118,
            "duration": 0.08921082916663181
        },
        {
            "name": "G#3",
            "midi": 56,
            "time": 259.53604249998983,
            "velocity": 0.33858267716535434,
            "duration": 0.08921082916668865
        },
        {
            "name": "F#3",
            "midi": 54,
            "time": 259.62600299998985,
            "velocity": 0.3700787401574803,
            "duration": 0.08921082916668865
        },
        {
            "name": "G#3",
            "midi": 56,
            "time": 259.71596349998987,
            "velocity": 0.3858267716535433,
            "duration": 0.08921082916668865
        },
        {
            "name": "D#3",
            "midi": 51,
            "time": 259.8059239999899,
            "velocity": 0.4566929133858268,
            "duration": 0.08921082916668865
        },
        {
            "name": "G#3",
            "midi": 56,
            "time": 259.8958844999899,
            "velocity": 0.36220472440944884,
            "duration": 0.08921082916668865
        },
        {
            "name": "F#3",
            "midi": 54,
            "time": 259.9858449999899,
            "velocity": 0.4251968503937008,
            "duration": 0.08921082916668865
        },
        {
            "name": "G#3",
            "midi": 56,
            "time": 260.07580549998994,
            "velocity": 0.3700787401574803,
            "duration": 0.08921082916668865
        },
        {
            "name": "D#3",
            "midi": 51,
            "time": 260.16576599998996,
            "velocity": 0.5196850393700787,
            "duration": 0.08921082916668865
        },
        {
            "name": "G#3",
            "midi": 56,
            "time": 260.25572649999,
            "velocity": 0.36220472440944884,
            "duration": 0.08921082916668865
        },
        {
            "name": "F#3",
            "midi": 54,
            "time": 260.34568699999,
            "velocity": 0.4015748031496063,
            "duration": 0.08921082916668865
        },
        {
            "name": "G#3",
            "midi": 56,
            "time": 260.43564749999,
            "velocity": 0.31496062992125984,
            "duration": 0.08921082916668865
        },
        {
            "name": "E3",
            "midi": 52,
            "time": 260.52560799999003,
            "velocity": 0.30708661417322836,
            "duration": 0.08921082916668865
        },
        {
            "name": "G#3",
            "midi": 56,
            "time": 260.61556849999005,
            "velocity": 0.25196850393700787,
            "duration": 0.08921082916668865
        },
        {
            "name": "E3",
            "midi": 52,
            "time": 260.70552899999007,
            "velocity": 0.2755905511811024,
            "duration": 0.08921082916668865
        },
        {
            "name": "G#3",
            "midi": 56,
            "time": 260.7954894999901,
            "velocity": 0.2440944881889764,
            "duration": 0.08921082916668865
        },
        {
            "name": "E3",
            "midi": 52,
            "time": 260.8854499999901,
            "velocity": 0.3937007874015748,
            "duration": 0.08921082916668865
        },
        {
            "name": "G#3",
            "midi": 56,
            "time": 260.9754104999901,
            "velocity": 0.3228346456692913,
            "duration": 0.08921082916668865
        },
        {
            "name": "E3",
            "midi": 52,
            "time": 261.06537099999014,
            "velocity": 0.3700787401574803,
            "duration": 0.08921082916668865
        },
        {
            "name": "G#3",
            "midi": 56,
            "time": 261.15533149999015,
            "velocity": 0.33070866141732286,
            "duration": 0.08921082916668865
        },
        {
            "name": "E3",
            "midi": 52,
            "time": 261.2452919999902,
            "velocity": 0.4566929133858268,
            "duration": 0.08921082916668865
        },
        {
            "name": "G#3",
            "midi": 56,
            "time": 261.3352524999902,
            "velocity": 0.3779527559055118,
            "duration": 0.08921082916668865
        },
        {
            "name": "E3",
            "midi": 52,
            "time": 261.4252129999902,
            "velocity": 0.4409448818897638,
            "duration": 0.08921082916668865
        },
        {
            "name": "G#3",
            "midi": 56,
            "time": 261.5151734999902,
            "velocity": 0.4015748031496063,
            "duration": 0.08921082916668865
        },
        {
            "name": "E3",
            "midi": 52,
            "time": 261.60513399999024,
            "velocity": 0.5196850393700787,
            "duration": 0.08921082916668865
        },
        {
            "name": "G#3",
            "midi": 56,
            "time": 261.69509449999026,
            "velocity": 0.3858267716535433,
            "duration": 0.08921082916668865
        },
        {
            "name": "E3",
            "midi": 52,
            "time": 261.7850549999903,
            "velocity": 0.4015748031496063,
            "duration": 0.08921082916668865
        },
        {
            "name": "G#3",
            "midi": 56,
            "time": 261.8750154999903,
            "velocity": 0.3700787401574803,
            "duration": 0.08921082916668865
        },
        {
            "name": "C3",
            "midi": 48,
            "time": 261.9649759999903,
            "velocity": 0.30708661417322836,
            "duration": 0.08921082916668865
        },
        {
            "name": "G#3",
            "midi": 56,
            "time": 262.05493649999033,
            "velocity": 0.2440944881889764,
            "duration": 0.08921082916668865
        },
        {
            "name": "C3",
            "midi": 48,
            "time": 262.14489699999035,
            "velocity": 0.2677165354330709,
            "duration": 0.08921082916668865
        },
        {
            "name": "G#3",
            "midi": 56,
            "time": 262.23485749999037,
            "velocity": 0.25196850393700787,
            "duration": 0.08921082916668865
        },
        {
            "name": "C3",
            "midi": 48,
            "time": 262.3248179999904,
            "velocity": 0.3937007874015748,
            "duration": 0.08921082916668865
        },
        {
            "name": "G#3",
            "midi": 56,
            "time": 262.4147784999904,
            "velocity": 0.33858267716535434,
            "duration": 0.08921082916668865
        },
        {
            "name": "C3",
            "midi": 48,
            "time": 262.5047389999904,
            "velocity": 0.3858267716535433,
            "duration": 0.08921082916668865
        },
        {
            "name": "G#3",
            "midi": 56,
            "time": 262.59469949999044,
            "velocity": 0.3464566929133858,
            "duration": 0.08921082916668865
        },
        {
            "name": "C3",
            "midi": 48,
            "time": 262.68465999999046,
            "velocity": 0.4566929133858268,
            "duration": 0.08921082916668865
        },
        {
            "name": "G#3",
            "midi": 56,
            "time": 262.7746204999905,
            "velocity": 0.4015748031496063,
            "duration": 0.08921082916668865
        },
        {
            "name": "C3",
            "midi": 48,
            "time": 262.8645809999905,
            "velocity": 0.4645669291338583,
            "duration": 0.08921082916668865
        },
        {
            "name": "G#3",
            "midi": 56,
            "time": 262.9545414999905,
            "velocity": 0.4251968503937008,
            "duration": 0.08921082916668865
        },
        {
            "name": "C3",
            "midi": 48,
            "time": 263.04450199999053,
            "velocity": 0.5196850393700787,
            "duration": 0.08921082916668865
        },
        {
            "name": "G#3",
            "midi": 56,
            "time": 263.13446249999055,
            "velocity": 0.3779527559055118,
            "duration": 0.08921082916668865
        },
        {
            "name": "C3",
            "midi": 48,
            "time": 263.22442299999057,
            "velocity": 0.4015748031496063,
            "duration": 0.08921082916668865
        },
        {
            "name": "G#3",
            "midi": 56,
            "time": 263.3143834999906,
            "velocity": 0.30708661417322836,
            "duration": 0.08921082916668865
        },
        {
            "name": "C#3",
            "midi": 49,
            "time": 263.4043439999906,
            "velocity": 0.30708661417322836,
            "duration": 0.1049539166666591
        },
        {
            "name": "G#3",
            "midi": 56,
            "time": 263.4943044999906,
            "velocity": 0.25196850393700787,
            "duration": 0.10495391666660225
        },
        {
            "name": "E3",
            "midi": 52,
            "time": 263.5842649999906,
            "velocity": 0.2755905511811024,
            "duration": 0.08921082916663181
        },
        {
            "name": "G#3",
            "midi": 56,
            "time": 263.67422549999054,
            "velocity": 0.2440944881889764,
            "duration": 0.08921082916668865
        },
        {
            "name": "C#3",
            "midi": 49,
            "time": 263.76418599999056,
            "velocity": 0.31496062992125984,
            "duration": 0.08921082916668865
        },
        {
            "name": "G#3",
            "midi": 56,
            "time": 263.8541464999906,
            "velocity": 0.2440944881889764,
            "duration": 0.08921082916668865
        },
        {
            "name": "E3",
            "midi": 52,
            "time": 263.9441069999906,
            "velocity": 0.2677165354330709,
            "duration": 0.08921082916668865
        },
        {
            "name": "G#3",
            "midi": 56,
            "time": 264.0340674999906,
            "velocity": 0.2440944881889764,
            "duration": 0.08921082916668865
        },
        {
            "name": "C#3",
            "midi": 49,
            "time": 264.12402799999063,
            "velocity": 0.3228346456692913,
            "duration": 0.08921082916668865
        },
        {
            "name": "G#3",
            "midi": 56,
            "time": 264.21398849999065,
            "velocity": 0.2440944881889764,
            "duration": 0.08921082916668865
        },
        {
            "name": "E3",
            "midi": 52,
            "time": 264.30394899999067,
            "velocity": 0.2755905511811024,
            "duration": 0.08921082916668865
        },
        {
            "name": "G#3",
            "midi": 56,
            "time": 264.3939094999907,
            "velocity": 0.2440944881889764,
            "duration": 0.08921082916668865
        },
        {
            "name": "C#3",
            "midi": 49,
            "time": 264.4838699999907,
            "velocity": 0.33858267716535434,
            "duration": 0.1049539166666591
        },
        {
            "name": "G#3",
            "midi": 56,
            "time": 264.5738304999907,
            "velocity": 0.2677165354330709,
            "duration": 0.10495391666660225
        },
        {
            "name": "E3",
            "midi": 52,
            "time": 264.6637909999907,
            "velocity": 0.29133858267716534,
            "duration": 0.10495391666660225
        },
        {
            "name": "G#3",
            "midi": 56,
            "time": 264.75375149999064,
            "velocity": 0.25984251968503935,
            "duration": 0.10495391666660225
        },
        {
            "name": "D#3",
            "midi": 51,
            "time": 264.8437119999906,
            "velocity": 0.36220472440944884,
            "duration": 0.10495391666660225
        },
        {
            "name": "G#3",
            "midi": 56,
            "time": 264.93367249999056,
            "velocity": 0.25984251968503935,
            "duration": 0.10495391666660225
        },
        {
            "name": "F#3",
            "midi": 54,
            "time": 265.0236329999905,
            "velocity": 0.30708661417322836,
            "duration": 0.08921082916663181
        },
        {
            "name": "G#3",
            "midi": 56,
            "time": 265.1135934999905,
            "velocity": 0.25984251968503935,
            "duration": 0.08921082916668865
        },
        {
            "name": "D#3",
            "midi": 51,
            "time": 265.2035539999905,
            "velocity": 0.3700787401574803,
            "duration": 0.08921082916668865
        },
        {
            "name": "G#3",
            "midi": 56,
            "time": 265.2935144999905,
            "velocity": 0.2755905511811024,
            "duration": 0.08921082916668865
        },
        {
            "name": "F#3",
            "midi": 54,
            "time": 265.38347499999054,
            "velocity": 0.31496062992125984,
            "duration": 0.08921082916668865
        },
        {
            "name": "G#3",
            "midi": 56,
            "time": 265.47343549999056,
            "velocity": 0.2677165354330709,
            "duration": 0.08921082916668865
        },
        {
            "name": "D#3",
            "midi": 51,
            "time": 265.5633959999906,
            "velocity": 0.3858267716535433,
            "duration": 0.08921082916668865
        },
        {
            "name": "G#3",
            "midi": 56,
            "time": 265.6533564999906,
            "velocity": 0.2755905511811024,
            "duration": 0.08921082916668865
        },
        {
            "name": "F#3",
            "midi": 54,
            "time": 265.7433169999906,
            "velocity": 0.3228346456692913,
            "duration": 0.08921082916668865
        },
        {
            "name": "G#3",
            "midi": 56,
            "time": 265.83327749999063,
            "velocity": 0.2755905511811024,
            "duration": 0.08921082916668865
        },
        {
            "name": "D#3",
            "midi": 51,
            "time": 265.92323799999065,
            "velocity": 0.3937007874015748,
            "duration": 0.1049539166666591
        },
        {
            "name": "G#3",
            "midi": 56,
            "time": 266.01319849999066,
            "velocity": 0.31496062992125984,
            "duration": 0.10495391666660225
        },
        {
            "name": "F#3",
            "midi": 54,
            "time": 266.1031589999906,
            "velocity": 0.3543307086614173,
            "duration": 0.10495391666660225
        },
        {
            "name": "G#3",
            "midi": 56,
            "time": 266.1931194999906,
            "velocity": 0.33070866141732286,
            "duration": 0.10495391666660225
        },
        {
            "name": "E3",
            "midi": 52,
            "time": 266.28307999999055,
            "velocity": 0.4015748031496063,
            "duration": 0.10495391666660225
        },
        {
            "name": "G#3",
            "midi": 56,
            "time": 266.3730404999905,
            "velocity": 0.33858267716535434,
            "duration": 0.10495391666660225
        },
        {
            "name": "E3",
            "midi": 52,
            "time": 266.46300099999047,
            "velocity": 0.3700787401574803,
            "duration": 0.08921082916663181
        },
        {
            "name": "G#3",
            "midi": 56,
            "time": 266.55296149999043,
            "velocity": 0.33858267716535434,
            "duration": 0.08921082916668865
        },
        {
            "name": "E3",
            "midi": 52,
            "time": 266.64292199999045,
            "velocity": 0.4094488188976378,
            "duration": 0.08921082916668865
        },
        {
            "name": "G#3",
            "midi": 56,
            "time": 266.73288249999047,
            "velocity": 0.33858267716535434,
            "duration": 0.08921082916668865
        },
        {
            "name": "E3",
            "midi": 52,
            "time": 266.8228429999905,
            "velocity": 0.3779527559055118,
            "duration": 0.08921082916668865
        },
        {
            "name": "G#3",
            "midi": 56,
            "time": 266.9128034999905,
            "velocity": 0.3464566929133858,
            "duration": 0.08921082916668865
        },
        {
            "name": "E3",
            "midi": 52,
            "time": 267.0027639999905,
            "velocity": 0.4409448818897638,
            "duration": 0.08921082916668865
        },
        {
            "name": "G#3",
            "midi": 56,
            "time": 267.09272449999054,
            "velocity": 0.36220472440944884,
            "duration": 0.08921082916668865
        },
        {
            "name": "E3",
            "midi": 52,
            "time": 267.18268499999056,
            "velocity": 0.3937007874015748,
            "duration": 0.08921082916668865
        },
        {
            "name": "G#3",
            "midi": 56,
            "time": 267.2726454999906,
            "velocity": 0.3700787401574803,
            "duration": 0.08921082916668865
        },
        {
            "name": "E3",
            "midi": 52,
            "time": 267.3626059999906,
            "velocity": 0.44881889763779526,
            "duration": 0.1049539166666591
        },
        {
            "name": "G#3",
            "midi": 56,
            "time": 267.4525664999906,
            "velocity": 0.3858267716535433,
            "duration": 0.10495391666660225
        },
        {
            "name": "E3",
            "midi": 52,
            "time": 267.54252699999057,
            "velocity": 0.4015748031496063,
            "duration": 0.10495391666660225
        },
        {
            "name": "G#3",
            "midi": 56,
            "time": 267.63248749999053,
            "velocity": 0.3779527559055118,
            "duration": 0.10495391666660225
        },
        {
            "name": "C3",
            "midi": 48,
            "time": 267.7224479999905,
            "velocity": 0.4645669291338583,
            "duration": 0.10495391666660225
        },
        {
            "name": "G#3",
            "midi": 56,
            "time": 267.81240849999045,
            "velocity": 0.41732283464566927,
            "duration": 0.10495391666660225
        },
        {
            "name": "C3",
            "midi": 48,
            "time": 267.9023689999904,
            "velocity": 0.4409448818897638,
            "duration": 0.08921082916663181
        },
        {
            "name": "G#3",
            "midi": 56,
            "time": 267.9923294999904,
            "velocity": 0.4094488188976378,
            "duration": 0.08921082916668865
        },
        {
            "name": "C3",
            "midi": 48,
            "time": 268.0822899999904,
            "velocity": 0.47244094488188976,
            "duration": 0.08921082916668865
        },
        {
            "name": "G#3",
            "midi": 56,
            "time": 268.1722504999904,
            "velocity": 0.4094488188976378,
            "duration": 0.08921082916668865
        },
        {
            "name": "C3",
            "midi": 48,
            "time": 268.26221099999043,
            "velocity": 0.44881889763779526,
            "duration": 0.08921082916668865
        },
        {
            "name": "G#3",
            "midi": 56,
            "time": 268.35217149999045,
            "velocity": 0.4094488188976378,
            "duration": 0.08921082916668865
        },
        {
            "name": "C3",
            "midi": 48,
            "time": 268.44213199999047,
            "velocity": 0.4881889763779528,
            "duration": 0.08921082916668865
        },
        {
            "name": "G#3",
            "midi": 56,
            "time": 268.5320924999905,
            "velocity": 0.4094488188976378,
            "duration": 0.08921082916668865
        },
        {
            "name": "C3",
            "midi": 48,
            "time": 268.6220529999905,
            "velocity": 0.4645669291338583,
            "duration": 0.08921082916668865
        },
        {
            "name": "G#3",
            "midi": 56,
            "time": 268.7120134999905,
            "velocity": 0.41732283464566927,
            "duration": 0.08921082916668865
        },
        {
            "name": "C3",
            "midi": 48,
            "time": 268.80197399999054,
            "velocity": 0.4881889763779528,
            "duration": 0.1049539166666591
        },
        {
            "name": "G#3",
            "midi": 56,
            "time": 268.89193449999055,
            "velocity": 0.41732283464566927,
            "duration": 0.10495391666660225
        },
        {
            "name": "C3",
            "midi": 48,
            "time": 268.9818949999905,
            "velocity": 0.47244094488188976,
            "duration": 0.10495391666660225
        },
        {
            "name": "G#3",
            "midi": 56,
            "time": 269.0718554999905,
            "velocity": 0.4251968503937008,
            "duration": 0.10495391666660225
        },
        {
            "name": "B2",
            "midi": 47,
            "time": 269.16181599999044,
            "velocity": 0.5196850393700787,
            "duration": 0.10495391666660225
        },
        {
            "name": "G#3",
            "midi": 56,
            "time": 269.2517764999904,
            "velocity": 0.4409448818897638,
            "duration": 0.10495391666660225
        },
        {
            "name": "C#3",
            "midi": 49,
            "time": 269.34173699999036,
            "velocity": 0.48031496062992124,
            "duration": 0.10495391666660225
        },
        {
            "name": "G#3",
            "midi": 56,
            "time": 269.4316974999903,
            "velocity": 0.4409448818897638,
            "duration": 0.10495391666660225
        },
        {
            "name": "B2",
            "midi": 47,
            "time": 269.5216579999903,
            "velocity": 0.5196850393700787,
            "duration": 0.10495391666660225
        },
        {
            "name": "G#3",
            "midi": 56,
            "time": 269.61161849999024,
            "velocity": 0.4409448818897638,
            "duration": 0.10495391666660225
        },
        {
            "name": "C#3",
            "midi": 49,
            "time": 269.7015789999902,
            "velocity": 0.48031496062992124,
            "duration": 0.10495391666660225
        },
        {
            "name": "G#3",
            "midi": 56,
            "time": 269.79153949999017,
            "velocity": 0.4409448818897638,
            "duration": 0.10495391666660225
        },
        {
            "name": "A2",
            "midi": 45,
            "time": 269.8814999999901,
            "velocity": 0.5196850393700787,
            "duration": 0.10495391666660225
        },
        {
            "name": "F#3",
            "midi": 54,
            "time": 269.9714604999901,
            "velocity": 0.4409448818897638,
            "duration": 0.10495391666660225
        },
        {
            "name": "C#3",
            "midi": 49,
            "time": 270.06142099999005,
            "velocity": 0.4881889763779528,
            "duration": 0.10495391666660225
        },
        {
            "name": "F#3",
            "midi": 54,
            "time": 270.15138149999,
            "velocity": 0.44881889763779526,
            "duration": 0.10495391666660225
        },
        {
            "name": "A2",
            "midi": 45,
            "time": 270.24134199998997,
            "velocity": 0.5196850393700787,
            "duration": 0.10495391666660225
        },
        {
            "name": "F#3",
            "midi": 54,
            "time": 270.33130249998993,
            "velocity": 0.4409448818897638,
            "duration": 0.10495391666660225
        },
        {
            "name": "C#3",
            "midi": 49,
            "time": 270.4212629999899,
            "velocity": 0.48031496062992124,
            "duration": 0.10495391666660225
        },
        {
            "name": "F#3",
            "midi": 54,
            "time": 270.51122349998985,
            "velocity": 0.4409448818897638,
            "duration": 0.10495391666660225
        },
        {
            "name": "A2",
            "midi": 45,
            "time": 270.6011839999898,
            "velocity": 0.5196850393700787,
            "duration": 0.08921082916663181
        },
        {
            "name": "F#3",
            "midi": 54,
            "time": 270.6911444999898,
            "velocity": 0.4409448818897638,
            "duration": 0.08921082916668865
        },
        {
            "name": "B2",
            "midi": 47,
            "time": 270.7811049999898,
            "velocity": 0.48031496062992124,
            "duration": 0.08921082916668865
        },
        {
            "name": "F#3",
            "midi": 54,
            "time": 270.8710654999898,
            "velocity": 0.4409448818897638,
            "duration": 0.08921082916668865
        },
        {
            "name": "G#2",
            "midi": 44,
            "time": 270.96102599998983,
            "velocity": 0.5196850393700787,
            "duration": 0.1049539166666591
        },
        {
            "name": "E3",
            "midi": 52,
            "time": 271.05098649998985,
            "velocity": 0.4409448818897638,
            "duration": 0.10495391666660225
        },
        {
            "name": "B2",
            "midi": 47,
            "time": 271.1409469999898,
            "velocity": 0.4881889763779528,
            "duration": 0.10495391666660225
        },
        {
            "name": "E3",
            "midi": 52,
            "time": 271.23090749998977,
            "velocity": 0.4409448818897638,
            "duration": 0.10495391666660225
        },
        {
            "name": "G#2",
            "midi": 44,
            "time": 271.32086799998973,
            "velocity": 0.5196850393700787,
            "duration": 0.10495391666660225
        },
        {
            "name": "E3",
            "midi": 52,
            "time": 271.4108284999897,
            "velocity": 0.4409448818897638,
            "duration": 0.10495391666660225
        },
        {
            "name": "B2",
            "midi": 47,
            "time": 271.50078899998965,
            "velocity": 0.48031496062992124,
            "duration": 0.10495391666660225
        },
        {
            "name": "E3",
            "midi": 52,
            "time": 271.5907494999896,
            "velocity": 0.4409448818897638,
            "duration": 0.10495391666660225
        },
        {
            "name": "G#2",
            "midi": 44,
            "time": 271.6807099999896,
            "velocity": 0.5196850393700787,
            "duration": 0.10495391666660225
        },
        {
            "name": "E3",
            "midi": 52,
            "time": 271.77067049998954,
            "velocity": 0.4251968503937008,
            "duration": 0.10495391666660225
        },
        {
            "name": "B2",
            "midi": 47,
            "time": 271.8606309999895,
            "velocity": 0.47244094488188976,
            "duration": 0.10495391666660225
        },
        {
            "name": "E3",
            "midi": 52,
            "time": 271.95059149998946,
            "velocity": 0.4409448818897638,
            "duration": 0.10495391666660225
        },
        {
            "name": "G2",
            "midi": 43,
            "time": 272.0405519999894,
            "velocity": 0.5196850393700787,
            "duration": 0.10495391666660225
        },
        {
            "name": "E3",
            "midi": 52,
            "time": 272.1305124999894,
            "velocity": 0.4566929133858268,
            "duration": 0.10495391666660225
        },
        {
            "name": "A2",
            "midi": 45,
            "time": 272.22047299998934,
            "velocity": 0.4881889763779528,
            "duration": 0.10495391666660225
        },
        {
            "name": "E3",
            "midi": 52,
            "time": 272.3104334999893,
            "velocity": 0.4566929133858268,
            "duration": 0.10495391666660225
        },
        {
            "name": "G2",
            "midi": 43,
            "time": 272.40039399998926,
            "velocity": 0.5196850393700787,
            "duration": 0.10495391666660225
        },
        {
            "name": "E3",
            "midi": 52,
            "time": 272.4903544999892,
            "velocity": 0.44881889763779526,
            "duration": 0.10495391666660225
        },
        {
            "name": "A2",
            "midi": 45,
            "time": 272.5803149999892,
            "velocity": 0.4881889763779528,
            "duration": 0.10495391666660225
        },
        {
            "name": "E3",
            "midi": 52,
            "time": 272.67027549998915,
            "velocity": 0.4566929133858268,
            "duration": 0.10495391666660225
        },
        {
            "name": "F#2",
            "midi": 42,
            "time": 272.7602359999891,
            "velocity": 0.5196850393700787,
            "duration": 0.10495391666660225
        },
        {
            "name": "D3",
            "midi": 50,
            "time": 272.85019649998907,
            "velocity": 0.4251968503937008,
            "duration": 0.10495391666660225
        },
        {
            "name": "A2",
            "midi": 45,
            "time": 272.94015699998903,
            "velocity": 0.4881889763779528,
            "duration": 0.10495391666660225
        },
        {
            "name": "D3",
            "midi": 50,
            "time": 273.030117499989,
            "velocity": 0.4409448818897638,
            "duration": 0.10495391666660225
        },
        {
            "name": "F#2",
            "midi": 42,
            "time": 273.12007799998895,
            "velocity": 0.5196850393700787,
            "duration": 0.10495391666660225
        },
        {
            "name": "D3",
            "midi": 50,
            "time": 273.2100384999889,
            "velocity": 0.4251968503937008,
            "duration": 0.10495391666660225
        },
        {
            "name": "A2",
            "midi": 45,
            "time": 273.2999989999889,
            "velocity": 0.4881889763779528,
            "duration": 0.10495391666660225
        },
        {
            "name": "D3",
            "midi": 50,
            "time": 273.38995949998883,
            "velocity": 0.4251968503937008,
            "duration": 0.10495391666660225
        },
        {
            "name": "F#2",
            "midi": 42,
            "time": 273.4799199999888,
            "velocity": 0.5196850393700787,
            "duration": 0.08921082916663181
        },
        {
            "name": "D#3",
            "midi": 51,
            "time": 273.56988049998876,
            "velocity": 0.4409448818897638,
            "duration": 0.08921082916668865
        },
        {
            "name": "G#2",
            "midi": 44,
            "time": 273.6598409999888,
            "velocity": 0.47244094488188976,
            "duration": 0.08921082916668865
        },
        {
            "name": "D#3",
            "midi": 51,
            "time": 273.7498014999888,
            "velocity": 0.47244094488188976,
            "duration": 0.08921082916668865
        },
        {
            "name": "E2",
            "midi": 40,
            "time": 273.8397619999888,
            "velocity": 0.5196850393700787,
            "duration": 0.1049539166666591
        },
        {
            "name": "C#3",
            "midi": 49,
            "time": 273.9297224999888,
            "velocity": 0.4409448818897638,
            "duration": 0.10495391666660225
        },
        {
            "name": "G#2",
            "midi": 44,
            "time": 274.0196829999888,
            "velocity": 0.48031496062992124,
            "duration": 0.10495391666660225
        },
        {
            "name": "C#3",
            "midi": 49,
            "time": 274.10964349998875,
            "velocity": 0.44881889763779526,
            "duration": 0.10495391666660225
        },
        {
            "name": "E2",
            "midi": 40,
            "time": 274.1996039999887,
            "velocity": 0.5196850393700787,
            "duration": 0.10495391666660225
        },
        {
            "name": "C#3",
            "midi": 49,
            "time": 274.28956449998867,
            "velocity": 0.4409448818897638,
            "duration": 0.10495391666660225
        },
        {
            "name": "G#2",
            "midi": 44,
            "time": 274.37952499998863,
            "velocity": 0.48031496062992124,
            "duration": 0.10495391666660225
        },
        {
            "name": "C#3",
            "midi": 49,
            "time": 274.4694854999886,
            "velocity": 0.4409448818897638,
            "duration": 0.10495391666660225
        },
        {
            "name": "E2",
            "midi": 40,
            "time": 274.55944599998855,
            "velocity": 0.5196850393700787,
            "duration": 0.10495391666660225
        },
        {
            "name": "C#3",
            "midi": 49,
            "time": 274.6494064999885,
            "velocity": 0.4409448818897638,
            "duration": 0.10495391666660225
        },
        {
            "name": "G#2",
            "midi": 44,
            "time": 274.7393669999885,
            "velocity": 0.48031496062992124,
            "duration": 0.10495391666660225
        },
        {
            "name": "C#3",
            "midi": 49,
            "time": 274.82932749998844,
            "velocity": 0.48031496062992124,
            "duration": 0.10495391666660225
        },
        {
            "name": "A2",
            "midi": 45,
            "time": 274.9192879999884,
            "velocity": 0.5039370078740157,
            "duration": 1.079525999999987
        },
        {
            "name": "F#3",
            "midi": 54,
            "time": 274.9192879999884,
            "velocity": 0.5905511811023622,
            "duration": 1.079525999999987
        },
        {
            "name": "D3",
            "midi": 50,
            "time": 274.9192879999884,
            "velocity": 0.5905511811023622,
            "duration": 1.079525999999987
        },
        {
            "name": "F#2",
            "midi": 42,
            "time": 274.9192879999884,
            "velocity": 0.5039370078740157,
            "duration": 1.079525999999987
        },
        {
            "name": "F#3",
            "midi": 54,
            "time": 276.3586559999884,
            "velocity": 0.33070866141732286,
            "duration": 0.3598419999999578
        },
        {
            "name": "D4",
            "midi": 62,
            "time": 276.3586559999884,
            "velocity": 0.3937007874015748,
            "duration": 0.35684331666664093
        },
        {
            "name": "A3",
            "midi": 57,
            "time": 276.3586559999884,
            "velocity": 0.33070866141732286,
            "duration": 0.3598419999999578
        },
        {
            "name": "A3",
            "midi": 57,
            "time": 277.0783399999884,
            "velocity": 0.3228346456692913,
            "duration": 0.35984200000001465
        },
        {
            "name": "D4",
            "midi": 62,
            "time": 277.0783399999884,
            "velocity": 0.3858267716535433,
            "duration": 0.35984200000001465
        },
        {
            "name": "F#3",
            "midi": 54,
            "time": 277.0783399999884,
            "velocity": 0.3228346456692913,
            "duration": 0.35984200000001465
        },
        {
            "name": "F#3",
            "midi": 54,
            "time": 277.7980239999884,
            "velocity": 0.3228346456692913,
            "duration": 0.35984200000001465
        },
        {
            "name": "A3",
            "midi": 57,
            "time": 277.7980239999884,
            "velocity": 0.3228346456692913,
            "duration": 0.35984200000001465
        },
        {
            "name": "D4",
            "midi": 62,
            "time": 277.7980239999884,
            "velocity": 0.3858267716535433,
            "duration": 0.35984200000001465
        },
        {
            "name": "D4",
            "midi": 62,
            "time": 278.1578659999884,
            "velocity": 0.4094488188976378,
            "duration": 0.35984200000001465
        },
        {
            "name": "A3",
            "midi": 57,
            "time": 278.1578659999884,
            "velocity": 0.3464566929133858,
            "duration": 0.35984200000001465
        },
        {
            "name": "F#3",
            "midi": 54,
            "time": 278.1578659999884,
            "velocity": 0.3464566929133858,
            "duration": 0.35984200000001465
        },
        {
            "name": "F#3",
            "midi": 54,
            "time": 278.51770799998843,
            "velocity": 0.4015748031496063,
            "duration": 0.35984200000001465
        },
        {
            "name": "D4",
            "midi": 62,
            "time": 278.51770799998843,
            "velocity": 0.47244094488188976,
            "duration": 0.35984200000001465
        },
        {
            "name": "A3",
            "midi": 57,
            "time": 278.51770799998843,
            "velocity": 0.4015748031496063,
            "duration": 0.35984200000001465
        },
        {
            "name": "F#3",
            "midi": 54,
            "time": 278.87754999998845,
            "velocity": 0.3700787401574803,
            "duration": 0.35984200000001465
        },
        {
            "name": "D4",
            "midi": 62,
            "time": 278.87754999998845,
            "velocity": 0.4409448818897638,
            "duration": 0.35984200000001465
        },
        {
            "name": "A3",
            "midi": 57,
            "time": 278.87754999998845,
            "velocity": 0.3700787401574803,
            "duration": 0.35984200000001465
        },
        {
            "name": "G#3",
            "midi": 56,
            "time": 279.23739199998846,
            "velocity": 0.3858267716535433,
            "duration": 0.1049539166666591
        },
        {
            "name": "E4",
            "midi": 64,
            "time": 279.3273524999885,
            "velocity": 0.3464566929133858,
            "duration": 0.10495391666660225
        },
        {
            "name": "C#4",
            "midi": 61,
            "time": 279.41731299998844,
            "velocity": 0.3700787401574803,
            "duration": 0.10495391666660225
        },
        {
            "name": "E4",
            "midi": 64,
            "time": 279.5072734999884,
            "velocity": 0.33858267716535434,
            "duration": 0.10495391666660225
        },
        {
            "name": "G#3",
            "midi": 56,
            "time": 279.59723399998836,
            "velocity": 0.4015748031496063,
            "duration": 0.10495391666660225
        },
        {
            "name": "E4",
            "midi": 64,
            "time": 279.6871944999883,
            "velocity": 0.33858267716535434,
            "duration": 0.10495391666660225
        },
        {
            "name": "C#4",
            "midi": 61,
            "time": 279.7771549999883,
            "velocity": 0.3700787401574803,
            "duration": 0.10495391666660225
        },
        {
            "name": "E4",
            "midi": 64,
            "time": 279.86711549998824,
            "velocity": 0.33070866141732286,
            "duration": 0.10495391666660225
        },
        {
            "name": "G#3",
            "midi": 56,
            "time": 279.9570759999882,
            "velocity": 0.4015748031496063,
            "duration": 0.08921082916663181
        },
        {
            "name": "F#4",
            "midi": 66,
            "time": 280.04703649998817,
            "velocity": 0.33858267716535434,
            "duration": 0.08921082916668865
        },
        {
            "name": "C4",
            "midi": 60,
            "time": 280.1369969999882,
            "velocity": 0.3700787401574803,
            "duration": 0.08921082916668865
        },
        {
            "name": "F#4",
            "midi": 66,
            "time": 280.2269574999882,
            "velocity": 0.33858267716535434,
            "duration": 0.08921082916668865
        },
        {
            "name": "G#3",
            "midi": 56,
            "time": 280.3169179999882,
            "velocity": 0.4015748031496063,
            "duration": 0.08921082916668865
        },
        {
            "name": "F#4",
            "midi": 66,
            "time": 280.40687849998824,
            "velocity": 0.3464566929133858,
            "duration": 0.08921082916668865
        },
        {
            "name": "C4",
            "midi": 60,
            "time": 280.49683899998826,
            "velocity": 0.3700787401574803,
            "duration": 0.08921082916668865
        },
        {
            "name": "F#4",
            "midi": 66,
            "time": 280.5867994999883,
            "velocity": 0.33070866141732286,
            "duration": 0.08921082916668865
        },
        {
            "name": "E4",
            "midi": 64,
            "time": 280.6767599999883,
            "velocity": 0.4409448818897638,
            "duration": 0.1799209999999789
        },
        {
            "name": "C#4",
            "midi": 61,
            "time": 280.6767599999883,
            "velocity": 0.4409448818897638,
            "duration": 0.1799209999999789
        },
        {
            "name": "A3",
            "midi": 57,
            "time": 280.6767599999883,
            "velocity": 0.4409448818897638,
            "duration": 0.1799209999999789
        },
        {
            "name": "F#1",
            "midi": 30,
            "time": 281.03660199998825,
            "velocity": 0.5275590551181102,
            "duration": 0.7196839999999725
        },
        {
            "name": "A1",
            "midi": 33,
            "time": 281.03660199998825,
            "velocity": 0.5275590551181102,
            "duration": 0.7196839999999725
        },
        {
            "name": "D2",
            "midi": 38,
            "time": 281.03660199998825,
            "velocity": 0.6299212598425197,
            "duration": 0.7196839999999725
        },
        {
            "name": "F#2",
            "midi": 42,
            "time": 281.03660199998825,
            "velocity": 0.6299212598425197,
            "duration": 0.7196839999999725
        },
        {
            "name": "D3",
            "midi": 50,
            "time": 282.4759699999882,
            "velocity": 0.3858267716535433,
            "duration": 0.35984200000001465
        },
        {
            "name": "A2",
            "midi": 45,
            "time": 282.4759699999882,
            "velocity": 0.3228346456692913,
            "duration": 0.35984200000001465
        },
        {
            "name": "F#2",
            "midi": 42,
            "time": 282.4759699999882,
            "velocity": 0.3228346456692913,
            "duration": 0.35984200000001465
        },
        {
            "name": "D3",
            "midi": 50,
            "time": 283.1956539999882,
            "velocity": 0.3858267716535433,
            "duration": 0.35984200000001465
        },
        {
            "name": "F#2",
            "midi": 42,
            "time": 283.1956539999882,
            "velocity": 0.3228346456692913,
            "duration": 0.35984200000001465
        },
        {
            "name": "A2",
            "midi": 45,
            "time": 283.1956539999882,
            "velocity": 0.3228346456692913,
            "duration": 0.35984200000001465
        },
        {
            "name": "D3",
            "midi": 50,
            "time": 283.7354169999882,
            "velocity": 0.4015748031496063,
            "duration": 0.1799209999999789
        },
        {
            "name": "A2",
            "midi": 45,
            "time": 283.7354169999882,
            "velocity": 0.33858267716535434,
            "duration": 0.1799209999999789
        },
        {
            "name": "F#2",
            "midi": 42,
            "time": 283.7354169999882,
            "velocity": 0.33858267716535434,
            "duration": 0.1799209999999789
        },
        {
            "name": "D3",
            "midi": 50,
            "time": 284.0952589999882,
            "velocity": 0.48031496062992124,
            "duration": 0.1799209999999789
        },
        {
            "name": "A2",
            "midi": 45,
            "time": 284.0952589999882,
            "velocity": 0.4015748031496063,
            "duration": 0.1799209999999789
        },
        {
            "name": "F#2",
            "midi": 42,
            "time": 284.0952589999882,
            "velocity": 0.4015748031496063,
            "duration": 0.1799209999999789
        },
        {
            "name": "A2",
            "midi": 45,
            "time": 284.45510099998813,
            "velocity": 0.44881889763779526,
            "duration": 0.1799209999999789
        },
        {
            "name": "D3",
            "midi": 50,
            "time": 284.45510099998813,
            "velocity": 0.5354330708661418,
            "duration": 0.1799209999999789
        },
        {
            "name": "F#2",
            "midi": 42,
            "time": 284.45510099998813,
            "velocity": 0.44881889763779526,
            "duration": 0.1799209999999789
        },
        {
            "name": "F#2",
            "midi": 42,
            "time": 284.8149429999881,
            "velocity": 0.44881889763779526,
            "duration": 0.1799209999999789
        },
        {
            "name": "D3",
            "midi": 50,
            "time": 284.8149429999881,
            "velocity": 0.5354330708661418,
            "duration": 0.1799209999999789
        },
        {
            "name": "A2",
            "midi": 45,
            "time": 284.8149429999881,
            "velocity": 0.44881889763779526,
            "duration": 0.1799209999999789
        },
        {
            "name": "F#2",
            "midi": 42,
            "time": 284.99486399998807,
            "velocity": 0.5196850393700787,
            "duration": 0.08921082916668865
        },
        {
            "name": "D3",
            "midi": 50,
            "time": 285.0848244999881,
            "velocity": 0.4409448818897638,
            "duration": 0.08921082916668865
        },
        {
            "name": "A2",
            "midi": 45,
            "time": 285.1747849999881,
            "velocity": 0.4881889763779528,
            "duration": 0.08921082916668865
        },
        {
            "name": "D3",
            "midi": 50,
            "time": 285.2647454999881,
            "velocity": 0.4409448818897638,
            "duration": 0.08921082916668865
        },
        {
            "name": "F#2",
            "midi": 42,
            "time": 285.35470599998814,
            "velocity": 0.5196850393700787,
            "duration": 0.08921082916668865
        },
        {
            "name": "D3",
            "midi": 50,
            "time": 285.44466649998816,
            "velocity": 0.4409448818897638,
            "duration": 0.08921082916668865
        },
        {
            "name": "A2",
            "midi": 45,
            "time": 285.5346269999882,
            "velocity": 0.48031496062992124,
            "duration": 0.08921082916668865
        },
        {
            "name": "D3",
            "midi": 50,
            "time": 285.6245874999882,
            "velocity": 0.4251968503937008,
            "duration": 0.08921082916668865
        },
        {
            "name": "G2",
            "midi": 43,
            "time": 285.7145479999882,
            "velocity": 0.5196850393700787,
            "duration": 0.08921082916668865
        },
        {
            "name": "E3",
            "midi": 52,
            "time": 285.80450849998823,
            "velocity": 0.4409448818897638,
            "duration": 0.08921082916668865
        },
        {
            "name": "A#2",
            "midi": 46,
            "time": 285.89446899998825,
            "velocity": 0.4881889763779528,
            "duration": 0.08921082916668865
        },
        {
            "name": "E3",
            "midi": 52,
            "time": 285.98442949998827,
            "velocity": 0.4409448818897638,
            "duration": 0.08921082916668865
        },
        {
            "name": "G2",
            "midi": 43,
            "time": 286.0743899999883,
            "velocity": 0.5196850393700787,
            "duration": 0.08921082916668865
        },
        {
            "name": "E3",
            "midi": 52,
            "time": 286.1643504999883,
            "velocity": 0.4251968503937008,
            "duration": 0.08921082916668865
        },
        {
            "name": "A#2",
            "midi": 46,
            "time": 286.2543109999883,
            "velocity": 0.47244094488188976,
            "duration": 0.08921082916668865
        },
        {
            "name": "E3",
            "midi": 52,
            "time": 286.34427149998834,
            "velocity": 0.4251968503937008,
            "duration": 0.08921082916668865
        },
        {
            "name": "G#2",
            "midi": 44,
            "time": 286.43423199998836,
            "velocity": 0.5196850393700787,
            "duration": 0.08921082916668865
        },
        {
            "name": "E3",
            "midi": 52,
            "time": 286.5241924999884,
            "velocity": 0.4566929133858268,
            "duration": 0.08921082916668865
        },
        {
            "name": "C#3",
            "midi": 49,
            "time": 286.6141529999884,
            "velocity": 0.4881889763779528,
            "duration": 0.08921082916668865
        },
        {
            "name": "E3",
            "midi": 52,
            "time": 286.7041134999884,
            "velocity": 0.4409448818897638,
            "duration": 0.08921082916668865
        },
        {
            "name": "G#2",
            "midi": 44,
            "time": 286.7940739999884,
            "velocity": 0.5196850393700787,
            "duration": 0.08921082916668865
        },
        {
            "name": "E3",
            "midi": 52,
            "time": 286.88403449998845,
            "velocity": 0.4409448818897638,
            "duration": 0.08921082916668865
        },
        {
            "name": "C#3",
            "midi": 49,
            "time": 286.97399499998846,
            "velocity": 0.4881889763779528,
            "duration": 0.08921082916668865
        },
        {
            "name": "E3",
            "midi": 52,
            "time": 287.0639554999885,
            "velocity": 0.44881889763779526,
            "duration": 0.08921082916668865
        },
        {
            "name": "G#1",
            "midi": 32,
            "time": 287.1539159999885,
            "velocity": 0.5196850393700787,
            "duration": 0.08921082916668865
        },
        {
            "name": "G#2",
            "midi": 44,
            "time": 287.2438764999885,
            "velocity": 0.44881889763779526,
            "duration": 0.08921082916668865
        },
        {
            "name": "G2",
            "midi": 43,
            "time": 287.33383699998853,
            "velocity": 0.4881889763779528,
            "duration": 0.08921082916668865
        },
        {
            "name": "G#2",
            "midi": 44,
            "time": 287.42379749998855,
            "velocity": 0.44881889763779526,
            "duration": 0.08921082916668865
        },
        {
            "name": "G2",
            "midi": 43,
            "time": 287.51375799998857,
            "velocity": 0.5196850393700787,
            "duration": 0.08921082916668865
        },
        {
            "name": "G#2",
            "midi": 44,
            "time": 287.6037184999886,
            "velocity": 0.44881889763779526,
            "duration": 0.08921082916668865
        },
        {
            "name": "G2",
            "midi": 43,
            "time": 287.6936789999886,
            "velocity": 0.4881889763779528,
            "duration": 0.08921082916668865
        },
        {
            "name": "G#2",
            "midi": 44,
            "time": 287.7836394999886,
            "velocity": 0.4566929133858268,
            "duration": 0.08921082916668865
        },
        {
            "name": "C#2",
            "midi": 37,
            "time": 287.87359999998864,
            "velocity": 0.4645669291338583,
            "duration": 0.1799209999999789
        },
        {
            "name": "C#3",
            "midi": 49,
            "time": 287.87359999998864,
            "velocity": 0.4645669291338583,
            "duration": 0.1799209999999789
        },
        {
            "name": "E3",
            "midi": 52,
            "time": 287.87359999998864,
            "velocity": 0.4645669291338583,
            "duration": 0.1799209999999789
        },
        {
            "name": "C#4",
            "midi": 61,
            "time": 287.87359999998864,
            "velocity": 0.4645669291338583,
            "duration": 0.1799209999999789
        },
        {
            "name": "C#3",
            "midi": 49,
            "time": 288.0535209999886,
            "velocity": 0.31496062992125984,
            "duration": 0.08996050000001787
        },
        {
            "name": "C#3",
            "midi": 49,
            "time": 288.23344199998866,
            "velocity": 0.31496062992125984,
            "duration": 0.08996050000001787
        },
        {
            "name": "C#3",
            "midi": 49,
            "time": 288.4133629999887,
            "velocity": 0.31496062992125984,
            "duration": 0.08996050000001787
        },
        {
            "name": "C#3",
            "midi": 49,
            "time": 288.5932839999887,
            "velocity": 0.31496062992125984,
            "duration": 0.08996050000001787
        },
        {
            "name": "C#3",
            "midi": 49,
            "time": 288.77320499998876,
            "velocity": 0.31496062992125984,
            "duration": 0.08996050000001787
        },
        {
            "name": "D#3",
            "midi": 51,
            "time": 288.9531259999888,
            "velocity": 0.30708661417322836,
            "duration": 0.08996050000001787
        },
        {
            "name": "E3",
            "midi": 52,
            "time": 289.13304699998884,
            "velocity": 0.30708661417322836,
            "duration": 0.08996050000001787
        },
        {
            "name": "G#2",
            "midi": 44,
            "time": 289.31296799998887,
            "velocity": 0.3543307086614173,
            "duration": 0.1799209999999789
        },
        {
            "name": "F#3",
            "midi": 54,
            "time": 289.31296799998887,
            "velocity": 0.3543307086614173,
            "duration": 0.1799209999999789
        },
        {
            "name": "G#3",
            "midi": 56,
            "time": 289.49288899998885,
            "velocity": 0.30708661417322836,
            "duration": 0.08996050000001787
        },
        {
            "name": "F#3",
            "midi": 54,
            "time": 289.49288899998885,
            "velocity": 0.30708661417322836,
            "duration": 0.08996050000001787
        },
        {
            "name": "G#3",
            "midi": 56,
            "time": 289.6728099999889,
            "velocity": 0.30708661417322836,
            "duration": 0.08996050000001787
        },
        {
            "name": "F#3",
            "midi": 54,
            "time": 289.6728099999889,
            "velocity": 0.30708661417322836,
            "duration": 0.08996050000001787
        },
        {
            "name": "G#3",
            "midi": 56,
            "time": 289.8527309999889,
            "velocity": 0.30708661417322836,
            "duration": 0.08996050000001787
        },
        {
            "name": "F#3",
            "midi": 54,
            "time": 289.8527309999889,
            "velocity": 0.30708661417322836,
            "duration": 0.08996050000001787
        },
        {
            "name": "F#3",
            "midi": 54,
            "time": 290.03265199998896,
            "velocity": 0.30708661417322836,
            "duration": 0.08996050000001787
        },
        {
            "name": "G#3",
            "midi": 56,
            "time": 290.03265199998896,
            "velocity": 0.30708661417322836,
            "duration": 0.08996050000001787
        },
        {
            "name": "F#3",
            "midi": 54,
            "time": 290.212572999989,
            "velocity": 0.30708661417322836,
            "duration": 0.08996050000001787
        },
        {
            "name": "G#3",
            "midi": 56,
            "time": 290.212572999989,
            "velocity": 0.30708661417322836,
            "duration": 0.08996050000001787
        },
        {
            "name": "G#3",
            "midi": 56,
            "time": 290.39249399998903,
            "velocity": 0.30708661417322836,
            "duration": 0.08996050000001787
        },
        {
            "name": "E3",
            "midi": 52,
            "time": 290.39249399998903,
            "velocity": 0.30708661417322836,
            "duration": 0.08996050000001787
        },
        {
            "name": "D#3",
            "midi": 51,
            "time": 290.57241499998906,
            "velocity": 0.33070866141732286,
            "duration": 0.08996050000001787
        },
        {
            "name": "G#3",
            "midi": 56,
            "time": 290.57241499998906,
            "velocity": 0.33070866141732286,
            "duration": 0.08996050000001787
        },
        {
            "name": "C#3",
            "midi": 49,
            "time": 290.7523359999891,
            "velocity": 0.3543307086614173,
            "duration": 0.1799209999999789
        },
        {
            "name": "C#2",
            "midi": 37,
            "time": 290.7523359999891,
            "velocity": 0.3543307086614173,
            "duration": 0.1799209999999789
        },
        {
            "name": "C#3",
            "midi": 49,
            "time": 290.9322569999891,
            "velocity": 0.30708661417322836,
            "duration": 0.08996050000001787
        },
        {
            "name": "C#3",
            "midi": 49,
            "time": 291.1121779999891,
            "velocity": 0.30708661417322836,
            "duration": 0.08996050000001787
        },
        {
            "name": "C#3",
            "midi": 49,
            "time": 291.29209899998915,
            "velocity": 0.30708661417322836,
            "duration": 0.08996050000001787
        },
        {
            "name": "C#3",
            "midi": 49,
            "time": 291.4720199999892,
            "velocity": 0.30708661417322836,
            "duration": 0.08996050000001787
        },
        {
            "name": "C#3",
            "midi": 49,
            "time": 291.6519409999892,
            "velocity": 0.31496062992125984,
            "duration": 0.08996050000001787
        },
        {
            "name": "D#3",
            "midi": 51,
            "time": 291.83186199998926,
            "velocity": 0.30708661417322836,
            "duration": 0.08996050000001787
        },
        {
            "name": "E3",
            "midi": 52,
            "time": 292.0117829999893,
            "velocity": 0.30708661417322836,
            "duration": 0.08996050000001787
        },
        {
            "name": "F#3",
            "midi": 54,
            "time": 292.19170399998933,
            "velocity": 0.3700787401574803,
            "duration": 0.1799209999999789
        },
        {
            "name": "G#2",
            "midi": 44,
            "time": 292.19170399998933,
            "velocity": 0.3700787401574803,
            "duration": 0.1799209999999789
        },
        {
            "name": "G#3",
            "midi": 56,
            "time": 292.3716249999893,
            "velocity": 0.30708661417322836,
            "duration": 0.08996050000001787
        },
        {
            "name": "F#3",
            "midi": 54,
            "time": 292.3716249999893,
            "velocity": 0.30708661417322836,
            "duration": 0.08996050000001787
        },
        {
            "name": "F#3",
            "midi": 54,
            "time": 292.55154599998934,
            "velocity": 0.30708661417322836,
            "duration": 0.08996050000001787
        },
        {
            "name": "G#3",
            "midi": 56,
            "time": 292.55154599998934,
            "velocity": 0.30708661417322836,
            "duration": 0.08996050000001787
        },
        {
            "name": "F#3",
            "midi": 54,
            "time": 292.7314669999894,
            "velocity": 0.30708661417322836,
            "duration": 0.08996050000001787
        },
        {
            "name": "G#3",
            "midi": 56,
            "time": 292.7314669999894,
            "velocity": 0.30708661417322836,
            "duration": 0.08996050000001787
        },
        {
            "name": "F#3",
            "midi": 54,
            "time": 292.9113879999894,
            "velocity": 0.30708661417322836,
            "duration": 0.08996050000001787
        },
        {
            "name": "G#3",
            "midi": 56,
            "time": 292.9113879999894,
            "velocity": 0.30708661417322836,
            "duration": 0.08996050000001787
        },
        {
            "name": "F#3",
            "midi": 54,
            "time": 293.09130899998945,
            "velocity": 0.30708661417322836,
            "duration": 0.08996050000001787
        },
        {
            "name": "G#3",
            "midi": 56,
            "time": 293.09130899998945,
            "velocity": 0.30708661417322836,
            "duration": 0.08996050000001787
        },
        {
            "name": "E3",
            "midi": 52,
            "time": 293.2712299999895,
            "velocity": 0.3228346456692913,
            "duration": 0.08996050000001787
        },
        {
            "name": "G#3",
            "midi": 56,
            "time": 293.2712299999895,
            "velocity": 0.3228346456692913,
            "duration": 0.08996050000001787
        },
        {
            "name": "D#3",
            "midi": 51,
            "time": 293.4511509999895,
            "velocity": 0.33858267716535434,
            "duration": 0.08996050000001787
        },
        {
            "name": "G#3",
            "midi": 56,
            "time": 293.4511509999895,
            "velocity": 0.33858267716535434,
            "duration": 0.08996050000001787
        },
        {
            "name": "C#3",
            "midi": 49,
            "time": 293.63107199998956,
            "velocity": 0.3700787401574803,
            "duration": 0.08996050000001787
        },
        {
            "name": "C#2",
            "midi": 37,
            "time": 293.63107199998956,
            "velocity": 0.33070866141732286,
            "duration": 0.08996050000001787
        },
        {
            "name": "C#3",
            "midi": 49,
            "time": 293.8109929999896,
            "velocity": 0.31496062992125984,
            "duration": 0.08996050000001787
        },
        {
            "name": "E3",
            "midi": 52,
            "time": 293.8109929999896,
            "velocity": 0.31496062992125984,
            "duration": 0.08996050000001787
        },
        {
            "name": "E3",
            "midi": 52,
            "time": 293.99091399998963,
            "velocity": 0.31496062992125984,
            "duration": 0.1799209999999789
        },
        {
            "name": "C#3",
            "midi": 49,
            "time": 293.99091399998963,
            "velocity": 0.31496062992125984,
            "duration": 0.1799209999999789
        },
        {
            "name": "G#3",
            "midi": 56,
            "time": 294.1708349999896,
            "velocity": 0.30708661417322836,
            "duration": 0.1799209999999789
        },
        {
            "name": "E3",
            "midi": 52,
            "time": 294.1708349999896,
            "velocity": 0.30708661417322836,
            "duration": 0.1799209999999789
        },
        {
            "name": "F#2",
            "midi": 42,
            "time": 294.3507559999896,
            "velocity": 0.3779527559055118,
            "duration": 0.08996050000001787
        },
        {
            "name": "C#3",
            "midi": 49,
            "time": 294.5306769999896,
            "velocity": 0.31496062992125984,
            "duration": 0.08996050000001787
        },
        {
            "name": "F#3",
            "midi": 54,
            "time": 294.5306769999896,
            "velocity": 0.31496062992125984,
            "duration": 0.08996050000001787
        },
        {
            "name": "F#3",
            "midi": 54,
            "time": 294.71059799998966,
            "velocity": 0.31496062992125984,
            "duration": 0.1799209999999789
        },
        {
            "name": "C#3",
            "midi": 49,
            "time": 294.71059799998966,
            "velocity": 0.31496062992125984,
            "duration": 0.1799209999999789
        },
        {
            "name": "A3",
            "midi": 57,
            "time": 294.89051899998964,
            "velocity": 0.30708661417322836,
            "duration": 0.1799209999999789
        },
        {
            "name": "F#3",
            "midi": 54,
            "time": 294.89051899998964,
            "velocity": 0.30708661417322836,
            "duration": 0.1799209999999789
        },
        {
            "name": "G#2",
            "midi": 44,
            "time": 295.0704399999896,
            "velocity": 0.3779527559055118,
            "duration": 0.08996050000001787
        },
        {
            "name": "E3",
            "midi": 52,
            "time": 295.25036099998965,
            "velocity": 0.30708661417322836,
            "duration": 0.08996050000001787
        },
        {
            "name": "C#3",
            "midi": 49,
            "time": 295.25036099998965,
            "velocity": 0.30708661417322836,
            "duration": 0.08996050000001787
        },
        {
            "name": "C#3",
            "midi": 49,
            "time": 295.4302819999897,
            "velocity": 0.30708661417322836,
            "duration": 0.1799209999999789
        },
        {
            "name": "E3",
            "midi": 52,
            "time": 295.4302819999897,
            "velocity": 0.30708661417322836,
            "duration": 0.1799209999999789
        },
        {
            "name": "E3",
            "midi": 52,
            "time": 295.61020299998967,
            "velocity": 0.30708661417322836,
            "duration": 0.1799209999999789
        },
        {
            "name": "G#3",
            "midi": 56,
            "time": 295.61020299998967,
            "velocity": 0.30708661417322836,
            "duration": 0.1799209999999789
        },
        {
            "name": "G#2",
            "midi": 44,
            "time": 295.79012399998965,
            "velocity": 0.3779527559055118,
            "duration": 0.08996050000001787
        },
        {
            "name": "D#3",
            "midi": 51,
            "time": 295.9700449999897,
            "velocity": 0.30708661417322836,
            "duration": 0.08996050000001787
        },
        {
            "name": "C3",
            "midi": 48,
            "time": 295.9700449999897,
            "velocity": 0.30708661417322836,
            "duration": 0.08996050000001787
        },
        {
            "name": "C3",
            "midi": 48,
            "time": 296.1499659999897,
            "velocity": 0.30708661417322836,
            "duration": 0.1799209999999789
        },
        {
            "name": "D#3",
            "midi": 51,
            "time": 296.1499659999897,
            "velocity": 0.30708661417322836,
            "duration": 0.1799209999999789
        },
        {
            "name": "G#3",
            "midi": 56,
            "time": 296.3298869999897,
            "velocity": 0.2992125984251969,
            "duration": 0.1799209999999789
        },
        {
            "name": "D#3",
            "midi": 51,
            "time": 296.3298869999897,
            "velocity": 0.2992125984251969,
            "duration": 0.1799209999999789
        },
        {
            "name": "C#3",
            "midi": 49,
            "time": 296.5098079999897,
            "velocity": 0.3858267716535433,
            "duration": 0.1799209999999789
        },
        {
            "name": "C#2",
            "midi": 37,
            "time": 296.5098079999897,
            "velocity": 0.3858267716535433,
            "duration": 0.1799209999999789
        },
        {
            "name": "C#3",
            "midi": 49,
            "time": 296.68972899998965,
            "velocity": 0.30708661417322836,
            "duration": 0.08996050000001787
        },
        {
            "name": "G#3",
            "midi": 56,
            "time": 296.68972899998965,
            "velocity": 0.30708661417322836,
            "duration": 0.08996050000001787
        },
        {
            "name": "G#3",
            "midi": 56,
            "time": 296.8696499999897,
            "velocity": 0.33070866141732286,
            "duration": 0.08996050000001787
        },
        {
            "name": "C#3",
            "midi": 49,
            "time": 296.8696499999897,
            "velocity": 0.33070866141732286,
            "duration": 0.08996050000001787
        },
        {
            "name": "G#3",
            "midi": 56,
            "time": 297.0495709999897,
            "velocity": 0.3228346456692913,
            "duration": 0.08996050000001787
        },
        {
            "name": "C#3",
            "midi": 49,
            "time": 297.0495709999897,
            "velocity": 0.3228346456692913,
            "duration": 0.08996050000001787
        },
        {
            "name": "C#3",
            "midi": 49,
            "time": 297.22949199998976,
            "velocity": 0.30708661417322836,
            "duration": 0.08996050000001787
        },
        {
            "name": "G#3",
            "midi": 56,
            "time": 297.22949199998976,
            "velocity": 0.30708661417322836,
            "duration": 0.08996050000001787
        },
        {
            "name": "C#3",
            "midi": 49,
            "time": 297.4094129999898,
            "velocity": 0.30708661417322836,
            "duration": 0.08996050000001787
        },
        {
            "name": "G#3",
            "midi": 56,
            "time": 297.4094129999898,
            "velocity": 0.30708661417322836,
            "duration": 0.08996050000001787
        },
        {
            "name": "G#3",
            "midi": 56,
            "time": 297.58933399998983,
            "velocity": 0.3228346456692913,
            "duration": 0.08996050000001787
        },
        {
            "name": "D#3",
            "midi": 51,
            "time": 297.58933399998983,
            "velocity": 0.3228346456692913,
            "duration": 0.08996050000001787
        },
        {
            "name": "G#3",
            "midi": 56,
            "time": 297.76925499998987,
            "velocity": 0.3464566929133858,
            "duration": 0.08996050000001787
        },
        {
            "name": "E3",
            "midi": 52,
            "time": 297.76925499998987,
            "velocity": 0.3464566929133858,
            "duration": 0.08996050000001787
        },
        {
            "name": "G#2",
            "midi": 44,
            "time": 297.9491759999899,
            "velocity": 0.3700787401574803,
            "duration": 0.1799209999999789
        },
        {
            "name": "G#3",
            "midi": 56,
            "time": 297.9491759999899,
            "velocity": 0.3700787401574803,
            "duration": 0.1799209999999789
        },
        {
            "name": "F#3",
            "midi": 54,
            "time": 297.9491759999899,
            "velocity": 0.3700787401574803,
            "duration": 0.1799209999999789
        },
        {
            "name": "F#4",
            "midi": 66,
            "time": 298.1290969999899,
            "velocity": 0.4566929133858268,
            "duration": 0.08996050000001787
        },
        {
            "name": "G#3",
            "midi": 56,
            "time": 298.1290969999899,
            "velocity": 0.4566929133858268,
            "duration": 0.08996050000001787
        },
        {
            "name": "F#4",
            "midi": 66,
            "time": 298.3090179999899,
            "velocity": 0.5354330708661418,
            "duration": 0.08996050000001787
        },
        {
            "name": "G#3",
            "midi": 56,
            "time": 298.3090179999899,
            "velocity": 0.5354330708661418,
            "duration": 0.08996050000001787
        },
        {
            "name": "G#3",
            "midi": 56,
            "time": 298.48893899998995,
            "velocity": 0.4881889763779528,
            "duration": 0.08996050000001787
        },
        {
            "name": "F#4",
            "midi": 66,
            "time": 298.48893899998995,
            "velocity": 0.4881889763779528,
            "duration": 0.08996050000001787
        },
        {
            "name": "G#3",
            "midi": 56,
            "time": 298.66885999999,
            "velocity": 0.5354330708661418,
            "duration": 0.08996050000001787
        },
        {
            "name": "F#4",
            "midi": 66,
            "time": 298.66885999999,
            "velocity": 0.5354330708661418,
            "duration": 0.08996050000001787
        },
        {
            "name": "F#4",
            "midi": 66,
            "time": 298.84878099999,
            "velocity": 0.4881889763779528,
            "duration": 0.08996050000001787
        },
        {
            "name": "G#3",
            "midi": 56,
            "time": 298.84878099999,
            "velocity": 0.4881889763779528,
            "duration": 0.08996050000001787
        },
        {
            "name": "G#3",
            "midi": 56,
            "time": 299.02870199999006,
            "velocity": 0.5354330708661418,
            "duration": 0.08996050000001787
        },
        {
            "name": "E4",
            "midi": 64,
            "time": 299.02870199999006,
            "velocity": 0.5354330708661418,
            "duration": 0.08996050000001787
        },
        {
            "name": "D#4",
            "midi": 63,
            "time": 299.2086229999901,
            "velocity": 0.4881889763779528,
            "duration": 0.08996050000001787
        },
        {
            "name": "G#3",
            "midi": 56,
            "time": 299.2086229999901,
            "velocity": 0.4881889763779528,
            "duration": 0.08996050000001787
        },
        {
            "name": "C#2",
            "midi": 37,
            "time": 299.38854399999013,
            "velocity": 0.5354330708661418,
            "duration": 0.1799209999999789
        },
        {
            "name": "C#3",
            "midi": 49,
            "time": 299.38854399999013,
            "velocity": 0.5354330708661418,
            "duration": 0.1799209999999789
        },
        {
            "name": "G#3",
            "midi": 56,
            "time": 299.5684649999901,
            "velocity": 0.30708661417322836,
            "duration": 0.08996050000001787
        },
        {
            "name": "C#3",
            "midi": 49,
            "time": 299.5684649999901,
            "velocity": 0.30708661417322836,
            "duration": 0.08996050000001787
        },
        {
            "name": "G#3",
            "midi": 56,
            "time": 299.74838599999015,
            "velocity": 0.30708661417322836,
            "duration": 0.08996050000001787
        },
        {
            "name": "C#3",
            "midi": 49,
            "time": 299.74838599999015,
            "velocity": 0.30708661417322836,
            "duration": 0.08996050000001787
        },
        {
            "name": "G#3",
            "midi": 56,
            "time": 299.9283069999902,
            "velocity": 0.30708661417322836,
            "duration": 0.08996050000001787
        },
        {
            "name": "C#3",
            "midi": 49,
            "time": 299.9283069999902,
            "velocity": 0.30708661417322836,
            "duration": 0.08996050000001787
        },
        {
            "name": "C#3",
            "midi": 49,
            "time": 300.1082279999902,
            "velocity": 0.30708661417322836,
            "duration": 0.08996050000001787
        },
        {
            "name": "G#3",
            "midi": 56,
            "time": 300.1082279999902,
            "velocity": 0.30708661417322836,
            "duration": 0.08996050000001787
        },
        {
            "name": "C#3",
            "midi": 49,
            "time": 300.28814899999026,
            "velocity": 0.30708661417322836,
            "duration": 0.08996050000001787
        },
        {
            "name": "G#3",
            "midi": 56,
            "time": 300.28814899999026,
            "velocity": 0.30708661417322836,
            "duration": 0.08996050000001787
        },
        {
            "name": "D#3",
            "midi": 51,
            "time": 300.4680699999903,
            "velocity": 0.30708661417322836,
            "duration": 0.08996050000001787
        },
        {
            "name": "G#3",
            "midi": 56,
            "time": 300.4680699999903,
            "velocity": 0.30708661417322836,
            "duration": 0.08996050000001787
        },
        {
            "name": "G#3",
            "midi": 56,
            "time": 300.6479909999903,
            "velocity": 0.3228346456692913,
            "duration": 0.08996050000001787
        },
        {
            "name": "E3",
            "midi": 52,
            "time": 300.6479909999903,
            "velocity": 0.3228346456692913,
            "duration": 0.08996050000001787
        },
        {
            "name": "G#2",
            "midi": 44,
            "time": 300.82791199999036,
            "velocity": 0.3543307086614173,
            "duration": 0.1799209999999789
        },
        {
            "name": "G#3",
            "midi": 56,
            "time": 300.82791199999036,
            "velocity": 0.3543307086614173,
            "duration": 0.1799209999999789
        },
        {
            "name": "F#3",
            "midi": 54,
            "time": 300.82791199999036,
            "velocity": 0.3543307086614173,
            "duration": 0.1799209999999789
        },
        {
            "name": "F#4",
            "midi": 66,
            "time": 301.00783299999034,
            "velocity": 0.44881889763779526,
            "duration": 0.08996050000001787
        },
        {
            "name": "G#3",
            "midi": 56,
            "time": 301.00783299999034,
            "velocity": 0.44881889763779526,
            "duration": 0.08996050000001787
        },
        {
            "name": "G#3",
            "midi": 56,
            "time": 301.1877539999904,
            "velocity": 0.5354330708661418,
            "duration": 0.08996050000001787
        },
        {
            "name": "F#4",
            "midi": 66,
            "time": 301.1877539999904,
            "velocity": 0.5354330708661418,
            "duration": 0.08996050000001787
        },
        {
            "name": "F#4",
            "midi": 66,
            "time": 301.3676749999904,
            "velocity": 0.47244094488188976,
            "duration": 0.08996050000001787
        },
        {
            "name": "G#3",
            "midi": 56,
            "time": 301.3676749999904,
            "velocity": 0.47244094488188976,
            "duration": 0.08996050000001787
        },
        {
            "name": "G#3",
            "midi": 56,
            "time": 301.54759599999045,
            "velocity": 0.5354330708661418,
            "duration": 0.08996050000001787
        },
        {
            "name": "F#4",
            "midi": 66,
            "time": 301.54759599999045,
            "velocity": 0.5354330708661418,
            "duration": 0.08996050000001787
        },
        {
            "name": "F#4",
            "midi": 66,
            "time": 301.7275169999905,
            "velocity": 0.47244094488188976,
            "duration": 0.08996050000001787
        },
        {
            "name": "G#3",
            "midi": 56,
            "time": 301.7275169999905,
            "velocity": 0.47244094488188976,
            "duration": 0.08996050000001787
        },
        {
            "name": "E4",
            "midi": 64,
            "time": 301.9074379999905,
            "velocity": 0.5354330708661418,
            "duration": 0.08996050000001787
        },
        {
            "name": "G#3",
            "midi": 56,
            "time": 301.9074379999905,
            "velocity": 0.5354330708661418,
            "duration": 0.08996050000001787
        },
        {
            "name": "G#3",
            "midi": 56,
            "time": 302.08735899999056,
            "velocity": 0.4645669291338583,
            "duration": 0.08996050000001787
        },
        {
            "name": "D#4",
            "midi": 63,
            "time": 302.08735899999056,
            "velocity": 0.4645669291338583,
            "duration": 0.08996050000001787
        },
        {
            "name": "C#4",
            "midi": 61,
            "time": 302.2672799999906,
            "velocity": 0.5433070866141733,
            "duration": 0.1799209999999789
        },
        {
            "name": "C#3",
            "midi": 49,
            "time": 302.2672799999906,
            "velocity": 0.5433070866141733,
            "duration": 0.1799209999999789
        },
        {
            "name": "C#4",
            "midi": 61,
            "time": 302.44720099999057,
            "velocity": 0.33070866141732286,
            "duration": 0.08996050000001787
        },
        {
            "name": "E4",
            "midi": 64,
            "time": 302.44720099999057,
            "velocity": 0.33070866141732286,
            "duration": 0.08996050000001787
        },
        {
            "name": "E4",
            "midi": 64,
            "time": 302.6271219999906,
            "velocity": 0.33858267716535434,
            "duration": 0.1799209999999789
        },
        {
            "name": "C#4",
            "midi": 61,
            "time": 302.6271219999906,
            "velocity": 0.33858267716535434,
            "duration": 0.1799209999999789
        },
        {
            "name": "G#4",
            "midi": 68,
            "time": 302.8070429999906,
            "velocity": 0.30708661417322836,
            "duration": 0.1799209999999789
        },
        {
            "name": "E4",
            "midi": 64,
            "time": 302.8070429999906,
            "velocity": 0.30708661417322836,
            "duration": 0.1799209999999789
        },
        {
            "name": "F#3",
            "midi": 54,
            "time": 302.98696399999056,
            "velocity": 0.3779527559055118,
            "duration": 0.08996050000001787
        },
        {
            "name": "F#4",
            "midi": 66,
            "time": 303.1668849999906,
            "velocity": 0.31496062992125984,
            "duration": 0.08996050000001787
        },
        {
            "name": "C#4",
            "midi": 61,
            "time": 303.1668849999906,
            "velocity": 0.31496062992125984,
            "duration": 0.08996050000001787
        },
        {
            "name": "F#4",
            "midi": 66,
            "time": 303.34680599999064,
            "velocity": 0.33070866141732286,
            "duration": 0.1799209999999789
        },
        {
            "name": "C#4",
            "midi": 61,
            "time": 303.34680599999064,
            "velocity": 0.33070866141732286,
            "duration": 0.1799209999999789
        },
        {
            "name": "F#4",
            "midi": 66,
            "time": 303.5267269999906,
            "velocity": 0.30708661417322836,
            "duration": 0.1799209999999789
        },
        {
            "name": "A4",
            "midi": 69,
            "time": 303.5267269999906,
            "velocity": 0.30708661417322836,
            "duration": 0.1799209999999789
        },
        {
            "name": "G#3",
            "midi": 56,
            "time": 303.7066479999906,
            "velocity": 0.3700787401574803,
            "duration": 0.08996050000001787
        },
        {
            "name": "C#4",
            "midi": 61,
            "time": 303.88656899999063,
            "velocity": 0.33070866141732286,
            "duration": 0.08996050000001787
        },
        {
            "name": "E4",
            "midi": 64,
            "time": 303.88656899999063,
            "velocity": 0.33070866141732286,
            "duration": 0.08996050000001787
        },
        {
            "name": "E4",
            "midi": 64,
            "time": 304.06648999999067,
            "velocity": 0.33070866141732286,
            "duration": 0.1799209999999789
        },
        {
            "name": "C#4",
            "midi": 61,
            "time": 304.06648999999067,
            "velocity": 0.33070866141732286,
            "duration": 0.1799209999999789
        },
        {
            "name": "G#4",
            "midi": 68,
            "time": 304.24641099999064,
            "velocity": 0.30708661417322836,
            "duration": 0.1799209999999789
        },
        {
            "name": "E4",
            "midi": 64,
            "time": 304.24641099999064,
            "velocity": 0.30708661417322836,
            "duration": 0.1799209999999789
        },
        {
            "name": "F#3",
            "midi": 54,
            "time": 304.4263319999906,
            "velocity": 0.3700787401574803,
            "duration": 0.08996050000001787
        },
        {
            "name": "D#4",
            "midi": 63,
            "time": 304.60625299999066,
            "velocity": 0.33070866141732286,
            "duration": 0.08996050000001787
        },
        {
            "name": "C4",
            "midi": 60,
            "time": 304.60625299999066,
            "velocity": 0.33070866141732286,
            "duration": 0.08996050000001787
        },
        {
            "name": "D#4",
            "midi": 63,
            "time": 304.7861739999907,
            "velocity": 0.33070866141732286,
            "duration": 0.1799209999999789
        },
        {
            "name": "C4",
            "midi": 60,
            "time": 304.7861739999907,
            "velocity": 0.33070866141732286,
            "duration": 0.1799209999999789
        },
        {
            "name": "D#4",
            "midi": 63,
            "time": 304.9660949999907,
            "velocity": 0.31496062992125984,
            "duration": 0.1799209999999789
        },
        {
            "name": "G#4",
            "midi": 68,
            "time": 304.9660949999907,
            "velocity": 0.31496062992125984,
            "duration": 0.1799209999999789
        },
        {
            "name": "E3",
            "midi": 52,
            "time": 305.14601599999065,
            "velocity": 0.3700787401574803,
            "duration": 0.1799209999999789
        },
        {
            "name": "C#4",
            "midi": 61,
            "time": 305.32593699999063,
            "velocity": 0.33070866141732286,
            "duration": 0.08996050000001787
        },
        {
            "name": "G#3",
            "midi": 56,
            "time": 305.32593699999063,
            "velocity": 0.33070866141732286,
            "duration": 0.08996050000001787
        },
        {
            "name": "C#4",
            "midi": 61,
            "time": 305.50585799999067,
            "velocity": 0.33070866141732286,
            "duration": 0.1799209999999789
        },
        {
            "name": "G#3",
            "midi": 56,
            "time": 305.50585799999067,
            "velocity": 0.33070866141732286,
            "duration": 0.1799209999999789
        },
        {
            "name": "E4",
            "midi": 64,
            "time": 305.68577899999065,
            "velocity": 0.30708661417322836,
            "duration": 0.1799209999999789
        },
        {
            "name": "C#4",
            "midi": 61,
            "time": 305.68577899999065,
            "velocity": 0.30708661417322836,
            "duration": 0.1799209999999789
        },
        {
            "name": "F#2",
            "midi": 42,
            "time": 305.8656999999906,
            "velocity": 0.3700787401574803,
            "duration": 0.1799209999999789
        },
        {
            "name": "A3",
            "midi": 57,
            "time": 306.0456209999906,
            "velocity": 0.33858267716535434,
            "duration": 0.08996050000001787
        },
        {
            "name": "F#3",
            "midi": 54,
            "time": 306.0456209999906,
            "velocity": 0.33858267716535434,
            "duration": 0.08996050000001787
        },
        {
            "name": "F#3",
            "midi": 54,
            "time": 306.22554199999064,
            "velocity": 0.33858267716535434,
            "duration": 0.1799209999999789
        },
        {
            "name": "A3",
            "midi": 57,
            "time": 306.22554199999064,
            "velocity": 0.33858267716535434,
            "duration": 0.1799209999999789
        },
        {
            "name": "D4",
            "midi": 62,
            "time": 306.4054629999906,
            "velocity": 0.3228346456692913,
            "duration": 0.1799209999999789
        },
        {
            "name": "A3",
            "midi": 57,
            "time": 306.4054629999906,
            "velocity": 0.3228346456692913,
            "duration": 0.1799209999999789
        },
        {
            "name": "G#2",
            "midi": 44,
            "time": 306.5853839999906,
            "velocity": 0.3543307086614173,
            "duration": 0.1799209999999789
        },
        {
            "name": "G#3",
            "midi": 56,
            "time": 306.7653049999906,
            "velocity": 0.30708661417322836,
            "duration": 0.08996050000001787
        },
        {
            "name": "E3",
            "midi": 52,
            "time": 306.7653049999906,
            "velocity": 0.30708661417322836,
            "duration": 0.08996050000001787
        },
        {
            "name": "E3",
            "midi": 52,
            "time": 306.9452259999906,
            "velocity": 0.31496062992125984,
            "duration": 0.1799209999999789
        },
        {
            "name": "G#3",
            "midi": 56,
            "time": 306.9452259999906,
            "velocity": 0.31496062992125984,
            "duration": 0.1799209999999789
        },
        {
            "name": "G#3",
            "midi": 56,
            "time": 307.1251469999906,
            "velocity": 0.33070866141732286,
            "duration": 0.1799209999999789
        },
        {
            "name": "C#4",
            "midi": 61,
            "time": 307.1251469999906,
            "velocity": 0.33070866141732286,
            "duration": 0.1799209999999789
        },
        {
            "name": "G#2",
            "midi": 44,
            "time": 307.30506799999057,
            "velocity": 0.3779527559055118,
            "duration": 0.1799209999999789
        },
        {
            "name": "D#3",
            "midi": 51,
            "time": 307.48498899999055,
            "velocity": 0.30708661417322836,
            "duration": 0.08996050000001787
        },
        {
            "name": "F#3",
            "midi": 54,
            "time": 307.48498899999055,
            "velocity": 0.30708661417322836,
            "duration": 0.08996050000001787
        },
        {
            "name": "F#3",
            "midi": 54,
            "time": 307.6649099999906,
            "velocity": 0.30708661417322836,
            "duration": 0.1799209999999789
        },
        {
            "name": "D#3",
            "midi": 51,
            "time": 307.6649099999906,
            "velocity": 0.30708661417322836,
            "duration": 0.1799209999999789
        },
        {
            "name": "F#3",
            "midi": 54,
            "time": 307.84483099999056,
            "velocity": 0.30708661417322836,
            "duration": 0.1799209999999789
        },
        {
            "name": "C4",
            "midi": 60,
            "time": 307.84483099999056,
            "velocity": 0.30708661417322836,
            "duration": 0.1799209999999789
        },
        {
            "name": "C#2",
            "midi": 37,
            "time": 308.02475199999054,
            "velocity": 0.3858267716535433,
            "duration": 0.08921082916668865
        },
        {
            "name": "C#3",
            "midi": 49,
            "time": 308.11471249999056,
            "velocity": 0.2440944881889764,
            "duration": 0.08921082916668865
        },
        {
            "name": "G#2",
            "midi": 44,
            "time": 308.2046729999906,
            "velocity": 0.28346456692913385,
            "duration": 0.08921082916668865
        },
        {
            "name": "C#3",
            "midi": 49,
            "time": 308.2946334999906,
            "velocity": 0.25196850393700787,
            "duration": 0.08921082916668865
        },
        {
            "name": "C#2",
            "midi": 37,
            "time": 308.3845939999906,
            "velocity": 0.3228346456692913,
            "duration": 0.08921082916668865
        },
        {
            "name": "C#3",
            "midi": 49,
            "time": 308.47455449999063,
            "velocity": 0.25196850393700787,
            "duration": 0.08921082916668865
        },
        {
            "name": "G#2",
            "midi": 44,
            "time": 308.56451499999065,
            "velocity": 0.28346456692913385,
            "duration": 0.08921082916668865
        },
        {
            "name": "C#3",
            "midi": 49,
            "time": 308.65447549999067,
            "velocity": 0.25196850393700787,
            "duration": 0.08921082916668865
        },
        {
            "name": "C#2",
            "midi": 37,
            "time": 308.7444359999907,
            "velocity": 0.3228346456692913,
            "duration": 0.08921082916668865
        },
        {
            "name": "C#3",
            "midi": 49,
            "time": 308.8343964999907,
            "velocity": 0.25196850393700787,
            "duration": 0.08921082916668865
        },
        {
            "name": "G#2",
            "midi": 44,
            "time": 308.9243569999907,
            "velocity": 0.29133858267716534,
            "duration": 0.08921082916668865
        },
        {
            "name": "C#3",
            "midi": 49,
            "time": 309.01431749999074,
            "velocity": 0.29133858267716534,
            "duration": 0.08921082916668865
        },
        {
            "name": "C#2",
            "midi": 37,
            "time": 309.10427799999076,
            "velocity": 0.3228346456692913,
            "duration": 0.08921082916668865
        },
        {
            "name": "C#3",
            "midi": 49,
            "time": 309.1942384999908,
            "velocity": 0.25196850393700787,
            "duration": 0.08921082916668865
        },
        {
            "name": "G#2",
            "midi": 44,
            "time": 309.2841989999908,
            "velocity": 0.29133858267716534,
            "duration": 0.08921082916668865
        },
        {
            "name": "C#3",
            "midi": 49,
            "time": 309.3741594999908,
            "velocity": 0.25984251968503935,
            "duration": 0.08921082916668865
        },
        {
            "name": "C#2",
            "midi": 37,
            "time": 309.4641199999908,
            "velocity": 0.3228346456692913,
            "duration": 0.08921082916668865
        },
        {
            "name": "D#3",
            "midi": 51,
            "time": 309.55408049999085,
            "velocity": 0.25984251968503935,
            "duration": 0.08921082916668865
        },
        {
            "name": "G#2",
            "midi": 44,
            "time": 309.64404099999086,
            "velocity": 0.2992125984251969,
            "duration": 0.08921082916668865
        },
        {
            "name": "D#3",
            "midi": 51,
            "time": 309.7340014999909,
            "velocity": 0.25984251968503935,
            "duration": 0.08921082916668865
        },
        {
            "name": "C#2",
            "midi": 37,
            "time": 309.8239619999909,
            "velocity": 0.3228346456692913,
            "duration": 0.08921082916668865
        },
        {
            "name": "D#3",
            "midi": 51,
            "time": 309.9139224999909,
            "velocity": 0.25196850393700787,
            "duration": 0.08921082916668865
        },
        {
            "name": "G#2",
            "midi": 44,
            "time": 310.00388299999094,
            "velocity": 0.29133858267716534,
            "duration": 0.08921082916668865
        },
        {
            "name": "D#3",
            "midi": 51,
            "time": 310.09384349999095,
            "velocity": 0.25196850393700787,
            "duration": 0.08921082916668865
        },
        {
            "name": "C#2",
            "midi": 37,
            "time": 310.18380399999097,
            "velocity": 0.3228346456692913,
            "duration": 0.08921082916668865
        },
        {
            "name": "D#3",
            "midi": 51,
            "time": 310.273764499991,
            "velocity": 0.25984251968503935,
            "duration": 0.08921082916668865
        },
        {
            "name": "G#2",
            "midi": 44,
            "time": 310.363724999991,
            "velocity": 0.2992125984251969,
            "duration": 0.08921082916668865
        },
        {
            "name": "D#3",
            "midi": 51,
            "time": 310.453685499991,
            "velocity": 0.25984251968503935,
            "duration": 0.08921082916668865
        },
        {
            "name": "C#2",
            "midi": 37,
            "time": 310.54364599999104,
            "velocity": 0.3228346456692913,
            "duration": 0.08921082916668865
        },
        {
            "name": "D#3",
            "midi": 51,
            "time": 310.63360649999106,
            "velocity": 0.25196850393700787,
            "duration": 0.08921082916668865
        },
        {
            "name": "G#2",
            "midi": 44,
            "time": 310.7235669999911,
            "velocity": 0.28346456692913385,
            "duration": 0.08921082916668865
        },
        {
            "name": "D#3",
            "midi": 51,
            "time": 310.8135274999911,
            "velocity": 0.25984251968503935,
            "duration": 0.08921082916668865
        },
        {
            "name": "C#2",
            "midi": 37,
            "time": 310.9034879999911,
            "velocity": 0.3228346456692913,
            "duration": 0.08921082916668865
        },
        {
            "name": "C#3",
            "midi": 49,
            "time": 310.99344849999113,
            "velocity": 0.25984251968503935,
            "duration": 0.08921082916668865
        },
        {
            "name": "G#2",
            "midi": 44,
            "time": 311.08340899999115,
            "velocity": 0.29133858267716534,
            "duration": 0.08921082916668865
        },
        {
            "name": "C#3",
            "midi": 49,
            "time": 311.17336949999117,
            "velocity": 0.25984251968503935,
            "duration": 0.08921082916668865
        },
        {
            "name": "C#2",
            "midi": 37,
            "time": 311.2633299999912,
            "velocity": 0.3228346456692913,
            "duration": 0.08921082916668865
        },
        {
            "name": "C#3",
            "midi": 49,
            "time": 311.3532904999912,
            "velocity": 0.2677165354330709,
            "duration": 0.08921082916668865
        },
        {
            "name": "G#2",
            "midi": 44,
            "time": 311.4432509999912,
            "velocity": 0.2992125984251969,
            "duration": 0.08921082916668865
        },
        {
            "name": "C#3",
            "midi": 49,
            "time": 311.53321149999124,
            "velocity": 0.2677165354330709,
            "duration": 0.08921082916668865
        },
        {
            "name": "C#2",
            "midi": 37,
            "time": 311.62317199999126,
            "velocity": 0.3228346456692913,
            "duration": 0.08921082916668865
        },
        {
            "name": "C#3",
            "midi": 49,
            "time": 311.7131324999913,
            "velocity": 0.2677165354330709,
            "duration": 0.08921082916668865
        },
        {
            "name": "G#2",
            "midi": 44,
            "time": 311.8030929999913,
            "velocity": 0.2992125984251969,
            "duration": 0.08921082916668865
        },
        {
            "name": "C#3",
            "midi": 49,
            "time": 311.8930534999913,
            "velocity": 0.25984251968503935,
            "duration": 0.08921082916668865
        },
        {
            "name": "C#2",
            "midi": 37,
            "time": 311.98301399999133,
            "velocity": 0.3228346456692913,
            "duration": 0.08921082916668865
        },
        {
            "name": "C#3",
            "midi": 49,
            "time": 312.07297449999135,
            "velocity": 0.25984251968503935,
            "duration": 0.08921082916668865
        },
        {
            "name": "G#2",
            "midi": 44,
            "time": 312.16293499999136,
            "velocity": 0.28346456692913385,
            "duration": 0.08921082916668865
        },
        {
            "name": "C#3",
            "midi": 49,
            "time": 312.2528954999914,
            "velocity": 0.25196850393700787,
            "duration": 0.08921082916668865
        },
        {
            "name": "C#2",
            "midi": 37,
            "time": 312.3428559999914,
            "velocity": 0.3228346456692913,
            "duration": 0.08921082916668865
        },
        {
            "name": "D#3",
            "midi": 51,
            "time": 312.4328164999914,
            "velocity": 0.25984251968503935,
            "duration": 0.08921082916668865
        },
        {
            "name": "G#2",
            "midi": 44,
            "time": 312.52277699999144,
            "velocity": 0.28346456692913385,
            "duration": 0.08921082916668865
        },
        {
            "name": "D#3",
            "midi": 51,
            "time": 312.61273749999145,
            "velocity": 0.25984251968503935,
            "duration": 0.08921082916668865
        },
        {
            "name": "C#2",
            "midi": 37,
            "time": 312.70269799999147,
            "velocity": 0.3228346456692913,
            "duration": 0.08921082916668865
        },
        {
            "name": "D#3",
            "midi": 51,
            "time": 312.7926584999915,
            "velocity": 0.25984251968503935,
            "duration": 0.08921082916668865
        },
        {
            "name": "G#2",
            "midi": 44,
            "time": 312.8826189999915,
            "velocity": 0.28346456692913385,
            "duration": 0.08921082916668865
        },
        {
            "name": "D#3",
            "midi": 51,
            "time": 312.9725794999915,
            "velocity": 0.25984251968503935,
            "duration": 0.08921082916668865
        },
        {
            "name": "C#2",
            "midi": 37,
            "time": 313.06253999999154,
            "velocity": 0.3228346456692913,
            "duration": 0.08921082916668865
        },
        {
            "name": "D#3",
            "midi": 51,
            "time": 313.15250049999156,
            "velocity": 0.25196850393700787,
            "duration": 0.08921082916668865
        },
        {
            "name": "G#2",
            "midi": 44,
            "time": 313.2424609999916,
            "velocity": 0.28346456692913385,
            "duration": 0.08921082916668865
        },
        {
            "name": "D#3",
            "midi": 51,
            "time": 313.3324214999916,
            "velocity": 0.25984251968503935,
            "duration": 0.08921082916668865
        },
        {
            "name": "C#2",
            "midi": 37,
            "time": 313.4223819999916,
            "velocity": 0.3228346456692913,
            "duration": 0.08921082916668865
        },
        {
            "name": "D#3",
            "midi": 51,
            "time": 313.51234249999163,
            "velocity": 0.2755905511811024,
            "duration": 0.08921082916668865
        },
        {
            "name": "G#2",
            "midi": 44,
            "time": 313.60230299999165,
            "velocity": 0.30708661417322836,
            "duration": 0.08921082916668865
        },
        {
            "name": "D#3",
            "midi": 51,
            "time": 313.69226349999167,
            "velocity": 0.2677165354330709,
            "duration": 0.08921082916668865
        },
        {
            "name": "C#2",
            "midi": 37,
            "time": 313.7822239999917,
            "velocity": 0.3228346456692913,
            "duration": 0.08921082916668865
        },
        {
            "name": "C#3",
            "midi": 49,
            "time": 313.8721844999917,
            "velocity": 0.25984251968503935,
            "duration": 0.08921082916668865
        },
        {
            "name": "G#2",
            "midi": 44,
            "time": 313.9621449999917,
            "velocity": 0.28346456692913385,
            "duration": 0.08921082916668865
        },
        {
            "name": "C#3",
            "midi": 49,
            "time": 314.05210549999174,
            "velocity": 0.25984251968503935,
            "duration": 0.08921082916668865
        },
        {
            "name": "C#2",
            "midi": 37,
            "time": 314.14206599999176,
            "velocity": 0.33070866141732286,
            "duration": 0.08921082916668865
        },
        {
            "name": "C#3",
            "midi": 49,
            "time": 314.2320264999918,
            "velocity": 0.2440944881889764,
            "duration": 0.08921082916668865
        },
        {
            "name": "G#2",
            "midi": 44,
            "time": 314.3219869999918,
            "velocity": 0.2755905511811024,
            "duration": 0.08921082916668865
        },
        {
            "name": "C#3",
            "midi": 49,
            "time": 314.4119474999918,
            "velocity": 0.25196850393700787,
            "duration": 0.08921082916668865
        },
        {
            "name": "C#2",
            "midi": 37,
            "time": 314.50190799999183,
            "velocity": 0.3228346456692913,
            "duration": 0.08921082916668865
        },
        {
            "name": "D#3",
            "midi": 51,
            "time": 314.59186849999185,
            "velocity": 0.25984251968503935,
            "duration": 0.08921082916668865
        },
        {
            "name": "G#2",
            "midi": 44,
            "time": 314.68182899999186,
            "velocity": 0.29133858267716534,
            "duration": 0.08921082916668865
        },
        {
            "name": "D#3",
            "midi": 51,
            "time": 314.7717894999919,
            "velocity": 0.25984251968503935,
            "duration": 0.08921082916668865
        },
        {
            "name": "C#2",
            "midi": 37,
            "time": 314.8617499999919,
            "velocity": 0.3228346456692913,
            "duration": 0.08921082916668865
        },
        {
            "name": "D#3",
            "midi": 51,
            "time": 314.9517104999919,
            "velocity": 0.25984251968503935,
            "duration": 0.08921082916668865
        },
        {
            "name": "G#2",
            "midi": 44,
            "time": 315.04167099999194,
            "velocity": 0.2992125984251969,
            "duration": 0.08921082916668865
        },
        {
            "name": "D#3",
            "midi": 51,
            "time": 315.13163149999195,
            "velocity": 0.2677165354330709,
            "duration": 0.08921082916668865
        },
        {
            "name": "C#2",
            "midi": 37,
            "time": 315.221591999992,
            "velocity": 0.3228346456692913,
            "duration": 0.08921082916668865
        },
        {
            "name": "C#3",
            "midi": 49,
            "time": 315.311552499992,
            "velocity": 0.25984251968503935,
            "duration": 0.08921082916668865
        },
        {
            "name": "G#2",
            "midi": 44,
            "time": 315.401512999992,
            "velocity": 0.28346456692913385,
            "duration": 0.08921082916668865
        },
        {
            "name": "C#3",
            "midi": 49,
            "time": 315.491473499992,
            "velocity": 0.25196850393700787,
            "duration": 0.08921082916668865
        },
        {
            "name": "C#2",
            "midi": 37,
            "time": 315.58143399999204,
            "velocity": 0.3228346456692913,
            "duration": 0.08921082916668865
        },
        {
            "name": "C#3",
            "midi": 49,
            "time": 315.67139449999206,
            "velocity": 0.25984251968503935,
            "duration": 0.08921082916668865
        },
        {
            "name": "G#2",
            "midi": 44,
            "time": 315.7613549999921,
            "velocity": 0.28346456692913385,
            "duration": 0.08921082916668865
        },
        {
            "name": "C#3",
            "midi": 49,
            "time": 315.8513154999921,
            "velocity": 0.25984251968503935,
            "duration": 0.08921082916668865
        },
        {
            "name": "C#2",
            "midi": 37,
            "time": 315.9412759999921,
            "velocity": 0.3228346456692913,
            "duration": 0.08921082916668865
        },
        {
            "name": "D#3",
            "midi": 51,
            "time": 316.03123649999213,
            "velocity": 0.25984251968503935,
            "duration": 0.08921082916668865
        },
        {
            "name": "G#2",
            "midi": 44,
            "time": 316.12119699999215,
            "velocity": 0.29133858267716534,
            "duration": 0.08921082916668865
        },
        {
            "name": "D#3",
            "midi": 51,
            "time": 316.21115749999217,
            "velocity": 0.25984251968503935,
            "duration": 0.08921082916668865
        },
        {
            "name": "C#2",
            "midi": 37,
            "time": 316.3011179999922,
            "velocity": 0.3228346456692913,
            "duration": 0.08921082916668865
        },
        {
            "name": "D#3",
            "midi": 51,
            "time": 316.3910784999922,
            "velocity": 0.25984251968503935,
            "duration": 0.08921082916668865
        },
        {
            "name": "G#2",
            "midi": 44,
            "time": 316.4810389999922,
            "velocity": 0.29133858267716534,
            "duration": 0.08921082916668865
        },
        {
            "name": "D#3",
            "midi": 51,
            "time": 316.57099949999224,
            "velocity": 0.2677165354330709,
            "duration": 0.08921082916668865
        },
        {
            "name": "C#2",
            "midi": 37,
            "time": 316.66095999999226,
            "velocity": 0.3228346456692913,
            "duration": 0.08921082916668865
        },
        {
            "name": "C#3",
            "midi": 49,
            "time": 316.7509204999923,
            "velocity": 0.30708661417322836,
            "duration": 0.08921082916668865
        },
        {
            "name": "G#2",
            "midi": 44,
            "time": 316.8408809999923,
            "velocity": 0.33858267716535434,
            "duration": 0.08921082916668865
        },
        {
            "name": "C#3",
            "midi": 49,
            "time": 316.9308414999923,
            "velocity": 0.33070866141732286,
            "duration": 0.08921082916668865
        },
        {
            "name": "C#2",
            "midi": 37,
            "time": 317.02080199999233,
            "velocity": 0.3543307086614173,
            "duration": 0.08921082916668865
        },
        {
            "name": "C#3",
            "midi": 49,
            "time": 317.11076249999235,
            "velocity": 0.33858267716535434,
            "duration": 0.08921082916668865
        },
        {
            "name": "G#2",
            "midi": 44,
            "time": 317.20072299999237,
            "velocity": 0.3700787401574803,
            "duration": 0.08921082916668865
        },
        {
            "name": "C#3",
            "midi": 49,
            "time": 317.2906834999924,
            "velocity": 0.33858267716535434,
            "duration": 0.08921082916668865
        },
        {
            "name": "C#2",
            "midi": 37,
            "time": 317.3806439999924,
            "velocity": 0.3779527559055118,
            "duration": 0.08921082916668865
        },
        {
            "name": "C#3",
            "midi": 49,
            "time": 317.4706044999924,
            "velocity": 0.3543307086614173,
            "duration": 0.08921082916668865
        },
        {
            "name": "G#2",
            "midi": 44,
            "time": 317.56056499999244,
            "velocity": 0.3937007874015748,
            "duration": 0.08921082916668865
        },
        {
            "name": "C#3",
            "midi": 49,
            "time": 317.65052549999245,
            "velocity": 0.3543307086614173,
            "duration": 0.08921082916668865
        },
        {
            "name": "C#2",
            "midi": 37,
            "time": 317.7404859999925,
            "velocity": 0.4015748031496063,
            "duration": 0.08921082916668865
        },
        {
            "name": "C#3",
            "midi": 49,
            "time": 317.8304464999925,
            "velocity": 0.3700787401574803,
            "duration": 0.08921082916668865
        },
        {
            "name": "G#2",
            "midi": 44,
            "time": 317.9204069999925,
            "velocity": 0.4094488188976378,
            "duration": 0.08921082916668865
        },
        {
            "name": "C#3",
            "midi": 49,
            "time": 318.0103674999925,
            "velocity": 0.3858267716535433,
            "duration": 0.08921082916668865
        },
        {
            "name": "B1",
            "midi": 35,
            "time": 318.10032799999254,
            "velocity": 0.4330708661417323,
            "duration": 0.08921082916668865
        },
        {
            "name": "B2",
            "midi": 47,
            "time": 318.19028849999256,
            "velocity": 0.3937007874015748,
            "duration": 0.08921082916668865
        },
        {
            "name": "C#2",
            "midi": 37,
            "time": 318.2802489999926,
            "velocity": 0.4409448818897638,
            "duration": 0.08921082916668865
        },
        {
            "name": "B2",
            "midi": 47,
            "time": 318.3702094999926,
            "velocity": 0.4015748031496063,
            "duration": 0.08921082916668865
        },
        {
            "name": "B1",
            "midi": 35,
            "time": 318.4601699999926,
            "velocity": 0.44881889763779526,
            "duration": 0.08921082916668865
        },
        {
            "name": "B2",
            "midi": 47,
            "time": 318.55013049999263,
            "velocity": 0.4094488188976378,
            "duration": 0.08921082916668865
        },
        {
            "name": "C#2",
            "midi": 37,
            "time": 318.64009099999265,
            "velocity": 0.4566929133858268,
            "duration": 0.08921082916668865
        },
        {
            "name": "B2",
            "midi": 47,
            "time": 318.73005149999267,
            "velocity": 0.41732283464566927,
            "duration": 0.08921082916668865
        },
        {
            "name": "B1",
            "midi": 35,
            "time": 318.8200119999927,
            "velocity": 0.48031496062992124,
            "duration": 0.08921082916668865
        },
        {
            "name": "B2",
            "midi": 47,
            "time": 318.9099724999927,
            "velocity": 0.44881889763779526,
            "duration": 0.08921082916668865
        },
        {
            "name": "C#2",
            "midi": 37,
            "time": 318.9999329999927,
            "velocity": 0.4881889763779528,
            "duration": 0.08921082916668865
        },
        {
            "name": "B2",
            "midi": 47,
            "time": 319.08989349999274,
            "velocity": 0.44881889763779526,
            "duration": 0.08921082916668865
        },
        {
            "name": "B1",
            "midi": 35,
            "time": 319.17985399999276,
            "velocity": 0.4881889763779528,
            "duration": 0.08921082916668865
        },
        {
            "name": "B2",
            "midi": 47,
            "time": 319.2698144999928,
            "velocity": 0.4566929133858268,
            "duration": 0.08921082916668865
        },
        {
            "name": "C#2",
            "midi": 37,
            "time": 319.3597749999928,
            "velocity": 0.5039370078740157,
            "duration": 0.08921082916668865
        },
        {
            "name": "B2",
            "midi": 47,
            "time": 319.4497354999928,
            "velocity": 0.47244094488188976,
            "duration": 0.07646642499997824
        },
        {
            "name": "A1",
            "midi": 33,
            "time": 319.5396959999928,
            "velocity": 0.4409448818897638,
            "duration": 0.08996050000001787
        },
        {
            "name": "A2",
            "midi": 45,
            "time": 319.5396959999928,
            "velocity": 0.5275590551181102,
            "duration": 0.08996050000001787
        },
        {
            "name": "F#2",
            "midi": 42,
            "time": 319.7196169999928,
            "velocity": 0.30708661417322836,
            "duration": 0.08996050000001787
        },
        {
            "name": "A1",
            "midi": 33,
            "time": 319.89953799999284,
            "velocity": 0.30708661417322836,
            "duration": 0.08996050000001787
        },
        {
            "name": "F#2",
            "midi": 42,
            "time": 320.0794589999929,
            "velocity": 0.28346456692913385,
            "duration": 0.08996050000001787
        },
        {
            "name": "A1",
            "midi": 33,
            "time": 320.2593799999929,
            "velocity": 0.30708661417322836,
            "duration": 0.08996050000001787
        },
        {
            "name": "F#2",
            "midi": 42,
            "time": 320.43930099999295,
            "velocity": 0.2755905511811024,
            "duration": 0.08996050000001787
        },
        {
            "name": "A1",
            "midi": 33,
            "time": 320.619221999993,
            "velocity": 0.30708661417322836,
            "duration": 0.08996050000001787
        },
        {
            "name": "F#2",
            "midi": 42,
            "time": 320.799142999993,
            "velocity": 0.2755905511811024,
            "duration": 0.08996050000001787
        },
        {
            "name": "A1",
            "midi": 33,
            "time": 320.97906399999306,
            "velocity": 0.30708661417322836,
            "duration": 0.08996050000001787
        },
        {
            "name": "F#2",
            "midi": 42,
            "time": 321.1589849999931,
            "velocity": 0.31496062992125984,
            "duration": 0.08996050000001787
        },
        {
            "name": "A1",
            "midi": 33,
            "time": 321.33890599999313,
            "velocity": 0.31496062992125984,
            "duration": 0.08996050000001787
        },
        {
            "name": "F#2",
            "midi": 42,
            "time": 321.51882699999317,
            "velocity": 0.31496062992125984,
            "duration": 0.08996050000001787
        },
        {
            "name": "A1",
            "midi": 33,
            "time": 321.6987479999932,
            "velocity": 0.31496062992125984,
            "duration": 0.08996050000001787
        },
        {
            "name": "F#2",
            "midi": 42,
            "time": 321.87866899999324,
            "velocity": 0.28346456692913385,
            "duration": 0.08996050000001787
        },
        {
            "name": "A2",
            "midi": 45,
            "time": 322.0585899999933,
            "velocity": 0.6377952755905512,
            "duration": 0.08996050000001787
        },
        {
            "name": "A1",
            "midi": 33,
            "time": 322.0585899999933,
            "velocity": 0.5433070866141733,
            "duration": 0.08996050000001787
        },
        {
            "name": "F#2",
            "midi": 42,
            "time": 322.2385109999933,
            "velocity": 0.5433070866141733,
            "duration": 0.08996050000001787
        },
        {
            "name": "G#1",
            "midi": 32,
            "time": 322.41843199999335,
            "velocity": 0.4094488188976378,
            "duration": 0.08996050000001787
        },
        {
            "name": "E2",
            "midi": 40,
            "time": 322.5983529999934,
            "velocity": 0.3700787401574803,
            "duration": 0.08996050000001787
        },
        {
            "name": "G#1",
            "midi": 32,
            "time": 322.7782739999934,
            "velocity": 0.4094488188976378,
            "duration": 0.08996050000001787
        },
        {
            "name": "E2",
            "midi": 40,
            "time": 322.95819499999345,
            "velocity": 0.3779527559055118,
            "duration": 0.08996050000001787
        },
        {
            "name": "G#1",
            "midi": 32,
            "time": 323.1381159999935,
            "velocity": 0.4094488188976378,
            "duration": 0.08996050000001787
        },
        {
            "name": "E2",
            "midi": 40,
            "time": 323.3180369999935,
            "velocity": 0.3779527559055118,
            "duration": 0.08996050000001787
        },
        {
            "name": "G#1",
            "midi": 32,
            "time": 323.49795799999356,
            "velocity": 0.4094488188976378,
            "duration": 0.08996050000001787
        },
        {
            "name": "E2",
            "midi": 40,
            "time": 323.6778789999936,
            "velocity": 0.4094488188976378,
            "duration": 0.08996050000001787
        },
        {
            "name": "G#1",
            "midi": 32,
            "time": 323.85779999999363,
            "velocity": 0.4094488188976378,
            "duration": 0.08996050000001787
        },
        {
            "name": "E2",
            "midi": 40,
            "time": 324.03772099999367,
            "velocity": 0.4094488188976378,
            "duration": 0.08996050000001787
        },
        {
            "name": "G#1",
            "midi": 32,
            "time": 324.2176419999937,
            "velocity": 0.4094488188976378,
            "duration": 0.08996050000001787
        },
        {
            "name": "E2",
            "midi": 40,
            "time": 324.39756299999374,
            "velocity": 0.3779527559055118,
            "duration": 0.08996050000001787
        },
        {
            "name": "G#1",
            "midi": 32,
            "time": 324.5774839999938,
            "velocity": 0.4094488188976378,
            "duration": 0.08996050000001787
        },
        {
            "name": "E2",
            "midi": 40,
            "time": 324.7574049999938,
            "velocity": 0.3779527559055118,
            "duration": 0.08996050000001787
        },
        {
            "name": "G#1",
            "midi": 32,
            "time": 324.93732599999385,
            "velocity": 0.5669291338582677,
            "duration": 0.08996050000001787
        },
        {
            "name": "G#2",
            "midi": 44,
            "time": 324.93732599999385,
            "velocity": 0.6771653543307087,
            "duration": 0.08996050000001787
        },
        {
            "name": "E2",
            "midi": 40,
            "time": 325.1172469999939,
            "velocity": 0.6062992125984252,
            "duration": 0.08996050000001787
        },
        {
            "name": "G1",
            "midi": 31,
            "time": 325.2971679999939,
            "velocity": 0.30708661417322836,
            "duration": 0.5397629999999936
        },
        {
            "name": "G1",
            "midi": 31,
            "time": 325.8369309999939,
            "velocity": 0.3543307086614173,
            "duration": 0.7196839999999156
        },
        {
            "name": "A#1",
            "midi": 34,
            "time": 325.8819112499939,
            "velocity": 0.3700787401574803,
            "duration": 0.6747037499999351
        },
        {
            "name": "C#2",
            "midi": 37,
            "time": 325.92689149999387,
            "velocity": 0.3937007874015748,
            "duration": 0.6297234999999546
        },
        {
            "name": "E2",
            "midi": 40,
            "time": 325.97187174999385,
            "velocity": 0.4015748031496063,
            "duration": 0.5847432499999741
        },
        {
            "name": "G2",
            "midi": 43,
            "time": 326.01685199999383,
            "velocity": 0.41732283464566927,
            "duration": 0.5397629999999936
        },
        {
            "name": "G2",
            "midi": 43,
            "time": 326.5566149999938,
            "velocity": 0.4015748031496063,
            "duration": 0.5397629999998799
        },
        {
            "name": "A#2",
            "midi": 46,
            "time": 326.6015952499938,
            "velocity": 0.4409448818897638,
            "duration": 0.49478274999989935
        },
        {
            "name": "C#3",
            "midi": 49,
            "time": 326.6465754999938,
            "velocity": 0.4566929133858268,
            "duration": 0.44980249999991884
        },
        {
            "name": "E3",
            "midi": 52,
            "time": 326.69155574999377,
            "velocity": 0.48031496062992124,
            "duration": 0.4048222499999383
        },
        {
            "name": "G3",
            "midi": 55,
            "time": 326.73653599999375,
            "velocity": 0.49606299212598426,
            "duration": 0.1799209999999789
        },
        {
            "name": "E4",
            "midi": 64,
            "time": 327.0963779999937,
            "velocity": 0.6220472440944882,
            "duration": 1.079525999999987
        },
        {
            "name": "C#4",
            "midi": 61,
            "time": 327.0963779999937,
            "velocity": 0.6220472440944882,
            "duration": 1.079525999999987
        },
        {
            "name": "G3",
            "midi": 55,
            "time": 327.0963779999937,
            "velocity": 0.5275590551181102,
            "duration": 1.079525999999987
        },
        {
            "name": "A#3",
            "midi": 58,
            "time": 327.0963779999937,
            "velocity": 0.5275590551181102,
            "duration": 1.079525999999987
        },
        {
            "name": "F#1",
            "midi": 30,
            "time": 328.1759039999937,
            "velocity": 0.3700787401574803,
            "duration": 0.5397629999999936
        },
        {
            "name": "F#1",
            "midi": 30,
            "time": 328.7156669999937,
            "velocity": 0.3228346456692913,
            "duration": 0.7196839999999156
        },
        {
            "name": "A1",
            "midi": 33,
            "time": 328.76064724999367,
            "velocity": 0.33858267716535434,
            "duration": 0.6747037499999351
        },
        {
            "name": "C2",
            "midi": 36,
            "time": 328.80562749999365,
            "velocity": 0.3700787401574803,
            "duration": 0.6297234999999546
        },
        {
            "name": "D#2",
            "midi": 39,
            "time": 328.8506077499936,
            "velocity": 0.3858267716535433,
            "duration": 0.5847432499999741
        },
        {
            "name": "F#2",
            "midi": 42,
            "time": 328.8955879999936,
            "velocity": 0.4094488188976378,
            "duration": 0.5397629999999936
        },
        {
            "name": "F#2",
            "midi": 42,
            "time": 329.4353509999936,
            "velocity": 0.4251968503937008,
            "duration": 0.5397629999998799
        },
        {
            "name": "A2",
            "midi": 45,
            "time": 329.4803312499936,
            "velocity": 0.4409448818897638,
            "duration": 0.49478274999989935
        },
        {
            "name": "C3",
            "midi": 48,
            "time": 329.52531149999356,
            "velocity": 0.4566929133858268,
            "duration": 0.44980249999991884
        },
        {
            "name": "D#3",
            "midi": 51,
            "time": 329.57029174999354,
            "velocity": 0.48031496062992124,
            "duration": 0.4048222499999383
        },
        {
            "name": "F#3",
            "midi": 54,
            "time": 329.6152719999935,
            "velocity": 0.4881889763779528,
            "duration": 0.1799209999999789
        },
        {
            "name": "D#4",
            "midi": 63,
            "time": 329.9751139999935,
            "velocity": 0.6220472440944882,
            "duration": 1.079525999999987
        },
        {
            "name": "A3",
            "midi": 57,
            "time": 329.9751139999935,
            "velocity": 0.5275590551181102,
            "duration": 1.079525999999987
        },
        {
            "name": "F#3",
            "midi": 54,
            "time": 329.9751139999935,
            "velocity": 0.5275590551181102,
            "duration": 1.079525999999987
        },
        {
            "name": "C4",
            "midi": 60,
            "time": 329.9751139999935,
            "velocity": 0.6220472440944882,
            "duration": 1.079525999999987
        },
        {
            "name": "C#3",
            "midi": 49,
            "time": 331.05463999999347,
            "velocity": 0.3228346456692913,
            "duration": 0.1799209999999789
        },
        {
            "name": "G#3",
            "midi": 56,
            "time": 331.4144819999934,
            "velocity": 0.4409448818897638,
            "duration": 0.7196839999999725
        },
        {
            "name": "E3",
            "midi": 52,
            "time": 332.1341659999934,
            "velocity": 0.3779527559055118,
            "duration": 0.2698814999999968
        },
        {
            "name": "C#3",
            "midi": 49,
            "time": 332.4040474999934,
            "velocity": 0.3779527559055118,
            "duration": 0.08621214583331493
        },
        {
            "name": "C#3",
            "midi": 49,
            "time": 332.49400799999336,
            "velocity": 0.4251968503937008,
            "duration": 0.35984200000001465
        },
        {
            "name": "C3",
            "midi": 48,
            "time": 332.8538499999934,
            "velocity": 0.3700787401574803,
            "duration": 0.5397629999999936
        },
        {
            "name": "C3",
            "midi": 48,
            "time": 333.39361299999337,
            "velocity": 0.3700787401574803,
            "duration": 0.1799209999999789
        },
        {
            "name": "G#3",
            "midi": 56,
            "time": 333.57353399999334,
            "velocity": 0.4409448818897638,
            "duration": 0.2698814999999968
        },
        {
            "name": "C3",
            "midi": 48,
            "time": 333.84341549999334,
            "velocity": 0.3700787401574803,
            "duration": 0.08996050000001787
        },
        {
            "name": "D#3",
            "midi": 51,
            "time": 333.93337599999336,
            "velocity": 0.33858267716535434,
            "duration": 0.35984200000001465
        },
        {
            "name": "C#3",
            "midi": 49,
            "time": 334.2932179999934,
            "velocity": 0.3700787401574803,
            "duration": 0.5397629999999936
        },
        {
            "name": "C#3",
            "midi": 49,
            "time": 334.83298099999337,
            "velocity": 0.3779527559055118,
            "duration": 0.1799209999999789
        },
        {
            "name": "G#3",
            "midi": 56,
            "time": 335.01290199999335,
            "velocity": 0.41732283464566927,
            "duration": 0.2698814999999968
        },
        {
            "name": "C#3",
            "midi": 49,
            "time": 335.28278349999334,
            "velocity": 0.3700787401574803,
            "duration": 0.08996050000001787
        },
        {
            "name": "E3",
            "midi": 52,
            "time": 335.37274399999336,
            "velocity": 0.33858267716535434,
            "duration": 0.35984200000001465
        },
        {
            "name": "D#3",
            "midi": 51,
            "time": 335.7325859999934,
            "velocity": 0.3700787401574803,
            "duration": 0.5397629999999936
        },
        {
            "name": "D#3",
            "midi": 51,
            "time": 336.27234899999337,
            "velocity": 0.3779527559055118,
            "duration": 0.1799209999999789
        },
        {
            "name": "G#3",
            "midi": 56,
            "time": 336.45226999999335,
            "velocity": 0.41732283464566927,
            "duration": 0.2698814999999968
        },
        {
            "name": "D#3",
            "midi": 51,
            "time": 336.72215149999334,
            "velocity": 0.3700787401574803,
            "duration": 0.08996050000001787
        },
        {
            "name": "E3",
            "midi": 52,
            "time": 336.81211199999336,
            "velocity": 0.31496062992125984,
            "duration": 0.1049539166666591
        },
        {
            "name": "G#3",
            "midi": 56,
            "time": 336.9020724999934,
            "velocity": 0.2755905511811024,
            "duration": 0.10495391666660225
        },
        {
            "name": "E3",
            "midi": 52,
            "time": 336.99203299999334,
            "velocity": 0.31496062992125984,
            "duration": 0.10495391666660225
        },
        {
            "name": "G#3",
            "midi": 56,
            "time": 337.0819934999933,
            "velocity": 0.2677165354330709,
            "duration": 0.10495391666660225
        },
        {
            "name": "E3",
            "midi": 52,
            "time": 337.17195399999326,
            "velocity": 0.3700787401574803,
            "duration": 0.08921082916663181
        },
        {
            "name": "G#3",
            "midi": 56,
            "time": 337.2619144999932,
            "velocity": 0.2677165354330709,
            "duration": 0.08921082916668865
        },
        {
            "name": "E3",
            "midi": 52,
            "time": 337.35187499999324,
            "velocity": 0.31496062992125984,
            "duration": 0.08921082916668865
        },
        {
            "name": "G#3",
            "midi": 56,
            "time": 337.44183549999326,
            "velocity": 0.2677165354330709,
            "duration": 0.08921082916668865
        },
        {
            "name": "E3",
            "midi": 52,
            "time": 337.5317959999933,
            "velocity": 0.3700787401574803,
            "duration": 0.08921082916668865
        },
        {
            "name": "G#3",
            "midi": 56,
            "time": 337.6217564999933,
            "velocity": 0.2677165354330709,
            "duration": 0.08921082916668865
        },
        {
            "name": "E3",
            "midi": 52,
            "time": 337.7117169999933,
            "velocity": 0.30708661417322836,
            "duration": 0.08921082916668865
        },
        {
            "name": "G#3",
            "midi": 56,
            "time": 337.80167749999333,
            "velocity": 0.2677165354330709,
            "duration": 0.08921082916668865
        },
        {
            "name": "E3",
            "midi": 52,
            "time": 337.89163799999335,
            "velocity": 0.3700787401574803,
            "duration": 0.08921082916668865
        },
        {
            "name": "G#3",
            "midi": 56,
            "time": 337.98159849999337,
            "velocity": 0.2755905511811024,
            "duration": 0.08921082916668865
        },
        {
            "name": "E3",
            "midi": 52,
            "time": 338.0715589999934,
            "velocity": 0.31496062992125984,
            "duration": 0.08921082916668865
        },
        {
            "name": "G#3",
            "midi": 56,
            "time": 338.1615194999934,
            "velocity": 0.2677165354330709,
            "duration": 0.08921082916668865
        },
        {
            "name": "F#3",
            "midi": 54,
            "time": 338.2514799999934,
            "velocity": 0.3700787401574803,
            "duration": 0.08921082916668865
        },
        {
            "name": "G#3",
            "midi": 56,
            "time": 338.34144049999344,
            "velocity": 0.25984251968503935,
            "duration": 0.08921082916668865
        },
        {
            "name": "F#3",
            "midi": 54,
            "time": 338.43140099999346,
            "velocity": 0.30708661417322836,
            "duration": 0.08921082916668865
        },
        {
            "name": "G#3",
            "midi": 56,
            "time": 338.5213614999935,
            "velocity": 0.2677165354330709,
            "duration": 0.08921082916668865
        },
        {
            "name": "F#3",
            "midi": 54,
            "time": 338.6113219999935,
            "velocity": 0.4330708661417323,
            "duration": 0.08921082916668865
        },
        {
            "name": "G#3",
            "midi": 56,
            "time": 338.7012824999935,
            "velocity": 0.3543307086614173,
            "duration": 0.08921082916668865
        },
        {
            "name": "F#3",
            "midi": 54,
            "time": 338.79124299999353,
            "velocity": 0.44881889763779526,
            "duration": 0.08921082916668865
        },
        {
            "name": "G#3",
            "midi": 56,
            "time": 338.88120349999355,
            "velocity": 0.41732283464566927,
            "duration": 0.08921082916668865
        },
        {
            "name": "F#3",
            "midi": 54,
            "time": 338.97116399999356,
            "velocity": 0.5275590551181102,
            "duration": 0.08921082916668865
        },
        {
            "name": "G#3",
            "midi": 56,
            "time": 339.0611244999936,
            "velocity": 0.4094488188976378,
            "duration": 0.08921082916668865
        },
        {
            "name": "F#3",
            "midi": 54,
            "time": 339.1510849999936,
            "velocity": 0.4881889763779528,
            "duration": 0.08921082916668865
        },
        {
            "name": "G#3",
            "midi": 56,
            "time": 339.2410454999936,
            "velocity": 0.4409448818897638,
            "duration": 0.08921082916668865
        },
        {
            "name": "F#3",
            "midi": 54,
            "time": 339.33100599999364,
            "velocity": 0.5590551181102362,
            "duration": 0.08921082916668865
        },
        {
            "name": "G#3",
            "midi": 56,
            "time": 339.42096649999365,
            "velocity": 0.4409448818897638,
            "duration": 0.08921082916668865
        },
        {
            "name": "F#3",
            "midi": 54,
            "time": 339.51092699999367,
            "velocity": 0.4566929133858268,
            "duration": 0.08921082916668865
        },
        {
            "name": "G#3",
            "midi": 56,
            "time": 339.6008874999937,
            "velocity": 0.3858267716535433,
            "duration": 0.08921082916668865
        },
        {
            "name": "E3",
            "midi": 52,
            "time": 339.6908479999937,
            "velocity": 0.3700787401574803,
            "duration": 0.08921082916668865
        },
        {
            "name": "G#3",
            "midi": 56,
            "time": 339.7808084999937,
            "velocity": 0.2677165354330709,
            "duration": 0.08921082916668865
        },
        {
            "name": "E3",
            "midi": 52,
            "time": 339.87076899999374,
            "velocity": 0.31496062992125984,
            "duration": 0.08921082916668865
        },
        {
            "name": "G#3",
            "midi": 56,
            "time": 339.96072949999376,
            "velocity": 0.2677165354330709,
            "duration": 0.08921082916668865
        },
        {
            "name": "E3",
            "midi": 52,
            "time": 340.0506899999938,
            "velocity": 0.4409448818897638,
            "duration": 0.08921082916668865
        },
        {
            "name": "G#3",
            "midi": 56,
            "time": 340.1406504999938,
            "velocity": 0.3700787401574803,
            "duration": 0.08921082916668865
        },
        {
            "name": "E3",
            "midi": 52,
            "time": 340.2306109999938,
            "velocity": 0.44881889763779526,
            "duration": 0.08921082916668865
        },
        {
            "name": "G#3",
            "midi": 56,
            "time": 340.32057149999383,
            "velocity": 0.3937007874015748,
            "duration": 0.08921082916668865
        },
        {
            "name": "E3",
            "midi": 52,
            "time": 340.41053199999385,
            "velocity": 0.5354330708661418,
            "duration": 0.08921082916668865
        },
        {
            "name": "G#3",
            "midi": 56,
            "time": 340.50049249999387,
            "velocity": 0.4094488188976378,
            "duration": 0.08921082916668865
        },
        {
            "name": "E3",
            "midi": 52,
            "time": 340.5904529999939,
            "velocity": 0.5039370078740157,
            "duration": 0.08921082916668865
        },
        {
            "name": "G#3",
            "midi": 56,
            "time": 340.6804134999939,
            "velocity": 0.44881889763779526,
            "duration": 0.08921082916668865
        },
        {
            "name": "E3",
            "midi": 52,
            "time": 340.7703739999939,
            "velocity": 0.5905511811023622,
            "duration": 0.08921082916668865
        },
        {
            "name": "G#3",
            "midi": 56,
            "time": 340.86033449999394,
            "velocity": 0.4409448818897638,
            "duration": 0.08921082916668865
        },
        {
            "name": "E3",
            "midi": 52,
            "time": 340.95029499999396,
            "velocity": 0.48031496062992124,
            "duration": 0.08921082916668865
        },
        {
            "name": "G#3",
            "midi": 56,
            "time": 341.040255499994,
            "velocity": 0.3858267716535433,
            "duration": 0.08921082916668865
        },
        {
            "name": "C3",
            "midi": 48,
            "time": 341.130215999994,
            "velocity": 0.3700787401574803,
            "duration": 0.08921082916668865
        },
        {
            "name": "G#3",
            "midi": 56,
            "time": 341.220176499994,
            "velocity": 0.29133858267716534,
            "duration": 0.08921082916668865
        },
        {
            "name": "C3",
            "midi": 48,
            "time": 341.31013699999403,
            "velocity": 0.3228346456692913,
            "duration": 0.08921082916668865
        },
        {
            "name": "G#3",
            "midi": 56,
            "time": 341.40009749999405,
            "velocity": 0.2755905511811024,
            "duration": 0.08921082916668865
        },
        {
            "name": "C3",
            "midi": 48,
            "time": 341.49005799999406,
            "velocity": 0.4645669291338583,
            "duration": 0.08921082916668865
        },
        {
            "name": "G#3",
            "midi": 56,
            "time": 341.5800184999941,
            "velocity": 0.3700787401574803,
            "duration": 0.08921082916668865
        },
        {
            "name": "C3",
            "midi": 48,
            "time": 341.6699789999941,
            "velocity": 0.4409448818897638,
            "duration": 0.08921082916668865
        },
        {
            "name": "G#3",
            "midi": 56,
            "time": 341.7599394999941,
            "velocity": 0.3858267716535433,
            "duration": 0.08921082916668865
        },
        {
            "name": "C3",
            "midi": 48,
            "time": 341.84989999999414,
            "velocity": 0.5433070866141733,
            "duration": 0.08921082916668865
        },
        {
            "name": "G#3",
            "midi": 56,
            "time": 341.93986049999415,
            "velocity": 0.4094488188976378,
            "duration": 0.08921082916668865
        },
        {
            "name": "C3",
            "midi": 48,
            "time": 342.0298209999942,
            "velocity": 0.4881889763779528,
            "duration": 0.08921082916668865
        },
        {
            "name": "G#3",
            "midi": 56,
            "time": 342.1197814999942,
            "velocity": 0.4409448818897638,
            "duration": 0.08921082916668865
        },
        {
            "name": "C3",
            "midi": 48,
            "time": 342.2097419999942,
            "velocity": 0.6062992125984252,
            "duration": 0.08921082916668865
        },
        {
            "name": "G#3",
            "midi": 56,
            "time": 342.2997024999942,
            "velocity": 0.4251968503937008,
            "duration": 0.08921082916668865
        },
        {
            "name": "C3",
            "midi": 48,
            "time": 342.38966299999424,
            "velocity": 0.4566929133858268,
            "duration": 0.08921082916668865
        },
        {
            "name": "G#3",
            "midi": 56,
            "time": 342.47962349999426,
            "velocity": 0.3700787401574803,
            "duration": 0.08921082916668865
        },
        {
            "name": "C#3",
            "midi": 49,
            "time": 342.5695839999943,
            "velocity": 0.3700787401574803,
            "duration": 0.1049539166666591
        },
        {
            "name": "G#3",
            "midi": 56,
            "time": 342.6595444999943,
            "velocity": 0.33858267716535434,
            "duration": 0.10495391666660225
        },
        {
            "name": "C#3",
            "midi": 49,
            "time": 342.74950499999426,
            "velocity": 0.3700787401574803,
            "duration": 0.10495391666660225
        },
        {
            "name": "G#3",
            "midi": 56,
            "time": 342.8394654999942,
            "velocity": 0.33858267716535434,
            "duration": 0.10495391666660225
        },
        {
            "name": "C#3",
            "midi": 49,
            "time": 342.9294259999942,
            "velocity": 0.3858267716535433,
            "duration": 0.10495391666660225
        },
        {
            "name": "G#3",
            "midi": 56,
            "time": 343.01938649999414,
            "velocity": 0.36220472440944884,
            "duration": 0.10495391666660225
        },
        {
            "name": "C#3",
            "midi": 49,
            "time": 343.1093469999941,
            "velocity": 0.4015748031496063,
            "duration": 0.10495391666660225
        },
        {
            "name": "G#3",
            "midi": 56,
            "time": 343.19930749999406,
            "velocity": 0.3779527559055118,
            "duration": 0.10495391666660225
        },
        {
            "name": "B2",
            "midi": 47,
            "time": 343.289267999994,
            "velocity": 0.41732283464566927,
            "duration": 0.10495391666660225
        },
        {
            "name": "C#3",
            "midi": 49,
            "time": 343.379228499994,
            "velocity": 0.4015748031496063,
            "duration": 0.10495391666660225
        },
        {
            "name": "B2",
            "midi": 47,
            "time": 343.46918899999395,
            "velocity": 0.4409448818897638,
            "duration": 0.10495391666660225
        },
        {
            "name": "C#3",
            "midi": 49,
            "time": 343.5591494999939,
            "velocity": 0.4015748031496063,
            "duration": 0.10495391666660225
        },
        {
            "name": "B2",
            "midi": 47,
            "time": 343.64910999999387,
            "velocity": 0.44881889763779526,
            "duration": 0.10495391666660225
        },
        {
            "name": "C#3",
            "midi": 49,
            "time": 343.73907049999383,
            "velocity": 0.41732283464566927,
            "duration": 0.10495391666660225
        },
        {
            "name": "B2",
            "midi": 47,
            "time": 343.8290309999938,
            "velocity": 0.4645669291338583,
            "duration": 0.10495391666660225
        },
        {
            "name": "C#3",
            "midi": 49,
            "time": 343.91899149999375,
            "velocity": 0.41732283464566927,
            "duration": 0.10495391666660225
        },
        {
            "name": "A2",
            "midi": 45,
            "time": 344.0089519999937,
            "velocity": 0.4881889763779528,
            "duration": 0.10495391666660225
        },
        {
            "name": "C#3",
            "midi": 49,
            "time": 344.0989124999937,
            "velocity": 0.4409448818897638,
            "duration": 0.10495391666660225
        },
        {
            "name": "A2",
            "midi": 45,
            "time": 344.18887299999363,
            "velocity": 0.4881889763779528,
            "duration": 0.10495391666660225
        },
        {
            "name": "C#3",
            "midi": 49,
            "time": 344.2788334999936,
            "velocity": 0.4566929133858268,
            "duration": 0.10495391666660225
        },
        {
            "name": "A2",
            "midi": 45,
            "time": 344.36879399999356,
            "velocity": 0.5196850393700787,
            "duration": 0.10495391666660225
        },
        {
            "name": "C#3",
            "midi": 49,
            "time": 344.4587544999935,
            "velocity": 0.48031496062992124,
            "duration": 0.10495391666660225
        },
        {
            "name": "A2",
            "midi": 45,
            "time": 344.5487149999935,
            "velocity": 0.5354330708661418,
            "duration": 0.10495391666660225
        },
        {
            "name": "C#3",
            "midi": 49,
            "time": 344.63867549999344,
            "velocity": 0.4881889763779528,
            "duration": 0.10495391666660225
        },
        {
            "name": "F2",
            "midi": 41,
            "time": 344.7286359999934,
            "velocity": 0.5433070866141733,
            "duration": 0.10495391666660225
        },
        {
            "name": "C#3",
            "midi": 49,
            "time": 344.81859649999336,
            "velocity": 0.5196850393700787,
            "duration": 0.10495391666660225
        },
        {
            "name": "F2",
            "midi": 41,
            "time": 344.9085569999933,
            "velocity": 0.5669291338582677,
            "duration": 0.10495391666660225
        },
        {
            "name": "C#3",
            "midi": 49,
            "time": 344.9985174999933,
            "velocity": 0.5354330708661418,
            "duration": 0.10495391666660225
        },
        {
            "name": "F2",
            "midi": 41,
            "time": 345.08847799999324,
            "velocity": 0.5748031496062992,
            "duration": 0.10495391666660225
        },
        {
            "name": "C#3",
            "midi": 49,
            "time": 345.1784384999932,
            "velocity": 0.5354330708661418,
            "duration": 0.10495391666660225
        },
        {
            "name": "F2",
            "midi": 41,
            "time": 345.26839899999317,
            "velocity": 0.5984251968503937,
            "duration": 0.10495391666660225
        },
        {
            "name": "C#3",
            "midi": 49,
            "time": 345.3583594999931,
            "velocity": 0.5511811023622047,
            "duration": 0.10495391666660225
        },
        {
            "name": "C#2",
            "midi": 37,
            "time": 345.4483199999931,
            "velocity": 0.5275590551181102,
            "duration": 2.8787359999999467
        },
        {
            "name": "F#2",
            "midi": 42,
            "time": 345.4483199999931,
            "velocity": 0.6220472440944882,
            "duration": 2.8787359999999467
        },
        {
            "name": "F#1",
            "midi": 30,
            "time": 345.4483199999931,
            "velocity": 0.5275590551181102,
            "duration": 2.8787359999999467
        },
        {
            "name": "D2",
            "midi": 38,
            "time": 348.32705599999304,
            "velocity": 0.41732283464566927,
            "duration": 2.8787360000000035
        },
        {
            "name": "F#2",
            "midi": 42,
            "time": 348.32705599999304,
            "velocity": 0.49606299212598426,
            "duration": 2.8787360000000035
        },
        {
            "name": "F#1",
            "midi": 30,
            "time": 348.32705599999304,
            "velocity": 0.41732283464566927,
            "duration": 2.8787360000000035
        },
        {
            "name": "C#2",
            "midi": 37,
            "time": 351.20579199999304,
            "velocity": 0.41732283464566927,
            "duration": 2.8787360000000035
        },
        {
            "name": "G1",
            "midi": 31,
            "time": 351.20579199999304,
            "velocity": 0.41732283464566927,
            "duration": 2.8787360000000035
        },
        {
            "name": "G2",
            "midi": 43,
            "time": 351.20579199999304,
            "velocity": 0.49606299212598426,
            "duration": 2.8787360000000035
        },
        {
            "name": "C#2",
            "midi": 37,
            "time": 354.08452799999304,
            "velocity": 0.4094488188976378,
            "duration": 2.8787360000000035
        },
        {
            "name": "G#2",
            "midi": 44,
            "time": 354.08452799999304,
            "velocity": 0.4881889763779528,
            "duration": 2.8787360000000035
        },
        {
            "name": "G#1",
            "midi": 32,
            "time": 354.08452799999304,
            "velocity": 0.4094488188976378,
            "duration": 2.8787360000000035
        },
        {
            "name": "C4",
            "midi": 60,
            "time": 359.84199999999305,
            "velocity": 0.4881889763779528,
            "duration": 1.4393680000000018
        },
        {
            "name": "F#4",
            "midi": 66,
            "time": 359.84199999999305,
            "velocity": 0.4881889763779528,
            "duration": 1.4393680000000018
        },
        {
            "name": "G#3",
            "midi": 56,
            "time": 359.84199999999305,
            "velocity": 0.4881889763779528,
            "duration": 1.4393680000000018
        },
        {
            "name": "G1",
            "midi": 31,
            "time": 364.879787999993,
            "velocity": 0.25984251968503935,
            "duration": 1.4393680000000018
        },
        {
            "name": "G2",
            "midi": 43,
            "time": 364.879787999993,
            "velocity": 0.30708661417322836,
            "duration": 1.4393680000000018
        },
        {
            "name": "G#1",
            "midi": 32,
            "time": 366.31915599999303,
            "velocity": 0.2204724409448819,
            "duration": 1.4393680000000018
        },
        {
            "name": "G#2",
            "midi": 44,
            "time": 366.31915599999303,
            "velocity": 0.2677165354330709,
            "duration": 1.4393680000000018
        },
        {
            "name": "C#2",
            "midi": 37,
            "time": 367.75852399999303,
            "velocity": 0.29133858267716534,
            "duration": 0.08996049999996103
        },
        {
            "name": "C#3",
            "midi": 49,
            "time": 367.75852399999303,
            "velocity": 0.29133858267716534,
            "duration": 0.08621214583331493
        },
        {
            "name": "C#3",
            "midi": 49,
            "time": 367.848484499993,
            "velocity": 0.2440944881889764,
            "duration": 0.08996050000001787
        },
        {
            "name": "G#2",
            "midi": 44,
            "time": 367.938444999993,
            "velocity": 0.2755905511811024,
            "duration": 0.08996050000001787
        },
        {
            "name": "C#3",
            "midi": 49,
            "time": 368.028405499993,
            "velocity": 0.2440944881889764,
            "duration": 0.08996050000001787
        },
        {
            "name": "C#2",
            "midi": 37,
            "time": 368.11836599999305,
            "velocity": 0.29133858267716534,
            "duration": 0.08996050000001787
        },
        {
            "name": "C#3",
            "midi": 49,
            "time": 368.20832649999306,
            "velocity": 0.2440944881889764,
            "duration": 0.08921082916668865
        },
        {
            "name": "G#2",
            "midi": 44,
            "time": 368.2982869999931,
            "velocity": 0.2755905511811024,
            "duration": 0.08921082916668865
        },
        {
            "name": "C#3",
            "midi": 49,
            "time": 368.3882474999931,
            "velocity": 0.23622047244094488,
            "duration": 0.08921082916668865
        },
        {
            "name": "C#2",
            "midi": 37,
            "time": 368.4782079999931,
            "velocity": 0.29133858267716534,
            "duration": 0.08921082916668865
        },
        {
            "name": "C#3",
            "midi": 49,
            "time": 368.56816849999313,
            "velocity": 0.25196850393700787,
            "duration": 0.08921082916668865
        },
        {
            "name": "G#2",
            "midi": 44,
            "time": 368.65812899999315,
            "velocity": 0.2755905511811024,
            "duration": 0.08921082916668865
        },
        {
            "name": "C#3",
            "midi": 49,
            "time": 368.74808949999317,
            "velocity": 0.25196850393700787,
            "duration": 0.08921082916668865
        },
        {
            "name": "C#2",
            "midi": 37,
            "time": 368.8380499999932,
            "velocity": 0.29133858267716534,
            "duration": 0.08921082916668865
        },
        {
            "name": "C#3",
            "midi": 49,
            "time": 368.9280104999932,
            "velocity": 0.25196850393700787,
            "duration": 0.08921082916668865
        },
        {
            "name": "G#2",
            "midi": 44,
            "time": 369.0179709999932,
            "velocity": 0.2755905511811024,
            "duration": 0.08921082916668865
        },
        {
            "name": "C#3",
            "midi": 49,
            "time": 369.10793149999324,
            "velocity": 0.23622047244094488,
            "duration": 0.08921082916668865
        },
        {
            "name": "C#2",
            "midi": 37,
            "time": 369.19789199999326,
            "velocity": 0.29133858267716534,
            "duration": 0.08921082916668865
        },
        {
            "name": "D#3",
            "midi": 51,
            "time": 369.2878524999933,
            "velocity": 0.2440944881889764,
            "duration": 0.08921082916668865
        },
        {
            "name": "G#2",
            "midi": 44,
            "time": 369.3778129999933,
            "velocity": 0.2755905511811024,
            "duration": 0.08921082916668865
        },
        {
            "name": "D#3",
            "midi": 51,
            "time": 369.4677734999933,
            "velocity": 0.2440944881889764,
            "duration": 0.08921082916668865
        },
        {
            "name": "C#2",
            "midi": 37,
            "time": 369.55773399999333,
            "velocity": 0.29133858267716534,
            "duration": 0.08921082916668865
        },
        {
            "name": "D#3",
            "midi": 51,
            "time": 369.64769449999335,
            "velocity": 0.23622047244094488,
            "duration": 0.08921082916668865
        },
        {
            "name": "G#2",
            "midi": 44,
            "time": 369.73765499999337,
            "velocity": 0.2755905511811024,
            "duration": 0.08921082916668865
        },
        {
            "name": "D#3",
            "midi": 51,
            "time": 369.8276154999934,
            "velocity": 0.2440944881889764,
            "duration": 0.08921082916668865
        },
        {
            "name": "C#2",
            "midi": 37,
            "time": 369.9175759999934,
            "velocity": 0.29133858267716534,
            "duration": 0.08921082916668865
        },
        {
            "name": "D#3",
            "midi": 51,
            "time": 370.0075364999934,
            "velocity": 0.25196850393700787,
            "duration": 0.08921082916668865
        },
        {
            "name": "G#2",
            "midi": 44,
            "time": 370.09749699999344,
            "velocity": 0.2755905511811024,
            "duration": 0.08921082916668865
        },
        {
            "name": "D#3",
            "midi": 51,
            "time": 370.18745749999346,
            "velocity": 0.2755905511811024,
            "duration": 0.08921082916668865
        },
        {
            "name": "C#2",
            "midi": 37,
            "time": 370.2774179999935,
            "velocity": 0.29133858267716534,
            "duration": 0.08921082916668865
        },
        {
            "name": "D#3",
            "midi": 51,
            "time": 370.3673784999935,
            "velocity": 0.23622047244094488,
            "duration": 0.08921082916668865
        },
        {
            "name": "G#2",
            "midi": 44,
            "time": 370.4573389999935,
            "velocity": 0.2755905511811024,
            "duration": 0.08921082916668865
        },
        {
            "name": "D#3",
            "midi": 51,
            "time": 370.5472994999935,
            "velocity": 0.2440944881889764,
            "duration": 0.08921082916668865
        },
        {
            "name": "C#2",
            "midi": 37,
            "time": 370.63725999999355,
            "velocity": 0.29133858267716534,
            "duration": 0.08921082916668865
        },
        {
            "name": "C#3",
            "midi": 49,
            "time": 370.72722049999356,
            "velocity": 0.23622047244094488,
            "duration": 0.08921082916668865
        },
        {
            "name": "G#2",
            "midi": 44,
            "time": 370.8171809999936,
            "velocity": 0.2755905511811024,
            "duration": 0.08921082916668865
        },
        {
            "name": "C#3",
            "midi": 49,
            "time": 370.9071414999936,
            "velocity": 0.2440944881889764,
            "duration": 0.08921082916668865
        },
        {
            "name": "C#2",
            "midi": 37,
            "time": 370.9971019999936,
            "velocity": 0.29133858267716534,
            "duration": 0.08921082916668865
        },
        {
            "name": "C#3",
            "midi": 49,
            "time": 371.08706249999364,
            "velocity": 0.25196850393700787,
            "duration": 0.08921082916668865
        },
        {
            "name": "G#2",
            "midi": 44,
            "time": 371.17702299999365,
            "velocity": 0.2755905511811024,
            "duration": 0.08921082916668865
        },
        {
            "name": "C#3",
            "midi": 49,
            "time": 371.26698349999367,
            "velocity": 0.23622047244094488,
            "duration": 0.08921082916668865
        },
        {
            "name": "C#2",
            "midi": 37,
            "time": 371.3569439999937,
            "velocity": 0.29133858267716534,
            "duration": 0.08921082916668865
        },
        {
            "name": "C#3",
            "midi": 49,
            "time": 371.4469044999937,
            "velocity": 0.2440944881889764,
            "duration": 0.08921082916668865
        },
        {
            "name": "G#2",
            "midi": 44,
            "time": 371.5368649999937,
            "velocity": 0.2755905511811024,
            "duration": 0.08921082916668865
        },
        {
            "name": "C#3",
            "midi": 49,
            "time": 371.62682549999374,
            "velocity": 0.2440944881889764,
            "duration": 0.08921082916668865
        },
        {
            "name": "C#2",
            "midi": 37,
            "time": 371.71678599999376,
            "velocity": 0.29133858267716534,
            "duration": 0.08921082916668865
        },
        {
            "name": "C#3",
            "midi": 49,
            "time": 371.8067464999938,
            "velocity": 0.2440944881889764,
            "duration": 0.08921082916668865
        },
        {
            "name": "G#2",
            "midi": 44,
            "time": 371.8967069999938,
            "velocity": 0.2755905511811024,
            "duration": 0.08921082916668865
        },
        {
            "name": "C#3",
            "midi": 49,
            "time": 371.9866674999938,
            "velocity": 0.23622047244094488,
            "duration": 0.08921082916668865
        },
        {
            "name": "C#2",
            "midi": 37,
            "time": 372.07662799999383,
            "velocity": 0.29133858267716534,
            "duration": 0.08921082916668865
        },
        {
            "name": "D#3",
            "midi": 51,
            "time": 372.16658849999385,
            "velocity": 0.2440944881889764,
            "duration": 0.08921082916668865
        },
        {
            "name": "G#2",
            "midi": 44,
            "time": 372.25654899999387,
            "velocity": 0.2755905511811024,
            "duration": 0.08921082916668865
        },
        {
            "name": "D#3",
            "midi": 51,
            "time": 372.3465094999939,
            "velocity": 0.2440944881889764,
            "duration": 0.08921082916668865
        },
        {
            "name": "C#2",
            "midi": 37,
            "time": 372.4364699999939,
            "velocity": 0.29133858267716534,
            "duration": 0.08921082916668865
        },
        {
            "name": "D#3",
            "midi": 51,
            "time": 372.5264304999939,
            "velocity": 0.25984251968503935,
            "duration": 0.08921082916668865
        },
        {
            "name": "G#2",
            "midi": 44,
            "time": 372.61639099999394,
            "velocity": 0.2755905511811024,
            "duration": 0.08921082916668865
        },
        {
            "name": "D#3",
            "midi": 51,
            "time": 372.70635149999396,
            "velocity": 0.23622047244094488,
            "duration": 0.08921082916668865
        },
        {
            "name": "C#2",
            "midi": 37,
            "time": 372.796311999994,
            "velocity": 0.29133858267716534,
            "duration": 0.08921082916668865
        },
        {
            "name": "D#3",
            "midi": 51,
            "time": 372.886272499994,
            "velocity": 0.2440944881889764,
            "duration": 0.08921082916668865
        },
        {
            "name": "G#2",
            "midi": 44,
            "time": 372.976232999994,
            "velocity": 0.2755905511811024,
            "duration": 0.08921082916668865
        },
        {
            "name": "D#3",
            "midi": 51,
            "time": 373.06619349999403,
            "velocity": 0.2440944881889764,
            "duration": 0.08921082916668865
        },
        {
            "name": "C#2",
            "midi": 37,
            "time": 373.15615399999405,
            "velocity": 0.29133858267716534,
            "duration": 0.08921082916668865
        },
        {
            "name": "D#3",
            "midi": 51,
            "time": 373.24611449999406,
            "velocity": 0.25196850393700787,
            "duration": 0.08921082916668865
        },
        {
            "name": "G#2",
            "midi": 44,
            "time": 373.3360749999941,
            "velocity": 0.2755905511811024,
            "duration": 0.08921082916668865
        },
        {
            "name": "D#3",
            "midi": 51,
            "time": 373.4260354999941,
            "velocity": 0.25196850393700787,
            "duration": 0.08921082916668865
        },
        {
            "name": "C#2",
            "midi": 37,
            "time": 373.5159959999941,
            "velocity": 0.29133858267716534,
            "duration": 0.08921082916668865
        },
        {
            "name": "C#3",
            "midi": 49,
            "time": 373.60595649999414,
            "velocity": 0.25984251968503935,
            "duration": 0.08921082916668865
        },
        {
            "name": "G#2",
            "midi": 44,
            "time": 373.69591699999415,
            "velocity": 0.2992125984251969,
            "duration": 0.08921082916668865
        },
        {
            "name": "C#3",
            "midi": 49,
            "time": 373.78587749999417,
            "velocity": 0.2677165354330709,
            "duration": 0.08921082916668865
        },
        {
            "name": "C#2",
            "midi": 37,
            "time": 373.8758379999942,
            "velocity": 0.30708661417322836,
            "duration": 0.08921082916668865
        },
        {
            "name": "C#3",
            "midi": 49,
            "time": 373.9657984999942,
            "velocity": 0.2677165354330709,
            "duration": 0.08921082916668865
        },
        {
            "name": "G#2",
            "midi": 44,
            "time": 374.0557589999942,
            "velocity": 0.31496062992125984,
            "duration": 0.08921082916668865
        },
        {
            "name": "C#3",
            "midi": 49,
            "time": 374.14571949999424,
            "velocity": 0.2755905511811024,
            "duration": 0.08921082916668865
        },
        {
            "name": "C#2",
            "midi": 37,
            "time": 374.23567999999426,
            "velocity": 0.3228346456692913,
            "duration": 0.08921082916668865
        },
        {
            "name": "D#3",
            "midi": 51,
            "time": 374.3256404999943,
            "velocity": 0.30708661417322836,
            "duration": 0.08921082916668865
        },
        {
            "name": "G#2",
            "midi": 44,
            "time": 374.4156009999943,
            "velocity": 0.33858267716535434,
            "duration": 0.08921082916668865
        },
        {
            "name": "D#3",
            "midi": 51,
            "time": 374.5055614999943,
            "velocity": 0.30708661417322836,
            "duration": 0.08921082916668865
        },
        {
            "name": "C#2",
            "midi": 37,
            "time": 374.59552199999433,
            "velocity": 0.3543307086614173,
            "duration": 0.08921082916668865
        },
        {
            "name": "D#3",
            "midi": 51,
            "time": 374.68548249999435,
            "velocity": 0.31496062992125984,
            "duration": 0.08921082916668865
        },
        {
            "name": "G#2",
            "midi": 44,
            "time": 374.77544299999437,
            "velocity": 0.3700787401574803,
            "duration": 0.08921082916668865
        },
        {
            "name": "D#3",
            "midi": 51,
            "time": 374.8654034999944,
            "velocity": 0.3228346456692913,
            "duration": 0.08921082916668865
        },
        {
            "name": "C#2",
            "midi": 37,
            "time": 374.9553639999944,
            "velocity": 0.3700787401574803,
            "duration": 0.08921082916668865
        },
        {
            "name": "C#3",
            "midi": 49,
            "time": 375.0453244999944,
            "velocity": 0.33070866141732286,
            "duration": 0.08921082916668865
        },
        {
            "name": "G#2",
            "midi": 44,
            "time": 375.13528499999444,
            "velocity": 0.3937007874015748,
            "duration": 0.08921082916668865
        },
        {
            "name": "C#3",
            "midi": 49,
            "time": 375.22524549999446,
            "velocity": 0.3464566929133858,
            "duration": 0.08921082916668865
        },
        {
            "name": "C#2",
            "midi": 37,
            "time": 375.3152059999945,
            "velocity": 0.4015748031496063,
            "duration": 0.08921082916668865
        },
        {
            "name": "C#3",
            "midi": 49,
            "time": 375.4051664999945,
            "velocity": 0.3700787401574803,
            "duration": 0.08921082916668865
        },
        {
            "name": "G#2",
            "midi": 44,
            "time": 375.4951269999945,
            "velocity": 0.4015748031496063,
            "duration": 0.08921082916668865
        },
        {
            "name": "C#3",
            "midi": 49,
            "time": 375.58508749999453,
            "velocity": 0.36220472440944884,
            "duration": 0.08921082916668865
        },
        {
            "name": "C#2",
            "midi": 37,
            "time": 375.67504799999455,
            "velocity": 0.4094488188976378,
            "duration": 0.08921082916668865
        },
        {
            "name": "D#3",
            "midi": 51,
            "time": 375.76500849999456,
            "velocity": 0.3937007874015748,
            "duration": 0.08921082916668865
        },
        {
            "name": "G#2",
            "midi": 44,
            "time": 375.8549689999946,
            "velocity": 0.4251968503937008,
            "duration": 0.08921082916668865
        },
        {
            "name": "D#3",
            "midi": 51,
            "time": 375.9449294999946,
            "velocity": 0.3937007874015748,
            "duration": 0.08921082916668865
        },
        {
            "name": "C#2",
            "midi": 37,
            "time": 376.0348899999946,
            "velocity": 0.4409448818897638,
            "duration": 0.08921082916668865
        },
        {
            "name": "D#3",
            "midi": 51,
            "time": 376.12485049999464,
            "velocity": 0.4015748031496063,
            "duration": 0.08921082916668865
        },
        {
            "name": "G#2",
            "midi": 44,
            "time": 376.21481099999465,
            "velocity": 0.44881889763779526,
            "duration": 0.08921082916668865
        },
        {
            "name": "D#3",
            "midi": 51,
            "time": 376.3047714999947,
            "velocity": 0.4015748031496063,
            "duration": 0.08921082916668865
        },
        {
            "name": "G#2",
            "midi": 44,
            "time": 376.3947319999947,
            "velocity": 0.5354330708661418,
            "duration": 0.1049539166666591
        },
        {
            "name": "C#3",
            "midi": 49,
            "time": 376.3947319999947,
            "velocity": 0.5354330708661418,
            "duration": 0.1049539166666591
        },
        {
            "name": "C#2",
            "midi": 37,
            "time": 376.3947319999947,
            "velocity": 0.44881889763779526,
            "duration": 0.1049539166666591
        },
        {
            "name": "E3",
            "midi": 52,
            "time": 376.4846924999947,
            "velocity": 0.44881889763779526,
            "duration": 0.10495391666660225
        },
        {
            "name": "G#3",
            "midi": 56,
            "time": 376.57465299999467,
            "velocity": 0.47244094488188976,
            "duration": 0.10495391666660225
        },
        {
            "name": "C#4",
            "midi": 61,
            "time": 376.66461349999463,
            "velocity": 0.4409448818897638,
            "duration": 0.10495391666660225
        },
        {
            "name": "E4",
            "midi": 64,
            "time": 376.7545739999946,
            "velocity": 0.4881889763779528,
            "duration": 0.10495391666660225
        },
        {
            "name": "G#3",
            "midi": 56,
            "time": 376.84453449999455,
            "velocity": 0.44881889763779526,
            "duration": 0.10495391666660225
        },
        {
            "name": "C#4",
            "midi": 61,
            "time": 376.9344949999945,
            "velocity": 0.4566929133858268,
            "duration": 0.10495391666660225
        },
        {
            "name": "E4",
            "midi": 64,
            "time": 377.0244554999945,
            "velocity": 0.44881889763779526,
            "duration": 0.10495391666660225
        },
        {
            "name": "G#4",
            "midi": 68,
            "time": 377.11441599999443,
            "velocity": 0.4881889763779528,
            "duration": 0.10495391666660225
        },
        {
            "name": "C#4",
            "midi": 61,
            "time": 377.2043764999944,
            "velocity": 0.4566929133858268,
            "duration": 0.10495391666660225
        },
        {
            "name": "E4",
            "midi": 64,
            "time": 377.29433699999436,
            "velocity": 0.4566929133858268,
            "duration": 0.10495391666660225
        },
        {
            "name": "G#4",
            "midi": 68,
            "time": 377.3842974999943,
            "velocity": 0.44881889763779526,
            "duration": 0.10495391666660225
        },
        {
            "name": "C#5",
            "midi": 73,
            "time": 377.4742579999943,
            "velocity": 0.49606299212598426,
            "duration": 0.10495391666660225
        },
        {
            "name": "E4",
            "midi": 64,
            "time": 377.56421849999424,
            "velocity": 0.47244094488188976,
            "duration": 0.10495391666660225
        },
        {
            "name": "G#4",
            "midi": 68,
            "time": 377.6541789999942,
            "velocity": 0.4881889763779528,
            "duration": 0.10495391666660225
        },
        {
            "name": "C#5",
            "midi": 73,
            "time": 377.74413949999416,
            "velocity": 0.47244094488188976,
            "duration": 0.10495391666660225
        },
        {
            "name": "E5",
            "midi": 76,
            "time": 377.8340999999941,
            "velocity": 0.5354330708661418,
            "duration": 0.10495391666660225
        },
        {
            "name": "C#5",
            "midi": 73,
            "time": 377.9240604999941,
            "velocity": 0.5039370078740157,
            "duration": 0.10495391666660225
        },
        {
            "name": "G#4",
            "midi": 68,
            "time": 378.01402099999405,
            "velocity": 0.49606299212598426,
            "duration": 0.10495391666660225
        },
        {
            "name": "E4",
            "midi": 64,
            "time": 378.103981499994,
            "velocity": 0.48031496062992124,
            "duration": 0.10495391666660225
        },
        {
            "name": "C#5",
            "midi": 73,
            "time": 378.19394199999397,
            "velocity": 0.5275590551181102,
            "duration": 0.10495391666660225
        },
        {
            "name": "G#4",
            "midi": 68,
            "time": 378.2839024999939,
            "velocity": 0.5039370078740157,
            "duration": 0.10495391666660225
        },
        {
            "name": "E4",
            "midi": 64,
            "time": 378.3738629999939,
            "velocity": 0.4881889763779528,
            "duration": 0.10495391666660225
        },
        {
            "name": "C#4",
            "midi": 61,
            "time": 378.46382349999385,
            "velocity": 0.4881889763779528,
            "duration": 0.10495391666660225
        },
        {
            "name": "G#4",
            "midi": 68,
            "time": 378.5537839999938,
            "velocity": 0.5275590551181102,
            "duration": 0.10495391666660225
        },
        {
            "name": "E4",
            "midi": 64,
            "time": 378.6437444999938,
            "velocity": 0.5039370078740157,
            "duration": 0.10495391666660225
        },
        {
            "name": "C#4",
            "midi": 61,
            "time": 378.73370499999373,
            "velocity": 0.4881889763779528,
            "duration": 0.10495391666660225
        },
        {
            "name": "G#3",
            "midi": 56,
            "time": 378.8236654999937,
            "velocity": 0.4881889763779528,
            "duration": 0.10495391666660225
        },
        {
            "name": "E4",
            "midi": 64,
            "time": 378.91362599999366,
            "velocity": 0.5275590551181102,
            "duration": 0.10495391666660225
        },
        {
            "name": "C#4",
            "midi": 61,
            "time": 379.0035864999936,
            "velocity": 0.5039370078740157,
            "duration": 0.10495391666660225
        },
        {
            "name": "G#3",
            "midi": 56,
            "time": 379.0935469999936,
            "velocity": 0.4881889763779528,
            "duration": 0.10495391666660225
        },
        {
            "name": "E3",
            "midi": 52,
            "time": 379.18350749999354,
            "velocity": 0.4881889763779528,
            "duration": 0.10495391666660225
        },
        {
            "name": "C#4",
            "midi": 61,
            "time": 379.2734679999935,
            "velocity": 0.49606299212598426,
            "duration": 0.10495391666660225
        },
        {
            "name": "G#3",
            "midi": 56,
            "time": 379.36342849999346,
            "velocity": 0.4881889763779528,
            "duration": 0.10495391666660225
        },
        {
            "name": "E3",
            "midi": 52,
            "time": 379.4533889999934,
            "velocity": 0.4881889763779528,
            "duration": 0.10495391666660225
        },
        {
            "name": "C#3",
            "midi": 49,
            "time": 379.5433494999934,
            "velocity": 0.47244094488188976,
            "duration": 0.10495391666660225
        },
        {
            "name": "G#3",
            "midi": 56,
            "time": 379.63330999999334,
            "velocity": 0.5039370078740157,
            "duration": 0.10495391666660225
        },
        {
            "name": "E3",
            "midi": 52,
            "time": 379.7232704999933,
            "velocity": 0.49606299212598426,
            "duration": 0.10495391666660225
        },
        {
            "name": "C#3",
            "midi": 49,
            "time": 379.81323099999327,
            "velocity": 0.4881889763779528,
            "duration": 0.10495391666660225
        },
        {
            "name": "G#2",
            "midi": 44,
            "time": 379.9031914999932,
            "velocity": 0.47244094488188976,
            "duration": 0.10495391666660225
        },
        {
            "name": "E3",
            "midi": 52,
            "time": 379.9931519999932,
            "velocity": 0.5196850393700787,
            "duration": 0.10495391666660225
        },
        {
            "name": "C#3",
            "midi": 49,
            "time": 380.08311249999315,
            "velocity": 0.5196850393700787,
            "duration": 0.10495391666660225
        },
        {
            "name": "G#2",
            "midi": 44,
            "time": 380.1730729999931,
            "velocity": 0.49606299212598426,
            "duration": 0.10495391666660225
        },
        {
            "name": "E2",
            "midi": 40,
            "time": 380.26303349999307,
            "velocity": 0.48031496062992124,
            "duration": 0.10495391666660225
        },
        {
            "name": "C#3",
            "midi": 49,
            "time": 380.35299399999303,
            "velocity": 0.5196850393700787,
            "duration": 0.10495391666660225
        },
        {
            "name": "G#2",
            "midi": 44,
            "time": 380.442954499993,
            "velocity": 0.5039370078740157,
            "duration": 0.10495391666660225
        },
        {
            "name": "E2",
            "midi": 40,
            "time": 380.53291499999295,
            "velocity": 0.49606299212598426,
            "duration": 0.10495391666660225
        },
        {
            "name": "G#2",
            "midi": 44,
            "time": 380.6228754999929,
            "velocity": 0.4881889763779528,
            "duration": 0.10495391666660225
        },
        {
            "name": "C#2",
            "midi": 37,
            "time": 380.7128359999929,
            "velocity": 0.4881889763779528,
            "duration": 0.3598419999999578
        },
        {
            "name": "C#2",
            "midi": 37,
            "time": 381.43251999999285,
            "velocity": 0.5275590551181102,
            "duration": 0.2698814999999968
        },
        {
            "name": "E2",
            "midi": 40,
            "time": 381.43251999999285,
            "velocity": 0.5275590551181102,
            "duration": 0.2698814999999968
        },
        {
            "name": "G#2",
            "midi": 44,
            "time": 381.43251999999285,
            "velocity": 0.6220472440944882,
            "duration": 0.2698814999999968
        },
        {
            "name": "C#3",
            "midi": 49,
            "time": 381.43251999999285,
            "velocity": 0.6220472440944882,
            "duration": 0.2698814999999968
        },
        {
            "name": "G#2",
            "midi": 44,
            "time": 382.1522039999928,
            "velocity": 0.6220472440944882,
            "duration": 0.2698814999999968
        },
        {
            "name": "C#2",
            "midi": 37,
            "time": 382.1522039999928,
            "velocity": 0.5275590551181102,
            "duration": 0.2698814999999968
        },
        {
            "name": "E2",
            "midi": 40,
            "time": 382.1522039999928,
            "velocity": 0.5275590551181102,
            "duration": 0.2698814999999968
        },
        {
            "name": "C#3",
            "midi": 49,
            "time": 382.1522039999928,
            "velocity": 0.6220472440944882,
            "duration": 0.2698814999999968
        }
        ],
        "controlChanges": {
        "7": [
            {
            "number": 7,
            "time": 0,
            "value": 0.7874015748031497
            }
        ],
        "10": [
            {
            "number": 10,
            "time": 0,
            "value": 0.5039370078740157
            }
        ],
        "91": [
            {
            "number": 91,
            "time": 0,
            "value": 1
            },
            {
            "number": 91,
            "time": 184.2391039999951,
            "value": 1
            },
            {
            "number": 91,
            "time": 237.49571999999117,
            "value": 1
            },
            {
            "number": 91,
            "time": 319.5396959999928,
            "value": 1
            }
        ]
        },
        "id": 2,
        "name": "Piano left",
        "instrumentNumber": 0,
        "instrument": "acoustic grand piano",
        "instrumentFamily": "piano",
        "channelNumber": 0,
        "isPercussion": false
    },
    {
        "startTime": 0,
        "duration": 0,
        "length": 0,
        "notes": [],
        "controlChanges": {
        "64": [
            {
            "number": 64,
            "time": 0,
            "value": 0
            },
            {
            "number": 64,
            "time": 2.582616020833333,
            "value": 1
            },
            {
            "number": 64,
            "time": 2.88773205,
            "value": 0
            },
            {
            "number": 64,
            "time": 5.462101691666667,
            "value": 1
            },
            {
            "number": 64,
            "time": 5.770216404166667,
            "value": 0
            },
            {
            "number": 64,
            "time": 8.310850858333334,
            "value": 1
            },
            {
            "number": 64,
            "time": 8.639206683333333,
            "value": 0
            },
            {
            "number": 64,
            "time": 9.744971162499999,
            "value": 1
            },
            {
            "number": 64,
            "time": 10.075575999999998,
            "value": 0
            },
            {
            "number": 64,
            "time": 11.208328629166665,
            "value": 1
            },
            {
            "number": 64,
            "time": 11.514943999999998,
            "value": 0
            },
            {
            "number": 64,
            "time": 11.737596237499998,
            "value": 1
            },
            {
            "number": 64,
            "time": 12.067451404166665,
            "value": 0
            },
            {
            "number": 64,
            "time": 12.119178691666665,
            "value": 1
            },
            {
            "number": 64,
            "time": 12.247372404166665,
            "value": 0
            },
            {
            "number": 64,
            "time": 12.299099691666665,
            "value": 1
            },
            {
            "number": 64,
            "time": 12.423545049999998,
            "value": 0
            },
            {
            "number": 64,
            "time": 12.470774312499998,
            "value": 1
            },
            {
            "number": 64,
            "time": 12.607214404166665,
            "value": 0
            },
            {
            "number": 64,
            "time": 12.654443666666666,
            "value": 1
            },
            {
            "number": 64,
            "time": 12.787135404166666,
            "value": 0
            },
            {
            "number": 64,
            "time": 12.826118287499998,
            "value": 1
            },
            {
            "number": 64,
            "time": 12.960309366666666,
            "value": 0
            },
            {
            "number": 64,
            "time": 13.014285666666666,
            "value": 1
            },
            {
            "number": 64,
            "time": 13.147727074999999,
            "value": 0
            },
            {
            "number": 64,
            "time": 13.194206666666666,
            "value": 1
            },
            {
            "number": 64,
            "time": 13.326898404166666,
            "value": 0
            },
            {
            "number": 64,
            "time": 13.365881287499999,
            "value": 1
            },
            {
            "number": 64,
            "time": 13.506819404166665,
            "value": 0
            },
            {
            "number": 64,
            "time": 13.563044716666665,
            "value": 1
            },
            {
            "number": 64,
            "time": 13.688239745833332,
            "value": 0
            },
            {
            "number": 64,
            "time": 13.738467691666665,
            "value": 1
            },
            {
            "number": 64,
            "time": 13.864412391666665,
            "value": 0
            },
            {
            "number": 64,
            "time": 13.918388691666665,
            "value": 1
            },
            {
            "number": 64,
            "time": 14.042834049999998,
            "value": 0
            },
            {
            "number": 64,
            "time": 14.102807716666664,
            "value": 1
            },
            {
            "number": 64,
            "time": 14.22125570833333,
            "value": 0
            },
            {
            "number": 64,
            "time": 14.269984312499998,
            "value": 1
            },
            {
            "number": 64,
            "time": 14.399677366666666,
            "value": 0
            },
            {
            "number": 64,
            "time": 14.462649716666666,
            "value": 1
            },
            {
            "number": 64,
            "time": 14.946937075,
            "value": 0
            },
            {
            "number": 64,
            "time": 14.9896683125,
            "value": 1
            },
            {
            "number": 64,
            "time": 15.1246090625,
            "value": 0
            },
            {
            "number": 64,
            "time": 15.173337666666667,
            "value": 1
            },
            {
            "number": 64,
            "time": 15.306029404166667,
            "value": 0
            },
            {
            "number": 64,
            "time": 15.357756691666667,
            "value": 1
            },
            {
            "number": 64,
            "time": 15.4844510625,
            "value": 0
            },
            {
            "number": 64,
            "time": 15.537677691666666,
            "value": 1
            },
            {
            "number": 64,
            "time": 15.666621074999998,
            "value": 0
            },
            {
            "number": 64,
            "time": 15.709352312499998,
            "value": 1
            },
            {
            "number": 64,
            "time": 15.839045366666666,
            "value": 0
            },
            {
            "number": 64,
            "time": 15.893021666666666,
            "value": 1
            },
            {
            "number": 64,
            "time": 16.02271472083333,
            "value": 0
            },
            {
            "number": 64,
            "time": 16.077440691666666,
            "value": 1
            },
            {
            "number": 64,
            "time": 16.20713374583333,
            "value": 0
            },
            {
            "number": 64,
            "time": 16.2491153125,
            "value": 1
            },
            {
            "number": 64,
            "time": 16.387054745833332,
            "value": 0
            },
            {
            "number": 64,
            "time": 16.4290363125,
            "value": 1
            },
            {
            "number": 64,
            "time": 16.569224758333334,
            "value": 0
            },
            {
            "number": 64,
            "time": 16.617203691666667,
            "value": 1
            },
            {
            "number": 64,
            "time": 16.744647733333334,
            "value": 0
            },
            {
            "number": 64,
            "time": 16.7888783125,
            "value": 1
            },
            {
            "number": 64,
            "time": 16.926817745833333,
            "value": 0
            },
            {
            "number": 64,
            "time": 16.972547666666667,
            "value": 1
            },
            {
            "number": 64,
            "time": 17.103740062500002,
            "value": 0
            },
            {
            "number": 64,
            "time": 17.139724262500003,
            "value": 1
            },
            {
            "number": 64,
            "time": 17.272416000000003,
            "value": 0
            },
            {
            "number": 64,
            "time": 17.311398883333336,
            "value": 1
            },
            {
            "number": 64,
            "time": 17.366874525000004,
            "value": 0
            },
            {
            "number": 64,
            "time": 17.46957942916667,
            "value": 1
            },
            {
            "number": 64,
            "time": 17.542297500000004,
            "value": 0
            },
            {
            "number": 64,
            "time": 17.64950042916667,
            "value": 1
            },
            {
            "number": 64,
            "time": 17.74770730833334,
            "value": 0
            },
            {
            "number": 64,
            "time": 17.84216583333334,
            "value": 1
            },
            {
            "number": 64,
            "time": 17.93662435833334,
            "value": 0
            },
            {
            "number": 64,
            "time": 18.02208683333334,
            "value": 1
            },
            {
            "number": 64,
            "time": 18.11654535833334,
            "value": 0
            },
            {
            "number": 64,
            "time": 18.19750980833334,
            "value": 1
            },
            {
            "number": 64,
            "time": 18.300214712500008,
            "value": 0
            },
            {
            "number": 64,
            "time": 18.390175212500008,
            "value": 1
            },
            {
            "number": 64,
            "time": 18.48463373750001,
            "value": 0
            },
            {
            "number": 64,
            "time": 18.570096212500008,
            "value": 1
            },
            {
            "number": 64,
            "time": 18.643563954166673,
            "value": 0
            },
            {
            "number": 64,
            "time": 18.729026429166673,
            "value": 1
            },
            {
            "number": 64,
            "time": 18.92618985833334,
            "value": 0
            },
            {
            "number": 64,
            "time": 19.217811812500006,
            "value": 1
            },
            {
            "number": 64,
            "time": 20.151152000000007,
            "value": 0
            },
            {
            "number": 64,
            "time": 22.739015716666675,
            "value": 1
            },
            {
            "number": 64,
            "time": 23.029888000000007,
            "value": 0
            },
            {
            "number": 64,
            "time": 25.600509287500007,
            "value": 1
            },
            {
            "number": 64,
            "time": 25.908624000000007,
            "value": 0
            },
            {
            "number": 64,
            "time": 29.171941137500006,
            "value": 1
            },
            {
            "number": 64,
            "time": 30.226728000000005,
            "value": 0
            },
            {
            "number": 64,
            "time": 30.64429465416667,
            "value": 1
            },
            {
            "number": 64,
            "time": 31.666096000000003,
            "value": 0
            },
            {
            "number": 64,
            "time": 31.724570325000002,
            "value": 1
            },
            {
            "number": 64,
            "time": 32.046928783333335,
            "value": 0
            },
            {
            "number": 64,
            "time": 32.11065080416667,
            "value": 1
            },
            {
            "number": 64,
            "time": 33.105464,
            "value": 0
            },
            {
            "number": 64,
            "time": 33.16543766666666,
            "value": 1
            },
            {
            "number": 64,
            "time": 33.47805040416666,
            "value": 0
            },
            {
            "number": 64,
            "time": 33.534275716666656,
            "value": 1
            },
            {
            "number": 64,
            "time": 34.54483199999999,
            "value": 0
            },
            {
            "number": 64,
            "time": 34.74049608749999,
            "value": 1
            },
            {
            "number": 64,
            "time": 35.624357999999994,
            "value": 0
            },
            {
            "number": 64,
            "time": 36.21135026249999,
            "value": 1
            },
            {
            "number": 64,
            "time": 37.076470404166656,
            "value": 0
            },
            {
            "number": 64,
            "time": 37.64622023749999,
            "value": 1
            },
            {
            "number": 64,
            "time": 38.34491345416666,
            "value": 0
            },
            {
            "number": 64,
            "time": 39.141813549999995,
            "value": 1
            },
            {
            "number": 64,
            "time": 39.77978342916666,
            "value": 0
            },
            {
            "number": 64,
            "time": 41.741671999999994,
            "value": 0
            },
            {
            "number": 64,
            "time": 41.77390784583333,
            "value": 1
            },
            {
            "number": 64,
            "time": 42.11425840416666,
            "value": 0
            },
            {
            "number": 64,
            "time": 43.181039999999996,
            "value": 0
            },
            {
            "number": 64,
            "time": 44.642148454166666,
            "value": 0
            },
            {
            "number": 64,
            "time": 44.657141870833335,
            "value": 1
            },
            {
            "number": 64,
            "time": 44.9914950625,
            "value": 0
            },
            {
            "number": 64,
            "time": 46.10775493333333,
            "value": 0
            },
            {
            "number": 64,
            "time": 50.4251092625,
            "value": 1
            },
            {
            "number": 64,
            "time": 51.1088090625,
            "value": 0
            },
            {
            "number": 64,
            "time": 51.14254425,
            "value": 1
            },
            {
            "number": 64,
            "time": 51.82549437916667,
            "value": 0
            },
            {
            "number": 64,
            "time": 57.63919169166667,
            "value": 1
            },
            {
            "number": 64,
            "time": 58.3011510375,
            "value": 0
            },
            {
            "number": 64,
            "time": 58.354377666666664,
            "value": 1
            },
            {
            "number": 64,
            "time": 59.02608273333333,
            "value": 0
            },
            {
            "number": 64,
            "time": 59.07855969166667,
            "value": 1
            },
            {
            "number": 64,
            "time": 59.74576673333333,
            "value": 0
            },
            {
            "number": 64,
            "time": 59.81098809583333,
            "value": 1
            },
            {
            "number": 64,
            "time": 60.459453366666665,
            "value": 0
            },
            {
            "number": 64,
            "time": 66.629244325,
            "value": 1
            },
            {
            "number": 64,
            "time": 66.7934222375,
            "value": 0
            },
            {
            "number": 64,
            "time": 67.35417602083334,
            "value": 1
            },
            {
            "number": 64,
            "time": 67.54984010833334,
            "value": 0
            },
            {
            "number": 64,
            "time": 68.04462285833334,
            "value": 1
            },
            {
            "number": 64,
            "time": 68.27027377916667,
            "value": 0
            },
            {
            "number": 64,
            "time": 68.77630159166667,
            "value": 1
            },
            {
            "number": 64,
            "time": 68.9974544875,
            "value": 0
            },
            {
            "number": 64,
            "time": 69.33855471666666,
            "value": 1
            },
            {
            "number": 64,
            "time": 70.18193440416667,
            "value": 0
            },
            {
            "number": 64,
            "time": 70.26364852500001,
            "value": 1
            },
            {
            "number": 64,
            "time": 70.35660770833334,
            "value": 0
            },
            {
            "number": 64,
            "time": 70.41808071666668,
            "value": 1
            },
            {
            "number": 64,
            "time": 70.53128101250002,
            "value": 0
            },
            {
            "number": 64,
            "time": 70.58300830000002,
            "value": 1
            },
            {
            "number": 64,
            "time": 70.72244707500002,
            "value": 0
            },
            {
            "number": 64,
            "time": 70.79666448750002,
            "value": 1
            },
            {
            "number": 64,
            "time": 71.61605470833335,
            "value": 0
            },
            {
            "number": 64,
            "time": 71.67677804583334,
            "value": 1
            },
            {
            "number": 64,
            "time": 71.79597570833334,
            "value": 0
            },
            {
            "number": 64,
            "time": 71.84245530000001,
            "value": 1
            },
            {
            "number": 64,
            "time": 71.97514703750001,
            "value": 0
            },
            {
            "number": 64,
            "time": 72.04561609583334,
            "value": 1
            },
            {
            "number": 64,
            "time": 72.1595660625,
            "value": 0
            },
            {
            "number": 64,
            "time": 72.242779525,
            "value": 1
            },
            {
            "number": 64,
            "time": 73.05692205,
            "value": 0
            },
            {
            "number": 64,
            "time": 73.142384525,
            "value": 1
            },
            {
            "number": 64,
            "time": 73.23909206249999,
            "value": 0
            },
            {
            "number": 64,
            "time": 73.31405914583333,
            "value": 1
            },
            {
            "number": 64,
            "time": 73.40776799999999,
            "value": 0
            },
            {
            "number": 64,
            "time": 73.47149002083333,
            "value": 1
            },
            {
            "number": 64,
            "time": 74.49778939166666,
            "value": 0
            },
            {
            "number": 64,
            "time": 74.5412703,
            "value": 1
            },
            {
            "number": 64,
            "time": 74.67546137916666,
            "value": 0
            },
            {
            "number": 64,
            "time": 74.73093702083332,
            "value": 1
            },
            {
            "number": 64,
            "time": 74.85238369583332,
            "value": 0
            },
            {
            "number": 64,
            "time": 75.25495693333332,
            "value": 1
            },
            {
            "number": 64,
            "time": 75.45586871666666,
            "value": 0
            },
            {
            "number": 64,
            "time": 75.99563171666665,
            "value": 1
            },
            {
            "number": 64,
            "time": 76.18604810833332,
            "value": 0
            },
            {
            "number": 64,
            "time": 76.70257131249998,
            "value": 1
            },
            {
            "number": 64,
            "time": 76.96495610416665,
            "value": 0
            },
            {
            "number": 64,
            "time": 77.38552144166664,
            "value": 1
            },
            {
            "number": 64,
            "time": 77.74686278333331,
            "value": 0
            },
            {
            "number": 64,
            "time": 78.13894062916664,
            "value": 1
            },
            {
            "number": 64,
            "time": 78.39832673749997,
            "value": 0
            },
            {
            "number": 64,
            "time": 78.84812923749998,
            "value": 1
            },
            {
            "number": 64,
            "time": 79.07527949999998,
            "value": 0
            },
            {
            "number": 64,
            "time": 79.58130731249997,
            "value": 1
            },
            {
            "number": 64,
            "time": 79.80770790416663,
            "value": 0
            },
            {
            "number": 64,
            "time": 80.29649328749997,
            "value": 1
            },
            {
            "number": 64,
            "time": 80.60460799999997,
            "value": 0
            },
            {
            "number": 64,
            "time": 80.69456849999997,
            "value": 1
            },
            {
            "number": 64,
            "time": 82.05072303749998,
            "value": 0
            },
            {
            "number": 64,
            "time": 82.10469933749998,
            "value": 1
            },
            {
            "number": 64,
            "time": 83.49908708749999,
            "value": 0
            },
            {
            "number": 64,
            "time": 83.56280910833333,
            "value": 1
            },
            {
            "number": 64,
            "time": 84.92271199999999,
            "value": 0
            },
            {
            "number": 64,
            "time": 84.97593862916666,
            "value": 1
            },
            {
            "number": 64,
            "time": 86.36807736666667,
            "value": 0
            },
            {
            "number": 64,
            "time": 86.43479807083334,
            "value": 1
            },
            {
            "number": 64,
            "time": 87.09076005,
            "value": 0
            },
            {
            "number": 64,
            "time": 87.15448207083334,
            "value": 1
            },
            {
            "number": 64,
            "time": 87.80744536666667,
            "value": 0
            },
            {
            "number": 64,
            "time": 87.85917265416667,
            "value": 1
            },
            {
            "number": 64,
            "time": 88.52937837916667,
            "value": 0
            },
            {
            "number": 64,
            "time": 88.57510830000001,
            "value": 1
            },
            {
            "number": 64,
            "time": 89.24606369583334,
            "value": 0
            },
            {
            "number": 64,
            "time": 89.30978571666668,
            "value": 1
            },
            {
            "number": 64,
            "time": 90.68018400000001,
            "value": 0
            },
            {
            "number": 64,
            "time": 90.73640931250002,
            "value": 1
            },
            {
            "number": 64,
            "time": 92.11955200000001,
            "value": 0
            },
            {
            "number": 64,
            "time": 94.70216802083334,
            "value": 1
            },
            {
            "number": 64,
            "time": 95.00728405000001,
            "value": 0
            },
            {
            "number": 64,
            "time": 97.58165369166667,
            "value": 1
            },
            {
            "number": 64,
            "time": 97.88976840416667,
            "value": 0
            },
            {
            "number": 64,
            "time": 100.43040285833334,
            "value": 1
            },
            {
            "number": 64,
            "time": 100.75875868333334,
            "value": 0
            },
            {
            "number": 64,
            "time": 101.8645231625,
            "value": 1
            },
            {
            "number": 64,
            "time": 102.19512800000001,
            "value": 0
            },
            {
            "number": 64,
            "time": 103.32788062916667,
            "value": 1
            },
            {
            "number": 64,
            "time": 103.634496,
            "value": 0
            },
            {
            "number": 64,
            "time": 103.8571482375,
            "value": 1
            },
            {
            "number": 64,
            "time": 104.18700340416666,
            "value": 0
            },
            {
            "number": 64,
            "time": 104.23873069166666,
            "value": 1
            },
            {
            "number": 64,
            "time": 104.36692440416667,
            "value": 0
            },
            {
            "number": 64,
            "time": 104.41865169166667,
            "value": 1
            },
            {
            "number": 64,
            "time": 104.54309705,
            "value": 0
            },
            {
            "number": 64,
            "time": 104.5903263125,
            "value": 1
            },
            {
            "number": 64,
            "time": 104.72676640416667,
            "value": 0
            },
            {
            "number": 64,
            "time": 104.77399566666666,
            "value": 1
            },
            {
            "number": 64,
            "time": 104.90668740416666,
            "value": 0
            },
            {
            "number": 64,
            "time": 104.9456702875,
            "value": 1
            },
            {
            "number": 64,
            "time": 105.07986136666666,
            "value": 0
            },
            {
            "number": 64,
            "time": 105.13383766666666,
            "value": 1
            },
            {
            "number": 64,
            "time": 105.267279075,
            "value": 0
            },
            {
            "number": 64,
            "time": 105.31375866666667,
            "value": 1
            },
            {
            "number": 64,
            "time": 105.44645040416667,
            "value": 0
            },
            {
            "number": 64,
            "time": 105.4854332875,
            "value": 1
            },
            {
            "number": 64,
            "time": 105.62637140416666,
            "value": 0
            },
            {
            "number": 64,
            "time": 105.68259671666667,
            "value": 1
            },
            {
            "number": 64,
            "time": 105.80779174583333,
            "value": 0
            },
            {
            "number": 64,
            "time": 105.85801969166666,
            "value": 1
            },
            {
            "number": 64,
            "time": 105.98396439166666,
            "value": 0
            },
            {
            "number": 64,
            "time": 106.03794069166666,
            "value": 1
            },
            {
            "number": 64,
            "time": 106.16238605,
            "value": 0
            },
            {
            "number": 64,
            "time": 106.22235971666666,
            "value": 1
            },
            {
            "number": 64,
            "time": 106.34080770833333,
            "value": 0
            },
            {
            "number": 64,
            "time": 106.3895363125,
            "value": 1
            },
            {
            "number": 64,
            "time": 106.51922936666666,
            "value": 0
            },
            {
            "number": 64,
            "time": 106.58220171666666,
            "value": 1
            },
            {
            "number": 64,
            "time": 107.06648907499999,
            "value": 0
            },
            {
            "number": 64,
            "time": 107.1092203125,
            "value": 1
            },
            {
            "number": 64,
            "time": 107.2441610625,
            "value": 0
            },
            {
            "number": 64,
            "time": 107.29288966666667,
            "value": 1
            },
            {
            "number": 64,
            "time": 107.42558140416666,
            "value": 0
            },
            {
            "number": 64,
            "time": 107.47730869166666,
            "value": 1
            },
            {
            "number": 64,
            "time": 107.6040030625,
            "value": 0
            },
            {
            "number": 64,
            "time": 107.65722969166667,
            "value": 1
            },
            {
            "number": 64,
            "time": 107.78617307500001,
            "value": 0
            },
            {
            "number": 64,
            "time": 107.82890431250001,
            "value": 1
            },
            {
            "number": 64,
            "time": 107.95859736666668,
            "value": 0
            },
            {
            "number": 64,
            "time": 108.01257366666668,
            "value": 1
            },
            {
            "number": 64,
            "time": 108.14226672083335,
            "value": 0
            },
            {
            "number": 64,
            "time": 108.19699269166668,
            "value": 1
            },
            {
            "number": 64,
            "time": 108.32668574583334,
            "value": 0
            },
            {
            "number": 64,
            "time": 108.36866731250001,
            "value": 1
            },
            {
            "number": 64,
            "time": 108.50660674583334,
            "value": 0
            },
            {
            "number": 64,
            "time": 108.5485883125,
            "value": 1
            },
            {
            "number": 64,
            "time": 108.68877675833333,
            "value": 0
            },
            {
            "number": 64,
            "time": 108.73675569166667,
            "value": 1
            },
            {
            "number": 64,
            "time": 108.86419973333334,
            "value": 0
            },
            {
            "number": 64,
            "time": 108.9084303125,
            "value": 1
            },
            {
            "number": 64,
            "time": 109.04636974583333,
            "value": 0
            },
            {
            "number": 64,
            "time": 109.09209966666667,
            "value": 1
            },
            {
            "number": 64,
            "time": 109.22329206250001,
            "value": 0
            },
            {
            "number": 64,
            "time": 109.25927626250001,
            "value": 1
            },
            {
            "number": 64,
            "time": 109.391968,
            "value": 0
            },
            {
            "number": 64,
            "time": 109.43095088333334,
            "value": 1
            },
            {
            "number": 64,
            "time": 109.486426525,
            "value": 0
            },
            {
            "number": 64,
            "time": 109.58913142916667,
            "value": 1
            },
            {
            "number": 64,
            "time": 109.6618495,
            "value": 0
            },
            {
            "number": 64,
            "time": 109.76905242916666,
            "value": 1
            },
            {
            "number": 64,
            "time": 109.86725930833333,
            "value": 0
            },
            {
            "number": 64,
            "time": 109.96171783333332,
            "value": 1
            },
            {
            "number": 64,
            "time": 110.05617635833332,
            "value": 0
            },
            {
            "number": 64,
            "time": 110.14163883333332,
            "value": 1
            },
            {
            "number": 64,
            "time": 110.23609735833331,
            "value": 0
            },
            {
            "number": 64,
            "time": 110.3170618083333,
            "value": 1
            },
            {
            "number": 64,
            "time": 110.41976671249998,
            "value": 0
            },
            {
            "number": 64,
            "time": 110.50972721249998,
            "value": 1
            },
            {
            "number": 64,
            "time": 110.60418573749998,
            "value": 0
            },
            {
            "number": 64,
            "time": 110.68964821249997,
            "value": 1
            },
            {
            "number": 64,
            "time": 110.76311595416664,
            "value": 0
            },
            {
            "number": 64,
            "time": 110.84857842916664,
            "value": 1
            },
            {
            "number": 64,
            "time": 111.0457418583333,
            "value": 0
            },
            {
            "number": 64,
            "time": 111.33736381249997,
            "value": 1
            },
            {
            "number": 64,
            "time": 112.27070399999997,
            "value": 0
            },
            {
            "number": 64,
            "time": 114.85856771666663,
            "value": 1
            },
            {
            "number": 64,
            "time": 115.14943999999996,
            "value": 0
            },
            {
            "number": 64,
            "time": 117.72006128749996,
            "value": 1
            },
            {
            "number": 64,
            "time": 118.02817599999996,
            "value": 0
            },
            {
            "number": 64,
            "time": 121.29149313749996,
            "value": 1
            },
            {
            "number": 64,
            "time": 122.34627999999995,
            "value": 0
            },
            {
            "number": 64,
            "time": 122.76384665416661,
            "value": 1
            },
            {
            "number": 64,
            "time": 123.78564799999995,
            "value": 0
            },
            {
            "number": 64,
            "time": 123.84412232499996,
            "value": 1
            },
            {
            "number": 64,
            "time": 124.16648078333328,
            "value": 0
            },
            {
            "number": 64,
            "time": 124.23020280416662,
            "value": 1
            },
            {
            "number": 64,
            "time": 125.22501599999995,
            "value": 0
            },
            {
            "number": 64,
            "time": 125.28498966666662,
            "value": 1
            },
            {
            "number": 64,
            "time": 125.59760240416662,
            "value": 0
            },
            {
            "number": 64,
            "time": 125.65382771666663,
            "value": 1
            },
            {
            "number": 64,
            "time": 126.66438399999996,
            "value": 0
            },
            {
            "number": 64,
            "time": 126.86004808749996,
            "value": 1
            },
            {
            "number": 64,
            "time": 127.74390999999996,
            "value": 0
            },
            {
            "number": 64,
            "time": 128.33090226249996,
            "value": 1
            },
            {
            "number": 64,
            "time": 129.19602240416663,
            "value": 0
            },
            {
            "number": 64,
            "time": 129.76577223749996,
            "value": 1
            },
            {
            "number": 64,
            "time": 130.46446545416663,
            "value": 0
            },
            {
            "number": 64,
            "time": 131.26136554999997,
            "value": 1
            },
            {
            "number": 64,
            "time": 131.89933542916663,
            "value": 0
            },
            {
            "number": 64,
            "time": 133.86122399999996,
            "value": 0
            },
            {
            "number": 64,
            "time": 133.8934598458333,
            "value": 1
            },
            {
            "number": 64,
            "time": 134.23381040416663,
            "value": 0
            },
            {
            "number": 64,
            "time": 135.30059199999997,
            "value": 0
            },
            {
            "number": 64,
            "time": 136.76170045416663,
            "value": 0
            },
            {
            "number": 64,
            "time": 136.7766938708333,
            "value": 1
            },
            {
            "number": 64,
            "time": 137.11104706249998,
            "value": 0
            },
            {
            "number": 64,
            "time": 138.22730693333332,
            "value": 0
            },
            {
            "number": 64,
            "time": 142.5446612625,
            "value": 1
            },
            {
            "number": 64,
            "time": 143.2283610625,
            "value": 0
            },
            {
            "number": 64,
            "time": 143.26209625,
            "value": 1
            },
            {
            "number": 64,
            "time": 143.94504637916668,
            "value": 0
            },
            {
            "number": 64,
            "time": 149.7587436916667,
            "value": 1
            },
            {
            "number": 64,
            "time": 150.42070303750003,
            "value": 0
            },
            {
            "number": 64,
            "time": 150.4739296666667,
            "value": 1
            },
            {
            "number": 64,
            "time": 151.14563473333337,
            "value": 0
            },
            {
            "number": 64,
            "time": 151.1981116916667,
            "value": 1
            },
            {
            "number": 64,
            "time": 151.86531873333337,
            "value": 0
            },
            {
            "number": 64,
            "time": 151.93054009583338,
            "value": 1
            },
            {
            "number": 64,
            "time": 152.5790053666667,
            "value": 0
            },
            {
            "number": 64,
            "time": 158.74879632500003,
            "value": 1
            },
            {
            "number": 64,
            "time": 158.91297423750004,
            "value": 0
            },
            {
            "number": 64,
            "time": 159.47372802083336,
            "value": 1
            },
            {
            "number": 64,
            "time": 159.66939210833337,
            "value": 0
            },
            {
            "number": 64,
            "time": 160.16417485833338,
            "value": 1
            },
            {
            "number": 64,
            "time": 160.38982577916673,
            "value": 0
            },
            {
            "number": 64,
            "time": 160.89585359166674,
            "value": 1
            },
            {
            "number": 64,
            "time": 161.11700648750008,
            "value": 0
            },
            {
            "number": 64,
            "time": 161.45810671666675,
            "value": 1
            },
            {
            "number": 64,
            "time": 162.30148640416675,
            "value": 0
            },
            {
            "number": 64,
            "time": 162.3832005250001,
            "value": 1
            },
            {
            "number": 64,
            "time": 162.47615970833343,
            "value": 0
            },
            {
            "number": 64,
            "time": 162.53763271666676,
            "value": 1
            },
            {
            "number": 64,
            "time": 162.6508330125001,
            "value": 0
            },
            {
            "number": 64,
            "time": 162.7025603000001,
            "value": 1
            },
            {
            "number": 64,
            "time": 162.8419990750001,
            "value": 0
            },
            {
            "number": 64,
            "time": 162.9162164875001,
            "value": 1
            },
            {
            "number": 64,
            "time": 163.73560670833342,
            "value": 0
            },
            {
            "number": 64,
            "time": 163.79633004583343,
            "value": 1
            },
            {
            "number": 64,
            "time": 163.91552770833343,
            "value": 0
            },
            {
            "number": 64,
            "time": 163.9620073000001,
            "value": 1
            },
            {
            "number": 64,
            "time": 164.0946990375001,
            "value": 0
            },
            {
            "number": 64,
            "time": 164.16516809583345,
            "value": 1
            },
            {
            "number": 64,
            "time": 164.27911806250012,
            "value": 0
            },
            {
            "number": 64,
            "time": 164.36233152500012,
            "value": 1
            },
            {
            "number": 64,
            "time": 165.1764740500001,
            "value": 0
            },
            {
            "number": 64,
            "time": 165.26193652500012,
            "value": 1
            },
            {
            "number": 64,
            "time": 165.35864406250013,
            "value": 0
            },
            {
            "number": 64,
            "time": 165.43361114583345,
            "value": 1
            },
            {
            "number": 64,
            "time": 165.52732000000012,
            "value": 0
            },
            {
            "number": 64,
            "time": 165.59104202083344,
            "value": 1
            },
            {
            "number": 64,
            "time": 166.61734139166677,
            "value": 0
            },
            {
            "number": 64,
            "time": 166.6608223000001,
            "value": 1
            },
            {
            "number": 64,
            "time": 166.79501337916676,
            "value": 0
            },
            {
            "number": 64,
            "time": 166.85048902083344,
            "value": 1
            },
            {
            "number": 64,
            "time": 166.97193569583342,
            "value": 0
            },
            {
            "number": 64,
            "time": 167.37450893333343,
            "value": 1
            },
            {
            "number": 64,
            "time": 167.57542071666677,
            "value": 0
            },
            {
            "number": 64,
            "time": 168.11518371666676,
            "value": 1
            },
            {
            "number": 64,
            "time": 168.30560010833344,
            "value": 0
            },
            {
            "number": 64,
            "time": 168.8221233125001,
            "value": 1
            },
            {
            "number": 64,
            "time": 169.0845081041668,
            "value": 0
            },
            {
            "number": 64,
            "time": 169.50507344166678,
            "value": 1
            },
            {
            "number": 64,
            "time": 169.86641478333345,
            "value": 0
            },
            {
            "number": 64,
            "time": 170.2584926291668,
            "value": 1
            },
            {
            "number": 64,
            "time": 170.51787873750013,
            "value": 0
            },
            {
            "number": 64,
            "time": 170.96768123750013,
            "value": 1
            },
            {
            "number": 64,
            "time": 171.19483150000013,
            "value": 0
            },
            {
            "number": 64,
            "time": 171.70085931250014,
            "value": 1
            },
            {
            "number": 64,
            "time": 171.92725990416682,
            "value": 0
            },
            {
            "number": 64,
            "time": 172.41604528750014,
            "value": 1
            },
            {
            "number": 64,
            "time": 172.72416000000013,
            "value": 0
            },
            {
            "number": 64,
            "time": 172.81412050000012,
            "value": 1
            },
            {
            "number": 64,
            "time": 174.17027503750012,
            "value": 0
            },
            {
            "number": 64,
            "time": 174.2242513375001,
            "value": 1
            },
            {
            "number": 64,
            "time": 175.6186390875001,
            "value": 0
            },
            {
            "number": 64,
            "time": 175.68236110833342,
            "value": 1
            },
            {
            "number": 64,
            "time": 177.0422640000001,
            "value": 0
            },
            {
            "number": 64,
            "time": 177.09549062916676,
            "value": 1
            },
            {
            "number": 64,
            "time": 178.48762936666677,
            "value": 0
            },
            {
            "number": 64,
            "time": 178.55435007083344,
            "value": 1
            },
            {
            "number": 64,
            "time": 179.2103120500001,
            "value": 0
            },
            {
            "number": 64,
            "time": 179.27403407083344,
            "value": 1
            },
            {
            "number": 64,
            "time": 179.92699736666677,
            "value": 0
            },
            {
            "number": 64,
            "time": 179.97872465416677,
            "value": 1
            },
            {
            "number": 64,
            "time": 180.64893037916676,
            "value": 0
            },
            {
            "number": 64,
            "time": 180.6946603000001,
            "value": 1
            },
            {
            "number": 64,
            "time": 181.36561569583344,
            "value": 0
            },
            {
            "number": 64,
            "time": 181.42933771666677,
            "value": 1
            },
            {
            "number": 64,
            "time": 182.7997360000001,
            "value": 0
            },
            {
            "number": 64,
            "time": 182.8559613125001,
            "value": 1
            },
            {
            "number": 64,
            "time": 184.2391040000001,
            "value": 0
            },
            {
            "number": 64,
            "time": 186.83071607083343,
            "value": 1
            },
            {
            "number": 64,
            "time": 187.1178400000001,
            "value": 0
            },
            {
            "number": 64,
            "time": 189.69295931250008,
            "value": 1
            },
            {
            "number": 64,
            "time": 190.00482237916674,
            "value": 0
            },
            {
            "number": 64,
            "time": 191.10533916250006,
            "value": 1
            },
            {
            "number": 64,
            "time": 191.44943807500005,
            "value": 0
            },
            {
            "number": 64,
            "time": 192.55520255416673,
            "value": 1
            },
            {
            "number": 64,
            "time": 192.87531200000006,
            "value": 0
            },
            {
            "number": 64,
            "time": 193.28388260416673,
            "value": 1
            },
            {
            "number": 64,
            "time": 194.32367605000007,
            "value": 0
            },
            {
            "number": 64,
            "time": 194.71725323750007,
            "value": 1
            },
            {
            "number": 64,
            "time": 195.7592956958334,
            "value": 0
            },
            {
            "number": 64,
            "time": 195.82301771666673,
            "value": 1
            },
            {
            "number": 64,
            "time": 196.12513506250005,
            "value": 0
            },
            {
            "number": 64,
            "time": 196.18810741250005,
            "value": 1
            },
            {
            "number": 64,
            "time": 197.20016303750003,
            "value": 0
            },
            {
            "number": 64,
            "time": 197.24514328750004,
            "value": 1
            },
            {
            "number": 64,
            "time": 197.56000503750005,
            "value": 0
            },
            {
            "number": 64,
            "time": 197.6177296916667,
            "value": 1
            },
            {
            "number": 64,
            "time": 198.63953103750003,
            "value": 0
            },
            {
            "number": 64,
            "time": 216.3340117166667,
            "value": 1
            },
            {
            "number": 64,
            "time": 217.40829002083336,
            "value": 0
            },
            {
            "number": 64,
            "time": 217.48250743333335,
            "value": 1
            },
            {
            "number": 64,
            "time": 218.07849574583335,
            "value": 0
            },
            {
            "number": 64,
            "time": 218.17520328333336,
            "value": 1
            },
            {
            "number": 64,
            "time": 218.79967908750004,
            "value": 0
            },
            {
            "number": 64,
            "time": 218.8529057166667,
            "value": 1
            },
            {
            "number": 64,
            "time": 219.5141153916667,
            "value": 0
            },
            {
            "number": 64,
            "time": 219.58308510833336,
            "value": 1
            },
            {
            "number": 64,
            "time": 220.22555301250003,
            "value": 0
            },
            {
            "number": 64,
            "time": 220.25553984583337,
            "value": 1
            },
            {
            "number": 64,
            "time": 220.9692264791667,
            "value": 0
            },
            {
            "number": 64,
            "time": 221.72114632500003,
            "value": 1
            },
            {
            "number": 64,
            "time": 222.75644174583337,
            "value": 0
            },
            {
            "number": 64,
            "time": 226.03475230000004,
            "value": 1
            },
            {
            "number": 64,
            "time": 226.70720703750004,
            "value": 0
            },
            {
            "number": 64,
            "time": 226.75668531250005,
            "value": 1
            },
            {
            "number": 64,
            "time": 227.42014400000005,
            "value": 0
            },
            {
            "number": 64,
            "time": 227.51010450000004,
            "value": 1
            },
            {
            "number": 64,
            "time": 228.51841177083338,
            "value": 0
            },
            {
            "number": 64,
            "time": 230.22016456250006,
            "value": 1
            },
            {
            "number": 64,
            "time": 231.37315830416674,
            "value": 0
            },
            {
            "number": 64,
            "time": 231.4421280208334,
            "value": 1
            },
            {
            "number": 64,
            "time": 231.74874339166672,
            "value": 0
            },
            {
            "number": 64,
            "time": 231.79147462916671,
            "value": 1
            },
            {
            "number": 64,
            "time": 232.1085853916667,
            "value": 0
            },
            {
            "number": 64,
            "time": 232.1670597166667,
            "value": 1
            },
            {
            "number": 64,
            "time": 232.46542870833338,
            "value": 0
            },
            {
            "number": 64,
            "time": 232.55314019583338,
            "value": 1
            },
            {
            "number": 64,
            "time": 232.8282693916667,
            "value": 0
            },
            {
            "number": 64,
            "time": 232.87624832500003,
            "value": 1
            },
            {
            "number": 64,
            "time": 233.1881113916667,
            "value": 0
            },
            {
            "number": 64,
            "time": 233.2308426291667,
            "value": 1
            },
            {
            "number": 64,
            "time": 233.54945273333337,
            "value": 0
            },
            {
            "number": 64,
            "time": 233.61692310833337,
            "value": 1
            },
            {
            "number": 64,
            "time": 233.9100444041667,
            "value": 0
            },
            {
            "number": 64,
            "time": 233.9977558916667,
            "value": 1
            },
            {
            "number": 64,
            "time": 234.62747939166672,
            "value": 0
            },
            {
            "number": 64,
            "time": 234.9370934458334,
            "value": 1
            },
            {
            "number": 64,
            "time": 236.06534805000007,
            "value": 0
            },
            {
            "number": 64,
            "time": 236.23627300000007,
            "value": 1
            },
            {
            "number": 64,
            "time": 237.49572000000006,
            "value": 0
            },
            {
            "number": 64,
            "time": 240.0783360208334,
            "value": 1
            },
            {
            "number": 64,
            "time": 240.0783360208334,
            "value": 1
            },
            {
            "number": 64,
            "time": 240.38345205000007,
            "value": 0
            },
            {
            "number": 64,
            "time": 240.38345205000007,
            "value": 0
            },
            {
            "number": 64,
            "time": 242.95782169166674,
            "value": 1
            },
            {
            "number": 64,
            "time": 242.95782169166674,
            "value": 1
            },
            {
            "number": 64,
            "time": 243.26593640416672,
            "value": 0
            },
            {
            "number": 64,
            "time": 243.26593640416672,
            "value": 0
            },
            {
            "number": 64,
            "time": 245.8065708583334,
            "value": 1
            },
            {
            "number": 64,
            "time": 245.8065708583334,
            "value": 1
            },
            {
            "number": 64,
            "time": 246.1349266833334,
            "value": 0
            },
            {
            "number": 64,
            "time": 246.1349266833334,
            "value": 0
            },
            {
            "number": 64,
            "time": 247.24069116250007,
            "value": 1
            },
            {
            "number": 64,
            "time": 247.24069116250007,
            "value": 1
            },
            {
            "number": 64,
            "time": 247.57129600000007,
            "value": 0
            },
            {
            "number": 64,
            "time": 247.57129600000007,
            "value": 0
            },
            {
            "number": 64,
            "time": 248.70404862916675,
            "value": 1
            },
            {
            "number": 64,
            "time": 248.70404862916675,
            "value": 1
            },
            {
            "number": 64,
            "time": 249.01066400000008,
            "value": 0
            },
            {
            "number": 64,
            "time": 249.01066400000008,
            "value": 0
            },
            {
            "number": 64,
            "time": 249.23331623750008,
            "value": 1
            },
            {
            "number": 64,
            "time": 249.23331623750008,
            "value": 1
            },
            {
            "number": 64,
            "time": 249.56317140416675,
            "value": 0
            },
            {
            "number": 64,
            "time": 249.56317140416675,
            "value": 0
            },
            {
            "number": 64,
            "time": 249.61489869166675,
            "value": 1
            },
            {
            "number": 64,
            "time": 249.61489869166675,
            "value": 1
            },
            {
            "number": 64,
            "time": 249.74309240416676,
            "value": 0
            },
            {
            "number": 64,
            "time": 249.74309240416676,
            "value": 0
            },
            {
            "number": 64,
            "time": 249.79481969166676,
            "value": 1
            },
            {
            "number": 64,
            "time": 249.79481969166676,
            "value": 1
            },
            {
            "number": 64,
            "time": 249.9192650500001,
            "value": 0
            },
            {
            "number": 64,
            "time": 249.9192650500001,
            "value": 0
            },
            {
            "number": 64,
            "time": 249.9664943125001,
            "value": 1
            },
            {
            "number": 64,
            "time": 249.9664943125001,
            "value": 1
            },
            {
            "number": 64,
            "time": 250.10293440416675,
            "value": 0
            },
            {
            "number": 64,
            "time": 250.10293440416675,
            "value": 0
            },
            {
            "number": 64,
            "time": 250.15016366666674,
            "value": 1
            },
            {
            "number": 64,
            "time": 250.15016366666674,
            "value": 1
            },
            {
            "number": 64,
            "time": 250.28285540416675,
            "value": 0
            },
            {
            "number": 64,
            "time": 250.28285540416675,
            "value": 0
            },
            {
            "number": 64,
            "time": 250.3218382875001,
            "value": 1
            },
            {
            "number": 64,
            "time": 250.3218382875001,
            "value": 1
            },
            {
            "number": 64,
            "time": 250.45602936666677,
            "value": 0
            },
            {
            "number": 64,
            "time": 250.45602936666677,
            "value": 0
            },
            {
            "number": 64,
            "time": 250.51000566666676,
            "value": 1
            },
            {
            "number": 64,
            "time": 250.51000566666676,
            "value": 1
            },
            {
            "number": 64,
            "time": 250.6434470750001,
            "value": 0
            },
            {
            "number": 64,
            "time": 250.6434470750001,
            "value": 0
            },
            {
            "number": 64,
            "time": 250.68992666666676,
            "value": 1
            },
            {
            "number": 64,
            "time": 250.68992666666676,
            "value": 1
            },
            {
            "number": 64,
            "time": 250.82261840416678,
            "value": 0
            },
            {
            "number": 64,
            "time": 250.82261840416678,
            "value": 0
            },
            {
            "number": 64,
            "time": 250.86160128750012,
            "value": 1
            },
            {
            "number": 64,
            "time": 250.86160128750012,
            "value": 1
            },
            {
            "number": 64,
            "time": 251.00253940416678,
            "value": 0
            },
            {
            "number": 64,
            "time": 251.00253940416678,
            "value": 0
            },
            {
            "number": 64,
            "time": 251.0587647166668,
            "value": 1
            },
            {
            "number": 64,
            "time": 251.0587647166668,
            "value": 1
            },
            {
            "number": 64,
            "time": 251.18395974583345,
            "value": 0
            },
            {
            "number": 64,
            "time": 251.18395974583345,
            "value": 0
            },
            {
            "number": 64,
            "time": 251.2341876916668,
            "value": 1
            },
            {
            "number": 64,
            "time": 251.2341876916668,
            "value": 1
            },
            {
            "number": 64,
            "time": 251.36013239166678,
            "value": 0
            },
            {
            "number": 64,
            "time": 251.36013239166678,
            "value": 0
            },
            {
            "number": 64,
            "time": 251.41410869166677,
            "value": 1
            },
            {
            "number": 64,
            "time": 251.41410869166677,
            "value": 1
            },
            {
            "number": 64,
            "time": 251.5385540500001,
            "value": 0
            },
            {
            "number": 64,
            "time": 251.5385540500001,
            "value": 0
            },
            {
            "number": 64,
            "time": 251.59852771666678,
            "value": 1
            },
            {
            "number": 64,
            "time": 251.59852771666678,
            "value": 1
            },
            {
            "number": 64,
            "time": 251.71697570833345,
            "value": 0
            },
            {
            "number": 64,
            "time": 251.71697570833345,
            "value": 0
            },
            {
            "number": 64,
            "time": 251.7657043125001,
            "value": 1
            },
            {
            "number": 64,
            "time": 251.7657043125001,
            "value": 1
            },
            {
            "number": 64,
            "time": 251.89539736666677,
            "value": 0
            },
            {
            "number": 64,
            "time": 251.89539736666677,
            "value": 0
            },
            {
            "number": 64,
            "time": 251.95836971666677,
            "value": 1
            },
            {
            "number": 64,
            "time": 251.95836971666677,
            "value": 1
            },
            {
            "number": 64,
            "time": 252.4426570750001,
            "value": 0
            },
            {
            "number": 64,
            "time": 252.4426570750001,
            "value": 0
            },
            {
            "number": 64,
            "time": 252.4853883125001,
            "value": 1
            },
            {
            "number": 64,
            "time": 252.4853883125001,
            "value": 1
            },
            {
            "number": 64,
            "time": 252.6203290625001,
            "value": 0
            },
            {
            "number": 64,
            "time": 252.6203290625001,
            "value": 0
            },
            {
            "number": 64,
            "time": 252.66905766666676,
            "value": 1
            },
            {
            "number": 64,
            "time": 252.66905766666676,
            "value": 1
            },
            {
            "number": 64,
            "time": 252.80174940416677,
            "value": 0
            },
            {
            "number": 64,
            "time": 252.80174940416677,
            "value": 0
            },
            {
            "number": 64,
            "time": 252.85347669166677,
            "value": 1
            },
            {
            "number": 64,
            "time": 252.85347669166677,
            "value": 1
            },
            {
            "number": 64,
            "time": 252.9801710625001,
            "value": 0
            },
            {
            "number": 64,
            "time": 252.9801710625001,
            "value": 0
            },
            {
            "number": 64,
            "time": 253.03339769166675,
            "value": 1
            },
            {
            "number": 64,
            "time": 253.03339769166675,
            "value": 1
            },
            {
            "number": 64,
            "time": 253.16234107500009,
            "value": 0
            },
            {
            "number": 64,
            "time": 253.16234107500009,
            "value": 0
            },
            {
            "number": 64,
            "time": 253.20507231250008,
            "value": 1
            },
            {
            "number": 64,
            "time": 253.20507231250008,
            "value": 1
            },
            {
            "number": 64,
            "time": 253.33476536666674,
            "value": 0
            },
            {
            "number": 64,
            "time": 253.33476536666674,
            "value": 0
            },
            {
            "number": 64,
            "time": 253.38874166666673,
            "value": 1
            },
            {
            "number": 64,
            "time": 253.38874166666673,
            "value": 1
            },
            {
            "number": 64,
            "time": 253.5184347208334,
            "value": 0
            },
            {
            "number": 64,
            "time": 253.5184347208334,
            "value": 0
            },
            {
            "number": 64,
            "time": 253.57316069166674,
            "value": 1
            },
            {
            "number": 64,
            "time": 253.57316069166674,
            "value": 1
            },
            {
            "number": 64,
            "time": 253.7028537458334,
            "value": 0
            },
            {
            "number": 64,
            "time": 253.7028537458334,
            "value": 0
            },
            {
            "number": 64,
            "time": 253.74483531250007,
            "value": 1
            },
            {
            "number": 64,
            "time": 253.74483531250007,
            "value": 1
            },
            {
            "number": 64,
            "time": 253.88277474583342,
            "value": 0
            },
            {
            "number": 64,
            "time": 253.88277474583342,
            "value": 0
            },
            {
            "number": 64,
            "time": 253.92475631250008,
            "value": 1
            },
            {
            "number": 64,
            "time": 253.92475631250008,
            "value": 1
            },
            {
            "number": 64,
            "time": 254.0649447583334,
            "value": 0
            },
            {
            "number": 64,
            "time": 254.0649447583334,
            "value": 0
            },
            {
            "number": 64,
            "time": 254.11292369166674,
            "value": 1
            },
            {
            "number": 64,
            "time": 254.11292369166674,
            "value": 1
            },
            {
            "number": 64,
            "time": 254.24036773333341,
            "value": 0
            },
            {
            "number": 64,
            "time": 254.24036773333341,
            "value": 0
            },
            {
            "number": 64,
            "time": 254.2845983125001,
            "value": 1
            },
            {
            "number": 64,
            "time": 254.2845983125001,
            "value": 1
            },
            {
            "number": 64,
            "time": 254.42253774583344,
            "value": 0
            },
            {
            "number": 64,
            "time": 254.42253774583344,
            "value": 0
            },
            {
            "number": 64,
            "time": 254.46826766666678,
            "value": 1
            },
            {
            "number": 64,
            "time": 254.46826766666678,
            "value": 1
            },
            {
            "number": 64,
            "time": 254.5994600625001,
            "value": 0
            },
            {
            "number": 64,
            "time": 254.5994600625001,
            "value": 0
            },
            {
            "number": 64,
            "time": 254.6354442625001,
            "value": 1
            },
            {
            "number": 64,
            "time": 254.6354442625001,
            "value": 1
            },
            {
            "number": 64,
            "time": 254.7681360000001,
            "value": 0
            },
            {
            "number": 64,
            "time": 254.7681360000001,
            "value": 0
            },
            {
            "number": 64,
            "time": 254.80711888333346,
            "value": 1
            },
            {
            "number": 64,
            "time": 254.80711888333346,
            "value": 1
            },
            {
            "number": 64,
            "time": 254.86259452500013,
            "value": 0
            },
            {
            "number": 64,
            "time": 254.86259452500013,
            "value": 0
            },
            {
            "number": 64,
            "time": 254.9652994291668,
            "value": 1
            },
            {
            "number": 64,
            "time": 254.9652994291668,
            "value": 1
            },
            {
            "number": 64,
            "time": 255.03801750000014,
            "value": 0
            },
            {
            "number": 64,
            "time": 255.03801750000014,
            "value": 0
            },
            {
            "number": 64,
            "time": 255.1452204291668,
            "value": 1
            },
            {
            "number": 64,
            "time": 255.1452204291668,
            "value": 1
            },
            {
            "number": 64,
            "time": 255.24342730833348,
            "value": 0
            },
            {
            "number": 64,
            "time": 255.24342730833348,
            "value": 0
            },
            {
            "number": 64,
            "time": 255.33788583333347,
            "value": 1
            },
            {
            "number": 64,
            "time": 255.33788583333347,
            "value": 1
            },
            {
            "number": 64,
            "time": 255.43234435833347,
            "value": 0
            },
            {
            "number": 64,
            "time": 255.43234435833347,
            "value": 0
            },
            {
            "number": 64,
            "time": 255.51780683333348,
            "value": 1
            },
            {
            "number": 64,
            "time": 255.51780683333348,
            "value": 1
            },
            {
            "number": 64,
            "time": 255.61226535833347,
            "value": 0
            },
            {
            "number": 64,
            "time": 255.61226535833347,
            "value": 0
            },
            {
            "number": 64,
            "time": 255.69322980833348,
            "value": 1
            },
            {
            "number": 64,
            "time": 255.69322980833348,
            "value": 1
            },
            {
            "number": 64,
            "time": 255.79593471250016,
            "value": 0
            },
            {
            "number": 64,
            "time": 255.79593471250016,
            "value": 0
            },
            {
            "number": 64,
            "time": 255.88589521250015,
            "value": 1
            },
            {
            "number": 64,
            "time": 255.88589521250015,
            "value": 1
            },
            {
            "number": 64,
            "time": 255.98035373750014,
            "value": 0
            },
            {
            "number": 64,
            "time": 255.98035373750014,
            "value": 0
            },
            {
            "number": 64,
            "time": 256.0658162125001,
            "value": 1
            },
            {
            "number": 64,
            "time": 256.0658162125001,
            "value": 1
            },
            {
            "number": 64,
            "time": 256.1392839541668,
            "value": 0
            },
            {
            "number": 64,
            "time": 256.1392839541668,
            "value": 0
            },
            {
            "number": 64,
            "time": 256.22474642916677,
            "value": 1
            },
            {
            "number": 64,
            "time": 256.22474642916677,
            "value": 1
            },
            {
            "number": 64,
            "time": 256.42190985833344,
            "value": 0
            },
            {
            "number": 64,
            "time": 256.42190985833344,
            "value": 0
            },
            {
            "number": 64,
            "time": 256.7135318125001,
            "value": 1
            },
            {
            "number": 64,
            "time": 256.7135318125001,
            "value": 1
            },
            {
            "number": 64,
            "time": 257.6468720000001,
            "value": 0
            },
            {
            "number": 64,
            "time": 257.6468720000001,
            "value": 0
            },
            {
            "number": 64,
            "time": 258.03745050416677,
            "value": 1
            },
            {
            "number": 64,
            "time": 259.09373670833344,
            "value": 0
            },
            {
            "number": 64,
            "time": 259.4858145541668,
            "value": 1
            },
            {
            "number": 64,
            "time": 260.5353537208334,
            "value": 0
            },
            {
            "number": 64,
            "time": 260.5893300208334,
            "value": 1
            },
            {
            "number": 64,
            "time": 260.89594539166677,
            "value": 0
            },
            {
            "number": 64,
            "time": 260.9806581958334,
            "value": 1
            },
            {
            "number": 64,
            "time": 261.97472172083343,
            "value": 0
            },
            {
            "number": 64,
            "time": 262.0339457166668,
            "value": 1
            },
            {
            "number": 64,
            "time": 262.3390617458334,
            "value": 0
            },
            {
            "number": 64,
            "time": 262.4020340958334,
            "value": 1
            },
            {
            "number": 64,
            "time": 263.41109103750006,
            "value": 0
            },
            {
            "number": 64,
            "time": 263.66897780416673,
            "value": 1
            },
            {
            "number": 64,
            "time": 264.49736407500006,
            "value": 0
            },
            {
            "number": 64,
            "time": 265.03412839166674,
            "value": 1
            },
            {
            "number": 64,
            "time": 265.93148437916676,
            "value": 0
            },
            {
            "number": 64,
            "time": 266.50573223750007,
            "value": 1
            },
            {
            "number": 64,
            "time": 267.3716020500001,
            "value": 0
            },
            {
            "number": 64,
            "time": 267.94510023750007,
            "value": 1
            },
            {
            "number": 64,
            "time": 268.8117197208334,
            "value": 0
            },
            {
            "number": 64,
            "time": 270.63866754166673,
            "value": 1
            },
            {
            "number": 64,
            "time": 270.9752697458334,
            "value": 0
            },
            {
            "number": 64,
            "time": 273.50765782083334,
            "value": 1
            },
            {
            "number": 64,
            "time": 273.8570044291667,
            "value": 0
            },
            {
            "number": 64,
            "time": 280.00730394583337,
            "value": 1
            },
            {
            "number": 64,
            "time": 280.69550177083335,
            "value": 0
            },
            {
            "number": 64,
            "time": 285.0465912875,
            "value": 1
            },
            {
            "number": 64,
            "time": 285.7212950375,
            "value": 0
            },
            {
            "number": 64,
            "time": 285.77452166666666,
            "value": 1
            },
            {
            "number": 64,
            "time": 286.44697640416666,
            "value": 0
            },
            {
            "number": 64,
            "time": 286.51594612083335,
            "value": 1
            },
            {
            "number": 64,
            "time": 287.16516106250003,
            "value": 0
            },
            {
            "number": 64,
            "time": 287.24012814583335,
            "value": 1
            },
            {
            "number": 64,
            "time": 287.88034703750003,
            "value": 0
            },
            {
            "number": 64,
            "time": 294.05463602083336,
            "value": 1
            },
            {
            "number": 64,
            "time": 294.25554780416667,
            "value": 0
            },
            {
            "number": 64,
            "time": 294.8110538916667,
            "value": 1
            },
            {
            "number": 64,
            "time": 294.96998410833334,
            "value": 0
            },
            {
            "number": 64,
            "time": 295.4730132375,
            "value": 1
            },
            {
            "number": 64,
            "time": 295.7129079041667,
            "value": 0
            },
            {
            "number": 64,
            "time": 296.18894888333335,
            "value": 1
            },
            {
            "number": 64,
            "time": 296.4198475,
            "value": 0
            },
            {
            "number": 64,
            "time": 296.77444180416666,
            "value": 1
            },
            {
            "number": 64,
            "time": 297.60207840416666,
            "value": 0
            },
            {
            "number": 64,
            "time": 297.67404680416666,
            "value": 1
            },
            {
            "number": 64,
            "time": 297.77675170833334,
            "value": 0
            },
            {
            "number": 64,
            "time": 297.85396780416664,
            "value": 1
            },
            {
            "number": 64,
            "time": 297.95517336666666,
            "value": 0
            },
            {
            "number": 64,
            "time": 298.03538814583334,
            "value": 1
            },
            {
            "number": 64,
            "time": 298.13659370833335,
            "value": 0
            },
            {
            "number": 64,
            "time": 298.223555525,
            "value": 1
            },
            {
            "number": 64,
            "time": 299.04069673333333,
            "value": 0
            },
            {
            "number": 64,
            "time": 299.1059180958333,
            "value": 1
            },
            {
            "number": 64,
            "time": 299.2153700375,
            "value": 0
            },
            {
            "number": 64,
            "time": 299.29483514583336,
            "value": 1
            },
            {
            "number": 64,
            "time": 299.388544,
            "value": 0
            },
            {
            "number": 64,
            "time": 299.4942475875,
            "value": 1
            },
            {
            "number": 64,
            "time": 300.4470792166667,
            "value": 0
            },
            {
            "number": 64,
            "time": 300.53179202083334,
            "value": 1
            },
            {
            "number": 64,
            "time": 300.6577367208333,
            "value": 0
            },
            {
            "number": 64,
            "time": 300.7222084125,
            "value": 1
            },
            {
            "number": 64,
            "time": 300.82791199999997,
            "value": 0
            },
            {
            "number": 64,
            "time": 300.9141241458333,
            "value": 1
            },
            {
            "number": 64,
            "time": 301.01907806249994,
            "value": 0
            },
            {
            "number": 64,
            "time": 301.09404514583326,
            "value": 1
            },
            {
            "number": 64,
            "time": 301.91868306249995,
            "value": 0
            },
            {
            "number": 64,
            "time": 301.96366331249993,
            "value": 1
            },
            {
            "number": 64,
            "time": 302.10160274583325,
            "value": 0
            },
            {
            "number": 64,
            "time": 302.16457509583324,
            "value": 1
            },
            {
            "number": 64,
            "time": 302.27327736666655,
            "value": 0
            },
            {
            "number": 64,
            "time": 302.66985323749986,
            "value": 1
            },
            {
            "number": 64,
            "time": 302.8602696291665,
            "value": 0
            },
            {
            "number": 64,
            "time": 303.40528032499986,
            "value": 1
            },
            {
            "number": 64,
            "time": 303.5747059333332,
            "value": 0
            },
            {
            "number": 64,
            "time": 304.12271531249985,
            "value": 1
            },
            {
            "number": 64,
            "time": 304.29813828749985,
            "value": 0
            },
            {
            "number": 64,
            "time": 304.8588920708332,
            "value": 1
            },
            {
            "number": 64,
            "time": 305.0605535249998,
            "value": 0
            },
            {
            "number": 64,
            "time": 305.5748277166665,
            "value": 1
            },
            {
            "number": 64,
            "time": 305.8079753458332,
            "value": 0
            },
            {
            "number": 64,
            "time": 306.2787686291665,
            "value": 1
            },
            {
            "number": 64,
            "time": 306.50067119583315,
            "value": 0
            },
            {
            "number": 64,
            "time": 306.9827095416665,
            "value": 1
            },
            {
            "number": 64,
            "time": 307.2525910416665,
            "value": 0
            },
            {
            "number": 64,
            "time": 307.7181366291665,
            "value": 1
            },
            {
            "number": 64,
            "time": 308.0329983791665,
            "value": 0
            },
            {
            "number": 64,
            "time": 308.0937217166665,
            "value": 1
            },
            {
            "number": 64,
            "time": 309.47086703749983,
            "value": 0
            },
            {
            "number": 64,
            "time": 309.52259432499983,
            "value": 1
            },
            {
            "number": 64,
            "time": 310.9177317458332,
            "value": 0
            },
            {
            "number": 64,
            "time": 310.96196232499983,
            "value": 1
            },
            {
            "number": 64,
            "time": 312.3458546833332,
            "value": 0
            },
            {
            "number": 64,
            "time": 312.38258855416655,
            "value": 1
            },
            {
            "number": 64,
            "time": 313.7889710374999,
            "value": 0
            },
            {
            "number": 64,
            "time": 313.8384493124999,
            "value": 1
            },
            {
            "number": 64,
            "time": 314.5139027333332,
            "value": 0
            },
            {
            "number": 64,
            "time": 314.5618816666666,
            "value": 1
            },
            {
            "number": 64,
            "time": 315.23583574583324,
            "value": 0
            },
            {
            "number": 64,
            "time": 315.26282389583326,
            "value": 1
            },
            {
            "number": 64,
            "time": 315.94877270833325,
            "value": 0
            },
            {
            "number": 64,
            "time": 315.9885052624999,
            "value": 1
            },
            {
            "number": 64,
            "time": 316.67070572083327,
            "value": 0
            },
            {
            "number": 64,
            "time": 316.7351774124999,
            "value": 1
            },
            {
            "number": 64,
            "time": 318.1048260249999,
            "value": 0
            },
            {
            "number": 64,
            "time": 318.1565533124999,
            "value": 1
            },
            {
            "number": 64,
            "time": 319.54794237916656,
            "value": 0
            },
            {
            "number": 64,
            "time": 322.09607354166656,
            "value": 1
            },
            {
            "number": 64,
            "time": 322.4296770624999,
            "value": 0
            },
            {
            "number": 64,
            "time": 324.9958003249999,
            "value": 1
            },
            {
            "number": 64,
            "time": 325.2971679999999,
            "value": 0
            },
            {
            "number": 64,
            "time": 325.35339331249986,
            "value": 1
            },
            {
            "number": 64,
            "time": 328.1759039999999,
            "value": 0
            },
            {
            "number": 64,
            "time": 328.22088424999987,
            "value": 1
            },
            {
            "number": 64,
            "time": 331.0546399999999,
            "value": 0
            },
            {
            "number": 64,
            "time": 331.4939471083332,
            "value": 1
            },
            {
            "number": 64,
            "time": 332.50450339166656,
            "value": 0
            },
            {
            "number": 64,
            "time": 332.92281971666654,
            "value": 1
            },
            {
            "number": 64,
            "time": 333.9333759999999,
            "value": 0
            },
            {
            "number": 64,
            "time": 334.37793080416657,
            "value": 1
            },
            {
            "number": 64,
            "time": 335.37649235416654,
            "value": 0
            },
            {
            "number": 64,
            "time": 335.78431328749986,
            "value": 1
            },
            {
            "number": 64,
            "time": 336.8196087083332,
            "value": 0
            },
            {
            "number": 64,
            "time": 337.2199329333332,
            "value": 1
            },
            {
            "number": 64,
            "time": 338.25822703749986,
            "value": 0
            },
            {
            "number": 64,
            "time": 338.32044971666653,
            "value": 1
            },
            {
            "number": 64,
            "time": 338.6240664041665,
            "value": 0
            },
            {
            "number": 64,
            "time": 338.6697963249998,
            "value": 1
            },
            {
            "number": 64,
            "time": 339.69834470833314,
            "value": 0
            },
            {
            "number": 64,
            "time": 339.7545700208331,
            "value": 1
            },
            {
            "number": 64,
            "time": 340.06043572083314,
            "value": 0
            },
            {
            "number": 64,
            "time": 340.1091643249998,
            "value": 1
            },
            {
            "number": 64,
            "time": 341.1392120499998,
            "value": 0
            },
            {
            "number": 64,
            "time": 341.19468769166645,
            "value": 1
            },
            {
            "number": 64,
            "time": 341.50280240416646,
            "value": 0
            },
            {
            "number": 64,
            "time": 341.55452969166646,
            "value": 1
            },
            {
            "number": 64,
            "time": 342.57708070833314,
            "value": 0
            },
            {
            "number": 64,
            "time": 345.5120420208331,
            "value": 1
            },
            {
            "number": 64,
            "time": 348.3270559999998,
            "value": 0
            },
            {
            "number": 64,
            "time": 348.39152769166645,
            "value": 1
            },
            {
            "number": 64,
            "time": 351.2177867333331,
            "value": 0
            },
            {
            "number": 64,
            "time": 351.2575192874998,
            "value": 1
            },
            {
            "number": 64,
            "time": 354.1272592374998,
            "value": 0
            },
            {
            "number": 64,
            "time": 354.16924080416646,
            "value": 1
            },
            {
            "number": 64,
            "time": 356.9632639999998,
            "value": 0
            },
            {
            "number": 64,
            "time": 359.16504723749983,
            "value": 1
            },
            {
            "number": 64,
            "time": 359.84874703749983,
            "value": 0
            },
            {
            "number": 64,
            "time": 359.8764848583332,
            "value": 1
            },
            {
            "number": 64,
            "time": 361.29486207499986,
            "value": 0
            },
            {
            "number": 64,
            "time": 364.87978799999985,
            "value": 1
            },
            {
            "number": 64,
            "time": 366.3266527083332,
            "value": 0
            },
            {
            "number": 64,
            "time": 366.5792917791665,
            "value": 1
            },
            {
            "number": 64,
            "time": 367.76377169583316,
            "value": 0
            },
            {
            "number": 64,
            "time": 367.8274937166665,
            "value": 1
            },
            {
            "number": 64,
            "time": 369.1978919999998,
            "value": 0
            },
            {
            "number": 64,
            "time": 369.2751080958331,
            "value": 1
            },
            {
            "number": 64,
            "time": 370.6447567083331,
            "value": 0
            },
            {
            "number": 64,
            "time": 370.70098202083307,
            "value": 1
            },
            {
            "number": 64,
            "time": 372.0901220749997,
            "value": 0
            },
            {
            "number": 64,
            "time": 372.13735133749975,
            "value": 1
            },
            {
            "number": 64,
            "time": 373.53023974583306,
            "value": 0
            },
            {
            "number": 64,
            "time": 373.5632252624997,
            "value": 1
            },
            {
            "number": 64,
            "time": 374.2469250624997,
            "value": 0
            },
            {
            "number": 64,
            "time": 374.27016485833303,
            "value": 1
            },
            {
            "number": 64,
            "time": 374.96810840416634,
            "value": 0
            },
            {
            "number": 64,
            "time": 374.9980952374997,
            "value": 1
            },
            {
            "number": 64,
            "time": 375.684793720833,
            "value": 0
            },
            {
            "number": 64,
            "time": 375.711781870833,
            "value": 1
            },
            {
            "number": 64,
            "time": 376.40522739166636,
            "value": 0
            },
            {
            "number": 64,
            "time": 376.47419710833304,
            "value": 1
            },
            {
            "number": 64,
            "time": 380.76606262916636,
            "value": 0
            },
            {
            "number": 64,
            "time": 380.8560231291664,
            "value": 1
            },
            {
            "number": 64,
            "time": 381.0202010416664,
            "value": 0
            },
            {
            "number": 64,
            "time": 381.4595081499997,
            "value": 1
            },
            {
            "number": 64,
            "time": 381.57570712916635,
            "value": 0
            },
            {
            "number": 64,
            "time": 382.184439845833,
            "value": 1
            },
            {
            "number": 64,
            "time": 382.41683780416633,
            "value": 0
            }
        ]
        },
        "id": 3,
        "name": "Pedal"
    },
    {
        "startTime": 0,
        "duration": 0,
        "length": 0,
        "notes": [],
        "controlChanges": {},
        "id": 4,
        "name": "Beethoven: Sonate Nr. 14 cis-moll, Op. 27/2 - 3. Satz"
    },
    {
        "startTime": 0,
        "duration": 0,
        "length": 0,
        "notes": [],
        "controlChanges": {},
        "id": 5,
        "name": "Copyright © 1998 by Bernd Krueger"
    },
    {
        "startTime": 0,
        "duration": 0,
        "length": 0,
        "notes": [],
        "controlChanges": {},
        "id": 6,
        "name": "http://www.piano-midi.de"
    },
    {
        "startTime": 0,
        "duration": 0,
        "length": 0,
        "notes": [],
        "controlChanges": {},
        "id": 7,
        "name": "Edition: 2012-06-14"
    }
    ]
}
